%TF.GenerationSoftware,KiCad,Pcbnew,8.0.1*%
%TF.CreationDate,2025-08-11T12:06:45+02:00*%
%TF.ProjectId,SVX_Node_Case_back,5356585f-4e6f-4646-955f-436173655f62,rev?*%
%TF.SameCoordinates,Original*%
%TF.FileFunction,Drillmap*%
%TF.FilePolarity,Positive*%
%FSLAX45Y45*%
G04 Gerber Fmt 4.5, Leading zero omitted, Abs format (unit mm)*
G04 Created by KiCad (PCBNEW 8.0.1) date 2025-08-11 12:06:45*
%MOMM*%
%LPD*%
G01*
G04 APERTURE LIST*
%ADD10C,0.200000*%
%ADD11C,0.050000*%
%ADD12C,0.430000*%
G04 APERTURE END LIST*
D10*
X10541000Y-9697000D02*
G75*
G02*
X9461000Y-9697000I-540000J0D01*
G01*
X9461000Y-9697000D02*
G75*
G02*
X10541000Y-9697000I540000J0D01*
G01*
X14243974Y-10196681D02*
G75*
G02*
X14130000Y-10270002I-109984J45721D01*
G01*
D11*
X19150000Y-9030000D02*
X20750000Y-9030000D01*
X20750000Y-10380000D01*
X19150000Y-10380000D01*
X19150000Y-9030000D01*
D10*
X12319334Y-9270264D02*
G75*
G02*
X12376061Y-9169702I90936J14984D01*
G01*
X17131000Y-9680000D02*
G75*
G02*
X16291000Y-9680000I-420000J0D01*
G01*
X16291000Y-9680000D02*
G75*
G02*
X17131000Y-9680000I420000J0D01*
G01*
X12530000Y-10270000D02*
X14130000Y-10270000D01*
X14243974Y-10196681D02*
X14328000Y-9271000D01*
X14740000Y-9710000D02*
G75*
G02*
X14420000Y-9710000I-160000J0D01*
G01*
X14420000Y-9710000D02*
G75*
G02*
X14740000Y-9710000I160000J0D01*
G01*
X12376061Y-9169703D02*
X14270673Y-9170000D01*
X12240000Y-9710000D02*
G75*
G02*
X11920000Y-9710000I-160000J0D01*
G01*
X11920000Y-9710000D02*
G75*
G02*
X12240000Y-9710000I160000J0D01*
G01*
X12530000Y-10270000D02*
G75*
G02*
X12427380Y-10196745I7520J119040D01*
G01*
X14271000Y-9170000D02*
G75*
G02*
X14327729Y-9270561I-34210J-85580D01*
G01*
X12427377Y-10196747D02*
X12319334Y-9270264D01*
D11*
X18710000Y-9870000D02*
G75*
G02*
X18390000Y-9870000I-160000J0D01*
G01*
X18390000Y-9870000D02*
G75*
G02*
X18710000Y-9870000I160000J0D01*
G01*
X21460000Y-9870000D02*
G75*
G02*
X21140000Y-9870000I-160000J0D01*
G01*
X21140000Y-9870000D02*
G75*
G02*
X21460000Y-9870000I160000J0D01*
G01*
X8050000Y-7000000D02*
X22550000Y-7000000D01*
X22550000Y-12400000D01*
X8050000Y-12400000D01*
X8050000Y-7000000D01*
D10*
D12*
X8290000Y-7240000D02*
X8720000Y-7670000D01*
X8720000Y-7240000D02*
X8290000Y-7670000D01*
X8290000Y-11730000D02*
X8720000Y-12160000D01*
X8720000Y-11730000D02*
X8290000Y-12160000D01*
X21878000Y-11730000D02*
X22308000Y-12160000D01*
X22308000Y-11730000D02*
X21878000Y-12160000D01*
X21880000Y-7242500D02*
X22310000Y-7672500D01*
X22310000Y-7242500D02*
X21880000Y-7672500D01*
D10*
X8308277Y-12713984D02*
X8308277Y-12513984D01*
X8308277Y-12513984D02*
X8355896Y-12513984D01*
X8355896Y-12513984D02*
X8384467Y-12523508D01*
X8384467Y-12523508D02*
X8403515Y-12542555D01*
X8403515Y-12542555D02*
X8413039Y-12561603D01*
X8413039Y-12561603D02*
X8422563Y-12599698D01*
X8422563Y-12599698D02*
X8422563Y-12628269D01*
X8422563Y-12628269D02*
X8413039Y-12666365D01*
X8413039Y-12666365D02*
X8403515Y-12685412D01*
X8403515Y-12685412D02*
X8384467Y-12704460D01*
X8384467Y-12704460D02*
X8355896Y-12713984D01*
X8355896Y-12713984D02*
X8308277Y-12713984D01*
X8508277Y-12713984D02*
X8508277Y-12580650D01*
X8508277Y-12618746D02*
X8517801Y-12599698D01*
X8517801Y-12599698D02*
X8527324Y-12590174D01*
X8527324Y-12590174D02*
X8546372Y-12580650D01*
X8546372Y-12580650D02*
X8565420Y-12580650D01*
X8632086Y-12713984D02*
X8632086Y-12580650D01*
X8632086Y-12513984D02*
X8622563Y-12523508D01*
X8622563Y-12523508D02*
X8632086Y-12533031D01*
X8632086Y-12533031D02*
X8641610Y-12523508D01*
X8641610Y-12523508D02*
X8632086Y-12513984D01*
X8632086Y-12513984D02*
X8632086Y-12533031D01*
X8755896Y-12713984D02*
X8736848Y-12704460D01*
X8736848Y-12704460D02*
X8727324Y-12685412D01*
X8727324Y-12685412D02*
X8727324Y-12513984D01*
X8860658Y-12713984D02*
X8841610Y-12704460D01*
X8841610Y-12704460D02*
X8832086Y-12685412D01*
X8832086Y-12685412D02*
X8832086Y-12513984D01*
X9089229Y-12713984D02*
X9089229Y-12513984D01*
X9089229Y-12513984D02*
X9155896Y-12656841D01*
X9155896Y-12656841D02*
X9222563Y-12513984D01*
X9222563Y-12513984D02*
X9222563Y-12713984D01*
X9403515Y-12713984D02*
X9403515Y-12609222D01*
X9403515Y-12609222D02*
X9393991Y-12590174D01*
X9393991Y-12590174D02*
X9374944Y-12580650D01*
X9374944Y-12580650D02*
X9336848Y-12580650D01*
X9336848Y-12580650D02*
X9317801Y-12590174D01*
X9403515Y-12704460D02*
X9384467Y-12713984D01*
X9384467Y-12713984D02*
X9336848Y-12713984D01*
X9336848Y-12713984D02*
X9317801Y-12704460D01*
X9317801Y-12704460D02*
X9308277Y-12685412D01*
X9308277Y-12685412D02*
X9308277Y-12666365D01*
X9308277Y-12666365D02*
X9317801Y-12647317D01*
X9317801Y-12647317D02*
X9336848Y-12637793D01*
X9336848Y-12637793D02*
X9384467Y-12637793D01*
X9384467Y-12637793D02*
X9403515Y-12628269D01*
X9498753Y-12580650D02*
X9498753Y-12780650D01*
X9498753Y-12590174D02*
X9517801Y-12580650D01*
X9517801Y-12580650D02*
X9555896Y-12580650D01*
X9555896Y-12580650D02*
X9574944Y-12590174D01*
X9574944Y-12590174D02*
X9584467Y-12599698D01*
X9584467Y-12599698D02*
X9593991Y-12618746D01*
X9593991Y-12618746D02*
X9593991Y-12675888D01*
X9593991Y-12675888D02*
X9584467Y-12694936D01*
X9584467Y-12694936D02*
X9574944Y-12704460D01*
X9574944Y-12704460D02*
X9555896Y-12713984D01*
X9555896Y-12713984D02*
X9517801Y-12713984D01*
X9517801Y-12713984D02*
X9498753Y-12704460D01*
X9679705Y-12694936D02*
X9689229Y-12704460D01*
X9689229Y-12704460D02*
X9679705Y-12713984D01*
X9679705Y-12713984D02*
X9670182Y-12704460D01*
X9670182Y-12704460D02*
X9679705Y-12694936D01*
X9679705Y-12694936D02*
X9679705Y-12713984D01*
X9679705Y-12590174D02*
X9689229Y-12599698D01*
X9689229Y-12599698D02*
X9679705Y-12609222D01*
X9679705Y-12609222D02*
X9670182Y-12599698D01*
X9670182Y-12599698D02*
X9679705Y-12590174D01*
X9679705Y-12590174D02*
X9679705Y-12609222D01*
X7847500Y-12942500D02*
X8047500Y-13142500D01*
X8047500Y-12942500D02*
X7847500Y-13142500D01*
X8393991Y-13000650D02*
X8393991Y-13133984D01*
X8346372Y-12924460D02*
X8298753Y-13067317D01*
X8298753Y-13067317D02*
X8422563Y-13067317D01*
X8498753Y-13114936D02*
X8508277Y-13124460D01*
X8508277Y-13124460D02*
X8498753Y-13133984D01*
X8498753Y-13133984D02*
X8489229Y-13124460D01*
X8489229Y-13124460D02*
X8498753Y-13114936D01*
X8498753Y-13114936D02*
X8498753Y-13133984D01*
X8574944Y-12933984D02*
X8698753Y-12933984D01*
X8698753Y-12933984D02*
X8632086Y-13010174D01*
X8632086Y-13010174D02*
X8660658Y-13010174D01*
X8660658Y-13010174D02*
X8679705Y-13019698D01*
X8679705Y-13019698D02*
X8689229Y-13029222D01*
X8689229Y-13029222D02*
X8698753Y-13048269D01*
X8698753Y-13048269D02*
X8698753Y-13095888D01*
X8698753Y-13095888D02*
X8689229Y-13114936D01*
X8689229Y-13114936D02*
X8679705Y-13124460D01*
X8679705Y-13124460D02*
X8660658Y-13133984D01*
X8660658Y-13133984D02*
X8603515Y-13133984D01*
X8603515Y-13133984D02*
X8584467Y-13124460D01*
X8584467Y-13124460D02*
X8574944Y-13114936D01*
X8822563Y-12933984D02*
X8841610Y-12933984D01*
X8841610Y-12933984D02*
X8860658Y-12943508D01*
X8860658Y-12943508D02*
X8870182Y-12953031D01*
X8870182Y-12953031D02*
X8879705Y-12972079D01*
X8879705Y-12972079D02*
X8889229Y-13010174D01*
X8889229Y-13010174D02*
X8889229Y-13057793D01*
X8889229Y-13057793D02*
X8879705Y-13095888D01*
X8879705Y-13095888D02*
X8870182Y-13114936D01*
X8870182Y-13114936D02*
X8860658Y-13124460D01*
X8860658Y-13124460D02*
X8841610Y-13133984D01*
X8841610Y-13133984D02*
X8822563Y-13133984D01*
X8822563Y-13133984D02*
X8803515Y-13124460D01*
X8803515Y-13124460D02*
X8793991Y-13114936D01*
X8793991Y-13114936D02*
X8784467Y-13095888D01*
X8784467Y-13095888D02*
X8774944Y-13057793D01*
X8774944Y-13057793D02*
X8774944Y-13010174D01*
X8774944Y-13010174D02*
X8784467Y-12972079D01*
X8784467Y-12972079D02*
X8793991Y-12953031D01*
X8793991Y-12953031D02*
X8803515Y-12943508D01*
X8803515Y-12943508D02*
X8822563Y-12933984D01*
X9013039Y-12933984D02*
X9032086Y-12933984D01*
X9032086Y-12933984D02*
X9051134Y-12943508D01*
X9051134Y-12943508D02*
X9060658Y-12953031D01*
X9060658Y-12953031D02*
X9070182Y-12972079D01*
X9070182Y-12972079D02*
X9079705Y-13010174D01*
X9079705Y-13010174D02*
X9079705Y-13057793D01*
X9079705Y-13057793D02*
X9070182Y-13095888D01*
X9070182Y-13095888D02*
X9060658Y-13114936D01*
X9060658Y-13114936D02*
X9051134Y-13124460D01*
X9051134Y-13124460D02*
X9032086Y-13133984D01*
X9032086Y-13133984D02*
X9013039Y-13133984D01*
X9013039Y-13133984D02*
X8993991Y-13124460D01*
X8993991Y-13124460D02*
X8984467Y-13114936D01*
X8984467Y-13114936D02*
X8974944Y-13095888D01*
X8974944Y-13095888D02*
X8965420Y-13057793D01*
X8965420Y-13057793D02*
X8965420Y-13010174D01*
X8965420Y-13010174D02*
X8974944Y-12972079D01*
X8974944Y-12972079D02*
X8984467Y-12953031D01*
X8984467Y-12953031D02*
X8993991Y-12943508D01*
X8993991Y-12943508D02*
X9013039Y-12933984D01*
X9165420Y-13133984D02*
X9165420Y-13000650D01*
X9165420Y-13019698D02*
X9174944Y-13010174D01*
X9174944Y-13010174D02*
X9193991Y-13000650D01*
X9193991Y-13000650D02*
X9222563Y-13000650D01*
X9222563Y-13000650D02*
X9241610Y-13010174D01*
X9241610Y-13010174D02*
X9251134Y-13029222D01*
X9251134Y-13029222D02*
X9251134Y-13133984D01*
X9251134Y-13029222D02*
X9260658Y-13010174D01*
X9260658Y-13010174D02*
X9279705Y-13000650D01*
X9279705Y-13000650D02*
X9308277Y-13000650D01*
X9308277Y-13000650D02*
X9327325Y-13010174D01*
X9327325Y-13010174D02*
X9336848Y-13029222D01*
X9336848Y-13029222D02*
X9336848Y-13133984D01*
X9432086Y-13133984D02*
X9432086Y-13000650D01*
X9432086Y-13019698D02*
X9441610Y-13010174D01*
X9441610Y-13010174D02*
X9460658Y-13000650D01*
X9460658Y-13000650D02*
X9489229Y-13000650D01*
X9489229Y-13000650D02*
X9508277Y-13010174D01*
X9508277Y-13010174D02*
X9517801Y-13029222D01*
X9517801Y-13029222D02*
X9517801Y-13133984D01*
X9517801Y-13029222D02*
X9527325Y-13010174D01*
X9527325Y-13010174D02*
X9546372Y-13000650D01*
X9546372Y-13000650D02*
X9574944Y-13000650D01*
X9574944Y-13000650D02*
X9593991Y-13010174D01*
X9593991Y-13010174D02*
X9603515Y-13029222D01*
X9603515Y-13029222D02*
X9603515Y-13133984D01*
X9993991Y-12924460D02*
X9822563Y-13181603D01*
X10251134Y-12933984D02*
X10270182Y-12933984D01*
X10270182Y-12933984D02*
X10289229Y-12943508D01*
X10289229Y-12943508D02*
X10298753Y-12953031D01*
X10298753Y-12953031D02*
X10308277Y-12972079D01*
X10308277Y-12972079D02*
X10317801Y-13010174D01*
X10317801Y-13010174D02*
X10317801Y-13057793D01*
X10317801Y-13057793D02*
X10308277Y-13095888D01*
X10308277Y-13095888D02*
X10298753Y-13114936D01*
X10298753Y-13114936D02*
X10289229Y-13124460D01*
X10289229Y-13124460D02*
X10270182Y-13133984D01*
X10270182Y-13133984D02*
X10251134Y-13133984D01*
X10251134Y-13133984D02*
X10232087Y-13124460D01*
X10232087Y-13124460D02*
X10222563Y-13114936D01*
X10222563Y-13114936D02*
X10213039Y-13095888D01*
X10213039Y-13095888D02*
X10203515Y-13057793D01*
X10203515Y-13057793D02*
X10203515Y-13010174D01*
X10203515Y-13010174D02*
X10213039Y-12972079D01*
X10213039Y-12972079D02*
X10222563Y-12953031D01*
X10222563Y-12953031D02*
X10232087Y-12943508D01*
X10232087Y-12943508D02*
X10251134Y-12933984D01*
X10403515Y-13114936D02*
X10413039Y-13124460D01*
X10413039Y-13124460D02*
X10403515Y-13133984D01*
X10403515Y-13133984D02*
X10393991Y-13124460D01*
X10393991Y-13124460D02*
X10403515Y-13114936D01*
X10403515Y-13114936D02*
X10403515Y-13133984D01*
X10603515Y-13133984D02*
X10489229Y-13133984D01*
X10546372Y-13133984D02*
X10546372Y-12933984D01*
X10546372Y-12933984D02*
X10527325Y-12962555D01*
X10527325Y-12962555D02*
X10508277Y-12981603D01*
X10508277Y-12981603D02*
X10489229Y-12991127D01*
X10774944Y-12933984D02*
X10736848Y-12933984D01*
X10736848Y-12933984D02*
X10717801Y-12943508D01*
X10717801Y-12943508D02*
X10708277Y-12953031D01*
X10708277Y-12953031D02*
X10689229Y-12981603D01*
X10689229Y-12981603D02*
X10679706Y-13019698D01*
X10679706Y-13019698D02*
X10679706Y-13095888D01*
X10679706Y-13095888D02*
X10689229Y-13114936D01*
X10689229Y-13114936D02*
X10698753Y-13124460D01*
X10698753Y-13124460D02*
X10717801Y-13133984D01*
X10717801Y-13133984D02*
X10755896Y-13133984D01*
X10755896Y-13133984D02*
X10774944Y-13124460D01*
X10774944Y-13124460D02*
X10784468Y-13114936D01*
X10784468Y-13114936D02*
X10793991Y-13095888D01*
X10793991Y-13095888D02*
X10793991Y-13048269D01*
X10793991Y-13048269D02*
X10784468Y-13029222D01*
X10784468Y-13029222D02*
X10774944Y-13019698D01*
X10774944Y-13019698D02*
X10755896Y-13010174D01*
X10755896Y-13010174D02*
X10717801Y-13010174D01*
X10717801Y-13010174D02*
X10698753Y-13019698D01*
X10698753Y-13019698D02*
X10689229Y-13029222D01*
X10689229Y-13029222D02*
X10679706Y-13048269D01*
X10889229Y-13133984D02*
X10927325Y-13133984D01*
X10927325Y-13133984D02*
X10946372Y-13124460D01*
X10946372Y-13124460D02*
X10955896Y-13114936D01*
X10955896Y-13114936D02*
X10974944Y-13086365D01*
X10974944Y-13086365D02*
X10984468Y-13048269D01*
X10984468Y-13048269D02*
X10984468Y-12972079D01*
X10984468Y-12972079D02*
X10974944Y-12953031D01*
X10974944Y-12953031D02*
X10965420Y-12943508D01*
X10965420Y-12943508D02*
X10946372Y-12933984D01*
X10946372Y-12933984D02*
X10908277Y-12933984D01*
X10908277Y-12933984D02*
X10889229Y-12943508D01*
X10889229Y-12943508D02*
X10879706Y-12953031D01*
X10879706Y-12953031D02*
X10870182Y-12972079D01*
X10870182Y-12972079D02*
X10870182Y-13019698D01*
X10870182Y-13019698D02*
X10879706Y-13038746D01*
X10879706Y-13038746D02*
X10889229Y-13048269D01*
X10889229Y-13048269D02*
X10908277Y-13057793D01*
X10908277Y-13057793D02*
X10946372Y-13057793D01*
X10946372Y-13057793D02*
X10965420Y-13048269D01*
X10965420Y-13048269D02*
X10974944Y-13038746D01*
X10974944Y-13038746D02*
X10984468Y-13019698D01*
X11051134Y-12933984D02*
X11174944Y-12933984D01*
X11174944Y-12933984D02*
X11108277Y-13010174D01*
X11108277Y-13010174D02*
X11136849Y-13010174D01*
X11136849Y-13010174D02*
X11155896Y-13019698D01*
X11155896Y-13019698D02*
X11165420Y-13029222D01*
X11165420Y-13029222D02*
X11174944Y-13048269D01*
X11174944Y-13048269D02*
X11174944Y-13095888D01*
X11174944Y-13095888D02*
X11165420Y-13114936D01*
X11165420Y-13114936D02*
X11155896Y-13124460D01*
X11155896Y-13124460D02*
X11136849Y-13133984D01*
X11136849Y-13133984D02*
X11079706Y-13133984D01*
X11079706Y-13133984D02*
X11060658Y-13124460D01*
X11060658Y-13124460D02*
X11051134Y-13114936D01*
X11251134Y-12933984D02*
X11251134Y-12972079D01*
X11327325Y-12933984D02*
X11327325Y-12972079D01*
X11622563Y-13210174D02*
X11613039Y-13200650D01*
X11613039Y-13200650D02*
X11593991Y-13172079D01*
X11593991Y-13172079D02*
X11584468Y-13153031D01*
X11584468Y-13153031D02*
X11574944Y-13124460D01*
X11574944Y-13124460D02*
X11565420Y-13076841D01*
X11565420Y-13076841D02*
X11565420Y-13038746D01*
X11565420Y-13038746D02*
X11574944Y-12991127D01*
X11574944Y-12991127D02*
X11584468Y-12962555D01*
X11584468Y-12962555D02*
X11593991Y-12943508D01*
X11593991Y-12943508D02*
X11613039Y-12914936D01*
X11613039Y-12914936D02*
X11622563Y-12905412D01*
X11784468Y-13000650D02*
X11784468Y-13133984D01*
X11736848Y-12924460D02*
X11689229Y-13067317D01*
X11689229Y-13067317D02*
X11813039Y-13067317D01*
X12041610Y-13133984D02*
X12041610Y-12933984D01*
X12127325Y-13133984D02*
X12127325Y-13029222D01*
X12127325Y-13029222D02*
X12117801Y-13010174D01*
X12117801Y-13010174D02*
X12098753Y-13000650D01*
X12098753Y-13000650D02*
X12070182Y-13000650D01*
X12070182Y-13000650D02*
X12051134Y-13010174D01*
X12051134Y-13010174D02*
X12041610Y-13019698D01*
X12251134Y-13133984D02*
X12232087Y-13124460D01*
X12232087Y-13124460D02*
X12222563Y-13114936D01*
X12222563Y-13114936D02*
X12213039Y-13095888D01*
X12213039Y-13095888D02*
X12213039Y-13038746D01*
X12213039Y-13038746D02*
X12222563Y-13019698D01*
X12222563Y-13019698D02*
X12232087Y-13010174D01*
X12232087Y-13010174D02*
X12251134Y-13000650D01*
X12251134Y-13000650D02*
X12279706Y-13000650D01*
X12279706Y-13000650D02*
X12298753Y-13010174D01*
X12298753Y-13010174D02*
X12308277Y-13019698D01*
X12308277Y-13019698D02*
X12317801Y-13038746D01*
X12317801Y-13038746D02*
X12317801Y-13095888D01*
X12317801Y-13095888D02*
X12308277Y-13114936D01*
X12308277Y-13114936D02*
X12298753Y-13124460D01*
X12298753Y-13124460D02*
X12279706Y-13133984D01*
X12279706Y-13133984D02*
X12251134Y-13133984D01*
X12432087Y-13133984D02*
X12413039Y-13124460D01*
X12413039Y-13124460D02*
X12403515Y-13105412D01*
X12403515Y-13105412D02*
X12403515Y-12933984D01*
X12584468Y-13124460D02*
X12565420Y-13133984D01*
X12565420Y-13133984D02*
X12527325Y-13133984D01*
X12527325Y-13133984D02*
X12508277Y-13124460D01*
X12508277Y-13124460D02*
X12498753Y-13105412D01*
X12498753Y-13105412D02*
X12498753Y-13029222D01*
X12498753Y-13029222D02*
X12508277Y-13010174D01*
X12508277Y-13010174D02*
X12527325Y-13000650D01*
X12527325Y-13000650D02*
X12565420Y-13000650D01*
X12565420Y-13000650D02*
X12584468Y-13010174D01*
X12584468Y-13010174D02*
X12593991Y-13029222D01*
X12593991Y-13029222D02*
X12593991Y-13048269D01*
X12593991Y-13048269D02*
X12498753Y-13067317D01*
X12670182Y-13124460D02*
X12689230Y-13133984D01*
X12689230Y-13133984D02*
X12727325Y-13133984D01*
X12727325Y-13133984D02*
X12746372Y-13124460D01*
X12746372Y-13124460D02*
X12755896Y-13105412D01*
X12755896Y-13105412D02*
X12755896Y-13095888D01*
X12755896Y-13095888D02*
X12746372Y-13076841D01*
X12746372Y-13076841D02*
X12727325Y-13067317D01*
X12727325Y-13067317D02*
X12698753Y-13067317D01*
X12698753Y-13067317D02*
X12679706Y-13057793D01*
X12679706Y-13057793D02*
X12670182Y-13038746D01*
X12670182Y-13038746D02*
X12670182Y-13029222D01*
X12670182Y-13029222D02*
X12679706Y-13010174D01*
X12679706Y-13010174D02*
X12698753Y-13000650D01*
X12698753Y-13000650D02*
X12727325Y-13000650D01*
X12727325Y-13000650D02*
X12746372Y-13010174D01*
X12822563Y-13210174D02*
X12832087Y-13200650D01*
X12832087Y-13200650D02*
X12851134Y-13172079D01*
X12851134Y-13172079D02*
X12860658Y-13153031D01*
X12860658Y-13153031D02*
X12870182Y-13124460D01*
X12870182Y-13124460D02*
X12879706Y-13076841D01*
X12879706Y-13076841D02*
X12879706Y-13038746D01*
X12879706Y-13038746D02*
X12870182Y-12991127D01*
X12870182Y-12991127D02*
X12860658Y-12962555D01*
X12860658Y-12962555D02*
X12851134Y-12943508D01*
X12851134Y-12943508D02*
X12832087Y-12914936D01*
X12832087Y-12914936D02*
X12822563Y-12905412D01*
X13184468Y-13210174D02*
X13174944Y-13200650D01*
X13174944Y-13200650D02*
X13155896Y-13172079D01*
X13155896Y-13172079D02*
X13146372Y-13153031D01*
X13146372Y-13153031D02*
X13136849Y-13124460D01*
X13136849Y-13124460D02*
X13127325Y-13076841D01*
X13127325Y-13076841D02*
X13127325Y-13038746D01*
X13127325Y-13038746D02*
X13136849Y-12991127D01*
X13136849Y-12991127D02*
X13146372Y-12962555D01*
X13146372Y-12962555D02*
X13155896Y-12943508D01*
X13155896Y-12943508D02*
X13174944Y-12914936D01*
X13174944Y-12914936D02*
X13184468Y-12905412D01*
X13260658Y-13000650D02*
X13260658Y-13133984D01*
X13260658Y-13019698D02*
X13270182Y-13010174D01*
X13270182Y-13010174D02*
X13289230Y-13000650D01*
X13289230Y-13000650D02*
X13317801Y-13000650D01*
X13317801Y-13000650D02*
X13336849Y-13010174D01*
X13336849Y-13010174D02*
X13346372Y-13029222D01*
X13346372Y-13029222D02*
X13346372Y-13133984D01*
X13470182Y-13133984D02*
X13451134Y-13124460D01*
X13451134Y-13124460D02*
X13441611Y-13114936D01*
X13441611Y-13114936D02*
X13432087Y-13095888D01*
X13432087Y-13095888D02*
X13432087Y-13038746D01*
X13432087Y-13038746D02*
X13441611Y-13019698D01*
X13441611Y-13019698D02*
X13451134Y-13010174D01*
X13451134Y-13010174D02*
X13470182Y-13000650D01*
X13470182Y-13000650D02*
X13498753Y-13000650D01*
X13498753Y-13000650D02*
X13517801Y-13010174D01*
X13517801Y-13010174D02*
X13527325Y-13019698D01*
X13527325Y-13019698D02*
X13536849Y-13038746D01*
X13536849Y-13038746D02*
X13536849Y-13095888D01*
X13536849Y-13095888D02*
X13527325Y-13114936D01*
X13527325Y-13114936D02*
X13517801Y-13124460D01*
X13517801Y-13124460D02*
X13498753Y-13133984D01*
X13498753Y-13133984D02*
X13470182Y-13133984D01*
X13593992Y-13000650D02*
X13670182Y-13000650D01*
X13622563Y-12933984D02*
X13622563Y-13105412D01*
X13622563Y-13105412D02*
X13632087Y-13124460D01*
X13632087Y-13124460D02*
X13651134Y-13133984D01*
X13651134Y-13133984D02*
X13670182Y-13133984D01*
X13889230Y-13000650D02*
X13889230Y-13200650D01*
X13889230Y-13010174D02*
X13908277Y-13000650D01*
X13908277Y-13000650D02*
X13946373Y-13000650D01*
X13946373Y-13000650D02*
X13965420Y-13010174D01*
X13965420Y-13010174D02*
X13974944Y-13019698D01*
X13974944Y-13019698D02*
X13984468Y-13038746D01*
X13984468Y-13038746D02*
X13984468Y-13095888D01*
X13984468Y-13095888D02*
X13974944Y-13114936D01*
X13974944Y-13114936D02*
X13965420Y-13124460D01*
X13965420Y-13124460D02*
X13946373Y-13133984D01*
X13946373Y-13133984D02*
X13908277Y-13133984D01*
X13908277Y-13133984D02*
X13889230Y-13124460D01*
X14098753Y-13133984D02*
X14079706Y-13124460D01*
X14079706Y-13124460D02*
X14070182Y-13105412D01*
X14070182Y-13105412D02*
X14070182Y-12933984D01*
X14260658Y-13133984D02*
X14260658Y-13029222D01*
X14260658Y-13029222D02*
X14251134Y-13010174D01*
X14251134Y-13010174D02*
X14232087Y-13000650D01*
X14232087Y-13000650D02*
X14193992Y-13000650D01*
X14193992Y-13000650D02*
X14174944Y-13010174D01*
X14260658Y-13124460D02*
X14241611Y-13133984D01*
X14241611Y-13133984D02*
X14193992Y-13133984D01*
X14193992Y-13133984D02*
X14174944Y-13124460D01*
X14174944Y-13124460D02*
X14165420Y-13105412D01*
X14165420Y-13105412D02*
X14165420Y-13086365D01*
X14165420Y-13086365D02*
X14174944Y-13067317D01*
X14174944Y-13067317D02*
X14193992Y-13057793D01*
X14193992Y-13057793D02*
X14241611Y-13057793D01*
X14241611Y-13057793D02*
X14260658Y-13048269D01*
X14327325Y-13000650D02*
X14403515Y-13000650D01*
X14355896Y-12933984D02*
X14355896Y-13105412D01*
X14355896Y-13105412D02*
X14365420Y-13124460D01*
X14365420Y-13124460D02*
X14384468Y-13133984D01*
X14384468Y-13133984D02*
X14403515Y-13133984D01*
X14546373Y-13124460D02*
X14527325Y-13133984D01*
X14527325Y-13133984D02*
X14489230Y-13133984D01*
X14489230Y-13133984D02*
X14470182Y-13124460D01*
X14470182Y-13124460D02*
X14460658Y-13105412D01*
X14460658Y-13105412D02*
X14460658Y-13029222D01*
X14460658Y-13029222D02*
X14470182Y-13010174D01*
X14470182Y-13010174D02*
X14489230Y-13000650D01*
X14489230Y-13000650D02*
X14527325Y-13000650D01*
X14527325Y-13000650D02*
X14546373Y-13010174D01*
X14546373Y-13010174D02*
X14555896Y-13029222D01*
X14555896Y-13029222D02*
X14555896Y-13048269D01*
X14555896Y-13048269D02*
X14460658Y-13067317D01*
X14727325Y-13133984D02*
X14727325Y-12933984D01*
X14727325Y-13124460D02*
X14708277Y-13133984D01*
X14708277Y-13133984D02*
X14670182Y-13133984D01*
X14670182Y-13133984D02*
X14651134Y-13124460D01*
X14651134Y-13124460D02*
X14641611Y-13114936D01*
X14641611Y-13114936D02*
X14632087Y-13095888D01*
X14632087Y-13095888D02*
X14632087Y-13038746D01*
X14632087Y-13038746D02*
X14641611Y-13019698D01*
X14641611Y-13019698D02*
X14651134Y-13010174D01*
X14651134Y-13010174D02*
X14670182Y-13000650D01*
X14670182Y-13000650D02*
X14708277Y-13000650D01*
X14708277Y-13000650D02*
X14727325Y-13010174D01*
X14803515Y-13210174D02*
X14813039Y-13200650D01*
X14813039Y-13200650D02*
X14832087Y-13172079D01*
X14832087Y-13172079D02*
X14841611Y-13153031D01*
X14841611Y-13153031D02*
X14851134Y-13124460D01*
X14851134Y-13124460D02*
X14860658Y-13076841D01*
X14860658Y-13076841D02*
X14860658Y-13038746D01*
X14860658Y-13038746D02*
X14851134Y-12991127D01*
X14851134Y-12991127D02*
X14841611Y-12962555D01*
X14841611Y-12962555D02*
X14832087Y-12943508D01*
X14832087Y-12943508D02*
X14813039Y-12914936D01*
X14813039Y-12914936D02*
X14803515Y-12905412D01*
M02*
