%TF.GenerationSoftware,KiCad,Pcbnew,8.0.1*%
%TF.CreationDate,2025-07-27T10:49:00+02:00*%
%TF.ProjectId,SVX_Node_Case_back,5356585f-4e6f-4646-955f-436173655f62,rev?*%
%TF.SameCoordinates,Original*%
%TF.FileFunction,Drillmap*%
%TF.FilePolarity,Positive*%
%FSLAX45Y45*%
G04 Gerber Fmt 4.5, Leading zero omitted, Abs format (unit mm)*
G04 Created by KiCad (PCBNEW 8.0.1) date 2025-07-27 10:49:00*
%MOMM*%
%LPD*%
G01*
G04 APERTURE LIST*
%ADD10C,0.200000*%
%ADD11C,0.050000*%
G04 APERTURE END LIST*
D10*
X10551000Y-9697000D02*
G75*
G02*
X9451000Y-9697000I-550000J0D01*
G01*
X9451000Y-9697000D02*
G75*
G02*
X10551000Y-9697000I550000J0D01*
G01*
X14243974Y-10196681D02*
G75*
G02*
X14130000Y-10270002I-109984J45721D01*
G01*
D11*
X19150000Y-9030000D02*
X20750000Y-9030000D01*
X20750000Y-10380000D01*
X19150000Y-10380000D01*
X19150000Y-9030000D01*
D10*
X12319334Y-9270264D02*
G75*
G02*
X12376061Y-9169702I90936J14984D01*
G01*
X17131000Y-9680000D02*
G75*
G02*
X16291000Y-9680000I-420000J0D01*
G01*
X16291000Y-9680000D02*
G75*
G02*
X17131000Y-9680000I420000J0D01*
G01*
X12530000Y-10270000D02*
X14130000Y-10270000D01*
X14243974Y-10196681D02*
X14328000Y-9271000D01*
X14740000Y-9710000D02*
G75*
G02*
X14420000Y-9710000I-160000J0D01*
G01*
X14420000Y-9710000D02*
G75*
G02*
X14740000Y-9710000I160000J0D01*
G01*
X12376061Y-9169703D02*
X14270673Y-9170000D01*
X12240000Y-9710000D02*
G75*
G02*
X11920000Y-9710000I-160000J0D01*
G01*
X11920000Y-9710000D02*
G75*
G02*
X12240000Y-9710000I160000J0D01*
G01*
X12530000Y-10270000D02*
G75*
G02*
X12427380Y-10196745I7520J119040D01*
G01*
X14271000Y-9170000D02*
G75*
G02*
X14327729Y-9270561I-34210J-85580D01*
G01*
X12427377Y-10196747D02*
X12319334Y-9270264D01*
D11*
X18710000Y-9870000D02*
G75*
G02*
X18390000Y-9870000I-160000J0D01*
G01*
X18390000Y-9870000D02*
G75*
G02*
X18710000Y-9870000I160000J0D01*
G01*
X21410000Y-9870000D02*
G75*
G02*
X21090000Y-9870000I-160000J0D01*
G01*
X21090000Y-9870000D02*
G75*
G02*
X21410000Y-9870000I160000J0D01*
G01*
X8050000Y-7000000D02*
X22550000Y-7000000D01*
X22550000Y-12400000D01*
X8050000Y-12400000D01*
X8050000Y-7000000D01*
D10*
X8308277Y-12713984D02*
X8308277Y-12513984D01*
X8308277Y-12513984D02*
X8355896Y-12513984D01*
X8355896Y-12513984D02*
X8384467Y-12523508D01*
X8384467Y-12523508D02*
X8403515Y-12542555D01*
X8403515Y-12542555D02*
X8413039Y-12561603D01*
X8413039Y-12561603D02*
X8422563Y-12599698D01*
X8422563Y-12599698D02*
X8422563Y-12628269D01*
X8422563Y-12628269D02*
X8413039Y-12666365D01*
X8413039Y-12666365D02*
X8403515Y-12685412D01*
X8403515Y-12685412D02*
X8384467Y-12704460D01*
X8384467Y-12704460D02*
X8355896Y-12713984D01*
X8355896Y-12713984D02*
X8308277Y-12713984D01*
X8508277Y-12713984D02*
X8508277Y-12580650D01*
X8508277Y-12618746D02*
X8517801Y-12599698D01*
X8517801Y-12599698D02*
X8527324Y-12590174D01*
X8527324Y-12590174D02*
X8546372Y-12580650D01*
X8546372Y-12580650D02*
X8565420Y-12580650D01*
X8632086Y-12713984D02*
X8632086Y-12580650D01*
X8632086Y-12513984D02*
X8622563Y-12523508D01*
X8622563Y-12523508D02*
X8632086Y-12533031D01*
X8632086Y-12533031D02*
X8641610Y-12523508D01*
X8641610Y-12523508D02*
X8632086Y-12513984D01*
X8632086Y-12513984D02*
X8632086Y-12533031D01*
X8755896Y-12713984D02*
X8736848Y-12704460D01*
X8736848Y-12704460D02*
X8727324Y-12685412D01*
X8727324Y-12685412D02*
X8727324Y-12513984D01*
X8860658Y-12713984D02*
X8841610Y-12704460D01*
X8841610Y-12704460D02*
X8832086Y-12685412D01*
X8832086Y-12685412D02*
X8832086Y-12513984D01*
X9089229Y-12713984D02*
X9089229Y-12513984D01*
X9089229Y-12513984D02*
X9155896Y-12656841D01*
X9155896Y-12656841D02*
X9222563Y-12513984D01*
X9222563Y-12513984D02*
X9222563Y-12713984D01*
X9403515Y-12713984D02*
X9403515Y-12609222D01*
X9403515Y-12609222D02*
X9393991Y-12590174D01*
X9393991Y-12590174D02*
X9374944Y-12580650D01*
X9374944Y-12580650D02*
X9336848Y-12580650D01*
X9336848Y-12580650D02*
X9317801Y-12590174D01*
X9403515Y-12704460D02*
X9384467Y-12713984D01*
X9384467Y-12713984D02*
X9336848Y-12713984D01*
X9336848Y-12713984D02*
X9317801Y-12704460D01*
X9317801Y-12704460D02*
X9308277Y-12685412D01*
X9308277Y-12685412D02*
X9308277Y-12666365D01*
X9308277Y-12666365D02*
X9317801Y-12647317D01*
X9317801Y-12647317D02*
X9336848Y-12637793D01*
X9336848Y-12637793D02*
X9384467Y-12637793D01*
X9384467Y-12637793D02*
X9403515Y-12628269D01*
X9498753Y-12580650D02*
X9498753Y-12780650D01*
X9498753Y-12590174D02*
X9517801Y-12580650D01*
X9517801Y-12580650D02*
X9555896Y-12580650D01*
X9555896Y-12580650D02*
X9574944Y-12590174D01*
X9574944Y-12590174D02*
X9584467Y-12599698D01*
X9584467Y-12599698D02*
X9593991Y-12618746D01*
X9593991Y-12618746D02*
X9593991Y-12675888D01*
X9593991Y-12675888D02*
X9584467Y-12694936D01*
X9584467Y-12694936D02*
X9574944Y-12704460D01*
X9574944Y-12704460D02*
X9555896Y-12713984D01*
X9555896Y-12713984D02*
X9517801Y-12713984D01*
X9517801Y-12713984D02*
X9498753Y-12704460D01*
X9679705Y-12694936D02*
X9689229Y-12704460D01*
X9689229Y-12704460D02*
X9679705Y-12713984D01*
X9679705Y-12713984D02*
X9670182Y-12704460D01*
X9670182Y-12704460D02*
X9679705Y-12694936D01*
X9679705Y-12694936D02*
X9679705Y-12713984D01*
X9679705Y-12590174D02*
X9689229Y-12599698D01*
X9689229Y-12599698D02*
X9679705Y-12609222D01*
X9679705Y-12609222D02*
X9670182Y-12599698D01*
X9670182Y-12599698D02*
X9679705Y-12590174D01*
X9679705Y-12590174D02*
X9679705Y-12609222D01*
M02*
