%TF.GenerationSoftware,KiCad,Pcbnew,8.0.1*%
%TF.CreationDate,2025-08-11T12:06:48+02:00*%
%TF.ProjectId,SVX_Node_Case_back,5356585f-4e6f-4646-955f-436173655f62,rev?*%
%TF.SameCoordinates,Original*%
%TF.FileFunction,Legend,Top*%
%TF.FilePolarity,Positive*%
%FSLAX46Y46*%
G04 Gerber Fmt 4.6, Leading zero omitted, Abs format (unit mm)*
G04 Created by KiCad (PCBNEW 8.0.1) date 2025-08-11 12:06:48*
%MOMM*%
%LPD*%
G01*
G04 APERTURE LIST*
%ADD10C,1.500000*%
%ADD11C,0.800000*%
%ADD12C,1.000000*%
%ADD13C,0.200000*%
%ADD14C,0.000000*%
G04 APERTURE END LIST*
D10*
X214500002Y-121870000D02*
G75*
G02*
X222990320Y-113533540I6596198J1773800D01*
G01*
X223000000Y-80773070D02*
G75*
G02*
X214222540Y-72014928I-2000000J6773070D01*
G01*
X83000000Y-113096195D02*
G75*
G02*
X91256389Y-121945484I1903800J-6500005D01*
G01*
D11*
X208000000Y-104300000D02*
X191000000Y-104300000D01*
X191000000Y-104300000D02*
X191000000Y-89800000D01*
D12*
X106200000Y-97000000D02*
G75*
G02*
X93800000Y-97000000I-6200000J0D01*
G01*
X93800000Y-97000000D02*
G75*
G02*
X106200000Y-97000000I6200000J0D01*
G01*
D10*
X83000000Y-80403806D02*
X83000000Y-113096194D01*
X214222540Y-72014928D02*
X91403806Y-72000000D01*
D11*
X191000000Y-89800000D02*
X208000000Y-89800000D01*
D10*
X223000000Y-80773070D02*
X223000000Y-113500001D01*
X91403806Y-72000000D02*
G75*
G02*
X83000000Y-80403806I-6500006J-1903800D01*
G01*
D12*
X118000000Y-90800000D02*
X148900000Y-90800000D01*
X148900000Y-103500000D01*
X118000000Y-103500000D01*
X118000000Y-90800000D01*
X173200000Y-96790000D02*
G75*
G02*
X161000000Y-96790000I-6100000J0D01*
G01*
X161000000Y-96790000D02*
G75*
G02*
X173200000Y-96790000I6100000J0D01*
G01*
D11*
X208000000Y-89800000D02*
X208000000Y-104300000D01*
D10*
X214463612Y-121914516D02*
X91220000Y-121990000D01*
D13*
G36*
X220837723Y-104041381D02*
G01*
X220814569Y-103686154D01*
X220875857Y-103674202D01*
X220932253Y-103651714D01*
X220951443Y-103639260D01*
X220994661Y-103593711D01*
X221019940Y-103536457D01*
X221027353Y-103474249D01*
X221021258Y-103415333D01*
X220997023Y-103359554D01*
X220990424Y-103351151D01*
X220942334Y-103314932D01*
X220904548Y-103307773D01*
X220848060Y-103325571D01*
X220821896Y-103349099D01*
X220792806Y-103400433D01*
X220773461Y-103457053D01*
X220756809Y-103521863D01*
X220752727Y-103540195D01*
X220738603Y-103599399D01*
X220719352Y-103667223D01*
X220698326Y-103728176D01*
X220675526Y-103782261D01*
X220645823Y-103838095D01*
X220607939Y-103890732D01*
X220565933Y-103931845D01*
X220512087Y-103966467D01*
X220452012Y-103987899D01*
X220385709Y-103996142D01*
X220376983Y-103996245D01*
X220314723Y-103989873D01*
X220254887Y-103970755D01*
X220202594Y-103942316D01*
X220154738Y-103903287D01*
X220113751Y-103853610D01*
X220082736Y-103799798D01*
X220073634Y-103779944D01*
X220053117Y-103720703D01*
X220039974Y-103660632D01*
X220031319Y-103592876D01*
X220027472Y-103528682D01*
X220026739Y-103482749D01*
X220028814Y-103412998D01*
X220035040Y-103348642D01*
X220045415Y-103289682D01*
X220063344Y-103226052D01*
X220087249Y-103170190D01*
X220111736Y-103129574D01*
X220153718Y-103081072D01*
X220205294Y-103041994D01*
X220266462Y-103012342D01*
X220326528Y-102994427D01*
X220381966Y-102984787D01*
X220401896Y-103336789D01*
X220345138Y-103353299D01*
X220294671Y-103387563D01*
X220287591Y-103395701D01*
X220260773Y-103449117D01*
X220251973Y-103509921D01*
X220251833Y-103519678D01*
X220259526Y-103579795D01*
X220279091Y-103617864D01*
X220328836Y-103649120D01*
X220345330Y-103650690D01*
X220396621Y-103623433D01*
X220423328Y-103566587D01*
X220439024Y-103504385D01*
X220440291Y-103498283D01*
X220453288Y-103439271D01*
X220469611Y-103371611D01*
X220486020Y-103310734D01*
X220505825Y-103246636D01*
X220529086Y-103184202D01*
X220545804Y-103147745D01*
X220577850Y-103092655D01*
X220618241Y-103042211D01*
X220663670Y-103003102D01*
X220678281Y-102993579D01*
X220734903Y-102966046D01*
X220795958Y-102949942D01*
X220855309Y-102945219D01*
X220918544Y-102950320D01*
X220978998Y-102965621D01*
X221036669Y-102991124D01*
X221067507Y-103009699D01*
X221118367Y-103049862D01*
X221161809Y-103098139D01*
X221194196Y-103147863D01*
X221214639Y-103189364D01*
X221236566Y-103250730D01*
X221250613Y-103310617D01*
X221259863Y-103376281D01*
X221263974Y-103437164D01*
X221264757Y-103480111D01*
X221262875Y-103554231D01*
X221257229Y-103622425D01*
X221247818Y-103684694D01*
X221230760Y-103754195D01*
X221207821Y-103814438D01*
X221172530Y-103874507D01*
X221144297Y-103907145D01*
X221096727Y-103948032D01*
X221044582Y-103981664D01*
X220987862Y-104008042D01*
X220926566Y-104027166D01*
X220860696Y-104039036D01*
X220837723Y-104041381D01*
G37*
G36*
X221246000Y-101961311D02*
G01*
X221039663Y-102020516D01*
X221039663Y-102445792D01*
X221246000Y-102504410D01*
X221246000Y-102886015D01*
X220045497Y-102432016D01*
X220045497Y-102232421D01*
X220352071Y-102232421D01*
X220777053Y-102365191D01*
X220777053Y-102098771D01*
X220352071Y-102232421D01*
X220045497Y-102232421D01*
X220045497Y-102024619D01*
X221246000Y-101570621D01*
X221246000Y-101961311D01*
G37*
G36*
X220045497Y-100729155D02*
G01*
X220045497Y-100356636D01*
X220759761Y-100356636D01*
X220818514Y-100359279D01*
X220881620Y-100368415D01*
X220942437Y-100384077D01*
X220960235Y-100390048D01*
X221016930Y-100414623D01*
X221069046Y-100446583D01*
X221116581Y-100485927D01*
X221125539Y-100494682D01*
X221165564Y-100539882D01*
X221200071Y-100591189D01*
X221224604Y-100644159D01*
X221242171Y-100701385D01*
X221254719Y-100764033D01*
X221261581Y-100823298D01*
X221264601Y-100886715D01*
X221264757Y-100905596D01*
X221263303Y-100968153D01*
X221259456Y-101028328D01*
X221253205Y-101091652D01*
X221252448Y-101098157D01*
X221242407Y-101159867D01*
X221225940Y-101220078D01*
X221203794Y-101272254D01*
X221172250Y-101323142D01*
X221132133Y-101370732D01*
X221100626Y-101400628D01*
X221053998Y-101436196D01*
X221002024Y-101465122D01*
X220962287Y-101480055D01*
X220900053Y-101496774D01*
X220841947Y-101508020D01*
X220782224Y-101514100D01*
X220759761Y-101514640D01*
X220045497Y-101514640D01*
X220045497Y-101142121D01*
X220775295Y-101142121D01*
X220837539Y-101135645D01*
X220893909Y-101113807D01*
X220928288Y-101087313D01*
X220963964Y-101035767D01*
X220980753Y-100975736D01*
X220983390Y-100935198D01*
X220976983Y-100873823D01*
X220955378Y-100818085D01*
X220929168Y-100783963D01*
X220877615Y-100748477D01*
X220816718Y-100731778D01*
X220775295Y-100729155D01*
X220045497Y-100729155D01*
G37*
G36*
X220045497Y-100116887D02*
G01*
X220045497Y-99743489D01*
X220945874Y-99743489D01*
X220945874Y-99160823D01*
X221246000Y-99160823D01*
X221246000Y-100116887D01*
X220045497Y-100116887D01*
G37*
G36*
X220045497Y-99007243D02*
G01*
X220045497Y-98671653D01*
X220270591Y-98671653D01*
X220270591Y-99007243D01*
X220045497Y-99007243D01*
G37*
G36*
X220364381Y-99007243D02*
G01*
X220364381Y-98671653D01*
X221246000Y-98671653D01*
X221246000Y-99007243D01*
X220364381Y-99007243D01*
G37*
G36*
X220364381Y-98460334D02*
G01*
X220364381Y-98147899D01*
X220507409Y-98147899D01*
X220462386Y-98108381D01*
X220421605Y-98064199D01*
X220387986Y-98015269D01*
X220383138Y-98006336D01*
X220360277Y-97948070D01*
X220348590Y-97886912D01*
X220345623Y-97831360D01*
X220350843Y-97765543D01*
X220366505Y-97707309D01*
X220396606Y-97650861D01*
X220429154Y-97613593D01*
X220483162Y-97575481D01*
X220543237Y-97552075D01*
X220605118Y-97539679D01*
X220665081Y-97535060D01*
X220686488Y-97534752D01*
X221246000Y-97534752D01*
X221246000Y-97871807D01*
X220760347Y-97871807D01*
X220700794Y-97876838D01*
X220645008Y-97900413D01*
X220642817Y-97902288D01*
X220612319Y-97952898D01*
X220608233Y-97987871D01*
X220621385Y-98046192D01*
X220654834Y-98086936D01*
X220709748Y-98112782D01*
X220772729Y-98122936D01*
X220821896Y-98124745D01*
X221246000Y-98124745D01*
X221246000Y-98460334D01*
X220364381Y-98460334D01*
G37*
G36*
X220045497Y-97340725D02*
G01*
X220045497Y-96997808D01*
X220636956Y-96997808D01*
X220364381Y-96747215D01*
X220364381Y-96334249D01*
X220673299Y-96648443D01*
X221246000Y-96316078D01*
X221246000Y-96694459D01*
X220893411Y-96871779D01*
X221016802Y-96997808D01*
X221246000Y-96997808D01*
X221246000Y-97340725D01*
X220045497Y-97340725D01*
G37*
G36*
X220698555Y-95269487D02*
G01*
X220772817Y-95274868D01*
X220841657Y-95284553D01*
X220905075Y-95298544D01*
X220963070Y-95316839D01*
X221027939Y-95345762D01*
X221084337Y-95381411D01*
X221114108Y-95406029D01*
X221157508Y-95451590D01*
X221193552Y-95502360D01*
X221222240Y-95558339D01*
X221243572Y-95619528D01*
X221257549Y-95685925D01*
X221264169Y-95757532D01*
X221264757Y-95787634D01*
X221263116Y-95847805D01*
X221257223Y-95909427D01*
X221245468Y-95969644D01*
X221230466Y-96015073D01*
X221202948Y-96069009D01*
X221167950Y-96116364D01*
X221129642Y-96153705D01*
X221080190Y-96188574D01*
X221022910Y-96217417D01*
X220964046Y-96238408D01*
X220927116Y-95904577D01*
X220982566Y-95885435D01*
X221014457Y-95860027D01*
X221038088Y-95805238D01*
X221039663Y-95783531D01*
X221026216Y-95723706D01*
X220985874Y-95675684D01*
X220958184Y-95657501D01*
X220901014Y-95636706D01*
X220839511Y-95624062D01*
X220771931Y-95614711D01*
X220703780Y-95607969D01*
X220745699Y-95649692D01*
X220781790Y-95696156D01*
X220802259Y-95731653D01*
X220823497Y-95790862D01*
X220832568Y-95852674D01*
X220833327Y-95878199D01*
X220829370Y-95937306D01*
X220814752Y-96001759D01*
X220789363Y-96061358D01*
X220753203Y-96116105D01*
X220720780Y-96152240D01*
X220668693Y-96195751D01*
X220610913Y-96228575D01*
X220547438Y-96250712D01*
X220488499Y-96261181D01*
X220436188Y-96263907D01*
X220371747Y-96259410D01*
X220310644Y-96245917D01*
X220252880Y-96223428D01*
X220222231Y-96207048D01*
X220171582Y-96171679D01*
X220128444Y-96129541D01*
X220092818Y-96080633D01*
X220076272Y-96050537D01*
X220052328Y-95990307D01*
X220037623Y-95930036D01*
X220029109Y-95863426D01*
X220026739Y-95799944D01*
X220027070Y-95789979D01*
X220251833Y-95789979D01*
X220262751Y-95851161D01*
X220295504Y-95901060D01*
X220346105Y-95932616D01*
X220405587Y-95944337D01*
X220426809Y-95945024D01*
X220487122Y-95938594D01*
X220542692Y-95914840D01*
X220561631Y-95899302D01*
X220596582Y-95847864D01*
X220608187Y-95789260D01*
X220608233Y-95784996D01*
X220598315Y-95723992D01*
X220568562Y-95673421D01*
X220563096Y-95667466D01*
X220512216Y-95633596D01*
X220454263Y-95621016D01*
X220433843Y-95620279D01*
X220375069Y-95627244D01*
X220319627Y-95652978D01*
X220300193Y-95669811D01*
X220265482Y-95720739D01*
X220252022Y-95781197D01*
X220251833Y-95789979D01*
X220027070Y-95789979D01*
X220028913Y-95734434D01*
X220035436Y-95673974D01*
X220048541Y-95609818D01*
X220067565Y-95552534D01*
X220088581Y-95508904D01*
X220123899Y-95456862D01*
X220168302Y-95410352D01*
X220214609Y-95374194D01*
X220267871Y-95342271D01*
X220284367Y-95333928D01*
X220347232Y-95308347D01*
X220407703Y-95291421D01*
X220474253Y-95279111D01*
X220534355Y-95272379D01*
X220598679Y-95268853D01*
X220639300Y-95268276D01*
X220698555Y-95269487D01*
G37*
G36*
X220364381Y-94640767D02*
G01*
X220364381Y-94291402D01*
X220923013Y-94121409D01*
X220364381Y-93945847D01*
X220364381Y-93607034D01*
X221246000Y-93978967D01*
X221246000Y-94276454D01*
X220364381Y-94640767D01*
G37*
G36*
X220026739Y-92786671D02*
G01*
X221246000Y-92786671D01*
X221246000Y-93126364D01*
X220447618Y-93126364D01*
X220485177Y-93177323D01*
X220517983Y-93227251D01*
X220548583Y-93280983D01*
X220551080Y-93285806D01*
X220577901Y-93343406D01*
X220601623Y-93403765D01*
X220622435Y-93464597D01*
X220626990Y-93478953D01*
X220345623Y-93478953D01*
X220324517Y-93417355D01*
X220301865Y-93361157D01*
X220273485Y-93302417D01*
X220243001Y-93251026D01*
X220215197Y-93212826D01*
X220174732Y-93168056D01*
X220129834Y-93128415D01*
X220080503Y-93093904D01*
X220026739Y-93064521D01*
X220026739Y-92786671D01*
G37*
G36*
X220696237Y-90880797D02*
G01*
X220770893Y-90885148D01*
X220840090Y-90892979D01*
X220903828Y-90904290D01*
X220962107Y-90919082D01*
X221027280Y-90942466D01*
X221083923Y-90971289D01*
X221113815Y-90991193D01*
X221165112Y-91038605D01*
X221199752Y-91086742D01*
X221227022Y-91142721D01*
X221246921Y-91206543D01*
X221259451Y-91278207D01*
X221264168Y-91341185D01*
X221264757Y-91374556D01*
X221262457Y-91438444D01*
X221255557Y-91496749D01*
X221242038Y-91556549D01*
X221219648Y-91615109D01*
X221216690Y-91621046D01*
X221185964Y-91671278D01*
X221148189Y-91716132D01*
X221103367Y-91755606D01*
X221075420Y-91775212D01*
X221018941Y-91805245D01*
X220961484Y-91826116D01*
X220901698Y-91841670D01*
X220894583Y-91843210D01*
X220835635Y-91853852D01*
X220773683Y-91861454D01*
X220708726Y-91866016D01*
X220649425Y-91867512D01*
X220640766Y-91867536D01*
X220578599Y-91866446D01*
X220520034Y-91863178D01*
X220447549Y-91855429D01*
X220381466Y-91843806D01*
X220321785Y-91828309D01*
X220256187Y-91803489D01*
X220200593Y-91772616D01*
X220163320Y-91743558D01*
X220116904Y-91692403D01*
X220085560Y-91642815D01*
X220060884Y-91586901D01*
X220042878Y-91524662D01*
X220031541Y-91456098D01*
X220027273Y-91396692D01*
X220026934Y-91376901D01*
X220251833Y-91376901D01*
X220265619Y-91436938D01*
X220306977Y-91481785D01*
X220335364Y-91497362D01*
X220393595Y-91515213D01*
X220454433Y-91525059D01*
X220517407Y-91530685D01*
X220577521Y-91533390D01*
X220644576Y-91534291D01*
X220712306Y-91533297D01*
X220772981Y-91530313D01*
X220836478Y-91524106D01*
X220897716Y-91513245D01*
X220956132Y-91493551D01*
X221007034Y-91457803D01*
X221036727Y-91402970D01*
X221039663Y-91375143D01*
X221025810Y-91316662D01*
X221004199Y-91286629D01*
X220954938Y-91252393D01*
X220896979Y-91232646D01*
X220892238Y-91231528D01*
X220829499Y-91221349D01*
X220763072Y-91216163D01*
X220702014Y-91214086D01*
X220653369Y-91213649D01*
X220582895Y-91214644D01*
X220520035Y-91217628D01*
X220454653Y-91223834D01*
X220392230Y-91234695D01*
X220333899Y-91254389D01*
X220283890Y-91290714D01*
X220255760Y-91343089D01*
X220251833Y-91376901D01*
X220026934Y-91376901D01*
X220026739Y-91365471D01*
X220029104Y-91300342D01*
X220036198Y-91242121D01*
X220051292Y-91180346D01*
X220056635Y-91165289D01*
X220081392Y-91110499D01*
X220113979Y-91060446D01*
X220134011Y-91037501D01*
X220179893Y-90995701D01*
X220231249Y-90961336D01*
X220234541Y-90959539D01*
X220291621Y-90933674D01*
X220348658Y-90915730D01*
X220357346Y-90913524D01*
X220416493Y-90900390D01*
X220476734Y-90890483D01*
X220538069Y-90883801D01*
X220600498Y-90880345D01*
X220636662Y-90879818D01*
X220696237Y-90880797D01*
G37*
G36*
X220045497Y-90742065D02*
G01*
X220045497Y-89761967D01*
X220270298Y-89761967D01*
X220313942Y-89808404D01*
X220358926Y-89851873D01*
X220405250Y-89892375D01*
X220452912Y-89929909D01*
X220501915Y-89964475D01*
X220518547Y-89975338D01*
X220570105Y-90006702D01*
X220623481Y-90035948D01*
X220678675Y-90063076D01*
X220735686Y-90088087D01*
X220794515Y-90110979D01*
X220855161Y-90131753D01*
X220879928Y-90139469D01*
X220939949Y-90156282D01*
X221003947Y-90170889D01*
X221071923Y-90183292D01*
X221131607Y-90191943D01*
X221194054Y-90199063D01*
X221246000Y-90203656D01*
X221246000Y-90538367D01*
X221173991Y-90527769D01*
X221104949Y-90515762D01*
X221038875Y-90502344D01*
X220975769Y-90487515D01*
X220915631Y-90471276D01*
X220858459Y-90453627D01*
X220791169Y-90429581D01*
X220753020Y-90414096D01*
X220690065Y-90385123D01*
X220625765Y-90351327D01*
X220573357Y-90320818D01*
X220520088Y-90287223D01*
X220465957Y-90250540D01*
X220410966Y-90210772D01*
X220355114Y-90167916D01*
X220326865Y-90145331D01*
X220326865Y-90742065D01*
X220045497Y-90742065D01*
G37*
G36*
X220026739Y-89395017D02*
G01*
X220026739Y-89223558D01*
X221264757Y-89526908D01*
X221264757Y-89696608D01*
X220026739Y-89395017D01*
G37*
G36*
X221246000Y-88178981D02*
G01*
X221246000Y-89186336D01*
X221180818Y-89175404D01*
X221117347Y-89157741D01*
X221055588Y-89133346D01*
X220995539Y-89102219D01*
X220961994Y-89081409D01*
X220910491Y-89043037D01*
X220865289Y-89002811D01*
X220818013Y-88955087D01*
X220778697Y-88911508D01*
X220738054Y-88863129D01*
X220696082Y-88809952D01*
X220652782Y-88751974D01*
X220614170Y-88700331D01*
X220573758Y-88649561D01*
X220533687Y-88604040D01*
X220489237Y-88563224D01*
X220438044Y-88533561D01*
X220383138Y-88521898D01*
X220324085Y-88536260D01*
X220290228Y-88562637D01*
X220259182Y-88615146D01*
X220251833Y-88665219D01*
X220262238Y-88723764D01*
X220293452Y-88770439D01*
X220346106Y-88802772D01*
X220408260Y-88820200D01*
X220439412Y-88825247D01*
X220411568Y-89161716D01*
X220352622Y-89151426D01*
X220292570Y-89135819D01*
X220234340Y-89113356D01*
X220190870Y-89089030D01*
X220144863Y-89051849D01*
X220106126Y-89006254D01*
X220074659Y-88952244D01*
X220069237Y-88940432D01*
X220048694Y-88880514D01*
X220036077Y-88817445D01*
X220029395Y-88754685D01*
X220026905Y-88695266D01*
X220026739Y-88674305D01*
X220028141Y-88610681D01*
X220033318Y-88543434D01*
X220042310Y-88483704D01*
X220057257Y-88424646D01*
X220066600Y-88398799D01*
X220095479Y-88341217D01*
X220132660Y-88291935D01*
X220178140Y-88250954D01*
X220188233Y-88243754D01*
X220241470Y-88213924D01*
X220298600Y-88195142D01*
X220359622Y-88187408D01*
X220372294Y-88187187D01*
X220432387Y-88192311D01*
X220490996Y-88207682D01*
X220548121Y-88233300D01*
X220579217Y-88251960D01*
X220629811Y-88290960D01*
X220676065Y-88335934D01*
X220717185Y-88382542D01*
X220759665Y-88436590D01*
X220796104Y-88487313D01*
X220831578Y-88539047D01*
X220866057Y-88587857D01*
X220892531Y-88623014D01*
X220931240Y-88667727D01*
X220964632Y-88703321D01*
X220964632Y-88178981D01*
X221246000Y-88178981D01*
G37*
G36*
X220045497Y-87906113D02*
G01*
X220045497Y-87108904D01*
X220326865Y-87108904D01*
X220326865Y-87648778D01*
X220496565Y-87677794D01*
X220471505Y-87622107D01*
X220453773Y-87567006D01*
X220442568Y-87509103D01*
X220439412Y-87458562D01*
X220443235Y-87392939D01*
X220454703Y-87332139D01*
X220473817Y-87276161D01*
X220505780Y-87216948D01*
X220548149Y-87164298D01*
X220598414Y-87120216D01*
X220654065Y-87086961D01*
X220715101Y-87064533D01*
X220781523Y-87052933D01*
X220821896Y-87051165D01*
X220886464Y-87055779D01*
X220949594Y-87069619D01*
X221011286Y-87092687D01*
X221044939Y-87109490D01*
X221095277Y-87141547D01*
X221144376Y-87184880D01*
X221185499Y-87235911D01*
X221208484Y-87274207D01*
X221233103Y-87331287D01*
X221250689Y-87395840D01*
X221260306Y-87458455D01*
X221264538Y-87526793D01*
X221264757Y-87547369D01*
X221262926Y-87611944D01*
X221257431Y-87671140D01*
X221247030Y-87730606D01*
X221241603Y-87752533D01*
X221222983Y-87808156D01*
X221196509Y-87861964D01*
X221172434Y-87897613D01*
X221133063Y-87942278D01*
X221086228Y-87982157D01*
X221068386Y-87994333D01*
X221016256Y-88022496D01*
X220959722Y-88044801D01*
X220923013Y-88056175D01*
X220889600Y-87716482D01*
X220947239Y-87699372D01*
X220996625Y-87664293D01*
X221001561Y-87658743D01*
X221031291Y-87605595D01*
X221039663Y-87550593D01*
X221029230Y-87490267D01*
X220997932Y-87440632D01*
X220992182Y-87434822D01*
X220941717Y-87403566D01*
X220884262Y-87390707D01*
X220850619Y-87389099D01*
X220790421Y-87394571D01*
X220734995Y-87415148D01*
X220709349Y-87435408D01*
X220677162Y-87485309D01*
X220664900Y-87544085D01*
X220664506Y-87558213D01*
X220672864Y-87617770D01*
X220685902Y-87652295D01*
X220719036Y-87701827D01*
X220741882Y-87726448D01*
X220704953Y-88012212D01*
X220045497Y-87906113D01*
G37*
D14*
%TO.C,G4*%
G36*
X131045186Y-109602493D02*
G01*
X131045186Y-109958140D01*
X130963149Y-109956729D01*
X130881113Y-109955318D01*
X130881113Y-109601083D01*
X130881113Y-109246847D01*
X130963149Y-109246847D01*
X131045186Y-109246847D01*
X131045186Y-109602493D01*
G37*
G36*
X133420332Y-112133743D02*
G01*
X133420332Y-112207966D01*
X133314857Y-112207966D01*
X133209381Y-112207966D01*
X133209381Y-112543925D01*
X133209381Y-112879883D01*
X133123439Y-112879883D01*
X133037496Y-112879883D01*
X133037496Y-112543925D01*
X133037496Y-112207966D01*
X132928114Y-112207966D01*
X132818732Y-112207966D01*
X132818732Y-112133743D01*
X132818732Y-112059520D01*
X133119532Y-112059520D01*
X133420332Y-112059520D01*
X133420332Y-112133743D01*
G37*
G36*
X135811104Y-109313017D02*
G01*
X135811104Y-109379186D01*
X135716293Y-109381380D01*
X135621482Y-109383574D01*
X135620584Y-109668748D01*
X135619686Y-109953921D01*
X135539605Y-109953921D01*
X135459524Y-109953921D01*
X135459522Y-109666794D01*
X135459520Y-109379667D01*
X135365764Y-109379667D01*
X135272008Y-109379667D01*
X135272008Y-109313257D01*
X135272008Y-109246847D01*
X135541556Y-109246847D01*
X135811104Y-109246847D01*
X135811104Y-109313017D01*
G37*
G36*
X133773869Y-112059502D02*
G01*
X134076622Y-112059520D01*
X134076622Y-112133743D01*
X134076622Y-112207966D01*
X133967082Y-112207966D01*
X133857542Y-112207966D01*
X133858042Y-112541971D01*
X133858542Y-112875976D01*
X133777715Y-112878178D01*
X133743591Y-112878596D01*
X133715466Y-112877982D01*
X133696885Y-112876470D01*
X133691430Y-112874923D01*
X133690270Y-112866190D01*
X133689194Y-112843475D01*
X133688229Y-112808421D01*
X133687402Y-112762670D01*
X133686738Y-112707866D01*
X133686266Y-112645653D01*
X133686011Y-112577672D01*
X133685973Y-112538716D01*
X133685973Y-112207966D01*
X133581034Y-112207966D01*
X133476095Y-112207966D01*
X133473606Y-112133726D01*
X133471116Y-112059485D01*
X133773869Y-112059502D01*
G37*
G36*
X132391169Y-112060881D02*
G01*
X132588643Y-112063426D01*
X132640701Y-112089070D01*
X132693142Y-112122500D01*
X132732691Y-112164756D01*
X132759324Y-112215798D01*
X132773018Y-112275588D01*
X132775009Y-112309162D01*
X132771289Y-112368508D01*
X132758014Y-112418067D01*
X132733881Y-112461320D01*
X132705962Y-112493642D01*
X132675103Y-112521201D01*
X132643324Y-112541697D01*
X132607500Y-112556184D01*
X132564504Y-112565713D01*
X132511212Y-112571339D01*
X132469101Y-112573417D01*
X132365579Y-112576986D01*
X132365579Y-112728435D01*
X132365579Y-112879883D01*
X132279637Y-112879883D01*
X132193694Y-112879883D01*
X132193694Y-112469109D01*
X132193694Y-112207966D01*
X132365579Y-112207966D01*
X132365579Y-112317348D01*
X132365579Y-112426730D01*
X132437849Y-112426718D01*
X132479825Y-112425617D01*
X132509995Y-112421993D01*
X132532051Y-112415335D01*
X132536910Y-112413045D01*
X132567866Y-112389865D01*
X132588143Y-112359477D01*
X132597607Y-112325149D01*
X132596128Y-112290152D01*
X132583573Y-112257754D01*
X132559812Y-112231224D01*
X132544615Y-112221651D01*
X132525354Y-112214433D01*
X132499614Y-112210107D01*
X132463747Y-112208188D01*
X132441756Y-112207978D01*
X132365579Y-112207966D01*
X132193694Y-112207966D01*
X132193694Y-112058335D01*
X132391169Y-112060881D01*
G37*
G36*
X133188920Y-110558868D02*
G01*
X133280938Y-110577684D01*
X133370322Y-110610687D01*
X133455682Y-110657968D01*
X133492010Y-110683625D01*
X133544428Y-110730765D01*
X133594707Y-110789917D01*
X133640508Y-110857470D01*
X133679496Y-110929811D01*
X133709333Y-111003328D01*
X133718627Y-111033881D01*
X133730235Y-111094114D01*
X133735759Y-111163017D01*
X133735207Y-111234871D01*
X133728588Y-111303954D01*
X133718164Y-111356351D01*
X133686640Y-111449142D01*
X133643447Y-111531752D01*
X133588715Y-111603938D01*
X133582972Y-111610189D01*
X133507911Y-111681707D01*
X133429935Y-111738185D01*
X133347978Y-111780102D01*
X133260969Y-111807935D01*
X133167842Y-111822161D01*
X133103906Y-111824341D01*
X133061965Y-111823043D01*
X133019412Y-111820107D01*
X132982526Y-111816036D01*
X132966056Y-111813323D01*
X132884950Y-111791296D01*
X132810360Y-111758218D01*
X132739752Y-111712669D01*
X132670587Y-111653233D01*
X132658618Y-111641473D01*
X132612292Y-111592231D01*
X132576510Y-111546667D01*
X132548436Y-111500392D01*
X132525234Y-111449018D01*
X132513518Y-111416990D01*
X132487644Y-111320116D01*
X132475771Y-111222859D01*
X132477555Y-111126821D01*
X132492650Y-111033604D01*
X132520712Y-110944809D01*
X132561396Y-110862040D01*
X132614356Y-110786897D01*
X132659580Y-110738714D01*
X132738126Y-110674350D01*
X132822401Y-110623619D01*
X132911011Y-110586613D01*
X133002564Y-110563424D01*
X133095665Y-110554145D01*
X133188920Y-110558868D01*
G37*
G36*
X131463237Y-109461496D02*
G01*
X131495822Y-109514248D01*
X131526096Y-109563155D01*
X131553000Y-109606516D01*
X131575477Y-109642630D01*
X131592469Y-109669795D01*
X131602917Y-109686311D01*
X131605519Y-109690278D01*
X131608334Y-109691440D01*
X131610576Y-109685124D01*
X131612304Y-109670033D01*
X131613577Y-109644870D01*
X131614453Y-109608340D01*
X131614992Y-109559146D01*
X131615253Y-109495991D01*
X131615285Y-109475376D01*
X131615533Y-109246847D01*
X131693663Y-109246847D01*
X131771793Y-109246847D01*
X131771793Y-109602673D01*
X131771793Y-109958500D01*
X131694152Y-109956757D01*
X131616512Y-109955014D01*
X131477342Y-109733958D01*
X131444105Y-109681337D01*
X131413481Y-109633185D01*
X131386463Y-109591037D01*
X131364047Y-109556431D01*
X131347224Y-109530905D01*
X131336990Y-109515993D01*
X131334266Y-109512693D01*
X131333257Y-109520121D01*
X131332344Y-109541206D01*
X131331564Y-109573976D01*
X131330950Y-109616463D01*
X131330538Y-109666696D01*
X131330363Y-109722706D01*
X131330359Y-109732217D01*
X131330359Y-109951952D01*
X131254183Y-109953844D01*
X131221829Y-109954375D01*
X131196282Y-109954276D01*
X131180893Y-109953589D01*
X131177923Y-109952875D01*
X131177904Y-109944718D01*
X131177882Y-109922516D01*
X131177858Y-109887849D01*
X131177833Y-109842298D01*
X131177807Y-109787444D01*
X131177782Y-109724868D01*
X131177759Y-109656151D01*
X131177742Y-109600384D01*
X131177644Y-109250753D01*
X131254059Y-109248548D01*
X131330473Y-109246342D01*
X131463237Y-109461496D01*
G37*
G36*
X134695801Y-109248243D02*
G01*
X134775884Y-109251144D01*
X134779790Y-109508777D01*
X134780953Y-109580292D01*
X134782116Y-109637888D01*
X134783385Y-109683270D01*
X134784867Y-109718146D01*
X134786669Y-109744221D01*
X134788899Y-109763202D01*
X134791662Y-109776794D01*
X134795065Y-109786704D01*
X134797502Y-109791670D01*
X134821430Y-109819771D01*
X134856393Y-109836977D01*
X134902083Y-109843141D01*
X134904798Y-109843157D01*
X134949020Y-109838537D01*
X134982208Y-109824005D01*
X135006172Y-109798552D01*
X135015196Y-109781559D01*
X135019487Y-109770757D01*
X135022934Y-109758615D01*
X135025650Y-109743298D01*
X135027752Y-109722971D01*
X135029353Y-109695798D01*
X135030569Y-109659946D01*
X135031514Y-109613578D01*
X135032303Y-109554861D01*
X135032889Y-109498893D01*
X135035309Y-109250753D01*
X135112640Y-109252354D01*
X135189972Y-109253955D01*
X135192240Y-109467211D01*
X135192686Y-109555832D01*
X135191788Y-109630492D01*
X135189255Y-109692821D01*
X135184795Y-109744446D01*
X135178118Y-109786998D01*
X135168933Y-109822106D01*
X135156950Y-109851399D01*
X135141878Y-109876507D01*
X135123426Y-109899057D01*
X135113341Y-109909395D01*
X135080858Y-109937147D01*
X135046931Y-109956680D01*
X135007868Y-109969290D01*
X134959978Y-109976275D01*
X134916518Y-109978591D01*
X134865446Y-109978803D01*
X134826271Y-109976064D01*
X134795492Y-109970101D01*
X134790764Y-109968723D01*
X134736213Y-109944268D01*
X134691146Y-109907797D01*
X134656339Y-109860267D01*
X134632568Y-109802635D01*
X134623751Y-109762503D01*
X134621713Y-109741577D01*
X134619866Y-109707537D01*
X134618280Y-109662894D01*
X134617024Y-109610161D01*
X134616171Y-109551850D01*
X134615790Y-109490470D01*
X134615777Y-109478531D01*
X134615718Y-109245342D01*
X134695801Y-109248243D01*
G37*
G36*
X134282541Y-109247879D02*
G01*
X134292247Y-109250385D01*
X134354649Y-109276065D01*
X134410015Y-109314660D01*
X134456799Y-109364457D01*
X134493457Y-109423742D01*
X134518445Y-109490800D01*
X134521965Y-109505259D01*
X134527805Y-109547441D01*
X134529365Y-109597688D01*
X134526961Y-109650660D01*
X134520909Y-109701020D01*
X134511526Y-109743427D01*
X134507070Y-109756559D01*
X134473517Y-109823637D01*
X134429756Y-109879788D01*
X134376920Y-109924158D01*
X134316144Y-109955891D01*
X134248564Y-109974132D01*
X134213349Y-109977884D01*
X134178358Y-109977970D01*
X134142985Y-109975098D01*
X134119594Y-109970937D01*
X134055599Y-109946713D01*
X133996989Y-109909003D01*
X133946159Y-109859660D01*
X133910456Y-109809267D01*
X133885024Y-109752017D01*
X133869403Y-109686345D01*
X133863552Y-109615954D01*
X133865739Y-109575659D01*
X134029918Y-109575659D01*
X134030060Y-109624368D01*
X134033790Y-109672310D01*
X134040907Y-109714687D01*
X134051213Y-109746700D01*
X134051648Y-109747613D01*
X134079517Y-109790164D01*
X134115092Y-109821396D01*
X134155961Y-109840532D01*
X134199713Y-109846793D01*
X134243938Y-109839401D01*
X134280561Y-109821498D01*
X134315363Y-109789197D01*
X134341180Y-109744699D01*
X134357750Y-109688769D01*
X134364808Y-109622177D01*
X134364366Y-109577372D01*
X134356244Y-109512289D01*
X134338733Y-109459515D01*
X134311904Y-109419141D01*
X134275829Y-109391263D01*
X134230578Y-109375972D01*
X134209850Y-109373397D01*
X134158692Y-109376169D01*
X134115430Y-109392415D01*
X134080148Y-109422071D01*
X134052932Y-109465077D01*
X134041190Y-109495138D01*
X134033562Y-109530983D01*
X134029918Y-109575659D01*
X133865739Y-109575659D01*
X133867427Y-109544549D01*
X133880987Y-109475834D01*
X133904187Y-109413512D01*
X133915270Y-109392707D01*
X133943396Y-109354569D01*
X133980867Y-109317366D01*
X134022641Y-109285447D01*
X134063676Y-109263163D01*
X134066882Y-109261886D01*
X134116619Y-109248103D01*
X134173429Y-109240955D01*
X134230880Y-109240771D01*
X134282541Y-109247879D01*
G37*
G36*
X131349349Y-106498761D02*
G01*
X131413441Y-106503837D01*
X131467292Y-106513978D01*
X131515889Y-106530744D01*
X131564218Y-106555699D01*
X131596545Y-106576174D01*
X131664974Y-106630994D01*
X131722302Y-106695934D01*
X131767336Y-106769355D01*
X131798886Y-106849619D01*
X131801002Y-106857046D01*
X131803913Y-106868737D01*
X131806387Y-106881931D01*
X131808459Y-106897928D01*
X131810162Y-106918028D01*
X131811534Y-106943532D01*
X131812607Y-106975741D01*
X131813419Y-107015954D01*
X131814002Y-107065472D01*
X131814394Y-107125595D01*
X131814628Y-107197624D01*
X131814739Y-107282859D01*
X131814764Y-107367825D01*
X131814778Y-107467437D01*
X131814733Y-107552779D01*
X131814501Y-107625203D01*
X131813952Y-107686065D01*
X131812959Y-107736719D01*
X131811392Y-107778520D01*
X131809122Y-107812822D01*
X131806022Y-107840980D01*
X131801962Y-107864348D01*
X131796813Y-107884280D01*
X131790447Y-107902132D01*
X131782734Y-107919257D01*
X131773547Y-107937010D01*
X131762756Y-107956745D01*
X131757952Y-107965518D01*
X131731039Y-108006174D01*
X131694263Y-108049771D01*
X131651702Y-108092188D01*
X131607430Y-108129302D01*
X131572622Y-108152940D01*
X131525396Y-108178468D01*
X131481159Y-108196304D01*
X131435298Y-108207595D01*
X131383202Y-108213488D01*
X131322546Y-108215132D01*
X131277206Y-108214717D01*
X131243117Y-108213121D01*
X131215921Y-108209817D01*
X131191258Y-108204279D01*
X131165276Y-108196154D01*
X131081851Y-108160158D01*
X131009080Y-108112811D01*
X130947308Y-108054464D01*
X130896878Y-107985471D01*
X130858134Y-107906183D01*
X130844690Y-107867522D01*
X130841653Y-107856755D01*
X130839074Y-107844842D01*
X130836916Y-107830480D01*
X130835142Y-107812367D01*
X130833716Y-107789200D01*
X130832599Y-107759678D01*
X130831756Y-107722498D01*
X130831147Y-107676357D01*
X130830738Y-107619953D01*
X130830490Y-107551985D01*
X130830366Y-107471149D01*
X130830329Y-107376144D01*
X130830329Y-107363918D01*
X130830335Y-107263298D01*
X130830436Y-107176949D01*
X130830748Y-107103518D01*
X130831393Y-107041650D01*
X130832490Y-106989992D01*
X130834159Y-106947189D01*
X130836518Y-106911888D01*
X130839687Y-106882733D01*
X130843787Y-106858371D01*
X130848935Y-106837448D01*
X130855253Y-106818610D01*
X130862859Y-106800503D01*
X130871873Y-106781772D01*
X130882415Y-106761063D01*
X130883772Y-106758412D01*
X130911261Y-106713252D01*
X130947040Y-106666961D01*
X130987742Y-106623059D01*
X131029998Y-106585063D01*
X131070440Y-106556491D01*
X131084251Y-106549022D01*
X131159497Y-106519576D01*
X131239433Y-106502770D01*
X131326669Y-106498111D01*
X131349349Y-106498761D01*
G37*
G36*
X130641067Y-107481551D02*
G01*
X130661225Y-107490004D01*
X130676758Y-107500868D01*
X130688361Y-107516213D01*
X130696727Y-107538112D01*
X130702548Y-107568634D01*
X130706520Y-107609851D01*
X130709334Y-107663833D01*
X130710246Y-107688157D01*
X130713456Y-107757777D01*
X130718149Y-107815066D01*
X130724994Y-107863298D01*
X130734662Y-107905746D01*
X130747821Y-107945685D01*
X130765143Y-107986387D01*
X130775793Y-108008489D01*
X130828109Y-108098787D01*
X130889322Y-108176394D01*
X130960084Y-108241893D01*
X131041049Y-108295869D01*
X131132870Y-108338906D01*
X131154567Y-108346955D01*
X131180461Y-108355609D01*
X131203293Y-108361462D01*
X131227224Y-108365033D01*
X131256414Y-108366838D01*
X131295024Y-108367396D01*
X131318640Y-108367371D01*
X131390765Y-108364838D01*
X131452778Y-108357042D01*
X131509647Y-108342827D01*
X131566337Y-108321039D01*
X131611185Y-108299312D01*
X131671056Y-108261415D01*
X131730224Y-108211340D01*
X131785738Y-108152373D01*
X131834648Y-108087798D01*
X131874003Y-108020902D01*
X131887544Y-107991553D01*
X131901501Y-107954386D01*
X131912317Y-107915629D01*
X131920468Y-107872313D01*
X131926427Y-107821473D01*
X131930668Y-107760142D01*
X131932930Y-107707690D01*
X131935516Y-107647622D01*
X131938885Y-107601042D01*
X131943629Y-107565814D01*
X131950346Y-107539802D01*
X131959628Y-107520869D01*
X131972072Y-107506878D01*
X131988272Y-107495694D01*
X131992639Y-107493268D01*
X132022468Y-107483288D01*
X132049080Y-107488015D01*
X132073979Y-107507847D01*
X132081337Y-107516798D01*
X132091419Y-107531810D01*
X132098343Y-107548047D01*
X132103141Y-107569521D01*
X132106843Y-107600246D01*
X132108917Y-107624166D01*
X132111502Y-107696221D01*
X132108853Y-107775078D01*
X132101467Y-107854734D01*
X132089844Y-107929182D01*
X132079890Y-107973331D01*
X132067384Y-108014020D01*
X132050180Y-108060848D01*
X132031141Y-108106278D01*
X132022039Y-108125684D01*
X131971718Y-108210808D01*
X131908521Y-108289041D01*
X131834154Y-108359110D01*
X131750321Y-108419745D01*
X131658727Y-108469674D01*
X131561077Y-108507626D01*
X131482713Y-108527911D01*
X131416302Y-108541420D01*
X131414162Y-108671031D01*
X131412022Y-108800643D01*
X131578235Y-108803028D01*
X131643094Y-108804372D01*
X131694203Y-108806621D01*
X131733429Y-108810213D01*
X131762639Y-108815586D01*
X131783703Y-108823181D01*
X131798488Y-108833435D01*
X131808863Y-108846787D01*
X131814648Y-108858562D01*
X131820145Y-108887712D01*
X131815569Y-108918488D01*
X131802303Y-108944325D01*
X131794992Y-108951712D01*
X131786249Y-108958066D01*
X131776111Y-108963436D01*
X131763271Y-108967905D01*
X131746421Y-108971551D01*
X131724253Y-108974457D01*
X131695459Y-108976701D01*
X131658732Y-108978366D01*
X131612762Y-108979531D01*
X131556243Y-108980278D01*
X131487866Y-108980686D01*
X131406324Y-108980836D01*
X131322546Y-108980819D01*
X131229616Y-108980677D01*
X131151062Y-108980379D01*
X131085636Y-108979894D01*
X131032089Y-108979187D01*
X130989171Y-108978226D01*
X130955634Y-108976977D01*
X130930228Y-108975407D01*
X130911706Y-108973484D01*
X130898817Y-108971174D01*
X130892833Y-108969436D01*
X130859176Y-108951214D01*
X130837145Y-108925775D01*
X130828129Y-108895463D01*
X130832012Y-108866775D01*
X130841427Y-108847611D01*
X130856544Y-108832370D01*
X130878920Y-108820669D01*
X130910113Y-108812124D01*
X130951682Y-108806352D01*
X131005183Y-108802967D01*
X131072176Y-108801588D01*
X131097036Y-108801507D01*
X131232697Y-108801507D01*
X131232697Y-108672347D01*
X131232375Y-108621174D01*
X131231330Y-108584005D01*
X131229442Y-108559228D01*
X131226592Y-108545232D01*
X131222931Y-108540469D01*
X131211082Y-108537625D01*
X131188313Y-108532491D01*
X131158983Y-108526048D01*
X131150661Y-108524244D01*
X131064175Y-108501018D01*
X130986266Y-108469836D01*
X130913787Y-108428917D01*
X130843590Y-108376483D01*
X130772531Y-108310755D01*
X130771731Y-108309949D01*
X130713213Y-108246870D01*
X130665784Y-108185634D01*
X130627251Y-108122381D01*
X130595419Y-108053250D01*
X130568092Y-107974378D01*
X130555113Y-107928900D01*
X130547645Y-107899908D01*
X130542224Y-107874494D01*
X130538528Y-107849211D01*
X130536237Y-107820613D01*
X130535033Y-107785256D01*
X130534594Y-107739693D01*
X130534563Y-107707690D01*
X130534753Y-107655525D01*
X130535411Y-107616278D01*
X130536783Y-107587241D01*
X130539117Y-107565708D01*
X130542661Y-107548972D01*
X130547662Y-107534325D01*
X130551168Y-107526079D01*
X130569237Y-107495034D01*
X130590397Y-107478544D01*
X130616745Y-107475572D01*
X130641067Y-107481551D01*
G37*
G36*
X135016158Y-106687996D02*
G01*
X135137692Y-106715432D01*
X135178252Y-106728024D01*
X135286276Y-106771703D01*
X135391494Y-106829288D01*
X135491699Y-106899072D01*
X135584682Y-106979345D01*
X135668236Y-107068400D01*
X135737746Y-107160896D01*
X135800763Y-107269331D01*
X135851475Y-107386339D01*
X135889299Y-107510159D01*
X135913653Y-107639034D01*
X135921384Y-107715503D01*
X135923395Y-107753715D01*
X135924956Y-107802260D01*
X135926086Y-107859220D01*
X135926802Y-107922674D01*
X135927123Y-107990705D01*
X135927067Y-108061393D01*
X135926653Y-108132819D01*
X135925899Y-108203064D01*
X135924822Y-108270209D01*
X135923443Y-108332336D01*
X135921778Y-108387524D01*
X135919847Y-108433855D01*
X135917667Y-108469410D01*
X135915257Y-108492270D01*
X135913901Y-108498556D01*
X135892770Y-108540215D01*
X135859822Y-108579100D01*
X135818866Y-108612099D01*
X135773706Y-108636097D01*
X135731728Y-108647549D01*
X135702472Y-108656877D01*
X135684035Y-108674460D01*
X135678532Y-108694338D01*
X135672870Y-108717388D01*
X135658258Y-108746817D01*
X135637273Y-108778447D01*
X135612486Y-108808103D01*
X135601898Y-108818652D01*
X135559843Y-108850643D01*
X135521570Y-108867328D01*
X135489725Y-108875694D01*
X135464789Y-108878391D01*
X135439208Y-108875516D01*
X135411104Y-108868703D01*
X135357547Y-108846625D01*
X135311762Y-108812300D01*
X135276202Y-108767859D01*
X135261350Y-108738582D01*
X135258752Y-108729706D01*
X135256522Y-108715778D01*
X135254621Y-108695578D01*
X135253010Y-108667890D01*
X135251650Y-108631495D01*
X135250499Y-108585175D01*
X135249520Y-108527713D01*
X135248673Y-108457890D01*
X135247917Y-108374489D01*
X135247435Y-108309289D01*
X135246767Y-108217163D01*
X135246243Y-108139302D01*
X135246028Y-108074346D01*
X135246285Y-108020934D01*
X135247176Y-107977705D01*
X135248866Y-107943298D01*
X135251518Y-107916354D01*
X135255294Y-107895511D01*
X135260357Y-107879409D01*
X135266872Y-107866686D01*
X135275001Y-107855983D01*
X135284908Y-107845939D01*
X135296755Y-107835192D01*
X135305229Y-107827504D01*
X135351872Y-107794665D01*
X135404439Y-107775842D01*
X135460783Y-107771770D01*
X135467026Y-107772246D01*
X135522396Y-107784728D01*
X135571361Y-107811142D01*
X135613010Y-107850794D01*
X135646431Y-107902988D01*
X135651102Y-107912780D01*
X135664013Y-107938471D01*
X135674717Y-107952343D01*
X135685844Y-107957434D01*
X135690013Y-107957705D01*
X135700689Y-107956082D01*
X135707135Y-107948757D01*
X135711343Y-107932042D01*
X135713945Y-107913412D01*
X135716279Y-107876044D01*
X135715858Y-107827992D01*
X135712972Y-107773896D01*
X135707911Y-107718398D01*
X135700964Y-107666141D01*
X135697127Y-107644007D01*
X135667829Y-107528089D01*
X135625352Y-107417445D01*
X135570655Y-107313655D01*
X135504698Y-107218300D01*
X135428439Y-107132964D01*
X135342837Y-107059227D01*
X135342325Y-107058843D01*
X135301824Y-107032114D01*
X135251002Y-107003939D01*
X135194701Y-106976636D01*
X135137766Y-106952527D01*
X135085039Y-106933932D01*
X135075881Y-106931210D01*
X134974005Y-106908298D01*
X134874030Y-106898148D01*
X134778960Y-106901051D01*
X134773263Y-106901671D01*
X134714987Y-106911313D01*
X134650105Y-106927007D01*
X134584650Y-106946972D01*
X134524652Y-106969428D01*
X134489840Y-106985319D01*
X134390329Y-107044130D01*
X134299582Y-107115452D01*
X134218644Y-107198209D01*
X134148560Y-107291327D01*
X134090374Y-107393730D01*
X134087795Y-107399077D01*
X134052313Y-107481607D01*
X134026190Y-107562797D01*
X134008557Y-107646686D01*
X133998545Y-107737313D01*
X133995325Y-107828791D01*
X133994586Y-107938172D01*
X134014857Y-107940527D01*
X134028033Y-107940002D01*
X134037267Y-107932269D01*
X134046189Y-107913798D01*
X134048534Y-107907778D01*
X134069383Y-107870029D01*
X134100762Y-107833591D01*
X134138012Y-107803454D01*
X134155427Y-107793288D01*
X134206178Y-107775700D01*
X134259060Y-107772158D01*
X134311265Y-107781883D01*
X134359987Y-107804095D01*
X134402421Y-107838014D01*
X134427207Y-107868798D01*
X134451645Y-107905693D01*
X134451645Y-108301650D01*
X134451515Y-108401741D01*
X134451112Y-108486926D01*
X134450423Y-108557921D01*
X134449430Y-108615443D01*
X134448120Y-108660208D01*
X134446476Y-108692935D01*
X134444482Y-108714339D01*
X134442502Y-108724164D01*
X134417098Y-108774773D01*
X134378028Y-108818264D01*
X134352253Y-108838184D01*
X134331119Y-108852260D01*
X134314344Y-108861002D01*
X134297036Y-108865678D01*
X134274307Y-108867560D01*
X134241265Y-108867916D01*
X134237762Y-108867917D01*
X134202006Y-108867402D01*
X134176990Y-108865217D01*
X134157845Y-108860405D01*
X134139700Y-108852010D01*
X134130660Y-108846864D01*
X134081276Y-108809119D01*
X134043041Y-108761168D01*
X134022289Y-108718634D01*
X134012032Y-108692937D01*
X134002772Y-108672650D01*
X133997472Y-108663550D01*
X133986594Y-108656862D01*
X133965102Y-108647872D01*
X133937447Y-108638422D01*
X133934697Y-108637578D01*
X133881809Y-108614595D01*
X133838693Y-108581477D01*
X133807094Y-108539858D01*
X133792036Y-108504155D01*
X133788973Y-108485687D01*
X133786300Y-108453466D01*
X133784019Y-108409362D01*
X133782131Y-108355243D01*
X133780638Y-108292977D01*
X133779542Y-108224433D01*
X133778845Y-108151481D01*
X133778548Y-108075988D01*
X133778654Y-107999823D01*
X133779163Y-107924856D01*
X133780077Y-107852954D01*
X133781400Y-107785986D01*
X133783131Y-107725822D01*
X133785273Y-107674330D01*
X133787827Y-107633377D01*
X133790796Y-107604835D01*
X133791199Y-107602214D01*
X133819832Y-107472519D01*
X133862207Y-107349434D01*
X133917635Y-107233776D01*
X133985425Y-107126359D01*
X134064889Y-107027998D01*
X134155338Y-106939509D01*
X134256081Y-106861706D01*
X134366430Y-106795404D01*
X134485695Y-106741419D01*
X134534009Y-106724036D01*
X134650519Y-106693137D01*
X134770857Y-106676838D01*
X134893308Y-106675128D01*
X135016158Y-106687996D01*
G37*
G36*
X133789343Y-106022961D02*
G01*
X134012740Y-106023014D01*
X134227714Y-106023103D01*
X134433862Y-106023227D01*
X134630780Y-106023384D01*
X134818064Y-106023575D01*
X134995310Y-106023799D01*
X135162114Y-106024055D01*
X135318073Y-106024341D01*
X135462782Y-106024658D01*
X135595838Y-106025004D01*
X135716837Y-106025379D01*
X135825376Y-106025781D01*
X135921049Y-106026211D01*
X136003455Y-106026666D01*
X136072187Y-106027147D01*
X136126844Y-106027653D01*
X136167021Y-106028182D01*
X136192314Y-106028735D01*
X136201753Y-106029215D01*
X136259499Y-106040018D01*
X136321431Y-106057903D01*
X136381026Y-106080677D01*
X136431759Y-106106146D01*
X136433331Y-106107081D01*
X136459085Y-106124540D01*
X136490616Y-106148857D01*
X136522627Y-106175864D01*
X136535279Y-106187320D01*
X136603297Y-106258801D01*
X136656990Y-106334048D01*
X136697541Y-106414940D01*
X136719874Y-106479847D01*
X136736942Y-106539649D01*
X136739184Y-109657028D01*
X136741426Y-112774407D01*
X136724671Y-112847881D01*
X136697262Y-112934842D01*
X136656727Y-113016610D01*
X136604638Y-113091844D01*
X136542566Y-113159204D01*
X136472084Y-113217349D01*
X136394765Y-113264937D01*
X136312180Y-113300629D01*
X136225903Y-113323082D01*
X136158781Y-113330471D01*
X136143895Y-113330784D01*
X136114062Y-113331089D01*
X136069963Y-113331387D01*
X136012277Y-113331677D01*
X135941685Y-113331958D01*
X135858866Y-113332231D01*
X135764499Y-113332495D01*
X135659266Y-113332749D01*
X135543844Y-113332994D01*
X135418916Y-113333229D01*
X135285159Y-113333454D01*
X135143254Y-113333669D01*
X134993881Y-113333872D01*
X134837719Y-113334065D01*
X134675449Y-113334246D01*
X134507749Y-113334415D01*
X134335301Y-113334573D01*
X134158784Y-113334718D01*
X133978877Y-113334851D01*
X133796260Y-113334971D01*
X133611614Y-113335077D01*
X133425617Y-113335170D01*
X133238950Y-113335250D01*
X133052293Y-113335315D01*
X132866326Y-113335366D01*
X132681727Y-113335402D01*
X132499178Y-113335423D01*
X132319357Y-113335429D01*
X132142945Y-113335419D01*
X131970621Y-113335394D01*
X131803066Y-113335352D01*
X131640959Y-113335294D01*
X131484979Y-113335219D01*
X131335807Y-113335127D01*
X131194123Y-113335017D01*
X131060606Y-113334890D01*
X130935936Y-113334745D01*
X130820792Y-113334582D01*
X130715856Y-113334400D01*
X130621806Y-113334199D01*
X130539322Y-113333979D01*
X130469084Y-113333739D01*
X130411773Y-113333480D01*
X130368067Y-113333200D01*
X130349830Y-113333036D01*
X129978714Y-113329129D01*
X129916210Y-113307043D01*
X129827872Y-113269950D01*
X129750617Y-113224311D01*
X129681802Y-113168131D01*
X129618782Y-113099416D01*
X129588941Y-113060182D01*
X129556322Y-113011071D01*
X129530937Y-112963145D01*
X129510533Y-112911283D01*
X129492858Y-112850362D01*
X129488061Y-112830858D01*
X129470870Y-112758781D01*
X129470870Y-110332851D01*
X129613639Y-110332851D01*
X129617791Y-111557536D01*
X129618334Y-111721547D01*
X129618818Y-111870686D01*
X129619271Y-112005706D01*
X129619722Y-112127360D01*
X129620197Y-112236402D01*
X129620726Y-112333586D01*
X129621336Y-112419664D01*
X129622055Y-112495390D01*
X129622912Y-112561518D01*
X129623933Y-112618801D01*
X129625148Y-112667991D01*
X129626585Y-112709844D01*
X129628270Y-112745111D01*
X129630233Y-112774547D01*
X129632502Y-112798905D01*
X129635104Y-112818938D01*
X129638067Y-112835399D01*
X129641420Y-112849043D01*
X129645190Y-112860621D01*
X129649406Y-112870889D01*
X129654095Y-112880599D01*
X129659286Y-112890505D01*
X129665007Y-112901359D01*
X129667999Y-112907228D01*
X129715512Y-112986898D01*
X129771546Y-113053497D01*
X129836041Y-113106981D01*
X129908939Y-113147307D01*
X129990182Y-113174432D01*
X130045124Y-113184656D01*
X130055940Y-113185068D01*
X130081843Y-113185467D01*
X130122293Y-113185853D01*
X130176751Y-113186225D01*
X130244677Y-113186582D01*
X130325534Y-113186922D01*
X130418780Y-113187246D01*
X130523877Y-113187553D01*
X130640285Y-113187841D01*
X130767466Y-113188110D01*
X130904879Y-113188359D01*
X131051986Y-113188587D01*
X131208247Y-113188793D01*
X131373123Y-113188976D01*
X131546074Y-113189136D01*
X131726562Y-113189272D01*
X131914047Y-113189383D01*
X132107989Y-113189468D01*
X132307850Y-113189526D01*
X132513089Y-113189556D01*
X132723169Y-113189558D01*
X132937549Y-113189530D01*
X133139064Y-113189478D01*
X133398954Y-113189392D01*
X133643679Y-113189307D01*
X133873704Y-113189220D01*
X134089490Y-113189128D01*
X134291501Y-113189030D01*
X134480198Y-113188922D01*
X134656044Y-113188803D01*
X134819502Y-113188670D01*
X134971034Y-113188521D01*
X135111103Y-113188354D01*
X135240170Y-113188166D01*
X135358700Y-113187955D01*
X135467154Y-113187718D01*
X135565994Y-113187454D01*
X135655684Y-113187160D01*
X135736685Y-113186834D01*
X135809461Y-113186473D01*
X135874473Y-113186074D01*
X135932185Y-113185637D01*
X135983058Y-113185158D01*
X136027556Y-113184635D01*
X136066141Y-113184066D01*
X136099275Y-113183448D01*
X136127421Y-113182779D01*
X136151041Y-113182057D01*
X136170598Y-113181280D01*
X136186554Y-113180444D01*
X136199373Y-113179549D01*
X136209516Y-113178591D01*
X136217445Y-113177568D01*
X136223624Y-113176478D01*
X136228516Y-113175318D01*
X136232581Y-113174087D01*
X136233005Y-113173944D01*
X136290946Y-113150848D01*
X136349315Y-113121506D01*
X136400676Y-113089712D01*
X136407018Y-113085183D01*
X136437987Y-113058137D01*
X136471700Y-113021440D01*
X136504487Y-112979689D01*
X136532675Y-112937481D01*
X136548952Y-112907525D01*
X136554483Y-112896008D01*
X136559514Y-112885431D01*
X136564071Y-112875039D01*
X136568178Y-112864079D01*
X136571860Y-112851796D01*
X136575143Y-112837438D01*
X136578052Y-112820249D01*
X136580611Y-112799477D01*
X136582847Y-112774367D01*
X136584783Y-112744166D01*
X136586445Y-112708119D01*
X136587859Y-112665474D01*
X136589048Y-112615475D01*
X136590039Y-112557369D01*
X136590857Y-112490402D01*
X136591526Y-112413820D01*
X136592071Y-112326871D01*
X136592519Y-112228798D01*
X136592893Y-112118849D01*
X136593219Y-111996271D01*
X136593522Y-111860308D01*
X136593827Y-111710207D01*
X136594150Y-111549723D01*
X136596641Y-110332851D01*
X133105140Y-110332851D01*
X129613639Y-110332851D01*
X129470870Y-110332851D01*
X129470870Y-110215656D01*
X129615410Y-110215656D01*
X131330359Y-110215656D01*
X133045309Y-110215656D01*
X133045309Y-108192094D01*
X133045309Y-106168532D01*
X131597954Y-106168600D01*
X131412680Y-106168605D01*
X131242356Y-106168616D01*
X131086309Y-106168653D01*
X130943863Y-106168738D01*
X130814344Y-106168893D01*
X130697077Y-106169139D01*
X130591386Y-106169497D01*
X130496597Y-106169987D01*
X130412035Y-106170633D01*
X130337025Y-106171453D01*
X130270892Y-106172471D01*
X130212962Y-106173707D01*
X130162560Y-106175183D01*
X130119010Y-106176919D01*
X130081638Y-106178937D01*
X130049769Y-106181258D01*
X130022728Y-106183903D01*
X129999840Y-106186895D01*
X129980431Y-106190253D01*
X129963825Y-106193999D01*
X129949348Y-106198155D01*
X129936324Y-106202741D01*
X129924079Y-106207780D01*
X129911939Y-106213291D01*
X129899227Y-106219297D01*
X129892877Y-106222291D01*
X129828432Y-106259046D01*
X129771019Y-106306288D01*
X129718149Y-106366189D01*
X129700530Y-106390161D01*
X129667510Y-106442905D01*
X129644734Y-106494734D01*
X129629976Y-106551588D01*
X129623360Y-106596391D01*
X129622418Y-106612621D01*
X129621531Y-106644224D01*
X129620700Y-106690951D01*
X129619926Y-106752548D01*
X129619210Y-106828765D01*
X129618553Y-106919349D01*
X129617957Y-107024049D01*
X129617422Y-107142614D01*
X129616949Y-107274792D01*
X129616540Y-107420331D01*
X129616196Y-107578979D01*
X129615917Y-107750485D01*
X129615705Y-107934598D01*
X129615561Y-108131065D01*
X129615486Y-108339636D01*
X129615474Y-108440156D01*
X129615410Y-110215656D01*
X129470870Y-110215656D01*
X129470870Y-109676561D01*
X129470879Y-109405548D01*
X129470906Y-109149761D01*
X129470953Y-108908802D01*
X129471021Y-108682270D01*
X129471112Y-108469765D01*
X129471226Y-108270889D01*
X129471365Y-108085241D01*
X129471529Y-107912422D01*
X129471722Y-107752033D01*
X129471943Y-107603674D01*
X129472193Y-107466945D01*
X129472475Y-107341448D01*
X129472789Y-107226781D01*
X129473137Y-107122546D01*
X129473520Y-107028344D01*
X129473939Y-106943774D01*
X129474396Y-106868437D01*
X129474891Y-106801934D01*
X129475426Y-106743865D01*
X129476003Y-106693830D01*
X129476622Y-106651430D01*
X129477285Y-106616266D01*
X129477993Y-106587937D01*
X129478747Y-106566045D01*
X129479548Y-106550189D01*
X129480399Y-106539971D01*
X129480805Y-106537067D01*
X129503470Y-106445270D01*
X129537843Y-106363127D01*
X129565247Y-106316864D01*
X129628214Y-106236582D01*
X129701675Y-106167034D01*
X129702907Y-106166172D01*
X133162503Y-106166172D01*
X133162503Y-108192867D01*
X133162503Y-110219563D01*
X134882324Y-110217575D01*
X136602144Y-110215587D01*
X136597985Y-108393244D01*
X136597535Y-108191783D01*
X136597132Y-108005342D01*
X136596758Y-107833314D01*
X136596397Y-107675093D01*
X136596035Y-107530072D01*
X136595654Y-107397645D01*
X136595238Y-107277205D01*
X136594773Y-107168147D01*
X136594240Y-107069863D01*
X136593626Y-106981748D01*
X136592912Y-106903195D01*
X136592085Y-106833597D01*
X136591126Y-106772349D01*
X136590022Y-106718843D01*
X136588754Y-106672474D01*
X136587309Y-106632635D01*
X136585668Y-106598720D01*
X136583817Y-106570122D01*
X136581740Y-106546234D01*
X136579419Y-106526452D01*
X136576841Y-106510167D01*
X136573987Y-106496775D01*
X136570843Y-106485667D01*
X136567392Y-106476239D01*
X136563619Y-106467883D01*
X136559506Y-106459994D01*
X136555039Y-106451964D01*
X136550202Y-106443188D01*
X136546278Y-106435667D01*
X136501936Y-106364865D01*
X136444938Y-106301969D01*
X136376933Y-106248598D01*
X136324939Y-106218417D01*
X136315345Y-106213401D01*
X136306723Y-106208794D01*
X136298405Y-106204577D01*
X136289723Y-106200731D01*
X136280012Y-106197235D01*
X136268604Y-106194072D01*
X136254831Y-106191221D01*
X136238026Y-106188663D01*
X136217523Y-106186380D01*
X136192653Y-106184352D01*
X136162751Y-106182559D01*
X136127148Y-106180982D01*
X136085178Y-106179603D01*
X136036173Y-106178401D01*
X135979466Y-106177358D01*
X135914391Y-106176454D01*
X135840279Y-106175669D01*
X135756464Y-106174986D01*
X135662279Y-106174384D01*
X135557056Y-106173844D01*
X135440128Y-106173347D01*
X135310828Y-106172873D01*
X135168490Y-106172404D01*
X135012445Y-106171920D01*
X134842027Y-106171402D01*
X134680175Y-106170903D01*
X133162503Y-106166172D01*
X129702907Y-106166172D01*
X129784117Y-106109328D01*
X129874026Y-106064571D01*
X129941610Y-106041250D01*
X130002153Y-106023992D01*
X133072654Y-106023026D01*
X133318896Y-106022966D01*
X133557927Y-106022945D01*
X133789343Y-106022961D01*
G37*
%TO.C,G2*%
G36*
X99287450Y-111578252D02*
G01*
X99287450Y-111711073D01*
X99002276Y-111711073D01*
X98717102Y-111711073D01*
X98717102Y-111578252D01*
X98717102Y-111445432D01*
X99002276Y-111445432D01*
X99287450Y-111445432D01*
X99287450Y-111578252D01*
G37*
G36*
X101498535Y-107212750D02*
G01*
X101498631Y-107264946D01*
X101498905Y-107330340D01*
X101499338Y-107406507D01*
X101499912Y-107491019D01*
X101500608Y-107581450D01*
X101501410Y-107675374D01*
X101502298Y-107770364D01*
X101503254Y-107863995D01*
X101503671Y-107902245D01*
X101508796Y-108363211D01*
X101361751Y-108366111D01*
X101214705Y-108369010D01*
X101219887Y-108179287D01*
X101220823Y-108136722D01*
X101221705Y-108080580D01*
X101222518Y-108012909D01*
X101223245Y-107935757D01*
X101223872Y-107851173D01*
X101224383Y-107761206D01*
X101224763Y-107667905D01*
X101224996Y-107573316D01*
X101225069Y-107486892D01*
X101225069Y-106984220D01*
X101361796Y-106984220D01*
X101498523Y-106984220D01*
X101498535Y-107212750D01*
G37*
G36*
X102112581Y-107024743D02*
G01*
X102120108Y-107038931D01*
X102133407Y-107063152D01*
X102152676Y-107097757D01*
X102178113Y-107143093D01*
X102209915Y-107199512D01*
X102248280Y-107267362D01*
X102293405Y-107346992D01*
X102345489Y-107438752D01*
X102404727Y-107542991D01*
X102471319Y-107660058D01*
X102545461Y-107790303D01*
X102552701Y-107803018D01*
X102611873Y-107906928D01*
X102613888Y-107445574D01*
X102615903Y-106984220D01*
X102752568Y-106984220D01*
X102889234Y-106984220D01*
X102889234Y-107213416D01*
X102889330Y-107265883D01*
X102889607Y-107331531D01*
X102890046Y-107407918D01*
X102890628Y-107492599D01*
X102891336Y-107583132D01*
X102892150Y-107677072D01*
X102893053Y-107771978D01*
X102894026Y-107865405D01*
X102894422Y-107901120D01*
X102899611Y-108359629D01*
X102737010Y-108357514D01*
X102574409Y-108355398D01*
X102442775Y-108124915D01*
X102404012Y-108057117D01*
X102361003Y-107982018D01*
X102316115Y-107903745D01*
X102271718Y-107826425D01*
X102230180Y-107754187D01*
X102193869Y-107691157D01*
X102191959Y-107687846D01*
X102072777Y-107481260D01*
X102070759Y-107924189D01*
X102068742Y-108367117D01*
X101932351Y-108367117D01*
X101795961Y-108367117D01*
X101797063Y-107675669D01*
X101798165Y-106984220D01*
X101945106Y-106984220D01*
X102092046Y-106984220D01*
X102112581Y-107024743D01*
G37*
G36*
X101368390Y-110904383D02*
G01*
X101369435Y-110928066D01*
X101370408Y-110965390D01*
X101371288Y-111014370D01*
X101372050Y-111073019D01*
X101372672Y-111139353D01*
X101373132Y-111211387D01*
X101373405Y-111287135D01*
X101373475Y-111345816D01*
X101373515Y-111711073D01*
X101441879Y-111711073D01*
X101510243Y-111711073D01*
X101510243Y-111816548D01*
X101510243Y-111922024D01*
X101441879Y-111922024D01*
X101373515Y-111922024D01*
X101373515Y-112047031D01*
X101373515Y-112172039D01*
X101252414Y-112172039D01*
X101131313Y-112172039D01*
X101131313Y-112047031D01*
X101131313Y-111922024D01*
X100818794Y-111922024D01*
X100506275Y-111922024D01*
X100506275Y-111818758D01*
X100506275Y-111715493D01*
X100508925Y-111711073D01*
X100809706Y-111711073D01*
X100970510Y-111711073D01*
X101131313Y-111711073D01*
X101131284Y-111431759D01*
X101131255Y-111152445D01*
X101114542Y-111179790D01*
X101106699Y-111193100D01*
X101092208Y-111218166D01*
X101072122Y-111253147D01*
X101047494Y-111296203D01*
X101019377Y-111345495D01*
X100988825Y-111399181D01*
X100969209Y-111433712D01*
X100937748Y-111489080D01*
X100908137Y-111541091D01*
X100881416Y-111587925D01*
X100858627Y-111627762D01*
X100840809Y-111658780D01*
X100829005Y-111679161D01*
X100825147Y-111685681D01*
X100809706Y-111711073D01*
X100508925Y-111711073D01*
X100772250Y-111271849D01*
X101038226Y-110828206D01*
X101200786Y-110828206D01*
X101363346Y-110828206D01*
X101368390Y-110904383D01*
G37*
G36*
X99968539Y-110812878D02*
G01*
X100018234Y-110817607D01*
X100053122Y-110824177D01*
X100128436Y-110851375D01*
X100195272Y-110891076D01*
X100252472Y-110941980D01*
X100298876Y-111002784D01*
X100333325Y-111072186D01*
X100354659Y-111148885D01*
X100357384Y-111165935D01*
X100362115Y-111244030D01*
X100353415Y-111318510D01*
X100330750Y-111391549D01*
X100293591Y-111465322D01*
X100278172Y-111490022D01*
X100257852Y-111517505D01*
X100227296Y-111553828D01*
X100187969Y-111597473D01*
X100141334Y-111646922D01*
X100088856Y-111700657D01*
X100031999Y-111757159D01*
X99972226Y-111814912D01*
X99911002Y-111872396D01*
X99896862Y-111885426D01*
X99814826Y-111960747D01*
X100094140Y-111960918D01*
X100373454Y-111961088D01*
X100373454Y-112066564D01*
X100373454Y-112172039D01*
X99924208Y-112172039D01*
X99474961Y-112172039D01*
X99474961Y-112072471D01*
X99474961Y-111972904D01*
X99704451Y-111742373D01*
X99777018Y-111669201D01*
X99839185Y-111605854D01*
X99891833Y-111551348D01*
X99935845Y-111504696D01*
X99972102Y-111464912D01*
X100001486Y-111431010D01*
X100024878Y-111402003D01*
X100043160Y-111376906D01*
X100057213Y-111354733D01*
X100066526Y-111337377D01*
X100077338Y-111313315D01*
X100083877Y-111291609D01*
X100087169Y-111266798D01*
X100088239Y-111233419D01*
X100088280Y-111221482D01*
X100087913Y-111186745D01*
X100086129Y-111163058D01*
X100081906Y-111145849D01*
X100074221Y-111130548D01*
X100064770Y-111116433D01*
X100031817Y-111081038D01*
X99990751Y-111057899D01*
X99940286Y-111046419D01*
X99910851Y-111044863D01*
X99854979Y-111050412D01*
X99809201Y-111067835D01*
X99773370Y-111097263D01*
X99747334Y-111138830D01*
X99730945Y-111192669D01*
X99728519Y-111206837D01*
X99723202Y-111242294D01*
X99588655Y-111242294D01*
X99454108Y-111242294D01*
X99460629Y-111193463D01*
X99478751Y-111107965D01*
X99508741Y-111031838D01*
X99550086Y-110965700D01*
X99602269Y-110910171D01*
X99664776Y-110865870D01*
X99737091Y-110833416D01*
X99767948Y-110824076D01*
X99808025Y-110816755D01*
X99858264Y-110812450D01*
X99913492Y-110811158D01*
X99968539Y-110812878D01*
G37*
G36*
X102776077Y-110851044D02*
G01*
X102772860Y-110862352D01*
X102765277Y-110887241D01*
X102753741Y-110924418D01*
X102738662Y-110972587D01*
X102720452Y-111030452D01*
X102699524Y-111096717D01*
X102676289Y-111170089D01*
X102651158Y-111249270D01*
X102624544Y-111332967D01*
X102596858Y-111419883D01*
X102568512Y-111508723D01*
X102539917Y-111598192D01*
X102511485Y-111686995D01*
X102483629Y-111773835D01*
X102456759Y-111857419D01*
X102431287Y-111936449D01*
X102419149Y-111974025D01*
X102355128Y-112172039D01*
X102216367Y-112172039D01*
X102171378Y-112171661D01*
X102131979Y-112170610D01*
X102100757Y-112169016D01*
X102080297Y-112167004D01*
X102073250Y-112164990D01*
X102070317Y-112156964D01*
X102062853Y-112135429D01*
X102051287Y-112101666D01*
X102036053Y-112056956D01*
X102017582Y-112002579D01*
X101996304Y-111939817D01*
X101972653Y-111869950D01*
X101947059Y-111794257D01*
X101919955Y-111714021D01*
X101891771Y-111630522D01*
X101862939Y-111545041D01*
X101833892Y-111458857D01*
X101805060Y-111373252D01*
X101776875Y-111289507D01*
X101749770Y-111208902D01*
X101724175Y-111132718D01*
X101700522Y-111062235D01*
X101679242Y-110998734D01*
X101660768Y-110943496D01*
X101645531Y-110897802D01*
X101633963Y-110862932D01*
X101626495Y-110840166D01*
X101623559Y-110830786D01*
X101623531Y-110830630D01*
X101630937Y-110829862D01*
X101651525Y-110829195D01*
X101682854Y-110828669D01*
X101722480Y-110828326D01*
X101766770Y-110828206D01*
X101910010Y-110828206D01*
X101933822Y-110908289D01*
X101940731Y-110931513D01*
X101951569Y-110967933D01*
X101965807Y-111015768D01*
X101982914Y-111073237D01*
X102002361Y-111138561D01*
X102023617Y-111209958D01*
X102046153Y-111285649D01*
X102069438Y-111363852D01*
X102075118Y-111382928D01*
X102097842Y-111459298D01*
X102119393Y-111531832D01*
X102139324Y-111599018D01*
X102157188Y-111659344D01*
X102172538Y-111711299D01*
X102184929Y-111753373D01*
X102193911Y-111784053D01*
X102199040Y-111801828D01*
X102199870Y-111804829D01*
X102207139Y-111832174D01*
X102215194Y-111804829D01*
X102228973Y-111757849D01*
X102246165Y-111698922D01*
X102266041Y-111630563D01*
X102287877Y-111555285D01*
X102310945Y-111475605D01*
X102334520Y-111394037D01*
X102357874Y-111313096D01*
X102380282Y-111235297D01*
X102401016Y-111163155D01*
X102419351Y-111099185D01*
X102434560Y-111045901D01*
X102443124Y-111015718D01*
X102495019Y-110832113D01*
X102638096Y-110829981D01*
X102781172Y-110827849D01*
X102776077Y-110851044D01*
G37*
G36*
X101022069Y-108957510D02*
G01*
X101043361Y-108969525D01*
X101071641Y-108987276D01*
X101104183Y-109008902D01*
X101138261Y-109032541D01*
X101171151Y-109056334D01*
X101200127Y-109078417D01*
X101222463Y-109096932D01*
X101226419Y-109100531D01*
X101279760Y-109150308D01*
X101279760Y-109293795D01*
X101279760Y-109437282D01*
X101535635Y-109439342D01*
X101791510Y-109441402D01*
X101793726Y-109525285D01*
X101795943Y-109609167D01*
X101539804Y-109611227D01*
X101283666Y-109613288D01*
X101281534Y-109751537D01*
X101279403Y-109889787D01*
X101214192Y-109946952D01*
X101188261Y-109968711D01*
X101157295Y-109993206D01*
X101123870Y-110018573D01*
X101090563Y-110042951D01*
X101059953Y-110064477D01*
X101034616Y-110081291D01*
X101017130Y-110091529D01*
X101010956Y-110093786D01*
X101009809Y-110086286D01*
X101008765Y-110065039D01*
X101007860Y-110031924D01*
X101007130Y-109988819D01*
X101006610Y-109937602D01*
X101006338Y-109880153D01*
X101006305Y-109851584D01*
X101006305Y-109609381D01*
X100512134Y-109609477D01*
X100017963Y-109609572D01*
X99959366Y-109635446D01*
X99931104Y-109648314D01*
X99890963Y-109667141D01*
X99841041Y-109690904D01*
X99783439Y-109718582D01*
X99720257Y-109749152D01*
X99653593Y-109781591D01*
X99585548Y-109814876D01*
X99518222Y-109847986D01*
X99453714Y-109879898D01*
X99394124Y-109909589D01*
X99341552Y-109936037D01*
X99328468Y-109942674D01*
X99185881Y-110015170D01*
X99185881Y-109812276D01*
X99185881Y-109609381D01*
X98795232Y-109609381D01*
X98404583Y-109609381D01*
X98404583Y-109523439D01*
X98404583Y-109437496D01*
X98795232Y-109437496D01*
X99185881Y-109437496D01*
X99185881Y-109242171D01*
X99186120Y-109188781D01*
X99186792Y-109140955D01*
X99187830Y-109100785D01*
X99189167Y-109070363D01*
X99190736Y-109051782D01*
X99192131Y-109046847D01*
X99203049Y-109051531D01*
X99205804Y-109053788D01*
X99214089Y-109058369D01*
X99234960Y-109068861D01*
X99266865Y-109084522D01*
X99308251Y-109104612D01*
X99357564Y-109128390D01*
X99413251Y-109155114D01*
X99473760Y-109184045D01*
X99537538Y-109214440D01*
X99603031Y-109245559D01*
X99668687Y-109276661D01*
X99732952Y-109307005D01*
X99794274Y-109335850D01*
X99851100Y-109362455D01*
X99901876Y-109386079D01*
X99913966Y-109391674D01*
X100013107Y-109437496D01*
X100509706Y-109437496D01*
X101006305Y-109437496D01*
X101006305Y-109195293D01*
X101006435Y-109135568D01*
X101006802Y-109081193D01*
X101007374Y-109034048D01*
X101008119Y-108996012D01*
X101009004Y-108968962D01*
X101009997Y-108954778D01*
X101010491Y-108953091D01*
X101022069Y-108957510D01*
G37*
G36*
X97656490Y-106986588D02*
G01*
X97747614Y-106987491D01*
X97824841Y-106988435D01*
X97889898Y-106989557D01*
X97944512Y-106990995D01*
X97990412Y-106992887D01*
X98029326Y-106995371D01*
X98062981Y-106998585D01*
X98093105Y-107002668D01*
X98121427Y-107007755D01*
X98149673Y-107013987D01*
X98179572Y-107021501D01*
X98212852Y-107030434D01*
X98215826Y-107031245D01*
X98279982Y-107052801D01*
X98347668Y-107082645D01*
X98415204Y-107118624D01*
X98478907Y-107158584D01*
X98535095Y-107200370D01*
X98580087Y-107241828D01*
X98585124Y-107247307D01*
X98627095Y-107300204D01*
X98668490Y-107363535D01*
X98706461Y-107432277D01*
X98738158Y-107501402D01*
X98754901Y-107546754D01*
X98778415Y-107635662D01*
X98794979Y-107734589D01*
X98804409Y-107839469D01*
X98806518Y-107946235D01*
X98801120Y-108050819D01*
X98788030Y-108149155D01*
X98783527Y-108172317D01*
X98756850Y-108276807D01*
X98722352Y-108369379D01*
X98678879Y-108452247D01*
X98625278Y-108527623D01*
X98563457Y-108594763D01*
X98491476Y-108656983D01*
X98413755Y-108708719D01*
X98327985Y-108751157D01*
X98231858Y-108785482D01*
X98150661Y-108806826D01*
X98133891Y-108810466D01*
X98116992Y-108813540D01*
X98098464Y-108816107D01*
X98076808Y-108818230D01*
X98050523Y-108819969D01*
X98018109Y-108821386D01*
X97978068Y-108822542D01*
X97928898Y-108823498D01*
X97869100Y-108824315D01*
X97797174Y-108825054D01*
X97711621Y-108825777D01*
X97679929Y-108826024D01*
X97279514Y-108829102D01*
X97279514Y-107906069D01*
X97279514Y-107310437D01*
X97629243Y-107310437D01*
X97632346Y-107899328D01*
X97632924Y-107994014D01*
X97633626Y-108084243D01*
X97634435Y-108168783D01*
X97635331Y-108246404D01*
X97636295Y-108315873D01*
X97637309Y-108375959D01*
X97638353Y-108425430D01*
X97639409Y-108463054D01*
X97640457Y-108487601D01*
X97641479Y-108497838D01*
X97641548Y-108497985D01*
X97651608Y-108501843D01*
X97674646Y-108504782D01*
X97708039Y-108506817D01*
X97749167Y-108507960D01*
X97795408Y-108508226D01*
X97844141Y-108507627D01*
X97892745Y-108506178D01*
X97938599Y-108503891D01*
X97979082Y-108500781D01*
X98011572Y-108496860D01*
X98016480Y-108496050D01*
X98089242Y-108479484D01*
X98149635Y-108457011D01*
X98196475Y-108430275D01*
X98258402Y-108378114D01*
X98309932Y-108314418D01*
X98350993Y-108239380D01*
X98381514Y-108153194D01*
X98401423Y-108056052D01*
X98410649Y-107948149D01*
X98410226Y-107852622D01*
X98400416Y-107746600D01*
X98380018Y-107651854D01*
X98349085Y-107568464D01*
X98307670Y-107496508D01*
X98255825Y-107436067D01*
X98193602Y-107387219D01*
X98121055Y-107350043D01*
X98064718Y-107331160D01*
X98043640Y-107326601D01*
X98015988Y-107322898D01*
X97979845Y-107319916D01*
X97933290Y-107317523D01*
X97874406Y-107315585D01*
X97823541Y-107314401D01*
X97629243Y-107310437D01*
X97279514Y-107310437D01*
X97279514Y-106983036D01*
X97656490Y-106986588D01*
G37*
G36*
X99937166Y-106964344D02*
G01*
X100012963Y-106974374D01*
X100088470Y-106989881D01*
X100159156Y-107009878D01*
X100220490Y-107033374D01*
X100238973Y-107042274D01*
X100320812Y-107091490D01*
X100394325Y-107149955D01*
X100457701Y-107215796D01*
X100509131Y-107287137D01*
X100546022Y-107360149D01*
X100558772Y-107395160D01*
X100570964Y-107434328D01*
X100581382Y-107473091D01*
X100588812Y-107506887D01*
X100592037Y-107531152D01*
X100592083Y-107533082D01*
X100592217Y-107554567D01*
X100400799Y-107554567D01*
X100341110Y-107554497D01*
X100295243Y-107554199D01*
X100261397Y-107553546D01*
X100237768Y-107552408D01*
X100222555Y-107550657D01*
X100213955Y-107548164D01*
X100210164Y-107544800D01*
X100209375Y-107540895D01*
X100204719Y-107519884D01*
X100192235Y-107490853D01*
X100174130Y-107457762D01*
X100152611Y-107424569D01*
X100129883Y-107395233D01*
X100125374Y-107390163D01*
X100077805Y-107346170D01*
X100025686Y-107314260D01*
X99966914Y-107293664D01*
X99899386Y-107283616D01*
X99831509Y-107282871D01*
X99771357Y-107287437D01*
X99721715Y-107296949D01*
X99677842Y-107312954D01*
X99634997Y-107337001D01*
X99607970Y-107355815D01*
X99553815Y-107405065D01*
X99507251Y-107466926D01*
X99469158Y-107539899D01*
X99440412Y-107622482D01*
X99432108Y-107656136D01*
X99426000Y-107693328D01*
X99420990Y-107742429D01*
X99417188Y-107799751D01*
X99414705Y-107861609D01*
X99413653Y-107924315D01*
X99414143Y-107984185D01*
X99416286Y-108037530D01*
X99419478Y-108074888D01*
X99435400Y-108173596D01*
X99458677Y-108259039D01*
X99489567Y-108331876D01*
X99528329Y-108392764D01*
X99557387Y-108425764D01*
X99613524Y-108471248D01*
X99678541Y-108505760D01*
X99749459Y-108528505D01*
X99823302Y-108538690D01*
X99897093Y-108535521D01*
X99938323Y-108527349D01*
X100007519Y-108501754D01*
X100069779Y-108463730D01*
X100123376Y-108415083D01*
X100166586Y-108357619D01*
X100197683Y-108293147D01*
X100212147Y-108240604D01*
X100220769Y-108195232D01*
X100405410Y-108195232D01*
X100590050Y-108195232D01*
X100586900Y-108216718D01*
X100574070Y-108292593D01*
X100559152Y-108356913D01*
X100540997Y-108413719D01*
X100518456Y-108467052D01*
X100511956Y-108480406D01*
X100460188Y-108567032D01*
X100396445Y-108644080D01*
X100321618Y-108710844D01*
X100236596Y-108766615D01*
X100142270Y-108810686D01*
X100064841Y-108835936D01*
X100022599Y-108844459D01*
X99969046Y-108850917D01*
X99908376Y-108855191D01*
X99844783Y-108857157D01*
X99782461Y-108856696D01*
X99725604Y-108853684D01*
X99678406Y-108848002D01*
X99674192Y-108847247D01*
X99572004Y-108821761D01*
X99475845Y-108784912D01*
X99388538Y-108737892D01*
X99345346Y-108708152D01*
X99274270Y-108645254D01*
X99210744Y-108569637D01*
X99155473Y-108482634D01*
X99109165Y-108385574D01*
X99072526Y-108279788D01*
X99046262Y-108166607D01*
X99041073Y-108135158D01*
X99035501Y-108086114D01*
X99031503Y-108025786D01*
X99029119Y-107958436D01*
X99028387Y-107888331D01*
X99029347Y-107819735D01*
X99032037Y-107756913D01*
X99036496Y-107704130D01*
X99037098Y-107699108D01*
X99054224Y-107600005D01*
X99080063Y-107504415D01*
X99113471Y-107415675D01*
X99153303Y-107337123D01*
X99170808Y-107309258D01*
X99202935Y-107266604D01*
X99243737Y-107220171D01*
X99288719Y-107174593D01*
X99333388Y-107134504D01*
X99361673Y-107112467D01*
X99437162Y-107066243D01*
X99523588Y-107027083D01*
X99617466Y-106996034D01*
X99715310Y-106974147D01*
X99813636Y-106962471D01*
X99865610Y-106960781D01*
X99937166Y-106964344D01*
G37*
G36*
X98075463Y-110814134D02*
G01*
X98119539Y-110819327D01*
X98142212Y-110824078D01*
X98218254Y-110852338D01*
X98286224Y-110893877D01*
X98345500Y-110948240D01*
X98389236Y-111005187D01*
X98424797Y-111066063D01*
X98452885Y-111129339D01*
X98474187Y-111197632D01*
X98489389Y-111273562D01*
X98499177Y-111359746D01*
X98503708Y-111441686D01*
X98504704Y-111549667D01*
X98499477Y-111645571D01*
X98487621Y-111731824D01*
X98468730Y-111810854D01*
X98442399Y-111885085D01*
X98422123Y-111929837D01*
X98377895Y-112004054D01*
X98323682Y-112067784D01*
X98260816Y-112119899D01*
X98190629Y-112159273D01*
X98123315Y-112182628D01*
X98075535Y-112191604D01*
X98019714Y-112197215D01*
X97963165Y-112199006D01*
X97913201Y-112196523D01*
X97908459Y-112195974D01*
X97834951Y-112181142D01*
X97767736Y-112156260D01*
X97709362Y-112122562D01*
X97662376Y-112081280D01*
X97655686Y-112073575D01*
X97636248Y-112046240D01*
X97616038Y-112011465D01*
X97597836Y-111974703D01*
X97584419Y-111941407D01*
X97579552Y-111924076D01*
X97574981Y-111901220D01*
X97687029Y-111888143D01*
X97738870Y-111882224D01*
X97777167Y-111878244D01*
X97803873Y-111876115D01*
X97820938Y-111875752D01*
X97830313Y-111877069D01*
X97833950Y-111879980D01*
X97834235Y-111881657D01*
X97840422Y-111894026D01*
X97856396Y-111910808D01*
X97878278Y-111928838D01*
X97902187Y-111944953D01*
X97924243Y-111955990D01*
X97926337Y-111956741D01*
X97980656Y-111967491D01*
X98034386Y-111963728D01*
X98085215Y-111946471D01*
X98130827Y-111916737D01*
X98168910Y-111875544D01*
X98189595Y-111840954D01*
X98203637Y-111804920D01*
X98216247Y-111759430D01*
X98226081Y-111710654D01*
X98231796Y-111664762D01*
X98232697Y-111642980D01*
X98232697Y-111607514D01*
X98197037Y-111640385D01*
X98171990Y-111660054D01*
X98139132Y-111681332D01*
X98105124Y-111699943D01*
X98101600Y-111701643D01*
X98069052Y-111716158D01*
X98042038Y-111725118D01*
X98013870Y-111730132D01*
X97977861Y-111732812D01*
X97970785Y-111733137D01*
X97890336Y-111731003D01*
X97818822Y-111716738D01*
X97754654Y-111689761D01*
X97696243Y-111649490D01*
X97666256Y-111621729D01*
X97616491Y-111560807D01*
X97579560Y-111491748D01*
X97555295Y-111414094D01*
X97543523Y-111327389D01*
X97542270Y-111289172D01*
X97543010Y-111260283D01*
X97804385Y-111260283D01*
X97805073Y-111297551D01*
X97815502Y-111362663D01*
X97837102Y-111416909D01*
X97869844Y-111460241D01*
X97913700Y-111492613D01*
X97923765Y-111497750D01*
X97949246Y-111508352D01*
X97972901Y-111513450D01*
X98001804Y-111514229D01*
X98017840Y-111513519D01*
X98049893Y-111510020D01*
X98079252Y-111503926D01*
X98097818Y-111497330D01*
X98137905Y-111470569D01*
X98173228Y-111436030D01*
X98196046Y-111403200D01*
X98203707Y-111386831D01*
X98208714Y-111369448D01*
X98211601Y-111347242D01*
X98212904Y-111316404D01*
X98213165Y-111281359D01*
X98212806Y-111240762D01*
X98211343Y-111211854D01*
X98208196Y-111190708D01*
X98202787Y-111173396D01*
X98194726Y-111156351D01*
X98164305Y-111108627D01*
X98129441Y-111074976D01*
X98087843Y-111053993D01*
X98037217Y-111044274D01*
X98010027Y-111043198D01*
X97976114Y-111043854D01*
X97952057Y-111046833D01*
X97932123Y-111053390D01*
X97910579Y-111064780D01*
X97910082Y-111065071D01*
X97866202Y-111099547D01*
X97833660Y-111144235D01*
X97812905Y-111198145D01*
X97804385Y-111260283D01*
X97543010Y-111260283D01*
X97543803Y-111229305D01*
X97550054Y-111178646D01*
X97562351Y-111131149D01*
X97582020Y-111080768D01*
X97593518Y-111055781D01*
X97634637Y-110987141D01*
X97687571Y-110927541D01*
X97750452Y-110878475D01*
X97821411Y-110841436D01*
X97888103Y-110820196D01*
X97925800Y-110814490D01*
X97973193Y-110811633D01*
X98024881Y-110811541D01*
X98075463Y-110814134D01*
G37*
G36*
X103092371Y-106279009D02*
G01*
X103182152Y-106310095D01*
X103263835Y-106353393D01*
X103336307Y-106407796D01*
X103398456Y-106472200D01*
X103449167Y-106545499D01*
X103487328Y-106626588D01*
X103506701Y-106690400D01*
X103508087Y-106696405D01*
X103509388Y-106702705D01*
X103510605Y-106709793D01*
X103511741Y-106718160D01*
X103512799Y-106728297D01*
X103513780Y-106740696D01*
X103514688Y-106755848D01*
X103515524Y-106774245D01*
X103516291Y-106796377D01*
X103516991Y-106822737D01*
X103517627Y-106853815D01*
X103518201Y-106890103D01*
X103518714Y-106932092D01*
X103519170Y-106980275D01*
X103519572Y-107035141D01*
X103519920Y-107097183D01*
X103520218Y-107166891D01*
X103520468Y-107244758D01*
X103520672Y-107331275D01*
X103520833Y-107426932D01*
X103520953Y-107532222D01*
X103521034Y-107647636D01*
X103521078Y-107773665D01*
X103521089Y-107910800D01*
X103521068Y-108059533D01*
X103521018Y-108220356D01*
X103520941Y-108393759D01*
X103520839Y-108580234D01*
X103520715Y-108780273D01*
X103520571Y-108994367D01*
X103520410Y-109223006D01*
X103520233Y-109466683D01*
X103520197Y-109516619D01*
X103518179Y-112277514D01*
X103496893Y-112340018D01*
X103467370Y-112412330D01*
X103429806Y-112476893D01*
X103381300Y-112538321D01*
X103354106Y-112567211D01*
X103287168Y-112627031D01*
X103216121Y-112673851D01*
X103136841Y-112710296D01*
X103119717Y-112716543D01*
X103057213Y-112738480D01*
X100096093Y-112740029D01*
X99840137Y-112740161D01*
X99599336Y-112740280D01*
X99373217Y-112740385D01*
X99161310Y-112740472D01*
X98963142Y-112740540D01*
X98778242Y-112740588D01*
X98606139Y-112740612D01*
X98446361Y-112740611D01*
X98298437Y-112740583D01*
X98161894Y-112740526D01*
X98036262Y-112740438D01*
X97921068Y-112740316D01*
X97815842Y-112740159D01*
X97720111Y-112739966D01*
X97633405Y-112739732D01*
X97555250Y-112739458D01*
X97485177Y-112739140D01*
X97422713Y-112738777D01*
X97367388Y-112738366D01*
X97318728Y-112737906D01*
X97276263Y-112737395D01*
X97239521Y-112736830D01*
X97208031Y-112736210D01*
X97181320Y-112735532D01*
X97158919Y-112734795D01*
X97140354Y-112733996D01*
X97125154Y-112733133D01*
X97112848Y-112732205D01*
X97102964Y-112731209D01*
X97095031Y-112730144D01*
X97088577Y-112729007D01*
X97083131Y-112727796D01*
X97080283Y-112727068D01*
X96988674Y-112694957D01*
X96904959Y-112649836D01*
X96830205Y-112592749D01*
X96765477Y-112524741D01*
X96711843Y-112446857D01*
X96670369Y-112360142D01*
X96652913Y-112308324D01*
X96634943Y-112246262D01*
X96634943Y-110507872D01*
X96838080Y-110507872D01*
X96840196Y-111349207D01*
X96840538Y-111486539D01*
X96840864Y-111609165D01*
X96841222Y-111718006D01*
X96841658Y-111813983D01*
X96842219Y-111898017D01*
X96842952Y-111971027D01*
X96843903Y-112033934D01*
X96845120Y-112087660D01*
X96846648Y-112133124D01*
X96848536Y-112171246D01*
X96850828Y-112202949D01*
X96853573Y-112229151D01*
X96856817Y-112250773D01*
X96860606Y-112268737D01*
X96864988Y-112283962D01*
X96870009Y-112297370D01*
X96875716Y-112309880D01*
X96882156Y-112322413D01*
X96889375Y-112335890D01*
X96890393Y-112337797D01*
X96932276Y-112400244D01*
X96985318Y-112452376D01*
X97048277Y-112493387D01*
X97119910Y-112522468D01*
X97198974Y-112538811D01*
X97199601Y-112538884D01*
X97211246Y-112539340D01*
X97237955Y-112539791D01*
X97279164Y-112540235D01*
X97334312Y-112540673D01*
X97402834Y-112541101D01*
X97484170Y-112541520D01*
X97577755Y-112541927D01*
X97683028Y-112542322D01*
X97799425Y-112542702D01*
X97926384Y-112543067D01*
X98063343Y-112543415D01*
X98209738Y-112543746D01*
X98365008Y-112544056D01*
X98528589Y-112544346D01*
X98699918Y-112544614D01*
X98878434Y-112544859D01*
X99063573Y-112545078D01*
X99254772Y-112545272D01*
X99451470Y-112545438D01*
X99653103Y-112545575D01*
X99859109Y-112545682D01*
X100068925Y-112545757D01*
X100088280Y-112545763D01*
X100343701Y-112545823D01*
X100583949Y-112545864D01*
X100809477Y-112545884D01*
X101020738Y-112545881D01*
X101218185Y-112545854D01*
X101402272Y-112545800D01*
X101573450Y-112545720D01*
X101732173Y-112545610D01*
X101878894Y-112545469D01*
X102014066Y-112545296D01*
X102138141Y-112545089D01*
X102251574Y-112544847D01*
X102354817Y-112544567D01*
X102448322Y-112544250D01*
X102532544Y-112543892D01*
X102607934Y-112543492D01*
X102674946Y-112543049D01*
X102734033Y-112542561D01*
X102785648Y-112542026D01*
X102830244Y-112541444D01*
X102868273Y-112540812D01*
X102900190Y-112540128D01*
X102926446Y-112539392D01*
X102947495Y-112538602D01*
X102963789Y-112537755D01*
X102975782Y-112536851D01*
X102983928Y-112535888D01*
X102985232Y-112535671D01*
X103023772Y-112526689D01*
X103064763Y-112513866D01*
X103097052Y-112500969D01*
X103144647Y-112472731D01*
X103191977Y-112434180D01*
X103234355Y-112389749D01*
X103267096Y-112343872D01*
X103271568Y-112335871D01*
X103278755Y-112322400D01*
X103285172Y-112309847D01*
X103290862Y-112297292D01*
X103295869Y-112283818D01*
X103300237Y-112268505D01*
X103304009Y-112250435D01*
X103307229Y-112228687D01*
X103309942Y-112202345D01*
X103312191Y-112170488D01*
X103314020Y-112132198D01*
X103315472Y-112086556D01*
X103316593Y-112032644D01*
X103317424Y-111969541D01*
X103318011Y-111896330D01*
X103318398Y-111812092D01*
X103318627Y-111715907D01*
X103318743Y-111606858D01*
X103318790Y-111484024D01*
X103318812Y-111346487D01*
X103318812Y-111345816D01*
X103318948Y-110507874D01*
X100078514Y-110507873D01*
X96838080Y-110507872D01*
X96634943Y-110507872D01*
X96634943Y-110304737D01*
X96834711Y-110304737D01*
X100078782Y-110304737D01*
X103322854Y-110304737D01*
X103318854Y-108533144D01*
X103318386Y-108331679D01*
X103317923Y-108145285D01*
X103317461Y-107973409D01*
X103316996Y-107815495D01*
X103316522Y-107670989D01*
X103316036Y-107539337D01*
X103315533Y-107419984D01*
X103315008Y-107312376D01*
X103314457Y-107215958D01*
X103313876Y-107130176D01*
X103313260Y-107054475D01*
X103312605Y-106988301D01*
X103311906Y-106931100D01*
X103311158Y-106882316D01*
X103310358Y-106841396D01*
X103309501Y-106807785D01*
X103308581Y-106780928D01*
X103307596Y-106760271D01*
X103306540Y-106745261D01*
X103305409Y-106735341D01*
X103304319Y-106730298D01*
X103272746Y-106659366D01*
X103229272Y-106598556D01*
X103173935Y-106547901D01*
X103106769Y-106507436D01*
X103055946Y-106486318D01*
X102994709Y-106464657D01*
X100103906Y-106462498D01*
X99847618Y-106462299D01*
X99606483Y-106462102D01*
X99380027Y-106461914D01*
X99167777Y-106461741D01*
X98969260Y-106461592D01*
X98784003Y-106461473D01*
X98611533Y-106461391D01*
X98451375Y-106461355D01*
X98303058Y-106461370D01*
X98166108Y-106461445D01*
X98040051Y-106461586D01*
X97924414Y-106461800D01*
X97818724Y-106462096D01*
X97722508Y-106462479D01*
X97635293Y-106462958D01*
X97556605Y-106463539D01*
X97485971Y-106464230D01*
X97422917Y-106465038D01*
X97366971Y-106465970D01*
X97317660Y-106467033D01*
X97274510Y-106468235D01*
X97237047Y-106469582D01*
X97204799Y-106471082D01*
X97177292Y-106472743D01*
X97154053Y-106474570D01*
X97134610Y-106476572D01*
X97118487Y-106478756D01*
X97105213Y-106481129D01*
X97094315Y-106483699D01*
X97085318Y-106486471D01*
X97077749Y-106489454D01*
X97071136Y-106492655D01*
X97065005Y-106496081D01*
X97058883Y-106499739D01*
X97052297Y-106503636D01*
X97044773Y-106507780D01*
X97042141Y-106509134D01*
X96985645Y-106545954D01*
X96935670Y-106594884D01*
X96894386Y-106653024D01*
X96863965Y-106717476D01*
X96850156Y-106765456D01*
X96849054Y-106775061D01*
X96848015Y-106793428D01*
X96847038Y-106820967D01*
X96846119Y-106858089D01*
X96845255Y-106905203D01*
X96844443Y-106962719D01*
X96843682Y-107031048D01*
X96842967Y-107110598D01*
X96842296Y-107201781D01*
X96841667Y-107305006D01*
X96841076Y-107420683D01*
X96840521Y-107549223D01*
X96839999Y-107691034D01*
X96839507Y-107846528D01*
X96839042Y-108016114D01*
X96838601Y-108200201D01*
X96838182Y-108399201D01*
X96837884Y-108556582D01*
X96834711Y-110304737D01*
X96634943Y-110304737D01*
X96634943Y-109500000D01*
X96634945Y-109253525D01*
X96634955Y-109022187D01*
X96634973Y-108805496D01*
X96635004Y-108602963D01*
X96635049Y-108414098D01*
X96635110Y-108238412D01*
X96635190Y-108075416D01*
X96635292Y-107924620D01*
X96635417Y-107785535D01*
X96635569Y-107657671D01*
X96635750Y-107540539D01*
X96635961Y-107433650D01*
X96636207Y-107336515D01*
X96636488Y-107248643D01*
X96636808Y-107169545D01*
X96637169Y-107098733D01*
X96637573Y-107035717D01*
X96638023Y-106980006D01*
X96638521Y-106931113D01*
X96639070Y-106888547D01*
X96639671Y-106851820D01*
X96640329Y-106820441D01*
X96641044Y-106793921D01*
X96641820Y-106771772D01*
X96642658Y-106753502D01*
X96643562Y-106738625D01*
X96644533Y-106726649D01*
X96645575Y-106717085D01*
X96646689Y-106709444D01*
X96647877Y-106703237D01*
X96648866Y-106699046D01*
X96679227Y-106610629D01*
X96722929Y-106529115D01*
X96778755Y-106455730D01*
X96845487Y-106391704D01*
X96921907Y-106338265D01*
X97006798Y-106296640D01*
X97068563Y-106275761D01*
X97073381Y-106274528D01*
X97079090Y-106273368D01*
X97086161Y-106272279D01*
X97095065Y-106271259D01*
X97106273Y-106270305D01*
X97120256Y-106269416D01*
X97137486Y-106268588D01*
X97158434Y-106267820D01*
X97183572Y-106267110D01*
X97213369Y-106266455D01*
X97248298Y-106265854D01*
X97288829Y-106265303D01*
X97335435Y-106264800D01*
X97388585Y-106264344D01*
X97448752Y-106263932D01*
X97516407Y-106263562D01*
X97592020Y-106263232D01*
X97676063Y-106262939D01*
X97769007Y-106262682D01*
X97871323Y-106262457D01*
X97983483Y-106262263D01*
X98105958Y-106262098D01*
X98239219Y-106261959D01*
X98383736Y-106261843D01*
X98539982Y-106261750D01*
X98708428Y-106261676D01*
X98889545Y-106261620D01*
X99083803Y-106261578D01*
X99291675Y-106261550D01*
X99513630Y-106261532D01*
X99750142Y-106261523D01*
X100001680Y-106261519D01*
X100072654Y-106261519D01*
X103025961Y-106261519D01*
X103092371Y-106279009D01*
G37*
G36*
X90156950Y-101121805D02*
G01*
X90156950Y-101499103D01*
X90114237Y-101499103D01*
X90071524Y-101499103D01*
X90071524Y-101121805D01*
X90071524Y-100744507D01*
X90114237Y-100744507D01*
X90156950Y-100744507D01*
X90156950Y-101121805D01*
G37*
G36*
X90060846Y-92731357D02*
G01*
X90107119Y-92735819D01*
X90111130Y-92903111D01*
X90115141Y-93070404D01*
X90278422Y-93070404D01*
X90441704Y-93070404D01*
X90441704Y-93110744D01*
X90438654Y-93143352D01*
X90432212Y-93160576D01*
X90414898Y-93164441D01*
X90375387Y-93167548D01*
X90319953Y-93169532D01*
X90268479Y-93170067D01*
X90114237Y-93170067D01*
X90114237Y-93333801D01*
X90114237Y-93497534D01*
X90064406Y-93497534D01*
X90014574Y-93497534D01*
X90014574Y-93333801D01*
X90014574Y-93170067D01*
X89843722Y-93170067D01*
X89672870Y-93170067D01*
X89672870Y-93120236D01*
X89672870Y-93070404D01*
X89843722Y-93070404D01*
X90014574Y-93070404D01*
X90014574Y-92898650D01*
X90014574Y-92726896D01*
X90060846Y-92731357D01*
G37*
G36*
X90299996Y-92027358D02*
G01*
X90462003Y-92069228D01*
X90616241Y-92136024D01*
X90760131Y-92226564D01*
X90891094Y-92339664D01*
X91006552Y-92474141D01*
X91035586Y-92515221D01*
X91107887Y-92642660D01*
X91162632Y-92786439D01*
X91201253Y-92950411D01*
X91204725Y-92970740D01*
X91216592Y-93050849D01*
X91221833Y-93115057D01*
X91220383Y-93175171D01*
X91212177Y-93242998D01*
X91202945Y-93298206D01*
X91163333Y-93464825D01*
X91105557Y-93612798D01*
X91026780Y-93747478D01*
X90924164Y-93874218D01*
X90866513Y-93932932D01*
X90730754Y-94045774D01*
X90584225Y-94132361D01*
X90425968Y-94193167D01*
X90277433Y-94225552D01*
X90171188Y-94241354D01*
X90171188Y-95363129D01*
X90171188Y-96484904D01*
X90235097Y-96515842D01*
X90316153Y-96569157D01*
X90376821Y-96637837D01*
X90416821Y-96717364D01*
X90435872Y-96803222D01*
X90433693Y-96890894D01*
X90410004Y-96975865D01*
X90364524Y-97053618D01*
X90296973Y-97119636D01*
X90273595Y-97135702D01*
X90201917Y-97167091D01*
X90117132Y-97182987D01*
X90109668Y-97182933D01*
X90030664Y-97182356D01*
X89954842Y-97164526D01*
X89871303Y-97116752D01*
X89804745Y-97048296D01*
X89758131Y-96963263D01*
X89734423Y-96865756D01*
X89733658Y-96858131D01*
X89738827Y-96763924D01*
X89771617Y-96675637D01*
X89831604Y-96594247D01*
X89859893Y-96566717D01*
X89929148Y-96504451D01*
X89929148Y-95366744D01*
X89929148Y-94229038D01*
X89854400Y-94210432D01*
X89765581Y-94183378D01*
X89669962Y-94146109D01*
X89578815Y-94103489D01*
X89503412Y-94060381D01*
X89497613Y-94056528D01*
X89368489Y-93953938D01*
X89255516Y-93833034D01*
X89160483Y-93697598D01*
X89085177Y-93551414D01*
X89031389Y-93398265D01*
X89000906Y-93241934D01*
X88997098Y-93131897D01*
X89217264Y-93131897D01*
X89222666Y-93198703D01*
X89237125Y-93280701D01*
X89258024Y-93367112D01*
X89282744Y-93447158D01*
X89308667Y-93510058D01*
X89309540Y-93511772D01*
X89388878Y-93637763D01*
X89488734Y-93750498D01*
X89604393Y-93845875D01*
X89731138Y-93919793D01*
X89819421Y-93955111D01*
X89867530Y-93969508D01*
X89912904Y-93979170D01*
X89963248Y-93984971D01*
X90026268Y-93987781D01*
X90109668Y-93988473D01*
X90114237Y-93988468D01*
X90198406Y-93987636D01*
X90261315Y-93984862D01*
X90310158Y-93979322D01*
X90352129Y-93970190D01*
X90394421Y-93956645D01*
X90395502Y-93956258D01*
X90530831Y-93895021D01*
X90652482Y-93812091D01*
X90716537Y-93755193D01*
X90823170Y-93634368D01*
X90904710Y-93502845D01*
X90960475Y-93362881D01*
X90989781Y-93216733D01*
X90991944Y-93066658D01*
X90968390Y-92923110D01*
X90916570Y-92772585D01*
X90840966Y-92637652D01*
X90741727Y-92518470D01*
X90619000Y-92415199D01*
X90472933Y-92327999D01*
X90377634Y-92284872D01*
X90334518Y-92273516D01*
X90270973Y-92264421D01*
X90194992Y-92258111D01*
X90114568Y-92255107D01*
X90037695Y-92255933D01*
X89987401Y-92259357D01*
X89872743Y-92278516D01*
X89767383Y-92313301D01*
X89661457Y-92367349D01*
X89613957Y-92396974D01*
X89494644Y-92491416D01*
X89393944Y-92605210D01*
X89313920Y-92734534D01*
X89256633Y-92875570D01*
X89224146Y-93024496D01*
X89217264Y-93131897D01*
X88997098Y-93131897D01*
X88995517Y-93086205D01*
X89002772Y-93009894D01*
X89038464Y-92833877D01*
X89094207Y-92676045D01*
X89171948Y-92532605D01*
X89273637Y-92399759D01*
X89362923Y-92308401D01*
X89484119Y-92207665D01*
X89609312Y-92130404D01*
X89744712Y-92073666D01*
X89896531Y-92034499D01*
X89962986Y-92023130D01*
X90132797Y-92011598D01*
X90299996Y-92027358D01*
G37*
G36*
X89439607Y-96361986D02*
G01*
X89366043Y-96460015D01*
X89307134Y-96571021D01*
X89259330Y-96701857D01*
X89253717Y-96720782D01*
X89226127Y-96842976D01*
X89218739Y-96956136D01*
X89231334Y-97071071D01*
X89245341Y-97133699D01*
X89297341Y-97281221D01*
X89373527Y-97415346D01*
X89472002Y-97534102D01*
X89590868Y-97635514D01*
X89728228Y-97717612D01*
X89857959Y-97770685D01*
X89948512Y-97791641D01*
X90054823Y-97801887D01*
X90166268Y-97801431D01*
X90272221Y-97790279D01*
X90356278Y-97770392D01*
X90508370Y-97706553D01*
X90643196Y-97621749D01*
X90759003Y-97517803D01*
X90854036Y-97396536D01*
X90926542Y-97259772D01*
X90968847Y-97133891D01*
X90992841Y-96984803D01*
X90988603Y-96836828D01*
X90956376Y-96690932D01*
X90896404Y-96548078D01*
X90808930Y-96409232D01*
X90775143Y-96365772D01*
X90711892Y-96288117D01*
X90860330Y-96288117D01*
X91008768Y-96288117D01*
X91049863Y-96355746D01*
X91122088Y-96495448D01*
X91175273Y-96643046D01*
X91208017Y-96792552D01*
X91218919Y-96937981D01*
X91211233Y-97045601D01*
X91171254Y-97229621D01*
X91107637Y-97399447D01*
X91021439Y-97553625D01*
X90913718Y-97690700D01*
X90785529Y-97809219D01*
X90637931Y-97907726D01*
X90553338Y-97950799D01*
X90500825Y-97971678D01*
X90435049Y-97993195D01*
X90364776Y-98012981D01*
X90298773Y-98028669D01*
X90245806Y-98037892D01*
X90225457Y-98039350D01*
X90185426Y-98039350D01*
X90185463Y-98733436D01*
X90185674Y-98883846D01*
X90186263Y-99035805D01*
X90187187Y-99184853D01*
X90188403Y-99326528D01*
X90189870Y-99456371D01*
X90191545Y-99569918D01*
X90193385Y-99662711D01*
X90194809Y-99714806D01*
X90204117Y-100002089D01*
X90276638Y-100011585D01*
X90406013Y-100040232D01*
X90546265Y-100093411D01*
X90605614Y-100121738D01*
X90754903Y-100212548D01*
X90886091Y-100324467D01*
X90997838Y-100455588D01*
X91088806Y-100604002D01*
X91157655Y-100767801D01*
X91203047Y-100945074D01*
X91209220Y-100982156D01*
X91218714Y-101053414D01*
X91222378Y-101112251D01*
X91220000Y-101169880D01*
X91211365Y-101237519D01*
X91203443Y-101285538D01*
X91159214Y-101465041D01*
X91091468Y-101629439D01*
X91001057Y-101777556D01*
X90888833Y-101908217D01*
X90755648Y-102020246D01*
X90605437Y-102110912D01*
X90447508Y-102175181D01*
X90280657Y-102213956D01*
X90143480Y-102224429D01*
X90108987Y-102227063D01*
X89936601Y-102214330D01*
X89767603Y-102175584D01*
X89693171Y-102149386D01*
X89542413Y-102075155D01*
X89405719Y-101977589D01*
X89285070Y-101859137D01*
X89182447Y-101722249D01*
X89099834Y-101569376D01*
X89039210Y-101402967D01*
X89017467Y-101314014D01*
X89001689Y-101225680D01*
X88994296Y-101148162D01*
X88995364Y-101077774D01*
X89218424Y-101077774D01*
X89224216Y-101216097D01*
X89253754Y-101354389D01*
X89305368Y-101488239D01*
X89377390Y-101613233D01*
X89468149Y-101724960D01*
X89566416Y-101811980D01*
X89701129Y-101895710D01*
X89844226Y-101953475D01*
X89992684Y-101985398D01*
X90143480Y-101991604D01*
X90293591Y-101972220D01*
X90439994Y-101927368D01*
X90579667Y-101857175D01*
X90705959Y-101764908D01*
X90752011Y-101717582D01*
X90803447Y-101652636D01*
X90854349Y-101578586D01*
X90898796Y-101503949D01*
X90926676Y-101447351D01*
X90973539Y-101302748D01*
X90993219Y-101152211D01*
X90985369Y-100999331D01*
X90975491Y-100943237D01*
X90930226Y-100795225D01*
X90860405Y-100658999D01*
X90768389Y-100537050D01*
X90656538Y-100431873D01*
X90527214Y-100345963D01*
X90382777Y-100281812D01*
X90334921Y-100266623D01*
X90260567Y-100251864D01*
X90169188Y-100243628D01*
X90071518Y-100242087D01*
X89978289Y-100247413D01*
X89900672Y-100259674D01*
X89785828Y-100297674D01*
X89669678Y-100355405D01*
X89560270Y-100427754D01*
X89465654Y-100509607D01*
X89412618Y-100569712D01*
X89358526Y-100644765D01*
X89317250Y-100714796D01*
X89284516Y-100788968D01*
X89256049Y-100876441D01*
X89238045Y-100943834D01*
X89218424Y-101077774D01*
X88995364Y-101077774D01*
X88995450Y-101072092D01*
X89005313Y-100988103D01*
X89024046Y-100886829D01*
X89024922Y-100882580D01*
X89073522Y-100716090D01*
X89147232Y-100560897D01*
X89244098Y-100419434D01*
X89362169Y-100294134D01*
X89499492Y-100187430D01*
X89649710Y-100103782D01*
X89712931Y-100075320D01*
X89762414Y-100055766D01*
X89809871Y-100041254D01*
X89867014Y-100027918D01*
X89900672Y-100020931D01*
X89950504Y-100010784D01*
X89950504Y-99022633D01*
X89950504Y-98034483D01*
X89865078Y-98015349D01*
X89708358Y-97966172D01*
X89557875Y-97891625D01*
X89417961Y-97794747D01*
X89292951Y-97678580D01*
X89187178Y-97546164D01*
X89178986Y-97533913D01*
X89104602Y-97399950D01*
X89048166Y-97254022D01*
X89011278Y-97102744D01*
X88995536Y-96952732D01*
X89002543Y-96810602D01*
X89003105Y-96806641D01*
X89037776Y-96638235D01*
X89090996Y-96488293D01*
X89164363Y-96352399D01*
X89171267Y-96341826D01*
X89206811Y-96288117D01*
X89355518Y-96288117D01*
X89504226Y-96288117D01*
X89439607Y-96361986D01*
G37*
%TO.C,G4*%
G36*
X200954245Y-106529262D02*
G01*
X200996169Y-106583227D01*
X201016642Y-106634770D01*
X201019677Y-106663294D01*
X201022511Y-106719544D01*
X201025076Y-106799983D01*
X201027302Y-106901074D01*
X201029120Y-107019282D01*
X201030460Y-107151070D01*
X201031254Y-107292901D01*
X201031443Y-107388954D01*
X201031816Y-108080616D01*
X201152954Y-108080674D01*
X201248537Y-108087214D01*
X201320216Y-108108727D01*
X201370713Y-108148211D01*
X201402750Y-108208662D01*
X201419048Y-108293078D01*
X201422585Y-108377600D01*
X201417652Y-108475316D01*
X201401721Y-108548181D01*
X201373100Y-108601191D01*
X201334841Y-108636221D01*
X201323507Y-108643086D01*
X201309714Y-108648864D01*
X201290781Y-108653668D01*
X201264030Y-108657609D01*
X201226782Y-108660800D01*
X201176357Y-108663351D01*
X201110078Y-108665374D01*
X201025264Y-108666983D01*
X200919237Y-108668287D01*
X200789317Y-108669400D01*
X200632826Y-108670432D01*
X200496277Y-108671222D01*
X199702830Y-108675675D01*
X199706923Y-109272800D01*
X199711016Y-109869924D01*
X200627346Y-110378132D01*
X200783661Y-110464920D01*
X200932223Y-110547589D01*
X201070722Y-110624840D01*
X201196849Y-110695377D01*
X201308291Y-110757900D01*
X201402737Y-110811113D01*
X201477878Y-110853718D01*
X201531403Y-110884418D01*
X201560999Y-110901914D01*
X201566044Y-110905255D01*
X201580613Y-110910177D01*
X201613093Y-110914406D01*
X201665401Y-110918006D01*
X201739458Y-110921039D01*
X201837181Y-110923567D01*
X201960491Y-110925654D01*
X202111306Y-110927363D01*
X202283129Y-110928701D01*
X202453013Y-110929805D01*
X202594485Y-110930928D01*
X202710395Y-110932402D01*
X202803592Y-110934561D01*
X202876925Y-110937739D01*
X202933242Y-110942269D01*
X202975393Y-110948486D01*
X203006225Y-110956723D01*
X203028589Y-110967313D01*
X203045333Y-110980590D01*
X203059305Y-110996889D01*
X203073356Y-111016542D01*
X203076971Y-111021676D01*
X203083054Y-111032864D01*
X203088164Y-111049588D01*
X203092409Y-111074557D01*
X203095895Y-111110480D01*
X203098728Y-111160069D01*
X203101014Y-111226033D01*
X203102860Y-111311083D01*
X203104372Y-111417928D01*
X203105656Y-111549279D01*
X203106819Y-111707846D01*
X203107380Y-111796831D01*
X203111868Y-112535385D01*
X203237110Y-112535385D01*
X203330300Y-112540266D01*
X203399608Y-112557276D01*
X203448205Y-112589966D01*
X203479260Y-112641889D01*
X203495942Y-112716595D01*
X203501422Y-112817636D01*
X203501477Y-112831600D01*
X203498252Y-112923635D01*
X203487255Y-112990958D01*
X203466500Y-113039581D01*
X203434005Y-113075515D01*
X203416857Y-113087956D01*
X203408898Y-113091927D01*
X203396680Y-113095470D01*
X203378502Y-113098611D01*
X203352659Y-113101374D01*
X203317451Y-113103781D01*
X203271173Y-113105858D01*
X203212125Y-113107628D01*
X203138602Y-113109115D01*
X203048903Y-113110343D01*
X202941325Y-113111337D01*
X202814165Y-113112119D01*
X202665722Y-113112714D01*
X202494291Y-113113146D01*
X202298172Y-113113439D01*
X202075660Y-113113617D01*
X201825054Y-113113704D01*
X201585695Y-113113724D01*
X199793859Y-113113724D01*
X199740714Y-113060579D01*
X199687570Y-113007434D01*
X199687570Y-112826638D01*
X199687570Y-112645842D01*
X199742798Y-112590614D01*
X199770068Y-112564415D01*
X199793550Y-112548173D01*
X199821666Y-112539509D01*
X199862840Y-112536041D01*
X199925493Y-112535387D01*
X199938183Y-112535385D01*
X200078339Y-112535385D01*
X200078339Y-111815868D01*
X200078414Y-111637651D01*
X200078825Y-111487981D01*
X200079851Y-111364142D01*
X200081068Y-111300350D01*
X200453477Y-111300350D01*
X200453477Y-111902339D01*
X200453477Y-112504328D01*
X201590616Y-112500318D01*
X202727754Y-112496308D01*
X202727754Y-111902339D01*
X202727754Y-111308370D01*
X201590616Y-111304360D01*
X200453477Y-111300350D01*
X200081068Y-111300350D01*
X200081772Y-111263419D01*
X200084866Y-111183096D01*
X200089414Y-111120460D01*
X200095693Y-111072794D01*
X200103984Y-111037383D01*
X200114566Y-111011512D01*
X200127717Y-110992466D01*
X200143718Y-110977530D01*
X200162846Y-110963988D01*
X200166168Y-110961801D01*
X200184938Y-110951785D01*
X200209643Y-110944182D01*
X200244861Y-110938559D01*
X200295170Y-110934481D01*
X200365146Y-110931513D01*
X200459368Y-110929222D01*
X200521041Y-110928128D01*
X200832365Y-110923024D01*
X200172875Y-110556668D01*
X200041209Y-110483757D01*
X199917870Y-110415904D01*
X199805542Y-110354554D01*
X199706909Y-110301151D01*
X199624653Y-110257139D01*
X199561457Y-110223963D01*
X199520006Y-110203068D01*
X199502981Y-110195898D01*
X199502785Y-110195941D01*
X199487364Y-110204407D01*
X199447293Y-110226482D01*
X199385291Y-110260663D01*
X199304079Y-110305453D01*
X199206375Y-110359350D01*
X199094898Y-110420855D01*
X198972369Y-110488469D01*
X198843508Y-110559585D01*
X198194831Y-110917600D01*
X198492556Y-110925416D01*
X198599603Y-110928603D01*
X198680063Y-110932096D01*
X198738610Y-110936393D01*
X198779918Y-110941993D01*
X198808661Y-110949395D01*
X198829513Y-110959096D01*
X198833831Y-110961801D01*
X198853479Y-110975370D01*
X198869955Y-110989905D01*
X198883537Y-111008122D01*
X198894506Y-111032735D01*
X198903140Y-111066460D01*
X198909718Y-111112012D01*
X198914521Y-111172106D01*
X198917826Y-111249457D01*
X198919913Y-111346780D01*
X198921062Y-111466791D01*
X198921552Y-111612204D01*
X198921661Y-111785736D01*
X198921662Y-111815868D01*
X198921662Y-112535385D01*
X199061818Y-112535385D01*
X199128726Y-112535807D01*
X199172795Y-112538660D01*
X199202449Y-112546325D01*
X199226108Y-112561183D01*
X199252197Y-112585614D01*
X199257202Y-112590614D01*
X199312431Y-112645842D01*
X199312431Y-112826638D01*
X199312431Y-113007434D01*
X199259287Y-113060579D01*
X199206142Y-113113724D01*
X197410948Y-113113646D01*
X195615754Y-113113568D01*
X195574242Y-113078477D01*
X195540327Y-113045150D01*
X195518101Y-113008701D01*
X195505271Y-112961658D01*
X195499541Y-112896548D01*
X195498524Y-112831852D01*
X195502868Y-112727387D01*
X195518015Y-112649685D01*
X195547132Y-112595193D01*
X195593386Y-112560358D01*
X195659946Y-112541629D01*
X195749979Y-112535452D01*
X195762890Y-112535385D01*
X195888133Y-112535385D01*
X195890412Y-112160299D01*
X196267119Y-112160299D01*
X196267225Y-112271501D01*
X196267720Y-112366107D01*
X196268582Y-112440571D01*
X196269792Y-112491349D01*
X196271331Y-112514894D01*
X196271564Y-112515797D01*
X196279084Y-112519672D01*
X196299657Y-112523035D01*
X196335070Y-112525919D01*
X196387108Y-112528353D01*
X196457558Y-112530368D01*
X196548205Y-112531995D01*
X196660836Y-112533265D01*
X196797238Y-112534207D01*
X196959195Y-112534854D01*
X197148495Y-112535235D01*
X197366924Y-112535381D01*
X197412802Y-112535385D01*
X198546524Y-112535385D01*
X198546524Y-111917868D01*
X198546523Y-111300350D01*
X197409385Y-111304360D01*
X196272247Y-111308370D01*
X196268147Y-111902290D01*
X196267419Y-112036047D01*
X196267119Y-112160299D01*
X195890412Y-112160299D01*
X195892620Y-111796831D01*
X195893763Y-111623855D01*
X195894974Y-111479430D01*
X195896361Y-111360847D01*
X195898029Y-111265394D01*
X195900085Y-111190363D01*
X195902635Y-111133043D01*
X195905785Y-111090723D01*
X195909643Y-111060694D01*
X195914314Y-111040246D01*
X195919904Y-111026668D01*
X195923029Y-111021676D01*
X195937445Y-111001265D01*
X195951107Y-110984261D01*
X195966850Y-110970332D01*
X195987508Y-110959151D01*
X196015917Y-110950386D01*
X196054910Y-110943710D01*
X196107323Y-110938792D01*
X196175991Y-110935303D01*
X196263747Y-110932914D01*
X196373428Y-110931295D01*
X196507868Y-110930117D01*
X196669900Y-110929051D01*
X196723092Y-110928712D01*
X196890157Y-110927565D01*
X197028810Y-110926389D01*
X197141901Y-110925055D01*
X197232277Y-110923435D01*
X197302789Y-110921400D01*
X197356286Y-110918822D01*
X197395617Y-110915572D01*
X197423631Y-110911522D01*
X197443178Y-110906544D01*
X197457106Y-110900508D01*
X197465553Y-110895228D01*
X197486107Y-110882830D01*
X197531647Y-110856662D01*
X197599788Y-110818059D01*
X197688144Y-110768355D01*
X197794332Y-110708886D01*
X197915965Y-110640985D01*
X198050660Y-110565988D01*
X198196032Y-110485229D01*
X198349695Y-110400042D01*
X198417570Y-110362469D01*
X199328062Y-109858673D01*
X199328062Y-109267169D01*
X199328062Y-108675665D01*
X198526985Y-108671217D01*
X198347049Y-108670150D01*
X198195744Y-108669050D01*
X198070440Y-108667815D01*
X197968506Y-108666348D01*
X197887311Y-108664547D01*
X197824226Y-108662314D01*
X197776620Y-108659548D01*
X197741861Y-108656150D01*
X197717321Y-108652020D01*
X197700368Y-108647059D01*
X197688372Y-108641166D01*
X197685510Y-108639313D01*
X197649373Y-108609020D01*
X197624817Y-108571861D01*
X197609868Y-108521589D01*
X197602553Y-108451956D01*
X197600862Y-108371326D01*
X197601900Y-108294355D01*
X197605761Y-108241136D01*
X197613570Y-108204205D01*
X197626450Y-108176099D01*
X197631411Y-108168360D01*
X197673035Y-108125290D01*
X197731593Y-108097470D01*
X197811681Y-108083290D01*
X197881714Y-108080616D01*
X197999447Y-108080616D01*
X197999447Y-107353009D01*
X197999489Y-107176274D01*
X197999799Y-107028076D01*
X198000652Y-106905688D01*
X198001396Y-106861416D01*
X198374585Y-106861416D01*
X198374585Y-107455385D01*
X198374585Y-108049354D01*
X199507816Y-108049354D01*
X200641047Y-108049354D01*
X200641047Y-107455385D01*
X200641047Y-106861416D01*
X199507816Y-106861416D01*
X198374585Y-106861416D01*
X198001396Y-106861416D01*
X198002320Y-106806387D01*
X198005080Y-106727447D01*
X198009203Y-106666142D01*
X198014966Y-106619748D01*
X198022642Y-106585539D01*
X198032505Y-106560791D01*
X198044830Y-106542777D01*
X198059890Y-106528774D01*
X198077961Y-106516055D01*
X198084067Y-106512045D01*
X198092935Y-106507568D01*
X198106300Y-106503637D01*
X198126107Y-106500218D01*
X198154297Y-106497273D01*
X198192814Y-106494770D01*
X198243600Y-106492672D01*
X198308599Y-106490945D01*
X198389752Y-106489554D01*
X198489004Y-106488464D01*
X198608297Y-106487639D01*
X198749573Y-106487045D01*
X198914775Y-106486647D01*
X199105847Y-106486410D01*
X199324731Y-106486299D01*
X199514835Y-106486277D01*
X200906276Y-106486277D01*
X200954245Y-106529262D01*
G37*
%TO.C,G2*%
G36*
X221569557Y-105850565D02*
G01*
X221570148Y-105938140D01*
X221552015Y-105938140D01*
X221533882Y-105938140D01*
X221534474Y-105850565D01*
X221535065Y-105762991D01*
X221552015Y-105762991D01*
X221568965Y-105762991D01*
X221569557Y-105850565D01*
G37*
G36*
X221701174Y-105851130D02*
G01*
X221701174Y-105881640D01*
X221685355Y-105881640D01*
X221669535Y-105881640D01*
X221669535Y-105851130D01*
X221669535Y-105820620D01*
X221685355Y-105820620D01*
X221701174Y-105820620D01*
X221701174Y-105851130D01*
G37*
G36*
X221635635Y-105851346D02*
G01*
X221635635Y-105909389D01*
X221623770Y-105907964D01*
X221615912Y-105907132D01*
X221609185Y-105906609D01*
X221606781Y-105906519D01*
X221601656Y-105906500D01*
X221602261Y-105850565D01*
X221602865Y-105794630D01*
X221619250Y-105793966D01*
X221635635Y-105793302D01*
X221635635Y-105851346D01*
G37*
G36*
X221501751Y-105850628D02*
G01*
X221501867Y-105877214D01*
X221501924Y-105899618D01*
X221501913Y-105918177D01*
X221501828Y-105933228D01*
X221501661Y-105945110D01*
X221501406Y-105954158D01*
X221501054Y-105960712D01*
X221500600Y-105965108D01*
X221500035Y-105967684D01*
X221499353Y-105968777D01*
X221499238Y-105968835D01*
X221495401Y-105969370D01*
X221488715Y-105969514D01*
X221482833Y-105969336D01*
X221469526Y-105968649D01*
X221469526Y-105851130D01*
X221469526Y-105733611D01*
X221485346Y-105733611D01*
X221501166Y-105733611D01*
X221501751Y-105850628D01*
G37*
G36*
X220961497Y-106284079D02*
G01*
X220999220Y-106284106D01*
X221036066Y-106284149D01*
X221071766Y-106284207D01*
X221106050Y-106284281D01*
X221138648Y-106284372D01*
X221169291Y-106284478D01*
X221197708Y-106284601D01*
X221223630Y-106284741D01*
X221246787Y-106284897D01*
X221266909Y-106285070D01*
X221283726Y-106285260D01*
X221296969Y-106285467D01*
X221306368Y-106285691D01*
X221310432Y-106285854D01*
X221322426Y-106286568D01*
X221330877Y-106287320D01*
X221336759Y-106288320D01*
X221341046Y-106289776D01*
X221344711Y-106291898D01*
X221347246Y-106293751D01*
X221353868Y-106299830D01*
X221360189Y-106307217D01*
X221361700Y-106309353D01*
X221367826Y-106318603D01*
X221368223Y-106369625D01*
X221368246Y-106384918D01*
X221368090Y-106399179D01*
X221367778Y-106411619D01*
X221367331Y-106421447D01*
X221366773Y-106427874D01*
X221366514Y-106429357D01*
X221361467Y-106441739D01*
X221353163Y-106451180D01*
X221345450Y-106455890D01*
X221344233Y-106456390D01*
X221342747Y-106456848D01*
X221340801Y-106457267D01*
X221338207Y-106457648D01*
X221334774Y-106457993D01*
X221330313Y-106458305D01*
X221324633Y-106458584D01*
X221317544Y-106458832D01*
X221308858Y-106459052D01*
X221298383Y-106459245D01*
X221285930Y-106459412D01*
X221271310Y-106459556D01*
X221254332Y-106459679D01*
X221234806Y-106459781D01*
X221212543Y-106459865D01*
X221187353Y-106459933D01*
X221159045Y-106459986D01*
X221127431Y-106460026D01*
X221092320Y-106460054D01*
X221053522Y-106460074D01*
X221010847Y-106460086D01*
X220964106Y-106460091D01*
X220913109Y-106460093D01*
X220892099Y-106460093D01*
X220845941Y-106460083D01*
X220801200Y-106460052D01*
X220758084Y-106460004D01*
X220716798Y-106459937D01*
X220677551Y-106459854D01*
X220640547Y-106459755D01*
X220605995Y-106459641D01*
X220574099Y-106459512D01*
X220545068Y-106459371D01*
X220519108Y-106459218D01*
X220496425Y-106459053D01*
X220477226Y-106458877D01*
X220461717Y-106458692D01*
X220450106Y-106458499D01*
X220442599Y-106458298D01*
X220439401Y-106458090D01*
X220439388Y-106458087D01*
X220426503Y-106452870D01*
X220415503Y-106444008D01*
X220407406Y-106432378D01*
X220405520Y-106428446D01*
X220404103Y-106424783D01*
X220403087Y-106420688D01*
X220402408Y-106415462D01*
X220401999Y-106408405D01*
X220401794Y-106398816D01*
X220401728Y-106385997D01*
X220401731Y-106372178D01*
X220401792Y-106355620D01*
X220401967Y-106342911D01*
X220402307Y-106333381D01*
X220402858Y-106326360D01*
X220403669Y-106321176D01*
X220404789Y-106317160D01*
X220405898Y-106314427D01*
X220411774Y-106305167D01*
X220420142Y-106296477D01*
X220429560Y-106289652D01*
X220437116Y-106286341D01*
X220440225Y-106286099D01*
X220447583Y-106285870D01*
X220458922Y-106285654D01*
X220473971Y-106285451D01*
X220492461Y-106285261D01*
X220514122Y-106285085D01*
X220538684Y-106284922D01*
X220565877Y-106284773D01*
X220595432Y-106284638D01*
X220627078Y-106284517D01*
X220660546Y-106284410D01*
X220695566Y-106284317D01*
X220731868Y-106284238D01*
X220769183Y-106284175D01*
X220807240Y-106284125D01*
X220845770Y-106284091D01*
X220884502Y-106284072D01*
X220923168Y-106284068D01*
X220961497Y-106284079D01*
G37*
G36*
X221171239Y-105241491D02*
G01*
X221198068Y-105241509D01*
X221221880Y-105241546D01*
X221242864Y-105241604D01*
X221261206Y-105241685D01*
X221277096Y-105241789D01*
X221290720Y-105241919D01*
X221302267Y-105242076D01*
X221311925Y-105242263D01*
X221319882Y-105242479D01*
X221326325Y-105242728D01*
X221331442Y-105243011D01*
X221335422Y-105243329D01*
X221338452Y-105243684D01*
X221340721Y-105244078D01*
X221342415Y-105244512D01*
X221343723Y-105244988D01*
X221344833Y-105245507D01*
X221345351Y-105245773D01*
X221353648Y-105252019D01*
X221360972Y-105261173D01*
X221361046Y-105261293D01*
X221367826Y-105272204D01*
X221368418Y-105326628D01*
X221368579Y-105343973D01*
X221368611Y-105357426D01*
X221368479Y-105367612D01*
X221368148Y-105375157D01*
X221367580Y-105380689D01*
X221366740Y-105384833D01*
X221365591Y-105388216D01*
X221364762Y-105390093D01*
X221357715Y-105401151D01*
X221347991Y-105409239D01*
X221340676Y-105412970D01*
X221339405Y-105413431D01*
X221337694Y-105413853D01*
X221335355Y-105414240D01*
X221332199Y-105414592D01*
X221328039Y-105414911D01*
X221322686Y-105415199D01*
X221315951Y-105415456D01*
X221307647Y-105415686D01*
X221297585Y-105415889D01*
X221285576Y-105416066D01*
X221271433Y-105416220D01*
X221254967Y-105416353D01*
X221235990Y-105416465D01*
X221214313Y-105416558D01*
X221189749Y-105416634D01*
X221162108Y-105416695D01*
X221131203Y-105416742D01*
X221096845Y-105416776D01*
X221058846Y-105416800D01*
X221017018Y-105416814D01*
X220971171Y-105416821D01*
X220921119Y-105416822D01*
X220885285Y-105416821D01*
X220829692Y-105416811D01*
X220778465Y-105416788D01*
X220731450Y-105416752D01*
X220688494Y-105416702D01*
X220649444Y-105416637D01*
X220614144Y-105416556D01*
X220582443Y-105416458D01*
X220554185Y-105416341D01*
X220529217Y-105416206D01*
X220507386Y-105416051D01*
X220488537Y-105415875D01*
X220472518Y-105415677D01*
X220459173Y-105415457D01*
X220448351Y-105415212D01*
X220439896Y-105414943D01*
X220433655Y-105414649D01*
X220429475Y-105414328D01*
X220427308Y-105414006D01*
X220418680Y-105410989D01*
X220411801Y-105406864D01*
X220410392Y-105405565D01*
X220408873Y-105403865D01*
X220407670Y-105402015D01*
X220406739Y-105399497D01*
X220406039Y-105395792D01*
X220405526Y-105390379D01*
X220405158Y-105382740D01*
X220404893Y-105372356D01*
X220404687Y-105358707D01*
X220404498Y-105341274D01*
X220404414Y-105332756D01*
X220404233Y-105313585D01*
X220404130Y-105298399D01*
X220404138Y-105286663D01*
X220404290Y-105277842D01*
X220404617Y-105271401D01*
X220405152Y-105266806D01*
X220405928Y-105263522D01*
X220406977Y-105261013D01*
X220408331Y-105258746D01*
X220408963Y-105257791D01*
X220410019Y-105255996D01*
X220410818Y-105254346D01*
X220411545Y-105252834D01*
X220412384Y-105251454D01*
X220413519Y-105250199D01*
X220415135Y-105249064D01*
X220417414Y-105248041D01*
X220420541Y-105247126D01*
X220424701Y-105246311D01*
X220430076Y-105245590D01*
X220436852Y-105244958D01*
X220445212Y-105244408D01*
X220455341Y-105243933D01*
X220467421Y-105243528D01*
X220481638Y-105243186D01*
X220498175Y-105242901D01*
X220517217Y-105242667D01*
X220538947Y-105242478D01*
X220563549Y-105242327D01*
X220591208Y-105242209D01*
X220622107Y-105242116D01*
X220656431Y-105242043D01*
X220694363Y-105241984D01*
X220736088Y-105241932D01*
X220781790Y-105241881D01*
X220831652Y-105241825D01*
X220883183Y-105241761D01*
X220936391Y-105241692D01*
X220985266Y-105241629D01*
X221029997Y-105241577D01*
X221070772Y-105241535D01*
X221107779Y-105241505D01*
X221141205Y-105241490D01*
X221171239Y-105241491D01*
G37*
G36*
X220949127Y-104850899D02*
G01*
X220994273Y-104859174D01*
X221003129Y-104861329D01*
X221029734Y-104868851D01*
X221054966Y-104877727D01*
X221080694Y-104888649D01*
X221094368Y-104895112D01*
X221134876Y-104917313D01*
X221172841Y-104943219D01*
X221208125Y-104972709D01*
X221240590Y-105005660D01*
X221270100Y-105041950D01*
X221285711Y-105064337D01*
X221298897Y-105084359D01*
X221298897Y-105156316D01*
X221298897Y-105228272D01*
X220740115Y-105229051D01*
X220181333Y-105229830D01*
X220165513Y-105234673D01*
X220137622Y-105244643D01*
X220111051Y-105257211D01*
X220085183Y-105272763D01*
X220059401Y-105291685D01*
X220033088Y-105314366D01*
X220022301Y-105324553D01*
X219994301Y-105353699D01*
X219969367Y-105383945D01*
X219947970Y-105414678D01*
X219931008Y-105444423D01*
X219924992Y-105457250D01*
X219918024Y-105473681D01*
X219910369Y-105492966D01*
X219902292Y-105514357D01*
X219894057Y-105537105D01*
X219885928Y-105560459D01*
X219878170Y-105583672D01*
X219871047Y-105605992D01*
X219864823Y-105626672D01*
X219859762Y-105644962D01*
X219858481Y-105649991D01*
X219850097Y-105685625D01*
X219843499Y-105718206D01*
X219838549Y-105748769D01*
X219835108Y-105778351D01*
X219833037Y-105807989D01*
X219832198Y-105838718D01*
X219832165Y-105846697D01*
X219833146Y-105887969D01*
X219836175Y-105928502D01*
X219841377Y-105968923D01*
X219848881Y-106009857D01*
X219858812Y-106051930D01*
X219871298Y-106095768D01*
X219886465Y-106141997D01*
X219899120Y-106177121D01*
X219910453Y-106206696D01*
X219921145Y-106232538D01*
X219931601Y-106255311D01*
X219942226Y-106275679D01*
X219953426Y-106294307D01*
X219965607Y-106311859D01*
X219979174Y-106328998D01*
X219994532Y-106346389D01*
X220012088Y-106364696D01*
X220016183Y-106368810D01*
X220040778Y-106392250D01*
X220064127Y-106412023D01*
X220086897Y-106428560D01*
X220109752Y-106442290D01*
X220133358Y-106453644D01*
X220158380Y-106463051D01*
X220165513Y-106465328D01*
X220181333Y-106470204D01*
X220740115Y-106470951D01*
X221298897Y-106471697D01*
X221298798Y-106544482D01*
X221298699Y-106617266D01*
X221283543Y-106639224D01*
X221257939Y-106673751D01*
X221231325Y-106704445D01*
X221203069Y-106731976D01*
X221172539Y-106757013D01*
X221172528Y-106757021D01*
X221134412Y-106782998D01*
X221094637Y-106804898D01*
X221053484Y-106822727D01*
X221011235Y-106836491D01*
X220968175Y-106846194D01*
X220924584Y-106851842D01*
X220880745Y-106853439D01*
X220836941Y-106850994D01*
X220793454Y-106844508D01*
X220750567Y-106833988D01*
X220708561Y-106819439D01*
X220667720Y-106800867D01*
X220628325Y-106778276D01*
X220590660Y-106751672D01*
X220583609Y-106746072D01*
X220552481Y-106718327D01*
X220523217Y-106687162D01*
X220496691Y-106653569D01*
X220479324Y-106627708D01*
X220463831Y-106602818D01*
X220312412Y-106601962D01*
X220282210Y-106601796D01*
X220256134Y-106601644D01*
X220233791Y-106601480D01*
X220214788Y-106601277D01*
X220198731Y-106601008D01*
X220185227Y-106600645D01*
X220173882Y-106600162D01*
X220164303Y-106599531D01*
X220156096Y-106598725D01*
X220148868Y-106597717D01*
X220142226Y-106596481D01*
X220135777Y-106594988D01*
X220129126Y-106593212D01*
X220121881Y-106591125D01*
X220113647Y-106588702D01*
X220111692Y-106588128D01*
X220090421Y-106580771D01*
X220067095Y-106570710D01*
X220042782Y-106558513D01*
X220018547Y-106544746D01*
X219995457Y-106529975D01*
X219976804Y-106516497D01*
X219952576Y-106496394D01*
X219928562Y-106473786D01*
X219905633Y-106449619D01*
X219884659Y-106424835D01*
X219866510Y-106400382D01*
X219858333Y-106387877D01*
X219844159Y-106363748D01*
X219829282Y-106336058D01*
X219814103Y-106305629D01*
X219799023Y-106273284D01*
X219784444Y-106239845D01*
X219775524Y-106218156D01*
X219751726Y-106153325D01*
X219732374Y-106088427D01*
X219717394Y-106023198D01*
X219707612Y-105964129D01*
X219705748Y-105947363D01*
X219704175Y-105927223D01*
X219702918Y-105904712D01*
X219702002Y-105880835D01*
X219701450Y-105856596D01*
X219701287Y-105832997D01*
X219701536Y-105811044D01*
X219702222Y-105791740D01*
X219703151Y-105778332D01*
X219709835Y-105721860D01*
X219719485Y-105666525D01*
X219732276Y-105611694D01*
X219748382Y-105556737D01*
X219767976Y-105501020D01*
X219791233Y-105443912D01*
X219801570Y-105420602D01*
X219818913Y-105383852D01*
X219835933Y-105350999D01*
X219853005Y-105321475D01*
X219870505Y-105294711D01*
X219888809Y-105270138D01*
X219908292Y-105247189D01*
X219929330Y-105225295D01*
X219932999Y-105221723D01*
X219966617Y-105191890D01*
X220001593Y-105165882D01*
X220037684Y-105143825D01*
X220074642Y-105125848D01*
X220112223Y-105112078D01*
X220150181Y-105102642D01*
X220167371Y-105099837D01*
X220173656Y-105099309D01*
X220184204Y-105098837D01*
X220198758Y-105098427D01*
X220217062Y-105098082D01*
X220238859Y-105097804D01*
X220263893Y-105097600D01*
X220291907Y-105097472D01*
X220322644Y-105097424D01*
X220324960Y-105097424D01*
X220464869Y-105097424D01*
X220469753Y-105087819D01*
X220477547Y-105074160D01*
X220487983Y-105058349D01*
X220500381Y-105041295D01*
X220514058Y-105023909D01*
X220528333Y-105007099D01*
X220539041Y-104995396D01*
X220572242Y-104963631D01*
X220607964Y-104935488D01*
X220645912Y-104911050D01*
X220685793Y-104890402D01*
X220727310Y-104873631D01*
X220770169Y-104860822D01*
X220814075Y-104852058D01*
X220858733Y-104847427D01*
X220903849Y-104847012D01*
X220949127Y-104850899D01*
G37*
G36*
X221434496Y-105850000D02*
G01*
X221434496Y-105999159D01*
X221417546Y-105999159D01*
X221400596Y-105999159D01*
X221400596Y-105934750D01*
X221400596Y-105870340D01*
X221264210Y-105870340D01*
X221127825Y-105870340D01*
X221126386Y-105893505D01*
X221123472Y-105919063D01*
X221118146Y-105940962D01*
X221110432Y-105959152D01*
X221100356Y-105973581D01*
X221087942Y-105984198D01*
X221080142Y-105988387D01*
X221068799Y-105991712D01*
X221056004Y-105992840D01*
X221043732Y-105991717D01*
X221036574Y-105989588D01*
X221025997Y-105983391D01*
X221015464Y-105974259D01*
X221006474Y-105963537D01*
X221004923Y-105961210D01*
X220998760Y-105951511D01*
X220998363Y-105952091D01*
X220993668Y-105958950D01*
X220987125Y-105967469D01*
X220979364Y-105976034D01*
X220971540Y-105983482D01*
X220964807Y-105988649D01*
X220963414Y-105989456D01*
X220955168Y-105991946D01*
X220944937Y-105992557D01*
X220934835Y-105991311D01*
X220928407Y-105989066D01*
X220923974Y-105985884D01*
X220917686Y-105980253D01*
X220910618Y-105973165D01*
X220907538Y-105969838D01*
X220901235Y-105962987D01*
X220896087Y-105957624D01*
X220892815Y-105954488D01*
X220892083Y-105953986D01*
X220892075Y-105953981D01*
X220890202Y-105955604D01*
X220886361Y-105959893D01*
X220881356Y-105965947D01*
X220880984Y-105966412D01*
X220869580Y-105978858D01*
X220858409Y-105987122D01*
X220847005Y-105991489D01*
X220838444Y-105992379D01*
X220828175Y-105991117D01*
X220818628Y-105987036D01*
X220809117Y-105979692D01*
X220798951Y-105968644D01*
X220796210Y-105965230D01*
X220787299Y-105953888D01*
X220785120Y-105951115D01*
X220780453Y-105957622D01*
X220774261Y-105965481D01*
X220766914Y-105973665D01*
X220759452Y-105981119D01*
X220752916Y-105986788D01*
X220749338Y-105989187D01*
X220741690Y-105991479D01*
X220731915Y-105992267D01*
X220722105Y-105991551D01*
X220714349Y-105989334D01*
X220714013Y-105989163D01*
X220709189Y-105985722D01*
X220702577Y-105979879D01*
X220695265Y-105972719D01*
X220688343Y-105965326D01*
X220682899Y-105958785D01*
X220681412Y-105956700D01*
X220679647Y-105954301D01*
X220678992Y-105954026D01*
X220677964Y-105953595D01*
X220675634Y-105955036D01*
X220671924Y-105959078D01*
X220666104Y-105966175D01*
X220666061Y-105966227D01*
X220656798Y-105977009D01*
X220648889Y-105984453D01*
X220641400Y-105989121D01*
X220633394Y-105991573D01*
X220623937Y-105992368D01*
X220622384Y-105992379D01*
X220607599Y-105990822D01*
X220595051Y-105985942D01*
X220584313Y-105977431D01*
X220574957Y-105964977D01*
X220568903Y-105953534D01*
X220564613Y-105942607D01*
X220560526Y-105929150D01*
X220557012Y-105914734D01*
X220554444Y-105900931D01*
X220553194Y-105889312D01*
X220553130Y-105886910D01*
X220553245Y-105883500D01*
X220553392Y-105880590D01*
X220553243Y-105878140D01*
X220552467Y-105876110D01*
X220550735Y-105874463D01*
X220547719Y-105873157D01*
X220543088Y-105872155D01*
X220536514Y-105871416D01*
X220527667Y-105870902D01*
X220516217Y-105870574D01*
X220501835Y-105870391D01*
X220484192Y-105870316D01*
X220462958Y-105870308D01*
X220437804Y-105870329D01*
X220414000Y-105870340D01*
X220277644Y-105870340D01*
X220185418Y-105920904D01*
X220165595Y-105931766D01*
X220146100Y-105942436D01*
X220127477Y-105952617D01*
X220110269Y-105962013D01*
X220095020Y-105970326D01*
X220082275Y-105977261D01*
X220077508Y-105979846D01*
X220072577Y-105982519D01*
X220067983Y-105984995D01*
X220042773Y-105998522D01*
X220041202Y-105968896D01*
X220040895Y-105960654D01*
X220040652Y-105949077D01*
X220040471Y-105934649D01*
X220040348Y-105917853D01*
X220040303Y-105905299D01*
X220076243Y-105905299D01*
X220076325Y-105916898D01*
X220076551Y-105926700D01*
X220076889Y-105933909D01*
X220077310Y-105937734D01*
X220077508Y-105938140D01*
X220079726Y-105937083D01*
X220085397Y-105934091D01*
X220094030Y-105929432D01*
X220105131Y-105923374D01*
X220118209Y-105916185D01*
X220132769Y-105908133D01*
X220138766Y-105904805D01*
X220198760Y-105871470D01*
X220140364Y-105870866D01*
X220124462Y-105870743D01*
X220109987Y-105870712D01*
X220097573Y-105870767D01*
X220087854Y-105870904D01*
X220081465Y-105871116D01*
X220079106Y-105871360D01*
X220077902Y-105873112D01*
X220077057Y-105877624D01*
X220076530Y-105885389D01*
X220076279Y-105896896D01*
X220076243Y-105905299D01*
X220040303Y-105905299D01*
X220040281Y-105899173D01*
X220040267Y-105879095D01*
X220040302Y-105858101D01*
X220040383Y-105836676D01*
X220040424Y-105829660D01*
X220076243Y-105829660D01*
X220136698Y-105829638D01*
X220197153Y-105829616D01*
X220137475Y-105795738D01*
X220122571Y-105787292D01*
X220108977Y-105779614D01*
X220097178Y-105772978D01*
X220087658Y-105767654D01*
X220080905Y-105763915D01*
X220077401Y-105762033D01*
X220077020Y-105761861D01*
X220076750Y-105763990D01*
X220076520Y-105769859D01*
X220076350Y-105778685D01*
X220076256Y-105789687D01*
X220076243Y-105795760D01*
X220076243Y-105829660D01*
X220040424Y-105829660D01*
X220040508Y-105815305D01*
X220040674Y-105794470D01*
X220040878Y-105774657D01*
X220041117Y-105756350D01*
X220041387Y-105740032D01*
X220041687Y-105726187D01*
X220042012Y-105715300D01*
X220042361Y-105707855D01*
X220042729Y-105704336D01*
X220042815Y-105704134D01*
X220045029Y-105704905D01*
X220050845Y-105707684D01*
X220059915Y-105712286D01*
X220071890Y-105718527D01*
X220086420Y-105726221D01*
X220103156Y-105735184D01*
X220121749Y-105745231D01*
X220141849Y-105756177D01*
X220162001Y-105767227D01*
X220279584Y-105831920D01*
X220432000Y-105831920D01*
X220584415Y-105831920D01*
X220585618Y-105843785D01*
X220586319Y-105851611D01*
X220587132Y-105862069D01*
X220587915Y-105873276D01*
X220588140Y-105876793D01*
X220589191Y-105888879D01*
X220590786Y-105901823D01*
X220592618Y-105913199D01*
X220593014Y-105915212D01*
X220597140Y-105931284D01*
X220602165Y-105943246D01*
X220608318Y-105951460D01*
X220615831Y-105956286D01*
X220620074Y-105957523D01*
X220624761Y-105957843D01*
X220628692Y-105956054D01*
X220633433Y-105951389D01*
X220634076Y-105950661D01*
X220639049Y-105944046D01*
X220644378Y-105935451D01*
X220649449Y-105926074D01*
X220653646Y-105917112D01*
X220656353Y-105909761D01*
X220657036Y-105905991D01*
X220656433Y-105901900D01*
X220654805Y-105894502D01*
X220652396Y-105884829D01*
X220649453Y-105873912D01*
X220649294Y-105873345D01*
X220642599Y-105846458D01*
X220637877Y-105820815D01*
X220635156Y-105796915D01*
X220634499Y-105776430D01*
X220670902Y-105776430D01*
X220671221Y-105789473D01*
X220671944Y-105802842D01*
X220673020Y-105815521D01*
X220674397Y-105826495D01*
X220676024Y-105834748D01*
X220677412Y-105838603D01*
X220678992Y-105838892D01*
X220680898Y-105835155D01*
X220682959Y-105827858D01*
X220684852Y-105818360D01*
X220685444Y-105812222D01*
X220685814Y-105802874D01*
X220685966Y-105791619D01*
X220685906Y-105779761D01*
X220685640Y-105768605D01*
X220685173Y-105759453D01*
X220684580Y-105753975D01*
X220682375Y-105747282D01*
X220679204Y-105744156D01*
X220675770Y-105744873D01*
X220672887Y-105749413D01*
X220671683Y-105755384D01*
X220671039Y-105764728D01*
X220670902Y-105776430D01*
X220634499Y-105776430D01*
X220634462Y-105775262D01*
X220635824Y-105756355D01*
X220639270Y-105740696D01*
X220641664Y-105734499D01*
X220647871Y-105723941D01*
X220655311Y-105715875D01*
X220656054Y-105715289D01*
X220661786Y-105711472D01*
X220667343Y-105709504D01*
X220674666Y-105708825D01*
X220678588Y-105708789D01*
X220687280Y-105709172D01*
X220693402Y-105710629D01*
X220698872Y-105713708D01*
X220700812Y-105715135D01*
X220709262Y-105723625D01*
X220715532Y-105734733D01*
X220719718Y-105748817D01*
X220721915Y-105766238D01*
X220722221Y-105787356D01*
X220721970Y-105794210D01*
X220720636Y-105813265D01*
X220718320Y-105830812D01*
X220714726Y-105848467D01*
X220709558Y-105867846D01*
X220706697Y-105877370D01*
X220703801Y-105887487D01*
X220701536Y-105896783D01*
X220700213Y-105903901D01*
X220700000Y-105906420D01*
X220701177Y-105912949D01*
X220704329Y-105921318D01*
X220708891Y-105930593D01*
X220714297Y-105939839D01*
X220719979Y-105948121D01*
X220725371Y-105954504D01*
X220729908Y-105958055D01*
X220731544Y-105958479D01*
X220735483Y-105956570D01*
X220740689Y-105951428D01*
X220746551Y-105943934D01*
X220752459Y-105934968D01*
X220757806Y-105925410D01*
X220761980Y-105916141D01*
X220763151Y-105912821D01*
X220764259Y-105908390D01*
X220764416Y-105903919D01*
X220763463Y-105898246D01*
X220761241Y-105890209D01*
X220759128Y-105883441D01*
X220753566Y-105863794D01*
X220748856Y-105842838D01*
X220745151Y-105821631D01*
X220742605Y-105801229D01*
X220741370Y-105782688D01*
X220741539Y-105771102D01*
X220779261Y-105771102D01*
X220779270Y-105783016D01*
X220779569Y-105795490D01*
X220780131Y-105807538D01*
X220780932Y-105818173D01*
X220781947Y-105826410D01*
X220783153Y-105831263D01*
X220783296Y-105831549D01*
X220785537Y-105834837D01*
X220787299Y-105835161D01*
X220788896Y-105832090D01*
X220790642Y-105825194D01*
X220791695Y-105820044D01*
X220793322Y-105808984D01*
X220794319Y-105796291D01*
X220794688Y-105783139D01*
X220794429Y-105770701D01*
X220793543Y-105760153D01*
X220792031Y-105752666D01*
X220791645Y-105751618D01*
X220788384Y-105745652D01*
X220785301Y-105744119D01*
X220782163Y-105746952D01*
X220781212Y-105748575D01*
X220780207Y-105752895D01*
X220779565Y-105760733D01*
X220779261Y-105771102D01*
X220741539Y-105771102D01*
X220741598Y-105767067D01*
X220741860Y-105764131D01*
X220745118Y-105746607D01*
X220750723Y-105731904D01*
X220758412Y-105720365D01*
X220767922Y-105712336D01*
X220778990Y-105708158D01*
X220785017Y-105707621D01*
X220797611Y-105709781D01*
X220808825Y-105715939D01*
X220817856Y-105725607D01*
X220819741Y-105728626D01*
X220826369Y-105744534D01*
X220830027Y-105763847D01*
X220830715Y-105786562D01*
X220828434Y-105812675D01*
X220823182Y-105842184D01*
X220815072Y-105874687D01*
X220812305Y-105885385D01*
X220810109Y-105895412D01*
X220808765Y-105903403D01*
X220808479Y-105906956D01*
X220809650Y-105914237D01*
X220812786Y-105923118D01*
X220817327Y-105932652D01*
X220822712Y-105941894D01*
X220828378Y-105949897D01*
X220833766Y-105955714D01*
X220838313Y-105958401D01*
X220839047Y-105958479D01*
X220842631Y-105956649D01*
X220847640Y-105951764D01*
X220853330Y-105944738D01*
X220858956Y-105936482D01*
X220863449Y-105928563D01*
X220867191Y-105919661D01*
X220869019Y-105910831D01*
X220868917Y-105901047D01*
X220866872Y-105889283D01*
X220862869Y-105874512D01*
X220862707Y-105873972D01*
X220855367Y-105846126D01*
X220850758Y-105819711D01*
X220848583Y-105792803D01*
X220848324Y-105781070D01*
X220848325Y-105780291D01*
X220882454Y-105780291D01*
X220882943Y-105792332D01*
X220883267Y-105795760D01*
X220884920Y-105809024D01*
X220886792Y-105820393D01*
X220888736Y-105829195D01*
X220890607Y-105834758D01*
X220892083Y-105836440D01*
X220894822Y-105834276D01*
X220897081Y-105828128D01*
X220898786Y-105818517D01*
X220899860Y-105805960D01*
X220900230Y-105790977D01*
X220900083Y-105781070D01*
X220899570Y-105770258D01*
X220898742Y-105760555D01*
X220897726Y-105753204D01*
X220896921Y-105749996D01*
X220894019Y-105744913D01*
X220891138Y-105743830D01*
X220888433Y-105746229D01*
X220886057Y-105751593D01*
X220884165Y-105759403D01*
X220882913Y-105769141D01*
X220882454Y-105780291D01*
X220848325Y-105780291D01*
X220848333Y-105768322D01*
X220848652Y-105758984D01*
X220849411Y-105751949D01*
X220850740Y-105746111D01*
X220852766Y-105740363D01*
X220853212Y-105739261D01*
X220858280Y-105728448D01*
X220863693Y-105720735D01*
X220870514Y-105714758D01*
X220874238Y-105712327D01*
X220884996Y-105708324D01*
X220897016Y-105708323D01*
X220909474Y-105712315D01*
X220910265Y-105712706D01*
X220919671Y-105719932D01*
X220926989Y-105730878D01*
X220932200Y-105745246D01*
X220935286Y-105762738D01*
X220936228Y-105783055D01*
X220935010Y-105805901D01*
X220931611Y-105830976D01*
X220926015Y-105857983D01*
X220920444Y-105879050D01*
X220917193Y-105890472D01*
X220915100Y-105898511D01*
X220914056Y-105904121D01*
X220913952Y-105908257D01*
X220914680Y-105911875D01*
X220916131Y-105915930D01*
X220916218Y-105916154D01*
X220919504Y-105923260D01*
X220924151Y-105931616D01*
X220929486Y-105940193D01*
X220934833Y-105947965D01*
X220939516Y-105953904D01*
X220942860Y-105956982D01*
X220943130Y-105957106D01*
X220947963Y-105957247D01*
X220950741Y-105956282D01*
X220954846Y-105952572D01*
X220960104Y-105945616D01*
X220965915Y-105936338D01*
X220971679Y-105925657D01*
X220974451Y-105919871D01*
X220980225Y-105907252D01*
X220974432Y-105888231D01*
X220967382Y-105863456D01*
X220962234Y-105841338D01*
X220958742Y-105820557D01*
X220956661Y-105799792D01*
X220956119Y-105790104D01*
X220955629Y-105776088D01*
X220955624Y-105774174D01*
X220991871Y-105774174D01*
X220991881Y-105786781D01*
X220992337Y-105799840D01*
X220993186Y-105812439D01*
X220994374Y-105823662D01*
X220995848Y-105832595D01*
X220997556Y-105838326D01*
X220998363Y-105839592D01*
X221000172Y-105839346D01*
X221001883Y-105835311D01*
X221003443Y-105828220D01*
X221004796Y-105818805D01*
X221005887Y-105807796D01*
X221006661Y-105795925D01*
X221007063Y-105783924D01*
X221007039Y-105772525D01*
X221006532Y-105762459D01*
X221005488Y-105754458D01*
X221004941Y-105752118D01*
X221002197Y-105745908D01*
X220999012Y-105744010D01*
X220995964Y-105746330D01*
X220993630Y-105752774D01*
X220993398Y-105753975D01*
X220992359Y-105762934D01*
X220991871Y-105774174D01*
X220955624Y-105774174D01*
X220955604Y-105765539D01*
X220956098Y-105757421D01*
X220957162Y-105750701D01*
X220958386Y-105745892D01*
X220964435Y-105730701D01*
X220972574Y-105719299D01*
X220982658Y-105711812D01*
X220994541Y-105708366D01*
X221001915Y-105708247D01*
X221013035Y-105710380D01*
X221021946Y-105715392D01*
X221029380Y-105723858D01*
X221035123Y-105734280D01*
X221040281Y-105749581D01*
X221042937Y-105768161D01*
X221043085Y-105790115D01*
X221040723Y-105815536D01*
X221035845Y-105844520D01*
X221028612Y-105876506D01*
X221025502Y-105889063D01*
X221023412Y-105898154D01*
X221022247Y-105904693D01*
X221021910Y-105909595D01*
X221022309Y-105913775D01*
X221023347Y-105918147D01*
X221024043Y-105920576D01*
X221027676Y-105930362D01*
X221032599Y-105940098D01*
X221038065Y-105948554D01*
X221043332Y-105954504D01*
X221045580Y-105956113D01*
X221053131Y-105957772D01*
X221061372Y-105955634D01*
X221069511Y-105950172D01*
X221076754Y-105941858D01*
X221080553Y-105935260D01*
X221083934Y-105927161D01*
X221086593Y-105918102D01*
X221088658Y-105907313D01*
X221090257Y-105894024D01*
X221091518Y-105877464D01*
X221092184Y-105865255D01*
X221093701Y-105834180D01*
X221247149Y-105834180D01*
X221400596Y-105834180D01*
X221400596Y-105767510D01*
X221400596Y-105700841D01*
X221417546Y-105700841D01*
X221434496Y-105700841D01*
X221434496Y-105850000D01*
G37*
%TO.C,G7*%
G36*
X163263268Y-105874787D02*
G01*
X163263639Y-105878452D01*
X163246161Y-105879949D01*
X163243517Y-105879933D01*
X163226200Y-105878324D01*
X163227853Y-105874925D01*
X163229773Y-105874373D01*
X163254094Y-105872738D01*
X163263268Y-105874787D01*
G37*
G36*
X165378202Y-110097768D02*
G01*
X165431024Y-110133803D01*
X165477968Y-110184036D01*
X165581333Y-110319027D01*
X165681240Y-110459542D01*
X165775608Y-110602173D01*
X165862358Y-110743513D01*
X165939407Y-110880154D01*
X166004675Y-111008689D01*
X166056082Y-111125710D01*
X166061560Y-111139698D01*
X166098820Y-111242507D01*
X166125644Y-111332526D01*
X166143332Y-111415962D01*
X166153185Y-111499022D01*
X166156503Y-111587913D01*
X166156522Y-111592923D01*
X166154659Y-111682065D01*
X166147535Y-111756514D01*
X166133500Y-111823609D01*
X166110904Y-111890692D01*
X166078097Y-111965106D01*
X166068369Y-111985180D01*
X166005698Y-112089816D01*
X165925931Y-112186152D01*
X165832940Y-112270632D01*
X165730597Y-112339700D01*
X165631238Y-112386677D01*
X165506917Y-112423686D01*
X165380070Y-112442821D01*
X165256016Y-112443494D01*
X165189892Y-112435610D01*
X165057536Y-112402459D01*
X164934618Y-112350127D01*
X164822863Y-112280190D01*
X164723997Y-112194225D01*
X164639746Y-112093810D01*
X164571836Y-111980521D01*
X164521994Y-111855935D01*
X164510348Y-111814744D01*
X164496859Y-111740456D01*
X164489635Y-111652659D01*
X164488918Y-111576176D01*
X164784773Y-111576176D01*
X164786843Y-111658086D01*
X164795042Y-111724873D01*
X164811267Y-111783340D01*
X164837410Y-111840288D01*
X164875368Y-111902519D01*
X164875899Y-111903321D01*
X164944193Y-111986898D01*
X165025679Y-112053725D01*
X165117662Y-112102740D01*
X165217445Y-112132882D01*
X165322331Y-112143089D01*
X165429625Y-112132301D01*
X165447604Y-112128374D01*
X165545693Y-112094250D01*
X165634154Y-112041901D01*
X165711141Y-111974036D01*
X165774804Y-111893361D01*
X165823297Y-111802583D01*
X165854772Y-111704409D01*
X165867380Y-111601546D01*
X165862945Y-111519917D01*
X165839172Y-111404031D01*
X165797577Y-111275945D01*
X165738526Y-111136414D01*
X165662384Y-110986195D01*
X165569516Y-110826043D01*
X165460288Y-110656713D01*
X165411273Y-110585401D01*
X165380065Y-110542222D01*
X165352705Y-110507069D01*
X165331975Y-110483334D01*
X165320662Y-110474409D01*
X165320176Y-110474455D01*
X165308315Y-110485319D01*
X165286667Y-110512098D01*
X165257300Y-110551787D01*
X165222288Y-110601380D01*
X165183701Y-110657874D01*
X165143609Y-110718262D01*
X165104085Y-110779539D01*
X165067199Y-110838701D01*
X165053279Y-110861715D01*
X164968700Y-111011458D01*
X164896767Y-111156423D01*
X164839394Y-111292643D01*
X164821662Y-111341714D01*
X164805183Y-111392112D01*
X164794518Y-111433164D01*
X164788402Y-111472915D01*
X164785570Y-111519406D01*
X164784773Y-111576176D01*
X164488918Y-111576176D01*
X164488760Y-111559299D01*
X164494316Y-111468322D01*
X164505929Y-111389869D01*
X164537414Y-111270346D01*
X164584527Y-111138762D01*
X164646046Y-110997709D01*
X164720748Y-110849779D01*
X164807413Y-110697565D01*
X164904817Y-110543658D01*
X164904970Y-110543429D01*
X164945099Y-110484518D01*
X164989925Y-110421069D01*
X165037031Y-110356269D01*
X165084000Y-110293308D01*
X165128417Y-110235374D01*
X165167863Y-110185655D01*
X165199923Y-110147340D01*
X165222181Y-110123618D01*
X165225085Y-110121038D01*
X165274673Y-110091246D01*
X165325898Y-110083535D01*
X165378202Y-110097768D01*
G37*
G36*
X168707255Y-106850513D02*
G01*
X168747142Y-106879717D01*
X168775040Y-106921417D01*
X168786705Y-106973403D01*
X168786816Y-106979105D01*
X168784551Y-106993792D01*
X168777284Y-107016839D01*
X168764340Y-107049709D01*
X168745045Y-107093869D01*
X168718723Y-107150784D01*
X168684699Y-107221917D01*
X168642298Y-107308736D01*
X168590846Y-107412705D01*
X168541231Y-107512176D01*
X168492715Y-107609299D01*
X168447380Y-107700270D01*
X168406181Y-107783155D01*
X168370075Y-107856021D01*
X168340018Y-107916933D01*
X168316966Y-107963957D01*
X168301875Y-107995159D01*
X168295703Y-108008606D01*
X168295605Y-108008961D01*
X168306321Y-108010352D01*
X168336680Y-108011618D01*
X168383992Y-108012715D01*
X168445569Y-108013599D01*
X168518724Y-108014227D01*
X168600769Y-108014556D01*
X168640858Y-108014594D01*
X168986111Y-108014594D01*
X169021980Y-108044776D01*
X169059195Y-108086827D01*
X169080273Y-108134297D01*
X169082758Y-108181402D01*
X169081892Y-108185860D01*
X169074899Y-108202286D01*
X169057581Y-108234534D01*
X169029752Y-108282908D01*
X168991229Y-108347709D01*
X168941826Y-108429238D01*
X168881359Y-108527797D01*
X168809642Y-108643688D01*
X168726490Y-108777213D01*
X168631720Y-108928674D01*
X168525146Y-109098371D01*
X168441903Y-109230581D01*
X168402258Y-109292412D01*
X168364848Y-109348763D01*
X168331849Y-109396512D01*
X168305437Y-109432534D01*
X168287788Y-109453706D01*
X168284178Y-109456961D01*
X168236096Y-109479774D01*
X168183997Y-109483077D01*
X168140090Y-109469348D01*
X168092432Y-109434090D01*
X168064412Y-109389057D01*
X168056573Y-109339265D01*
X168057906Y-109326777D01*
X168062036Y-109311497D01*
X168069916Y-109291760D01*
X168082495Y-109265901D01*
X168100725Y-109232255D01*
X168125557Y-109189158D01*
X168157943Y-109134943D01*
X168198832Y-109067947D01*
X168249177Y-108986504D01*
X168309929Y-108888948D01*
X168355036Y-108816767D01*
X168413479Y-108723196D01*
X168468393Y-108635012D01*
X168518620Y-108554093D01*
X168563002Y-108482316D01*
X168600381Y-108421560D01*
X168629600Y-108373702D01*
X168649502Y-108340619D01*
X168658928Y-108324189D01*
X168659460Y-108323050D01*
X168659864Y-108317763D01*
X168655014Y-108313605D01*
X168642604Y-108310443D01*
X168620329Y-108308143D01*
X168585885Y-108306571D01*
X168536966Y-108305595D01*
X168471268Y-108305080D01*
X168386484Y-108304892D01*
X168345937Y-108304879D01*
X168249692Y-108304710D01*
X168173176Y-108304116D01*
X168113790Y-108302968D01*
X168068934Y-108301139D01*
X168036010Y-108298499D01*
X168012419Y-108294920D01*
X167995560Y-108290273D01*
X167988121Y-108287170D01*
X167946087Y-108257340D01*
X167919762Y-108213865D01*
X167909614Y-108173974D01*
X167908759Y-108164044D01*
X167909703Y-108152210D01*
X167913156Y-108136922D01*
X167919826Y-108116628D01*
X167930424Y-108089779D01*
X167945659Y-108054822D01*
X167966241Y-108010207D01*
X167992878Y-107954384D01*
X168026280Y-107885802D01*
X168067157Y-107802909D01*
X168116218Y-107704156D01*
X168174172Y-107587992D01*
X168215607Y-107505094D01*
X168284671Y-107367337D01*
X168344581Y-107248637D01*
X168395896Y-107147943D01*
X168439174Y-107064204D01*
X168474972Y-106996369D01*
X168503849Y-106943387D01*
X168526362Y-106904208D01*
X168543069Y-106877781D01*
X168554529Y-106863055D01*
X168558098Y-106859981D01*
X168608489Y-106838435D01*
X168659622Y-106836015D01*
X168707255Y-106850513D01*
G37*
G36*
X165373843Y-106837323D02*
G01*
X165412642Y-106840127D01*
X165444021Y-106846530D01*
X165475429Y-106857948D01*
X165506637Y-106872145D01*
X165591771Y-106924425D01*
X165661929Y-106993065D01*
X165715849Y-107076804D01*
X165720163Y-107085671D01*
X165755605Y-107160484D01*
X165758689Y-107740027D01*
X165761774Y-108319570D01*
X165800208Y-108362111D01*
X165875936Y-108461636D01*
X165932019Y-108569855D01*
X165967808Y-108684599D01*
X165982652Y-108803698D01*
X165975898Y-108924980D01*
X165973538Y-108939974D01*
X165944379Y-109047705D01*
X165895572Y-109149481D01*
X165829563Y-109242595D01*
X165748797Y-109324337D01*
X165655721Y-109391998D01*
X165552779Y-109442869D01*
X165504749Y-109459307D01*
X165444213Y-109472365D01*
X165372020Y-109480579D01*
X165297756Y-109483385D01*
X165231009Y-109480220D01*
X165206754Y-109476838D01*
X165096462Y-109446183D01*
X164992733Y-109396283D01*
X164898482Y-109329600D01*
X164816625Y-109248595D01*
X164750077Y-109155729D01*
X164701755Y-109053464D01*
X164700265Y-109049276D01*
X164669842Y-108931014D01*
X164660764Y-108812219D01*
X164664532Y-108775480D01*
X164957992Y-108775480D01*
X164958480Y-108819570D01*
X164959356Y-108839489D01*
X164963271Y-108893107D01*
X164970252Y-108932826D01*
X164982293Y-108967051D01*
X164996245Y-108994906D01*
X165047045Y-109066640D01*
X165112370Y-109125115D01*
X165187952Y-109167127D01*
X165251442Y-109186439D01*
X165295528Y-109194031D01*
X165329892Y-109195826D01*
X165364921Y-109191456D01*
X165409940Y-109180828D01*
X165496142Y-109147562D01*
X165569524Y-109096323D01*
X165628555Y-109028379D01*
X165659020Y-108974769D01*
X165675109Y-108935706D01*
X165684036Y-108898164D01*
X165687625Y-108852660D01*
X165687987Y-108824044D01*
X165682850Y-108750267D01*
X165665794Y-108686568D01*
X165634352Y-108627671D01*
X165586056Y-108568294D01*
X165552820Y-108534861D01*
X165476484Y-108461839D01*
X165470901Y-107837004D01*
X165465319Y-107212170D01*
X165433304Y-107178764D01*
X165384978Y-107141239D01*
X165333617Y-107124808D01*
X165281683Y-107129736D01*
X165231640Y-107156286D01*
X165230637Y-107157069D01*
X165217727Y-107167501D01*
X165206775Y-107178076D01*
X165197617Y-107190621D01*
X165190091Y-107206957D01*
X165184036Y-107228908D01*
X165179290Y-107258298D01*
X165175689Y-107296950D01*
X165173072Y-107346689D01*
X165171277Y-107409337D01*
X165170142Y-107486718D01*
X165169504Y-107580655D01*
X165169201Y-107692973D01*
X165169071Y-107825494D01*
X165169055Y-107849554D01*
X165168826Y-107989949D01*
X165168321Y-108109347D01*
X165167508Y-108209078D01*
X165166360Y-108290473D01*
X165164844Y-108354862D01*
X165162932Y-108403577D01*
X165160594Y-108437948D01*
X165157798Y-108459305D01*
X165155099Y-108468120D01*
X165140316Y-108487142D01*
X165114100Y-108515030D01*
X165081894Y-108546026D01*
X165079073Y-108548602D01*
X165023891Y-108608698D01*
X164985669Y-108674345D01*
X164970245Y-108711289D01*
X164961466Y-108742194D01*
X164957992Y-108775480D01*
X164664532Y-108775480D01*
X164672752Y-108695327D01*
X164705533Y-108582776D01*
X164758829Y-108477004D01*
X164766421Y-108465141D01*
X164794108Y-108425618D01*
X164823094Y-108388486D01*
X164843731Y-108365336D01*
X164878213Y-108330893D01*
X164881480Y-107751271D01*
X164882219Y-107622745D01*
X164882927Y-107514558D01*
X164883692Y-107424722D01*
X164884607Y-107351246D01*
X164885762Y-107292141D01*
X164887246Y-107245418D01*
X164889152Y-107209086D01*
X164891569Y-107181155D01*
X164894588Y-107159638D01*
X164898300Y-107142543D01*
X164902795Y-107127881D01*
X164908164Y-107113663D01*
X164910815Y-107107065D01*
X164949097Y-107037046D01*
X165003969Y-106970257D01*
X165069842Y-106912547D01*
X165134374Y-106872983D01*
X165170751Y-106856055D01*
X165200807Y-106845396D01*
X165231882Y-106839574D01*
X165271313Y-106837155D01*
X165320176Y-106836703D01*
X165373843Y-106837323D01*
G37*
G36*
X168274888Y-110092796D02*
G01*
X168292207Y-110101926D01*
X168328446Y-110129272D01*
X168352043Y-110161195D01*
X168363256Y-110200541D01*
X168362349Y-110250153D01*
X168349582Y-110312875D01*
X168325216Y-110391551D01*
X168320155Y-110406104D01*
X168281955Y-110524808D01*
X168256624Y-110628888D01*
X168243827Y-110721727D01*
X168243225Y-110806707D01*
X168254482Y-110887209D01*
X168267301Y-110936460D01*
X168296553Y-111001802D01*
X168337689Y-111051592D01*
X168387393Y-111085212D01*
X168442348Y-111102043D01*
X168499238Y-111101466D01*
X168554745Y-111082862D01*
X168605554Y-111045613D01*
X168638199Y-111005648D01*
X168664303Y-110946770D01*
X168674104Y-110875580D01*
X168667441Y-110795192D01*
X168652316Y-110733231D01*
X168631173Y-110651531D01*
X168623621Y-110585656D01*
X168629940Y-110533505D01*
X168650408Y-110492976D01*
X168685303Y-110461969D01*
X168688493Y-110459979D01*
X168735808Y-110441078D01*
X168788101Y-110440370D01*
X168848336Y-110458046D01*
X168879286Y-110472281D01*
X169014149Y-110551520D01*
X169131838Y-110645030D01*
X169232387Y-110752846D01*
X169315827Y-110875007D01*
X169382191Y-111011550D01*
X169406985Y-111079176D01*
X169444542Y-111226076D01*
X169460398Y-111373350D01*
X169455075Y-111519172D01*
X169429092Y-111661714D01*
X169382970Y-111799151D01*
X169317230Y-111929654D01*
X169232392Y-112051398D01*
X169128976Y-112162554D01*
X169087923Y-112199098D01*
X169023885Y-112246799D01*
X168945635Y-112295023D01*
X168860466Y-112339972D01*
X168775671Y-112377850D01*
X168698542Y-112404859D01*
X168686374Y-112408186D01*
X168632989Y-112418282D01*
X168564537Y-112425754D01*
X168487283Y-112430454D01*
X168407496Y-112432233D01*
X168331442Y-112430943D01*
X168265389Y-112426434D01*
X168218712Y-112419286D01*
X168068864Y-112374747D01*
X167930363Y-112312020D01*
X167804512Y-112232173D01*
X167692609Y-112136276D01*
X167595957Y-112025397D01*
X167515856Y-111900604D01*
X167469732Y-111804110D01*
X167426794Y-111673881D01*
X167400711Y-111532331D01*
X167391307Y-111382577D01*
X167393664Y-111331138D01*
X167683331Y-111331138D01*
X167683358Y-111420597D01*
X167688755Y-111501616D01*
X167697810Y-111558904D01*
X167735573Y-111679987D01*
X167791359Y-111790015D01*
X167863120Y-111887667D01*
X167948808Y-111971621D01*
X168046376Y-112040554D01*
X168153777Y-112093143D01*
X168268963Y-112128068D01*
X168389886Y-112144004D01*
X168514500Y-112139630D01*
X168580308Y-112128843D01*
X168648677Y-112109097D01*
X168724143Y-112078496D01*
X168798293Y-112041063D01*
X168862715Y-112000820D01*
X168887341Y-111981996D01*
X168976129Y-111894761D01*
X169049929Y-111794515D01*
X169107087Y-111684683D01*
X169145946Y-111568688D01*
X169164853Y-111449954D01*
X169166462Y-111404574D01*
X169161718Y-111333445D01*
X169148836Y-111254631D01*
X169129844Y-111177877D01*
X169106765Y-111112927D01*
X169105012Y-111108991D01*
X169086702Y-111072459D01*
X169063281Y-111031070D01*
X169037684Y-110989362D01*
X169012846Y-110951876D01*
X168991699Y-110923148D01*
X168977179Y-110907719D01*
X168973957Y-110906286D01*
X168968037Y-110916006D01*
X168965496Y-110939456D01*
X168965495Y-110940133D01*
X168960115Y-110980173D01*
X168945756Y-111031719D01*
X168925090Y-111087229D01*
X168900788Y-111139158D01*
X168885857Y-111165014D01*
X168824667Y-111241660D01*
X168749257Y-111304630D01*
X168663379Y-111352240D01*
X168570784Y-111382806D01*
X168475224Y-111394644D01*
X168389377Y-111387819D01*
X168292513Y-111361307D01*
X168208225Y-111318599D01*
X168131265Y-111256942D01*
X168121748Y-111247615D01*
X168053770Y-111163923D01*
X168002855Y-111065971D01*
X167969079Y-110953994D01*
X167952521Y-110828226D01*
X167951290Y-110729692D01*
X167955284Y-110603340D01*
X167929615Y-110634791D01*
X167873272Y-110714186D01*
X167819298Y-110809705D01*
X167770689Y-110915153D01*
X167730436Y-111024334D01*
X167713181Y-111082838D01*
X167698471Y-111155187D01*
X167688444Y-111240311D01*
X167683331Y-111331138D01*
X167393664Y-111331138D01*
X167398403Y-111227738D01*
X167421823Y-111070931D01*
X167461389Y-110915274D01*
X167516924Y-110763886D01*
X167530715Y-110732671D01*
X167589547Y-110621506D01*
X167663111Y-110511342D01*
X167748029Y-110405790D01*
X167840923Y-110308461D01*
X167938415Y-110222966D01*
X168037126Y-110152917D01*
X168111385Y-110111992D01*
X168174652Y-110087915D01*
X168228018Y-110081579D01*
X168274888Y-110092796D01*
G37*
G36*
X166607322Y-105948789D02*
G01*
X166876332Y-105948826D01*
X167155147Y-105948878D01*
X167412531Y-105948938D01*
X167649384Y-105949013D01*
X167866604Y-105949111D01*
X168065090Y-105949240D01*
X168245741Y-105949409D01*
X168409457Y-105949623D01*
X168557136Y-105949893D01*
X168689678Y-105950224D01*
X168807981Y-105950626D01*
X168912944Y-105951106D01*
X169005466Y-105951672D01*
X169086447Y-105952332D01*
X169156785Y-105953093D01*
X169217380Y-105953964D01*
X169269129Y-105954952D01*
X169312934Y-105956065D01*
X169349691Y-105957311D01*
X169380301Y-105958698D01*
X169405662Y-105960233D01*
X169426673Y-105961925D01*
X169444234Y-105963781D01*
X169459243Y-105965810D01*
X169472600Y-105968018D01*
X169485203Y-105970414D01*
X169491274Y-105971639D01*
X169659401Y-106016763D01*
X169816524Y-106080832D01*
X169961683Y-106162850D01*
X170093917Y-106261817D01*
X170212265Y-106376736D01*
X170315765Y-106506608D01*
X170403457Y-106650435D01*
X170474378Y-106807219D01*
X170527569Y-106975962D01*
X170548119Y-107069249D01*
X170550318Y-107081990D01*
X170552349Y-107096643D01*
X170554220Y-107114113D01*
X170555940Y-107135308D01*
X170557517Y-107161134D01*
X170558960Y-107192495D01*
X170560276Y-107230300D01*
X170561473Y-107275454D01*
X170562560Y-107328863D01*
X170563545Y-107391433D01*
X170564436Y-107464071D01*
X170565242Y-107547683D01*
X170565970Y-107643175D01*
X170566629Y-107751453D01*
X170567226Y-107873423D01*
X170567771Y-108009992D01*
X170568271Y-108162066D01*
X170568735Y-108330551D01*
X170569171Y-108516353D01*
X170569586Y-108720379D01*
X170569990Y-108943534D01*
X170570390Y-109186725D01*
X170570794Y-109450858D01*
X170571014Y-109600000D01*
X170571416Y-109902823D01*
X170571707Y-110183805D01*
X170571885Y-110443433D01*
X170571948Y-110682195D01*
X170571895Y-110900579D01*
X170571724Y-111099074D01*
X170571433Y-111278166D01*
X170571021Y-111438344D01*
X170570485Y-111580095D01*
X170569825Y-111703908D01*
X170569037Y-111810270D01*
X170568122Y-111899669D01*
X170567076Y-111972593D01*
X170565898Y-112029531D01*
X170564587Y-112070969D01*
X170563141Y-112097396D01*
X170562167Y-112106506D01*
X170530040Y-112273305D01*
X170488637Y-112422299D01*
X170436413Y-112556630D01*
X170371824Y-112679442D01*
X170293325Y-112793877D01*
X170199372Y-112903077D01*
X170142811Y-112959879D01*
X170019866Y-113063771D01*
X169884221Y-113152680D01*
X169739901Y-113224398D01*
X169590931Y-113276719D01*
X169542362Y-113289138D01*
X169519365Y-113294280D01*
X169495928Y-113299000D01*
X169471049Y-113303315D01*
X169443727Y-113307246D01*
X169412960Y-113310810D01*
X169377747Y-113314028D01*
X169337085Y-113316916D01*
X169289974Y-113319496D01*
X169235412Y-113321784D01*
X169172397Y-113323801D01*
X169099928Y-113325564D01*
X169017002Y-113327094D01*
X168922620Y-113328408D01*
X168815778Y-113329525D01*
X168695475Y-113330465D01*
X168560710Y-113331247D01*
X168410481Y-113331888D01*
X168243786Y-113332408D01*
X168059625Y-113332826D01*
X167856995Y-113333161D01*
X167634894Y-113333431D01*
X167392322Y-113333655D01*
X167167956Y-113333825D01*
X166953282Y-113334012D01*
X166742507Y-113334263D01*
X166536907Y-113334575D01*
X166337754Y-113334943D01*
X166146323Y-113335362D01*
X165963889Y-113335829D01*
X165791725Y-113336338D01*
X165631105Y-113336885D01*
X165483303Y-113337466D01*
X165349594Y-113338076D01*
X165231252Y-113338710D01*
X165129550Y-113339365D01*
X165045762Y-113340035D01*
X164981163Y-113340716D01*
X164937028Y-113341404D01*
X164923824Y-113341726D01*
X164844843Y-113343612D01*
X164762785Y-113344773D01*
X164684373Y-113345168D01*
X164616330Y-113344757D01*
X164574923Y-113343854D01*
X164522110Y-113341240D01*
X164479994Y-113337470D01*
X164452567Y-113333003D01*
X164443736Y-113328701D01*
X164433816Y-113321994D01*
X164408970Y-113318205D01*
X164398040Y-113317890D01*
X164348207Y-113314073D01*
X164284059Y-113303612D01*
X164212074Y-113287990D01*
X164138735Y-113268693D01*
X164070523Y-113247203D01*
X164039640Y-113235816D01*
X163881170Y-113162040D01*
X163736221Y-113070899D01*
X163605762Y-112963408D01*
X163490758Y-112840582D01*
X163392177Y-112703437D01*
X163310985Y-112552989D01*
X163255265Y-112412125D01*
X163215605Y-112293480D01*
X163215605Y-109635448D01*
X163215605Y-108854737D01*
X163483506Y-108854737D01*
X163483521Y-109094993D01*
X163483547Y-109355786D01*
X163483561Y-109637876D01*
X163483576Y-109920332D01*
X163483627Y-110181308D01*
X163483717Y-110421656D01*
X163483854Y-110642226D01*
X163484041Y-110843868D01*
X163484285Y-111027433D01*
X163484590Y-111193772D01*
X163484962Y-111343734D01*
X163485407Y-111478172D01*
X163485930Y-111597934D01*
X163486536Y-111703872D01*
X163487231Y-111796836D01*
X163488020Y-111877677D01*
X163488908Y-111947244D01*
X163489901Y-112006390D01*
X163491004Y-112055964D01*
X163492223Y-112096816D01*
X163493562Y-112129798D01*
X163495028Y-112155760D01*
X163496626Y-112175551D01*
X163498360Y-112190024D01*
X163499751Y-112197886D01*
X163542410Y-112347673D01*
X163603756Y-112485627D01*
X163683067Y-112610952D01*
X163779622Y-112722856D01*
X163892698Y-112820546D01*
X164021573Y-112903227D01*
X164165526Y-112970107D01*
X164220440Y-112990007D01*
X164315341Y-113022022D01*
X165225275Y-113027605D01*
X165350804Y-113028277D01*
X165496293Y-113028883D01*
X165659371Y-113029421D01*
X165837666Y-113029887D01*
X166028810Y-113030280D01*
X166230431Y-113030597D01*
X166440158Y-113030834D01*
X166655622Y-113030990D01*
X166874452Y-113031062D01*
X167094277Y-113031047D01*
X167312728Y-113030942D01*
X167527432Y-113030745D01*
X167736021Y-113030453D01*
X167752962Y-113030424D01*
X167975246Y-113030036D01*
X168176333Y-113029657D01*
X168357354Y-113029271D01*
X168519441Y-113028862D01*
X168663726Y-113028414D01*
X168791341Y-113027911D01*
X168903418Y-113027337D01*
X169001089Y-113026676D01*
X169085485Y-113025911D01*
X169157739Y-113025027D01*
X169218982Y-113024007D01*
X169270347Y-113022836D01*
X169312965Y-113021497D01*
X169347968Y-113019974D01*
X169376488Y-113018251D01*
X169399658Y-113016312D01*
X169418608Y-113014142D01*
X169434472Y-113011723D01*
X169448380Y-113009040D01*
X169461182Y-113006143D01*
X169607127Y-112960325D01*
X169742568Y-112895497D01*
X169866081Y-112813051D01*
X169976242Y-112714377D01*
X170071627Y-112600866D01*
X170150812Y-112473908D01*
X170212373Y-112334896D01*
X170240634Y-112244877D01*
X170265740Y-112151165D01*
X170269206Y-109700484D01*
X170269606Y-109383945D01*
X170269878Y-109089499D01*
X170270022Y-108816913D01*
X170270036Y-108565949D01*
X170269920Y-108336373D01*
X170269674Y-108127950D01*
X170269295Y-107940443D01*
X170268785Y-107773618D01*
X170268141Y-107627239D01*
X170267363Y-107501070D01*
X170266451Y-107394877D01*
X170265403Y-107308424D01*
X170264218Y-107241475D01*
X170262897Y-107193796D01*
X170261438Y-107165149D01*
X170260850Y-107159224D01*
X170245481Y-107063542D01*
X170225179Y-106981165D01*
X170197417Y-106903197D01*
X170171760Y-106845571D01*
X170104905Y-106721745D01*
X170029962Y-106615819D01*
X169943873Y-106523940D01*
X169863949Y-106457224D01*
X169733530Y-106372358D01*
X169595755Y-106308380D01*
X169451304Y-106265573D01*
X169364936Y-106250583D01*
X169344271Y-106249066D01*
X169306378Y-106247685D01*
X169250914Y-106246439D01*
X169177536Y-106245327D01*
X169085902Y-106244347D01*
X168975667Y-106243499D01*
X168846490Y-106242781D01*
X168698028Y-106242193D01*
X168529936Y-106241732D01*
X168341872Y-106241398D01*
X168133494Y-106241189D01*
X167904458Y-106241105D01*
X167654420Y-106241144D01*
X167383039Y-106241306D01*
X167089970Y-106241588D01*
X166816264Y-106241933D01*
X164360000Y-106245324D01*
X164266288Y-106270480D01*
X164170328Y-106301767D01*
X164071665Y-106343679D01*
X163979205Y-106392090D01*
X163915105Y-106433142D01*
X163817357Y-106514343D01*
X163725994Y-106612257D01*
X163645328Y-106721364D01*
X163579666Y-106836142D01*
X163552134Y-106898110D01*
X163544595Y-106916564D01*
X163537628Y-106933124D01*
X163531210Y-106948687D01*
X163525318Y-106964150D01*
X163519931Y-106980411D01*
X163515026Y-106998366D01*
X163510580Y-107018912D01*
X163506571Y-107042948D01*
X163502976Y-107071369D01*
X163499774Y-107105074D01*
X163496941Y-107144959D01*
X163494455Y-107191922D01*
X163492293Y-107246860D01*
X163490434Y-107310670D01*
X163488855Y-107384250D01*
X163487533Y-107468495D01*
X163486445Y-107564305D01*
X163485570Y-107672575D01*
X163484885Y-107794204D01*
X163484368Y-107930087D01*
X163483995Y-108081124D01*
X163483745Y-108248209D01*
X163483595Y-108432242D01*
X163483523Y-108634119D01*
X163483506Y-108854737D01*
X163215605Y-108854737D01*
X163215605Y-106977417D01*
X163244047Y-106887380D01*
X163306896Y-106723972D01*
X163387705Y-106572994D01*
X163485280Y-106435509D01*
X163598429Y-106312578D01*
X163725959Y-106205265D01*
X163866677Y-106114632D01*
X164019390Y-106041741D01*
X164182906Y-105987655D01*
X164278493Y-105966025D01*
X164290566Y-105964043D01*
X164305727Y-105962215D01*
X164324854Y-105960533D01*
X164348823Y-105958992D01*
X164378510Y-105957587D01*
X164414792Y-105956312D01*
X164458544Y-105955160D01*
X164510645Y-105954126D01*
X164571969Y-105953204D01*
X164643393Y-105952389D01*
X164725795Y-105951674D01*
X164820049Y-105951054D01*
X164927033Y-105950523D01*
X165047623Y-105950075D01*
X165182695Y-105949704D01*
X165333125Y-105949405D01*
X165499791Y-105949172D01*
X165683569Y-105948999D01*
X165885334Y-105948879D01*
X166105964Y-105948809D01*
X166346334Y-105948780D01*
X166607322Y-105948789D01*
G37*
%TD*%
M02*
