%TF.GenerationSoftware,KiCad,Pcbnew,8.0.1*%
%TF.CreationDate,2025-08-11T12:07:21+02:00*%
%TF.ProjectId,SVX_Node_Case_back.kicad_pcb_usb,5356585f-4e6f-4646-955f-436173655f62,rev?*%
%TF.SameCoordinates,Original*%
%TF.FileFunction,Profile,NP*%
%FSLAX46Y46*%
G04 Gerber Fmt 4.6, Leading zero omitted, Abs format (unit mm)*
G04 Created by KiCad (PCBNEW 8.0.1) date 2025-08-11 12:07:21*
%MOMM*%
%LPD*%
G01*
G04 APERTURE LIST*
%TA.AperFunction,Profile*%
%ADD10C,0.050000*%
%TD*%
%TA.AperFunction,Profile*%
%ADD11C,0.200000*%
%TD*%
G04 APERTURE END LIST*
D10*
X183340000Y-84130000D02*
G75*
G02*
X180140000Y-84130000I-1600000J0D01*
G01*
X180140000Y-84130000D02*
G75*
G02*
X183340000Y-84130000I1600000J0D01*
G01*
D11*
X105410000Y-96970000D02*
G75*
G02*
X94610000Y-96970000I-5400000J0D01*
G01*
X94610000Y-96970000D02*
G75*
G02*
X105410000Y-96970000I5400000J0D01*
G01*
X142439741Y-101966814D02*
G75*
G02*
X141299999Y-102700021I-1099841J457214D01*
G01*
D10*
X191500000Y-90300000D02*
X207500000Y-90300000D01*
X207500000Y-103800000D01*
X191500000Y-103800000D01*
X191500000Y-90300000D01*
D11*
X123193339Y-92702638D02*
G75*
G02*
X123760609Y-91697018I909361J149838D01*
G01*
X171310000Y-102510000D02*
G75*
G02*
X162910000Y-102510000I-4200000J0D01*
G01*
X162910000Y-102510000D02*
G75*
G02*
X171310000Y-102510000I4200000J0D01*
G01*
X125300000Y-102699999D02*
X141300000Y-102700000D01*
X142439742Y-101966814D02*
X143280000Y-92710000D01*
X159750000Y-80750000D02*
X174750000Y-80750000D01*
X174750000Y-87750000D01*
X159750000Y-87750000D01*
X159750000Y-80750000D01*
X147400000Y-97100000D02*
G75*
G02*
X144200000Y-97100000I-1600000J0D01*
G01*
X144200000Y-97100000D02*
G75*
G02*
X147400000Y-97100000I1600000J0D01*
G01*
X123760614Y-91697031D02*
X142706733Y-91700000D01*
X122400000Y-97100000D02*
G75*
G02*
X119200000Y-97100000I-1600000J0D01*
G01*
X119200000Y-97100000D02*
G75*
G02*
X122400000Y-97100000I1600000J0D01*
G01*
D10*
X215100000Y-98700000D02*
G75*
G02*
X211900000Y-98700000I-1600000J0D01*
G01*
X211900000Y-98700000D02*
G75*
G02*
X215100000Y-98700000I1600000J0D01*
G01*
D11*
X125300000Y-102699998D02*
G75*
G02*
X124273804Y-101967453I75200J1190398D01*
G01*
X142710000Y-91700000D02*
G75*
G02*
X143277286Y-92705609I-342100J-855800D01*
G01*
X124273766Y-101967469D02*
X123193338Y-92702638D01*
D10*
X154000000Y-84100000D02*
G75*
G02*
X150800000Y-84100000I-1600000J0D01*
G01*
X150800000Y-84100000D02*
G75*
G02*
X154000000Y-84100000I1600000J0D01*
G01*
X187100000Y-98700000D02*
G75*
G02*
X183900000Y-98700000I-1600000J0D01*
G01*
X183900000Y-98700000D02*
G75*
G02*
X187100000Y-98700000I1600000J0D01*
G01*
X80500000Y-70000000D02*
X225500000Y-70000000D01*
X225500000Y-124000000D01*
X80500000Y-124000000D01*
X80500000Y-70000000D01*
M02*
