%TF.GenerationSoftware,KiCad,Pcbnew,8.0.1*%
%TF.CreationDate,2025-07-27T10:51:28+02:00*%
%TF.ProjectId,SVX_Node_Case_back.kicad_pcb_usb,5356585f-4e6f-4646-955f-436173655f62,rev?*%
%TF.SameCoordinates,Original*%
%TF.FileFunction,Legend,Top*%
%TF.FilePolarity,Positive*%
%FSLAX46Y46*%
G04 Gerber Fmt 4.6, Leading zero omitted, Abs format (unit mm)*
G04 Created by KiCad (PCBNEW 8.0.1) date 2025-07-27 10:51:28*
%MOMM*%
%LPD*%
G01*
G04 APERTURE LIST*
%ADD10C,1.500000*%
%ADD11C,1.000000*%
%ADD12C,0.800000*%
%ADD13C,0.050000*%
%ADD14C,0.200000*%
%ADD15C,0.000000*%
G04 APERTURE END LIST*
D10*
X214500002Y-121870000D02*
G75*
G02*
X222990320Y-113533540I6596198J1773800D01*
G01*
D11*
X159350000Y-80350000D02*
X175150000Y-80350000D01*
X175150000Y-88150000D01*
X159350000Y-88150000D01*
X159350000Y-80350000D01*
D10*
X223000000Y-80773070D02*
G75*
G02*
X214222540Y-72014928I-2000000J6773070D01*
G01*
X83000000Y-113096195D02*
G75*
G02*
X91256389Y-121945484I1903800J-6500005D01*
G01*
D12*
X208000000Y-104300000D02*
X191000000Y-104300000D01*
X191000000Y-104300000D02*
X191000000Y-89800000D01*
D11*
X106200000Y-97000000D02*
G75*
G02*
X93800000Y-97000000I-6200000J0D01*
G01*
X93800000Y-97000000D02*
G75*
G02*
X106200000Y-97000000I6200000J0D01*
G01*
D10*
X83000000Y-80403806D02*
X83000000Y-113096194D01*
X214222540Y-72014928D02*
X91403806Y-72000000D01*
D12*
X191000000Y-89800000D02*
X208000000Y-89800000D01*
D10*
X223000000Y-80773070D02*
X223000000Y-113500001D01*
D13*
X214100000Y-98700000D02*
G75*
G02*
X210900000Y-98700000I-1600000J0D01*
G01*
X210900000Y-98700000D02*
G75*
G02*
X214100000Y-98700000I1600000J0D01*
G01*
D10*
X91403806Y-72000000D02*
G75*
G02*
X83000000Y-80403806I-6500006J-1903800D01*
G01*
D11*
X118000000Y-90800000D02*
X148900000Y-90800000D01*
X148900000Y-103500000D01*
X118000000Y-103500000D01*
X118000000Y-90800000D01*
X173200000Y-102500000D02*
G75*
G02*
X161000000Y-102500000I-6100000J0D01*
G01*
X161000000Y-102500000D02*
G75*
G02*
X173200000Y-102500000I6100000J0D01*
G01*
D12*
X208000000Y-89800000D02*
X208000000Y-104300000D01*
D10*
X214463612Y-121914516D02*
X91220000Y-121990000D01*
D14*
G36*
X220887723Y-104591381D02*
G01*
X220864569Y-104236154D01*
X220925857Y-104224202D01*
X220982253Y-104201714D01*
X221001443Y-104189260D01*
X221044661Y-104143711D01*
X221069940Y-104086457D01*
X221077353Y-104024249D01*
X221071258Y-103965333D01*
X221047023Y-103909554D01*
X221040424Y-103901151D01*
X220992334Y-103864932D01*
X220954548Y-103857773D01*
X220898060Y-103875571D01*
X220871896Y-103899099D01*
X220842806Y-103950433D01*
X220823461Y-104007053D01*
X220806809Y-104071863D01*
X220802727Y-104090195D01*
X220788603Y-104149399D01*
X220769352Y-104217223D01*
X220748326Y-104278176D01*
X220725526Y-104332261D01*
X220695823Y-104388095D01*
X220657939Y-104440732D01*
X220615933Y-104481845D01*
X220562087Y-104516467D01*
X220502012Y-104537899D01*
X220435709Y-104546142D01*
X220426983Y-104546245D01*
X220364723Y-104539873D01*
X220304887Y-104520755D01*
X220252594Y-104492316D01*
X220204738Y-104453287D01*
X220163751Y-104403610D01*
X220132736Y-104349798D01*
X220123634Y-104329944D01*
X220103117Y-104270703D01*
X220089974Y-104210632D01*
X220081319Y-104142876D01*
X220077472Y-104078682D01*
X220076739Y-104032749D01*
X220078814Y-103962998D01*
X220085040Y-103898642D01*
X220095415Y-103839682D01*
X220113344Y-103776052D01*
X220137249Y-103720190D01*
X220161736Y-103679574D01*
X220203718Y-103631072D01*
X220255294Y-103591994D01*
X220316462Y-103562342D01*
X220376528Y-103544427D01*
X220431966Y-103534787D01*
X220451896Y-103886789D01*
X220395138Y-103903299D01*
X220344671Y-103937563D01*
X220337591Y-103945701D01*
X220310773Y-103999117D01*
X220301973Y-104059921D01*
X220301833Y-104069678D01*
X220309526Y-104129795D01*
X220329091Y-104167864D01*
X220378836Y-104199120D01*
X220395330Y-104200690D01*
X220446621Y-104173433D01*
X220473328Y-104116587D01*
X220489024Y-104054385D01*
X220490291Y-104048283D01*
X220503288Y-103989271D01*
X220519611Y-103921611D01*
X220536020Y-103860734D01*
X220555825Y-103796636D01*
X220579086Y-103734202D01*
X220595804Y-103697745D01*
X220627850Y-103642655D01*
X220668241Y-103592211D01*
X220713670Y-103553102D01*
X220728281Y-103543579D01*
X220784903Y-103516046D01*
X220845958Y-103499942D01*
X220905309Y-103495219D01*
X220968544Y-103500320D01*
X221028998Y-103515621D01*
X221086669Y-103541124D01*
X221117507Y-103559699D01*
X221168367Y-103599862D01*
X221211809Y-103648139D01*
X221244196Y-103697863D01*
X221264639Y-103739364D01*
X221286566Y-103800730D01*
X221300613Y-103860617D01*
X221309863Y-103926281D01*
X221313974Y-103987164D01*
X221314757Y-104030111D01*
X221312875Y-104104231D01*
X221307229Y-104172425D01*
X221297818Y-104234694D01*
X221280760Y-104304195D01*
X221257821Y-104364438D01*
X221222530Y-104424507D01*
X221194297Y-104457145D01*
X221146727Y-104498032D01*
X221094582Y-104531664D01*
X221037862Y-104558042D01*
X220976566Y-104577166D01*
X220910696Y-104589036D01*
X220887723Y-104591381D01*
G37*
G36*
X221296000Y-102511311D02*
G01*
X221089663Y-102570516D01*
X221089663Y-102995792D01*
X221296000Y-103054410D01*
X221296000Y-103436015D01*
X220095497Y-102982016D01*
X220095497Y-102782421D01*
X220402071Y-102782421D01*
X220827053Y-102915191D01*
X220827053Y-102648771D01*
X220402071Y-102782421D01*
X220095497Y-102782421D01*
X220095497Y-102574619D01*
X221296000Y-102120621D01*
X221296000Y-102511311D01*
G37*
G36*
X220095497Y-101279155D02*
G01*
X220095497Y-100906636D01*
X220809761Y-100906636D01*
X220868514Y-100909279D01*
X220931620Y-100918415D01*
X220992437Y-100934077D01*
X221010235Y-100940048D01*
X221066930Y-100964623D01*
X221119046Y-100996583D01*
X221166581Y-101035927D01*
X221175539Y-101044682D01*
X221215564Y-101089882D01*
X221250071Y-101141189D01*
X221274604Y-101194159D01*
X221292171Y-101251385D01*
X221304719Y-101314033D01*
X221311581Y-101373298D01*
X221314601Y-101436715D01*
X221314757Y-101455596D01*
X221313303Y-101518153D01*
X221309456Y-101578328D01*
X221303205Y-101641652D01*
X221302448Y-101648157D01*
X221292407Y-101709867D01*
X221275940Y-101770078D01*
X221253794Y-101822254D01*
X221222250Y-101873142D01*
X221182133Y-101920732D01*
X221150626Y-101950628D01*
X221103998Y-101986196D01*
X221052024Y-102015122D01*
X221012287Y-102030055D01*
X220950053Y-102046774D01*
X220891947Y-102058020D01*
X220832224Y-102064100D01*
X220809761Y-102064640D01*
X220095497Y-102064640D01*
X220095497Y-101692121D01*
X220825295Y-101692121D01*
X220887539Y-101685645D01*
X220943909Y-101663807D01*
X220978288Y-101637313D01*
X221013964Y-101585767D01*
X221030753Y-101525736D01*
X221033390Y-101485198D01*
X221026983Y-101423823D01*
X221005378Y-101368085D01*
X220979168Y-101333963D01*
X220927615Y-101298477D01*
X220866718Y-101281778D01*
X220825295Y-101279155D01*
X220095497Y-101279155D01*
G37*
G36*
X220095497Y-100666887D02*
G01*
X220095497Y-100293489D01*
X220995874Y-100293489D01*
X220995874Y-99710823D01*
X221296000Y-99710823D01*
X221296000Y-100666887D01*
X220095497Y-100666887D01*
G37*
G36*
X220095497Y-99557243D02*
G01*
X220095497Y-99221653D01*
X220320591Y-99221653D01*
X220320591Y-99557243D01*
X220095497Y-99557243D01*
G37*
G36*
X220414381Y-99557243D02*
G01*
X220414381Y-99221653D01*
X221296000Y-99221653D01*
X221296000Y-99557243D01*
X220414381Y-99557243D01*
G37*
G36*
X220414381Y-99010334D02*
G01*
X220414381Y-98697899D01*
X220557409Y-98697899D01*
X220512386Y-98658381D01*
X220471605Y-98614199D01*
X220437986Y-98565269D01*
X220433138Y-98556336D01*
X220410277Y-98498070D01*
X220398590Y-98436912D01*
X220395623Y-98381360D01*
X220400843Y-98315543D01*
X220416505Y-98257309D01*
X220446606Y-98200861D01*
X220479154Y-98163593D01*
X220533162Y-98125481D01*
X220593237Y-98102075D01*
X220655118Y-98089679D01*
X220715081Y-98085060D01*
X220736488Y-98084752D01*
X221296000Y-98084752D01*
X221296000Y-98421807D01*
X220810347Y-98421807D01*
X220750794Y-98426838D01*
X220695008Y-98450413D01*
X220692817Y-98452288D01*
X220662319Y-98502898D01*
X220658233Y-98537871D01*
X220671385Y-98596192D01*
X220704834Y-98636936D01*
X220759748Y-98662782D01*
X220822729Y-98672936D01*
X220871896Y-98674745D01*
X221296000Y-98674745D01*
X221296000Y-99010334D01*
X220414381Y-99010334D01*
G37*
G36*
X220095497Y-97890725D02*
G01*
X220095497Y-97547808D01*
X220686956Y-97547808D01*
X220414381Y-97297215D01*
X220414381Y-96884249D01*
X220723299Y-97198443D01*
X221296000Y-96866078D01*
X221296000Y-97244459D01*
X220943411Y-97421779D01*
X221066802Y-97547808D01*
X221296000Y-97547808D01*
X221296000Y-97890725D01*
X220095497Y-97890725D01*
G37*
G36*
X220748555Y-95819487D02*
G01*
X220822817Y-95824868D01*
X220891657Y-95834553D01*
X220955075Y-95848544D01*
X221013070Y-95866839D01*
X221077939Y-95895762D01*
X221134337Y-95931411D01*
X221164108Y-95956029D01*
X221207508Y-96001590D01*
X221243552Y-96052360D01*
X221272240Y-96108339D01*
X221293572Y-96169528D01*
X221307549Y-96235925D01*
X221314169Y-96307532D01*
X221314757Y-96337634D01*
X221313116Y-96397805D01*
X221307223Y-96459427D01*
X221295468Y-96519644D01*
X221280466Y-96565073D01*
X221252948Y-96619009D01*
X221217950Y-96666364D01*
X221179642Y-96703705D01*
X221130190Y-96738574D01*
X221072910Y-96767417D01*
X221014046Y-96788408D01*
X220977116Y-96454577D01*
X221032566Y-96435435D01*
X221064457Y-96410027D01*
X221088088Y-96355238D01*
X221089663Y-96333531D01*
X221076216Y-96273706D01*
X221035874Y-96225684D01*
X221008184Y-96207501D01*
X220951014Y-96186706D01*
X220889511Y-96174062D01*
X220821931Y-96164711D01*
X220753780Y-96157969D01*
X220795699Y-96199692D01*
X220831790Y-96246156D01*
X220852259Y-96281653D01*
X220873497Y-96340862D01*
X220882568Y-96402674D01*
X220883327Y-96428199D01*
X220879370Y-96487306D01*
X220864752Y-96551759D01*
X220839363Y-96611358D01*
X220803203Y-96666105D01*
X220770780Y-96702240D01*
X220718693Y-96745751D01*
X220660913Y-96778575D01*
X220597438Y-96800712D01*
X220538499Y-96811181D01*
X220486188Y-96813907D01*
X220421747Y-96809410D01*
X220360644Y-96795917D01*
X220302880Y-96773428D01*
X220272231Y-96757048D01*
X220221582Y-96721679D01*
X220178444Y-96679541D01*
X220142818Y-96630633D01*
X220126272Y-96600537D01*
X220102328Y-96540307D01*
X220087623Y-96480036D01*
X220079109Y-96413426D01*
X220076739Y-96349944D01*
X220077070Y-96339979D01*
X220301833Y-96339979D01*
X220312751Y-96401161D01*
X220345504Y-96451060D01*
X220396105Y-96482616D01*
X220455587Y-96494337D01*
X220476809Y-96495024D01*
X220537122Y-96488594D01*
X220592692Y-96464840D01*
X220611631Y-96449302D01*
X220646582Y-96397864D01*
X220658187Y-96339260D01*
X220658233Y-96334996D01*
X220648315Y-96273992D01*
X220618562Y-96223421D01*
X220613096Y-96217466D01*
X220562216Y-96183596D01*
X220504263Y-96171016D01*
X220483843Y-96170279D01*
X220425069Y-96177244D01*
X220369627Y-96202978D01*
X220350193Y-96219811D01*
X220315482Y-96270739D01*
X220302022Y-96331197D01*
X220301833Y-96339979D01*
X220077070Y-96339979D01*
X220078913Y-96284434D01*
X220085436Y-96223974D01*
X220098541Y-96159818D01*
X220117565Y-96102534D01*
X220138581Y-96058904D01*
X220173899Y-96006862D01*
X220218302Y-95960352D01*
X220264609Y-95924194D01*
X220317871Y-95892271D01*
X220334367Y-95883928D01*
X220397232Y-95858347D01*
X220457703Y-95841421D01*
X220524253Y-95829111D01*
X220584355Y-95822379D01*
X220648679Y-95818853D01*
X220689300Y-95818276D01*
X220748555Y-95819487D01*
G37*
G36*
X220414381Y-95190767D02*
G01*
X220414381Y-94841402D01*
X220973013Y-94671409D01*
X220414381Y-94495847D01*
X220414381Y-94157034D01*
X221296000Y-94528967D01*
X221296000Y-94826454D01*
X220414381Y-95190767D01*
G37*
G36*
X220076739Y-93336671D02*
G01*
X221296000Y-93336671D01*
X221296000Y-93676364D01*
X220497618Y-93676364D01*
X220535177Y-93727323D01*
X220567983Y-93777251D01*
X220598583Y-93830983D01*
X220601080Y-93835806D01*
X220627901Y-93893406D01*
X220651623Y-93953765D01*
X220672435Y-94014597D01*
X220676990Y-94028953D01*
X220395623Y-94028953D01*
X220374517Y-93967355D01*
X220351865Y-93911157D01*
X220323485Y-93852417D01*
X220293001Y-93801026D01*
X220265197Y-93762826D01*
X220224732Y-93718056D01*
X220179834Y-93678415D01*
X220130503Y-93643904D01*
X220076739Y-93614521D01*
X220076739Y-93336671D01*
G37*
G36*
X220746237Y-91430797D02*
G01*
X220820893Y-91435148D01*
X220890090Y-91442979D01*
X220953828Y-91454290D01*
X221012107Y-91469082D01*
X221077280Y-91492466D01*
X221133923Y-91521289D01*
X221163815Y-91541193D01*
X221215112Y-91588605D01*
X221249752Y-91636742D01*
X221277022Y-91692721D01*
X221296921Y-91756543D01*
X221309451Y-91828207D01*
X221314168Y-91891185D01*
X221314757Y-91924556D01*
X221312457Y-91988444D01*
X221305557Y-92046749D01*
X221292038Y-92106549D01*
X221269648Y-92165109D01*
X221266690Y-92171046D01*
X221235964Y-92221278D01*
X221198189Y-92266132D01*
X221153367Y-92305606D01*
X221125420Y-92325212D01*
X221068941Y-92355245D01*
X221011484Y-92376116D01*
X220951698Y-92391670D01*
X220944583Y-92393210D01*
X220885635Y-92403852D01*
X220823683Y-92411454D01*
X220758726Y-92416016D01*
X220699425Y-92417512D01*
X220690766Y-92417536D01*
X220628599Y-92416446D01*
X220570034Y-92413178D01*
X220497549Y-92405429D01*
X220431466Y-92393806D01*
X220371785Y-92378309D01*
X220306187Y-92353489D01*
X220250593Y-92322616D01*
X220213320Y-92293558D01*
X220166904Y-92242403D01*
X220135560Y-92192815D01*
X220110884Y-92136901D01*
X220092878Y-92074662D01*
X220081541Y-92006098D01*
X220077273Y-91946692D01*
X220076934Y-91926901D01*
X220301833Y-91926901D01*
X220315619Y-91986938D01*
X220356977Y-92031785D01*
X220385364Y-92047362D01*
X220443595Y-92065213D01*
X220504433Y-92075059D01*
X220567407Y-92080685D01*
X220627521Y-92083390D01*
X220694576Y-92084291D01*
X220762306Y-92083297D01*
X220822981Y-92080313D01*
X220886478Y-92074106D01*
X220947716Y-92063245D01*
X221006132Y-92043551D01*
X221057034Y-92007803D01*
X221086727Y-91952970D01*
X221089663Y-91925143D01*
X221075810Y-91866662D01*
X221054199Y-91836629D01*
X221004938Y-91802393D01*
X220946979Y-91782646D01*
X220942238Y-91781528D01*
X220879499Y-91771349D01*
X220813072Y-91766163D01*
X220752014Y-91764086D01*
X220703369Y-91763649D01*
X220632895Y-91764644D01*
X220570035Y-91767628D01*
X220504653Y-91773834D01*
X220442230Y-91784695D01*
X220383899Y-91804389D01*
X220333890Y-91840714D01*
X220305760Y-91893089D01*
X220301833Y-91926901D01*
X220076934Y-91926901D01*
X220076739Y-91915471D01*
X220079104Y-91850342D01*
X220086198Y-91792121D01*
X220101292Y-91730346D01*
X220106635Y-91715289D01*
X220131392Y-91660499D01*
X220163979Y-91610446D01*
X220184011Y-91587501D01*
X220229893Y-91545701D01*
X220281249Y-91511336D01*
X220284541Y-91509539D01*
X220341621Y-91483674D01*
X220398658Y-91465730D01*
X220407346Y-91463524D01*
X220466493Y-91450390D01*
X220526734Y-91440483D01*
X220588069Y-91433801D01*
X220650498Y-91430345D01*
X220686662Y-91429818D01*
X220746237Y-91430797D01*
G37*
G36*
X220095497Y-91292065D02*
G01*
X220095497Y-90311967D01*
X220320298Y-90311967D01*
X220363942Y-90358404D01*
X220408926Y-90401873D01*
X220455250Y-90442375D01*
X220502912Y-90479909D01*
X220551915Y-90514475D01*
X220568547Y-90525338D01*
X220620105Y-90556702D01*
X220673481Y-90585948D01*
X220728675Y-90613076D01*
X220785686Y-90638087D01*
X220844515Y-90660979D01*
X220905161Y-90681753D01*
X220929928Y-90689469D01*
X220989949Y-90706282D01*
X221053947Y-90720889D01*
X221121923Y-90733292D01*
X221181607Y-90741943D01*
X221244054Y-90749063D01*
X221296000Y-90753656D01*
X221296000Y-91088367D01*
X221223991Y-91077769D01*
X221154949Y-91065762D01*
X221088875Y-91052344D01*
X221025769Y-91037515D01*
X220965631Y-91021276D01*
X220908459Y-91003627D01*
X220841169Y-90979581D01*
X220803020Y-90964096D01*
X220740065Y-90935123D01*
X220675765Y-90901327D01*
X220623357Y-90870818D01*
X220570088Y-90837223D01*
X220515957Y-90800540D01*
X220460966Y-90760772D01*
X220405114Y-90717916D01*
X220376865Y-90695331D01*
X220376865Y-91292065D01*
X220095497Y-91292065D01*
G37*
G36*
X220076739Y-89945017D02*
G01*
X220076739Y-89773558D01*
X221314757Y-90076908D01*
X221314757Y-90246608D01*
X220076739Y-89945017D01*
G37*
G36*
X221296000Y-88728981D02*
G01*
X221296000Y-89736336D01*
X221230818Y-89725404D01*
X221167347Y-89707741D01*
X221105588Y-89683346D01*
X221045539Y-89652219D01*
X221011994Y-89631409D01*
X220960491Y-89593037D01*
X220915289Y-89552811D01*
X220868013Y-89505087D01*
X220828697Y-89461508D01*
X220788054Y-89413129D01*
X220746082Y-89359952D01*
X220702782Y-89301974D01*
X220664170Y-89250331D01*
X220623758Y-89199561D01*
X220583687Y-89154040D01*
X220539237Y-89113224D01*
X220488044Y-89083561D01*
X220433138Y-89071898D01*
X220374085Y-89086260D01*
X220340228Y-89112637D01*
X220309182Y-89165146D01*
X220301833Y-89215219D01*
X220312238Y-89273764D01*
X220343452Y-89320439D01*
X220396106Y-89352772D01*
X220458260Y-89370200D01*
X220489412Y-89375247D01*
X220461568Y-89711716D01*
X220402622Y-89701426D01*
X220342570Y-89685819D01*
X220284340Y-89663356D01*
X220240870Y-89639030D01*
X220194863Y-89601849D01*
X220156126Y-89556254D01*
X220124659Y-89502244D01*
X220119237Y-89490432D01*
X220098694Y-89430514D01*
X220086077Y-89367445D01*
X220079395Y-89304685D01*
X220076905Y-89245266D01*
X220076739Y-89224305D01*
X220078141Y-89160681D01*
X220083318Y-89093434D01*
X220092310Y-89033704D01*
X220107257Y-88974646D01*
X220116600Y-88948799D01*
X220145479Y-88891217D01*
X220182660Y-88841935D01*
X220228140Y-88800954D01*
X220238233Y-88793754D01*
X220291470Y-88763924D01*
X220348600Y-88745142D01*
X220409622Y-88737408D01*
X220422294Y-88737187D01*
X220482387Y-88742311D01*
X220540996Y-88757682D01*
X220598121Y-88783300D01*
X220629217Y-88801960D01*
X220679811Y-88840960D01*
X220726065Y-88885934D01*
X220767185Y-88932542D01*
X220809665Y-88986590D01*
X220846104Y-89037313D01*
X220881578Y-89089047D01*
X220916057Y-89137857D01*
X220942531Y-89173014D01*
X220981240Y-89217727D01*
X221014632Y-89253321D01*
X221014632Y-88728981D01*
X221296000Y-88728981D01*
G37*
G36*
X220095497Y-88456113D02*
G01*
X220095497Y-87658904D01*
X220376865Y-87658904D01*
X220376865Y-88198778D01*
X220546565Y-88227794D01*
X220521505Y-88172107D01*
X220503773Y-88117006D01*
X220492568Y-88059103D01*
X220489412Y-88008562D01*
X220493235Y-87942939D01*
X220504703Y-87882139D01*
X220523817Y-87826161D01*
X220555780Y-87766948D01*
X220598149Y-87714298D01*
X220648414Y-87670216D01*
X220704065Y-87636961D01*
X220765101Y-87614533D01*
X220831523Y-87602933D01*
X220871896Y-87601165D01*
X220936464Y-87605779D01*
X220999594Y-87619619D01*
X221061286Y-87642687D01*
X221094939Y-87659490D01*
X221145277Y-87691547D01*
X221194376Y-87734880D01*
X221235499Y-87785911D01*
X221258484Y-87824207D01*
X221283103Y-87881287D01*
X221300689Y-87945840D01*
X221310306Y-88008455D01*
X221314538Y-88076793D01*
X221314757Y-88097369D01*
X221312926Y-88161944D01*
X221307431Y-88221140D01*
X221297030Y-88280606D01*
X221291603Y-88302533D01*
X221272983Y-88358156D01*
X221246509Y-88411964D01*
X221222434Y-88447613D01*
X221183063Y-88492278D01*
X221136228Y-88532157D01*
X221118386Y-88544333D01*
X221066256Y-88572496D01*
X221009722Y-88594801D01*
X220973013Y-88606175D01*
X220939600Y-88266482D01*
X220997239Y-88249372D01*
X221046625Y-88214293D01*
X221051561Y-88208743D01*
X221081291Y-88155595D01*
X221089663Y-88100593D01*
X221079230Y-88040267D01*
X221047932Y-87990632D01*
X221042182Y-87984822D01*
X220991717Y-87953566D01*
X220934262Y-87940707D01*
X220900619Y-87939099D01*
X220840421Y-87944571D01*
X220784995Y-87965148D01*
X220759349Y-87985408D01*
X220727162Y-88035309D01*
X220714900Y-88094085D01*
X220714506Y-88108213D01*
X220722864Y-88167770D01*
X220735902Y-88202295D01*
X220769036Y-88251827D01*
X220791882Y-88276448D01*
X220754953Y-88562212D01*
X220095497Y-88456113D01*
G37*
D15*
%TO.C,G4*%
G36*
X131045186Y-109602493D02*
G01*
X131045186Y-109958140D01*
X130963149Y-109956729D01*
X130881113Y-109955318D01*
X130881113Y-109601083D01*
X130881113Y-109246847D01*
X130963149Y-109246847D01*
X131045186Y-109246847D01*
X131045186Y-109602493D01*
G37*
G36*
X133420332Y-112133743D02*
G01*
X133420332Y-112207966D01*
X133314857Y-112207966D01*
X133209381Y-112207966D01*
X133209381Y-112543925D01*
X133209381Y-112879883D01*
X133123439Y-112879883D01*
X133037496Y-112879883D01*
X133037496Y-112543925D01*
X133037496Y-112207966D01*
X132928114Y-112207966D01*
X132818732Y-112207966D01*
X132818732Y-112133743D01*
X132818732Y-112059520D01*
X133119532Y-112059520D01*
X133420332Y-112059520D01*
X133420332Y-112133743D01*
G37*
G36*
X135811104Y-109313017D02*
G01*
X135811104Y-109379186D01*
X135716293Y-109381380D01*
X135621482Y-109383574D01*
X135620584Y-109668748D01*
X135619686Y-109953921D01*
X135539605Y-109953921D01*
X135459524Y-109953921D01*
X135459522Y-109666794D01*
X135459520Y-109379667D01*
X135365764Y-109379667D01*
X135272008Y-109379667D01*
X135272008Y-109313257D01*
X135272008Y-109246847D01*
X135541556Y-109246847D01*
X135811104Y-109246847D01*
X135811104Y-109313017D01*
G37*
G36*
X133773869Y-112059502D02*
G01*
X134076622Y-112059520D01*
X134076622Y-112133743D01*
X134076622Y-112207966D01*
X133967082Y-112207966D01*
X133857542Y-112207966D01*
X133858042Y-112541971D01*
X133858542Y-112875976D01*
X133777715Y-112878178D01*
X133743591Y-112878596D01*
X133715466Y-112877982D01*
X133696885Y-112876470D01*
X133691430Y-112874923D01*
X133690270Y-112866190D01*
X133689194Y-112843475D01*
X133688229Y-112808421D01*
X133687402Y-112762670D01*
X133686738Y-112707866D01*
X133686266Y-112645653D01*
X133686011Y-112577672D01*
X133685973Y-112538716D01*
X133685973Y-112207966D01*
X133581034Y-112207966D01*
X133476095Y-112207966D01*
X133473606Y-112133726D01*
X133471116Y-112059485D01*
X133773869Y-112059502D01*
G37*
G36*
X132391169Y-112060881D02*
G01*
X132588643Y-112063426D01*
X132640701Y-112089070D01*
X132693142Y-112122500D01*
X132732691Y-112164756D01*
X132759324Y-112215798D01*
X132773018Y-112275588D01*
X132775009Y-112309162D01*
X132771289Y-112368508D01*
X132758014Y-112418067D01*
X132733881Y-112461320D01*
X132705962Y-112493642D01*
X132675103Y-112521201D01*
X132643324Y-112541697D01*
X132607500Y-112556184D01*
X132564504Y-112565713D01*
X132511212Y-112571339D01*
X132469101Y-112573417D01*
X132365579Y-112576986D01*
X132365579Y-112728435D01*
X132365579Y-112879883D01*
X132279637Y-112879883D01*
X132193694Y-112879883D01*
X132193694Y-112469109D01*
X132193694Y-112207966D01*
X132365579Y-112207966D01*
X132365579Y-112317348D01*
X132365579Y-112426730D01*
X132437849Y-112426718D01*
X132479825Y-112425617D01*
X132509995Y-112421993D01*
X132532051Y-112415335D01*
X132536910Y-112413045D01*
X132567866Y-112389865D01*
X132588143Y-112359477D01*
X132597607Y-112325149D01*
X132596128Y-112290152D01*
X132583573Y-112257754D01*
X132559812Y-112231224D01*
X132544615Y-112221651D01*
X132525354Y-112214433D01*
X132499614Y-112210107D01*
X132463747Y-112208188D01*
X132441756Y-112207978D01*
X132365579Y-112207966D01*
X132193694Y-112207966D01*
X132193694Y-112058335D01*
X132391169Y-112060881D01*
G37*
G36*
X133188920Y-110558868D02*
G01*
X133280938Y-110577684D01*
X133370322Y-110610687D01*
X133455682Y-110657968D01*
X133492010Y-110683625D01*
X133544428Y-110730765D01*
X133594707Y-110789917D01*
X133640508Y-110857470D01*
X133679496Y-110929811D01*
X133709333Y-111003328D01*
X133718627Y-111033881D01*
X133730235Y-111094114D01*
X133735759Y-111163017D01*
X133735207Y-111234871D01*
X133728588Y-111303954D01*
X133718164Y-111356351D01*
X133686640Y-111449142D01*
X133643447Y-111531752D01*
X133588715Y-111603938D01*
X133582972Y-111610189D01*
X133507911Y-111681707D01*
X133429935Y-111738185D01*
X133347978Y-111780102D01*
X133260969Y-111807935D01*
X133167842Y-111822161D01*
X133103906Y-111824341D01*
X133061965Y-111823043D01*
X133019412Y-111820107D01*
X132982526Y-111816036D01*
X132966056Y-111813323D01*
X132884950Y-111791296D01*
X132810360Y-111758218D01*
X132739752Y-111712669D01*
X132670587Y-111653233D01*
X132658618Y-111641473D01*
X132612292Y-111592231D01*
X132576510Y-111546667D01*
X132548436Y-111500392D01*
X132525234Y-111449018D01*
X132513518Y-111416990D01*
X132487644Y-111320116D01*
X132475771Y-111222859D01*
X132477555Y-111126821D01*
X132492650Y-111033604D01*
X132520712Y-110944809D01*
X132561396Y-110862040D01*
X132614356Y-110786897D01*
X132659580Y-110738714D01*
X132738126Y-110674350D01*
X132822401Y-110623619D01*
X132911011Y-110586613D01*
X133002564Y-110563424D01*
X133095665Y-110554145D01*
X133188920Y-110558868D01*
G37*
G36*
X131463237Y-109461496D02*
G01*
X131495822Y-109514248D01*
X131526096Y-109563155D01*
X131553000Y-109606516D01*
X131575477Y-109642630D01*
X131592469Y-109669795D01*
X131602917Y-109686311D01*
X131605519Y-109690278D01*
X131608334Y-109691440D01*
X131610576Y-109685124D01*
X131612304Y-109670033D01*
X131613577Y-109644870D01*
X131614453Y-109608340D01*
X131614992Y-109559146D01*
X131615253Y-109495991D01*
X131615285Y-109475376D01*
X131615533Y-109246847D01*
X131693663Y-109246847D01*
X131771793Y-109246847D01*
X131771793Y-109602673D01*
X131771793Y-109958500D01*
X131694152Y-109956757D01*
X131616512Y-109955014D01*
X131477342Y-109733958D01*
X131444105Y-109681337D01*
X131413481Y-109633185D01*
X131386463Y-109591037D01*
X131364047Y-109556431D01*
X131347224Y-109530905D01*
X131336990Y-109515993D01*
X131334266Y-109512693D01*
X131333257Y-109520121D01*
X131332344Y-109541206D01*
X131331564Y-109573976D01*
X131330950Y-109616463D01*
X131330538Y-109666696D01*
X131330363Y-109722706D01*
X131330359Y-109732217D01*
X131330359Y-109951952D01*
X131254183Y-109953844D01*
X131221829Y-109954375D01*
X131196282Y-109954276D01*
X131180893Y-109953589D01*
X131177923Y-109952875D01*
X131177904Y-109944718D01*
X131177882Y-109922516D01*
X131177858Y-109887849D01*
X131177833Y-109842298D01*
X131177807Y-109787444D01*
X131177782Y-109724868D01*
X131177759Y-109656151D01*
X131177742Y-109600384D01*
X131177644Y-109250753D01*
X131254059Y-109248548D01*
X131330473Y-109246342D01*
X131463237Y-109461496D01*
G37*
G36*
X134695801Y-109248243D02*
G01*
X134775884Y-109251144D01*
X134779790Y-109508777D01*
X134780953Y-109580292D01*
X134782116Y-109637888D01*
X134783385Y-109683270D01*
X134784867Y-109718146D01*
X134786669Y-109744221D01*
X134788899Y-109763202D01*
X134791662Y-109776794D01*
X134795065Y-109786704D01*
X134797502Y-109791670D01*
X134821430Y-109819771D01*
X134856393Y-109836977D01*
X134902083Y-109843141D01*
X134904798Y-109843157D01*
X134949020Y-109838537D01*
X134982208Y-109824005D01*
X135006172Y-109798552D01*
X135015196Y-109781559D01*
X135019487Y-109770757D01*
X135022934Y-109758615D01*
X135025650Y-109743298D01*
X135027752Y-109722971D01*
X135029353Y-109695798D01*
X135030569Y-109659946D01*
X135031514Y-109613578D01*
X135032303Y-109554861D01*
X135032889Y-109498893D01*
X135035309Y-109250753D01*
X135112640Y-109252354D01*
X135189972Y-109253955D01*
X135192240Y-109467211D01*
X135192686Y-109555832D01*
X135191788Y-109630492D01*
X135189255Y-109692821D01*
X135184795Y-109744446D01*
X135178118Y-109786998D01*
X135168933Y-109822106D01*
X135156950Y-109851399D01*
X135141878Y-109876507D01*
X135123426Y-109899057D01*
X135113341Y-109909395D01*
X135080858Y-109937147D01*
X135046931Y-109956680D01*
X135007868Y-109969290D01*
X134959978Y-109976275D01*
X134916518Y-109978591D01*
X134865446Y-109978803D01*
X134826271Y-109976064D01*
X134795492Y-109970101D01*
X134790764Y-109968723D01*
X134736213Y-109944268D01*
X134691146Y-109907797D01*
X134656339Y-109860267D01*
X134632568Y-109802635D01*
X134623751Y-109762503D01*
X134621713Y-109741577D01*
X134619866Y-109707537D01*
X134618280Y-109662894D01*
X134617024Y-109610161D01*
X134616171Y-109551850D01*
X134615790Y-109490470D01*
X134615777Y-109478531D01*
X134615718Y-109245342D01*
X134695801Y-109248243D01*
G37*
G36*
X134282541Y-109247879D02*
G01*
X134292247Y-109250385D01*
X134354649Y-109276065D01*
X134410015Y-109314660D01*
X134456799Y-109364457D01*
X134493457Y-109423742D01*
X134518445Y-109490800D01*
X134521965Y-109505259D01*
X134527805Y-109547441D01*
X134529365Y-109597688D01*
X134526961Y-109650660D01*
X134520909Y-109701020D01*
X134511526Y-109743427D01*
X134507070Y-109756559D01*
X134473517Y-109823637D01*
X134429756Y-109879788D01*
X134376920Y-109924158D01*
X134316144Y-109955891D01*
X134248564Y-109974132D01*
X134213349Y-109977884D01*
X134178358Y-109977970D01*
X134142985Y-109975098D01*
X134119594Y-109970937D01*
X134055599Y-109946713D01*
X133996989Y-109909003D01*
X133946159Y-109859660D01*
X133910456Y-109809267D01*
X133885024Y-109752017D01*
X133869403Y-109686345D01*
X133863552Y-109615954D01*
X133865739Y-109575659D01*
X134029918Y-109575659D01*
X134030060Y-109624368D01*
X134033790Y-109672310D01*
X134040907Y-109714687D01*
X134051213Y-109746700D01*
X134051648Y-109747613D01*
X134079517Y-109790164D01*
X134115092Y-109821396D01*
X134155961Y-109840532D01*
X134199713Y-109846793D01*
X134243938Y-109839401D01*
X134280561Y-109821498D01*
X134315363Y-109789197D01*
X134341180Y-109744699D01*
X134357750Y-109688769D01*
X134364808Y-109622177D01*
X134364366Y-109577372D01*
X134356244Y-109512289D01*
X134338733Y-109459515D01*
X134311904Y-109419141D01*
X134275829Y-109391263D01*
X134230578Y-109375972D01*
X134209850Y-109373397D01*
X134158692Y-109376169D01*
X134115430Y-109392415D01*
X134080148Y-109422071D01*
X134052932Y-109465077D01*
X134041190Y-109495138D01*
X134033562Y-109530983D01*
X134029918Y-109575659D01*
X133865739Y-109575659D01*
X133867427Y-109544549D01*
X133880987Y-109475834D01*
X133904187Y-109413512D01*
X133915270Y-109392707D01*
X133943396Y-109354569D01*
X133980867Y-109317366D01*
X134022641Y-109285447D01*
X134063676Y-109263163D01*
X134066882Y-109261886D01*
X134116619Y-109248103D01*
X134173429Y-109240955D01*
X134230880Y-109240771D01*
X134282541Y-109247879D01*
G37*
G36*
X131349349Y-106498761D02*
G01*
X131413441Y-106503837D01*
X131467292Y-106513978D01*
X131515889Y-106530744D01*
X131564218Y-106555699D01*
X131596545Y-106576174D01*
X131664974Y-106630994D01*
X131722302Y-106695934D01*
X131767336Y-106769355D01*
X131798886Y-106849619D01*
X131801002Y-106857046D01*
X131803913Y-106868737D01*
X131806387Y-106881931D01*
X131808459Y-106897928D01*
X131810162Y-106918028D01*
X131811534Y-106943532D01*
X131812607Y-106975741D01*
X131813419Y-107015954D01*
X131814002Y-107065472D01*
X131814394Y-107125595D01*
X131814628Y-107197624D01*
X131814739Y-107282859D01*
X131814764Y-107367825D01*
X131814778Y-107467437D01*
X131814733Y-107552779D01*
X131814501Y-107625203D01*
X131813952Y-107686065D01*
X131812959Y-107736719D01*
X131811392Y-107778520D01*
X131809122Y-107812822D01*
X131806022Y-107840980D01*
X131801962Y-107864348D01*
X131796813Y-107884280D01*
X131790447Y-107902132D01*
X131782734Y-107919257D01*
X131773547Y-107937010D01*
X131762756Y-107956745D01*
X131757952Y-107965518D01*
X131731039Y-108006174D01*
X131694263Y-108049771D01*
X131651702Y-108092188D01*
X131607430Y-108129302D01*
X131572622Y-108152940D01*
X131525396Y-108178468D01*
X131481159Y-108196304D01*
X131435298Y-108207595D01*
X131383202Y-108213488D01*
X131322546Y-108215132D01*
X131277206Y-108214717D01*
X131243117Y-108213121D01*
X131215921Y-108209817D01*
X131191258Y-108204279D01*
X131165276Y-108196154D01*
X131081851Y-108160158D01*
X131009080Y-108112811D01*
X130947308Y-108054464D01*
X130896878Y-107985471D01*
X130858134Y-107906183D01*
X130844690Y-107867522D01*
X130841653Y-107856755D01*
X130839074Y-107844842D01*
X130836916Y-107830480D01*
X130835142Y-107812367D01*
X130833716Y-107789200D01*
X130832599Y-107759678D01*
X130831756Y-107722498D01*
X130831147Y-107676357D01*
X130830738Y-107619953D01*
X130830490Y-107551985D01*
X130830366Y-107471149D01*
X130830329Y-107376144D01*
X130830329Y-107363918D01*
X130830335Y-107263298D01*
X130830436Y-107176949D01*
X130830748Y-107103518D01*
X130831393Y-107041650D01*
X130832490Y-106989992D01*
X130834159Y-106947189D01*
X130836518Y-106911888D01*
X130839687Y-106882733D01*
X130843787Y-106858371D01*
X130848935Y-106837448D01*
X130855253Y-106818610D01*
X130862859Y-106800503D01*
X130871873Y-106781772D01*
X130882415Y-106761063D01*
X130883772Y-106758412D01*
X130911261Y-106713252D01*
X130947040Y-106666961D01*
X130987742Y-106623059D01*
X131029998Y-106585063D01*
X131070440Y-106556491D01*
X131084251Y-106549022D01*
X131159497Y-106519576D01*
X131239433Y-106502770D01*
X131326669Y-106498111D01*
X131349349Y-106498761D01*
G37*
G36*
X130641067Y-107481551D02*
G01*
X130661225Y-107490004D01*
X130676758Y-107500868D01*
X130688361Y-107516213D01*
X130696727Y-107538112D01*
X130702548Y-107568634D01*
X130706520Y-107609851D01*
X130709334Y-107663833D01*
X130710246Y-107688157D01*
X130713456Y-107757777D01*
X130718149Y-107815066D01*
X130724994Y-107863298D01*
X130734662Y-107905746D01*
X130747821Y-107945685D01*
X130765143Y-107986387D01*
X130775793Y-108008489D01*
X130828109Y-108098787D01*
X130889322Y-108176394D01*
X130960084Y-108241893D01*
X131041049Y-108295869D01*
X131132870Y-108338906D01*
X131154567Y-108346955D01*
X131180461Y-108355609D01*
X131203293Y-108361462D01*
X131227224Y-108365033D01*
X131256414Y-108366838D01*
X131295024Y-108367396D01*
X131318640Y-108367371D01*
X131390765Y-108364838D01*
X131452778Y-108357042D01*
X131509647Y-108342827D01*
X131566337Y-108321039D01*
X131611185Y-108299312D01*
X131671056Y-108261415D01*
X131730224Y-108211340D01*
X131785738Y-108152373D01*
X131834648Y-108087798D01*
X131874003Y-108020902D01*
X131887544Y-107991553D01*
X131901501Y-107954386D01*
X131912317Y-107915629D01*
X131920468Y-107872313D01*
X131926427Y-107821473D01*
X131930668Y-107760142D01*
X131932930Y-107707690D01*
X131935516Y-107647622D01*
X131938885Y-107601042D01*
X131943629Y-107565814D01*
X131950346Y-107539802D01*
X131959628Y-107520869D01*
X131972072Y-107506878D01*
X131988272Y-107495694D01*
X131992639Y-107493268D01*
X132022468Y-107483288D01*
X132049080Y-107488015D01*
X132073979Y-107507847D01*
X132081337Y-107516798D01*
X132091419Y-107531810D01*
X132098343Y-107548047D01*
X132103141Y-107569521D01*
X132106843Y-107600246D01*
X132108917Y-107624166D01*
X132111502Y-107696221D01*
X132108853Y-107775078D01*
X132101467Y-107854734D01*
X132089844Y-107929182D01*
X132079890Y-107973331D01*
X132067384Y-108014020D01*
X132050180Y-108060848D01*
X132031141Y-108106278D01*
X132022039Y-108125684D01*
X131971718Y-108210808D01*
X131908521Y-108289041D01*
X131834154Y-108359110D01*
X131750321Y-108419745D01*
X131658727Y-108469674D01*
X131561077Y-108507626D01*
X131482713Y-108527911D01*
X131416302Y-108541420D01*
X131414162Y-108671031D01*
X131412022Y-108800643D01*
X131578235Y-108803028D01*
X131643094Y-108804372D01*
X131694203Y-108806621D01*
X131733429Y-108810213D01*
X131762639Y-108815586D01*
X131783703Y-108823181D01*
X131798488Y-108833435D01*
X131808863Y-108846787D01*
X131814648Y-108858562D01*
X131820145Y-108887712D01*
X131815569Y-108918488D01*
X131802303Y-108944325D01*
X131794992Y-108951712D01*
X131786249Y-108958066D01*
X131776111Y-108963436D01*
X131763271Y-108967905D01*
X131746421Y-108971551D01*
X131724253Y-108974457D01*
X131695459Y-108976701D01*
X131658732Y-108978366D01*
X131612762Y-108979531D01*
X131556243Y-108980278D01*
X131487866Y-108980686D01*
X131406324Y-108980836D01*
X131322546Y-108980819D01*
X131229616Y-108980677D01*
X131151062Y-108980379D01*
X131085636Y-108979894D01*
X131032089Y-108979187D01*
X130989171Y-108978226D01*
X130955634Y-108976977D01*
X130930228Y-108975407D01*
X130911706Y-108973484D01*
X130898817Y-108971174D01*
X130892833Y-108969436D01*
X130859176Y-108951214D01*
X130837145Y-108925775D01*
X130828129Y-108895463D01*
X130832012Y-108866775D01*
X130841427Y-108847611D01*
X130856544Y-108832370D01*
X130878920Y-108820669D01*
X130910113Y-108812124D01*
X130951682Y-108806352D01*
X131005183Y-108802967D01*
X131072176Y-108801588D01*
X131097036Y-108801507D01*
X131232697Y-108801507D01*
X131232697Y-108672347D01*
X131232375Y-108621174D01*
X131231330Y-108584005D01*
X131229442Y-108559228D01*
X131226592Y-108545232D01*
X131222931Y-108540469D01*
X131211082Y-108537625D01*
X131188313Y-108532491D01*
X131158983Y-108526048D01*
X131150661Y-108524244D01*
X131064175Y-108501018D01*
X130986266Y-108469836D01*
X130913787Y-108428917D01*
X130843590Y-108376483D01*
X130772531Y-108310755D01*
X130771731Y-108309949D01*
X130713213Y-108246870D01*
X130665784Y-108185634D01*
X130627251Y-108122381D01*
X130595419Y-108053250D01*
X130568092Y-107974378D01*
X130555113Y-107928900D01*
X130547645Y-107899908D01*
X130542224Y-107874494D01*
X130538528Y-107849211D01*
X130536237Y-107820613D01*
X130535033Y-107785256D01*
X130534594Y-107739693D01*
X130534563Y-107707690D01*
X130534753Y-107655525D01*
X130535411Y-107616278D01*
X130536783Y-107587241D01*
X130539117Y-107565708D01*
X130542661Y-107548972D01*
X130547662Y-107534325D01*
X130551168Y-107526079D01*
X130569237Y-107495034D01*
X130590397Y-107478544D01*
X130616745Y-107475572D01*
X130641067Y-107481551D01*
G37*
G36*
X135016158Y-106687996D02*
G01*
X135137692Y-106715432D01*
X135178252Y-106728024D01*
X135286276Y-106771703D01*
X135391494Y-106829288D01*
X135491699Y-106899072D01*
X135584682Y-106979345D01*
X135668236Y-107068400D01*
X135737746Y-107160896D01*
X135800763Y-107269331D01*
X135851475Y-107386339D01*
X135889299Y-107510159D01*
X135913653Y-107639034D01*
X135921384Y-107715503D01*
X135923395Y-107753715D01*
X135924956Y-107802260D01*
X135926086Y-107859220D01*
X135926802Y-107922674D01*
X135927123Y-107990705D01*
X135927067Y-108061393D01*
X135926653Y-108132819D01*
X135925899Y-108203064D01*
X135924822Y-108270209D01*
X135923443Y-108332336D01*
X135921778Y-108387524D01*
X135919847Y-108433855D01*
X135917667Y-108469410D01*
X135915257Y-108492270D01*
X135913901Y-108498556D01*
X135892770Y-108540215D01*
X135859822Y-108579100D01*
X135818866Y-108612099D01*
X135773706Y-108636097D01*
X135731728Y-108647549D01*
X135702472Y-108656877D01*
X135684035Y-108674460D01*
X135678532Y-108694338D01*
X135672870Y-108717388D01*
X135658258Y-108746817D01*
X135637273Y-108778447D01*
X135612486Y-108808103D01*
X135601898Y-108818652D01*
X135559843Y-108850643D01*
X135521570Y-108867328D01*
X135489725Y-108875694D01*
X135464789Y-108878391D01*
X135439208Y-108875516D01*
X135411104Y-108868703D01*
X135357547Y-108846625D01*
X135311762Y-108812300D01*
X135276202Y-108767859D01*
X135261350Y-108738582D01*
X135258752Y-108729706D01*
X135256522Y-108715778D01*
X135254621Y-108695578D01*
X135253010Y-108667890D01*
X135251650Y-108631495D01*
X135250499Y-108585175D01*
X135249520Y-108527713D01*
X135248673Y-108457890D01*
X135247917Y-108374489D01*
X135247435Y-108309289D01*
X135246767Y-108217163D01*
X135246243Y-108139302D01*
X135246028Y-108074346D01*
X135246285Y-108020934D01*
X135247176Y-107977705D01*
X135248866Y-107943298D01*
X135251518Y-107916354D01*
X135255294Y-107895511D01*
X135260357Y-107879409D01*
X135266872Y-107866686D01*
X135275001Y-107855983D01*
X135284908Y-107845939D01*
X135296755Y-107835192D01*
X135305229Y-107827504D01*
X135351872Y-107794665D01*
X135404439Y-107775842D01*
X135460783Y-107771770D01*
X135467026Y-107772246D01*
X135522396Y-107784728D01*
X135571361Y-107811142D01*
X135613010Y-107850794D01*
X135646431Y-107902988D01*
X135651102Y-107912780D01*
X135664013Y-107938471D01*
X135674717Y-107952343D01*
X135685844Y-107957434D01*
X135690013Y-107957705D01*
X135700689Y-107956082D01*
X135707135Y-107948757D01*
X135711343Y-107932042D01*
X135713945Y-107913412D01*
X135716279Y-107876044D01*
X135715858Y-107827992D01*
X135712972Y-107773896D01*
X135707911Y-107718398D01*
X135700964Y-107666141D01*
X135697127Y-107644007D01*
X135667829Y-107528089D01*
X135625352Y-107417445D01*
X135570655Y-107313655D01*
X135504698Y-107218300D01*
X135428439Y-107132964D01*
X135342837Y-107059227D01*
X135342325Y-107058843D01*
X135301824Y-107032114D01*
X135251002Y-107003939D01*
X135194701Y-106976636D01*
X135137766Y-106952527D01*
X135085039Y-106933932D01*
X135075881Y-106931210D01*
X134974005Y-106908298D01*
X134874030Y-106898148D01*
X134778960Y-106901051D01*
X134773263Y-106901671D01*
X134714987Y-106911313D01*
X134650105Y-106927007D01*
X134584650Y-106946972D01*
X134524652Y-106969428D01*
X134489840Y-106985319D01*
X134390329Y-107044130D01*
X134299582Y-107115452D01*
X134218644Y-107198209D01*
X134148560Y-107291327D01*
X134090374Y-107393730D01*
X134087795Y-107399077D01*
X134052313Y-107481607D01*
X134026190Y-107562797D01*
X134008557Y-107646686D01*
X133998545Y-107737313D01*
X133995325Y-107828791D01*
X133994586Y-107938172D01*
X134014857Y-107940527D01*
X134028033Y-107940002D01*
X134037267Y-107932269D01*
X134046189Y-107913798D01*
X134048534Y-107907778D01*
X134069383Y-107870029D01*
X134100762Y-107833591D01*
X134138012Y-107803454D01*
X134155427Y-107793288D01*
X134206178Y-107775700D01*
X134259060Y-107772158D01*
X134311265Y-107781883D01*
X134359987Y-107804095D01*
X134402421Y-107838014D01*
X134427207Y-107868798D01*
X134451645Y-107905693D01*
X134451645Y-108301650D01*
X134451515Y-108401741D01*
X134451112Y-108486926D01*
X134450423Y-108557921D01*
X134449430Y-108615443D01*
X134448120Y-108660208D01*
X134446476Y-108692935D01*
X134444482Y-108714339D01*
X134442502Y-108724164D01*
X134417098Y-108774773D01*
X134378028Y-108818264D01*
X134352253Y-108838184D01*
X134331119Y-108852260D01*
X134314344Y-108861002D01*
X134297036Y-108865678D01*
X134274307Y-108867560D01*
X134241265Y-108867916D01*
X134237762Y-108867917D01*
X134202006Y-108867402D01*
X134176990Y-108865217D01*
X134157845Y-108860405D01*
X134139700Y-108852010D01*
X134130660Y-108846864D01*
X134081276Y-108809119D01*
X134043041Y-108761168D01*
X134022289Y-108718634D01*
X134012032Y-108692937D01*
X134002772Y-108672650D01*
X133997472Y-108663550D01*
X133986594Y-108656862D01*
X133965102Y-108647872D01*
X133937447Y-108638422D01*
X133934697Y-108637578D01*
X133881809Y-108614595D01*
X133838693Y-108581477D01*
X133807094Y-108539858D01*
X133792036Y-108504155D01*
X133788973Y-108485687D01*
X133786300Y-108453466D01*
X133784019Y-108409362D01*
X133782131Y-108355243D01*
X133780638Y-108292977D01*
X133779542Y-108224433D01*
X133778845Y-108151481D01*
X133778548Y-108075988D01*
X133778654Y-107999823D01*
X133779163Y-107924856D01*
X133780077Y-107852954D01*
X133781400Y-107785986D01*
X133783131Y-107725822D01*
X133785273Y-107674330D01*
X133787827Y-107633377D01*
X133790796Y-107604835D01*
X133791199Y-107602214D01*
X133819832Y-107472519D01*
X133862207Y-107349434D01*
X133917635Y-107233776D01*
X133985425Y-107126359D01*
X134064889Y-107027998D01*
X134155338Y-106939509D01*
X134256081Y-106861706D01*
X134366430Y-106795404D01*
X134485695Y-106741419D01*
X134534009Y-106724036D01*
X134650519Y-106693137D01*
X134770857Y-106676838D01*
X134893308Y-106675128D01*
X135016158Y-106687996D01*
G37*
G36*
X133789343Y-106022961D02*
G01*
X134012740Y-106023014D01*
X134227714Y-106023103D01*
X134433862Y-106023227D01*
X134630780Y-106023384D01*
X134818064Y-106023575D01*
X134995310Y-106023799D01*
X135162114Y-106024055D01*
X135318073Y-106024341D01*
X135462782Y-106024658D01*
X135595838Y-106025004D01*
X135716837Y-106025379D01*
X135825376Y-106025781D01*
X135921049Y-106026211D01*
X136003455Y-106026666D01*
X136072187Y-106027147D01*
X136126844Y-106027653D01*
X136167021Y-106028182D01*
X136192314Y-106028735D01*
X136201753Y-106029215D01*
X136259499Y-106040018D01*
X136321431Y-106057903D01*
X136381026Y-106080677D01*
X136431759Y-106106146D01*
X136433331Y-106107081D01*
X136459085Y-106124540D01*
X136490616Y-106148857D01*
X136522627Y-106175864D01*
X136535279Y-106187320D01*
X136603297Y-106258801D01*
X136656990Y-106334048D01*
X136697541Y-106414940D01*
X136719874Y-106479847D01*
X136736942Y-106539649D01*
X136739184Y-109657028D01*
X136741426Y-112774407D01*
X136724671Y-112847881D01*
X136697262Y-112934842D01*
X136656727Y-113016610D01*
X136604638Y-113091844D01*
X136542566Y-113159204D01*
X136472084Y-113217349D01*
X136394765Y-113264937D01*
X136312180Y-113300629D01*
X136225903Y-113323082D01*
X136158781Y-113330471D01*
X136143895Y-113330784D01*
X136114062Y-113331089D01*
X136069963Y-113331387D01*
X136012277Y-113331677D01*
X135941685Y-113331958D01*
X135858866Y-113332231D01*
X135764499Y-113332495D01*
X135659266Y-113332749D01*
X135543844Y-113332994D01*
X135418916Y-113333229D01*
X135285159Y-113333454D01*
X135143254Y-113333669D01*
X134993881Y-113333872D01*
X134837719Y-113334065D01*
X134675449Y-113334246D01*
X134507749Y-113334415D01*
X134335301Y-113334573D01*
X134158784Y-113334718D01*
X133978877Y-113334851D01*
X133796260Y-113334971D01*
X133611614Y-113335077D01*
X133425617Y-113335170D01*
X133238950Y-113335250D01*
X133052293Y-113335315D01*
X132866326Y-113335366D01*
X132681727Y-113335402D01*
X132499178Y-113335423D01*
X132319357Y-113335429D01*
X132142945Y-113335419D01*
X131970621Y-113335394D01*
X131803066Y-113335352D01*
X131640959Y-113335294D01*
X131484979Y-113335219D01*
X131335807Y-113335127D01*
X131194123Y-113335017D01*
X131060606Y-113334890D01*
X130935936Y-113334745D01*
X130820792Y-113334582D01*
X130715856Y-113334400D01*
X130621806Y-113334199D01*
X130539322Y-113333979D01*
X130469084Y-113333739D01*
X130411773Y-113333480D01*
X130368067Y-113333200D01*
X130349830Y-113333036D01*
X129978714Y-113329129D01*
X129916210Y-113307043D01*
X129827872Y-113269950D01*
X129750617Y-113224311D01*
X129681802Y-113168131D01*
X129618782Y-113099416D01*
X129588941Y-113060182D01*
X129556322Y-113011071D01*
X129530937Y-112963145D01*
X129510533Y-112911283D01*
X129492858Y-112850362D01*
X129488061Y-112830858D01*
X129470870Y-112758781D01*
X129470870Y-110332851D01*
X129613639Y-110332851D01*
X129617791Y-111557536D01*
X129618334Y-111721547D01*
X129618818Y-111870686D01*
X129619271Y-112005706D01*
X129619722Y-112127360D01*
X129620197Y-112236402D01*
X129620726Y-112333586D01*
X129621336Y-112419664D01*
X129622055Y-112495390D01*
X129622912Y-112561518D01*
X129623933Y-112618801D01*
X129625148Y-112667991D01*
X129626585Y-112709844D01*
X129628270Y-112745111D01*
X129630233Y-112774547D01*
X129632502Y-112798905D01*
X129635104Y-112818938D01*
X129638067Y-112835399D01*
X129641420Y-112849043D01*
X129645190Y-112860621D01*
X129649406Y-112870889D01*
X129654095Y-112880599D01*
X129659286Y-112890505D01*
X129665007Y-112901359D01*
X129667999Y-112907228D01*
X129715512Y-112986898D01*
X129771546Y-113053497D01*
X129836041Y-113106981D01*
X129908939Y-113147307D01*
X129990182Y-113174432D01*
X130045124Y-113184656D01*
X130055940Y-113185068D01*
X130081843Y-113185467D01*
X130122293Y-113185853D01*
X130176751Y-113186225D01*
X130244677Y-113186582D01*
X130325534Y-113186922D01*
X130418780Y-113187246D01*
X130523877Y-113187553D01*
X130640285Y-113187841D01*
X130767466Y-113188110D01*
X130904879Y-113188359D01*
X131051986Y-113188587D01*
X131208247Y-113188793D01*
X131373123Y-113188976D01*
X131546074Y-113189136D01*
X131726562Y-113189272D01*
X131914047Y-113189383D01*
X132107989Y-113189468D01*
X132307850Y-113189526D01*
X132513089Y-113189556D01*
X132723169Y-113189558D01*
X132937549Y-113189530D01*
X133139064Y-113189478D01*
X133398954Y-113189392D01*
X133643679Y-113189307D01*
X133873704Y-113189220D01*
X134089490Y-113189128D01*
X134291501Y-113189030D01*
X134480198Y-113188922D01*
X134656044Y-113188803D01*
X134819502Y-113188670D01*
X134971034Y-113188521D01*
X135111103Y-113188354D01*
X135240170Y-113188166D01*
X135358700Y-113187955D01*
X135467154Y-113187718D01*
X135565994Y-113187454D01*
X135655684Y-113187160D01*
X135736685Y-113186834D01*
X135809461Y-113186473D01*
X135874473Y-113186074D01*
X135932185Y-113185637D01*
X135983058Y-113185158D01*
X136027556Y-113184635D01*
X136066141Y-113184066D01*
X136099275Y-113183448D01*
X136127421Y-113182779D01*
X136151041Y-113182057D01*
X136170598Y-113181280D01*
X136186554Y-113180444D01*
X136199373Y-113179549D01*
X136209516Y-113178591D01*
X136217445Y-113177568D01*
X136223624Y-113176478D01*
X136228516Y-113175318D01*
X136232581Y-113174087D01*
X136233005Y-113173944D01*
X136290946Y-113150848D01*
X136349315Y-113121506D01*
X136400676Y-113089712D01*
X136407018Y-113085183D01*
X136437987Y-113058137D01*
X136471700Y-113021440D01*
X136504487Y-112979689D01*
X136532675Y-112937481D01*
X136548952Y-112907525D01*
X136554483Y-112896008D01*
X136559514Y-112885431D01*
X136564071Y-112875039D01*
X136568178Y-112864079D01*
X136571860Y-112851796D01*
X136575143Y-112837438D01*
X136578052Y-112820249D01*
X136580611Y-112799477D01*
X136582847Y-112774367D01*
X136584783Y-112744166D01*
X136586445Y-112708119D01*
X136587859Y-112665474D01*
X136589048Y-112615475D01*
X136590039Y-112557369D01*
X136590857Y-112490402D01*
X136591526Y-112413820D01*
X136592071Y-112326871D01*
X136592519Y-112228798D01*
X136592893Y-112118849D01*
X136593219Y-111996271D01*
X136593522Y-111860308D01*
X136593827Y-111710207D01*
X136594150Y-111549723D01*
X136596641Y-110332851D01*
X133105140Y-110332851D01*
X129613639Y-110332851D01*
X129470870Y-110332851D01*
X129470870Y-110215656D01*
X129615410Y-110215656D01*
X131330359Y-110215656D01*
X133045309Y-110215656D01*
X133045309Y-108192094D01*
X133045309Y-106168532D01*
X131597954Y-106168600D01*
X131412680Y-106168605D01*
X131242356Y-106168616D01*
X131086309Y-106168653D01*
X130943863Y-106168738D01*
X130814344Y-106168893D01*
X130697077Y-106169139D01*
X130591386Y-106169497D01*
X130496597Y-106169987D01*
X130412035Y-106170633D01*
X130337025Y-106171453D01*
X130270892Y-106172471D01*
X130212962Y-106173707D01*
X130162560Y-106175183D01*
X130119010Y-106176919D01*
X130081638Y-106178937D01*
X130049769Y-106181258D01*
X130022728Y-106183903D01*
X129999840Y-106186895D01*
X129980431Y-106190253D01*
X129963825Y-106193999D01*
X129949348Y-106198155D01*
X129936324Y-106202741D01*
X129924079Y-106207780D01*
X129911939Y-106213291D01*
X129899227Y-106219297D01*
X129892877Y-106222291D01*
X129828432Y-106259046D01*
X129771019Y-106306288D01*
X129718149Y-106366189D01*
X129700530Y-106390161D01*
X129667510Y-106442905D01*
X129644734Y-106494734D01*
X129629976Y-106551588D01*
X129623360Y-106596391D01*
X129622418Y-106612621D01*
X129621531Y-106644224D01*
X129620700Y-106690951D01*
X129619926Y-106752548D01*
X129619210Y-106828765D01*
X129618553Y-106919349D01*
X129617957Y-107024049D01*
X129617422Y-107142614D01*
X129616949Y-107274792D01*
X129616540Y-107420331D01*
X129616196Y-107578979D01*
X129615917Y-107750485D01*
X129615705Y-107934598D01*
X129615561Y-108131065D01*
X129615486Y-108339636D01*
X129615474Y-108440156D01*
X129615410Y-110215656D01*
X129470870Y-110215656D01*
X129470870Y-109676561D01*
X129470879Y-109405548D01*
X129470906Y-109149761D01*
X129470953Y-108908802D01*
X129471021Y-108682270D01*
X129471112Y-108469765D01*
X129471226Y-108270889D01*
X129471365Y-108085241D01*
X129471529Y-107912422D01*
X129471722Y-107752033D01*
X129471943Y-107603674D01*
X129472193Y-107466945D01*
X129472475Y-107341448D01*
X129472789Y-107226781D01*
X129473137Y-107122546D01*
X129473520Y-107028344D01*
X129473939Y-106943774D01*
X129474396Y-106868437D01*
X129474891Y-106801934D01*
X129475426Y-106743865D01*
X129476003Y-106693830D01*
X129476622Y-106651430D01*
X129477285Y-106616266D01*
X129477993Y-106587937D01*
X129478747Y-106566045D01*
X129479548Y-106550189D01*
X129480399Y-106539971D01*
X129480805Y-106537067D01*
X129503470Y-106445270D01*
X129537843Y-106363127D01*
X129565247Y-106316864D01*
X129628214Y-106236582D01*
X129701675Y-106167034D01*
X129702907Y-106166172D01*
X133162503Y-106166172D01*
X133162503Y-108192867D01*
X133162503Y-110219563D01*
X134882324Y-110217575D01*
X136602144Y-110215587D01*
X136597985Y-108393244D01*
X136597535Y-108191783D01*
X136597132Y-108005342D01*
X136596758Y-107833314D01*
X136596397Y-107675093D01*
X136596035Y-107530072D01*
X136595654Y-107397645D01*
X136595238Y-107277205D01*
X136594773Y-107168147D01*
X136594240Y-107069863D01*
X136593626Y-106981748D01*
X136592912Y-106903195D01*
X136592085Y-106833597D01*
X136591126Y-106772349D01*
X136590022Y-106718843D01*
X136588754Y-106672474D01*
X136587309Y-106632635D01*
X136585668Y-106598720D01*
X136583817Y-106570122D01*
X136581740Y-106546234D01*
X136579419Y-106526452D01*
X136576841Y-106510167D01*
X136573987Y-106496775D01*
X136570843Y-106485667D01*
X136567392Y-106476239D01*
X136563619Y-106467883D01*
X136559506Y-106459994D01*
X136555039Y-106451964D01*
X136550202Y-106443188D01*
X136546278Y-106435667D01*
X136501936Y-106364865D01*
X136444938Y-106301969D01*
X136376933Y-106248598D01*
X136324939Y-106218417D01*
X136315345Y-106213401D01*
X136306723Y-106208794D01*
X136298405Y-106204577D01*
X136289723Y-106200731D01*
X136280012Y-106197235D01*
X136268604Y-106194072D01*
X136254831Y-106191221D01*
X136238026Y-106188663D01*
X136217523Y-106186380D01*
X136192653Y-106184352D01*
X136162751Y-106182559D01*
X136127148Y-106180982D01*
X136085178Y-106179603D01*
X136036173Y-106178401D01*
X135979466Y-106177358D01*
X135914391Y-106176454D01*
X135840279Y-106175669D01*
X135756464Y-106174986D01*
X135662279Y-106174384D01*
X135557056Y-106173844D01*
X135440128Y-106173347D01*
X135310828Y-106172873D01*
X135168490Y-106172404D01*
X135012445Y-106171920D01*
X134842027Y-106171402D01*
X134680175Y-106170903D01*
X133162503Y-106166172D01*
X129702907Y-106166172D01*
X129784117Y-106109328D01*
X129874026Y-106064571D01*
X129941610Y-106041250D01*
X130002153Y-106023992D01*
X133072654Y-106023026D01*
X133318896Y-106022966D01*
X133557927Y-106022945D01*
X133789343Y-106022961D01*
G37*
%TO.C,G2*%
G36*
X99287450Y-111578252D02*
G01*
X99287450Y-111711073D01*
X99002276Y-111711073D01*
X98717102Y-111711073D01*
X98717102Y-111578252D01*
X98717102Y-111445432D01*
X99002276Y-111445432D01*
X99287450Y-111445432D01*
X99287450Y-111578252D01*
G37*
G36*
X101498535Y-107212750D02*
G01*
X101498631Y-107264946D01*
X101498905Y-107330340D01*
X101499338Y-107406507D01*
X101499912Y-107491019D01*
X101500608Y-107581450D01*
X101501410Y-107675374D01*
X101502298Y-107770364D01*
X101503254Y-107863995D01*
X101503671Y-107902245D01*
X101508796Y-108363211D01*
X101361751Y-108366111D01*
X101214705Y-108369010D01*
X101219887Y-108179287D01*
X101220823Y-108136722D01*
X101221705Y-108080580D01*
X101222518Y-108012909D01*
X101223245Y-107935757D01*
X101223872Y-107851173D01*
X101224383Y-107761206D01*
X101224763Y-107667905D01*
X101224996Y-107573316D01*
X101225069Y-107486892D01*
X101225069Y-106984220D01*
X101361796Y-106984220D01*
X101498523Y-106984220D01*
X101498535Y-107212750D01*
G37*
G36*
X102112581Y-107024743D02*
G01*
X102120108Y-107038931D01*
X102133407Y-107063152D01*
X102152676Y-107097757D01*
X102178113Y-107143093D01*
X102209915Y-107199512D01*
X102248280Y-107267362D01*
X102293405Y-107346992D01*
X102345489Y-107438752D01*
X102404727Y-107542991D01*
X102471319Y-107660058D01*
X102545461Y-107790303D01*
X102552701Y-107803018D01*
X102611873Y-107906928D01*
X102613888Y-107445574D01*
X102615903Y-106984220D01*
X102752568Y-106984220D01*
X102889234Y-106984220D01*
X102889234Y-107213416D01*
X102889330Y-107265883D01*
X102889607Y-107331531D01*
X102890046Y-107407918D01*
X102890628Y-107492599D01*
X102891336Y-107583132D01*
X102892150Y-107677072D01*
X102893053Y-107771978D01*
X102894026Y-107865405D01*
X102894422Y-107901120D01*
X102899611Y-108359629D01*
X102737010Y-108357514D01*
X102574409Y-108355398D01*
X102442775Y-108124915D01*
X102404012Y-108057117D01*
X102361003Y-107982018D01*
X102316115Y-107903745D01*
X102271718Y-107826425D01*
X102230180Y-107754187D01*
X102193869Y-107691157D01*
X102191959Y-107687846D01*
X102072777Y-107481260D01*
X102070759Y-107924189D01*
X102068742Y-108367117D01*
X101932351Y-108367117D01*
X101795961Y-108367117D01*
X101797063Y-107675669D01*
X101798165Y-106984220D01*
X101945106Y-106984220D01*
X102092046Y-106984220D01*
X102112581Y-107024743D01*
G37*
G36*
X101368390Y-110904383D02*
G01*
X101369435Y-110928066D01*
X101370408Y-110965390D01*
X101371288Y-111014370D01*
X101372050Y-111073019D01*
X101372672Y-111139353D01*
X101373132Y-111211387D01*
X101373405Y-111287135D01*
X101373475Y-111345816D01*
X101373515Y-111711073D01*
X101441879Y-111711073D01*
X101510243Y-111711073D01*
X101510243Y-111816548D01*
X101510243Y-111922024D01*
X101441879Y-111922024D01*
X101373515Y-111922024D01*
X101373515Y-112047031D01*
X101373515Y-112172039D01*
X101252414Y-112172039D01*
X101131313Y-112172039D01*
X101131313Y-112047031D01*
X101131313Y-111922024D01*
X100818794Y-111922024D01*
X100506275Y-111922024D01*
X100506275Y-111818758D01*
X100506275Y-111715493D01*
X100508925Y-111711073D01*
X100809706Y-111711073D01*
X100970510Y-111711073D01*
X101131313Y-111711073D01*
X101131284Y-111431759D01*
X101131255Y-111152445D01*
X101114542Y-111179790D01*
X101106699Y-111193100D01*
X101092208Y-111218166D01*
X101072122Y-111253147D01*
X101047494Y-111296203D01*
X101019377Y-111345495D01*
X100988825Y-111399181D01*
X100969209Y-111433712D01*
X100937748Y-111489080D01*
X100908137Y-111541091D01*
X100881416Y-111587925D01*
X100858627Y-111627762D01*
X100840809Y-111658780D01*
X100829005Y-111679161D01*
X100825147Y-111685681D01*
X100809706Y-111711073D01*
X100508925Y-111711073D01*
X100772250Y-111271849D01*
X101038226Y-110828206D01*
X101200786Y-110828206D01*
X101363346Y-110828206D01*
X101368390Y-110904383D01*
G37*
G36*
X99968539Y-110812878D02*
G01*
X100018234Y-110817607D01*
X100053122Y-110824177D01*
X100128436Y-110851375D01*
X100195272Y-110891076D01*
X100252472Y-110941980D01*
X100298876Y-111002784D01*
X100333325Y-111072186D01*
X100354659Y-111148885D01*
X100357384Y-111165935D01*
X100362115Y-111244030D01*
X100353415Y-111318510D01*
X100330750Y-111391549D01*
X100293591Y-111465322D01*
X100278172Y-111490022D01*
X100257852Y-111517505D01*
X100227296Y-111553828D01*
X100187969Y-111597473D01*
X100141334Y-111646922D01*
X100088856Y-111700657D01*
X100031999Y-111757159D01*
X99972226Y-111814912D01*
X99911002Y-111872396D01*
X99896862Y-111885426D01*
X99814826Y-111960747D01*
X100094140Y-111960918D01*
X100373454Y-111961088D01*
X100373454Y-112066564D01*
X100373454Y-112172039D01*
X99924208Y-112172039D01*
X99474961Y-112172039D01*
X99474961Y-112072471D01*
X99474961Y-111972904D01*
X99704451Y-111742373D01*
X99777018Y-111669201D01*
X99839185Y-111605854D01*
X99891833Y-111551348D01*
X99935845Y-111504696D01*
X99972102Y-111464912D01*
X100001486Y-111431010D01*
X100024878Y-111402003D01*
X100043160Y-111376906D01*
X100057213Y-111354733D01*
X100066526Y-111337377D01*
X100077338Y-111313315D01*
X100083877Y-111291609D01*
X100087169Y-111266798D01*
X100088239Y-111233419D01*
X100088280Y-111221482D01*
X100087913Y-111186745D01*
X100086129Y-111163058D01*
X100081906Y-111145849D01*
X100074221Y-111130548D01*
X100064770Y-111116433D01*
X100031817Y-111081038D01*
X99990751Y-111057899D01*
X99940286Y-111046419D01*
X99910851Y-111044863D01*
X99854979Y-111050412D01*
X99809201Y-111067835D01*
X99773370Y-111097263D01*
X99747334Y-111138830D01*
X99730945Y-111192669D01*
X99728519Y-111206837D01*
X99723202Y-111242294D01*
X99588655Y-111242294D01*
X99454108Y-111242294D01*
X99460629Y-111193463D01*
X99478751Y-111107965D01*
X99508741Y-111031838D01*
X99550086Y-110965700D01*
X99602269Y-110910171D01*
X99664776Y-110865870D01*
X99737091Y-110833416D01*
X99767948Y-110824076D01*
X99808025Y-110816755D01*
X99858264Y-110812450D01*
X99913492Y-110811158D01*
X99968539Y-110812878D01*
G37*
G36*
X102776077Y-110851044D02*
G01*
X102772860Y-110862352D01*
X102765277Y-110887241D01*
X102753741Y-110924418D01*
X102738662Y-110972587D01*
X102720452Y-111030452D01*
X102699524Y-111096717D01*
X102676289Y-111170089D01*
X102651158Y-111249270D01*
X102624544Y-111332967D01*
X102596858Y-111419883D01*
X102568512Y-111508723D01*
X102539917Y-111598192D01*
X102511485Y-111686995D01*
X102483629Y-111773835D01*
X102456759Y-111857419D01*
X102431287Y-111936449D01*
X102419149Y-111974025D01*
X102355128Y-112172039D01*
X102216367Y-112172039D01*
X102171378Y-112171661D01*
X102131979Y-112170610D01*
X102100757Y-112169016D01*
X102080297Y-112167004D01*
X102073250Y-112164990D01*
X102070317Y-112156964D01*
X102062853Y-112135429D01*
X102051287Y-112101666D01*
X102036053Y-112056956D01*
X102017582Y-112002579D01*
X101996304Y-111939817D01*
X101972653Y-111869950D01*
X101947059Y-111794257D01*
X101919955Y-111714021D01*
X101891771Y-111630522D01*
X101862939Y-111545041D01*
X101833892Y-111458857D01*
X101805060Y-111373252D01*
X101776875Y-111289507D01*
X101749770Y-111208902D01*
X101724175Y-111132718D01*
X101700522Y-111062235D01*
X101679242Y-110998734D01*
X101660768Y-110943496D01*
X101645531Y-110897802D01*
X101633963Y-110862932D01*
X101626495Y-110840166D01*
X101623559Y-110830786D01*
X101623531Y-110830630D01*
X101630937Y-110829862D01*
X101651525Y-110829195D01*
X101682854Y-110828669D01*
X101722480Y-110828326D01*
X101766770Y-110828206D01*
X101910010Y-110828206D01*
X101933822Y-110908289D01*
X101940731Y-110931513D01*
X101951569Y-110967933D01*
X101965807Y-111015768D01*
X101982914Y-111073237D01*
X102002361Y-111138561D01*
X102023617Y-111209958D01*
X102046153Y-111285649D01*
X102069438Y-111363852D01*
X102075118Y-111382928D01*
X102097842Y-111459298D01*
X102119393Y-111531832D01*
X102139324Y-111599018D01*
X102157188Y-111659344D01*
X102172538Y-111711299D01*
X102184929Y-111753373D01*
X102193911Y-111784053D01*
X102199040Y-111801828D01*
X102199870Y-111804829D01*
X102207139Y-111832174D01*
X102215194Y-111804829D01*
X102228973Y-111757849D01*
X102246165Y-111698922D01*
X102266041Y-111630563D01*
X102287877Y-111555285D01*
X102310945Y-111475605D01*
X102334520Y-111394037D01*
X102357874Y-111313096D01*
X102380282Y-111235297D01*
X102401016Y-111163155D01*
X102419351Y-111099185D01*
X102434560Y-111045901D01*
X102443124Y-111015718D01*
X102495019Y-110832113D01*
X102638096Y-110829981D01*
X102781172Y-110827849D01*
X102776077Y-110851044D01*
G37*
G36*
X101022069Y-108957510D02*
G01*
X101043361Y-108969525D01*
X101071641Y-108987276D01*
X101104183Y-109008902D01*
X101138261Y-109032541D01*
X101171151Y-109056334D01*
X101200127Y-109078417D01*
X101222463Y-109096932D01*
X101226419Y-109100531D01*
X101279760Y-109150308D01*
X101279760Y-109293795D01*
X101279760Y-109437282D01*
X101535635Y-109439342D01*
X101791510Y-109441402D01*
X101793726Y-109525285D01*
X101795943Y-109609167D01*
X101539804Y-109611227D01*
X101283666Y-109613288D01*
X101281534Y-109751537D01*
X101279403Y-109889787D01*
X101214192Y-109946952D01*
X101188261Y-109968711D01*
X101157295Y-109993206D01*
X101123870Y-110018573D01*
X101090563Y-110042951D01*
X101059953Y-110064477D01*
X101034616Y-110081291D01*
X101017130Y-110091529D01*
X101010956Y-110093786D01*
X101009809Y-110086286D01*
X101008765Y-110065039D01*
X101007860Y-110031924D01*
X101007130Y-109988819D01*
X101006610Y-109937602D01*
X101006338Y-109880153D01*
X101006305Y-109851584D01*
X101006305Y-109609381D01*
X100512134Y-109609477D01*
X100017963Y-109609572D01*
X99959366Y-109635446D01*
X99931104Y-109648314D01*
X99890963Y-109667141D01*
X99841041Y-109690904D01*
X99783439Y-109718582D01*
X99720257Y-109749152D01*
X99653593Y-109781591D01*
X99585548Y-109814876D01*
X99518222Y-109847986D01*
X99453714Y-109879898D01*
X99394124Y-109909589D01*
X99341552Y-109936037D01*
X99328468Y-109942674D01*
X99185881Y-110015170D01*
X99185881Y-109812276D01*
X99185881Y-109609381D01*
X98795232Y-109609381D01*
X98404583Y-109609381D01*
X98404583Y-109523439D01*
X98404583Y-109437496D01*
X98795232Y-109437496D01*
X99185881Y-109437496D01*
X99185881Y-109242171D01*
X99186120Y-109188781D01*
X99186792Y-109140955D01*
X99187830Y-109100785D01*
X99189167Y-109070363D01*
X99190736Y-109051782D01*
X99192131Y-109046847D01*
X99203049Y-109051531D01*
X99205804Y-109053788D01*
X99214089Y-109058369D01*
X99234960Y-109068861D01*
X99266865Y-109084522D01*
X99308251Y-109104612D01*
X99357564Y-109128390D01*
X99413251Y-109155114D01*
X99473760Y-109184045D01*
X99537538Y-109214440D01*
X99603031Y-109245559D01*
X99668687Y-109276661D01*
X99732952Y-109307005D01*
X99794274Y-109335850D01*
X99851100Y-109362455D01*
X99901876Y-109386079D01*
X99913966Y-109391674D01*
X100013107Y-109437496D01*
X100509706Y-109437496D01*
X101006305Y-109437496D01*
X101006305Y-109195293D01*
X101006435Y-109135568D01*
X101006802Y-109081193D01*
X101007374Y-109034048D01*
X101008119Y-108996012D01*
X101009004Y-108968962D01*
X101009997Y-108954778D01*
X101010491Y-108953091D01*
X101022069Y-108957510D01*
G37*
G36*
X97656490Y-106986588D02*
G01*
X97747614Y-106987491D01*
X97824841Y-106988435D01*
X97889898Y-106989557D01*
X97944512Y-106990995D01*
X97990412Y-106992887D01*
X98029326Y-106995371D01*
X98062981Y-106998585D01*
X98093105Y-107002668D01*
X98121427Y-107007755D01*
X98149673Y-107013987D01*
X98179572Y-107021501D01*
X98212852Y-107030434D01*
X98215826Y-107031245D01*
X98279982Y-107052801D01*
X98347668Y-107082645D01*
X98415204Y-107118624D01*
X98478907Y-107158584D01*
X98535095Y-107200370D01*
X98580087Y-107241828D01*
X98585124Y-107247307D01*
X98627095Y-107300204D01*
X98668490Y-107363535D01*
X98706461Y-107432277D01*
X98738158Y-107501402D01*
X98754901Y-107546754D01*
X98778415Y-107635662D01*
X98794979Y-107734589D01*
X98804409Y-107839469D01*
X98806518Y-107946235D01*
X98801120Y-108050819D01*
X98788030Y-108149155D01*
X98783527Y-108172317D01*
X98756850Y-108276807D01*
X98722352Y-108369379D01*
X98678879Y-108452247D01*
X98625278Y-108527623D01*
X98563457Y-108594763D01*
X98491476Y-108656983D01*
X98413755Y-108708719D01*
X98327985Y-108751157D01*
X98231858Y-108785482D01*
X98150661Y-108806826D01*
X98133891Y-108810466D01*
X98116992Y-108813540D01*
X98098464Y-108816107D01*
X98076808Y-108818230D01*
X98050523Y-108819969D01*
X98018109Y-108821386D01*
X97978068Y-108822542D01*
X97928898Y-108823498D01*
X97869100Y-108824315D01*
X97797174Y-108825054D01*
X97711621Y-108825777D01*
X97679929Y-108826024D01*
X97279514Y-108829102D01*
X97279514Y-107906069D01*
X97279514Y-107310437D01*
X97629243Y-107310437D01*
X97632346Y-107899328D01*
X97632924Y-107994014D01*
X97633626Y-108084243D01*
X97634435Y-108168783D01*
X97635331Y-108246404D01*
X97636295Y-108315873D01*
X97637309Y-108375959D01*
X97638353Y-108425430D01*
X97639409Y-108463054D01*
X97640457Y-108487601D01*
X97641479Y-108497838D01*
X97641548Y-108497985D01*
X97651608Y-108501843D01*
X97674646Y-108504782D01*
X97708039Y-108506817D01*
X97749167Y-108507960D01*
X97795408Y-108508226D01*
X97844141Y-108507627D01*
X97892745Y-108506178D01*
X97938599Y-108503891D01*
X97979082Y-108500781D01*
X98011572Y-108496860D01*
X98016480Y-108496050D01*
X98089242Y-108479484D01*
X98149635Y-108457011D01*
X98196475Y-108430275D01*
X98258402Y-108378114D01*
X98309932Y-108314418D01*
X98350993Y-108239380D01*
X98381514Y-108153194D01*
X98401423Y-108056052D01*
X98410649Y-107948149D01*
X98410226Y-107852622D01*
X98400416Y-107746600D01*
X98380018Y-107651854D01*
X98349085Y-107568464D01*
X98307670Y-107496508D01*
X98255825Y-107436067D01*
X98193602Y-107387219D01*
X98121055Y-107350043D01*
X98064718Y-107331160D01*
X98043640Y-107326601D01*
X98015988Y-107322898D01*
X97979845Y-107319916D01*
X97933290Y-107317523D01*
X97874406Y-107315585D01*
X97823541Y-107314401D01*
X97629243Y-107310437D01*
X97279514Y-107310437D01*
X97279514Y-106983036D01*
X97656490Y-106986588D01*
G37*
G36*
X99937166Y-106964344D02*
G01*
X100012963Y-106974374D01*
X100088470Y-106989881D01*
X100159156Y-107009878D01*
X100220490Y-107033374D01*
X100238973Y-107042274D01*
X100320812Y-107091490D01*
X100394325Y-107149955D01*
X100457701Y-107215796D01*
X100509131Y-107287137D01*
X100546022Y-107360149D01*
X100558772Y-107395160D01*
X100570964Y-107434328D01*
X100581382Y-107473091D01*
X100588812Y-107506887D01*
X100592037Y-107531152D01*
X100592083Y-107533082D01*
X100592217Y-107554567D01*
X100400799Y-107554567D01*
X100341110Y-107554497D01*
X100295243Y-107554199D01*
X100261397Y-107553546D01*
X100237768Y-107552408D01*
X100222555Y-107550657D01*
X100213955Y-107548164D01*
X100210164Y-107544800D01*
X100209375Y-107540895D01*
X100204719Y-107519884D01*
X100192235Y-107490853D01*
X100174130Y-107457762D01*
X100152611Y-107424569D01*
X100129883Y-107395233D01*
X100125374Y-107390163D01*
X100077805Y-107346170D01*
X100025686Y-107314260D01*
X99966914Y-107293664D01*
X99899386Y-107283616D01*
X99831509Y-107282871D01*
X99771357Y-107287437D01*
X99721715Y-107296949D01*
X99677842Y-107312954D01*
X99634997Y-107337001D01*
X99607970Y-107355815D01*
X99553815Y-107405065D01*
X99507251Y-107466926D01*
X99469158Y-107539899D01*
X99440412Y-107622482D01*
X99432108Y-107656136D01*
X99426000Y-107693328D01*
X99420990Y-107742429D01*
X99417188Y-107799751D01*
X99414705Y-107861609D01*
X99413653Y-107924315D01*
X99414143Y-107984185D01*
X99416286Y-108037530D01*
X99419478Y-108074888D01*
X99435400Y-108173596D01*
X99458677Y-108259039D01*
X99489567Y-108331876D01*
X99528329Y-108392764D01*
X99557387Y-108425764D01*
X99613524Y-108471248D01*
X99678541Y-108505760D01*
X99749459Y-108528505D01*
X99823302Y-108538690D01*
X99897093Y-108535521D01*
X99938323Y-108527349D01*
X100007519Y-108501754D01*
X100069779Y-108463730D01*
X100123376Y-108415083D01*
X100166586Y-108357619D01*
X100197683Y-108293147D01*
X100212147Y-108240604D01*
X100220769Y-108195232D01*
X100405410Y-108195232D01*
X100590050Y-108195232D01*
X100586900Y-108216718D01*
X100574070Y-108292593D01*
X100559152Y-108356913D01*
X100540997Y-108413719D01*
X100518456Y-108467052D01*
X100511956Y-108480406D01*
X100460188Y-108567032D01*
X100396445Y-108644080D01*
X100321618Y-108710844D01*
X100236596Y-108766615D01*
X100142270Y-108810686D01*
X100064841Y-108835936D01*
X100022599Y-108844459D01*
X99969046Y-108850917D01*
X99908376Y-108855191D01*
X99844783Y-108857157D01*
X99782461Y-108856696D01*
X99725604Y-108853684D01*
X99678406Y-108848002D01*
X99674192Y-108847247D01*
X99572004Y-108821761D01*
X99475845Y-108784912D01*
X99388538Y-108737892D01*
X99345346Y-108708152D01*
X99274270Y-108645254D01*
X99210744Y-108569637D01*
X99155473Y-108482634D01*
X99109165Y-108385574D01*
X99072526Y-108279788D01*
X99046262Y-108166607D01*
X99041073Y-108135158D01*
X99035501Y-108086114D01*
X99031503Y-108025786D01*
X99029119Y-107958436D01*
X99028387Y-107888331D01*
X99029347Y-107819735D01*
X99032037Y-107756913D01*
X99036496Y-107704130D01*
X99037098Y-107699108D01*
X99054224Y-107600005D01*
X99080063Y-107504415D01*
X99113471Y-107415675D01*
X99153303Y-107337123D01*
X99170808Y-107309258D01*
X99202935Y-107266604D01*
X99243737Y-107220171D01*
X99288719Y-107174593D01*
X99333388Y-107134504D01*
X99361673Y-107112467D01*
X99437162Y-107066243D01*
X99523588Y-107027083D01*
X99617466Y-106996034D01*
X99715310Y-106974147D01*
X99813636Y-106962471D01*
X99865610Y-106960781D01*
X99937166Y-106964344D01*
G37*
G36*
X98075463Y-110814134D02*
G01*
X98119539Y-110819327D01*
X98142212Y-110824078D01*
X98218254Y-110852338D01*
X98286224Y-110893877D01*
X98345500Y-110948240D01*
X98389236Y-111005187D01*
X98424797Y-111066063D01*
X98452885Y-111129339D01*
X98474187Y-111197632D01*
X98489389Y-111273562D01*
X98499177Y-111359746D01*
X98503708Y-111441686D01*
X98504704Y-111549667D01*
X98499477Y-111645571D01*
X98487621Y-111731824D01*
X98468730Y-111810854D01*
X98442399Y-111885085D01*
X98422123Y-111929837D01*
X98377895Y-112004054D01*
X98323682Y-112067784D01*
X98260816Y-112119899D01*
X98190629Y-112159273D01*
X98123315Y-112182628D01*
X98075535Y-112191604D01*
X98019714Y-112197215D01*
X97963165Y-112199006D01*
X97913201Y-112196523D01*
X97908459Y-112195974D01*
X97834951Y-112181142D01*
X97767736Y-112156260D01*
X97709362Y-112122562D01*
X97662376Y-112081280D01*
X97655686Y-112073575D01*
X97636248Y-112046240D01*
X97616038Y-112011465D01*
X97597836Y-111974703D01*
X97584419Y-111941407D01*
X97579552Y-111924076D01*
X97574981Y-111901220D01*
X97687029Y-111888143D01*
X97738870Y-111882224D01*
X97777167Y-111878244D01*
X97803873Y-111876115D01*
X97820938Y-111875752D01*
X97830313Y-111877069D01*
X97833950Y-111879980D01*
X97834235Y-111881657D01*
X97840422Y-111894026D01*
X97856396Y-111910808D01*
X97878278Y-111928838D01*
X97902187Y-111944953D01*
X97924243Y-111955990D01*
X97926337Y-111956741D01*
X97980656Y-111967491D01*
X98034386Y-111963728D01*
X98085215Y-111946471D01*
X98130827Y-111916737D01*
X98168910Y-111875544D01*
X98189595Y-111840954D01*
X98203637Y-111804920D01*
X98216247Y-111759430D01*
X98226081Y-111710654D01*
X98231796Y-111664762D01*
X98232697Y-111642980D01*
X98232697Y-111607514D01*
X98197037Y-111640385D01*
X98171990Y-111660054D01*
X98139132Y-111681332D01*
X98105124Y-111699943D01*
X98101600Y-111701643D01*
X98069052Y-111716158D01*
X98042038Y-111725118D01*
X98013870Y-111730132D01*
X97977861Y-111732812D01*
X97970785Y-111733137D01*
X97890336Y-111731003D01*
X97818822Y-111716738D01*
X97754654Y-111689761D01*
X97696243Y-111649490D01*
X97666256Y-111621729D01*
X97616491Y-111560807D01*
X97579560Y-111491748D01*
X97555295Y-111414094D01*
X97543523Y-111327389D01*
X97542270Y-111289172D01*
X97543010Y-111260283D01*
X97804385Y-111260283D01*
X97805073Y-111297551D01*
X97815502Y-111362663D01*
X97837102Y-111416909D01*
X97869844Y-111460241D01*
X97913700Y-111492613D01*
X97923765Y-111497750D01*
X97949246Y-111508352D01*
X97972901Y-111513450D01*
X98001804Y-111514229D01*
X98017840Y-111513519D01*
X98049893Y-111510020D01*
X98079252Y-111503926D01*
X98097818Y-111497330D01*
X98137905Y-111470569D01*
X98173228Y-111436030D01*
X98196046Y-111403200D01*
X98203707Y-111386831D01*
X98208714Y-111369448D01*
X98211601Y-111347242D01*
X98212904Y-111316404D01*
X98213165Y-111281359D01*
X98212806Y-111240762D01*
X98211343Y-111211854D01*
X98208196Y-111190708D01*
X98202787Y-111173396D01*
X98194726Y-111156351D01*
X98164305Y-111108627D01*
X98129441Y-111074976D01*
X98087843Y-111053993D01*
X98037217Y-111044274D01*
X98010027Y-111043198D01*
X97976114Y-111043854D01*
X97952057Y-111046833D01*
X97932123Y-111053390D01*
X97910579Y-111064780D01*
X97910082Y-111065071D01*
X97866202Y-111099547D01*
X97833660Y-111144235D01*
X97812905Y-111198145D01*
X97804385Y-111260283D01*
X97543010Y-111260283D01*
X97543803Y-111229305D01*
X97550054Y-111178646D01*
X97562351Y-111131149D01*
X97582020Y-111080768D01*
X97593518Y-111055781D01*
X97634637Y-110987141D01*
X97687571Y-110927541D01*
X97750452Y-110878475D01*
X97821411Y-110841436D01*
X97888103Y-110820196D01*
X97925800Y-110814490D01*
X97973193Y-110811633D01*
X98024881Y-110811541D01*
X98075463Y-110814134D01*
G37*
G36*
X103092371Y-106279009D02*
G01*
X103182152Y-106310095D01*
X103263835Y-106353393D01*
X103336307Y-106407796D01*
X103398456Y-106472200D01*
X103449167Y-106545499D01*
X103487328Y-106626588D01*
X103506701Y-106690400D01*
X103508087Y-106696405D01*
X103509388Y-106702705D01*
X103510605Y-106709793D01*
X103511741Y-106718160D01*
X103512799Y-106728297D01*
X103513780Y-106740696D01*
X103514688Y-106755848D01*
X103515524Y-106774245D01*
X103516291Y-106796377D01*
X103516991Y-106822737D01*
X103517627Y-106853815D01*
X103518201Y-106890103D01*
X103518714Y-106932092D01*
X103519170Y-106980275D01*
X103519572Y-107035141D01*
X103519920Y-107097183D01*
X103520218Y-107166891D01*
X103520468Y-107244758D01*
X103520672Y-107331275D01*
X103520833Y-107426932D01*
X103520953Y-107532222D01*
X103521034Y-107647636D01*
X103521078Y-107773665D01*
X103521089Y-107910800D01*
X103521068Y-108059533D01*
X103521018Y-108220356D01*
X103520941Y-108393759D01*
X103520839Y-108580234D01*
X103520715Y-108780273D01*
X103520571Y-108994367D01*
X103520410Y-109223006D01*
X103520233Y-109466683D01*
X103520197Y-109516619D01*
X103518179Y-112277514D01*
X103496893Y-112340018D01*
X103467370Y-112412330D01*
X103429806Y-112476893D01*
X103381300Y-112538321D01*
X103354106Y-112567211D01*
X103287168Y-112627031D01*
X103216121Y-112673851D01*
X103136841Y-112710296D01*
X103119717Y-112716543D01*
X103057213Y-112738480D01*
X100096093Y-112740029D01*
X99840137Y-112740161D01*
X99599336Y-112740280D01*
X99373217Y-112740385D01*
X99161310Y-112740472D01*
X98963142Y-112740540D01*
X98778242Y-112740588D01*
X98606139Y-112740612D01*
X98446361Y-112740611D01*
X98298437Y-112740583D01*
X98161894Y-112740526D01*
X98036262Y-112740438D01*
X97921068Y-112740316D01*
X97815842Y-112740159D01*
X97720111Y-112739966D01*
X97633405Y-112739732D01*
X97555250Y-112739458D01*
X97485177Y-112739140D01*
X97422713Y-112738777D01*
X97367388Y-112738366D01*
X97318728Y-112737906D01*
X97276263Y-112737395D01*
X97239521Y-112736830D01*
X97208031Y-112736210D01*
X97181320Y-112735532D01*
X97158919Y-112734795D01*
X97140354Y-112733996D01*
X97125154Y-112733133D01*
X97112848Y-112732205D01*
X97102964Y-112731209D01*
X97095031Y-112730144D01*
X97088577Y-112729007D01*
X97083131Y-112727796D01*
X97080283Y-112727068D01*
X96988674Y-112694957D01*
X96904959Y-112649836D01*
X96830205Y-112592749D01*
X96765477Y-112524741D01*
X96711843Y-112446857D01*
X96670369Y-112360142D01*
X96652913Y-112308324D01*
X96634943Y-112246262D01*
X96634943Y-110507872D01*
X96838080Y-110507872D01*
X96840196Y-111349207D01*
X96840538Y-111486539D01*
X96840864Y-111609165D01*
X96841222Y-111718006D01*
X96841658Y-111813983D01*
X96842219Y-111898017D01*
X96842952Y-111971027D01*
X96843903Y-112033934D01*
X96845120Y-112087660D01*
X96846648Y-112133124D01*
X96848536Y-112171246D01*
X96850828Y-112202949D01*
X96853573Y-112229151D01*
X96856817Y-112250773D01*
X96860606Y-112268737D01*
X96864988Y-112283962D01*
X96870009Y-112297370D01*
X96875716Y-112309880D01*
X96882156Y-112322413D01*
X96889375Y-112335890D01*
X96890393Y-112337797D01*
X96932276Y-112400244D01*
X96985318Y-112452376D01*
X97048277Y-112493387D01*
X97119910Y-112522468D01*
X97198974Y-112538811D01*
X97199601Y-112538884D01*
X97211246Y-112539340D01*
X97237955Y-112539791D01*
X97279164Y-112540235D01*
X97334312Y-112540673D01*
X97402834Y-112541101D01*
X97484170Y-112541520D01*
X97577755Y-112541927D01*
X97683028Y-112542322D01*
X97799425Y-112542702D01*
X97926384Y-112543067D01*
X98063343Y-112543415D01*
X98209738Y-112543746D01*
X98365008Y-112544056D01*
X98528589Y-112544346D01*
X98699918Y-112544614D01*
X98878434Y-112544859D01*
X99063573Y-112545078D01*
X99254772Y-112545272D01*
X99451470Y-112545438D01*
X99653103Y-112545575D01*
X99859109Y-112545682D01*
X100068925Y-112545757D01*
X100088280Y-112545763D01*
X100343701Y-112545823D01*
X100583949Y-112545864D01*
X100809477Y-112545884D01*
X101020738Y-112545881D01*
X101218185Y-112545854D01*
X101402272Y-112545800D01*
X101573450Y-112545720D01*
X101732173Y-112545610D01*
X101878894Y-112545469D01*
X102014066Y-112545296D01*
X102138141Y-112545089D01*
X102251574Y-112544847D01*
X102354817Y-112544567D01*
X102448322Y-112544250D01*
X102532544Y-112543892D01*
X102607934Y-112543492D01*
X102674946Y-112543049D01*
X102734033Y-112542561D01*
X102785648Y-112542026D01*
X102830244Y-112541444D01*
X102868273Y-112540812D01*
X102900190Y-112540128D01*
X102926446Y-112539392D01*
X102947495Y-112538602D01*
X102963789Y-112537755D01*
X102975782Y-112536851D01*
X102983928Y-112535888D01*
X102985232Y-112535671D01*
X103023772Y-112526689D01*
X103064763Y-112513866D01*
X103097052Y-112500969D01*
X103144647Y-112472731D01*
X103191977Y-112434180D01*
X103234355Y-112389749D01*
X103267096Y-112343872D01*
X103271568Y-112335871D01*
X103278755Y-112322400D01*
X103285172Y-112309847D01*
X103290862Y-112297292D01*
X103295869Y-112283818D01*
X103300237Y-112268505D01*
X103304009Y-112250435D01*
X103307229Y-112228687D01*
X103309942Y-112202345D01*
X103312191Y-112170488D01*
X103314020Y-112132198D01*
X103315472Y-112086556D01*
X103316593Y-112032644D01*
X103317424Y-111969541D01*
X103318011Y-111896330D01*
X103318398Y-111812092D01*
X103318627Y-111715907D01*
X103318743Y-111606858D01*
X103318790Y-111484024D01*
X103318812Y-111346487D01*
X103318812Y-111345816D01*
X103318948Y-110507874D01*
X100078514Y-110507873D01*
X96838080Y-110507872D01*
X96634943Y-110507872D01*
X96634943Y-110304737D01*
X96834711Y-110304737D01*
X100078782Y-110304737D01*
X103322854Y-110304737D01*
X103318854Y-108533144D01*
X103318386Y-108331679D01*
X103317923Y-108145285D01*
X103317461Y-107973409D01*
X103316996Y-107815495D01*
X103316522Y-107670989D01*
X103316036Y-107539337D01*
X103315533Y-107419984D01*
X103315008Y-107312376D01*
X103314457Y-107215958D01*
X103313876Y-107130176D01*
X103313260Y-107054475D01*
X103312605Y-106988301D01*
X103311906Y-106931100D01*
X103311158Y-106882316D01*
X103310358Y-106841396D01*
X103309501Y-106807785D01*
X103308581Y-106780928D01*
X103307596Y-106760271D01*
X103306540Y-106745261D01*
X103305409Y-106735341D01*
X103304319Y-106730298D01*
X103272746Y-106659366D01*
X103229272Y-106598556D01*
X103173935Y-106547901D01*
X103106769Y-106507436D01*
X103055946Y-106486318D01*
X102994709Y-106464657D01*
X100103906Y-106462498D01*
X99847618Y-106462299D01*
X99606483Y-106462102D01*
X99380027Y-106461914D01*
X99167777Y-106461741D01*
X98969260Y-106461592D01*
X98784003Y-106461473D01*
X98611533Y-106461391D01*
X98451375Y-106461355D01*
X98303058Y-106461370D01*
X98166108Y-106461445D01*
X98040051Y-106461586D01*
X97924414Y-106461800D01*
X97818724Y-106462096D01*
X97722508Y-106462479D01*
X97635293Y-106462958D01*
X97556605Y-106463539D01*
X97485971Y-106464230D01*
X97422917Y-106465038D01*
X97366971Y-106465970D01*
X97317660Y-106467033D01*
X97274510Y-106468235D01*
X97237047Y-106469582D01*
X97204799Y-106471082D01*
X97177292Y-106472743D01*
X97154053Y-106474570D01*
X97134610Y-106476572D01*
X97118487Y-106478756D01*
X97105213Y-106481129D01*
X97094315Y-106483699D01*
X97085318Y-106486471D01*
X97077749Y-106489454D01*
X97071136Y-106492655D01*
X97065005Y-106496081D01*
X97058883Y-106499739D01*
X97052297Y-106503636D01*
X97044773Y-106507780D01*
X97042141Y-106509134D01*
X96985645Y-106545954D01*
X96935670Y-106594884D01*
X96894386Y-106653024D01*
X96863965Y-106717476D01*
X96850156Y-106765456D01*
X96849054Y-106775061D01*
X96848015Y-106793428D01*
X96847038Y-106820967D01*
X96846119Y-106858089D01*
X96845255Y-106905203D01*
X96844443Y-106962719D01*
X96843682Y-107031048D01*
X96842967Y-107110598D01*
X96842296Y-107201781D01*
X96841667Y-107305006D01*
X96841076Y-107420683D01*
X96840521Y-107549223D01*
X96839999Y-107691034D01*
X96839507Y-107846528D01*
X96839042Y-108016114D01*
X96838601Y-108200201D01*
X96838182Y-108399201D01*
X96837884Y-108556582D01*
X96834711Y-110304737D01*
X96634943Y-110304737D01*
X96634943Y-109500000D01*
X96634945Y-109253525D01*
X96634955Y-109022187D01*
X96634973Y-108805496D01*
X96635004Y-108602963D01*
X96635049Y-108414098D01*
X96635110Y-108238412D01*
X96635190Y-108075416D01*
X96635292Y-107924620D01*
X96635417Y-107785535D01*
X96635569Y-107657671D01*
X96635750Y-107540539D01*
X96635961Y-107433650D01*
X96636207Y-107336515D01*
X96636488Y-107248643D01*
X96636808Y-107169545D01*
X96637169Y-107098733D01*
X96637573Y-107035717D01*
X96638023Y-106980006D01*
X96638521Y-106931113D01*
X96639070Y-106888547D01*
X96639671Y-106851820D01*
X96640329Y-106820441D01*
X96641044Y-106793921D01*
X96641820Y-106771772D01*
X96642658Y-106753502D01*
X96643562Y-106738625D01*
X96644533Y-106726649D01*
X96645575Y-106717085D01*
X96646689Y-106709444D01*
X96647877Y-106703237D01*
X96648866Y-106699046D01*
X96679227Y-106610629D01*
X96722929Y-106529115D01*
X96778755Y-106455730D01*
X96845487Y-106391704D01*
X96921907Y-106338265D01*
X97006798Y-106296640D01*
X97068563Y-106275761D01*
X97073381Y-106274528D01*
X97079090Y-106273368D01*
X97086161Y-106272279D01*
X97095065Y-106271259D01*
X97106273Y-106270305D01*
X97120256Y-106269416D01*
X97137486Y-106268588D01*
X97158434Y-106267820D01*
X97183572Y-106267110D01*
X97213369Y-106266455D01*
X97248298Y-106265854D01*
X97288829Y-106265303D01*
X97335435Y-106264800D01*
X97388585Y-106264344D01*
X97448752Y-106263932D01*
X97516407Y-106263562D01*
X97592020Y-106263232D01*
X97676063Y-106262939D01*
X97769007Y-106262682D01*
X97871323Y-106262457D01*
X97983483Y-106262263D01*
X98105958Y-106262098D01*
X98239219Y-106261959D01*
X98383736Y-106261843D01*
X98539982Y-106261750D01*
X98708428Y-106261676D01*
X98889545Y-106261620D01*
X99083803Y-106261578D01*
X99291675Y-106261550D01*
X99513630Y-106261532D01*
X99750142Y-106261523D01*
X100001680Y-106261519D01*
X100072654Y-106261519D01*
X103025961Y-106261519D01*
X103092371Y-106279009D01*
G37*
G36*
X90156950Y-101121805D02*
G01*
X90156950Y-101499103D01*
X90114237Y-101499103D01*
X90071524Y-101499103D01*
X90071524Y-101121805D01*
X90071524Y-100744507D01*
X90114237Y-100744507D01*
X90156950Y-100744507D01*
X90156950Y-101121805D01*
G37*
G36*
X90060846Y-92731357D02*
G01*
X90107119Y-92735819D01*
X90111130Y-92903111D01*
X90115141Y-93070404D01*
X90278422Y-93070404D01*
X90441704Y-93070404D01*
X90441704Y-93110744D01*
X90438654Y-93143352D01*
X90432212Y-93160576D01*
X90414898Y-93164441D01*
X90375387Y-93167548D01*
X90319953Y-93169532D01*
X90268479Y-93170067D01*
X90114237Y-93170067D01*
X90114237Y-93333801D01*
X90114237Y-93497534D01*
X90064406Y-93497534D01*
X90014574Y-93497534D01*
X90014574Y-93333801D01*
X90014574Y-93170067D01*
X89843722Y-93170067D01*
X89672870Y-93170067D01*
X89672870Y-93120236D01*
X89672870Y-93070404D01*
X89843722Y-93070404D01*
X90014574Y-93070404D01*
X90014574Y-92898650D01*
X90014574Y-92726896D01*
X90060846Y-92731357D01*
G37*
G36*
X90299996Y-92027358D02*
G01*
X90462003Y-92069228D01*
X90616241Y-92136024D01*
X90760131Y-92226564D01*
X90891094Y-92339664D01*
X91006552Y-92474141D01*
X91035586Y-92515221D01*
X91107887Y-92642660D01*
X91162632Y-92786439D01*
X91201253Y-92950411D01*
X91204725Y-92970740D01*
X91216592Y-93050849D01*
X91221833Y-93115057D01*
X91220383Y-93175171D01*
X91212177Y-93242998D01*
X91202945Y-93298206D01*
X91163333Y-93464825D01*
X91105557Y-93612798D01*
X91026780Y-93747478D01*
X90924164Y-93874218D01*
X90866513Y-93932932D01*
X90730754Y-94045774D01*
X90584225Y-94132361D01*
X90425968Y-94193167D01*
X90277433Y-94225552D01*
X90171188Y-94241354D01*
X90171188Y-95363129D01*
X90171188Y-96484904D01*
X90235097Y-96515842D01*
X90316153Y-96569157D01*
X90376821Y-96637837D01*
X90416821Y-96717364D01*
X90435872Y-96803222D01*
X90433693Y-96890894D01*
X90410004Y-96975865D01*
X90364524Y-97053618D01*
X90296973Y-97119636D01*
X90273595Y-97135702D01*
X90201917Y-97167091D01*
X90117132Y-97182987D01*
X90109668Y-97182933D01*
X90030664Y-97182356D01*
X89954842Y-97164526D01*
X89871303Y-97116752D01*
X89804745Y-97048296D01*
X89758131Y-96963263D01*
X89734423Y-96865756D01*
X89733658Y-96858131D01*
X89738827Y-96763924D01*
X89771617Y-96675637D01*
X89831604Y-96594247D01*
X89859893Y-96566717D01*
X89929148Y-96504451D01*
X89929148Y-95366744D01*
X89929148Y-94229038D01*
X89854400Y-94210432D01*
X89765581Y-94183378D01*
X89669962Y-94146109D01*
X89578815Y-94103489D01*
X89503412Y-94060381D01*
X89497613Y-94056528D01*
X89368489Y-93953938D01*
X89255516Y-93833034D01*
X89160483Y-93697598D01*
X89085177Y-93551414D01*
X89031389Y-93398265D01*
X89000906Y-93241934D01*
X88997098Y-93131897D01*
X89217264Y-93131897D01*
X89222666Y-93198703D01*
X89237125Y-93280701D01*
X89258024Y-93367112D01*
X89282744Y-93447158D01*
X89308667Y-93510058D01*
X89309540Y-93511772D01*
X89388878Y-93637763D01*
X89488734Y-93750498D01*
X89604393Y-93845875D01*
X89731138Y-93919793D01*
X89819421Y-93955111D01*
X89867530Y-93969508D01*
X89912904Y-93979170D01*
X89963248Y-93984971D01*
X90026268Y-93987781D01*
X90109668Y-93988473D01*
X90114237Y-93988468D01*
X90198406Y-93987636D01*
X90261315Y-93984862D01*
X90310158Y-93979322D01*
X90352129Y-93970190D01*
X90394421Y-93956645D01*
X90395502Y-93956258D01*
X90530831Y-93895021D01*
X90652482Y-93812091D01*
X90716537Y-93755193D01*
X90823170Y-93634368D01*
X90904710Y-93502845D01*
X90960475Y-93362881D01*
X90989781Y-93216733D01*
X90991944Y-93066658D01*
X90968390Y-92923110D01*
X90916570Y-92772585D01*
X90840966Y-92637652D01*
X90741727Y-92518470D01*
X90619000Y-92415199D01*
X90472933Y-92327999D01*
X90377634Y-92284872D01*
X90334518Y-92273516D01*
X90270973Y-92264421D01*
X90194992Y-92258111D01*
X90114568Y-92255107D01*
X90037695Y-92255933D01*
X89987401Y-92259357D01*
X89872743Y-92278516D01*
X89767383Y-92313301D01*
X89661457Y-92367349D01*
X89613957Y-92396974D01*
X89494644Y-92491416D01*
X89393944Y-92605210D01*
X89313920Y-92734534D01*
X89256633Y-92875570D01*
X89224146Y-93024496D01*
X89217264Y-93131897D01*
X88997098Y-93131897D01*
X88995517Y-93086205D01*
X89002772Y-93009894D01*
X89038464Y-92833877D01*
X89094207Y-92676045D01*
X89171948Y-92532605D01*
X89273637Y-92399759D01*
X89362923Y-92308401D01*
X89484119Y-92207665D01*
X89609312Y-92130404D01*
X89744712Y-92073666D01*
X89896531Y-92034499D01*
X89962986Y-92023130D01*
X90132797Y-92011598D01*
X90299996Y-92027358D01*
G37*
G36*
X89439607Y-96361986D02*
G01*
X89366043Y-96460015D01*
X89307134Y-96571021D01*
X89259330Y-96701857D01*
X89253717Y-96720782D01*
X89226127Y-96842976D01*
X89218739Y-96956136D01*
X89231334Y-97071071D01*
X89245341Y-97133699D01*
X89297341Y-97281221D01*
X89373527Y-97415346D01*
X89472002Y-97534102D01*
X89590868Y-97635514D01*
X89728228Y-97717612D01*
X89857959Y-97770685D01*
X89948512Y-97791641D01*
X90054823Y-97801887D01*
X90166268Y-97801431D01*
X90272221Y-97790279D01*
X90356278Y-97770392D01*
X90508370Y-97706553D01*
X90643196Y-97621749D01*
X90759003Y-97517803D01*
X90854036Y-97396536D01*
X90926542Y-97259772D01*
X90968847Y-97133891D01*
X90992841Y-96984803D01*
X90988603Y-96836828D01*
X90956376Y-96690932D01*
X90896404Y-96548078D01*
X90808930Y-96409232D01*
X90775143Y-96365772D01*
X90711892Y-96288117D01*
X90860330Y-96288117D01*
X91008768Y-96288117D01*
X91049863Y-96355746D01*
X91122088Y-96495448D01*
X91175273Y-96643046D01*
X91208017Y-96792552D01*
X91218919Y-96937981D01*
X91211233Y-97045601D01*
X91171254Y-97229621D01*
X91107637Y-97399447D01*
X91021439Y-97553625D01*
X90913718Y-97690700D01*
X90785529Y-97809219D01*
X90637931Y-97907726D01*
X90553338Y-97950799D01*
X90500825Y-97971678D01*
X90435049Y-97993195D01*
X90364776Y-98012981D01*
X90298773Y-98028669D01*
X90245806Y-98037892D01*
X90225457Y-98039350D01*
X90185426Y-98039350D01*
X90185463Y-98733436D01*
X90185674Y-98883846D01*
X90186263Y-99035805D01*
X90187187Y-99184853D01*
X90188403Y-99326528D01*
X90189870Y-99456371D01*
X90191545Y-99569918D01*
X90193385Y-99662711D01*
X90194809Y-99714806D01*
X90204117Y-100002089D01*
X90276638Y-100011585D01*
X90406013Y-100040232D01*
X90546265Y-100093411D01*
X90605614Y-100121738D01*
X90754903Y-100212548D01*
X90886091Y-100324467D01*
X90997838Y-100455588D01*
X91088806Y-100604002D01*
X91157655Y-100767801D01*
X91203047Y-100945074D01*
X91209220Y-100982156D01*
X91218714Y-101053414D01*
X91222378Y-101112251D01*
X91220000Y-101169880D01*
X91211365Y-101237519D01*
X91203443Y-101285538D01*
X91159214Y-101465041D01*
X91091468Y-101629439D01*
X91001057Y-101777556D01*
X90888833Y-101908217D01*
X90755648Y-102020246D01*
X90605437Y-102110912D01*
X90447508Y-102175181D01*
X90280657Y-102213956D01*
X90143480Y-102224429D01*
X90108987Y-102227063D01*
X89936601Y-102214330D01*
X89767603Y-102175584D01*
X89693171Y-102149386D01*
X89542413Y-102075155D01*
X89405719Y-101977589D01*
X89285070Y-101859137D01*
X89182447Y-101722249D01*
X89099834Y-101569376D01*
X89039210Y-101402967D01*
X89017467Y-101314014D01*
X89001689Y-101225680D01*
X88994296Y-101148162D01*
X88995364Y-101077774D01*
X89218424Y-101077774D01*
X89224216Y-101216097D01*
X89253754Y-101354389D01*
X89305368Y-101488239D01*
X89377390Y-101613233D01*
X89468149Y-101724960D01*
X89566416Y-101811980D01*
X89701129Y-101895710D01*
X89844226Y-101953475D01*
X89992684Y-101985398D01*
X90143480Y-101991604D01*
X90293591Y-101972220D01*
X90439994Y-101927368D01*
X90579667Y-101857175D01*
X90705959Y-101764908D01*
X90752011Y-101717582D01*
X90803447Y-101652636D01*
X90854349Y-101578586D01*
X90898796Y-101503949D01*
X90926676Y-101447351D01*
X90973539Y-101302748D01*
X90993219Y-101152211D01*
X90985369Y-100999331D01*
X90975491Y-100943237D01*
X90930226Y-100795225D01*
X90860405Y-100658999D01*
X90768389Y-100537050D01*
X90656538Y-100431873D01*
X90527214Y-100345963D01*
X90382777Y-100281812D01*
X90334921Y-100266623D01*
X90260567Y-100251864D01*
X90169188Y-100243628D01*
X90071518Y-100242087D01*
X89978289Y-100247413D01*
X89900672Y-100259674D01*
X89785828Y-100297674D01*
X89669678Y-100355405D01*
X89560270Y-100427754D01*
X89465654Y-100509607D01*
X89412618Y-100569712D01*
X89358526Y-100644765D01*
X89317250Y-100714796D01*
X89284516Y-100788968D01*
X89256049Y-100876441D01*
X89238045Y-100943834D01*
X89218424Y-101077774D01*
X88995364Y-101077774D01*
X88995450Y-101072092D01*
X89005313Y-100988103D01*
X89024046Y-100886829D01*
X89024922Y-100882580D01*
X89073522Y-100716090D01*
X89147232Y-100560897D01*
X89244098Y-100419434D01*
X89362169Y-100294134D01*
X89499492Y-100187430D01*
X89649710Y-100103782D01*
X89712931Y-100075320D01*
X89762414Y-100055766D01*
X89809871Y-100041254D01*
X89867014Y-100027918D01*
X89900672Y-100020931D01*
X89950504Y-100010784D01*
X89950504Y-99022633D01*
X89950504Y-98034483D01*
X89865078Y-98015349D01*
X89708358Y-97966172D01*
X89557875Y-97891625D01*
X89417961Y-97794747D01*
X89292951Y-97678580D01*
X89187178Y-97546164D01*
X89178986Y-97533913D01*
X89104602Y-97399950D01*
X89048166Y-97254022D01*
X89011278Y-97102744D01*
X88995536Y-96952732D01*
X89002543Y-96810602D01*
X89003105Y-96806641D01*
X89037776Y-96638235D01*
X89090996Y-96488293D01*
X89164363Y-96352399D01*
X89171267Y-96341826D01*
X89206811Y-96288117D01*
X89355518Y-96288117D01*
X89504226Y-96288117D01*
X89439607Y-96361986D01*
G37*
%TO.C,G4*%
G36*
X200954245Y-106529262D02*
G01*
X200996169Y-106583227D01*
X201016642Y-106634770D01*
X201019677Y-106663294D01*
X201022511Y-106719544D01*
X201025076Y-106799983D01*
X201027302Y-106901074D01*
X201029120Y-107019282D01*
X201030460Y-107151070D01*
X201031254Y-107292901D01*
X201031443Y-107388954D01*
X201031816Y-108080616D01*
X201152954Y-108080674D01*
X201248537Y-108087214D01*
X201320216Y-108108727D01*
X201370713Y-108148211D01*
X201402750Y-108208662D01*
X201419048Y-108293078D01*
X201422585Y-108377600D01*
X201417652Y-108475316D01*
X201401721Y-108548181D01*
X201373100Y-108601191D01*
X201334841Y-108636221D01*
X201323507Y-108643086D01*
X201309714Y-108648864D01*
X201290781Y-108653668D01*
X201264030Y-108657609D01*
X201226782Y-108660800D01*
X201176357Y-108663351D01*
X201110078Y-108665374D01*
X201025264Y-108666983D01*
X200919237Y-108668287D01*
X200789317Y-108669400D01*
X200632826Y-108670432D01*
X200496277Y-108671222D01*
X199702830Y-108675675D01*
X199706923Y-109272800D01*
X199711016Y-109869924D01*
X200627346Y-110378132D01*
X200783661Y-110464920D01*
X200932223Y-110547589D01*
X201070722Y-110624840D01*
X201196849Y-110695377D01*
X201308291Y-110757900D01*
X201402737Y-110811113D01*
X201477878Y-110853718D01*
X201531403Y-110884418D01*
X201560999Y-110901914D01*
X201566044Y-110905255D01*
X201580613Y-110910177D01*
X201613093Y-110914406D01*
X201665401Y-110918006D01*
X201739458Y-110921039D01*
X201837181Y-110923567D01*
X201960491Y-110925654D01*
X202111306Y-110927363D01*
X202283129Y-110928701D01*
X202453013Y-110929805D01*
X202594485Y-110930928D01*
X202710395Y-110932402D01*
X202803592Y-110934561D01*
X202876925Y-110937739D01*
X202933242Y-110942269D01*
X202975393Y-110948486D01*
X203006225Y-110956723D01*
X203028589Y-110967313D01*
X203045333Y-110980590D01*
X203059305Y-110996889D01*
X203073356Y-111016542D01*
X203076971Y-111021676D01*
X203083054Y-111032864D01*
X203088164Y-111049588D01*
X203092409Y-111074557D01*
X203095895Y-111110480D01*
X203098728Y-111160069D01*
X203101014Y-111226033D01*
X203102860Y-111311083D01*
X203104372Y-111417928D01*
X203105656Y-111549279D01*
X203106819Y-111707846D01*
X203107380Y-111796831D01*
X203111868Y-112535385D01*
X203237110Y-112535385D01*
X203330300Y-112540266D01*
X203399608Y-112557276D01*
X203448205Y-112589966D01*
X203479260Y-112641889D01*
X203495942Y-112716595D01*
X203501422Y-112817636D01*
X203501477Y-112831600D01*
X203498252Y-112923635D01*
X203487255Y-112990958D01*
X203466500Y-113039581D01*
X203434005Y-113075515D01*
X203416857Y-113087956D01*
X203408898Y-113091927D01*
X203396680Y-113095470D01*
X203378502Y-113098611D01*
X203352659Y-113101374D01*
X203317451Y-113103781D01*
X203271173Y-113105858D01*
X203212125Y-113107628D01*
X203138602Y-113109115D01*
X203048903Y-113110343D01*
X202941325Y-113111337D01*
X202814165Y-113112119D01*
X202665722Y-113112714D01*
X202494291Y-113113146D01*
X202298172Y-113113439D01*
X202075660Y-113113617D01*
X201825054Y-113113704D01*
X201585695Y-113113724D01*
X199793859Y-113113724D01*
X199740714Y-113060579D01*
X199687570Y-113007434D01*
X199687570Y-112826638D01*
X199687570Y-112645842D01*
X199742798Y-112590614D01*
X199770068Y-112564415D01*
X199793550Y-112548173D01*
X199821666Y-112539509D01*
X199862840Y-112536041D01*
X199925493Y-112535387D01*
X199938183Y-112535385D01*
X200078339Y-112535385D01*
X200078339Y-111815868D01*
X200078414Y-111637651D01*
X200078825Y-111487981D01*
X200079851Y-111364142D01*
X200081068Y-111300350D01*
X200453477Y-111300350D01*
X200453477Y-111902339D01*
X200453477Y-112504328D01*
X201590616Y-112500318D01*
X202727754Y-112496308D01*
X202727754Y-111902339D01*
X202727754Y-111308370D01*
X201590616Y-111304360D01*
X200453477Y-111300350D01*
X200081068Y-111300350D01*
X200081772Y-111263419D01*
X200084866Y-111183096D01*
X200089414Y-111120460D01*
X200095693Y-111072794D01*
X200103984Y-111037383D01*
X200114566Y-111011512D01*
X200127717Y-110992466D01*
X200143718Y-110977530D01*
X200162846Y-110963988D01*
X200166168Y-110961801D01*
X200184938Y-110951785D01*
X200209643Y-110944182D01*
X200244861Y-110938559D01*
X200295170Y-110934481D01*
X200365146Y-110931513D01*
X200459368Y-110929222D01*
X200521041Y-110928128D01*
X200832365Y-110923024D01*
X200172875Y-110556668D01*
X200041209Y-110483757D01*
X199917870Y-110415904D01*
X199805542Y-110354554D01*
X199706909Y-110301151D01*
X199624653Y-110257139D01*
X199561457Y-110223963D01*
X199520006Y-110203068D01*
X199502981Y-110195898D01*
X199502785Y-110195941D01*
X199487364Y-110204407D01*
X199447293Y-110226482D01*
X199385291Y-110260663D01*
X199304079Y-110305453D01*
X199206375Y-110359350D01*
X199094898Y-110420855D01*
X198972369Y-110488469D01*
X198843508Y-110559585D01*
X198194831Y-110917600D01*
X198492556Y-110925416D01*
X198599603Y-110928603D01*
X198680063Y-110932096D01*
X198738610Y-110936393D01*
X198779918Y-110941993D01*
X198808661Y-110949395D01*
X198829513Y-110959096D01*
X198833831Y-110961801D01*
X198853479Y-110975370D01*
X198869955Y-110989905D01*
X198883537Y-111008122D01*
X198894506Y-111032735D01*
X198903140Y-111066460D01*
X198909718Y-111112012D01*
X198914521Y-111172106D01*
X198917826Y-111249457D01*
X198919913Y-111346780D01*
X198921062Y-111466791D01*
X198921552Y-111612204D01*
X198921661Y-111785736D01*
X198921662Y-111815868D01*
X198921662Y-112535385D01*
X199061818Y-112535385D01*
X199128726Y-112535807D01*
X199172795Y-112538660D01*
X199202449Y-112546325D01*
X199226108Y-112561183D01*
X199252197Y-112585614D01*
X199257202Y-112590614D01*
X199312431Y-112645842D01*
X199312431Y-112826638D01*
X199312431Y-113007434D01*
X199259287Y-113060579D01*
X199206142Y-113113724D01*
X197410948Y-113113646D01*
X195615754Y-113113568D01*
X195574242Y-113078477D01*
X195540327Y-113045150D01*
X195518101Y-113008701D01*
X195505271Y-112961658D01*
X195499541Y-112896548D01*
X195498524Y-112831852D01*
X195502868Y-112727387D01*
X195518015Y-112649685D01*
X195547132Y-112595193D01*
X195593386Y-112560358D01*
X195659946Y-112541629D01*
X195749979Y-112535452D01*
X195762890Y-112535385D01*
X195888133Y-112535385D01*
X195890412Y-112160299D01*
X196267119Y-112160299D01*
X196267225Y-112271501D01*
X196267720Y-112366107D01*
X196268582Y-112440571D01*
X196269792Y-112491349D01*
X196271331Y-112514894D01*
X196271564Y-112515797D01*
X196279084Y-112519672D01*
X196299657Y-112523035D01*
X196335070Y-112525919D01*
X196387108Y-112528353D01*
X196457558Y-112530368D01*
X196548205Y-112531995D01*
X196660836Y-112533265D01*
X196797238Y-112534207D01*
X196959195Y-112534854D01*
X197148495Y-112535235D01*
X197366924Y-112535381D01*
X197412802Y-112535385D01*
X198546524Y-112535385D01*
X198546524Y-111917868D01*
X198546523Y-111300350D01*
X197409385Y-111304360D01*
X196272247Y-111308370D01*
X196268147Y-111902290D01*
X196267419Y-112036047D01*
X196267119Y-112160299D01*
X195890412Y-112160299D01*
X195892620Y-111796831D01*
X195893763Y-111623855D01*
X195894974Y-111479430D01*
X195896361Y-111360847D01*
X195898029Y-111265394D01*
X195900085Y-111190363D01*
X195902635Y-111133043D01*
X195905785Y-111090723D01*
X195909643Y-111060694D01*
X195914314Y-111040246D01*
X195919904Y-111026668D01*
X195923029Y-111021676D01*
X195937445Y-111001265D01*
X195951107Y-110984261D01*
X195966850Y-110970332D01*
X195987508Y-110959151D01*
X196015917Y-110950386D01*
X196054910Y-110943710D01*
X196107323Y-110938792D01*
X196175991Y-110935303D01*
X196263747Y-110932914D01*
X196373428Y-110931295D01*
X196507868Y-110930117D01*
X196669900Y-110929051D01*
X196723092Y-110928712D01*
X196890157Y-110927565D01*
X197028810Y-110926389D01*
X197141901Y-110925055D01*
X197232277Y-110923435D01*
X197302789Y-110921400D01*
X197356286Y-110918822D01*
X197395617Y-110915572D01*
X197423631Y-110911522D01*
X197443178Y-110906544D01*
X197457106Y-110900508D01*
X197465553Y-110895228D01*
X197486107Y-110882830D01*
X197531647Y-110856662D01*
X197599788Y-110818059D01*
X197688144Y-110768355D01*
X197794332Y-110708886D01*
X197915965Y-110640985D01*
X198050660Y-110565988D01*
X198196032Y-110485229D01*
X198349695Y-110400042D01*
X198417570Y-110362469D01*
X199328062Y-109858673D01*
X199328062Y-109267169D01*
X199328062Y-108675665D01*
X198526985Y-108671217D01*
X198347049Y-108670150D01*
X198195744Y-108669050D01*
X198070440Y-108667815D01*
X197968506Y-108666348D01*
X197887311Y-108664547D01*
X197824226Y-108662314D01*
X197776620Y-108659548D01*
X197741861Y-108656150D01*
X197717321Y-108652020D01*
X197700368Y-108647059D01*
X197688372Y-108641166D01*
X197685510Y-108639313D01*
X197649373Y-108609020D01*
X197624817Y-108571861D01*
X197609868Y-108521589D01*
X197602553Y-108451956D01*
X197600862Y-108371326D01*
X197601900Y-108294355D01*
X197605761Y-108241136D01*
X197613570Y-108204205D01*
X197626450Y-108176099D01*
X197631411Y-108168360D01*
X197673035Y-108125290D01*
X197731593Y-108097470D01*
X197811681Y-108083290D01*
X197881714Y-108080616D01*
X197999447Y-108080616D01*
X197999447Y-107353009D01*
X197999489Y-107176274D01*
X197999799Y-107028076D01*
X198000652Y-106905688D01*
X198001396Y-106861416D01*
X198374585Y-106861416D01*
X198374585Y-107455385D01*
X198374585Y-108049354D01*
X199507816Y-108049354D01*
X200641047Y-108049354D01*
X200641047Y-107455385D01*
X200641047Y-106861416D01*
X199507816Y-106861416D01*
X198374585Y-106861416D01*
X198001396Y-106861416D01*
X198002320Y-106806387D01*
X198005080Y-106727447D01*
X198009203Y-106666142D01*
X198014966Y-106619748D01*
X198022642Y-106585539D01*
X198032505Y-106560791D01*
X198044830Y-106542777D01*
X198059890Y-106528774D01*
X198077961Y-106516055D01*
X198084067Y-106512045D01*
X198092935Y-106507568D01*
X198106300Y-106503637D01*
X198126107Y-106500218D01*
X198154297Y-106497273D01*
X198192814Y-106494770D01*
X198243600Y-106492672D01*
X198308599Y-106490945D01*
X198389752Y-106489554D01*
X198489004Y-106488464D01*
X198608297Y-106487639D01*
X198749573Y-106487045D01*
X198914775Y-106486647D01*
X199105847Y-106486410D01*
X199324731Y-106486299D01*
X199514835Y-106486277D01*
X200906276Y-106486277D01*
X200954245Y-106529262D01*
G37*
%TO.C,G2*%
G36*
X221619557Y-106400565D02*
G01*
X221620148Y-106488140D01*
X221602015Y-106488140D01*
X221583882Y-106488140D01*
X221584474Y-106400565D01*
X221585065Y-106312991D01*
X221602015Y-106312991D01*
X221618965Y-106312991D01*
X221619557Y-106400565D01*
G37*
G36*
X221751174Y-106401130D02*
G01*
X221751174Y-106431640D01*
X221735355Y-106431640D01*
X221719535Y-106431640D01*
X221719535Y-106401130D01*
X221719535Y-106370620D01*
X221735355Y-106370620D01*
X221751174Y-106370620D01*
X221751174Y-106401130D01*
G37*
G36*
X221685635Y-106401346D02*
G01*
X221685635Y-106459389D01*
X221673770Y-106457964D01*
X221665912Y-106457132D01*
X221659185Y-106456609D01*
X221656781Y-106456519D01*
X221651656Y-106456500D01*
X221652261Y-106400565D01*
X221652865Y-106344630D01*
X221669250Y-106343966D01*
X221685635Y-106343302D01*
X221685635Y-106401346D01*
G37*
G36*
X221551751Y-106400628D02*
G01*
X221551867Y-106427214D01*
X221551924Y-106449618D01*
X221551913Y-106468177D01*
X221551828Y-106483228D01*
X221551661Y-106495110D01*
X221551406Y-106504158D01*
X221551054Y-106510712D01*
X221550600Y-106515108D01*
X221550035Y-106517684D01*
X221549353Y-106518777D01*
X221549238Y-106518835D01*
X221545401Y-106519370D01*
X221538715Y-106519514D01*
X221532833Y-106519336D01*
X221519526Y-106518649D01*
X221519526Y-106401130D01*
X221519526Y-106283611D01*
X221535346Y-106283611D01*
X221551166Y-106283611D01*
X221551751Y-106400628D01*
G37*
G36*
X221011497Y-106834079D02*
G01*
X221049220Y-106834106D01*
X221086066Y-106834149D01*
X221121766Y-106834207D01*
X221156050Y-106834281D01*
X221188648Y-106834372D01*
X221219291Y-106834478D01*
X221247708Y-106834601D01*
X221273630Y-106834741D01*
X221296787Y-106834897D01*
X221316909Y-106835070D01*
X221333726Y-106835260D01*
X221346969Y-106835467D01*
X221356368Y-106835691D01*
X221360432Y-106835854D01*
X221372426Y-106836568D01*
X221380877Y-106837320D01*
X221386759Y-106838320D01*
X221391046Y-106839776D01*
X221394711Y-106841898D01*
X221397246Y-106843751D01*
X221403868Y-106849830D01*
X221410189Y-106857217D01*
X221411700Y-106859353D01*
X221417826Y-106868603D01*
X221418223Y-106919625D01*
X221418246Y-106934918D01*
X221418090Y-106949179D01*
X221417778Y-106961619D01*
X221417331Y-106971447D01*
X221416773Y-106977874D01*
X221416514Y-106979357D01*
X221411467Y-106991739D01*
X221403163Y-107001180D01*
X221395450Y-107005890D01*
X221394233Y-107006390D01*
X221392747Y-107006848D01*
X221390801Y-107007267D01*
X221388207Y-107007648D01*
X221384774Y-107007993D01*
X221380313Y-107008305D01*
X221374633Y-107008584D01*
X221367544Y-107008832D01*
X221358858Y-107009052D01*
X221348383Y-107009245D01*
X221335930Y-107009412D01*
X221321310Y-107009556D01*
X221304332Y-107009679D01*
X221284806Y-107009781D01*
X221262543Y-107009865D01*
X221237353Y-107009933D01*
X221209045Y-107009986D01*
X221177431Y-107010026D01*
X221142320Y-107010054D01*
X221103522Y-107010074D01*
X221060847Y-107010086D01*
X221014106Y-107010091D01*
X220963109Y-107010093D01*
X220942099Y-107010093D01*
X220895941Y-107010083D01*
X220851200Y-107010052D01*
X220808084Y-107010004D01*
X220766798Y-107009937D01*
X220727551Y-107009854D01*
X220690547Y-107009755D01*
X220655995Y-107009641D01*
X220624099Y-107009512D01*
X220595068Y-107009371D01*
X220569108Y-107009218D01*
X220546425Y-107009053D01*
X220527226Y-107008877D01*
X220511717Y-107008692D01*
X220500106Y-107008499D01*
X220492599Y-107008298D01*
X220489401Y-107008090D01*
X220489388Y-107008087D01*
X220476503Y-107002870D01*
X220465503Y-106994008D01*
X220457406Y-106982378D01*
X220455520Y-106978446D01*
X220454103Y-106974783D01*
X220453087Y-106970688D01*
X220452408Y-106965462D01*
X220451999Y-106958405D01*
X220451794Y-106948816D01*
X220451728Y-106935997D01*
X220451731Y-106922178D01*
X220451792Y-106905620D01*
X220451967Y-106892911D01*
X220452307Y-106883381D01*
X220452858Y-106876360D01*
X220453669Y-106871176D01*
X220454789Y-106867160D01*
X220455898Y-106864427D01*
X220461774Y-106855167D01*
X220470142Y-106846477D01*
X220479560Y-106839652D01*
X220487116Y-106836341D01*
X220490225Y-106836099D01*
X220497583Y-106835870D01*
X220508922Y-106835654D01*
X220523971Y-106835451D01*
X220542461Y-106835261D01*
X220564122Y-106835085D01*
X220588684Y-106834922D01*
X220615877Y-106834773D01*
X220645432Y-106834638D01*
X220677078Y-106834517D01*
X220710546Y-106834410D01*
X220745566Y-106834317D01*
X220781868Y-106834238D01*
X220819183Y-106834175D01*
X220857240Y-106834125D01*
X220895770Y-106834091D01*
X220934502Y-106834072D01*
X220973168Y-106834068D01*
X221011497Y-106834079D01*
G37*
G36*
X221221239Y-105791491D02*
G01*
X221248068Y-105791509D01*
X221271880Y-105791546D01*
X221292864Y-105791604D01*
X221311206Y-105791685D01*
X221327096Y-105791789D01*
X221340720Y-105791919D01*
X221352267Y-105792076D01*
X221361925Y-105792263D01*
X221369882Y-105792479D01*
X221376325Y-105792728D01*
X221381442Y-105793011D01*
X221385422Y-105793329D01*
X221388452Y-105793684D01*
X221390721Y-105794078D01*
X221392415Y-105794512D01*
X221393723Y-105794988D01*
X221394833Y-105795507D01*
X221395351Y-105795773D01*
X221403648Y-105802019D01*
X221410972Y-105811173D01*
X221411046Y-105811293D01*
X221417826Y-105822204D01*
X221418418Y-105876628D01*
X221418579Y-105893973D01*
X221418611Y-105907426D01*
X221418479Y-105917612D01*
X221418148Y-105925157D01*
X221417580Y-105930689D01*
X221416740Y-105934833D01*
X221415591Y-105938216D01*
X221414762Y-105940093D01*
X221407715Y-105951151D01*
X221397991Y-105959239D01*
X221390676Y-105962970D01*
X221389405Y-105963431D01*
X221387694Y-105963853D01*
X221385355Y-105964240D01*
X221382199Y-105964592D01*
X221378039Y-105964911D01*
X221372686Y-105965199D01*
X221365951Y-105965456D01*
X221357647Y-105965686D01*
X221347585Y-105965889D01*
X221335576Y-105966066D01*
X221321433Y-105966220D01*
X221304967Y-105966353D01*
X221285990Y-105966465D01*
X221264313Y-105966558D01*
X221239749Y-105966634D01*
X221212108Y-105966695D01*
X221181203Y-105966742D01*
X221146845Y-105966776D01*
X221108846Y-105966800D01*
X221067018Y-105966814D01*
X221021171Y-105966821D01*
X220971119Y-105966822D01*
X220935285Y-105966821D01*
X220879692Y-105966811D01*
X220828465Y-105966788D01*
X220781450Y-105966752D01*
X220738494Y-105966702D01*
X220699444Y-105966637D01*
X220664144Y-105966556D01*
X220632443Y-105966458D01*
X220604185Y-105966341D01*
X220579217Y-105966206D01*
X220557386Y-105966051D01*
X220538537Y-105965875D01*
X220522518Y-105965677D01*
X220509173Y-105965457D01*
X220498351Y-105965212D01*
X220489896Y-105964943D01*
X220483655Y-105964649D01*
X220479475Y-105964328D01*
X220477308Y-105964006D01*
X220468680Y-105960989D01*
X220461801Y-105956864D01*
X220460392Y-105955565D01*
X220458873Y-105953865D01*
X220457670Y-105952015D01*
X220456739Y-105949497D01*
X220456039Y-105945792D01*
X220455526Y-105940379D01*
X220455158Y-105932740D01*
X220454893Y-105922356D01*
X220454687Y-105908707D01*
X220454498Y-105891274D01*
X220454414Y-105882756D01*
X220454233Y-105863585D01*
X220454130Y-105848399D01*
X220454138Y-105836663D01*
X220454290Y-105827842D01*
X220454617Y-105821401D01*
X220455152Y-105816806D01*
X220455928Y-105813522D01*
X220456977Y-105811013D01*
X220458331Y-105808746D01*
X220458963Y-105807791D01*
X220460019Y-105805996D01*
X220460818Y-105804346D01*
X220461545Y-105802834D01*
X220462384Y-105801454D01*
X220463519Y-105800199D01*
X220465135Y-105799064D01*
X220467414Y-105798041D01*
X220470541Y-105797126D01*
X220474701Y-105796311D01*
X220480076Y-105795590D01*
X220486852Y-105794958D01*
X220495212Y-105794408D01*
X220505341Y-105793933D01*
X220517421Y-105793528D01*
X220531638Y-105793186D01*
X220548175Y-105792901D01*
X220567217Y-105792667D01*
X220588947Y-105792478D01*
X220613549Y-105792327D01*
X220641208Y-105792209D01*
X220672107Y-105792116D01*
X220706431Y-105792043D01*
X220744363Y-105791984D01*
X220786088Y-105791932D01*
X220831790Y-105791881D01*
X220881652Y-105791825D01*
X220933183Y-105791761D01*
X220986391Y-105791692D01*
X221035266Y-105791629D01*
X221079997Y-105791577D01*
X221120772Y-105791535D01*
X221157779Y-105791505D01*
X221191205Y-105791490D01*
X221221239Y-105791491D01*
G37*
G36*
X220999127Y-105400899D02*
G01*
X221044273Y-105409174D01*
X221053129Y-105411329D01*
X221079734Y-105418851D01*
X221104966Y-105427727D01*
X221130694Y-105438649D01*
X221144368Y-105445112D01*
X221184876Y-105467313D01*
X221222841Y-105493219D01*
X221258125Y-105522709D01*
X221290590Y-105555660D01*
X221320100Y-105591950D01*
X221335711Y-105614337D01*
X221348897Y-105634359D01*
X221348897Y-105706316D01*
X221348897Y-105778272D01*
X220790115Y-105779051D01*
X220231333Y-105779830D01*
X220215513Y-105784673D01*
X220187622Y-105794643D01*
X220161051Y-105807211D01*
X220135183Y-105822763D01*
X220109401Y-105841685D01*
X220083088Y-105864366D01*
X220072301Y-105874553D01*
X220044301Y-105903699D01*
X220019367Y-105933945D01*
X219997970Y-105964678D01*
X219981008Y-105994423D01*
X219974992Y-106007250D01*
X219968024Y-106023681D01*
X219960369Y-106042966D01*
X219952292Y-106064357D01*
X219944057Y-106087105D01*
X219935928Y-106110459D01*
X219928170Y-106133672D01*
X219921047Y-106155992D01*
X219914823Y-106176672D01*
X219909762Y-106194962D01*
X219908481Y-106199991D01*
X219900097Y-106235625D01*
X219893499Y-106268206D01*
X219888549Y-106298769D01*
X219885108Y-106328351D01*
X219883037Y-106357989D01*
X219882198Y-106388718D01*
X219882165Y-106396697D01*
X219883146Y-106437969D01*
X219886175Y-106478502D01*
X219891377Y-106518923D01*
X219898881Y-106559857D01*
X219908812Y-106601930D01*
X219921298Y-106645768D01*
X219936465Y-106691997D01*
X219949120Y-106727121D01*
X219960453Y-106756696D01*
X219971145Y-106782538D01*
X219981601Y-106805311D01*
X219992226Y-106825679D01*
X220003426Y-106844307D01*
X220015607Y-106861859D01*
X220029174Y-106878998D01*
X220044532Y-106896389D01*
X220062088Y-106914696D01*
X220066183Y-106918810D01*
X220090778Y-106942250D01*
X220114127Y-106962023D01*
X220136897Y-106978560D01*
X220159752Y-106992290D01*
X220183358Y-107003644D01*
X220208380Y-107013051D01*
X220215513Y-107015328D01*
X220231333Y-107020204D01*
X220790115Y-107020951D01*
X221348897Y-107021697D01*
X221348798Y-107094482D01*
X221348699Y-107167266D01*
X221333543Y-107189224D01*
X221307939Y-107223751D01*
X221281325Y-107254445D01*
X221253069Y-107281976D01*
X221222539Y-107307013D01*
X221222528Y-107307021D01*
X221184412Y-107332998D01*
X221144637Y-107354898D01*
X221103484Y-107372727D01*
X221061235Y-107386491D01*
X221018175Y-107396194D01*
X220974584Y-107401842D01*
X220930745Y-107403439D01*
X220886941Y-107400994D01*
X220843454Y-107394508D01*
X220800567Y-107383988D01*
X220758561Y-107369439D01*
X220717720Y-107350867D01*
X220678325Y-107328276D01*
X220640660Y-107301672D01*
X220633609Y-107296072D01*
X220602481Y-107268327D01*
X220573217Y-107237162D01*
X220546691Y-107203569D01*
X220529324Y-107177708D01*
X220513831Y-107152818D01*
X220362412Y-107151962D01*
X220332210Y-107151796D01*
X220306134Y-107151644D01*
X220283791Y-107151480D01*
X220264788Y-107151277D01*
X220248731Y-107151008D01*
X220235227Y-107150645D01*
X220223882Y-107150162D01*
X220214303Y-107149531D01*
X220206096Y-107148725D01*
X220198868Y-107147717D01*
X220192226Y-107146481D01*
X220185777Y-107144988D01*
X220179126Y-107143212D01*
X220171881Y-107141125D01*
X220163647Y-107138702D01*
X220161692Y-107138128D01*
X220140421Y-107130771D01*
X220117095Y-107120710D01*
X220092782Y-107108513D01*
X220068547Y-107094746D01*
X220045457Y-107079975D01*
X220026804Y-107066497D01*
X220002576Y-107046394D01*
X219978562Y-107023786D01*
X219955633Y-106999619D01*
X219934659Y-106974835D01*
X219916510Y-106950382D01*
X219908333Y-106937877D01*
X219894159Y-106913748D01*
X219879282Y-106886058D01*
X219864103Y-106855629D01*
X219849023Y-106823284D01*
X219834444Y-106789845D01*
X219825524Y-106768156D01*
X219801726Y-106703325D01*
X219782374Y-106638427D01*
X219767394Y-106573198D01*
X219757612Y-106514129D01*
X219755748Y-106497363D01*
X219754175Y-106477223D01*
X219752918Y-106454712D01*
X219752002Y-106430835D01*
X219751450Y-106406596D01*
X219751287Y-106382997D01*
X219751536Y-106361044D01*
X219752222Y-106341740D01*
X219753151Y-106328332D01*
X219759835Y-106271860D01*
X219769485Y-106216525D01*
X219782276Y-106161694D01*
X219798382Y-106106737D01*
X219817976Y-106051020D01*
X219841233Y-105993912D01*
X219851570Y-105970602D01*
X219868913Y-105933852D01*
X219885933Y-105900999D01*
X219903005Y-105871475D01*
X219920505Y-105844711D01*
X219938809Y-105820138D01*
X219958292Y-105797189D01*
X219979330Y-105775295D01*
X219982999Y-105771723D01*
X220016617Y-105741890D01*
X220051593Y-105715882D01*
X220087684Y-105693825D01*
X220124642Y-105675848D01*
X220162223Y-105662078D01*
X220200181Y-105652642D01*
X220217371Y-105649837D01*
X220223656Y-105649309D01*
X220234204Y-105648837D01*
X220248758Y-105648427D01*
X220267062Y-105648082D01*
X220288859Y-105647804D01*
X220313893Y-105647600D01*
X220341907Y-105647472D01*
X220372644Y-105647424D01*
X220374960Y-105647424D01*
X220514869Y-105647424D01*
X220519753Y-105637819D01*
X220527547Y-105624160D01*
X220537983Y-105608349D01*
X220550381Y-105591295D01*
X220564058Y-105573909D01*
X220578333Y-105557099D01*
X220589041Y-105545396D01*
X220622242Y-105513631D01*
X220657964Y-105485488D01*
X220695912Y-105461050D01*
X220735793Y-105440402D01*
X220777310Y-105423631D01*
X220820169Y-105410822D01*
X220864075Y-105402058D01*
X220908733Y-105397427D01*
X220953849Y-105397012D01*
X220999127Y-105400899D01*
G37*
G36*
X221484496Y-106400000D02*
G01*
X221484496Y-106549159D01*
X221467546Y-106549159D01*
X221450596Y-106549159D01*
X221450596Y-106484750D01*
X221450596Y-106420340D01*
X221314210Y-106420340D01*
X221177825Y-106420340D01*
X221176386Y-106443505D01*
X221173472Y-106469063D01*
X221168146Y-106490962D01*
X221160432Y-106509152D01*
X221150356Y-106523581D01*
X221137942Y-106534198D01*
X221130142Y-106538387D01*
X221118799Y-106541712D01*
X221106004Y-106542840D01*
X221093732Y-106541717D01*
X221086574Y-106539588D01*
X221075997Y-106533391D01*
X221065464Y-106524259D01*
X221056474Y-106513537D01*
X221054923Y-106511210D01*
X221048760Y-106501511D01*
X221048363Y-106502091D01*
X221043668Y-106508950D01*
X221037125Y-106517469D01*
X221029364Y-106526034D01*
X221021540Y-106533482D01*
X221014807Y-106538649D01*
X221013414Y-106539456D01*
X221005168Y-106541946D01*
X220994937Y-106542557D01*
X220984835Y-106541311D01*
X220978407Y-106539066D01*
X220973974Y-106535884D01*
X220967686Y-106530253D01*
X220960618Y-106523165D01*
X220957538Y-106519838D01*
X220951235Y-106512987D01*
X220946087Y-106507624D01*
X220942815Y-106504488D01*
X220942083Y-106503986D01*
X220942075Y-106503981D01*
X220940202Y-106505604D01*
X220936361Y-106509893D01*
X220931356Y-106515947D01*
X220930984Y-106516412D01*
X220919580Y-106528858D01*
X220908409Y-106537122D01*
X220897005Y-106541489D01*
X220888444Y-106542379D01*
X220878175Y-106541117D01*
X220868628Y-106537036D01*
X220859117Y-106529692D01*
X220848951Y-106518644D01*
X220846210Y-106515230D01*
X220837299Y-106503888D01*
X220835120Y-106501115D01*
X220830453Y-106507622D01*
X220824261Y-106515481D01*
X220816914Y-106523665D01*
X220809452Y-106531119D01*
X220802916Y-106536788D01*
X220799338Y-106539187D01*
X220791690Y-106541479D01*
X220781915Y-106542267D01*
X220772105Y-106541551D01*
X220764349Y-106539334D01*
X220764013Y-106539163D01*
X220759189Y-106535722D01*
X220752577Y-106529879D01*
X220745265Y-106522719D01*
X220738343Y-106515326D01*
X220732899Y-106508785D01*
X220731412Y-106506700D01*
X220729647Y-106504301D01*
X220728992Y-106504026D01*
X220727964Y-106503595D01*
X220725634Y-106505036D01*
X220721924Y-106509078D01*
X220716104Y-106516175D01*
X220716061Y-106516227D01*
X220706798Y-106527009D01*
X220698889Y-106534453D01*
X220691400Y-106539121D01*
X220683394Y-106541573D01*
X220673937Y-106542368D01*
X220672384Y-106542379D01*
X220657599Y-106540822D01*
X220645051Y-106535942D01*
X220634313Y-106527431D01*
X220624957Y-106514977D01*
X220618903Y-106503534D01*
X220614613Y-106492607D01*
X220610526Y-106479150D01*
X220607012Y-106464734D01*
X220604444Y-106450931D01*
X220603194Y-106439312D01*
X220603130Y-106436910D01*
X220603245Y-106433500D01*
X220603392Y-106430590D01*
X220603243Y-106428140D01*
X220602467Y-106426110D01*
X220600735Y-106424463D01*
X220597719Y-106423157D01*
X220593088Y-106422155D01*
X220586514Y-106421416D01*
X220577667Y-106420902D01*
X220566217Y-106420574D01*
X220551835Y-106420391D01*
X220534192Y-106420316D01*
X220512958Y-106420308D01*
X220487804Y-106420329D01*
X220464000Y-106420340D01*
X220327644Y-106420340D01*
X220235418Y-106470904D01*
X220215595Y-106481766D01*
X220196100Y-106492436D01*
X220177477Y-106502617D01*
X220160269Y-106512013D01*
X220145020Y-106520326D01*
X220132275Y-106527261D01*
X220127508Y-106529846D01*
X220122577Y-106532519D01*
X220117983Y-106534995D01*
X220092773Y-106548522D01*
X220091202Y-106518896D01*
X220090895Y-106510654D01*
X220090652Y-106499077D01*
X220090471Y-106484649D01*
X220090348Y-106467853D01*
X220090303Y-106455299D01*
X220126243Y-106455299D01*
X220126325Y-106466898D01*
X220126551Y-106476700D01*
X220126889Y-106483909D01*
X220127310Y-106487734D01*
X220127508Y-106488140D01*
X220129726Y-106487083D01*
X220135397Y-106484091D01*
X220144030Y-106479432D01*
X220155131Y-106473374D01*
X220168209Y-106466185D01*
X220182769Y-106458133D01*
X220188766Y-106454805D01*
X220248760Y-106421470D01*
X220190364Y-106420866D01*
X220174462Y-106420743D01*
X220159987Y-106420712D01*
X220147573Y-106420767D01*
X220137854Y-106420904D01*
X220131465Y-106421116D01*
X220129106Y-106421360D01*
X220127902Y-106423112D01*
X220127057Y-106427624D01*
X220126530Y-106435389D01*
X220126279Y-106446896D01*
X220126243Y-106455299D01*
X220090303Y-106455299D01*
X220090281Y-106449173D01*
X220090267Y-106429095D01*
X220090302Y-106408101D01*
X220090383Y-106386676D01*
X220090424Y-106379660D01*
X220126243Y-106379660D01*
X220186698Y-106379638D01*
X220247153Y-106379616D01*
X220187475Y-106345738D01*
X220172571Y-106337292D01*
X220158977Y-106329614D01*
X220147178Y-106322978D01*
X220137658Y-106317654D01*
X220130905Y-106313915D01*
X220127401Y-106312033D01*
X220127020Y-106311861D01*
X220126750Y-106313990D01*
X220126520Y-106319859D01*
X220126350Y-106328685D01*
X220126256Y-106339687D01*
X220126243Y-106345760D01*
X220126243Y-106379660D01*
X220090424Y-106379660D01*
X220090508Y-106365305D01*
X220090674Y-106344470D01*
X220090878Y-106324657D01*
X220091117Y-106306350D01*
X220091387Y-106290032D01*
X220091687Y-106276187D01*
X220092012Y-106265300D01*
X220092361Y-106257855D01*
X220092729Y-106254336D01*
X220092815Y-106254134D01*
X220095029Y-106254905D01*
X220100845Y-106257684D01*
X220109915Y-106262286D01*
X220121890Y-106268527D01*
X220136420Y-106276221D01*
X220153156Y-106285184D01*
X220171749Y-106295231D01*
X220191849Y-106306177D01*
X220212001Y-106317227D01*
X220329584Y-106381920D01*
X220482000Y-106381920D01*
X220634415Y-106381920D01*
X220635618Y-106393785D01*
X220636319Y-106401611D01*
X220637132Y-106412069D01*
X220637915Y-106423276D01*
X220638140Y-106426793D01*
X220639191Y-106438879D01*
X220640786Y-106451823D01*
X220642618Y-106463199D01*
X220643014Y-106465212D01*
X220647140Y-106481284D01*
X220652165Y-106493246D01*
X220658318Y-106501460D01*
X220665831Y-106506286D01*
X220670074Y-106507523D01*
X220674761Y-106507843D01*
X220678692Y-106506054D01*
X220683433Y-106501389D01*
X220684076Y-106500661D01*
X220689049Y-106494046D01*
X220694378Y-106485451D01*
X220699449Y-106476074D01*
X220703646Y-106467112D01*
X220706353Y-106459761D01*
X220707036Y-106455991D01*
X220706433Y-106451900D01*
X220704805Y-106444502D01*
X220702396Y-106434829D01*
X220699453Y-106423912D01*
X220699294Y-106423345D01*
X220692599Y-106396458D01*
X220687877Y-106370815D01*
X220685156Y-106346915D01*
X220684499Y-106326430D01*
X220720902Y-106326430D01*
X220721221Y-106339473D01*
X220721944Y-106352842D01*
X220723020Y-106365521D01*
X220724397Y-106376495D01*
X220726024Y-106384748D01*
X220727412Y-106388603D01*
X220728992Y-106388892D01*
X220730898Y-106385155D01*
X220732959Y-106377858D01*
X220734852Y-106368360D01*
X220735444Y-106362222D01*
X220735814Y-106352874D01*
X220735966Y-106341619D01*
X220735906Y-106329761D01*
X220735640Y-106318605D01*
X220735173Y-106309453D01*
X220734580Y-106303975D01*
X220732375Y-106297282D01*
X220729204Y-106294156D01*
X220725770Y-106294873D01*
X220722887Y-106299413D01*
X220721683Y-106305384D01*
X220721039Y-106314728D01*
X220720902Y-106326430D01*
X220684499Y-106326430D01*
X220684462Y-106325262D01*
X220685824Y-106306355D01*
X220689270Y-106290696D01*
X220691664Y-106284499D01*
X220697871Y-106273941D01*
X220705311Y-106265875D01*
X220706054Y-106265289D01*
X220711786Y-106261472D01*
X220717343Y-106259504D01*
X220724666Y-106258825D01*
X220728588Y-106258789D01*
X220737280Y-106259172D01*
X220743402Y-106260629D01*
X220748872Y-106263708D01*
X220750812Y-106265135D01*
X220759262Y-106273625D01*
X220765532Y-106284733D01*
X220769718Y-106298817D01*
X220771915Y-106316238D01*
X220772221Y-106337356D01*
X220771970Y-106344210D01*
X220770636Y-106363265D01*
X220768320Y-106380812D01*
X220764726Y-106398467D01*
X220759558Y-106417846D01*
X220756697Y-106427370D01*
X220753801Y-106437487D01*
X220751536Y-106446783D01*
X220750213Y-106453901D01*
X220750000Y-106456420D01*
X220751177Y-106462949D01*
X220754329Y-106471318D01*
X220758891Y-106480593D01*
X220764297Y-106489839D01*
X220769979Y-106498121D01*
X220775371Y-106504504D01*
X220779908Y-106508055D01*
X220781544Y-106508479D01*
X220785483Y-106506570D01*
X220790689Y-106501428D01*
X220796551Y-106493934D01*
X220802459Y-106484968D01*
X220807806Y-106475410D01*
X220811980Y-106466141D01*
X220813151Y-106462821D01*
X220814259Y-106458390D01*
X220814416Y-106453919D01*
X220813463Y-106448246D01*
X220811241Y-106440209D01*
X220809128Y-106433441D01*
X220803566Y-106413794D01*
X220798856Y-106392838D01*
X220795151Y-106371631D01*
X220792605Y-106351229D01*
X220791370Y-106332688D01*
X220791539Y-106321102D01*
X220829261Y-106321102D01*
X220829270Y-106333016D01*
X220829569Y-106345490D01*
X220830131Y-106357538D01*
X220830932Y-106368173D01*
X220831947Y-106376410D01*
X220833153Y-106381263D01*
X220833296Y-106381549D01*
X220835537Y-106384837D01*
X220837299Y-106385161D01*
X220838896Y-106382090D01*
X220840642Y-106375194D01*
X220841695Y-106370044D01*
X220843322Y-106358984D01*
X220844319Y-106346291D01*
X220844688Y-106333139D01*
X220844429Y-106320701D01*
X220843543Y-106310153D01*
X220842031Y-106302666D01*
X220841645Y-106301618D01*
X220838384Y-106295652D01*
X220835301Y-106294119D01*
X220832163Y-106296952D01*
X220831212Y-106298575D01*
X220830207Y-106302895D01*
X220829565Y-106310733D01*
X220829261Y-106321102D01*
X220791539Y-106321102D01*
X220791598Y-106317067D01*
X220791860Y-106314131D01*
X220795118Y-106296607D01*
X220800723Y-106281904D01*
X220808412Y-106270365D01*
X220817922Y-106262336D01*
X220828990Y-106258158D01*
X220835017Y-106257621D01*
X220847611Y-106259781D01*
X220858825Y-106265939D01*
X220867856Y-106275607D01*
X220869741Y-106278626D01*
X220876369Y-106294534D01*
X220880027Y-106313847D01*
X220880715Y-106336562D01*
X220878434Y-106362675D01*
X220873182Y-106392184D01*
X220865072Y-106424687D01*
X220862305Y-106435385D01*
X220860109Y-106445412D01*
X220858765Y-106453403D01*
X220858479Y-106456956D01*
X220859650Y-106464237D01*
X220862786Y-106473118D01*
X220867327Y-106482652D01*
X220872712Y-106491894D01*
X220878378Y-106499897D01*
X220883766Y-106505714D01*
X220888313Y-106508401D01*
X220889047Y-106508479D01*
X220892631Y-106506649D01*
X220897640Y-106501764D01*
X220903330Y-106494738D01*
X220908956Y-106486482D01*
X220913449Y-106478563D01*
X220917191Y-106469661D01*
X220919019Y-106460831D01*
X220918917Y-106451047D01*
X220916872Y-106439283D01*
X220912869Y-106424512D01*
X220912707Y-106423972D01*
X220905367Y-106396126D01*
X220900758Y-106369711D01*
X220898583Y-106342803D01*
X220898324Y-106331070D01*
X220898325Y-106330291D01*
X220932454Y-106330291D01*
X220932943Y-106342332D01*
X220933267Y-106345760D01*
X220934920Y-106359024D01*
X220936792Y-106370393D01*
X220938736Y-106379195D01*
X220940607Y-106384758D01*
X220942083Y-106386440D01*
X220944822Y-106384276D01*
X220947081Y-106378128D01*
X220948786Y-106368517D01*
X220949860Y-106355960D01*
X220950230Y-106340977D01*
X220950083Y-106331070D01*
X220949570Y-106320258D01*
X220948742Y-106310555D01*
X220947726Y-106303204D01*
X220946921Y-106299996D01*
X220944019Y-106294913D01*
X220941138Y-106293830D01*
X220938433Y-106296229D01*
X220936057Y-106301593D01*
X220934165Y-106309403D01*
X220932913Y-106319141D01*
X220932454Y-106330291D01*
X220898325Y-106330291D01*
X220898333Y-106318322D01*
X220898652Y-106308984D01*
X220899411Y-106301949D01*
X220900740Y-106296111D01*
X220902766Y-106290363D01*
X220903212Y-106289261D01*
X220908280Y-106278448D01*
X220913693Y-106270735D01*
X220920514Y-106264758D01*
X220924238Y-106262327D01*
X220934996Y-106258324D01*
X220947016Y-106258323D01*
X220959474Y-106262315D01*
X220960265Y-106262706D01*
X220969671Y-106269932D01*
X220976989Y-106280878D01*
X220982200Y-106295246D01*
X220985286Y-106312738D01*
X220986228Y-106333055D01*
X220985010Y-106355901D01*
X220981611Y-106380976D01*
X220976015Y-106407983D01*
X220970444Y-106429050D01*
X220967193Y-106440472D01*
X220965100Y-106448511D01*
X220964056Y-106454121D01*
X220963952Y-106458257D01*
X220964680Y-106461875D01*
X220966131Y-106465930D01*
X220966218Y-106466154D01*
X220969504Y-106473260D01*
X220974151Y-106481616D01*
X220979486Y-106490193D01*
X220984833Y-106497965D01*
X220989516Y-106503904D01*
X220992860Y-106506982D01*
X220993130Y-106507106D01*
X220997963Y-106507247D01*
X221000741Y-106506282D01*
X221004846Y-106502572D01*
X221010104Y-106495616D01*
X221015915Y-106486338D01*
X221021679Y-106475657D01*
X221024451Y-106469871D01*
X221030225Y-106457252D01*
X221024432Y-106438231D01*
X221017382Y-106413456D01*
X221012234Y-106391338D01*
X221008742Y-106370557D01*
X221006661Y-106349792D01*
X221006119Y-106340104D01*
X221005629Y-106326088D01*
X221005624Y-106324174D01*
X221041871Y-106324174D01*
X221041881Y-106336781D01*
X221042337Y-106349840D01*
X221043186Y-106362439D01*
X221044374Y-106373662D01*
X221045848Y-106382595D01*
X221047556Y-106388326D01*
X221048363Y-106389592D01*
X221050172Y-106389346D01*
X221051883Y-106385311D01*
X221053443Y-106378220D01*
X221054796Y-106368805D01*
X221055887Y-106357796D01*
X221056661Y-106345925D01*
X221057063Y-106333924D01*
X221057039Y-106322525D01*
X221056532Y-106312459D01*
X221055488Y-106304458D01*
X221054941Y-106302118D01*
X221052197Y-106295908D01*
X221049012Y-106294010D01*
X221045964Y-106296330D01*
X221043630Y-106302774D01*
X221043398Y-106303975D01*
X221042359Y-106312934D01*
X221041871Y-106324174D01*
X221005624Y-106324174D01*
X221005604Y-106315539D01*
X221006098Y-106307421D01*
X221007162Y-106300701D01*
X221008386Y-106295892D01*
X221014435Y-106280701D01*
X221022574Y-106269299D01*
X221032658Y-106261812D01*
X221044541Y-106258366D01*
X221051915Y-106258247D01*
X221063035Y-106260380D01*
X221071946Y-106265392D01*
X221079380Y-106273858D01*
X221085123Y-106284280D01*
X221090281Y-106299581D01*
X221092937Y-106318161D01*
X221093085Y-106340115D01*
X221090723Y-106365536D01*
X221085845Y-106394520D01*
X221078612Y-106426506D01*
X221075502Y-106439063D01*
X221073412Y-106448154D01*
X221072247Y-106454693D01*
X221071910Y-106459595D01*
X221072309Y-106463775D01*
X221073347Y-106468147D01*
X221074043Y-106470576D01*
X221077676Y-106480362D01*
X221082599Y-106490098D01*
X221088065Y-106498554D01*
X221093332Y-106504504D01*
X221095580Y-106506113D01*
X221103131Y-106507772D01*
X221111372Y-106505634D01*
X221119511Y-106500172D01*
X221126754Y-106491858D01*
X221130553Y-106485260D01*
X221133934Y-106477161D01*
X221136593Y-106468102D01*
X221138658Y-106457313D01*
X221140257Y-106444024D01*
X221141518Y-106427464D01*
X221142184Y-106415255D01*
X221143701Y-106384180D01*
X221297149Y-106384180D01*
X221450596Y-106384180D01*
X221450596Y-106317510D01*
X221450596Y-106250841D01*
X221467546Y-106250841D01*
X221484496Y-106250841D01*
X221484496Y-106400000D01*
G37*
%TO.C,G7*%
G36*
X163263268Y-111584787D02*
G01*
X163263639Y-111588452D01*
X163246161Y-111589949D01*
X163243517Y-111589933D01*
X163226200Y-111588324D01*
X163227853Y-111584925D01*
X163229773Y-111584373D01*
X163254094Y-111582738D01*
X163263268Y-111584787D01*
G37*
G36*
X165378202Y-115807768D02*
G01*
X165431024Y-115843803D01*
X165477968Y-115894036D01*
X165581333Y-116029027D01*
X165681240Y-116169542D01*
X165775608Y-116312173D01*
X165862358Y-116453513D01*
X165939407Y-116590154D01*
X166004675Y-116718689D01*
X166056082Y-116835710D01*
X166061560Y-116849698D01*
X166098820Y-116952507D01*
X166125644Y-117042526D01*
X166143332Y-117125962D01*
X166153185Y-117209022D01*
X166156503Y-117297913D01*
X166156522Y-117302923D01*
X166154659Y-117392065D01*
X166147535Y-117466514D01*
X166133500Y-117533609D01*
X166110904Y-117600692D01*
X166078097Y-117675106D01*
X166068369Y-117695180D01*
X166005698Y-117799816D01*
X165925931Y-117896152D01*
X165832940Y-117980632D01*
X165730597Y-118049700D01*
X165631238Y-118096677D01*
X165506917Y-118133686D01*
X165380070Y-118152821D01*
X165256016Y-118153494D01*
X165189892Y-118145610D01*
X165057536Y-118112459D01*
X164934618Y-118060127D01*
X164822863Y-117990190D01*
X164723997Y-117904225D01*
X164639746Y-117803810D01*
X164571836Y-117690521D01*
X164521994Y-117565935D01*
X164510348Y-117524744D01*
X164496859Y-117450456D01*
X164489635Y-117362659D01*
X164488918Y-117286176D01*
X164784773Y-117286176D01*
X164786843Y-117368086D01*
X164795042Y-117434873D01*
X164811267Y-117493340D01*
X164837410Y-117550288D01*
X164875368Y-117612519D01*
X164875899Y-117613321D01*
X164944193Y-117696898D01*
X165025679Y-117763725D01*
X165117662Y-117812740D01*
X165217445Y-117842882D01*
X165322331Y-117853089D01*
X165429625Y-117842301D01*
X165447604Y-117838374D01*
X165545693Y-117804250D01*
X165634154Y-117751901D01*
X165711141Y-117684036D01*
X165774804Y-117603361D01*
X165823297Y-117512583D01*
X165854772Y-117414409D01*
X165867380Y-117311546D01*
X165862945Y-117229917D01*
X165839172Y-117114031D01*
X165797577Y-116985945D01*
X165738526Y-116846414D01*
X165662384Y-116696195D01*
X165569516Y-116536043D01*
X165460288Y-116366713D01*
X165411273Y-116295401D01*
X165380065Y-116252222D01*
X165352705Y-116217069D01*
X165331975Y-116193334D01*
X165320662Y-116184409D01*
X165320176Y-116184455D01*
X165308315Y-116195319D01*
X165286667Y-116222098D01*
X165257300Y-116261787D01*
X165222288Y-116311380D01*
X165183701Y-116367874D01*
X165143609Y-116428262D01*
X165104085Y-116489539D01*
X165067199Y-116548701D01*
X165053279Y-116571715D01*
X164968700Y-116721458D01*
X164896767Y-116866423D01*
X164839394Y-117002643D01*
X164821662Y-117051714D01*
X164805183Y-117102112D01*
X164794518Y-117143164D01*
X164788402Y-117182915D01*
X164785570Y-117229406D01*
X164784773Y-117286176D01*
X164488918Y-117286176D01*
X164488760Y-117269299D01*
X164494316Y-117178322D01*
X164505929Y-117099869D01*
X164537414Y-116980346D01*
X164584527Y-116848762D01*
X164646046Y-116707709D01*
X164720748Y-116559779D01*
X164807413Y-116407565D01*
X164904817Y-116253658D01*
X164904970Y-116253429D01*
X164945099Y-116194518D01*
X164989925Y-116131069D01*
X165037031Y-116066269D01*
X165084000Y-116003308D01*
X165128417Y-115945374D01*
X165167863Y-115895655D01*
X165199923Y-115857340D01*
X165222181Y-115833618D01*
X165225085Y-115831038D01*
X165274673Y-115801246D01*
X165325898Y-115793535D01*
X165378202Y-115807768D01*
G37*
G36*
X168707255Y-112560513D02*
G01*
X168747142Y-112589717D01*
X168775040Y-112631417D01*
X168786705Y-112683403D01*
X168786816Y-112689105D01*
X168784551Y-112703792D01*
X168777284Y-112726839D01*
X168764340Y-112759709D01*
X168745045Y-112803869D01*
X168718723Y-112860784D01*
X168684699Y-112931917D01*
X168642298Y-113018736D01*
X168590846Y-113122705D01*
X168541231Y-113222176D01*
X168492715Y-113319299D01*
X168447380Y-113410270D01*
X168406181Y-113493155D01*
X168370075Y-113566021D01*
X168340018Y-113626933D01*
X168316966Y-113673957D01*
X168301875Y-113705159D01*
X168295703Y-113718606D01*
X168295605Y-113718961D01*
X168306321Y-113720352D01*
X168336680Y-113721618D01*
X168383992Y-113722715D01*
X168445569Y-113723599D01*
X168518724Y-113724227D01*
X168600769Y-113724556D01*
X168640858Y-113724594D01*
X168986111Y-113724594D01*
X169021980Y-113754776D01*
X169059195Y-113796827D01*
X169080273Y-113844297D01*
X169082758Y-113891402D01*
X169081892Y-113895860D01*
X169074899Y-113912286D01*
X169057581Y-113944534D01*
X169029752Y-113992908D01*
X168991229Y-114057709D01*
X168941826Y-114139238D01*
X168881359Y-114237797D01*
X168809642Y-114353688D01*
X168726490Y-114487213D01*
X168631720Y-114638674D01*
X168525146Y-114808371D01*
X168441903Y-114940581D01*
X168402258Y-115002412D01*
X168364848Y-115058763D01*
X168331849Y-115106512D01*
X168305437Y-115142534D01*
X168287788Y-115163706D01*
X168284178Y-115166961D01*
X168236096Y-115189774D01*
X168183997Y-115193077D01*
X168140090Y-115179348D01*
X168092432Y-115144090D01*
X168064412Y-115099057D01*
X168056573Y-115049265D01*
X168057906Y-115036777D01*
X168062036Y-115021497D01*
X168069916Y-115001760D01*
X168082495Y-114975901D01*
X168100725Y-114942255D01*
X168125557Y-114899158D01*
X168157943Y-114844943D01*
X168198832Y-114777947D01*
X168249177Y-114696504D01*
X168309929Y-114598948D01*
X168355036Y-114526767D01*
X168413479Y-114433196D01*
X168468393Y-114345012D01*
X168518620Y-114264093D01*
X168563002Y-114192316D01*
X168600381Y-114131560D01*
X168629600Y-114083702D01*
X168649502Y-114050619D01*
X168658928Y-114034189D01*
X168659460Y-114033050D01*
X168659864Y-114027763D01*
X168655014Y-114023605D01*
X168642604Y-114020443D01*
X168620329Y-114018143D01*
X168585885Y-114016571D01*
X168536966Y-114015595D01*
X168471268Y-114015080D01*
X168386484Y-114014892D01*
X168345937Y-114014879D01*
X168249692Y-114014710D01*
X168173176Y-114014116D01*
X168113790Y-114012968D01*
X168068934Y-114011139D01*
X168036010Y-114008499D01*
X168012419Y-114004920D01*
X167995560Y-114000273D01*
X167988121Y-113997170D01*
X167946087Y-113967340D01*
X167919762Y-113923865D01*
X167909614Y-113883974D01*
X167908759Y-113874044D01*
X167909703Y-113862210D01*
X167913156Y-113846922D01*
X167919826Y-113826628D01*
X167930424Y-113799779D01*
X167945659Y-113764822D01*
X167966241Y-113720207D01*
X167992878Y-113664384D01*
X168026280Y-113595802D01*
X168067157Y-113512909D01*
X168116218Y-113414156D01*
X168174172Y-113297992D01*
X168215607Y-113215094D01*
X168284671Y-113077337D01*
X168344581Y-112958637D01*
X168395896Y-112857943D01*
X168439174Y-112774204D01*
X168474972Y-112706369D01*
X168503849Y-112653387D01*
X168526362Y-112614208D01*
X168543069Y-112587781D01*
X168554529Y-112573055D01*
X168558098Y-112569981D01*
X168608489Y-112548435D01*
X168659622Y-112546015D01*
X168707255Y-112560513D01*
G37*
G36*
X165373843Y-112547323D02*
G01*
X165412642Y-112550127D01*
X165444021Y-112556530D01*
X165475429Y-112567948D01*
X165506637Y-112582145D01*
X165591771Y-112634425D01*
X165661929Y-112703065D01*
X165715849Y-112786804D01*
X165720163Y-112795671D01*
X165755605Y-112870484D01*
X165758689Y-113450027D01*
X165761774Y-114029570D01*
X165800208Y-114072111D01*
X165875936Y-114171636D01*
X165932019Y-114279855D01*
X165967808Y-114394599D01*
X165982652Y-114513698D01*
X165975898Y-114634980D01*
X165973538Y-114649974D01*
X165944379Y-114757705D01*
X165895572Y-114859481D01*
X165829563Y-114952595D01*
X165748797Y-115034337D01*
X165655721Y-115101998D01*
X165552779Y-115152869D01*
X165504749Y-115169307D01*
X165444213Y-115182365D01*
X165372020Y-115190579D01*
X165297756Y-115193385D01*
X165231009Y-115190220D01*
X165206754Y-115186838D01*
X165096462Y-115156183D01*
X164992733Y-115106283D01*
X164898482Y-115039600D01*
X164816625Y-114958595D01*
X164750077Y-114865729D01*
X164701755Y-114763464D01*
X164700265Y-114759276D01*
X164669842Y-114641014D01*
X164660764Y-114522219D01*
X164664532Y-114485480D01*
X164957992Y-114485480D01*
X164958480Y-114529570D01*
X164959356Y-114549489D01*
X164963271Y-114603107D01*
X164970252Y-114642826D01*
X164982293Y-114677051D01*
X164996245Y-114704906D01*
X165047045Y-114776640D01*
X165112370Y-114835115D01*
X165187952Y-114877127D01*
X165251442Y-114896439D01*
X165295528Y-114904031D01*
X165329892Y-114905826D01*
X165364921Y-114901456D01*
X165409940Y-114890828D01*
X165496142Y-114857562D01*
X165569524Y-114806323D01*
X165628555Y-114738379D01*
X165659020Y-114684769D01*
X165675109Y-114645706D01*
X165684036Y-114608164D01*
X165687625Y-114562660D01*
X165687987Y-114534044D01*
X165682850Y-114460267D01*
X165665794Y-114396568D01*
X165634352Y-114337671D01*
X165586056Y-114278294D01*
X165552820Y-114244861D01*
X165476484Y-114171839D01*
X165470901Y-113547004D01*
X165465319Y-112922170D01*
X165433304Y-112888764D01*
X165384978Y-112851239D01*
X165333617Y-112834808D01*
X165281683Y-112839736D01*
X165231640Y-112866286D01*
X165230637Y-112867069D01*
X165217727Y-112877501D01*
X165206775Y-112888076D01*
X165197617Y-112900621D01*
X165190091Y-112916957D01*
X165184036Y-112938908D01*
X165179290Y-112968298D01*
X165175689Y-113006950D01*
X165173072Y-113056689D01*
X165171277Y-113119337D01*
X165170142Y-113196718D01*
X165169504Y-113290655D01*
X165169201Y-113402973D01*
X165169071Y-113535494D01*
X165169055Y-113559554D01*
X165168826Y-113699949D01*
X165168321Y-113819347D01*
X165167508Y-113919078D01*
X165166360Y-114000473D01*
X165164844Y-114064862D01*
X165162932Y-114113577D01*
X165160594Y-114147948D01*
X165157798Y-114169305D01*
X165155099Y-114178120D01*
X165140316Y-114197142D01*
X165114100Y-114225030D01*
X165081894Y-114256026D01*
X165079073Y-114258602D01*
X165023891Y-114318698D01*
X164985669Y-114384345D01*
X164970245Y-114421289D01*
X164961466Y-114452194D01*
X164957992Y-114485480D01*
X164664532Y-114485480D01*
X164672752Y-114405327D01*
X164705533Y-114292776D01*
X164758829Y-114187004D01*
X164766421Y-114175141D01*
X164794108Y-114135618D01*
X164823094Y-114098486D01*
X164843731Y-114075336D01*
X164878213Y-114040893D01*
X164881480Y-113461271D01*
X164882219Y-113332745D01*
X164882927Y-113224558D01*
X164883692Y-113134722D01*
X164884607Y-113061246D01*
X164885762Y-113002141D01*
X164887246Y-112955418D01*
X164889152Y-112919086D01*
X164891569Y-112891155D01*
X164894588Y-112869638D01*
X164898300Y-112852543D01*
X164902795Y-112837881D01*
X164908164Y-112823663D01*
X164910815Y-112817065D01*
X164949097Y-112747046D01*
X165003969Y-112680257D01*
X165069842Y-112622547D01*
X165134374Y-112582983D01*
X165170751Y-112566055D01*
X165200807Y-112555396D01*
X165231882Y-112549574D01*
X165271313Y-112547155D01*
X165320176Y-112546703D01*
X165373843Y-112547323D01*
G37*
G36*
X168274888Y-115802796D02*
G01*
X168292207Y-115811926D01*
X168328446Y-115839272D01*
X168352043Y-115871195D01*
X168363256Y-115910541D01*
X168362349Y-115960153D01*
X168349582Y-116022875D01*
X168325216Y-116101551D01*
X168320155Y-116116104D01*
X168281955Y-116234808D01*
X168256624Y-116338888D01*
X168243827Y-116431727D01*
X168243225Y-116516707D01*
X168254482Y-116597209D01*
X168267301Y-116646460D01*
X168296553Y-116711802D01*
X168337689Y-116761592D01*
X168387393Y-116795212D01*
X168442348Y-116812043D01*
X168499238Y-116811466D01*
X168554745Y-116792862D01*
X168605554Y-116755613D01*
X168638199Y-116715648D01*
X168664303Y-116656770D01*
X168674104Y-116585580D01*
X168667441Y-116505192D01*
X168652316Y-116443231D01*
X168631173Y-116361531D01*
X168623621Y-116295656D01*
X168629940Y-116243505D01*
X168650408Y-116202976D01*
X168685303Y-116171969D01*
X168688493Y-116169979D01*
X168735808Y-116151078D01*
X168788101Y-116150370D01*
X168848336Y-116168046D01*
X168879286Y-116182281D01*
X169014149Y-116261520D01*
X169131838Y-116355030D01*
X169232387Y-116462846D01*
X169315827Y-116585007D01*
X169382191Y-116721550D01*
X169406985Y-116789176D01*
X169444542Y-116936076D01*
X169460398Y-117083350D01*
X169455075Y-117229172D01*
X169429092Y-117371714D01*
X169382970Y-117509151D01*
X169317230Y-117639654D01*
X169232392Y-117761398D01*
X169128976Y-117872554D01*
X169087923Y-117909098D01*
X169023885Y-117956799D01*
X168945635Y-118005023D01*
X168860466Y-118049972D01*
X168775671Y-118087850D01*
X168698542Y-118114859D01*
X168686374Y-118118186D01*
X168632989Y-118128282D01*
X168564537Y-118135754D01*
X168487283Y-118140454D01*
X168407496Y-118142233D01*
X168331442Y-118140943D01*
X168265389Y-118136434D01*
X168218712Y-118129286D01*
X168068864Y-118084747D01*
X167930363Y-118022020D01*
X167804512Y-117942173D01*
X167692609Y-117846276D01*
X167595957Y-117735397D01*
X167515856Y-117610604D01*
X167469732Y-117514110D01*
X167426794Y-117383881D01*
X167400711Y-117242331D01*
X167391307Y-117092577D01*
X167393664Y-117041138D01*
X167683331Y-117041138D01*
X167683358Y-117130597D01*
X167688755Y-117211616D01*
X167697810Y-117268904D01*
X167735573Y-117389987D01*
X167791359Y-117500015D01*
X167863120Y-117597667D01*
X167948808Y-117681621D01*
X168046376Y-117750554D01*
X168153777Y-117803143D01*
X168268963Y-117838068D01*
X168389886Y-117854004D01*
X168514500Y-117849630D01*
X168580308Y-117838843D01*
X168648677Y-117819097D01*
X168724143Y-117788496D01*
X168798293Y-117751063D01*
X168862715Y-117710820D01*
X168887341Y-117691996D01*
X168976129Y-117604761D01*
X169049929Y-117504515D01*
X169107087Y-117394683D01*
X169145946Y-117278688D01*
X169164853Y-117159954D01*
X169166462Y-117114574D01*
X169161718Y-117043445D01*
X169148836Y-116964631D01*
X169129844Y-116887877D01*
X169106765Y-116822927D01*
X169105012Y-116818991D01*
X169086702Y-116782459D01*
X169063281Y-116741070D01*
X169037684Y-116699362D01*
X169012846Y-116661876D01*
X168991699Y-116633148D01*
X168977179Y-116617719D01*
X168973957Y-116616286D01*
X168968037Y-116626006D01*
X168965496Y-116649456D01*
X168965495Y-116650133D01*
X168960115Y-116690173D01*
X168945756Y-116741719D01*
X168925090Y-116797229D01*
X168900788Y-116849158D01*
X168885857Y-116875014D01*
X168824667Y-116951660D01*
X168749257Y-117014630D01*
X168663379Y-117062240D01*
X168570784Y-117092806D01*
X168475224Y-117104644D01*
X168389377Y-117097819D01*
X168292513Y-117071307D01*
X168208225Y-117028599D01*
X168131265Y-116966942D01*
X168121748Y-116957615D01*
X168053770Y-116873923D01*
X168002855Y-116775971D01*
X167969079Y-116663994D01*
X167952521Y-116538226D01*
X167951290Y-116439692D01*
X167955284Y-116313340D01*
X167929615Y-116344791D01*
X167873272Y-116424186D01*
X167819298Y-116519705D01*
X167770689Y-116625153D01*
X167730436Y-116734334D01*
X167713181Y-116792838D01*
X167698471Y-116865187D01*
X167688444Y-116950311D01*
X167683331Y-117041138D01*
X167393664Y-117041138D01*
X167398403Y-116937738D01*
X167421823Y-116780931D01*
X167461389Y-116625274D01*
X167516924Y-116473886D01*
X167530715Y-116442671D01*
X167589547Y-116331506D01*
X167663111Y-116221342D01*
X167748029Y-116115790D01*
X167840923Y-116018461D01*
X167938415Y-115932966D01*
X168037126Y-115862917D01*
X168111385Y-115821992D01*
X168174652Y-115797915D01*
X168228018Y-115791579D01*
X168274888Y-115802796D01*
G37*
G36*
X166607322Y-111658789D02*
G01*
X166876332Y-111658826D01*
X167155147Y-111658878D01*
X167412531Y-111658938D01*
X167649384Y-111659013D01*
X167866604Y-111659111D01*
X168065090Y-111659240D01*
X168245741Y-111659409D01*
X168409457Y-111659623D01*
X168557136Y-111659893D01*
X168689678Y-111660224D01*
X168807981Y-111660626D01*
X168912944Y-111661106D01*
X169005466Y-111661672D01*
X169086447Y-111662332D01*
X169156785Y-111663093D01*
X169217380Y-111663964D01*
X169269129Y-111664952D01*
X169312934Y-111666065D01*
X169349691Y-111667311D01*
X169380301Y-111668698D01*
X169405662Y-111670233D01*
X169426673Y-111671925D01*
X169444234Y-111673781D01*
X169459243Y-111675810D01*
X169472600Y-111678018D01*
X169485203Y-111680414D01*
X169491274Y-111681639D01*
X169659401Y-111726763D01*
X169816524Y-111790832D01*
X169961683Y-111872850D01*
X170093917Y-111971817D01*
X170212265Y-112086736D01*
X170315765Y-112216608D01*
X170403457Y-112360435D01*
X170474378Y-112517219D01*
X170527569Y-112685962D01*
X170548119Y-112779249D01*
X170550318Y-112791990D01*
X170552349Y-112806643D01*
X170554220Y-112824113D01*
X170555940Y-112845308D01*
X170557517Y-112871134D01*
X170558960Y-112902495D01*
X170560276Y-112940300D01*
X170561473Y-112985454D01*
X170562560Y-113038863D01*
X170563545Y-113101433D01*
X170564436Y-113174071D01*
X170565242Y-113257683D01*
X170565970Y-113353175D01*
X170566629Y-113461453D01*
X170567226Y-113583423D01*
X170567771Y-113719992D01*
X170568271Y-113872066D01*
X170568735Y-114040551D01*
X170569171Y-114226353D01*
X170569586Y-114430379D01*
X170569990Y-114653534D01*
X170570390Y-114896725D01*
X170570794Y-115160858D01*
X170571014Y-115310000D01*
X170571416Y-115612823D01*
X170571707Y-115893805D01*
X170571885Y-116153433D01*
X170571948Y-116392195D01*
X170571895Y-116610579D01*
X170571724Y-116809074D01*
X170571433Y-116988166D01*
X170571021Y-117148344D01*
X170570485Y-117290095D01*
X170569825Y-117413908D01*
X170569037Y-117520270D01*
X170568122Y-117609669D01*
X170567076Y-117682593D01*
X170565898Y-117739531D01*
X170564587Y-117780969D01*
X170563141Y-117807396D01*
X170562167Y-117816506D01*
X170530040Y-117983305D01*
X170488637Y-118132299D01*
X170436413Y-118266630D01*
X170371824Y-118389442D01*
X170293325Y-118503877D01*
X170199372Y-118613077D01*
X170142811Y-118669879D01*
X170019866Y-118773771D01*
X169884221Y-118862680D01*
X169739901Y-118934398D01*
X169590931Y-118986719D01*
X169542362Y-118999138D01*
X169519365Y-119004280D01*
X169495928Y-119009000D01*
X169471049Y-119013315D01*
X169443727Y-119017246D01*
X169412960Y-119020810D01*
X169377747Y-119024028D01*
X169337085Y-119026916D01*
X169289974Y-119029496D01*
X169235412Y-119031784D01*
X169172397Y-119033801D01*
X169099928Y-119035564D01*
X169017002Y-119037094D01*
X168922620Y-119038408D01*
X168815778Y-119039525D01*
X168695475Y-119040465D01*
X168560710Y-119041247D01*
X168410481Y-119041888D01*
X168243786Y-119042408D01*
X168059625Y-119042826D01*
X167856995Y-119043161D01*
X167634894Y-119043431D01*
X167392322Y-119043655D01*
X167167956Y-119043825D01*
X166953282Y-119044012D01*
X166742507Y-119044263D01*
X166536907Y-119044575D01*
X166337754Y-119044943D01*
X166146323Y-119045362D01*
X165963889Y-119045829D01*
X165791725Y-119046338D01*
X165631105Y-119046885D01*
X165483303Y-119047466D01*
X165349594Y-119048076D01*
X165231252Y-119048710D01*
X165129550Y-119049365D01*
X165045762Y-119050035D01*
X164981163Y-119050716D01*
X164937028Y-119051404D01*
X164923824Y-119051726D01*
X164844843Y-119053612D01*
X164762785Y-119054773D01*
X164684373Y-119055168D01*
X164616330Y-119054757D01*
X164574923Y-119053854D01*
X164522110Y-119051240D01*
X164479994Y-119047470D01*
X164452567Y-119043003D01*
X164443736Y-119038701D01*
X164433816Y-119031994D01*
X164408970Y-119028205D01*
X164398040Y-119027890D01*
X164348207Y-119024073D01*
X164284059Y-119013612D01*
X164212074Y-118997990D01*
X164138735Y-118978693D01*
X164070523Y-118957203D01*
X164039640Y-118945816D01*
X163881170Y-118872040D01*
X163736221Y-118780899D01*
X163605762Y-118673408D01*
X163490758Y-118550582D01*
X163392177Y-118413437D01*
X163310985Y-118262989D01*
X163255265Y-118122125D01*
X163215605Y-118003480D01*
X163215605Y-115345448D01*
X163215605Y-114564737D01*
X163483506Y-114564737D01*
X163483521Y-114804993D01*
X163483547Y-115065786D01*
X163483561Y-115347876D01*
X163483576Y-115630332D01*
X163483627Y-115891308D01*
X163483717Y-116131656D01*
X163483854Y-116352226D01*
X163484041Y-116553868D01*
X163484285Y-116737433D01*
X163484590Y-116903772D01*
X163484962Y-117053734D01*
X163485407Y-117188172D01*
X163485930Y-117307934D01*
X163486536Y-117413872D01*
X163487231Y-117506836D01*
X163488020Y-117587677D01*
X163488908Y-117657244D01*
X163489901Y-117716390D01*
X163491004Y-117765964D01*
X163492223Y-117806816D01*
X163493562Y-117839798D01*
X163495028Y-117865760D01*
X163496626Y-117885551D01*
X163498360Y-117900024D01*
X163499751Y-117907886D01*
X163542410Y-118057673D01*
X163603756Y-118195627D01*
X163683067Y-118320952D01*
X163779622Y-118432856D01*
X163892698Y-118530546D01*
X164021573Y-118613227D01*
X164165526Y-118680107D01*
X164220440Y-118700007D01*
X164315341Y-118732022D01*
X165225275Y-118737605D01*
X165350804Y-118738277D01*
X165496293Y-118738883D01*
X165659371Y-118739421D01*
X165837666Y-118739887D01*
X166028810Y-118740280D01*
X166230431Y-118740597D01*
X166440158Y-118740834D01*
X166655622Y-118740990D01*
X166874452Y-118741062D01*
X167094277Y-118741047D01*
X167312728Y-118740942D01*
X167527432Y-118740745D01*
X167736021Y-118740453D01*
X167752962Y-118740424D01*
X167975246Y-118740036D01*
X168176333Y-118739657D01*
X168357354Y-118739271D01*
X168519441Y-118738862D01*
X168663726Y-118738414D01*
X168791341Y-118737911D01*
X168903418Y-118737337D01*
X169001089Y-118736676D01*
X169085485Y-118735911D01*
X169157739Y-118735027D01*
X169218982Y-118734007D01*
X169270347Y-118732836D01*
X169312965Y-118731497D01*
X169347968Y-118729974D01*
X169376488Y-118728251D01*
X169399658Y-118726312D01*
X169418608Y-118724142D01*
X169434472Y-118721723D01*
X169448380Y-118719040D01*
X169461182Y-118716143D01*
X169607127Y-118670325D01*
X169742568Y-118605497D01*
X169866081Y-118523051D01*
X169976242Y-118424377D01*
X170071627Y-118310866D01*
X170150812Y-118183908D01*
X170212373Y-118044896D01*
X170240634Y-117954877D01*
X170265740Y-117861165D01*
X170269206Y-115410484D01*
X170269606Y-115093945D01*
X170269878Y-114799499D01*
X170270022Y-114526913D01*
X170270036Y-114275949D01*
X170269920Y-114046373D01*
X170269674Y-113837950D01*
X170269295Y-113650443D01*
X170268785Y-113483618D01*
X170268141Y-113337239D01*
X170267363Y-113211070D01*
X170266451Y-113104877D01*
X170265403Y-113018424D01*
X170264218Y-112951475D01*
X170262897Y-112903796D01*
X170261438Y-112875149D01*
X170260850Y-112869224D01*
X170245481Y-112773542D01*
X170225179Y-112691165D01*
X170197417Y-112613197D01*
X170171760Y-112555571D01*
X170104905Y-112431745D01*
X170029962Y-112325819D01*
X169943873Y-112233940D01*
X169863949Y-112167224D01*
X169733530Y-112082358D01*
X169595755Y-112018380D01*
X169451304Y-111975573D01*
X169364936Y-111960583D01*
X169344271Y-111959066D01*
X169306378Y-111957685D01*
X169250914Y-111956439D01*
X169177536Y-111955327D01*
X169085902Y-111954347D01*
X168975667Y-111953499D01*
X168846490Y-111952781D01*
X168698028Y-111952193D01*
X168529936Y-111951732D01*
X168341872Y-111951398D01*
X168133494Y-111951189D01*
X167904458Y-111951105D01*
X167654420Y-111951144D01*
X167383039Y-111951306D01*
X167089970Y-111951588D01*
X166816264Y-111951933D01*
X164360000Y-111955324D01*
X164266288Y-111980480D01*
X164170328Y-112011767D01*
X164071665Y-112053679D01*
X163979205Y-112102090D01*
X163915105Y-112143142D01*
X163817357Y-112224343D01*
X163725994Y-112322257D01*
X163645328Y-112431364D01*
X163579666Y-112546142D01*
X163552134Y-112608110D01*
X163544595Y-112626564D01*
X163537628Y-112643124D01*
X163531210Y-112658687D01*
X163525318Y-112674150D01*
X163519931Y-112690411D01*
X163515026Y-112708366D01*
X163510580Y-112728912D01*
X163506571Y-112752948D01*
X163502976Y-112781369D01*
X163499774Y-112815074D01*
X163496941Y-112854959D01*
X163494455Y-112901922D01*
X163492293Y-112956860D01*
X163490434Y-113020670D01*
X163488855Y-113094250D01*
X163487533Y-113178495D01*
X163486445Y-113274305D01*
X163485570Y-113382575D01*
X163484885Y-113504204D01*
X163484368Y-113640087D01*
X163483995Y-113791124D01*
X163483745Y-113958209D01*
X163483595Y-114142242D01*
X163483523Y-114344119D01*
X163483506Y-114564737D01*
X163215605Y-114564737D01*
X163215605Y-112687417D01*
X163244047Y-112597380D01*
X163306896Y-112433972D01*
X163387705Y-112282994D01*
X163485280Y-112145509D01*
X163598429Y-112022578D01*
X163725959Y-111915265D01*
X163866677Y-111824632D01*
X164019390Y-111751741D01*
X164182906Y-111697655D01*
X164278493Y-111676025D01*
X164290566Y-111674043D01*
X164305727Y-111672215D01*
X164324854Y-111670533D01*
X164348823Y-111668992D01*
X164378510Y-111667587D01*
X164414792Y-111666312D01*
X164458544Y-111665160D01*
X164510645Y-111664126D01*
X164571969Y-111663204D01*
X164643393Y-111662389D01*
X164725795Y-111661674D01*
X164820049Y-111661054D01*
X164927033Y-111660523D01*
X165047623Y-111660075D01*
X165182695Y-111659704D01*
X165333125Y-111659405D01*
X165499791Y-111659172D01*
X165683569Y-111658999D01*
X165885334Y-111658879D01*
X166105964Y-111658809D01*
X166346334Y-111658780D01*
X166607322Y-111658789D01*
G37*
%TO.C,G21*%
G36*
X168084764Y-74845030D02*
G01*
X168108461Y-74858625D01*
X168221890Y-74968725D01*
X168278038Y-75111551D01*
X168280558Y-75267989D01*
X168233102Y-75418928D01*
X168139321Y-75545253D01*
X168002869Y-75627853D01*
X167959120Y-75640193D01*
X167811089Y-75636976D01*
X167657516Y-75578222D01*
X167530645Y-75478905D01*
X167489093Y-75421915D01*
X167420000Y-75300505D01*
X167024721Y-75300252D01*
X166824497Y-75303716D01*
X166671390Y-75320601D01*
X166546559Y-75360202D01*
X166431166Y-75431818D01*
X166306369Y-75544744D01*
X166153329Y-75708279D01*
X166117710Y-75747837D01*
X165983002Y-75897917D01*
X165848497Y-76047824D01*
X165736409Y-76172795D01*
X165703056Y-76210000D01*
X165550691Y-76380000D01*
X167773153Y-76380000D01*
X169995616Y-76380000D01*
X170007808Y-76203388D01*
X170020000Y-76026776D01*
X170451970Y-76268084D01*
X170615311Y-76360572D01*
X170748366Y-76438292D01*
X170838260Y-76493547D01*
X170872120Y-76518640D01*
X170871970Y-76519163D01*
X170819247Y-76553424D01*
X170717295Y-76613349D01*
X170583335Y-76689436D01*
X170434585Y-76772184D01*
X170288265Y-76852092D01*
X170161593Y-76919657D01*
X170071790Y-76965378D01*
X170036832Y-76980000D01*
X170015820Y-76944020D01*
X170002484Y-76852026D01*
X170000000Y-76780000D01*
X170000000Y-76580000D01*
X168296275Y-76580000D01*
X166592550Y-76580000D01*
X166766275Y-76788141D01*
X166867639Y-76905242D01*
X167004493Y-77057472D01*
X167156612Y-77222548D01*
X167265469Y-77338141D01*
X167590938Y-77680000D01*
X168035469Y-77693539D01*
X168480000Y-77707078D01*
X168480000Y-77543539D01*
X168480000Y-77380000D01*
X168920000Y-77380000D01*
X169360000Y-77380000D01*
X169360000Y-77800000D01*
X169360000Y-78220000D01*
X168920000Y-78220000D01*
X168480000Y-78220000D01*
X168480000Y-78060000D01*
X168480000Y-77900000D01*
X168078715Y-77900000D01*
X167850562Y-77893494D01*
X167668668Y-77875098D01*
X167549421Y-77846493D01*
X167546875Y-77845450D01*
X167476509Y-77798549D01*
X167363359Y-77702476D01*
X167218349Y-77567349D01*
X167052402Y-77403289D01*
X166905637Y-77251387D01*
X166689774Y-77027901D01*
X166518706Y-76861461D01*
X166386797Y-76747013D01*
X166288413Y-76679498D01*
X166247476Y-76660857D01*
X166148878Y-76640662D01*
X165980930Y-76622396D01*
X165754275Y-76606879D01*
X165479556Y-76594932D01*
X165339507Y-76590849D01*
X164579015Y-76571858D01*
X164528325Y-76712037D01*
X164415967Y-76921775D01*
X164257972Y-77079068D01*
X164068335Y-77180180D01*
X163861054Y-77221377D01*
X163650123Y-77198923D01*
X163449539Y-77109083D01*
X163346428Y-77027455D01*
X163209142Y-76864273D01*
X163137738Y-76685849D01*
X163120000Y-76497432D01*
X163155795Y-76259629D01*
X163256866Y-76059517D01*
X163413735Y-75906588D01*
X163616926Y-75810335D01*
X163836143Y-75780000D01*
X163974634Y-75788467D01*
X164091994Y-75810006D01*
X164132629Y-75824799D01*
X164270250Y-75919890D01*
X164400039Y-76050130D01*
X164496026Y-76187378D01*
X164522348Y-76247116D01*
X164551820Y-76322982D01*
X164591334Y-76362553D01*
X164664517Y-76377626D01*
X164788461Y-76380000D01*
X164937514Y-76377532D01*
X165061710Y-76365556D01*
X165171649Y-76337208D01*
X165277935Y-76285626D01*
X165391171Y-76203947D01*
X165521959Y-76085310D01*
X165680902Y-75922850D01*
X165878602Y-75709707D01*
X165957649Y-75623250D01*
X166108504Y-75464319D01*
X166250924Y-75325701D01*
X166371186Y-75220036D01*
X166455564Y-75159962D01*
X166466364Y-75154762D01*
X166585642Y-75125419D01*
X166770596Y-75106704D01*
X167007436Y-75100002D01*
X167011956Y-75099999D01*
X167198135Y-75099156D01*
X167320645Y-75094230D01*
X167395813Y-75081627D01*
X167439968Y-75057754D01*
X167469438Y-75019017D01*
X167481826Y-74996587D01*
X167591121Y-74869690D01*
X167741295Y-74799214D01*
X167912469Y-74789535D01*
X168084764Y-74845030D01*
G37*
%TD*%
M02*
