%TF.GenerationSoftware,KiCad,Pcbnew,8.0.1*%
%TF.CreationDate,2025-08-11T12:07:21+02:00*%
%TF.ProjectId,SVX_Node_Case_back.kicad_pcb_usb,5356585f-4e6f-4646-955f-436173655f62,rev?*%
%TF.SameCoordinates,Original*%
%TF.FileFunction,Copper,L2,Bot*%
%TF.FilePolarity,Positive*%
%FSLAX46Y46*%
G04 Gerber Fmt 4.6, Leading zero omitted, Abs format (unit mm)*
G04 Created by KiCad (PCBNEW 8.0.1) date 2025-08-11 12:07:21*
%MOMM*%
%LPD*%
G01*
G04 APERTURE LIST*
%TA.AperFunction,SMDPad,CuDef*%
%ADD10R,3.000000X3.000000*%
%TD*%
G04 APERTURE END LIST*
D10*
%TO.P,GND,1,1*%
%TO.N,GND*%
X100100000Y-86500000D03*
%TD*%
%TA.AperFunction,Conductor*%
%TO.N,GND*%
G36*
X224942539Y-70520185D02*
G01*
X224988294Y-70572989D01*
X224999500Y-70624500D01*
X224999500Y-123375500D01*
X224979815Y-123442539D01*
X224927011Y-123488294D01*
X224875500Y-123499500D01*
X81124500Y-123499500D01*
X81057461Y-123479815D01*
X81011706Y-123427011D01*
X81000500Y-123375500D01*
X81000500Y-119584813D01*
X82649500Y-119584813D01*
X82679686Y-119852719D01*
X82679688Y-119852731D01*
X82739684Y-120115594D01*
X82739687Y-120115602D01*
X82828734Y-120370082D01*
X82945714Y-120612994D01*
X82945716Y-120612997D01*
X83089162Y-120841289D01*
X83257266Y-121052085D01*
X83447915Y-121242734D01*
X83658711Y-121410838D01*
X83887003Y-121554284D01*
X84129921Y-121671267D01*
X84321049Y-121738145D01*
X84384397Y-121760312D01*
X84384405Y-121760315D01*
X84384408Y-121760315D01*
X84384409Y-121760316D01*
X84647268Y-121820312D01*
X84915187Y-121850499D01*
X84915188Y-121850500D01*
X84915191Y-121850500D01*
X85184812Y-121850500D01*
X85184812Y-121850499D01*
X85452732Y-121820312D01*
X85715591Y-121760316D01*
X85970079Y-121671267D01*
X86212997Y-121554284D01*
X86441289Y-121410838D01*
X86652085Y-121242734D01*
X86842734Y-121052085D01*
X87010838Y-120841289D01*
X87154284Y-120612997D01*
X87271267Y-120370079D01*
X87360316Y-120115591D01*
X87420312Y-119852732D01*
X87450500Y-119584813D01*
X218529500Y-119584813D01*
X218559686Y-119852719D01*
X218559688Y-119852731D01*
X218619684Y-120115594D01*
X218619687Y-120115602D01*
X218708734Y-120370082D01*
X218825714Y-120612994D01*
X218825716Y-120612997D01*
X218969162Y-120841289D01*
X219137266Y-121052085D01*
X219327915Y-121242734D01*
X219538711Y-121410838D01*
X219767003Y-121554284D01*
X220009921Y-121671267D01*
X220201049Y-121738145D01*
X220264397Y-121760312D01*
X220264405Y-121760315D01*
X220264408Y-121760315D01*
X220264409Y-121760316D01*
X220527268Y-121820312D01*
X220795187Y-121850499D01*
X220795188Y-121850500D01*
X220795191Y-121850500D01*
X221064812Y-121850500D01*
X221064812Y-121850499D01*
X221332732Y-121820312D01*
X221595591Y-121760316D01*
X221850079Y-121671267D01*
X222092997Y-121554284D01*
X222321289Y-121410838D01*
X222532085Y-121242734D01*
X222722734Y-121052085D01*
X222890838Y-120841289D01*
X223034284Y-120612997D01*
X223151267Y-120370079D01*
X223240316Y-120115591D01*
X223300312Y-119852732D01*
X223330500Y-119584809D01*
X223330500Y-119315191D01*
X223300312Y-119047268D01*
X223240316Y-118784409D01*
X223151267Y-118529921D01*
X223034284Y-118287003D01*
X222890838Y-118058711D01*
X222722734Y-117847915D01*
X222532085Y-117657266D01*
X222321289Y-117489162D01*
X222092997Y-117345716D01*
X222092994Y-117345714D01*
X221850082Y-117228734D01*
X221595602Y-117139687D01*
X221595594Y-117139684D01*
X221398446Y-117094687D01*
X221332732Y-117079688D01*
X221332728Y-117079687D01*
X221332719Y-117079686D01*
X221064813Y-117049500D01*
X221064809Y-117049500D01*
X220795191Y-117049500D01*
X220795186Y-117049500D01*
X220527280Y-117079686D01*
X220527268Y-117079688D01*
X220264405Y-117139684D01*
X220264397Y-117139687D01*
X220009917Y-117228734D01*
X219767005Y-117345714D01*
X219538712Y-117489161D01*
X219327915Y-117657265D01*
X219137265Y-117847915D01*
X218969161Y-118058712D01*
X218825714Y-118287005D01*
X218708734Y-118529917D01*
X218619687Y-118784397D01*
X218619684Y-118784405D01*
X218559688Y-119047268D01*
X218559686Y-119047280D01*
X218529500Y-119315186D01*
X218529500Y-119584813D01*
X87450500Y-119584813D01*
X87450500Y-119584809D01*
X87450500Y-119315191D01*
X87420312Y-119047268D01*
X87360316Y-118784409D01*
X87271267Y-118529921D01*
X87154284Y-118287003D01*
X87010838Y-118058711D01*
X86842734Y-117847915D01*
X86652085Y-117657266D01*
X86441289Y-117489162D01*
X86212997Y-117345716D01*
X86212994Y-117345714D01*
X85970082Y-117228734D01*
X85715602Y-117139687D01*
X85715594Y-117139684D01*
X85518446Y-117094687D01*
X85452732Y-117079688D01*
X85452728Y-117079687D01*
X85452719Y-117079686D01*
X85184813Y-117049500D01*
X85184809Y-117049500D01*
X84915191Y-117049500D01*
X84915186Y-117049500D01*
X84647280Y-117079686D01*
X84647268Y-117079688D01*
X84384405Y-117139684D01*
X84384397Y-117139687D01*
X84129917Y-117228734D01*
X83887005Y-117345714D01*
X83658712Y-117489161D01*
X83447915Y-117657265D01*
X83257265Y-117847915D01*
X83089161Y-118058712D01*
X82945714Y-118287005D01*
X82828734Y-118529917D01*
X82739687Y-118784397D01*
X82739684Y-118784405D01*
X82679688Y-119047268D01*
X82679686Y-119047280D01*
X82649500Y-119315186D01*
X82649500Y-119584813D01*
X81000500Y-119584813D01*
X81000500Y-96970000D01*
X94104455Y-96970000D01*
X94121052Y-97371299D01*
X94124625Y-97457675D01*
X94184998Y-97942014D01*
X94184999Y-97942023D01*
X94285162Y-98419722D01*
X94285163Y-98419726D01*
X94311826Y-98509284D01*
X94424432Y-98887521D01*
X94424436Y-98887533D01*
X94601851Y-99342212D01*
X94601856Y-99342223D01*
X94601859Y-99342230D01*
X94764191Y-99674286D01*
X94816228Y-99780729D01*
X95066072Y-100200021D01*
X95066085Y-100200040D01*
X95349683Y-100597245D01*
X95349697Y-100597264D01*
X95665147Y-100969716D01*
X96010283Y-101314852D01*
X96382735Y-101630302D01*
X96382754Y-101630316D01*
X96545703Y-101746659D01*
X96779973Y-101913924D01*
X97199271Y-102163772D01*
X97637770Y-102378141D01*
X97637781Y-102378145D01*
X97637787Y-102378148D01*
X97849736Y-102460850D01*
X98092473Y-102555566D01*
X98560274Y-102694837D01*
X99037979Y-102795001D01*
X99522324Y-102855375D01*
X99972740Y-102874003D01*
X100009998Y-102875545D01*
X100010000Y-102875545D01*
X100010002Y-102875545D01*
X100045888Y-102874060D01*
X100497676Y-102855375D01*
X100982021Y-102795001D01*
X101459726Y-102694837D01*
X101927527Y-102555566D01*
X102382230Y-102378141D01*
X102820729Y-102163772D01*
X103240027Y-101913924D01*
X103637261Y-101630305D01*
X104009717Y-101314851D01*
X104009722Y-101314847D01*
X104354847Y-100969722D01*
X104354852Y-100969716D01*
X104531312Y-100761370D01*
X104670305Y-100597261D01*
X104953924Y-100200027D01*
X105203772Y-99780729D01*
X105418141Y-99342230D01*
X105595566Y-98887527D01*
X105734837Y-98419726D01*
X105835001Y-97942021D01*
X105895375Y-97457676D01*
X105910168Y-97100000D01*
X118694592Y-97100000D01*
X118714201Y-97386680D01*
X118772666Y-97668034D01*
X118772667Y-97668037D01*
X118868894Y-97938793D01*
X118868893Y-97938793D01*
X119001098Y-98193935D01*
X119166812Y-98428700D01*
X119231504Y-98497967D01*
X119362947Y-98638708D01*
X119585853Y-98820055D01*
X119720659Y-98902033D01*
X119831382Y-98969365D01*
X120018237Y-99050526D01*
X120094942Y-99083844D01*
X120371642Y-99161371D01*
X120621920Y-99195771D01*
X120656321Y-99200500D01*
X120656322Y-99200500D01*
X120943679Y-99200500D01*
X120974370Y-99196281D01*
X121228358Y-99161371D01*
X121505058Y-99083844D01*
X121623066Y-99032586D01*
X121768617Y-98969365D01*
X121768620Y-98969363D01*
X121768625Y-98969361D01*
X122014147Y-98820055D01*
X122237053Y-98638708D01*
X122433189Y-98428698D01*
X122598901Y-98193936D01*
X122731104Y-97938797D01*
X122827334Y-97668032D01*
X122885798Y-97386686D01*
X122905408Y-97100000D01*
X122885798Y-96813314D01*
X122827334Y-96531968D01*
X122731105Y-96261206D01*
X122731106Y-96261206D01*
X122598901Y-96006064D01*
X122433187Y-95771299D01*
X122335359Y-95666552D01*
X122237053Y-95561292D01*
X122014147Y-95379945D01*
X122014146Y-95379944D01*
X121768617Y-95230634D01*
X121505063Y-95116158D01*
X121505061Y-95116157D01*
X121505058Y-95116156D01*
X121375578Y-95079877D01*
X121228364Y-95038630D01*
X121228359Y-95038629D01*
X121228358Y-95038629D01*
X121086018Y-95019064D01*
X120943679Y-94999500D01*
X120943678Y-94999500D01*
X120656322Y-94999500D01*
X120656321Y-94999500D01*
X120371642Y-95038629D01*
X120371635Y-95038630D01*
X120163861Y-95096845D01*
X120094942Y-95116156D01*
X120094939Y-95116156D01*
X120094936Y-95116158D01*
X120094935Y-95116158D01*
X119831382Y-95230634D01*
X119585853Y-95379944D01*
X119362950Y-95561289D01*
X119166812Y-95771299D01*
X119001098Y-96006064D01*
X118868894Y-96261206D01*
X118772667Y-96531962D01*
X118772666Y-96531965D01*
X118714201Y-96813319D01*
X118694592Y-97100000D01*
X105910168Y-97100000D01*
X105915545Y-96970000D01*
X105895375Y-96482324D01*
X105835001Y-95997979D01*
X105734837Y-95520274D01*
X105595566Y-95052473D01*
X105418141Y-94597770D01*
X105203772Y-94159271D01*
X104953924Y-93739973D01*
X104949855Y-93734274D01*
X104670316Y-93342754D01*
X104670302Y-93342735D01*
X104354852Y-92970283D01*
X104009716Y-92625147D01*
X103819409Y-92463966D01*
X122679358Y-92463966D01*
X122682119Y-92678268D01*
X122683436Y-92686282D01*
X122697093Y-92769386D01*
X122697899Y-92775131D01*
X123768109Y-101952346D01*
X123768944Y-101966530D01*
X123768946Y-101968104D01*
X123776974Y-102028492D01*
X123777220Y-102030468D01*
X123784266Y-102090890D01*
X123784649Y-102092407D01*
X123784751Y-102092937D01*
X123784997Y-102093851D01*
X123785503Y-102095792D01*
X123785735Y-102096713D01*
X123785908Y-102097234D01*
X123786315Y-102098748D01*
X123809661Y-102154908D01*
X123810410Y-102156752D01*
X123832887Y-102213372D01*
X123833757Y-102214931D01*
X123839976Y-102227763D01*
X123856937Y-102268588D01*
X123856940Y-102268595D01*
X123976958Y-102471945D01*
X124124025Y-102656661D01*
X124295303Y-102819183D01*
X124295302Y-102819183D01*
X124295305Y-102819185D01*
X124295306Y-102819186D01*
X124487483Y-102956371D01*
X124579695Y-103004464D01*
X124696832Y-103065558D01*
X124696835Y-103065559D01*
X124696837Y-103065560D01*
X124919318Y-103144641D01*
X125150620Y-103192084D01*
X125206352Y-103195592D01*
X125230644Y-103199570D01*
X125234108Y-103200499D01*
X125280298Y-103200499D01*
X125288116Y-103200745D01*
X125293715Y-103201099D01*
X125334201Y-103203658D01*
X125334202Y-103203657D01*
X125334206Y-103203658D01*
X125336187Y-103203259D01*
X125337778Y-103202939D01*
X125362254Y-103200499D01*
X141289002Y-103200499D01*
X141293107Y-103200567D01*
X141397077Y-103204011D01*
X141397078Y-103204010D01*
X141397082Y-103204011D01*
X141623746Y-103181046D01*
X141845283Y-103127898D01*
X142057695Y-103045527D01*
X142257145Y-102935420D01*
X142440031Y-102799566D01*
X142603051Y-102640418D01*
X142704884Y-102510000D01*
X162404479Y-102510000D01*
X162424552Y-102944171D01*
X162424552Y-102944176D01*
X162424553Y-102944181D01*
X162484598Y-103374634D01*
X162484600Y-103374642D01*
X162584108Y-103797724D01*
X162722234Y-104209836D01*
X162722237Y-104209843D01*
X162897781Y-104607412D01*
X162897786Y-104607422D01*
X162897790Y-104607431D01*
X162897794Y-104607439D01*
X162897795Y-104607440D01*
X163109280Y-104987130D01*
X163109284Y-104987136D01*
X163354914Y-105345713D01*
X163632568Y-105680077D01*
X163632578Y-105680089D01*
X163939911Y-105987422D01*
X163939922Y-105987431D01*
X164274286Y-106265085D01*
X164460500Y-106392644D01*
X164632862Y-106510715D01*
X165012569Y-106722210D01*
X165410170Y-106897768D01*
X165822273Y-107035891D01*
X166245363Y-107135401D01*
X166675829Y-107195448D01*
X167110000Y-107215521D01*
X167544171Y-107195448D01*
X167974637Y-107135401D01*
X168397727Y-107035891D01*
X168809830Y-106897768D01*
X169207431Y-106722210D01*
X169587138Y-106510715D01*
X169945710Y-106265087D01*
X169945709Y-106265087D01*
X169945713Y-106265085D01*
X170110006Y-106128657D01*
X170280089Y-105987422D01*
X170587422Y-105680089D01*
X170865087Y-105345710D01*
X171110715Y-104987138D01*
X171322210Y-104607431D01*
X171497768Y-104209830D01*
X171613045Y-103865891D01*
X190999500Y-103865891D01*
X191033608Y-103993187D01*
X191066554Y-104050250D01*
X191099500Y-104107314D01*
X191192686Y-104200500D01*
X191306814Y-104266392D01*
X191434108Y-104300500D01*
X191434110Y-104300500D01*
X207565890Y-104300500D01*
X207565892Y-104300500D01*
X207693186Y-104266392D01*
X207807314Y-104200500D01*
X207900500Y-104107314D01*
X207966392Y-103993186D01*
X208000500Y-103865892D01*
X208000500Y-98700000D01*
X211394592Y-98700000D01*
X211414201Y-98986680D01*
X211414201Y-98986684D01*
X211414202Y-98986686D01*
X211423740Y-99032586D01*
X211472666Y-99268034D01*
X211472667Y-99268037D01*
X211568894Y-99538793D01*
X211568893Y-99538793D01*
X211701098Y-99793935D01*
X211866812Y-100028700D01*
X211870706Y-100032869D01*
X212062947Y-100238708D01*
X212181906Y-100335488D01*
X212285853Y-100420055D01*
X212531382Y-100569365D01*
X212718237Y-100650526D01*
X212794942Y-100683844D01*
X213071642Y-100761371D01*
X213321920Y-100795771D01*
X213356321Y-100800500D01*
X213356322Y-100800500D01*
X213643679Y-100800500D01*
X213674370Y-100796281D01*
X213928358Y-100761371D01*
X214205058Y-100683844D01*
X214404393Y-100597261D01*
X214468617Y-100569365D01*
X214468620Y-100569363D01*
X214468625Y-100569361D01*
X214714147Y-100420055D01*
X214937053Y-100238708D01*
X215133189Y-100028698D01*
X215298901Y-99793936D01*
X215431104Y-99538797D01*
X215527334Y-99268032D01*
X215585798Y-98986686D01*
X215605408Y-98700000D01*
X215585798Y-98413314D01*
X215527334Y-98131968D01*
X215474784Y-97984108D01*
X215431105Y-97861206D01*
X215431106Y-97861206D01*
X215298901Y-97606064D01*
X215133187Y-97371299D01*
X215054554Y-97287105D01*
X214937053Y-97161292D01*
X214714147Y-96979945D01*
X214714146Y-96979944D01*
X214468617Y-96830634D01*
X214205063Y-96716158D01*
X214205061Y-96716157D01*
X214205058Y-96716156D01*
X214075578Y-96679877D01*
X213928364Y-96638630D01*
X213928359Y-96638629D01*
X213928358Y-96638629D01*
X213786018Y-96619064D01*
X213643679Y-96599500D01*
X213643678Y-96599500D01*
X213356322Y-96599500D01*
X213356321Y-96599500D01*
X213071642Y-96638629D01*
X213071635Y-96638630D01*
X212863861Y-96696845D01*
X212794942Y-96716156D01*
X212794939Y-96716156D01*
X212794936Y-96716158D01*
X212794935Y-96716158D01*
X212531382Y-96830634D01*
X212285853Y-96979944D01*
X212062950Y-97161289D01*
X211866812Y-97371299D01*
X211701098Y-97606064D01*
X211568894Y-97861206D01*
X211472667Y-98131962D01*
X211472666Y-98131965D01*
X211414201Y-98413319D01*
X211394592Y-98700000D01*
X208000500Y-98700000D01*
X208000500Y-90234108D01*
X207966392Y-90106814D01*
X207900500Y-89992686D01*
X207807314Y-89899500D01*
X207750250Y-89866554D01*
X207693187Y-89833608D01*
X207629539Y-89816554D01*
X207565892Y-89799500D01*
X191565892Y-89799500D01*
X191434108Y-89799500D01*
X191306812Y-89833608D01*
X191192686Y-89899500D01*
X191192683Y-89899502D01*
X191099502Y-89992683D01*
X191099500Y-89992686D01*
X191033608Y-90106812D01*
X190999500Y-90234108D01*
X190999500Y-103865891D01*
X171613045Y-103865891D01*
X171635891Y-103797727D01*
X171735401Y-103374637D01*
X171795448Y-102944171D01*
X171815521Y-102510000D01*
X171795448Y-102075829D01*
X171735401Y-101645363D01*
X171635891Y-101222273D01*
X171497768Y-100810170D01*
X171403759Y-100597261D01*
X171322218Y-100412587D01*
X171322217Y-100412586D01*
X171322210Y-100412569D01*
X171110715Y-100032862D01*
X170985351Y-99849854D01*
X170865085Y-99674286D01*
X170587431Y-99339922D01*
X170587422Y-99339911D01*
X170280089Y-99032578D01*
X170230700Y-98991566D01*
X169945713Y-98754914D01*
X169865548Y-98700000D01*
X183394592Y-98700000D01*
X183414201Y-98986680D01*
X183414201Y-98986684D01*
X183414202Y-98986686D01*
X183423740Y-99032586D01*
X183472666Y-99268034D01*
X183472667Y-99268037D01*
X183568894Y-99538793D01*
X183568893Y-99538793D01*
X183701098Y-99793935D01*
X183866812Y-100028700D01*
X183870706Y-100032869D01*
X184062947Y-100238708D01*
X184181906Y-100335488D01*
X184285853Y-100420055D01*
X184531382Y-100569365D01*
X184718237Y-100650526D01*
X184794942Y-100683844D01*
X185071642Y-100761371D01*
X185321920Y-100795771D01*
X185356321Y-100800500D01*
X185356322Y-100800500D01*
X185643679Y-100800500D01*
X185674370Y-100796281D01*
X185928358Y-100761371D01*
X186205058Y-100683844D01*
X186404393Y-100597261D01*
X186468617Y-100569365D01*
X186468620Y-100569363D01*
X186468625Y-100569361D01*
X186714147Y-100420055D01*
X186937053Y-100238708D01*
X187133189Y-100028698D01*
X187298901Y-99793936D01*
X187431104Y-99538797D01*
X187527334Y-99268032D01*
X187585798Y-98986686D01*
X187605408Y-98700000D01*
X187585798Y-98413314D01*
X187527334Y-98131968D01*
X187474784Y-97984108D01*
X187431105Y-97861206D01*
X187431106Y-97861206D01*
X187298901Y-97606064D01*
X187133187Y-97371299D01*
X187054554Y-97287105D01*
X186937053Y-97161292D01*
X186714147Y-96979945D01*
X186714146Y-96979944D01*
X186468617Y-96830634D01*
X186205063Y-96716158D01*
X186205061Y-96716157D01*
X186205058Y-96716156D01*
X186075578Y-96679877D01*
X185928364Y-96638630D01*
X185928359Y-96638629D01*
X185928358Y-96638629D01*
X185786018Y-96619064D01*
X185643679Y-96599500D01*
X185643678Y-96599500D01*
X185356322Y-96599500D01*
X185356321Y-96599500D01*
X185071642Y-96638629D01*
X185071635Y-96638630D01*
X184863861Y-96696845D01*
X184794942Y-96716156D01*
X184794939Y-96716156D01*
X184794936Y-96716158D01*
X184794935Y-96716158D01*
X184531382Y-96830634D01*
X184285853Y-96979944D01*
X184062950Y-97161289D01*
X183866812Y-97371299D01*
X183701098Y-97606064D01*
X183568894Y-97861206D01*
X183472667Y-98131962D01*
X183472666Y-98131965D01*
X183414201Y-98413319D01*
X183394592Y-98700000D01*
X169865548Y-98700000D01*
X169680243Y-98573063D01*
X169587138Y-98509285D01*
X169587134Y-98509283D01*
X169587130Y-98509280D01*
X169207440Y-98297795D01*
X169207439Y-98297794D01*
X169207431Y-98297790D01*
X169207422Y-98297786D01*
X169207412Y-98297781D01*
X168809843Y-98122237D01*
X168809836Y-98122234D01*
X168397724Y-97984108D01*
X167974642Y-97884600D01*
X167974634Y-97884598D01*
X167544181Y-97824553D01*
X167544176Y-97824552D01*
X167544171Y-97824552D01*
X167110000Y-97804479D01*
X166675829Y-97824552D01*
X166675823Y-97824552D01*
X166675818Y-97824553D01*
X166245365Y-97884598D01*
X166245357Y-97884600D01*
X165822275Y-97984108D01*
X165410163Y-98122234D01*
X165410156Y-98122237D01*
X165012587Y-98297781D01*
X165012559Y-98297795D01*
X164632869Y-98509280D01*
X164632863Y-98509284D01*
X164274286Y-98754914D01*
X163939922Y-99032568D01*
X163939902Y-99032586D01*
X163632586Y-99339902D01*
X163632568Y-99339922D01*
X163354914Y-99674286D01*
X163109284Y-100032863D01*
X163109280Y-100032869D01*
X162897795Y-100412559D01*
X162897781Y-100412587D01*
X162722237Y-100810156D01*
X162722234Y-100810163D01*
X162584108Y-101222275D01*
X162484600Y-101645357D01*
X162484598Y-101645365D01*
X162424553Y-102075818D01*
X162424552Y-102075823D01*
X162424552Y-102075829D01*
X162404479Y-102510000D01*
X142704884Y-102510000D01*
X142743261Y-102460850D01*
X142858130Y-102264104D01*
X142875346Y-102222734D01*
X142883121Y-102208647D01*
X142882981Y-102208574D01*
X142886759Y-102201372D01*
X142886758Y-102201372D01*
X142886760Y-102201371D01*
X142905005Y-102151746D01*
X142906888Y-102146935D01*
X142916715Y-102123297D01*
X142927193Y-102098093D01*
X142927193Y-102098085D01*
X142929307Y-102090242D01*
X142929477Y-102090287D01*
X142930623Y-102085646D01*
X142930451Y-102085608D01*
X142932234Y-102077686D01*
X142932236Y-102077681D01*
X142937020Y-102024966D01*
X142937581Y-102019953D01*
X142944561Y-101967458D01*
X142944571Y-101959332D01*
X142944745Y-101959332D01*
X142944432Y-101943314D01*
X142948629Y-101897080D01*
X143384068Y-97100000D01*
X143694592Y-97100000D01*
X143714201Y-97386680D01*
X143772666Y-97668034D01*
X143772667Y-97668037D01*
X143868894Y-97938793D01*
X143868893Y-97938793D01*
X144001098Y-98193935D01*
X144166812Y-98428700D01*
X144231504Y-98497967D01*
X144362947Y-98638708D01*
X144585853Y-98820055D01*
X144720659Y-98902033D01*
X144831382Y-98969365D01*
X145018237Y-99050526D01*
X145094942Y-99083844D01*
X145371642Y-99161371D01*
X145621920Y-99195771D01*
X145656321Y-99200500D01*
X145656322Y-99200500D01*
X145943679Y-99200500D01*
X145974370Y-99196281D01*
X146228358Y-99161371D01*
X146505058Y-99083844D01*
X146623066Y-99032586D01*
X146768617Y-98969365D01*
X146768620Y-98969363D01*
X146768625Y-98969361D01*
X147014147Y-98820055D01*
X147237053Y-98638708D01*
X147433189Y-98428698D01*
X147598901Y-98193936D01*
X147731104Y-97938797D01*
X147827334Y-97668032D01*
X147885798Y-97386686D01*
X147905408Y-97100000D01*
X147885798Y-96813314D01*
X147827334Y-96531968D01*
X147731105Y-96261206D01*
X147731106Y-96261206D01*
X147598901Y-96006064D01*
X147433187Y-95771299D01*
X147335359Y-95666552D01*
X147237053Y-95561292D01*
X147014147Y-95379945D01*
X147014146Y-95379944D01*
X146768617Y-95230634D01*
X146505063Y-95116158D01*
X146505061Y-95116157D01*
X146505058Y-95116156D01*
X146375578Y-95079877D01*
X146228364Y-95038630D01*
X146228359Y-95038629D01*
X146228358Y-95038629D01*
X146086018Y-95019064D01*
X145943679Y-94999500D01*
X145943678Y-94999500D01*
X145656322Y-94999500D01*
X145656321Y-94999500D01*
X145371642Y-95038629D01*
X145371635Y-95038630D01*
X145163861Y-95096845D01*
X145094942Y-95116156D01*
X145094939Y-95116156D01*
X145094936Y-95116158D01*
X145094935Y-95116158D01*
X144831382Y-95230634D01*
X144585853Y-95379944D01*
X144362950Y-95561289D01*
X144166812Y-95771299D01*
X144001098Y-96006064D01*
X143868894Y-96261206D01*
X143772667Y-96531962D01*
X143772666Y-96531965D01*
X143714201Y-96813319D01*
X143694592Y-97100000D01*
X143384068Y-97100000D01*
X143780647Y-92731027D01*
X143781774Y-92722177D01*
X143788505Y-92681222D01*
X143791259Y-92466923D01*
X143761868Y-92254632D01*
X143700997Y-92049141D01*
X143610019Y-91855093D01*
X143490990Y-91676869D01*
X143490989Y-91676868D01*
X143490987Y-91676865D01*
X143346594Y-91518492D01*
X143180106Y-91383550D01*
X143180103Y-91383547D01*
X142995274Y-91275076D01*
X142995262Y-91275070D01*
X142926869Y-91247698D01*
X142910929Y-91239955D01*
X142899990Y-91233637D01*
X142881989Y-91228810D01*
X142868083Y-91224184D01*
X142834595Y-91210798D01*
X142834591Y-91210797D01*
X142807846Y-91207613D01*
X142790397Y-91204254D01*
X142787569Y-91203495D01*
X142772703Y-91199510D01*
X142772700Y-91199509D01*
X142772697Y-91199509D01*
X142747067Y-91199505D01*
X142732435Y-91198636D01*
X142703734Y-91195220D01*
X142703724Y-91195220D01*
X142682927Y-91198221D01*
X142665201Y-91199492D01*
X123805471Y-91196537D01*
X123787783Y-91195266D01*
X123766889Y-91192251D01*
X123766880Y-91192251D01*
X123738273Y-91195656D01*
X123723602Y-91196524D01*
X123694800Y-91196521D01*
X123694799Y-91196521D01*
X123694797Y-91196521D01*
X123674398Y-91201983D01*
X123656991Y-91205332D01*
X123636020Y-91207829D01*
X123609269Y-91218522D01*
X123595324Y-91223158D01*
X123567502Y-91230608D01*
X123567499Y-91230609D01*
X123549180Y-91241182D01*
X123533279Y-91248903D01*
X123475346Y-91272090D01*
X123475341Y-91272092D01*
X123290500Y-91380568D01*
X123124010Y-91515515D01*
X123124001Y-91515523D01*
X122979616Y-91673894D01*
X122979614Y-91673897D01*
X122860585Y-91852126D01*
X122769609Y-92046179D01*
X122708746Y-92251662D01*
X122708743Y-92251673D01*
X122679358Y-92463963D01*
X122679358Y-92463966D01*
X103819409Y-92463966D01*
X103637264Y-92309697D01*
X103637245Y-92309683D01*
X103240040Y-92026085D01*
X103240021Y-92026072D01*
X102820729Y-91776228D01*
X102617493Y-91676872D01*
X102382230Y-91561859D01*
X102382225Y-91561857D01*
X102382223Y-91561856D01*
X102382212Y-91561851D01*
X101927533Y-91384436D01*
X101927521Y-91384432D01*
X101680406Y-91310862D01*
X101459726Y-91245163D01*
X101459723Y-91245162D01*
X101459722Y-91245162D01*
X100982023Y-91144999D01*
X100982014Y-91144998D01*
X100737161Y-91114477D01*
X100497676Y-91084625D01*
X100335117Y-91077901D01*
X100010002Y-91064455D01*
X100009998Y-91064455D01*
X99522324Y-91084625D01*
X99037985Y-91144998D01*
X99037976Y-91144999D01*
X98560277Y-91245162D01*
X98092478Y-91384432D01*
X98092466Y-91384436D01*
X97637787Y-91561851D01*
X97637776Y-91561856D01*
X97199270Y-91776228D01*
X96779978Y-92026072D01*
X96779959Y-92026085D01*
X96382754Y-92309683D01*
X96382735Y-92309697D01*
X96010283Y-92625147D01*
X96010278Y-92625153D01*
X95665153Y-92970278D01*
X95665147Y-92970283D01*
X95349697Y-93342735D01*
X95349683Y-93342754D01*
X95066085Y-93739959D01*
X95066072Y-93739978D01*
X94816228Y-94159270D01*
X94601856Y-94597776D01*
X94601851Y-94597787D01*
X94424436Y-95052466D01*
X94424432Y-95052478D01*
X94285162Y-95520277D01*
X94184999Y-95997976D01*
X94184998Y-95997985D01*
X94124625Y-96482324D01*
X94104455Y-96970000D01*
X81000500Y-96970000D01*
X81000500Y-86750000D01*
X98100000Y-86750000D01*
X98100000Y-88047844D01*
X98106401Y-88107372D01*
X98106403Y-88107379D01*
X98156645Y-88242086D01*
X98156649Y-88242093D01*
X98242809Y-88357187D01*
X98242812Y-88357190D01*
X98357906Y-88443350D01*
X98357913Y-88443354D01*
X98492620Y-88493596D01*
X98492627Y-88493598D01*
X98552155Y-88499999D01*
X98552172Y-88500000D01*
X99850000Y-88500000D01*
X99850000Y-86750000D01*
X100350000Y-86750000D01*
X100350000Y-88500000D01*
X101647828Y-88500000D01*
X101647844Y-88499999D01*
X101707372Y-88493598D01*
X101707379Y-88493596D01*
X101842086Y-88443354D01*
X101842093Y-88443350D01*
X101957187Y-88357190D01*
X101957190Y-88357187D01*
X102043350Y-88242093D01*
X102043354Y-88242086D01*
X102093596Y-88107379D01*
X102093598Y-88107372D01*
X102099999Y-88047844D01*
X102100000Y-88047827D01*
X102100000Y-87815891D01*
X159249500Y-87815891D01*
X159283608Y-87943187D01*
X159316554Y-88000250D01*
X159349500Y-88057314D01*
X159442686Y-88150500D01*
X159556814Y-88216392D01*
X159684108Y-88250500D01*
X159684110Y-88250500D01*
X174815890Y-88250500D01*
X174815892Y-88250500D01*
X174943186Y-88216392D01*
X175057314Y-88150500D01*
X175150500Y-88057314D01*
X175216392Y-87943186D01*
X175250500Y-87815892D01*
X175250500Y-84130000D01*
X179634592Y-84130000D01*
X179654201Y-84416680D01*
X179712666Y-84698034D01*
X179712667Y-84698037D01*
X179808894Y-84968793D01*
X179808893Y-84968793D01*
X179941098Y-85223935D01*
X180106812Y-85458700D01*
X180191923Y-85549831D01*
X180302947Y-85668708D01*
X180525853Y-85850055D01*
X180722042Y-85969361D01*
X180771382Y-85999365D01*
X180958237Y-86080526D01*
X181034942Y-86113844D01*
X181311642Y-86191371D01*
X181561920Y-86225771D01*
X181596321Y-86230500D01*
X181596322Y-86230500D01*
X181883679Y-86230500D01*
X181914370Y-86226281D01*
X182168358Y-86191371D01*
X182445058Y-86113844D01*
X182558015Y-86064779D01*
X182708617Y-85999365D01*
X182708620Y-85999363D01*
X182708625Y-85999361D01*
X182954147Y-85850055D01*
X183177053Y-85668708D01*
X183373189Y-85458698D01*
X183538901Y-85223936D01*
X183671104Y-84968797D01*
X183767334Y-84698032D01*
X183825798Y-84416686D01*
X183845408Y-84130000D01*
X183825798Y-83843314D01*
X183767334Y-83561968D01*
X183671105Y-83291206D01*
X183671106Y-83291206D01*
X183538901Y-83036064D01*
X183373187Y-82801299D01*
X183294554Y-82717105D01*
X183177053Y-82591292D01*
X182954147Y-82409945D01*
X182954146Y-82409944D01*
X182708617Y-82260634D01*
X182445063Y-82146158D01*
X182445061Y-82146157D01*
X182445058Y-82146156D01*
X182315578Y-82109877D01*
X182168364Y-82068630D01*
X182168359Y-82068629D01*
X182168358Y-82068629D01*
X181950103Y-82038630D01*
X181883679Y-82029500D01*
X181883678Y-82029500D01*
X181596322Y-82029500D01*
X181596321Y-82029500D01*
X181311642Y-82068629D01*
X181311635Y-82068630D01*
X181142014Y-82116156D01*
X181034942Y-82146156D01*
X181034939Y-82146156D01*
X181034936Y-82146158D01*
X181034935Y-82146158D01*
X180771382Y-82260634D01*
X180525853Y-82409944D01*
X180302950Y-82591289D01*
X180106812Y-82801299D01*
X179941098Y-83036064D01*
X179808894Y-83291206D01*
X179712667Y-83561962D01*
X179712666Y-83561965D01*
X179654201Y-83843319D01*
X179634592Y-84130000D01*
X175250500Y-84130000D01*
X175250500Y-80684108D01*
X175216392Y-80556814D01*
X175150500Y-80442686D01*
X175057314Y-80349500D01*
X175000250Y-80316554D01*
X174943187Y-80283608D01*
X174879539Y-80266554D01*
X174815892Y-80249500D01*
X159815892Y-80249500D01*
X159684108Y-80249500D01*
X159556812Y-80283608D01*
X159442686Y-80349500D01*
X159442683Y-80349502D01*
X159349502Y-80442683D01*
X159349500Y-80442686D01*
X159283608Y-80556812D01*
X159249500Y-80684108D01*
X159249500Y-87815891D01*
X102100000Y-87815891D01*
X102100000Y-86750000D01*
X100350000Y-86750000D01*
X99850000Y-86750000D01*
X98100000Y-86750000D01*
X81000500Y-86750000D01*
X81000500Y-86250000D01*
X98100000Y-86250000D01*
X99850000Y-86250000D01*
X99850000Y-84500000D01*
X100350000Y-84500000D01*
X100350000Y-86250000D01*
X102100000Y-86250000D01*
X102100000Y-84952172D01*
X102099999Y-84952155D01*
X102093598Y-84892627D01*
X102093596Y-84892620D01*
X102043354Y-84757913D01*
X102043350Y-84757906D01*
X101957190Y-84642812D01*
X101957187Y-84642809D01*
X101842093Y-84556649D01*
X101842086Y-84556645D01*
X101707379Y-84506403D01*
X101707372Y-84506401D01*
X101647844Y-84500000D01*
X100350000Y-84500000D01*
X99850000Y-84500000D01*
X98552155Y-84500000D01*
X98492627Y-84506401D01*
X98492620Y-84506403D01*
X98357913Y-84556645D01*
X98357906Y-84556649D01*
X98242812Y-84642809D01*
X98242809Y-84642812D01*
X98156649Y-84757906D01*
X98156645Y-84757913D01*
X98106403Y-84892620D01*
X98106401Y-84892627D01*
X98100000Y-84952155D01*
X98100000Y-86250000D01*
X81000500Y-86250000D01*
X81000500Y-84100000D01*
X150294592Y-84100000D01*
X150314201Y-84386680D01*
X150372666Y-84668034D01*
X150372667Y-84668037D01*
X150468894Y-84938793D01*
X150468893Y-84938793D01*
X150601098Y-85193935D01*
X150766812Y-85428700D01*
X150851923Y-85519831D01*
X150962947Y-85638708D01*
X150999825Y-85668710D01*
X151185853Y-85820055D01*
X151431382Y-85969365D01*
X151618237Y-86050526D01*
X151694942Y-86083844D01*
X151971642Y-86161371D01*
X152221920Y-86195771D01*
X152256321Y-86200500D01*
X152256322Y-86200500D01*
X152543679Y-86200500D01*
X152574370Y-86196281D01*
X152828358Y-86161371D01*
X153105058Y-86083844D01*
X153299549Y-85999365D01*
X153368617Y-85969365D01*
X153368620Y-85969363D01*
X153368625Y-85969361D01*
X153614147Y-85820055D01*
X153837053Y-85638708D01*
X154033189Y-85428698D01*
X154198901Y-85193936D01*
X154331104Y-84938797D01*
X154427334Y-84668032D01*
X154485798Y-84386686D01*
X154505408Y-84100000D01*
X154485798Y-83813314D01*
X154427334Y-83531968D01*
X154331105Y-83261206D01*
X154331106Y-83261206D01*
X154198901Y-83006064D01*
X154033187Y-82771299D01*
X153954554Y-82687105D01*
X153837053Y-82561292D01*
X153614147Y-82379945D01*
X153614146Y-82379944D01*
X153368617Y-82230634D01*
X153105063Y-82116158D01*
X153105061Y-82116157D01*
X153105058Y-82116156D01*
X152975578Y-82079877D01*
X152828364Y-82038630D01*
X152828359Y-82038629D01*
X152828358Y-82038629D01*
X152686018Y-82019064D01*
X152543679Y-81999500D01*
X152543678Y-81999500D01*
X152256322Y-81999500D01*
X152256321Y-81999500D01*
X151971642Y-82038629D01*
X151971635Y-82038630D01*
X151763861Y-82096845D01*
X151694942Y-82116156D01*
X151694939Y-82116156D01*
X151694936Y-82116158D01*
X151694935Y-82116158D01*
X151431382Y-82230634D01*
X151185853Y-82379944D01*
X150962950Y-82561289D01*
X150766812Y-82771299D01*
X150601098Y-83006064D01*
X150468894Y-83261206D01*
X150372667Y-83531962D01*
X150372666Y-83531965D01*
X150314201Y-83813319D01*
X150294592Y-84100000D01*
X81000500Y-84100000D01*
X81000500Y-74684813D01*
X82649500Y-74684813D01*
X82679686Y-74952719D01*
X82679688Y-74952731D01*
X82739684Y-75215594D01*
X82739687Y-75215602D01*
X82828734Y-75470082D01*
X82945714Y-75712994D01*
X82945716Y-75712997D01*
X83089162Y-75941289D01*
X83257266Y-76152085D01*
X83447915Y-76342734D01*
X83658711Y-76510838D01*
X83887003Y-76654284D01*
X84129921Y-76771267D01*
X84321049Y-76838145D01*
X84384397Y-76860312D01*
X84384405Y-76860315D01*
X84384408Y-76860315D01*
X84384409Y-76860316D01*
X84647268Y-76920312D01*
X84915187Y-76950499D01*
X84915188Y-76950500D01*
X84915191Y-76950500D01*
X85184812Y-76950500D01*
X85184812Y-76950499D01*
X85452732Y-76920312D01*
X85715591Y-76860316D01*
X85970079Y-76771267D01*
X86212997Y-76654284D01*
X86441289Y-76510838D01*
X86652085Y-76342734D01*
X86842734Y-76152085D01*
X87010838Y-75941289D01*
X87154284Y-75712997D01*
X87271267Y-75470079D01*
X87360316Y-75215591D01*
X87420312Y-74952732D01*
X87447683Y-74709813D01*
X218549500Y-74709813D01*
X218579686Y-74977719D01*
X218579688Y-74977731D01*
X218639684Y-75240594D01*
X218639687Y-75240602D01*
X218728734Y-75495082D01*
X218845714Y-75737994D01*
X218845716Y-75737997D01*
X218989162Y-75966289D01*
X219157266Y-76177085D01*
X219347915Y-76367734D01*
X219558711Y-76535838D01*
X219787003Y-76679284D01*
X220029921Y-76796267D01*
X220212952Y-76860312D01*
X220284397Y-76885312D01*
X220284405Y-76885315D01*
X220284408Y-76885315D01*
X220284409Y-76885316D01*
X220547268Y-76945312D01*
X220815187Y-76975499D01*
X220815188Y-76975500D01*
X220815191Y-76975500D01*
X221084812Y-76975500D01*
X221084812Y-76975499D01*
X221352732Y-76945312D01*
X221615591Y-76885316D01*
X221870079Y-76796267D01*
X222112997Y-76679284D01*
X222341289Y-76535838D01*
X222552085Y-76367734D01*
X222742734Y-76177085D01*
X222910838Y-75966289D01*
X223054284Y-75737997D01*
X223171267Y-75495079D01*
X223260316Y-75240591D01*
X223320312Y-74977732D01*
X223350500Y-74709809D01*
X223350500Y-74440191D01*
X223320312Y-74172268D01*
X223260316Y-73909409D01*
X223171267Y-73654921D01*
X223054284Y-73412003D01*
X222910838Y-73183711D01*
X222742734Y-72972915D01*
X222552085Y-72782266D01*
X222341289Y-72614162D01*
X222112997Y-72470716D01*
X222112994Y-72470714D01*
X221870082Y-72353734D01*
X221615602Y-72264687D01*
X221615594Y-72264684D01*
X221418446Y-72219687D01*
X221352732Y-72204688D01*
X221352728Y-72204687D01*
X221352719Y-72204686D01*
X221084813Y-72174500D01*
X221084809Y-72174500D01*
X220815191Y-72174500D01*
X220815186Y-72174500D01*
X220547280Y-72204686D01*
X220547268Y-72204688D01*
X220284405Y-72264684D01*
X220284397Y-72264687D01*
X220029917Y-72353734D01*
X219787005Y-72470714D01*
X219558712Y-72614161D01*
X219347915Y-72782265D01*
X219157265Y-72972915D01*
X218989161Y-73183712D01*
X218845714Y-73412005D01*
X218728734Y-73654917D01*
X218639687Y-73909397D01*
X218639684Y-73909405D01*
X218579688Y-74172268D01*
X218579686Y-74172280D01*
X218549500Y-74440186D01*
X218549500Y-74709813D01*
X87447683Y-74709813D01*
X87450500Y-74684809D01*
X87450500Y-74415191D01*
X87420312Y-74147268D01*
X87360316Y-73884409D01*
X87271267Y-73629921D01*
X87154284Y-73387003D01*
X87010838Y-73158711D01*
X86842734Y-72947915D01*
X86652085Y-72757266D01*
X86441289Y-72589162D01*
X86212997Y-72445716D01*
X86212994Y-72445714D01*
X85970082Y-72328734D01*
X85715602Y-72239687D01*
X85715594Y-72239684D01*
X85518446Y-72194687D01*
X85452732Y-72179688D01*
X85452728Y-72179687D01*
X85452719Y-72179686D01*
X85184813Y-72149500D01*
X85184809Y-72149500D01*
X84915191Y-72149500D01*
X84915186Y-72149500D01*
X84647280Y-72179686D01*
X84647268Y-72179688D01*
X84384405Y-72239684D01*
X84384397Y-72239687D01*
X84129917Y-72328734D01*
X83887005Y-72445714D01*
X83658712Y-72589161D01*
X83447915Y-72757265D01*
X83257265Y-72947915D01*
X83089161Y-73158712D01*
X82945714Y-73387005D01*
X82828734Y-73629917D01*
X82739687Y-73884397D01*
X82739684Y-73884405D01*
X82679688Y-74147268D01*
X82679686Y-74147280D01*
X82649500Y-74415186D01*
X82649500Y-74684813D01*
X81000500Y-74684813D01*
X81000500Y-70624500D01*
X81020185Y-70557461D01*
X81072989Y-70511706D01*
X81124500Y-70500500D01*
X224875500Y-70500500D01*
X224942539Y-70520185D01*
G37*
%TD.AperFunction*%
%TD*%
M02*
