%TF.GenerationSoftware,KiCad,Pcbnew,8.0.5*%
%TF.CreationDate,2025-07-23T09:32:51+02:00*%
%TF.ProjectId,SVX_Node_Case_front,5356585f-4e6f-4646-955f-436173655f66,rev?*%
%TF.SameCoordinates,Original*%
%TF.FileFunction,Drillmap*%
%TF.FilePolarity,Positive*%
%FSLAX45Y45*%
G04 Gerber Fmt 4.5, Leading zero omitted, Abs format (unit mm)*
G04 Created by KiCad (PCBNEW 8.0.5) date 2025-07-23 09:32:51*
%MOMM*%
%LPD*%
G01*
G04 APERTURE LIST*
%ADD10C,0.100000*%
%ADD11C,0.050000*%
%ADD12C,0.200000*%
G04 APERTURE END LIST*
D10*
X10425000Y-9175000D02*
G75*
G02*
X9175000Y-9175000I-625000J0D01*
G01*
X9175000Y-9175000D02*
G75*
G02*
X10425000Y-9175000I625000J0D01*
G01*
D11*
X12941421Y-9100000D02*
G75*
G02*
X12658579Y-9100000I-141421J0D01*
G01*
X12658579Y-9100000D02*
G75*
G02*
X12941421Y-9100000I141421J0D01*
G01*
X12141421Y-9100000D02*
G75*
G02*
X11858579Y-9100000I-141421J0D01*
G01*
X11858579Y-9100000D02*
G75*
G02*
X12141421Y-9100000I141421J0D01*
G01*
X11341421Y-9100000D02*
G75*
G02*
X11058579Y-9100000I-141421J0D01*
G01*
X11058579Y-9100000D02*
G75*
G02*
X11341421Y-9100000I141421J0D01*
G01*
X17800000Y-9100000D02*
G75*
G02*
X18000000Y-8900000I200000J0D01*
G01*
X19500000Y-8900000D02*
G75*
G02*
X19500000Y-9300000I0J-200000D01*
G01*
X18000000Y-9300000D02*
X19500000Y-9300000D01*
X18000000Y-8900000D02*
X19500000Y-8900000D01*
X7450000Y-6400000D02*
X21950000Y-6400000D01*
X21950000Y-11800000D01*
X7450000Y-11800000D01*
X7450000Y-6400000D01*
X18000000Y-9300000D02*
G75*
G02*
X17800000Y-9100000I0J200000D01*
G01*
D12*
X7708277Y-12113984D02*
X7708277Y-11913984D01*
X7708277Y-11913984D02*
X7755896Y-11913984D01*
X7755896Y-11913984D02*
X7784467Y-11923508D01*
X7784467Y-11923508D02*
X7803515Y-11942555D01*
X7803515Y-11942555D02*
X7813039Y-11961603D01*
X7813039Y-11961603D02*
X7822562Y-11999698D01*
X7822562Y-11999698D02*
X7822562Y-12028269D01*
X7822562Y-12028269D02*
X7813039Y-12066365D01*
X7813039Y-12066365D02*
X7803515Y-12085412D01*
X7803515Y-12085412D02*
X7784467Y-12104460D01*
X7784467Y-12104460D02*
X7755896Y-12113984D01*
X7755896Y-12113984D02*
X7708277Y-12113984D01*
X7908277Y-12113984D02*
X7908277Y-11980650D01*
X7908277Y-12018746D02*
X7917801Y-11999698D01*
X7917801Y-11999698D02*
X7927324Y-11990174D01*
X7927324Y-11990174D02*
X7946372Y-11980650D01*
X7946372Y-11980650D02*
X7965420Y-11980650D01*
X8032086Y-12113984D02*
X8032086Y-11980650D01*
X8032086Y-11913984D02*
X8022562Y-11923508D01*
X8022562Y-11923508D02*
X8032086Y-11933031D01*
X8032086Y-11933031D02*
X8041610Y-11923508D01*
X8041610Y-11923508D02*
X8032086Y-11913984D01*
X8032086Y-11913984D02*
X8032086Y-11933031D01*
X8155896Y-12113984D02*
X8136848Y-12104460D01*
X8136848Y-12104460D02*
X8127324Y-12085412D01*
X8127324Y-12085412D02*
X8127324Y-11913984D01*
X8260658Y-12113984D02*
X8241610Y-12104460D01*
X8241610Y-12104460D02*
X8232086Y-12085412D01*
X8232086Y-12085412D02*
X8232086Y-11913984D01*
X8489229Y-12113984D02*
X8489229Y-11913984D01*
X8489229Y-11913984D02*
X8555896Y-12056841D01*
X8555896Y-12056841D02*
X8622563Y-11913984D01*
X8622563Y-11913984D02*
X8622563Y-12113984D01*
X8803515Y-12113984D02*
X8803515Y-12009222D01*
X8803515Y-12009222D02*
X8793991Y-11990174D01*
X8793991Y-11990174D02*
X8774944Y-11980650D01*
X8774944Y-11980650D02*
X8736848Y-11980650D01*
X8736848Y-11980650D02*
X8717801Y-11990174D01*
X8803515Y-12104460D02*
X8784467Y-12113984D01*
X8784467Y-12113984D02*
X8736848Y-12113984D01*
X8736848Y-12113984D02*
X8717801Y-12104460D01*
X8717801Y-12104460D02*
X8708277Y-12085412D01*
X8708277Y-12085412D02*
X8708277Y-12066365D01*
X8708277Y-12066365D02*
X8717801Y-12047317D01*
X8717801Y-12047317D02*
X8736848Y-12037793D01*
X8736848Y-12037793D02*
X8784467Y-12037793D01*
X8784467Y-12037793D02*
X8803515Y-12028269D01*
X8898753Y-11980650D02*
X8898753Y-12180650D01*
X8898753Y-11990174D02*
X8917801Y-11980650D01*
X8917801Y-11980650D02*
X8955896Y-11980650D01*
X8955896Y-11980650D02*
X8974944Y-11990174D01*
X8974944Y-11990174D02*
X8984467Y-11999698D01*
X8984467Y-11999698D02*
X8993991Y-12018746D01*
X8993991Y-12018746D02*
X8993991Y-12075888D01*
X8993991Y-12075888D02*
X8984467Y-12094936D01*
X8984467Y-12094936D02*
X8974944Y-12104460D01*
X8974944Y-12104460D02*
X8955896Y-12113984D01*
X8955896Y-12113984D02*
X8917801Y-12113984D01*
X8917801Y-12113984D02*
X8898753Y-12104460D01*
X9079705Y-12094936D02*
X9089229Y-12104460D01*
X9089229Y-12104460D02*
X9079705Y-12113984D01*
X9079705Y-12113984D02*
X9070182Y-12104460D01*
X9070182Y-12104460D02*
X9079705Y-12094936D01*
X9079705Y-12094936D02*
X9079705Y-12113984D01*
X9079705Y-11990174D02*
X9089229Y-11999698D01*
X9089229Y-11999698D02*
X9079705Y-12009222D01*
X9079705Y-12009222D02*
X9070182Y-11999698D01*
X9070182Y-11999698D02*
X9079705Y-11990174D01*
X9079705Y-11990174D02*
X9079705Y-12009222D01*
M02*
