%TF.GenerationSoftware,KiCad,Pcbnew,8.0.5*%
%TF.CreationDate,2025-07-23T09:32:54+02:00*%
%TF.ProjectId,SVX_Node_Case_front,5356585f-4e6f-4646-955f-436173655f66,rev?*%
%TF.SameCoordinates,Original*%
%TF.FileFunction,Legend,Bot*%
%TF.FilePolarity,Positive*%
%FSLAX46Y46*%
G04 Gerber Fmt 4.6, Leading zero omitted, Abs format (unit mm)*
G04 Created by KiCad (PCBNEW 8.0.5) date 2025-07-23 09:32:54*
%MOMM*%
%LPD*%
G01*
G04 APERTURE LIST*
%ADD10C,0.150000*%
%ADD11C,0.120000*%
G04 APERTURE END LIST*
D10*
X149333333Y-103504819D02*
X149666666Y-103028628D01*
X149904761Y-103504819D02*
X149904761Y-102504819D01*
X149904761Y-102504819D02*
X149523809Y-102504819D01*
X149523809Y-102504819D02*
X149428571Y-102552438D01*
X149428571Y-102552438D02*
X149380952Y-102600057D01*
X149380952Y-102600057D02*
X149333333Y-102695295D01*
X149333333Y-102695295D02*
X149333333Y-102838152D01*
X149333333Y-102838152D02*
X149380952Y-102933390D01*
X149380952Y-102933390D02*
X149428571Y-102981009D01*
X149428571Y-102981009D02*
X149523809Y-103028628D01*
X149523809Y-103028628D02*
X149904761Y-103028628D01*
X148904761Y-102981009D02*
X148571428Y-102981009D01*
X148428571Y-103504819D02*
X148904761Y-103504819D01*
X148904761Y-103504819D02*
X148904761Y-102504819D01*
X148904761Y-102504819D02*
X148428571Y-102504819D01*
X147666666Y-102981009D02*
X147999999Y-102981009D01*
X147999999Y-103504819D02*
X147999999Y-102504819D01*
X147999999Y-102504819D02*
X147523809Y-102504819D01*
X146999999Y-102504819D02*
X146999999Y-102742914D01*
X147238094Y-102647676D02*
X146999999Y-102742914D01*
X146999999Y-102742914D02*
X146761904Y-102647676D01*
X147142856Y-102933390D02*
X146999999Y-102742914D01*
X146999999Y-102742914D02*
X146857142Y-102933390D01*
X146238094Y-102504819D02*
X146238094Y-102742914D01*
X146476189Y-102647676D02*
X146238094Y-102742914D01*
X146238094Y-102742914D02*
X145999999Y-102647676D01*
X146380951Y-102933390D02*
X146238094Y-102742914D01*
X146238094Y-102742914D02*
X146095237Y-102933390D01*
D11*
%TO.C,REF\u002A\u002A*%
X139915000Y-104140000D02*
X156085000Y-104140000D01*
X156085000Y-104140000D02*
X156085000Y-104990000D01*
X156085000Y-109360000D02*
X156085000Y-108510000D01*
X153760000Y-109360000D02*
X156085000Y-109360000D01*
X153760000Y-111750000D02*
X153760000Y-109360000D01*
X139915000Y-104990000D02*
X139915000Y-104140000D01*
X139915000Y-109360000D02*
X139915000Y-108510000D01*
X142240000Y-109360000D02*
X139915000Y-109360000D01*
%TD*%
M02*
