%TF.GenerationSoftware,KiCad,Pcbnew,8.0.1*%
%TF.CreationDate,2025-07-26T13:45:31+02:00*%
%TF.ProjectId,SVX_Node_Case_front,5356585f-4e6f-4646-955f-436173655f66,rev?*%
%TF.SameCoordinates,Original*%
%TF.FileFunction,Legend,Top*%
%TF.FilePolarity,Positive*%
%FSLAX46Y46*%
G04 Gerber Fmt 4.6, Leading zero omitted, Abs format (unit mm)*
G04 Created by KiCad (PCBNEW 8.0.1) date 2025-07-26 13:45:31*
%MOMM*%
%LPD*%
G01*
G04 APERTURE LIST*
%ADD10C,0.500000*%
%ADD11C,1.500000*%
%ADD12C,0.200000*%
%ADD13C,0.000000*%
G04 APERTURE END LIST*
D10*
X193007340Y-88750001D02*
G75*
G02*
X192995483Y-94499980I-437640J-2874099D01*
G01*
D11*
X85403806Y-66000000D02*
G75*
G02*
X77000000Y-74403806I-6500006J-1903800D01*
G01*
X208526122Y-116088273D02*
G75*
G02*
X217000000Y-107500002I6570078J1992073D01*
G01*
D10*
X111800000Y-88400000D02*
X113800000Y-88400000D01*
X113800000Y-90300000D01*
X111800000Y-90300000D01*
X111800000Y-88400000D01*
D11*
X217000000Y-74773070D02*
G75*
G02*
X208222540Y-66014928I-2000000J6773070D01*
G01*
D10*
X177404513Y-94500000D02*
X192995486Y-94500000D01*
X103000000Y-93350000D02*
X105000000Y-93350000D01*
X105000000Y-95250000D01*
X103000000Y-95250000D01*
X103000000Y-93350000D01*
D11*
X217000000Y-74773070D02*
X217000000Y-107500001D01*
X208222540Y-66014928D02*
X85403806Y-66000000D01*
D10*
X95900000Y-91750000D02*
G75*
G02*
X92100000Y-91750000I-1900000J0D01*
G01*
X92100000Y-91750000D02*
G75*
G02*
X95900000Y-91750000I1900000J0D01*
G01*
D11*
X77000000Y-107096195D02*
G75*
G02*
X85256389Y-115945484I1903800J-6500005D01*
G01*
D10*
X111750000Y-93350000D02*
X113750000Y-93350000D01*
X113750000Y-95250000D01*
X111750000Y-95250000D01*
X111750000Y-93350000D01*
X102950000Y-88400000D02*
X104950000Y-88400000D01*
X104950000Y-90300000D01*
X102950000Y-90300000D01*
X102950000Y-88400000D01*
D11*
X208500000Y-116096194D02*
X85403806Y-116000000D01*
D10*
X177318054Y-88750000D02*
X192999999Y-88750000D01*
D11*
X77000000Y-74403806D02*
X77000000Y-107096194D01*
D10*
X177351886Y-94500000D02*
G75*
G02*
X177318053Y-88749994I397264J2877440D01*
G01*
D12*
G36*
X94597697Y-112979539D02*
G01*
X95189741Y-112940949D01*
X95209662Y-113043095D01*
X95247142Y-113137089D01*
X95267899Y-113169071D01*
X95343813Y-113241103D01*
X95439237Y-113283234D01*
X95542916Y-113295589D01*
X95641111Y-113285431D01*
X95734076Y-113245039D01*
X95748080Y-113234040D01*
X95808445Y-113153890D01*
X95820376Y-113090914D01*
X95790714Y-112996767D01*
X95751500Y-112953161D01*
X95665944Y-112904678D01*
X95571577Y-112872435D01*
X95463560Y-112844683D01*
X95433007Y-112837878D01*
X95334333Y-112814339D01*
X95221294Y-112782254D01*
X95119705Y-112747211D01*
X95029564Y-112709210D01*
X94936507Y-112659705D01*
X94848778Y-112596566D01*
X94780257Y-112526555D01*
X94722554Y-112436811D01*
X94686834Y-112336687D01*
X94673095Y-112226182D01*
X94672923Y-112211639D01*
X94683544Y-112107872D01*
X94715406Y-112008145D01*
X94762805Y-111920990D01*
X94827854Y-111841230D01*
X94910648Y-111772918D01*
X95000336Y-111721226D01*
X95033426Y-111706057D01*
X95132161Y-111671863D01*
X95232279Y-111649957D01*
X95345206Y-111635532D01*
X95452196Y-111629120D01*
X95528750Y-111627899D01*
X95645002Y-111631358D01*
X95752261Y-111641733D01*
X95850528Y-111659026D01*
X95956579Y-111688907D01*
X96049682Y-111728749D01*
X96117376Y-111769560D01*
X96198212Y-111839531D01*
X96263341Y-111925490D01*
X96312762Y-112027437D01*
X96342621Y-112127546D01*
X96358688Y-112219944D01*
X95772016Y-112253161D01*
X95744500Y-112158563D01*
X95687393Y-112074452D01*
X95673831Y-112062651D01*
X95584804Y-112017955D01*
X95483464Y-112003289D01*
X95467201Y-112003056D01*
X95367007Y-112015877D01*
X95303558Y-112048485D01*
X95251466Y-112131394D01*
X95248848Y-112158883D01*
X95294277Y-112244368D01*
X95389020Y-112288880D01*
X95492690Y-112315040D01*
X95502861Y-112317152D01*
X95601214Y-112338814D01*
X95713981Y-112366019D01*
X95815442Y-112393368D01*
X95922271Y-112426375D01*
X96026329Y-112465143D01*
X96087090Y-112493007D01*
X96178907Y-112546416D01*
X96262980Y-112613736D01*
X96328162Y-112689451D01*
X96344033Y-112713803D01*
X96389922Y-112808172D01*
X96416762Y-112909930D01*
X96424633Y-113008848D01*
X96416132Y-113114241D01*
X96390630Y-113214997D01*
X96348126Y-113311116D01*
X96317166Y-113362512D01*
X96250229Y-113447279D01*
X96169768Y-113519682D01*
X96086893Y-113573660D01*
X96017725Y-113607732D01*
X95915448Y-113644276D01*
X95815637Y-113667688D01*
X95706197Y-113683105D01*
X95604725Y-113689957D01*
X95533147Y-113691263D01*
X95409613Y-113688126D01*
X95295956Y-113678715D01*
X95192176Y-113663030D01*
X95076340Y-113634601D01*
X94975935Y-113596369D01*
X94875821Y-113537550D01*
X94821423Y-113490495D01*
X94753279Y-113411211D01*
X94697226Y-113324303D01*
X94653262Y-113229770D01*
X94621388Y-113127611D01*
X94601605Y-113017828D01*
X94597697Y-112979539D01*
G37*
G36*
X96527215Y-111659162D02*
G01*
X97178367Y-111659162D01*
X97631681Y-113099218D01*
X98078157Y-111659162D01*
X98710258Y-111659162D01*
X97962875Y-113660000D01*
X97288276Y-113660000D01*
X96527215Y-111659162D01*
G37*
G36*
X98764480Y-111659162D02*
G01*
X99449825Y-111659162D01*
X99807397Y-112274654D01*
X100153244Y-111659162D01*
X100832240Y-111659162D01*
X100205512Y-112628318D01*
X100891346Y-113660000D01*
X100191835Y-113660000D01*
X99794696Y-113017152D01*
X99396580Y-113660000D01*
X98700976Y-113660000D01*
X99396580Y-112617083D01*
X98764480Y-111659162D01*
G37*
G36*
X101079902Y-111659162D02*
G01*
X101702233Y-111659162D01*
X101702233Y-113159790D01*
X102673342Y-113159790D01*
X102673342Y-113660000D01*
X101079902Y-113660000D01*
X101079902Y-111659162D01*
G37*
G36*
X102929309Y-111659162D02*
G01*
X103488625Y-111659162D01*
X103488625Y-112034319D01*
X102929309Y-112034319D01*
X102929309Y-111659162D01*
G37*
G36*
X102929309Y-112190635D02*
G01*
X103488625Y-112190635D01*
X103488625Y-113660000D01*
X102929309Y-113660000D01*
X102929309Y-112190635D01*
G37*
G36*
X103840823Y-112190635D02*
G01*
X104361549Y-112190635D01*
X104361549Y-112429016D01*
X104427413Y-112353977D01*
X104501048Y-112286009D01*
X104582598Y-112229977D01*
X104597487Y-112221898D01*
X104694597Y-112183796D01*
X104796528Y-112164317D01*
X104889113Y-112159371D01*
X104998809Y-112168073D01*
X105095865Y-112194176D01*
X105189945Y-112244344D01*
X105252058Y-112298590D01*
X105315578Y-112388604D01*
X105354588Y-112488728D01*
X105375248Y-112591864D01*
X105382947Y-112691802D01*
X105383461Y-112727480D01*
X105383461Y-113660000D01*
X104821702Y-113660000D01*
X104821702Y-112850579D01*
X104813318Y-112751324D01*
X104774025Y-112658348D01*
X104770900Y-112654696D01*
X104686550Y-112603866D01*
X104628262Y-112597055D01*
X104531060Y-112618975D01*
X104463154Y-112674724D01*
X104420077Y-112766246D01*
X104403154Y-112871215D01*
X104400139Y-112953161D01*
X104400139Y-113660000D01*
X103840823Y-113660000D01*
X103840823Y-112190635D01*
G37*
G36*
X105706838Y-111659162D02*
G01*
X106278367Y-111659162D01*
X106278367Y-112644926D01*
X106696022Y-112190635D01*
X107384298Y-112190635D01*
X106860642Y-112705498D01*
X107414584Y-113660000D01*
X106783949Y-113660000D01*
X106488415Y-113072351D01*
X106278367Y-113278004D01*
X106278367Y-113660000D01*
X105706838Y-113660000D01*
X105706838Y-111659162D01*
G37*
G36*
X108547871Y-111659162D02*
G01*
X109129169Y-111659162D01*
X109887787Y-112786587D01*
X109887787Y-111659162D01*
X110473970Y-111659162D01*
X110473970Y-113660000D01*
X109887787Y-113660000D01*
X109133077Y-112538436D01*
X109133077Y-113660000D01*
X108547871Y-113660000D01*
X108547871Y-111659162D01*
G37*
G36*
X111709541Y-112163363D02*
G01*
X111809032Y-112175339D01*
X111923972Y-112201535D01*
X112028440Y-112240206D01*
X112122438Y-112291352D01*
X112205965Y-112354972D01*
X112265247Y-112414849D01*
X112326504Y-112495318D01*
X112375088Y-112582484D01*
X112410997Y-112676348D01*
X112434233Y-112776909D01*
X112444794Y-112884168D01*
X112445498Y-112921409D01*
X112440048Y-113024063D01*
X112423698Y-113120753D01*
X112389689Y-113228911D01*
X112339984Y-113328482D01*
X112274582Y-113419466D01*
X112222260Y-113475352D01*
X112132518Y-113548728D01*
X112030721Y-113606922D01*
X111936680Y-113643821D01*
X111834267Y-113670178D01*
X111723483Y-113685991D01*
X111604326Y-113691263D01*
X111497708Y-113686886D01*
X111397674Y-113673755D01*
X111286322Y-113646444D01*
X111184450Y-113606527D01*
X111092057Y-113554006D01*
X111035729Y-113511988D01*
X110958892Y-113439157D01*
X110895079Y-113359575D01*
X110844289Y-113273243D01*
X110806522Y-113180162D01*
X110781778Y-113080330D01*
X110770057Y-112973748D01*
X110769016Y-112929225D01*
X110769253Y-112924829D01*
X111329797Y-112924829D01*
X111336018Y-113028980D01*
X111357523Y-113125399D01*
X111403605Y-113214277D01*
X111408443Y-113220362D01*
X111485447Y-113285812D01*
X111585174Y-113315264D01*
X111607257Y-113316106D01*
X111704603Y-113298060D01*
X111790641Y-113238676D01*
X111805582Y-113221828D01*
X111852912Y-113135045D01*
X111875667Y-113038169D01*
X111883176Y-112931892D01*
X111883251Y-112918967D01*
X111877030Y-112817490D01*
X111852530Y-112714871D01*
X111804605Y-112629783D01*
X111729111Y-112564668D01*
X111632454Y-112535366D01*
X111611165Y-112534528D01*
X111512443Y-112553041D01*
X111429990Y-112608580D01*
X111409420Y-112631249D01*
X111360900Y-112717642D01*
X111336095Y-112821819D01*
X111329797Y-112924829D01*
X110769253Y-112924829D01*
X110774513Y-112827380D01*
X110795625Y-112712754D01*
X110832571Y-112606405D01*
X110885350Y-112508334D01*
X110953963Y-112418540D01*
X110994207Y-112376748D01*
X111084385Y-112302874D01*
X111185656Y-112244284D01*
X111278523Y-112207135D01*
X111379094Y-112180600D01*
X111487370Y-112164678D01*
X111603349Y-112159371D01*
X111709541Y-112163363D01*
G37*
G36*
X114239706Y-113660000D02*
G01*
X113716538Y-113660000D01*
X113716538Y-113463140D01*
X113643227Y-113540088D01*
X113562390Y-113606022D01*
X113515771Y-113633133D01*
X113421363Y-113668556D01*
X113319125Y-113687629D01*
X113246615Y-113691263D01*
X113139820Y-113683260D01*
X113042916Y-113659252D01*
X112942365Y-113611013D01*
X112855277Y-113540988D01*
X112791346Y-113463628D01*
X112737891Y-113374814D01*
X112695496Y-113279095D01*
X112664161Y-113176473D01*
X112643885Y-113066947D01*
X112634668Y-112950518D01*
X112634351Y-112929713D01*
X113192882Y-112929713D01*
X113198253Y-113033908D01*
X113216819Y-113129831D01*
X113260781Y-113223293D01*
X113337107Y-113292903D01*
X113429309Y-113316106D01*
X113527372Y-113292658D01*
X113603114Y-113228087D01*
X113607606Y-113222316D01*
X113654098Y-113126522D01*
X113673733Y-113026173D01*
X113679413Y-112916036D01*
X113673656Y-112815542D01*
X113650982Y-112713810D01*
X113606629Y-112629295D01*
X113529914Y-112561274D01*
X113429393Y-112534621D01*
X113422470Y-112534528D01*
X113327628Y-112560171D01*
X113258827Y-112625387D01*
X113216130Y-112719445D01*
X113198098Y-112819336D01*
X113192882Y-112929713D01*
X112634351Y-112929713D01*
X112634054Y-112910174D01*
X112638288Y-112800482D01*
X112650989Y-112699161D01*
X112677407Y-112588628D01*
X112716018Y-112490151D01*
X112766823Y-112403729D01*
X112807466Y-112352812D01*
X112888036Y-112277438D01*
X112977581Y-112220577D01*
X113076103Y-112182229D01*
X113183600Y-112162394D01*
X113249057Y-112159371D01*
X113351314Y-112165902D01*
X113452239Y-112187540D01*
X113485973Y-112198939D01*
X113574570Y-112240800D01*
X113654004Y-112297995D01*
X113675017Y-112317152D01*
X113675017Y-111659162D01*
X114239706Y-111659162D01*
X114239706Y-113660000D01*
G37*
G36*
X115436928Y-112162617D02*
G01*
X115540437Y-112172354D01*
X115649477Y-112191919D01*
X115745895Y-112220320D01*
X115818492Y-112251695D01*
X115903916Y-112302803D01*
X115987026Y-112372707D01*
X116056381Y-112455749D01*
X116094975Y-112518408D01*
X116136435Y-112612411D01*
X116166050Y-112719542D01*
X116182245Y-112824051D01*
X116188908Y-112921630D01*
X116189741Y-112973189D01*
X116189741Y-113034738D01*
X115068667Y-113034738D01*
X115090051Y-113134528D01*
X115137890Y-113221763D01*
X115141451Y-113225736D01*
X115221847Y-113287512D01*
X115321130Y-113314694D01*
X115352965Y-113316106D01*
X115452723Y-113301031D01*
X115509281Y-113277515D01*
X115587618Y-113212995D01*
X115606978Y-113191053D01*
X116157990Y-113253579D01*
X116100137Y-113349636D01*
X116037282Y-113433071D01*
X115969425Y-113503883D01*
X115885749Y-113569356D01*
X115852686Y-113589658D01*
X115753829Y-113634110D01*
X115651400Y-113662587D01*
X115551772Y-113679257D01*
X115441222Y-113688782D01*
X115340753Y-113691263D01*
X115236454Y-113688377D01*
X115125711Y-113677719D01*
X115026748Y-113659206D01*
X114928074Y-113628431D01*
X114884508Y-113609197D01*
X114795567Y-113555384D01*
X114715591Y-113486270D01*
X114652026Y-113411990D01*
X114609002Y-113348346D01*
X114561344Y-113255045D01*
X114527302Y-113153928D01*
X114506878Y-113044996D01*
X114500176Y-112943269D01*
X114500069Y-112928248D01*
X114505412Y-112823989D01*
X114516981Y-112753370D01*
X115070132Y-112753370D01*
X115621144Y-112753370D01*
X115593659Y-112658058D01*
X115533705Y-112585331D01*
X115440196Y-112544252D01*
X115347592Y-112534528D01*
X115248108Y-112547186D01*
X115155358Y-112593246D01*
X115134612Y-112611221D01*
X115082306Y-112698978D01*
X115070132Y-112753370D01*
X114516981Y-112753370D01*
X114521441Y-112726147D01*
X114554780Y-112617205D01*
X114603506Y-112517502D01*
X114667620Y-112427039D01*
X114718911Y-112371863D01*
X114807016Y-112299649D01*
X114906833Y-112242376D01*
X114998961Y-112206061D01*
X115099222Y-112180123D01*
X115207616Y-112164559D01*
X115324145Y-112159371D01*
X115436928Y-112162617D01*
G37*
G36*
X180432299Y-96934654D02*
G01*
X180876333Y-96905711D01*
X180891274Y-96982321D01*
X180919384Y-97052817D01*
X180934951Y-97076803D01*
X180991887Y-97130827D01*
X181063455Y-97162425D01*
X181141214Y-97171692D01*
X181214860Y-97164073D01*
X181284584Y-97133779D01*
X181295087Y-97125530D01*
X181340360Y-97065417D01*
X181349309Y-97018185D01*
X181327062Y-96947575D01*
X181297652Y-96914870D01*
X181233485Y-96878508D01*
X181162709Y-96854326D01*
X181081697Y-96833512D01*
X181058782Y-96828408D01*
X180984777Y-96810754D01*
X180899998Y-96786690D01*
X180823805Y-96760408D01*
X180756200Y-96731907D01*
X180686407Y-96694778D01*
X180620611Y-96647424D01*
X180569219Y-96594916D01*
X180525943Y-96527608D01*
X180499152Y-96452515D01*
X180488848Y-96369637D01*
X180488719Y-96358729D01*
X180496685Y-96280904D01*
X180520582Y-96206109D01*
X180556130Y-96140743D01*
X180604917Y-96080922D01*
X180667013Y-96029689D01*
X180734279Y-95990920D01*
X180759096Y-95979542D01*
X180833148Y-95953897D01*
X180908236Y-95937468D01*
X180992931Y-95926649D01*
X181073174Y-95921840D01*
X181130590Y-95920924D01*
X181217778Y-95923518D01*
X181298223Y-95931300D01*
X181371923Y-95944269D01*
X181451461Y-95966680D01*
X181521288Y-95996562D01*
X181572059Y-96027170D01*
X181632686Y-96079648D01*
X181681533Y-96144117D01*
X181718599Y-96220578D01*
X181740993Y-96295660D01*
X181753043Y-96364958D01*
X181313039Y-96389870D01*
X181292402Y-96318922D01*
X181249572Y-96255839D01*
X181239400Y-96246988D01*
X181172630Y-96213466D01*
X181096625Y-96202466D01*
X181084428Y-96202292D01*
X181009282Y-96211908D01*
X180961696Y-96236364D01*
X180922626Y-96298546D01*
X180920663Y-96319162D01*
X180954735Y-96383276D01*
X181025792Y-96416660D01*
X181103544Y-96436280D01*
X181111172Y-96437864D01*
X181184938Y-96454110D01*
X181269513Y-96474514D01*
X181345608Y-96495026D01*
X181425730Y-96519781D01*
X181503774Y-96548857D01*
X181549344Y-96569755D01*
X181618207Y-96609812D01*
X181681262Y-96660302D01*
X181730148Y-96717088D01*
X181742052Y-96735352D01*
X181776468Y-96806129D01*
X181796598Y-96882447D01*
X181802502Y-96956636D01*
X181796126Y-97035680D01*
X181776999Y-97111247D01*
X181745121Y-97183337D01*
X181721902Y-97221884D01*
X181671699Y-97285459D01*
X181611353Y-97339761D01*
X181549197Y-97380245D01*
X181497320Y-97405799D01*
X181420613Y-97433207D01*
X181345755Y-97450766D01*
X181263674Y-97462329D01*
X181187571Y-97467468D01*
X181133887Y-97468447D01*
X181041237Y-97466094D01*
X180955994Y-97459036D01*
X180878159Y-97447272D01*
X180791282Y-97425950D01*
X180715978Y-97397276D01*
X180640892Y-97353162D01*
X180600094Y-97317871D01*
X180548986Y-97258408D01*
X180506946Y-97193227D01*
X180473973Y-97122327D01*
X180450068Y-97045708D01*
X180435230Y-96963371D01*
X180432299Y-96934654D01*
G37*
G36*
X182802713Y-95946316D02*
G01*
X182882129Y-95953502D01*
X182963703Y-95968196D01*
X183035476Y-95989806D01*
X183059864Y-95999692D01*
X183127484Y-96034607D01*
X183188149Y-96077114D01*
X183241858Y-96127214D01*
X183268692Y-96158328D01*
X183311466Y-96219138D01*
X183347053Y-96285338D01*
X183375454Y-96356928D01*
X183388126Y-96399030D01*
X183406013Y-96477407D01*
X183418047Y-96558394D01*
X183423828Y-96632571D01*
X183425129Y-96689556D01*
X183423184Y-96776020D01*
X183417350Y-96854884D01*
X183405626Y-96937288D01*
X183388609Y-97009348D01*
X183369808Y-97062882D01*
X183335505Y-97133915D01*
X183294421Y-97198225D01*
X183246556Y-97255811D01*
X183217034Y-97284898D01*
X183154466Y-97334937D01*
X183089036Y-97373312D01*
X183020743Y-97400024D01*
X183006741Y-97403967D01*
X182931797Y-97421919D01*
X182851809Y-97435984D01*
X182776400Y-97443557D01*
X182728671Y-97445000D01*
X182035143Y-97445000D01*
X182035143Y-96296081D01*
X182501891Y-96296081D01*
X182501891Y-97093290D01*
X182616197Y-97093290D01*
X182691757Y-97090827D01*
X182766005Y-97081125D01*
X182824292Y-97062149D01*
X182882426Y-97015541D01*
X182921012Y-96952606D01*
X182942444Y-96880203D01*
X182952748Y-96799088D01*
X182956045Y-96720594D01*
X182956183Y-96699082D01*
X182953426Y-96617268D01*
X182943243Y-96534842D01*
X182922418Y-96457814D01*
X182887275Y-96393053D01*
X182877781Y-96381810D01*
X182818919Y-96336602D01*
X182748691Y-96310230D01*
X182672545Y-96298174D01*
X182618395Y-96296081D01*
X182501891Y-96296081D01*
X182035143Y-96296081D01*
X182035143Y-95944371D01*
X182728671Y-95944371D01*
X182802713Y-95946316D01*
G37*
G36*
X183553357Y-96718133D02*
G01*
X184163353Y-96718133D01*
X184163353Y-97046395D01*
X183553357Y-97046395D01*
X183553357Y-96718133D01*
G37*
G36*
X185366127Y-96835369D02*
G01*
X185774990Y-96953705D01*
X185754759Y-97025555D01*
X185726056Y-97101100D01*
X185691401Y-97169639D01*
X185650791Y-97231171D01*
X185645297Y-97238370D01*
X185592035Y-97298056D01*
X185531991Y-97348932D01*
X185465167Y-97390998D01*
X185425112Y-97410561D01*
X185355044Y-97435886D01*
X185276001Y-97453975D01*
X185199476Y-97463868D01*
X185116078Y-97468221D01*
X185090987Y-97468447D01*
X185016251Y-97466721D01*
X184932377Y-97460092D01*
X184854839Y-97448491D01*
X184772388Y-97428673D01*
X184698562Y-97402089D01*
X184688719Y-97397739D01*
X184622472Y-97361507D01*
X184560292Y-97315002D01*
X184502179Y-97258223D01*
X184455604Y-97201380D01*
X184419075Y-97148244D01*
X184380603Y-97077696D01*
X184350090Y-97000142D01*
X184327537Y-96915580D01*
X184314824Y-96839760D01*
X184307638Y-96759074D01*
X184305869Y-96691022D01*
X184308983Y-96600925D01*
X184318325Y-96516197D01*
X184333896Y-96436839D01*
X184355694Y-96362851D01*
X184383721Y-96294232D01*
X184427513Y-96216009D01*
X184481037Y-96146177D01*
X184505171Y-96120593D01*
X184571496Y-96063071D01*
X184645906Y-96015299D01*
X184728403Y-95977276D01*
X184800222Y-95953877D01*
X184877215Y-95936718D01*
X184959384Y-95925799D01*
X185046727Y-95921119D01*
X185069372Y-95920924D01*
X185155571Y-95923751D01*
X185235796Y-95932230D01*
X185310045Y-95946362D01*
X185391258Y-95970783D01*
X185463867Y-96003343D01*
X185517802Y-96036695D01*
X185576127Y-96084476D01*
X185628553Y-96140989D01*
X185675079Y-96206235D01*
X185715707Y-96280213D01*
X185745057Y-96348532D01*
X185760701Y-96392435D01*
X185348542Y-96483660D01*
X185322098Y-96415220D01*
X185303112Y-96383276D01*
X185250362Y-96328846D01*
X185207125Y-96301577D01*
X185135347Y-96277411D01*
X185080729Y-96272634D01*
X185006037Y-96280442D01*
X184933065Y-96307892D01*
X184871801Y-96355107D01*
X184837463Y-96397564D01*
X184803847Y-96465835D01*
X184784237Y-96544960D01*
X184775957Y-96618082D01*
X184773716Y-96688824D01*
X184776395Y-96775450D01*
X184784432Y-96851232D01*
X184800581Y-96925937D01*
X184832059Y-97000296D01*
X184849920Y-97025512D01*
X184909626Y-97077450D01*
X184983965Y-97107828D01*
X185064243Y-97116737D01*
X185141644Y-97109725D01*
X185211992Y-97085812D01*
X185266842Y-97044930D01*
X185312918Y-96981629D01*
X185343208Y-96914868D01*
X185364167Y-96843892D01*
X185366127Y-96835369D01*
G37*
G36*
X186591102Y-96320545D02*
G01*
X186672658Y-96324197D01*
X186753297Y-96331481D01*
X186815098Y-96340778D01*
X186889389Y-96360841D01*
X186960066Y-96395171D01*
X187005973Y-96429438D01*
X187053784Y-96485766D01*
X187088292Y-96556375D01*
X187090237Y-96561695D01*
X187111525Y-96634915D01*
X187121105Y-96710097D01*
X187121378Y-96724727D01*
X187121378Y-97210893D01*
X187124392Y-97287606D01*
X187130904Y-97332526D01*
X187155414Y-97404578D01*
X187173768Y-97445000D01*
X186780293Y-97445000D01*
X186749152Y-97379787D01*
X186734864Y-97309078D01*
X186678322Y-97358411D01*
X186616936Y-97400082D01*
X186571099Y-97423018D01*
X186497984Y-97446974D01*
X186417856Y-97462058D01*
X186339745Y-97468048D01*
X186312446Y-97468447D01*
X186231217Y-97464274D01*
X186149460Y-97449288D01*
X186079519Y-97423402D01*
X186014958Y-97381252D01*
X185961442Y-97322748D01*
X185927746Y-97256230D01*
X185913872Y-97181698D01*
X185913475Y-97165830D01*
X185917207Y-97132491D01*
X186334061Y-97132491D01*
X186362345Y-97200264D01*
X186368500Y-97205764D01*
X186438498Y-97232211D01*
X186469983Y-97233974D01*
X186545575Y-97224236D01*
X186600042Y-97203199D01*
X186661866Y-97159579D01*
X186685771Y-97128461D01*
X186708582Y-97054866D01*
X186711050Y-97013056D01*
X186711050Y-96952606D01*
X186639591Y-96974201D01*
X186565712Y-96993740D01*
X186530799Y-97002065D01*
X186454020Y-97023093D01*
X186385182Y-97051348D01*
X186369232Y-97062515D01*
X186334199Y-97127624D01*
X186334061Y-97132491D01*
X185917207Y-97132491D01*
X185922133Y-97088488D01*
X185951328Y-97015570D01*
X185986748Y-96968726D01*
X186051547Y-96920256D01*
X186126396Y-96887553D01*
X186198196Y-96866446D01*
X186256759Y-96853688D01*
X186339401Y-96837480D01*
X186421068Y-96821014D01*
X186494954Y-96805414D01*
X186562673Y-96789574D01*
X186634755Y-96768416D01*
X186706158Y-96743424D01*
X186711050Y-96741580D01*
X186700965Y-96668628D01*
X186679177Y-96632404D01*
X186608186Y-96603388D01*
X186566703Y-96600896D01*
X186491522Y-96606822D01*
X186418755Y-96632452D01*
X186412097Y-96636800D01*
X186366153Y-96694487D01*
X186347251Y-96741580D01*
X185946448Y-96694685D01*
X185964402Y-96620225D01*
X185991648Y-96547407D01*
X186011661Y-96510771D01*
X186060138Y-96451598D01*
X186120345Y-96403633D01*
X186135126Y-96394267D01*
X186203544Y-96362485D01*
X186275185Y-96342731D01*
X186293761Y-96338946D01*
X186371866Y-96327113D01*
X186447444Y-96321064D01*
X186512114Y-96319528D01*
X186591102Y-96320545D01*
G37*
G36*
X187368674Y-96342976D02*
G01*
X187761417Y-96342976D01*
X187761417Y-96524692D01*
X187797230Y-96458575D01*
X187841056Y-96398125D01*
X187878287Y-96363492D01*
X187945515Y-96330519D01*
X188021517Y-96319571D01*
X188027031Y-96319528D01*
X188105244Y-96328900D01*
X188175958Y-96351471D01*
X188229996Y-96376315D01*
X188100304Y-96678932D01*
X188030358Y-96654633D01*
X187983067Y-96647791D01*
X187909886Y-96664918D01*
X187855206Y-96716301D01*
X187823859Y-96783596D01*
X187804608Y-96865747D01*
X187795489Y-96941155D01*
X187790929Y-97028387D01*
X187790359Y-97076437D01*
X187790359Y-97445000D01*
X187368674Y-97445000D01*
X187368674Y-96342976D01*
G37*
G36*
X189499815Y-97445000D02*
G01*
X189107439Y-97445000D01*
X189107439Y-97297355D01*
X189052455Y-97355066D01*
X188991828Y-97404516D01*
X188956863Y-97424849D01*
X188886058Y-97451417D01*
X188809379Y-97465722D01*
X188754996Y-97468447D01*
X188674900Y-97462445D01*
X188602223Y-97444439D01*
X188526809Y-97408259D01*
X188461493Y-97355741D01*
X188413545Y-97297721D01*
X188373454Y-97231110D01*
X188341657Y-97159321D01*
X188318156Y-97082355D01*
X188302949Y-97000210D01*
X188296037Y-96912888D01*
X188295799Y-96897285D01*
X188714696Y-96897285D01*
X188718725Y-96975431D01*
X188732649Y-97047373D01*
X188765621Y-97117470D01*
X188822865Y-97169677D01*
X188892017Y-97187079D01*
X188965564Y-97169494D01*
X189022370Y-97121065D01*
X189025740Y-97116737D01*
X189060609Y-97044891D01*
X189075335Y-96969629D01*
X189079595Y-96887027D01*
X189075277Y-96811656D01*
X189058272Y-96735358D01*
X189025007Y-96671971D01*
X188967471Y-96620955D01*
X188892080Y-96600966D01*
X188886888Y-96600896D01*
X188815756Y-96620128D01*
X188764156Y-96669040D01*
X188732133Y-96739583D01*
X188718609Y-96814502D01*
X188714696Y-96897285D01*
X188295799Y-96897285D01*
X188295576Y-96882630D01*
X188298751Y-96800361D01*
X188308277Y-96724371D01*
X188328091Y-96641471D01*
X188357049Y-96567613D01*
X188395152Y-96502796D01*
X188425635Y-96464609D01*
X188486062Y-96408078D01*
X188553221Y-96365433D01*
X188627112Y-96336672D01*
X188707736Y-96321795D01*
X188756828Y-96319528D01*
X188833520Y-96324426D01*
X188909215Y-96340655D01*
X188934515Y-96349204D01*
X189000963Y-96380600D01*
X189060539Y-96423496D01*
X189076298Y-96437864D01*
X189076298Y-95944371D01*
X189499815Y-95944371D01*
X189499815Y-97445000D01*
G37*
G36*
X214595317Y-97598534D02*
G01*
X214595317Y-97307397D01*
X215060844Y-97165736D01*
X214595317Y-97019434D01*
X214595317Y-96737090D01*
X215330000Y-97047034D01*
X215330000Y-97294940D01*
X214595317Y-97598534D01*
G37*
G36*
X214313949Y-96053454D02*
G01*
X215330000Y-96053454D01*
X215330000Y-96336531D01*
X214664682Y-96336531D01*
X214695980Y-96378997D01*
X214723319Y-96420604D01*
X214748819Y-96465380D01*
X214750900Y-96469399D01*
X214773251Y-96517400D01*
X214793019Y-96567699D01*
X214810362Y-96618392D01*
X214814159Y-96630355D01*
X214579685Y-96630355D01*
X214562097Y-96579024D01*
X214543221Y-96532193D01*
X214519570Y-96483242D01*
X214494167Y-96440417D01*
X214470997Y-96408583D01*
X214437277Y-96371275D01*
X214399862Y-96338241D01*
X214358753Y-96309481D01*
X214313949Y-96284996D01*
X214313949Y-96053454D01*
G37*
G36*
X215003511Y-94458255D02*
G01*
X215058603Y-94465097D01*
X215110153Y-94476917D01*
X215158162Y-94493712D01*
X215163914Y-94496161D01*
X215211645Y-94520990D01*
X215252074Y-94550687D01*
X215288429Y-94589393D01*
X215300446Y-94606559D01*
X215324274Y-94652026D01*
X215339277Y-94700497D01*
X215345455Y-94751974D01*
X215345631Y-94762630D01*
X215342197Y-94811701D01*
X215330616Y-94861876D01*
X215316566Y-94897208D01*
X215289117Y-94939143D01*
X215253534Y-94977542D01*
X215231570Y-94997592D01*
X215330000Y-94997592D01*
X215330000Y-95259176D01*
X214329581Y-95259176D01*
X214329581Y-94976831D01*
X214658576Y-94976831D01*
X214627788Y-94938089D01*
X214604667Y-94894953D01*
X214599469Y-94881821D01*
X214590600Y-94849825D01*
X214767264Y-94849825D01*
X214777675Y-94898790D01*
X214808909Y-94938525D01*
X214814647Y-94943126D01*
X214861050Y-94966372D01*
X214912970Y-94976786D01*
X214958018Y-94979030D01*
X215007141Y-94976816D01*
X215058327Y-94967824D01*
X215104764Y-94947903D01*
X215110914Y-94943614D01*
X215144749Y-94906280D01*
X215158007Y-94857348D01*
X215158053Y-94853977D01*
X215144955Y-94805328D01*
X215111646Y-94769958D01*
X215063303Y-94747818D01*
X215011907Y-94738468D01*
X214961894Y-94735797D01*
X214955087Y-94735764D01*
X214904621Y-94738410D01*
X214854012Y-94748834D01*
X214812693Y-94769225D01*
X214778621Y-94805983D01*
X214767264Y-94849825D01*
X214590600Y-94849825D01*
X214585945Y-94833034D01*
X214580168Y-94783798D01*
X214579685Y-94763852D01*
X214584290Y-94707812D01*
X214598105Y-94656167D01*
X214621129Y-94608917D01*
X214653363Y-94566061D01*
X214675917Y-94543545D01*
X214714958Y-94513912D01*
X214759906Y-94490410D01*
X214810762Y-94473039D01*
X214867526Y-94461799D01*
X214919341Y-94457116D01*
X214952400Y-94456350D01*
X215003511Y-94458255D01*
G37*
G36*
X214595317Y-94408722D02*
G01*
X214595317Y-94113433D01*
X215084535Y-93962979D01*
X214595317Y-93823517D01*
X214595317Y-93548011D01*
X215380314Y-93837194D01*
X215427366Y-93855847D01*
X215474554Y-93877761D01*
X215518323Y-93903006D01*
X215557793Y-93934862D01*
X215560809Y-93938066D01*
X215589767Y-93979328D01*
X215610451Y-94030085D01*
X215621763Y-94082286D01*
X215626417Y-94132816D01*
X215626999Y-94160083D01*
X215625094Y-94209380D01*
X215620702Y-94261349D01*
X215614657Y-94316334D01*
X215610879Y-94346929D01*
X215419148Y-94368911D01*
X215432274Y-94317597D01*
X215438450Y-94266151D01*
X215439420Y-94234333D01*
X215432156Y-94184582D01*
X215416461Y-94154221D01*
X215376368Y-94121239D01*
X215334152Y-94102442D01*
X214595317Y-94408722D01*
G37*
G36*
X214875335Y-91984357D02*
G01*
X214925387Y-91988722D01*
X214981404Y-91997801D01*
X215033007Y-92011071D01*
X215080196Y-92028530D01*
X215109204Y-92042498D01*
X215155772Y-92071000D01*
X215197594Y-92104575D01*
X215234672Y-92143221D01*
X215267004Y-92186941D01*
X215283349Y-92214200D01*
X215307617Y-92265901D01*
X215323674Y-92314438D01*
X215335352Y-92366874D01*
X215342651Y-92423208D01*
X215345388Y-92473131D01*
X215345631Y-92493859D01*
X215344319Y-92545697D01*
X215340384Y-92594661D01*
X215332198Y-92649624D01*
X215320234Y-92700449D01*
X215304491Y-92747135D01*
X215291898Y-92775959D01*
X215265397Y-92822770D01*
X215232913Y-92865538D01*
X215194445Y-92904262D01*
X215149993Y-92938942D01*
X215121905Y-92956943D01*
X215076163Y-92980516D01*
X215026318Y-92999212D01*
X214972368Y-93013031D01*
X214914313Y-93021973D01*
X214862799Y-93025698D01*
X214830523Y-93026308D01*
X214771153Y-93024163D01*
X214715164Y-93017729D01*
X214662556Y-93007005D01*
X214613330Y-92991992D01*
X214567485Y-92972689D01*
X214514933Y-92942528D01*
X214467665Y-92905665D01*
X214450237Y-92889043D01*
X214410974Y-92843442D01*
X214378366Y-92792582D01*
X214357071Y-92748107D01*
X214340036Y-92700266D01*
X214327259Y-92649059D01*
X214318741Y-92594486D01*
X214314482Y-92536547D01*
X214313962Y-92507048D01*
X214548422Y-92507048D01*
X214553600Y-92557024D01*
X214571499Y-92605711D01*
X214602182Y-92647194D01*
X214613879Y-92658234D01*
X214657480Y-92685743D01*
X214707623Y-92702638D01*
X214760288Y-92711586D01*
X214811959Y-92714920D01*
X214830523Y-92715143D01*
X214883706Y-92713150D01*
X214938264Y-92705791D01*
X214990742Y-92690739D01*
X215037190Y-92665340D01*
X215045701Y-92658478D01*
X215080219Y-92619080D01*
X215101953Y-92571715D01*
X215110583Y-92522275D01*
X215111158Y-92504361D01*
X215106096Y-92451489D01*
X215088598Y-92401171D01*
X215058602Y-92359726D01*
X215047166Y-92349023D01*
X215002996Y-92322458D01*
X214950240Y-92306143D01*
X214893660Y-92297503D01*
X214837423Y-92294283D01*
X214817090Y-92294068D01*
X214767344Y-92296086D01*
X214715993Y-92303541D01*
X214666122Y-92318787D01*
X214621256Y-92344515D01*
X214612903Y-92351465D01*
X214578899Y-92391321D01*
X214557490Y-92439144D01*
X214548989Y-92488996D01*
X214548422Y-92507048D01*
X214313962Y-92507048D01*
X214313949Y-92506315D01*
X214316041Y-92445285D01*
X214322315Y-92387857D01*
X214332771Y-92334032D01*
X214347411Y-92283810D01*
X214366232Y-92237190D01*
X214395642Y-92183981D01*
X214431587Y-92136401D01*
X214447794Y-92118946D01*
X214492162Y-92079754D01*
X214541766Y-92047204D01*
X214596605Y-92021298D01*
X214644245Y-92005355D01*
X214695237Y-91993664D01*
X214749579Y-91986224D01*
X214807272Y-91983035D01*
X214822219Y-91982903D01*
X214875335Y-91984357D01*
G37*
G36*
X214329581Y-91822435D02*
G01*
X214329581Y-90988590D01*
X214564054Y-90988590D01*
X214564054Y-91510537D01*
X214704738Y-91510537D01*
X214704738Y-91026203D01*
X214907948Y-91026203D01*
X214907948Y-91510537D01*
X215095526Y-91510537D01*
X215095526Y-90973447D01*
X215330000Y-90973447D01*
X215330000Y-91822435D01*
X214329581Y-91822435D01*
G37*
G36*
X214873796Y-90037052D02*
G01*
X214935681Y-90041536D01*
X214993047Y-90049607D01*
X215045895Y-90061266D01*
X215094225Y-90076512D01*
X215148283Y-90100614D01*
X215195280Y-90130322D01*
X215220090Y-90150837D01*
X215256257Y-90188804D01*
X215286293Y-90231113D01*
X215310200Y-90277762D01*
X215327977Y-90328753D01*
X215339624Y-90384084D01*
X215345141Y-90443757D01*
X215345631Y-90468841D01*
X215344264Y-90518983D01*
X215339352Y-90570335D01*
X215329557Y-90620516D01*
X215317055Y-90658374D01*
X215294123Y-90703320D01*
X215264958Y-90742783D01*
X215233035Y-90773900D01*
X215191825Y-90802958D01*
X215144092Y-90826994D01*
X215095038Y-90844487D01*
X215064263Y-90566294D01*
X215110472Y-90550342D01*
X215137048Y-90529169D01*
X215156740Y-90483511D01*
X215158053Y-90465422D01*
X215146846Y-90415568D01*
X215113228Y-90375550D01*
X215090153Y-90360397D01*
X215042512Y-90343068D01*
X214991259Y-90332531D01*
X214934942Y-90324739D01*
X214878150Y-90319120D01*
X214913082Y-90353890D01*
X214943158Y-90392610D01*
X214960216Y-90422191D01*
X214977914Y-90471532D01*
X214985473Y-90523041D01*
X214986106Y-90544312D01*
X214982808Y-90593568D01*
X214970627Y-90647278D01*
X214949469Y-90696945D01*
X214919336Y-90742567D01*
X214892316Y-90772679D01*
X214848911Y-90808939D01*
X214800761Y-90836292D01*
X214747865Y-90854740D01*
X214698749Y-90863464D01*
X214655157Y-90865736D01*
X214601456Y-90861988D01*
X214550537Y-90850743D01*
X214502400Y-90832003D01*
X214476859Y-90818353D01*
X214434651Y-90788879D01*
X214398703Y-90753764D01*
X214369015Y-90713007D01*
X214355226Y-90687927D01*
X214335273Y-90637736D01*
X214323019Y-90587509D01*
X214315924Y-90532001D01*
X214313949Y-90479099D01*
X214314225Y-90470795D01*
X214501528Y-90470795D01*
X214510626Y-90521781D01*
X214537920Y-90563363D01*
X214580088Y-90589660D01*
X214629656Y-90599427D01*
X214647341Y-90600000D01*
X214697601Y-90594641D01*
X214743910Y-90574846D01*
X214759692Y-90561898D01*
X214788818Y-90519033D01*
X214798489Y-90470196D01*
X214798527Y-90466643D01*
X214790262Y-90415806D01*
X214765468Y-90373664D01*
X214760914Y-90368702D01*
X214718513Y-90340476D01*
X214670219Y-90329993D01*
X214653203Y-90329378D01*
X214604224Y-90335183D01*
X214558022Y-90356628D01*
X214541828Y-90370655D01*
X214512902Y-90413095D01*
X214501685Y-90463477D01*
X214501528Y-90470795D01*
X214314225Y-90470795D01*
X214315761Y-90424508D01*
X214321196Y-90374124D01*
X214332117Y-90320661D01*
X214347971Y-90272925D01*
X214365484Y-90236566D01*
X214394916Y-90193198D01*
X214431919Y-90154439D01*
X214470507Y-90124308D01*
X214514892Y-90097705D01*
X214528639Y-90090753D01*
X214581027Y-90069435D01*
X214631419Y-90055330D01*
X214686877Y-90045072D01*
X214736963Y-90039462D01*
X214790566Y-90036524D01*
X214824417Y-90036043D01*
X214873796Y-90037052D01*
G37*
G36*
X214989769Y-89932728D02*
G01*
X214970474Y-89636706D01*
X215021547Y-89626745D01*
X215068544Y-89608005D01*
X215084535Y-89597627D01*
X215120551Y-89559670D01*
X215141617Y-89511958D01*
X215147794Y-89460118D01*
X215142715Y-89411021D01*
X215122519Y-89364539D01*
X215117020Y-89357536D01*
X215076945Y-89327354D01*
X215045457Y-89321388D01*
X214998383Y-89336220D01*
X214976580Y-89355826D01*
X214952339Y-89398604D01*
X214936217Y-89445788D01*
X214922341Y-89499796D01*
X214918939Y-89515073D01*
X214907169Y-89564410D01*
X214891127Y-89620929D01*
X214873605Y-89671724D01*
X214854605Y-89716794D01*
X214829852Y-89763323D01*
X214798283Y-89807187D01*
X214763277Y-89841448D01*
X214718405Y-89870299D01*
X214668343Y-89888159D01*
X214613091Y-89895029D01*
X214605819Y-89895115D01*
X214553936Y-89889804D01*
X214504072Y-89873873D01*
X214460495Y-89850174D01*
X214420615Y-89817650D01*
X214386459Y-89776252D01*
X214360613Y-89731408D01*
X214353028Y-89714863D01*
X214335931Y-89665496D01*
X214324978Y-89615437D01*
X214317766Y-89558974D01*
X214314560Y-89505479D01*
X214313949Y-89467201D01*
X214315679Y-89409075D01*
X214320866Y-89355446D01*
X214329513Y-89306312D01*
X214344453Y-89253287D01*
X214364374Y-89206735D01*
X214384780Y-89172889D01*
X214419765Y-89132470D01*
X214462745Y-89099906D01*
X214513718Y-89075195D01*
X214563773Y-89060266D01*
X214609972Y-89052233D01*
X214626580Y-89345568D01*
X214579281Y-89359326D01*
X214537226Y-89387880D01*
X214531325Y-89394661D01*
X214508977Y-89439174D01*
X214501644Y-89489844D01*
X214501528Y-89497976D01*
X214507938Y-89548073D01*
X214524242Y-89579797D01*
X214565697Y-89605843D01*
X214579441Y-89607152D01*
X214622184Y-89584438D01*
X214644440Y-89537066D01*
X214657520Y-89485231D01*
X214658576Y-89480146D01*
X214669407Y-89430969D01*
X214683009Y-89374586D01*
X214696684Y-89323855D01*
X214713187Y-89270441D01*
X214732571Y-89218412D01*
X214746503Y-89188032D01*
X214773208Y-89142123D01*
X214806868Y-89100087D01*
X214844725Y-89067495D01*
X214856901Y-89059560D01*
X214904086Y-89036616D01*
X214954965Y-89023195D01*
X215004424Y-89019260D01*
X215057120Y-89023510D01*
X215107498Y-89036261D01*
X215155558Y-89057513D01*
X215181256Y-89072993D01*
X215223639Y-89106462D01*
X215259841Y-89146693D01*
X215286830Y-89188130D01*
X215303866Y-89222714D01*
X215322138Y-89273852D01*
X215333844Y-89323758D01*
X215341552Y-89378478D01*
X215344978Y-89429214D01*
X215345631Y-89465003D01*
X215344063Y-89526770D01*
X215339357Y-89583598D01*
X215331515Y-89635488D01*
X215317300Y-89693407D01*
X215298184Y-89743609D01*
X215268775Y-89793666D01*
X215245247Y-89820865D01*
X215205605Y-89854937D01*
X215162151Y-89882964D01*
X215114885Y-89904945D01*
X215063805Y-89920882D01*
X215008914Y-89930774D01*
X214989769Y-89932728D01*
G37*
G36*
X215330000Y-88199337D02*
G01*
X215158053Y-88248674D01*
X215158053Y-88603070D01*
X215330000Y-88651919D01*
X215330000Y-88969923D01*
X214329581Y-88591591D01*
X214329581Y-88425261D01*
X214585059Y-88425261D01*
X214939211Y-88535903D01*
X214939211Y-88313886D01*
X214585059Y-88425261D01*
X214329581Y-88425261D01*
X214329581Y-88252093D01*
X215330000Y-87873761D01*
X215330000Y-88199337D01*
G37*
G36*
X214329581Y-87172540D02*
G01*
X214329581Y-86862107D01*
X214924801Y-86862107D01*
X214973762Y-86864309D01*
X215026350Y-86871923D01*
X215077031Y-86884975D01*
X215091863Y-86889951D01*
X215139108Y-86910430D01*
X215182538Y-86937063D01*
X215222151Y-86969850D01*
X215229616Y-86977145D01*
X215262970Y-87014812D01*
X215291726Y-87057568D01*
X215312170Y-87101709D01*
X215326809Y-87149398D01*
X215337266Y-87201605D01*
X215342984Y-87250992D01*
X215345500Y-87303839D01*
X215345631Y-87319574D01*
X215344419Y-87371704D01*
X215341213Y-87421850D01*
X215336004Y-87474620D01*
X215335373Y-87480041D01*
X215327006Y-87531466D01*
X215313284Y-87581642D01*
X215294829Y-87625122D01*
X215268542Y-87667528D01*
X215235111Y-87707187D01*
X215208855Y-87732100D01*
X215169998Y-87761740D01*
X215126687Y-87785846D01*
X215093572Y-87798290D01*
X215041711Y-87812222D01*
X214993289Y-87821594D01*
X214943520Y-87826660D01*
X214924801Y-87827110D01*
X214329581Y-87827110D01*
X214329581Y-87516678D01*
X214937745Y-87516678D01*
X214989616Y-87511281D01*
X215036591Y-87493083D01*
X215065240Y-87471004D01*
X215094970Y-87428050D01*
X215108961Y-87378024D01*
X215111158Y-87344242D01*
X215105819Y-87293096D01*
X215087815Y-87246648D01*
X215065973Y-87218213D01*
X215023012Y-87188641D01*
X214972265Y-87174725D01*
X214937745Y-87172540D01*
X214329581Y-87172540D01*
G37*
G36*
X214871864Y-85418471D02*
G01*
X214934077Y-85422096D01*
X214991741Y-85428622D01*
X215044856Y-85438048D01*
X215093423Y-85450375D01*
X215147733Y-85469862D01*
X215194936Y-85493880D01*
X215219846Y-85510467D01*
X215262593Y-85549977D01*
X215291460Y-85590091D01*
X215314185Y-85636741D01*
X215330768Y-85689925D01*
X215341209Y-85749646D01*
X215345140Y-85802127D01*
X215345631Y-85829937D01*
X215343714Y-85883176D01*
X215337964Y-85931764D01*
X215326698Y-85981597D01*
X215308040Y-86030397D01*
X215305575Y-86035345D01*
X215279970Y-86077205D01*
X215248491Y-86114583D01*
X215211139Y-86147478D01*
X215187850Y-86163817D01*
X215140784Y-86188844D01*
X215092904Y-86206237D01*
X215043082Y-86219198D01*
X215037152Y-86220481D01*
X214988029Y-86229350D01*
X214936402Y-86235685D01*
X214882272Y-86239486D01*
X214832854Y-86240733D01*
X214825638Y-86240753D01*
X214773833Y-86239845D01*
X214725028Y-86237121D01*
X214664624Y-86230664D01*
X214609555Y-86220978D01*
X214559821Y-86208064D01*
X214505156Y-86187381D01*
X214458827Y-86161653D01*
X214427766Y-86137438D01*
X214389086Y-86094809D01*
X214362966Y-86053485D01*
X214342404Y-86006891D01*
X214327398Y-85955025D01*
X214317951Y-85897888D01*
X214314394Y-85848383D01*
X214314112Y-85831891D01*
X214501528Y-85831891D01*
X214513016Y-85881921D01*
X214547481Y-85919294D01*
X214571137Y-85932274D01*
X214619662Y-85947151D01*
X214670361Y-85955355D01*
X214722839Y-85960044D01*
X214772934Y-85962298D01*
X214828813Y-85963049D01*
X214885255Y-85962220D01*
X214935817Y-85959734D01*
X214988731Y-85954562D01*
X215039763Y-85945511D01*
X215088443Y-85929099D01*
X215130861Y-85899309D01*
X215155605Y-85853615D01*
X215158053Y-85830425D01*
X215146508Y-85781691D01*
X215128499Y-85756664D01*
X215087448Y-85728134D01*
X215039149Y-85711678D01*
X215035198Y-85710746D01*
X214982916Y-85702264D01*
X214927560Y-85697943D01*
X214876678Y-85696211D01*
X214836140Y-85695847D01*
X214777412Y-85696676D01*
X214725029Y-85699163D01*
X214670544Y-85704335D01*
X214618525Y-85713386D01*
X214569916Y-85729797D01*
X214528242Y-85760068D01*
X214504800Y-85803714D01*
X214501528Y-85831891D01*
X214314112Y-85831891D01*
X214313949Y-85822365D01*
X214315920Y-85768091D01*
X214321832Y-85719574D01*
X214334410Y-85668095D01*
X214338862Y-85655547D01*
X214359493Y-85609889D01*
X214386649Y-85568178D01*
X214403342Y-85549057D01*
X214441578Y-85514224D01*
X214484374Y-85485587D01*
X214487117Y-85484089D01*
X214534684Y-85462534D01*
X214582215Y-85447581D01*
X214589455Y-85445743D01*
X214638744Y-85434798D01*
X214688945Y-85426542D01*
X214740057Y-85420974D01*
X214792081Y-85418094D01*
X214822219Y-85417655D01*
X214871864Y-85418471D01*
G37*
G36*
X214329581Y-85302861D02*
G01*
X214329581Y-84486113D01*
X214516915Y-84486113D01*
X214553285Y-84524810D01*
X214590772Y-84561034D01*
X214629375Y-84594785D01*
X214669094Y-84626064D01*
X214709929Y-84654869D01*
X214723789Y-84663921D01*
X214766754Y-84690058D01*
X214811234Y-84714430D01*
X214857229Y-84737037D01*
X214904738Y-84757879D01*
X214953762Y-84776955D01*
X215004301Y-84794267D01*
X215024940Y-84800697D01*
X215074957Y-84814708D01*
X215128289Y-84826881D01*
X215184935Y-84837216D01*
X215234673Y-84844426D01*
X215286711Y-84850359D01*
X215330000Y-84854187D01*
X215330000Y-85133112D01*
X215269992Y-85124281D01*
X215212458Y-85114275D01*
X215157396Y-85103093D01*
X215104808Y-85090736D01*
X215054692Y-85077203D01*
X215007049Y-85062495D01*
X214950974Y-85042457D01*
X214919183Y-85029553D01*
X214866721Y-85005409D01*
X214813138Y-84977246D01*
X214769464Y-84951822D01*
X214725073Y-84923825D01*
X214679964Y-84893257D01*
X214634138Y-84860116D01*
X214587595Y-84824403D01*
X214564054Y-84805582D01*
X214564054Y-85302861D01*
X214329581Y-85302861D01*
G37*
G36*
X214313949Y-84180321D02*
G01*
X214313949Y-84037438D01*
X215345631Y-84290230D01*
X215345631Y-84431646D01*
X214313949Y-84180321D01*
G37*
G36*
X215330000Y-83166957D02*
G01*
X215330000Y-84006420D01*
X215275681Y-83997310D01*
X215222789Y-83982591D01*
X215171323Y-83962261D01*
X215121283Y-83936322D01*
X215093328Y-83918981D01*
X215050409Y-83887004D01*
X215012741Y-83853483D01*
X214973344Y-83813712D01*
X214940581Y-83777396D01*
X214906711Y-83737081D01*
X214871735Y-83692766D01*
X214835652Y-83644452D01*
X214803475Y-83601415D01*
X214769798Y-83559107D01*
X214736406Y-83521173D01*
X214699364Y-83487159D01*
X214656703Y-83462440D01*
X214610949Y-83452721D01*
X214561737Y-83464690D01*
X214533524Y-83486671D01*
X214507652Y-83530428D01*
X214501528Y-83572156D01*
X214510198Y-83620943D01*
X214536210Y-83659839D01*
X214580088Y-83686783D01*
X214631883Y-83701306D01*
X214657843Y-83705512D01*
X214634640Y-83985903D01*
X214585518Y-83977328D01*
X214535475Y-83964322D01*
X214486950Y-83945603D01*
X214450725Y-83925331D01*
X214412386Y-83894347D01*
X214380105Y-83856351D01*
X214353882Y-83811343D01*
X214349364Y-83801500D01*
X214332245Y-83751568D01*
X214321731Y-83699010D01*
X214316163Y-83646711D01*
X214314088Y-83597195D01*
X214313949Y-83579727D01*
X214315117Y-83526708D01*
X214319431Y-83470668D01*
X214326925Y-83420893D01*
X214339381Y-83371678D01*
X214347166Y-83350139D01*
X214371233Y-83302154D01*
X214402216Y-83261086D01*
X214440117Y-83226935D01*
X214448527Y-83220935D01*
X214492891Y-83196076D01*
X214540500Y-83180425D01*
X214591352Y-83173980D01*
X214601912Y-83173796D01*
X214651989Y-83178065D01*
X214700830Y-83190875D01*
X214748434Y-83212223D01*
X214774347Y-83227773D01*
X214816509Y-83260273D01*
X214855054Y-83297751D01*
X214889321Y-83336591D01*
X214924721Y-83381631D01*
X214955087Y-83423900D01*
X214984648Y-83467012D01*
X215013381Y-83507687D01*
X215035443Y-83536985D01*
X215067700Y-83574246D01*
X215095526Y-83603907D01*
X215095526Y-83166957D01*
X215330000Y-83166957D01*
G37*
G36*
X214329581Y-82939567D02*
G01*
X214329581Y-82275226D01*
X214564054Y-82275226D01*
X214564054Y-82725122D01*
X214705471Y-82749302D01*
X214684588Y-82702896D01*
X214669811Y-82656978D01*
X214660473Y-82608726D01*
X214657843Y-82566608D01*
X214661029Y-82511922D01*
X214670586Y-82461255D01*
X214686514Y-82414607D01*
X214713150Y-82365263D01*
X214748457Y-82321388D01*
X214790345Y-82284653D01*
X214836721Y-82256941D01*
X214887584Y-82238251D01*
X214942936Y-82228584D01*
X214976580Y-82227110D01*
X215030386Y-82230955D01*
X215082995Y-82242489D01*
X215134405Y-82261713D01*
X215162449Y-82275715D01*
X215204398Y-82302429D01*
X215245313Y-82338540D01*
X215279582Y-82381066D01*
X215298736Y-82412979D01*
X215319253Y-82460546D01*
X215333907Y-82514340D01*
X215341922Y-82566519D01*
X215345448Y-82623467D01*
X215345631Y-82640614D01*
X215344105Y-82694426D01*
X215339526Y-82743757D01*
X215330858Y-82793311D01*
X215326336Y-82811584D01*
X215310819Y-82857937D01*
X215288757Y-82902776D01*
X215268695Y-82932484D01*
X215235886Y-82969705D01*
X215196856Y-83002937D01*
X215181988Y-83013084D01*
X215138547Y-83036553D01*
X215091435Y-83055141D01*
X215060844Y-83064619D01*
X215033000Y-82781542D01*
X215081032Y-82767283D01*
X215122187Y-82738050D01*
X215126301Y-82733426D01*
X215151076Y-82689135D01*
X215158053Y-82643300D01*
X215149359Y-82593029D01*
X215123277Y-82551666D01*
X215118485Y-82546824D01*
X215076431Y-82520778D01*
X215028551Y-82510062D01*
X215000516Y-82508722D01*
X214950351Y-82513282D01*
X214904162Y-82530430D01*
X214882791Y-82547313D01*
X214855968Y-82588897D01*
X214845750Y-82637878D01*
X214845422Y-82649651D01*
X214852386Y-82699281D01*
X214863251Y-82728053D01*
X214890863Y-82769329D01*
X214909902Y-82789846D01*
X214879127Y-83027983D01*
X214329581Y-82939567D01*
G37*
G36*
X102414480Y-85757278D02*
G01*
X102497599Y-85768441D01*
X102571753Y-85787976D01*
X102646937Y-85821347D01*
X102709919Y-85866114D01*
X102717920Y-85873440D01*
X102767170Y-85930336D01*
X102804323Y-85996839D01*
X102829380Y-86072949D01*
X102841230Y-86145832D01*
X102844316Y-86211960D01*
X102839473Y-86293250D01*
X102824944Y-86367585D01*
X102795752Y-86445518D01*
X102753377Y-86513985D01*
X102706563Y-86565136D01*
X102639514Y-86614671D01*
X102570992Y-86647446D01*
X102492270Y-86671283D01*
X102418875Y-86684318D01*
X102338397Y-86691147D01*
X102286709Y-86692264D01*
X102031353Y-86692264D01*
X102031353Y-87255000D01*
X101562407Y-87255000D01*
X101562407Y-86059187D01*
X102031353Y-86059187D01*
X102031353Y-86387449D01*
X102145659Y-86387449D01*
X102222281Y-86383012D01*
X102298354Y-86363980D01*
X102335436Y-86342020D01*
X102379575Y-86282385D01*
X102390024Y-86224783D01*
X102373233Y-86150048D01*
X102342397Y-86107547D01*
X102274253Y-86071277D01*
X102195736Y-86059942D01*
X102164344Y-86059187D01*
X102031353Y-86059187D01*
X101562407Y-86059187D01*
X101562407Y-85754371D01*
X102338367Y-85754371D01*
X102414480Y-85757278D01*
G37*
G36*
X102924183Y-85754371D02*
G01*
X103367484Y-85754371D01*
X103527219Y-86592613D01*
X103759860Y-85754371D01*
X104202062Y-85754371D01*
X104435802Y-86592613D01*
X104595537Y-85754371D01*
X105036639Y-85754371D01*
X104703614Y-87255000D01*
X104246392Y-87255000D01*
X103981510Y-86310146D01*
X103717728Y-87255000D01*
X103260139Y-87255000D01*
X102924183Y-85754371D01*
G37*
G36*
X106041509Y-85755672D02*
G01*
X106122961Y-85760478D01*
X106204071Y-85770307D01*
X106280047Y-85786893D01*
X106294734Y-85791374D01*
X106368081Y-85824051D01*
X106430952Y-85871707D01*
X106479016Y-85928028D01*
X106516110Y-85994568D01*
X106539466Y-86069622D01*
X106548739Y-86144452D01*
X106549357Y-86170928D01*
X106544098Y-86245646D01*
X106526164Y-86320067D01*
X106495502Y-86386350D01*
X106449718Y-86449427D01*
X106392599Y-86502922D01*
X106348224Y-86533262D01*
X106277424Y-86566051D01*
X106203578Y-86588107D01*
X106184459Y-86592613D01*
X106256632Y-86620731D01*
X106306092Y-86648667D01*
X106357543Y-86701148D01*
X106380464Y-86729267D01*
X106425376Y-86789288D01*
X106446043Y-86823789D01*
X106671723Y-87255000D01*
X106144159Y-87255000D01*
X105895031Y-86795945D01*
X105855391Y-86729968D01*
X105810401Y-86680174D01*
X105742051Y-86650264D01*
X105696095Y-86645369D01*
X105654696Y-86645369D01*
X105654696Y-87255000D01*
X105186116Y-87255000D01*
X105186116Y-86059187D01*
X105654696Y-86059187D01*
X105654696Y-86364002D01*
X105851434Y-86364002D01*
X105928439Y-86353403D01*
X105975265Y-86343485D01*
X106041523Y-86307685D01*
X106051102Y-86296591D01*
X106079381Y-86227419D01*
X106080411Y-86209396D01*
X106064008Y-86135137D01*
X106033883Y-86098021D01*
X105961778Y-86067720D01*
X105883116Y-86059528D01*
X105859860Y-86059187D01*
X105654696Y-86059187D01*
X105186116Y-86059187D01*
X105186116Y-85754371D01*
X105963907Y-85754371D01*
X106041509Y-85755672D01*
G37*
G36*
X100273272Y-97434654D02*
G01*
X100717306Y-97405711D01*
X100732247Y-97482321D01*
X100760357Y-97552817D01*
X100775924Y-97576803D01*
X100832860Y-97630827D01*
X100904428Y-97662425D01*
X100982187Y-97671692D01*
X101055833Y-97664073D01*
X101125557Y-97633779D01*
X101136060Y-97625530D01*
X101181333Y-97565417D01*
X101190282Y-97518185D01*
X101168035Y-97447575D01*
X101138625Y-97414870D01*
X101074458Y-97378508D01*
X101003682Y-97354326D01*
X100922670Y-97333512D01*
X100899755Y-97328408D01*
X100825750Y-97310754D01*
X100740971Y-97286690D01*
X100664778Y-97260408D01*
X100597173Y-97231907D01*
X100527380Y-97194778D01*
X100461584Y-97147424D01*
X100410192Y-97094916D01*
X100366916Y-97027608D01*
X100340125Y-96952515D01*
X100329821Y-96869637D01*
X100329692Y-96858729D01*
X100337658Y-96780904D01*
X100361555Y-96706109D01*
X100397103Y-96640743D01*
X100445890Y-96580922D01*
X100507986Y-96529689D01*
X100575252Y-96490920D01*
X100600069Y-96479542D01*
X100674121Y-96453897D01*
X100749209Y-96437468D01*
X100833904Y-96426649D01*
X100914147Y-96421840D01*
X100971563Y-96420924D01*
X101058751Y-96423518D01*
X101139196Y-96431300D01*
X101212896Y-96444269D01*
X101292434Y-96466680D01*
X101362261Y-96496562D01*
X101413032Y-96527170D01*
X101473659Y-96579648D01*
X101522506Y-96644117D01*
X101559572Y-96720578D01*
X101581966Y-96795660D01*
X101594016Y-96864958D01*
X101154012Y-96889870D01*
X101133375Y-96818922D01*
X101090545Y-96755839D01*
X101080373Y-96746988D01*
X101013603Y-96713466D01*
X100937598Y-96702466D01*
X100925401Y-96702292D01*
X100850255Y-96711908D01*
X100802669Y-96736364D01*
X100763599Y-96798546D01*
X100761636Y-96819162D01*
X100795708Y-96883276D01*
X100866765Y-96916660D01*
X100944517Y-96936280D01*
X100952145Y-96937864D01*
X101025911Y-96954110D01*
X101110486Y-96974514D01*
X101186581Y-96995026D01*
X101266703Y-97019781D01*
X101344747Y-97048857D01*
X101390317Y-97069755D01*
X101459180Y-97109812D01*
X101522235Y-97160302D01*
X101571121Y-97217088D01*
X101583025Y-97235352D01*
X101617441Y-97306129D01*
X101637571Y-97382447D01*
X101643475Y-97456636D01*
X101637099Y-97535680D01*
X101617972Y-97611247D01*
X101586094Y-97683337D01*
X101562875Y-97721884D01*
X101512672Y-97785459D01*
X101452326Y-97839761D01*
X101390170Y-97880245D01*
X101338293Y-97905799D01*
X101261586Y-97933207D01*
X101186728Y-97950766D01*
X101104647Y-97962329D01*
X101028544Y-97967468D01*
X100974860Y-97968447D01*
X100882210Y-97966094D01*
X100796967Y-97959036D01*
X100719132Y-97947272D01*
X100632255Y-97925950D01*
X100556951Y-97897276D01*
X100481865Y-97853162D01*
X100441067Y-97817871D01*
X100389959Y-97758408D01*
X100347919Y-97693227D01*
X100314946Y-97622327D01*
X100291041Y-97545708D01*
X100276203Y-97463371D01*
X100273272Y-97434654D01*
G37*
G36*
X101763642Y-96444371D02*
G01*
X103182571Y-96444371D01*
X103182571Y-96796081D01*
X102706664Y-96796081D01*
X102706664Y-97945000D01*
X102239916Y-97945000D01*
X102239916Y-96796081D01*
X101763642Y-96796081D01*
X101763642Y-96444371D01*
G37*
G36*
X104734856Y-97945000D02*
G01*
X104246493Y-97945000D01*
X104172487Y-97687079D01*
X103640893Y-97687079D01*
X103567620Y-97945000D01*
X103090614Y-97945000D01*
X103312293Y-97358817D01*
X103741643Y-97358817D01*
X104074668Y-97358817D01*
X103907606Y-96827588D01*
X103741643Y-97358817D01*
X103312293Y-97358817D01*
X103658112Y-96444371D01*
X104167358Y-96444371D01*
X104734856Y-97945000D01*
G37*
G36*
X104625680Y-96444371D02*
G01*
X106044609Y-96444371D01*
X106044609Y-96796081D01*
X105568702Y-96796081D01*
X105568702Y-97945000D01*
X105101953Y-97945000D01*
X105101953Y-96796081D01*
X104625680Y-96796081D01*
X104625680Y-96444371D01*
G37*
G36*
X107130146Y-96420924D02*
G01*
X107130146Y-97945000D01*
X106705530Y-97945000D01*
X106705530Y-96947023D01*
X106641831Y-96993971D01*
X106579420Y-97034979D01*
X106512256Y-97073229D01*
X106506228Y-97076350D01*
X106434227Y-97109877D01*
X106358779Y-97139529D01*
X106282738Y-97165544D01*
X106264794Y-97171238D01*
X106264794Y-96819528D01*
X106341790Y-96793146D01*
X106412038Y-96764831D01*
X106485463Y-96729356D01*
X106549702Y-96691251D01*
X106597452Y-96656496D01*
X106653415Y-96605915D01*
X106702965Y-96549793D01*
X106746105Y-96488129D01*
X106782833Y-96420924D01*
X107130146Y-96420924D01*
G37*
G36*
X109223272Y-97434654D02*
G01*
X109667306Y-97405711D01*
X109682247Y-97482321D01*
X109710357Y-97552817D01*
X109725924Y-97576803D01*
X109782860Y-97630827D01*
X109854428Y-97662425D01*
X109932187Y-97671692D01*
X110005833Y-97664073D01*
X110075557Y-97633779D01*
X110086060Y-97625530D01*
X110131333Y-97565417D01*
X110140282Y-97518185D01*
X110118035Y-97447575D01*
X110088625Y-97414870D01*
X110024458Y-97378508D01*
X109953682Y-97354326D01*
X109872670Y-97333512D01*
X109849755Y-97328408D01*
X109775750Y-97310754D01*
X109690971Y-97286690D01*
X109614778Y-97260408D01*
X109547173Y-97231907D01*
X109477380Y-97194778D01*
X109411584Y-97147424D01*
X109360192Y-97094916D01*
X109316916Y-97027608D01*
X109290125Y-96952515D01*
X109279821Y-96869637D01*
X109279692Y-96858729D01*
X109287658Y-96780904D01*
X109311555Y-96706109D01*
X109347103Y-96640743D01*
X109395890Y-96580922D01*
X109457986Y-96529689D01*
X109525252Y-96490920D01*
X109550069Y-96479542D01*
X109624121Y-96453897D01*
X109699209Y-96437468D01*
X109783904Y-96426649D01*
X109864147Y-96421840D01*
X109921563Y-96420924D01*
X110008751Y-96423518D01*
X110089196Y-96431300D01*
X110162896Y-96444269D01*
X110242434Y-96466680D01*
X110312261Y-96496562D01*
X110363032Y-96527170D01*
X110423659Y-96579648D01*
X110472506Y-96644117D01*
X110509572Y-96720578D01*
X110531966Y-96795660D01*
X110544016Y-96864958D01*
X110104012Y-96889870D01*
X110083375Y-96818922D01*
X110040545Y-96755839D01*
X110030373Y-96746988D01*
X109963603Y-96713466D01*
X109887598Y-96702466D01*
X109875401Y-96702292D01*
X109800255Y-96711908D01*
X109752669Y-96736364D01*
X109713599Y-96798546D01*
X109711636Y-96819162D01*
X109745708Y-96883276D01*
X109816765Y-96916660D01*
X109894517Y-96936280D01*
X109902145Y-96937864D01*
X109975911Y-96954110D01*
X110060486Y-96974514D01*
X110136581Y-96995026D01*
X110216703Y-97019781D01*
X110294747Y-97048857D01*
X110340317Y-97069755D01*
X110409180Y-97109812D01*
X110472235Y-97160302D01*
X110521121Y-97217088D01*
X110533025Y-97235352D01*
X110567441Y-97306129D01*
X110587571Y-97382447D01*
X110593475Y-97456636D01*
X110587099Y-97535680D01*
X110567972Y-97611247D01*
X110536094Y-97683337D01*
X110512875Y-97721884D01*
X110462672Y-97785459D01*
X110402326Y-97839761D01*
X110340170Y-97880245D01*
X110288293Y-97905799D01*
X110211586Y-97933207D01*
X110136728Y-97950766D01*
X110054647Y-97962329D01*
X109978544Y-97967468D01*
X109924860Y-97968447D01*
X109832210Y-97966094D01*
X109746967Y-97959036D01*
X109669132Y-97947272D01*
X109582255Y-97925950D01*
X109506951Y-97897276D01*
X109431865Y-97853162D01*
X109391067Y-97817871D01*
X109339959Y-97758408D01*
X109297919Y-97693227D01*
X109264946Y-97622327D01*
X109241041Y-97545708D01*
X109226203Y-97463371D01*
X109223272Y-97434654D01*
G37*
G36*
X110713642Y-96444371D02*
G01*
X112132571Y-96444371D01*
X112132571Y-96796081D01*
X111656664Y-96796081D01*
X111656664Y-97945000D01*
X111189916Y-97945000D01*
X111189916Y-96796081D01*
X110713642Y-96796081D01*
X110713642Y-96444371D01*
G37*
G36*
X113684856Y-97945000D02*
G01*
X113196493Y-97945000D01*
X113122487Y-97687079D01*
X112590893Y-97687079D01*
X112517620Y-97945000D01*
X112040614Y-97945000D01*
X112262293Y-97358817D01*
X112691643Y-97358817D01*
X113024668Y-97358817D01*
X112857606Y-96827588D01*
X112691643Y-97358817D01*
X112262293Y-97358817D01*
X112608112Y-96444371D01*
X113117358Y-96444371D01*
X113684856Y-97945000D01*
G37*
G36*
X113575680Y-96444371D02*
G01*
X114994609Y-96444371D01*
X114994609Y-96796081D01*
X114518702Y-96796081D01*
X114518702Y-97945000D01*
X114051953Y-97945000D01*
X114051953Y-96796081D01*
X113575680Y-96796081D01*
X113575680Y-96444371D01*
G37*
G36*
X116357484Y-97945000D02*
G01*
X115098290Y-97945000D01*
X115111954Y-97863522D01*
X115134033Y-97784184D01*
X115164527Y-97706985D01*
X115203436Y-97631924D01*
X115229448Y-97589993D01*
X115277413Y-97525614D01*
X115327695Y-97469112D01*
X115387351Y-97410016D01*
X115441825Y-97360872D01*
X115502298Y-97310067D01*
X115568770Y-97257603D01*
X115641242Y-97203478D01*
X115705796Y-97155213D01*
X115769259Y-97104698D01*
X115826160Y-97054609D01*
X115877180Y-96999047D01*
X115914259Y-96935055D01*
X115928838Y-96866423D01*
X115910885Y-96792606D01*
X115877913Y-96750286D01*
X115812277Y-96711478D01*
X115749685Y-96702292D01*
X115676504Y-96715298D01*
X115618161Y-96754316D01*
X115577744Y-96820132D01*
X115555960Y-96897825D01*
X115549651Y-96936765D01*
X115129064Y-96901960D01*
X115141927Y-96828277D01*
X115161436Y-96753213D01*
X115189515Y-96680425D01*
X115219923Y-96626088D01*
X115266398Y-96568579D01*
X115323392Y-96520157D01*
X115390905Y-96480823D01*
X115405669Y-96474047D01*
X115480567Y-96448367D01*
X115559404Y-96432597D01*
X115637853Y-96424244D01*
X115712127Y-96421132D01*
X115738328Y-96420924D01*
X115817858Y-96422676D01*
X115901917Y-96429147D01*
X115976579Y-96440387D01*
X116050402Y-96459072D01*
X116082711Y-96470750D01*
X116154688Y-96506849D01*
X116216290Y-96553325D01*
X116267517Y-96610176D01*
X116276517Y-96622791D01*
X116313805Y-96689337D01*
X116337282Y-96760750D01*
X116346949Y-96837028D01*
X116347226Y-96852868D01*
X116340821Y-96927984D01*
X116321607Y-97001245D01*
X116289584Y-97072652D01*
X116266259Y-97111521D01*
X116217510Y-97174764D01*
X116161293Y-97232582D01*
X116103032Y-97283982D01*
X116035472Y-97337082D01*
X115972069Y-97382630D01*
X115907401Y-97426973D01*
X115846388Y-97470071D01*
X115802442Y-97503164D01*
X115746551Y-97551551D01*
X115702058Y-97593290D01*
X116357484Y-97593290D01*
X116357484Y-97945000D01*
G37*
G36*
X112056441Y-87245000D02*
G01*
X111568077Y-87245000D01*
X111494071Y-86987079D01*
X110962477Y-86987079D01*
X110889204Y-87245000D01*
X110412198Y-87245000D01*
X110633877Y-86658817D01*
X111063227Y-86658817D01*
X111396252Y-86658817D01*
X111229190Y-86127588D01*
X111063227Y-86658817D01*
X110633877Y-86658817D01*
X110979696Y-85744371D01*
X111488942Y-85744371D01*
X112056441Y-87245000D01*
G37*
G36*
X113164692Y-86635369D02*
G01*
X113573555Y-86753705D01*
X113553324Y-86825555D01*
X113524622Y-86901100D01*
X113489966Y-86969639D01*
X113449357Y-87031171D01*
X113443862Y-87038370D01*
X113390600Y-87098056D01*
X113330557Y-87148932D01*
X113263732Y-87190998D01*
X113223677Y-87210561D01*
X113153610Y-87235886D01*
X113074567Y-87253975D01*
X112998041Y-87263868D01*
X112914643Y-87268221D01*
X112889553Y-87268447D01*
X112814817Y-87266721D01*
X112730942Y-87260092D01*
X112653405Y-87248491D01*
X112570953Y-87228673D01*
X112497127Y-87202089D01*
X112487285Y-87197739D01*
X112421037Y-87161507D01*
X112358857Y-87115002D01*
X112300744Y-87058223D01*
X112254170Y-87001380D01*
X112217641Y-86948244D01*
X112179168Y-86877696D01*
X112148656Y-86800142D01*
X112126103Y-86715580D01*
X112113389Y-86639760D01*
X112106203Y-86559074D01*
X112104434Y-86491022D01*
X112107548Y-86400925D01*
X112116891Y-86316197D01*
X112132461Y-86236839D01*
X112154260Y-86162851D01*
X112182287Y-86094232D01*
X112226079Y-86016009D01*
X112279602Y-85946177D01*
X112303736Y-85920593D01*
X112370061Y-85863071D01*
X112444472Y-85815299D01*
X112526968Y-85777276D01*
X112598787Y-85753877D01*
X112675781Y-85736718D01*
X112757949Y-85725799D01*
X112845293Y-85721119D01*
X112867937Y-85720924D01*
X112954137Y-85723751D01*
X113034361Y-85732230D01*
X113108611Y-85746362D01*
X113189823Y-85770783D01*
X113262432Y-85803343D01*
X113316367Y-85836695D01*
X113374692Y-85884476D01*
X113427118Y-85940989D01*
X113473645Y-86006235D01*
X113514273Y-86080213D01*
X113543623Y-86148532D01*
X113559267Y-86192435D01*
X113147107Y-86283660D01*
X113120664Y-86215220D01*
X113101678Y-86183276D01*
X113048927Y-86128846D01*
X113005690Y-86101577D01*
X112933913Y-86077411D01*
X112879295Y-86072634D01*
X112804602Y-86080442D01*
X112731631Y-86107892D01*
X112670367Y-86155107D01*
X112636029Y-86197564D01*
X112602412Y-86265835D01*
X112582802Y-86344960D01*
X112574523Y-86418082D01*
X112572281Y-86488824D01*
X112574960Y-86575450D01*
X112582998Y-86651232D01*
X112599146Y-86725937D01*
X112630625Y-86800296D01*
X112648485Y-86825512D01*
X112708191Y-86877450D01*
X112782530Y-86907828D01*
X112862808Y-86916737D01*
X112940210Y-86909725D01*
X113010558Y-86885812D01*
X113065408Y-86844930D01*
X113111484Y-86781629D01*
X113141773Y-86714868D01*
X113162732Y-86643892D01*
X113164692Y-86635369D01*
G37*
G36*
X113685296Y-85744371D02*
G01*
X115104225Y-85744371D01*
X115104225Y-86096081D01*
X114628318Y-86096081D01*
X114628318Y-87245000D01*
X114161570Y-87245000D01*
X114161570Y-86096081D01*
X113685296Y-86096081D01*
X113685296Y-85744371D01*
G37*
D13*
%TO.C,G1*%
G36*
X91249720Y-103696715D02*
G01*
X91383539Y-103912085D01*
X91434736Y-104110175D01*
X91377160Y-104322520D01*
X91249720Y-104523635D01*
X91064703Y-104734035D01*
X91126327Y-104511228D01*
X91175132Y-104265035D01*
X91187951Y-104110175D01*
X91163842Y-103881840D01*
X91126327Y-103709123D01*
X91064703Y-103486316D01*
X91249720Y-103696715D01*
G37*
G36*
X90252876Y-103584100D02*
G01*
X90238359Y-103727778D01*
X90190079Y-103837085D01*
X90118504Y-104040109D01*
X90136873Y-104264064D01*
X90231002Y-104533509D01*
X90252264Y-104664180D01*
X90185729Y-104676011D01*
X90072463Y-104573310D01*
X90030210Y-104512437D01*
X89932995Y-104216166D01*
X89953767Y-103891670D01*
X90055246Y-103671067D01*
X90183715Y-103555194D01*
X90252876Y-103584100D01*
G37*
G36*
X89912690Y-103422308D02*
G01*
X89830699Y-103596399D01*
X89717092Y-103850044D01*
X89655769Y-104068092D01*
X89652280Y-104110175D01*
X89693390Y-104302055D01*
X89795609Y-104554945D01*
X89830699Y-104623951D01*
X89932694Y-104838871D01*
X89938738Y-104938611D01*
X89885415Y-104956842D01*
X89772187Y-104883179D01*
X89642374Y-104699692D01*
X89607803Y-104632502D01*
X89505600Y-104266728D01*
X89512059Y-103882809D01*
X89621698Y-103549669D01*
X89703102Y-103434837D01*
X89865590Y-103286224D01*
X89938234Y-103285569D01*
X89912690Y-103422308D01*
G37*
G36*
X91613961Y-103421105D02*
G01*
X91617808Y-103425833D01*
X91812279Y-103798008D01*
X91843080Y-104209754D01*
X91733577Y-104569341D01*
X91604985Y-104786332D01*
X91485501Y-104921409D01*
X91457017Y-104937134D01*
X91354766Y-104948832D01*
X91345614Y-104938552D01*
X91382366Y-104846366D01*
X91474965Y-104652968D01*
X91523859Y-104555789D01*
X91649028Y-104291543D01*
X91688900Y-104104370D01*
X91643597Y-103914897D01*
X91525207Y-103667204D01*
X91419109Y-103418399D01*
X91402750Y-103283462D01*
X91469807Y-103278872D01*
X91613961Y-103421105D01*
G37*
G36*
X91841665Y-103001017D02*
G01*
X92082888Y-103304512D01*
X92236424Y-103709862D01*
X92285999Y-104155604D01*
X92239232Y-104502349D01*
X92159890Y-104710636D01*
X92041793Y-104930894D01*
X91911412Y-105126004D01*
X91795217Y-105258851D01*
X91719676Y-105292318D01*
X91704921Y-105251585D01*
X91745591Y-105112158D01*
X91850290Y-104896420D01*
X91887777Y-104830585D01*
X92036350Y-104438662D01*
X92073450Y-104110175D01*
X92009329Y-103676849D01*
X91887777Y-103389766D01*
X91751387Y-103129843D01*
X91706236Y-102975784D01*
X91754271Y-102943996D01*
X91841665Y-103001017D01*
G37*
G36*
X89647738Y-102990333D02*
G01*
X89614733Y-103114710D01*
X89479680Y-103321134D01*
X89478555Y-103322566D01*
X89355390Y-103552012D01*
X89261597Y-103852879D01*
X89245060Y-103941991D01*
X89224984Y-104220827D01*
X89273341Y-104468006D01*
X89407630Y-104769003D01*
X89418786Y-104790610D01*
X89561416Y-105069800D01*
X89631446Y-105226576D01*
X89640027Y-105295867D01*
X89598308Y-105312604D01*
X89585438Y-105312724D01*
X89498182Y-105245341D01*
X89360664Y-105077495D01*
X89310321Y-105006252D01*
X89118503Y-104592760D01*
X89049629Y-104133382D01*
X89100553Y-103679230D01*
X89268131Y-103281420D01*
X89428472Y-103086204D01*
X89583912Y-102972625D01*
X89647738Y-102990333D01*
G37*
G36*
X90839892Y-103778841D02*
G01*
X91008225Y-103922356D01*
X91035135Y-103981062D01*
X91029592Y-104204574D01*
X90951952Y-104378772D01*
X90883804Y-104533089D01*
X90840160Y-104768618D01*
X90817151Y-105118254D01*
X90810877Y-105577566D01*
X90810877Y-106561052D01*
X91105237Y-106561052D01*
X91399597Y-106561052D01*
X92267008Y-110103684D01*
X92454392Y-110870876D01*
X92627717Y-111584155D01*
X92782538Y-112224955D01*
X92914409Y-112774709D01*
X93018885Y-113214849D01*
X93091520Y-113526808D01*
X93127867Y-113692020D01*
X93131245Y-113713158D01*
X93060135Y-113778980D01*
X93045766Y-113780000D01*
X92995216Y-113698443D01*
X92917947Y-113476220D01*
X92824360Y-113147000D01*
X92724863Y-112744454D01*
X92722174Y-112732807D01*
X92626014Y-112324480D01*
X92541844Y-111983714D01*
X92478651Y-111745781D01*
X92445421Y-111645955D01*
X92445196Y-111645688D01*
X92372564Y-111689497D01*
X92199827Y-111837871D01*
X91951869Y-112068302D01*
X91653579Y-112358277D01*
X91614645Y-112396941D01*
X91252983Y-112767522D01*
X91008666Y-113046157D01*
X90863404Y-113256552D01*
X90798907Y-113422410D01*
X90793050Y-113461778D01*
X90739304Y-113676474D01*
X90659038Y-113723542D01*
X90586228Y-113602967D01*
X90561343Y-113461882D01*
X90516834Y-113308669D01*
X90399100Y-113117669D01*
X90190214Y-112865912D01*
X89872247Y-112530429D01*
X89696069Y-112353265D01*
X89312670Y-111982452D01*
X89040080Y-111744514D01*
X88874133Y-111636117D01*
X88812549Y-111646471D01*
X88773434Y-111782298D01*
X88702837Y-112049268D01*
X88611698Y-112405399D01*
X88535259Y-112710526D01*
X88414057Y-113167725D01*
X88308002Y-113508227D01*
X88222828Y-113718454D01*
X88164267Y-113784829D01*
X88138052Y-113693773D01*
X88137193Y-113653334D01*
X88144403Y-113593533D01*
X88167791Y-113475251D01*
X88209989Y-113288040D01*
X88273629Y-113021453D01*
X88361344Y-112665042D01*
X88475767Y-112208359D01*
X88619530Y-111640958D01*
X88688085Y-111372349D01*
X88986467Y-111372349D01*
X89742707Y-112132815D01*
X90498947Y-112893280D01*
X90543508Y-111398219D01*
X90556807Y-110900940D01*
X90565469Y-110468799D01*
X90569124Y-110131963D01*
X90567402Y-109920602D01*
X90566235Y-109907093D01*
X90810877Y-109907093D01*
X90810877Y-111397932D01*
X90812247Y-111890902D01*
X90816042Y-112315090D01*
X90821788Y-112641321D01*
X90829008Y-112840423D01*
X90835125Y-112888772D01*
X90903581Y-112829507D01*
X91071690Y-112668315D01*
X91313861Y-112430095D01*
X91592722Y-112151594D01*
X92326071Y-111414416D01*
X91568474Y-110660754D01*
X90810877Y-109907093D01*
X90566235Y-109907093D01*
X90562394Y-109862628D01*
X90493718Y-109906060D01*
X90324975Y-110053994D01*
X90080939Y-110283705D01*
X89786384Y-110572466D01*
X89761592Y-110597224D01*
X88986467Y-111372349D01*
X88688085Y-111372349D01*
X88746230Y-111144526D01*
X88944375Y-111144526D01*
X89719657Y-110369244D01*
X90494939Y-109593962D01*
X90491229Y-109590195D01*
X90769470Y-109590195D01*
X91478784Y-110303694D01*
X91766584Y-110588224D01*
X92009275Y-110818869D01*
X92179356Y-110970091D01*
X92247272Y-111017193D01*
X92249892Y-110936492D01*
X92213780Y-110716470D01*
X92145313Y-110390252D01*
X92050868Y-109990959D01*
X92045660Y-109970000D01*
X91940484Y-109551865D01*
X91847613Y-109190382D01*
X91777193Y-108924540D01*
X91739627Y-108794047D01*
X91672592Y-108764856D01*
X91523902Y-108857176D01*
X91280394Y-109079657D01*
X91231924Y-109127741D01*
X90769470Y-109590195D01*
X90491229Y-109590195D01*
X90056702Y-109149035D01*
X89837119Y-108933502D01*
X89670953Y-108784280D01*
X89591852Y-108731443D01*
X89590352Y-108732220D01*
X89559015Y-108823997D01*
X89492462Y-109056380D01*
X89399560Y-109397268D01*
X89289176Y-109814557D01*
X89253307Y-109952430D01*
X88944375Y-111144526D01*
X88746230Y-111144526D01*
X88795267Y-110952391D01*
X89005609Y-110132211D01*
X89253189Y-109169969D01*
X89431830Y-108477193D01*
X89741403Y-108477193D01*
X89798896Y-108575653D01*
X89943273Y-108750533D01*
X90132377Y-108957129D01*
X90324054Y-109150736D01*
X90476148Y-109286650D01*
X90539784Y-109323859D01*
X90560533Y-109241195D01*
X90576816Y-109019007D01*
X90586424Y-108696002D01*
X90588070Y-108477193D01*
X90583355Y-108113370D01*
X90570684Y-107827863D01*
X90554795Y-107682537D01*
X90810877Y-107682537D01*
X90810877Y-108477193D01*
X90810877Y-109271849D01*
X91211929Y-108878245D01*
X91419144Y-108673801D01*
X91564012Y-108528810D01*
X91612982Y-108477193D01*
X91554913Y-108416354D01*
X91403386Y-108264950D01*
X91211929Y-108076140D01*
X90810877Y-107682537D01*
X90554795Y-107682537D01*
X90552263Y-107659376D01*
X90539784Y-107630526D01*
X90446939Y-107691497D01*
X90282032Y-107844605D01*
X90087218Y-108045146D01*
X89904653Y-108248416D01*
X89776491Y-108409709D01*
X89741403Y-108477193D01*
X89431830Y-108477193D01*
X89540641Y-108055218D01*
X89569759Y-107942456D01*
X89773034Y-107942456D01*
X89785744Y-108004337D01*
X89897977Y-107936678D01*
X90109607Y-107742287D01*
X90493623Y-107365822D01*
X90777303Y-107365822D01*
X91122510Y-107719345D01*
X91316401Y-107906838D01*
X91455903Y-108021126D01*
X91501226Y-108039358D01*
X91502110Y-107941629D01*
X91471041Y-107720396D01*
X91422344Y-107461696D01*
X91355752Y-107178879D01*
X91293798Y-106982121D01*
X91254195Y-106917544D01*
X91161608Y-106976180D01*
X91008922Y-107119563D01*
X90987871Y-107141683D01*
X90777303Y-107365822D01*
X90493623Y-107365822D01*
X90495611Y-107363873D01*
X90264717Y-107132979D01*
X90033824Y-106902086D01*
X89928145Y-107333148D01*
X89855409Y-107625205D01*
X89792806Y-107868837D01*
X89773034Y-107942456D01*
X89569759Y-107942456D01*
X89840173Y-106895263D01*
X89888938Y-106748989D01*
X90218291Y-106748989D01*
X90226707Y-106808214D01*
X90320701Y-106917544D01*
X90462879Y-107050024D01*
X90548978Y-107095789D01*
X90583817Y-107024464D01*
X90569332Y-106917544D01*
X90534355Y-106872982D01*
X90810877Y-106872982D01*
X90829197Y-106991895D01*
X90844526Y-107006666D01*
X90921420Y-106947607D01*
X90989122Y-106872982D01*
X91051260Y-106767562D01*
X90969383Y-106739422D01*
X90955474Y-106739298D01*
X90830457Y-106806015D01*
X90810877Y-106872982D01*
X90534355Y-106872982D01*
X90451329Y-106767203D01*
X90341055Y-106739298D01*
X90218291Y-106748989D01*
X89888938Y-106748989D01*
X89913161Y-106676332D01*
X90018375Y-106582050D01*
X90216445Y-106561099D01*
X90235014Y-106561052D01*
X90543508Y-106561052D01*
X90543508Y-105547053D01*
X90538177Y-105077397D01*
X90519853Y-104756323D01*
X90485041Y-104554420D01*
X90430246Y-104442280D01*
X90409824Y-104422105D01*
X90294666Y-104226173D01*
X90295415Y-104114548D01*
X90471131Y-104114548D01*
X90484316Y-104193307D01*
X90604739Y-104314280D01*
X90768501Y-104314023D01*
X90860724Y-104235307D01*
X90863320Y-104100572D01*
X90763148Y-103976679D01*
X90624083Y-103918722D01*
X90532311Y-103952039D01*
X90471131Y-104114548D01*
X90295415Y-104114548D01*
X90296272Y-103986704D01*
X90408667Y-103799206D01*
X90612528Y-103729805D01*
X90839892Y-103778841D01*
G37*
%TO.C,G2*%
G36*
X215619557Y-99350565D02*
G01*
X215620148Y-99438140D01*
X215602015Y-99438140D01*
X215583882Y-99438140D01*
X215584474Y-99350565D01*
X215585065Y-99262991D01*
X215602015Y-99262991D01*
X215618965Y-99262991D01*
X215619557Y-99350565D01*
G37*
G36*
X215751174Y-99351130D02*
G01*
X215751174Y-99381640D01*
X215735355Y-99381640D01*
X215719535Y-99381640D01*
X215719535Y-99351130D01*
X215719535Y-99320620D01*
X215735355Y-99320620D01*
X215751174Y-99320620D01*
X215751174Y-99351130D01*
G37*
G36*
X215685635Y-99351346D02*
G01*
X215685635Y-99409389D01*
X215673770Y-99407964D01*
X215665912Y-99407132D01*
X215659185Y-99406609D01*
X215656781Y-99406519D01*
X215651656Y-99406500D01*
X215652261Y-99350565D01*
X215652865Y-99294630D01*
X215669250Y-99293966D01*
X215685635Y-99293302D01*
X215685635Y-99351346D01*
G37*
G36*
X215551751Y-99350628D02*
G01*
X215551867Y-99377214D01*
X215551924Y-99399618D01*
X215551913Y-99418177D01*
X215551828Y-99433228D01*
X215551661Y-99445110D01*
X215551406Y-99454158D01*
X215551054Y-99460712D01*
X215550600Y-99465108D01*
X215550035Y-99467684D01*
X215549353Y-99468777D01*
X215549238Y-99468835D01*
X215545401Y-99469370D01*
X215538715Y-99469514D01*
X215532833Y-99469336D01*
X215519526Y-99468649D01*
X215519526Y-99351130D01*
X215519526Y-99233611D01*
X215535346Y-99233611D01*
X215551166Y-99233611D01*
X215551751Y-99350628D01*
G37*
G36*
X215011497Y-99784079D02*
G01*
X215049220Y-99784106D01*
X215086066Y-99784149D01*
X215121766Y-99784207D01*
X215156050Y-99784281D01*
X215188648Y-99784372D01*
X215219291Y-99784478D01*
X215247708Y-99784601D01*
X215273630Y-99784741D01*
X215296787Y-99784897D01*
X215316909Y-99785070D01*
X215333726Y-99785260D01*
X215346969Y-99785467D01*
X215356368Y-99785691D01*
X215360432Y-99785854D01*
X215372426Y-99786568D01*
X215380877Y-99787320D01*
X215386759Y-99788320D01*
X215391046Y-99789776D01*
X215394711Y-99791898D01*
X215397246Y-99793751D01*
X215403868Y-99799830D01*
X215410189Y-99807217D01*
X215411700Y-99809353D01*
X215417826Y-99818603D01*
X215418223Y-99869625D01*
X215418246Y-99884918D01*
X215418090Y-99899179D01*
X215417778Y-99911619D01*
X215417331Y-99921447D01*
X215416773Y-99927874D01*
X215416514Y-99929357D01*
X215411467Y-99941739D01*
X215403163Y-99951180D01*
X215395450Y-99955890D01*
X215394233Y-99956390D01*
X215392747Y-99956848D01*
X215390801Y-99957267D01*
X215388207Y-99957648D01*
X215384774Y-99957993D01*
X215380313Y-99958305D01*
X215374633Y-99958584D01*
X215367544Y-99958832D01*
X215358858Y-99959052D01*
X215348383Y-99959245D01*
X215335930Y-99959412D01*
X215321310Y-99959556D01*
X215304332Y-99959679D01*
X215284806Y-99959781D01*
X215262543Y-99959865D01*
X215237353Y-99959933D01*
X215209045Y-99959986D01*
X215177431Y-99960026D01*
X215142320Y-99960054D01*
X215103522Y-99960074D01*
X215060847Y-99960086D01*
X215014106Y-99960091D01*
X214963109Y-99960093D01*
X214942099Y-99960093D01*
X214895941Y-99960083D01*
X214851200Y-99960052D01*
X214808084Y-99960004D01*
X214766798Y-99959937D01*
X214727551Y-99959854D01*
X214690547Y-99959755D01*
X214655995Y-99959641D01*
X214624099Y-99959512D01*
X214595068Y-99959371D01*
X214569108Y-99959218D01*
X214546425Y-99959053D01*
X214527226Y-99958877D01*
X214511717Y-99958692D01*
X214500106Y-99958499D01*
X214492599Y-99958298D01*
X214489401Y-99958090D01*
X214489388Y-99958087D01*
X214476503Y-99952870D01*
X214465503Y-99944008D01*
X214457406Y-99932378D01*
X214455520Y-99928446D01*
X214454103Y-99924783D01*
X214453087Y-99920688D01*
X214452408Y-99915462D01*
X214451999Y-99908405D01*
X214451794Y-99898816D01*
X214451728Y-99885997D01*
X214451731Y-99872178D01*
X214451792Y-99855620D01*
X214451967Y-99842911D01*
X214452307Y-99833381D01*
X214452858Y-99826360D01*
X214453669Y-99821176D01*
X214454789Y-99817160D01*
X214455898Y-99814427D01*
X214461774Y-99805167D01*
X214470142Y-99796477D01*
X214479560Y-99789652D01*
X214487116Y-99786341D01*
X214490225Y-99786099D01*
X214497583Y-99785870D01*
X214508922Y-99785654D01*
X214523971Y-99785451D01*
X214542461Y-99785261D01*
X214564122Y-99785085D01*
X214588684Y-99784922D01*
X214615877Y-99784773D01*
X214645432Y-99784638D01*
X214677078Y-99784517D01*
X214710546Y-99784410D01*
X214745566Y-99784317D01*
X214781868Y-99784238D01*
X214819183Y-99784175D01*
X214857240Y-99784125D01*
X214895770Y-99784091D01*
X214934502Y-99784072D01*
X214973168Y-99784068D01*
X215011497Y-99784079D01*
G37*
G36*
X215221239Y-98741491D02*
G01*
X215248068Y-98741509D01*
X215271880Y-98741546D01*
X215292864Y-98741604D01*
X215311206Y-98741685D01*
X215327096Y-98741789D01*
X215340720Y-98741919D01*
X215352267Y-98742076D01*
X215361925Y-98742263D01*
X215369882Y-98742479D01*
X215376325Y-98742728D01*
X215381442Y-98743011D01*
X215385422Y-98743329D01*
X215388452Y-98743684D01*
X215390721Y-98744078D01*
X215392415Y-98744512D01*
X215393723Y-98744988D01*
X215394833Y-98745507D01*
X215395351Y-98745773D01*
X215403648Y-98752019D01*
X215410972Y-98761173D01*
X215411046Y-98761293D01*
X215417826Y-98772204D01*
X215418418Y-98826628D01*
X215418579Y-98843973D01*
X215418611Y-98857426D01*
X215418479Y-98867612D01*
X215418148Y-98875157D01*
X215417580Y-98880689D01*
X215416740Y-98884833D01*
X215415591Y-98888216D01*
X215414762Y-98890093D01*
X215407715Y-98901151D01*
X215397991Y-98909239D01*
X215390676Y-98912970D01*
X215389405Y-98913431D01*
X215387694Y-98913853D01*
X215385355Y-98914240D01*
X215382199Y-98914592D01*
X215378039Y-98914911D01*
X215372686Y-98915199D01*
X215365951Y-98915456D01*
X215357647Y-98915686D01*
X215347585Y-98915889D01*
X215335576Y-98916066D01*
X215321433Y-98916220D01*
X215304967Y-98916353D01*
X215285990Y-98916465D01*
X215264313Y-98916558D01*
X215239749Y-98916634D01*
X215212108Y-98916695D01*
X215181203Y-98916742D01*
X215146845Y-98916776D01*
X215108846Y-98916800D01*
X215067018Y-98916814D01*
X215021171Y-98916821D01*
X214971119Y-98916822D01*
X214935285Y-98916821D01*
X214879692Y-98916811D01*
X214828465Y-98916788D01*
X214781450Y-98916752D01*
X214738494Y-98916702D01*
X214699444Y-98916637D01*
X214664144Y-98916556D01*
X214632443Y-98916458D01*
X214604185Y-98916341D01*
X214579217Y-98916206D01*
X214557386Y-98916051D01*
X214538537Y-98915875D01*
X214522518Y-98915677D01*
X214509173Y-98915457D01*
X214498351Y-98915212D01*
X214489896Y-98914943D01*
X214483655Y-98914649D01*
X214479475Y-98914328D01*
X214477308Y-98914006D01*
X214468680Y-98910989D01*
X214461801Y-98906864D01*
X214460392Y-98905565D01*
X214458873Y-98903865D01*
X214457670Y-98902015D01*
X214456739Y-98899497D01*
X214456039Y-98895792D01*
X214455526Y-98890379D01*
X214455158Y-98882740D01*
X214454893Y-98872356D01*
X214454687Y-98858707D01*
X214454498Y-98841274D01*
X214454414Y-98832756D01*
X214454233Y-98813585D01*
X214454130Y-98798399D01*
X214454138Y-98786663D01*
X214454290Y-98777842D01*
X214454617Y-98771401D01*
X214455152Y-98766806D01*
X214455928Y-98763522D01*
X214456977Y-98761013D01*
X214458331Y-98758746D01*
X214458963Y-98757791D01*
X214460019Y-98755996D01*
X214460818Y-98754346D01*
X214461545Y-98752834D01*
X214462384Y-98751454D01*
X214463519Y-98750199D01*
X214465135Y-98749064D01*
X214467414Y-98748041D01*
X214470541Y-98747126D01*
X214474701Y-98746311D01*
X214480076Y-98745590D01*
X214486852Y-98744958D01*
X214495212Y-98744408D01*
X214505341Y-98743933D01*
X214517421Y-98743528D01*
X214531638Y-98743186D01*
X214548175Y-98742901D01*
X214567217Y-98742667D01*
X214588947Y-98742478D01*
X214613549Y-98742327D01*
X214641208Y-98742209D01*
X214672107Y-98742116D01*
X214706431Y-98742043D01*
X214744363Y-98741984D01*
X214786088Y-98741932D01*
X214831790Y-98741881D01*
X214881652Y-98741825D01*
X214933183Y-98741761D01*
X214986391Y-98741692D01*
X215035266Y-98741629D01*
X215079997Y-98741577D01*
X215120772Y-98741535D01*
X215157779Y-98741505D01*
X215191205Y-98741490D01*
X215221239Y-98741491D01*
G37*
G36*
X214999127Y-98350899D02*
G01*
X215044273Y-98359174D01*
X215053129Y-98361329D01*
X215079734Y-98368851D01*
X215104966Y-98377727D01*
X215130694Y-98388649D01*
X215144368Y-98395112D01*
X215184876Y-98417313D01*
X215222841Y-98443219D01*
X215258125Y-98472709D01*
X215290590Y-98505660D01*
X215320100Y-98541950D01*
X215335711Y-98564337D01*
X215348897Y-98584359D01*
X215348897Y-98656316D01*
X215348897Y-98728272D01*
X214790115Y-98729051D01*
X214231333Y-98729830D01*
X214215513Y-98734673D01*
X214187622Y-98744643D01*
X214161051Y-98757211D01*
X214135183Y-98772763D01*
X214109401Y-98791685D01*
X214083088Y-98814366D01*
X214072301Y-98824553D01*
X214044301Y-98853699D01*
X214019367Y-98883945D01*
X213997970Y-98914678D01*
X213981008Y-98944423D01*
X213974992Y-98957250D01*
X213968024Y-98973681D01*
X213960369Y-98992966D01*
X213952292Y-99014357D01*
X213944057Y-99037105D01*
X213935928Y-99060459D01*
X213928170Y-99083672D01*
X213921047Y-99105992D01*
X213914823Y-99126672D01*
X213909762Y-99144962D01*
X213908481Y-99149991D01*
X213900097Y-99185625D01*
X213893499Y-99218206D01*
X213888549Y-99248769D01*
X213885108Y-99278351D01*
X213883037Y-99307989D01*
X213882198Y-99338718D01*
X213882165Y-99346697D01*
X213883146Y-99387969D01*
X213886175Y-99428502D01*
X213891377Y-99468923D01*
X213898881Y-99509857D01*
X213908812Y-99551930D01*
X213921298Y-99595768D01*
X213936465Y-99641997D01*
X213949120Y-99677121D01*
X213960453Y-99706696D01*
X213971145Y-99732538D01*
X213981601Y-99755311D01*
X213992226Y-99775679D01*
X214003426Y-99794307D01*
X214015607Y-99811859D01*
X214029174Y-99828998D01*
X214044532Y-99846389D01*
X214062088Y-99864696D01*
X214066183Y-99868810D01*
X214090778Y-99892250D01*
X214114127Y-99912023D01*
X214136897Y-99928560D01*
X214159752Y-99942290D01*
X214183358Y-99953644D01*
X214208380Y-99963051D01*
X214215513Y-99965328D01*
X214231333Y-99970204D01*
X214790115Y-99970951D01*
X215348897Y-99971697D01*
X215348798Y-100044482D01*
X215348699Y-100117266D01*
X215333543Y-100139224D01*
X215307939Y-100173751D01*
X215281325Y-100204445D01*
X215253069Y-100231976D01*
X215222539Y-100257013D01*
X215222528Y-100257021D01*
X215184412Y-100282998D01*
X215144637Y-100304898D01*
X215103484Y-100322727D01*
X215061235Y-100336491D01*
X215018175Y-100346194D01*
X214974584Y-100351842D01*
X214930745Y-100353439D01*
X214886941Y-100350994D01*
X214843454Y-100344508D01*
X214800567Y-100333988D01*
X214758561Y-100319439D01*
X214717720Y-100300867D01*
X214678325Y-100278276D01*
X214640660Y-100251672D01*
X214633609Y-100246072D01*
X214602481Y-100218327D01*
X214573217Y-100187162D01*
X214546691Y-100153569D01*
X214529324Y-100127708D01*
X214513831Y-100102818D01*
X214362412Y-100101962D01*
X214332210Y-100101796D01*
X214306134Y-100101644D01*
X214283791Y-100101480D01*
X214264788Y-100101277D01*
X214248731Y-100101008D01*
X214235227Y-100100645D01*
X214223882Y-100100162D01*
X214214303Y-100099531D01*
X214206096Y-100098725D01*
X214198868Y-100097717D01*
X214192226Y-100096481D01*
X214185777Y-100094988D01*
X214179126Y-100093212D01*
X214171881Y-100091125D01*
X214163647Y-100088702D01*
X214161692Y-100088128D01*
X214140421Y-100080771D01*
X214117095Y-100070710D01*
X214092782Y-100058513D01*
X214068547Y-100044746D01*
X214045457Y-100029975D01*
X214026804Y-100016497D01*
X214002576Y-99996394D01*
X213978562Y-99973786D01*
X213955633Y-99949619D01*
X213934659Y-99924835D01*
X213916510Y-99900382D01*
X213908333Y-99887877D01*
X213894159Y-99863748D01*
X213879282Y-99836058D01*
X213864103Y-99805629D01*
X213849023Y-99773284D01*
X213834444Y-99739845D01*
X213825524Y-99718156D01*
X213801726Y-99653325D01*
X213782374Y-99588427D01*
X213767394Y-99523198D01*
X213757612Y-99464129D01*
X213755748Y-99447363D01*
X213754175Y-99427223D01*
X213752918Y-99404712D01*
X213752002Y-99380835D01*
X213751450Y-99356596D01*
X213751287Y-99332997D01*
X213751536Y-99311044D01*
X213752222Y-99291740D01*
X213753151Y-99278332D01*
X213759835Y-99221860D01*
X213769485Y-99166525D01*
X213782276Y-99111694D01*
X213798382Y-99056737D01*
X213817976Y-99001020D01*
X213841233Y-98943912D01*
X213851570Y-98920602D01*
X213868913Y-98883852D01*
X213885933Y-98850999D01*
X213903005Y-98821475D01*
X213920505Y-98794711D01*
X213938809Y-98770138D01*
X213958292Y-98747189D01*
X213979330Y-98725295D01*
X213982999Y-98721723D01*
X214016617Y-98691890D01*
X214051593Y-98665882D01*
X214087684Y-98643825D01*
X214124642Y-98625848D01*
X214162223Y-98612078D01*
X214200181Y-98602642D01*
X214217371Y-98599837D01*
X214223656Y-98599309D01*
X214234204Y-98598837D01*
X214248758Y-98598427D01*
X214267062Y-98598082D01*
X214288859Y-98597804D01*
X214313893Y-98597600D01*
X214341907Y-98597472D01*
X214372644Y-98597424D01*
X214374960Y-98597424D01*
X214514869Y-98597424D01*
X214519753Y-98587819D01*
X214527547Y-98574160D01*
X214537983Y-98558349D01*
X214550381Y-98541295D01*
X214564058Y-98523909D01*
X214578333Y-98507099D01*
X214589041Y-98495396D01*
X214622242Y-98463631D01*
X214657964Y-98435488D01*
X214695912Y-98411050D01*
X214735793Y-98390402D01*
X214777310Y-98373631D01*
X214820169Y-98360822D01*
X214864075Y-98352058D01*
X214908733Y-98347427D01*
X214953849Y-98347012D01*
X214999127Y-98350899D01*
G37*
G36*
X215484496Y-99350000D02*
G01*
X215484496Y-99499159D01*
X215467546Y-99499159D01*
X215450596Y-99499159D01*
X215450596Y-99434750D01*
X215450596Y-99370340D01*
X215314210Y-99370340D01*
X215177825Y-99370340D01*
X215176386Y-99393505D01*
X215173472Y-99419063D01*
X215168146Y-99440962D01*
X215160432Y-99459152D01*
X215150356Y-99473581D01*
X215137942Y-99484198D01*
X215130142Y-99488387D01*
X215118799Y-99491712D01*
X215106004Y-99492840D01*
X215093732Y-99491717D01*
X215086574Y-99489588D01*
X215075997Y-99483391D01*
X215065464Y-99474259D01*
X215056474Y-99463537D01*
X215054923Y-99461210D01*
X215048760Y-99451511D01*
X215048363Y-99452091D01*
X215043668Y-99458950D01*
X215037125Y-99467469D01*
X215029364Y-99476034D01*
X215021540Y-99483482D01*
X215014807Y-99488649D01*
X215013414Y-99489456D01*
X215005168Y-99491946D01*
X214994937Y-99492557D01*
X214984835Y-99491311D01*
X214978407Y-99489066D01*
X214973974Y-99485884D01*
X214967686Y-99480253D01*
X214960618Y-99473165D01*
X214957538Y-99469838D01*
X214951235Y-99462987D01*
X214946087Y-99457624D01*
X214942815Y-99454488D01*
X214942083Y-99453986D01*
X214942075Y-99453981D01*
X214940202Y-99455604D01*
X214936361Y-99459893D01*
X214931356Y-99465947D01*
X214930984Y-99466412D01*
X214919580Y-99478858D01*
X214908409Y-99487122D01*
X214897005Y-99491489D01*
X214888444Y-99492379D01*
X214878175Y-99491117D01*
X214868628Y-99487036D01*
X214859117Y-99479692D01*
X214848951Y-99468644D01*
X214846210Y-99465230D01*
X214837299Y-99453888D01*
X214835120Y-99451115D01*
X214830453Y-99457622D01*
X214824261Y-99465481D01*
X214816914Y-99473665D01*
X214809452Y-99481119D01*
X214802916Y-99486788D01*
X214799338Y-99489187D01*
X214791690Y-99491479D01*
X214781915Y-99492267D01*
X214772105Y-99491551D01*
X214764349Y-99489334D01*
X214764013Y-99489163D01*
X214759189Y-99485722D01*
X214752577Y-99479879D01*
X214745265Y-99472719D01*
X214738343Y-99465326D01*
X214732899Y-99458785D01*
X214731412Y-99456700D01*
X214729647Y-99454301D01*
X214728992Y-99454026D01*
X214727964Y-99453595D01*
X214725634Y-99455036D01*
X214721924Y-99459078D01*
X214716104Y-99466175D01*
X214716061Y-99466227D01*
X214706798Y-99477009D01*
X214698889Y-99484453D01*
X214691400Y-99489121D01*
X214683394Y-99491573D01*
X214673937Y-99492368D01*
X214672384Y-99492379D01*
X214657599Y-99490822D01*
X214645051Y-99485942D01*
X214634313Y-99477431D01*
X214624957Y-99464977D01*
X214618903Y-99453534D01*
X214614613Y-99442607D01*
X214610526Y-99429150D01*
X214607012Y-99414734D01*
X214604444Y-99400931D01*
X214603194Y-99389312D01*
X214603130Y-99386910D01*
X214603245Y-99383500D01*
X214603392Y-99380590D01*
X214603243Y-99378140D01*
X214602467Y-99376110D01*
X214600735Y-99374463D01*
X214597719Y-99373157D01*
X214593088Y-99372155D01*
X214586514Y-99371416D01*
X214577667Y-99370902D01*
X214566217Y-99370574D01*
X214551835Y-99370391D01*
X214534192Y-99370316D01*
X214512958Y-99370308D01*
X214487804Y-99370329D01*
X214464000Y-99370340D01*
X214327644Y-99370340D01*
X214235418Y-99420904D01*
X214215595Y-99431766D01*
X214196100Y-99442436D01*
X214177477Y-99452617D01*
X214160269Y-99462013D01*
X214145020Y-99470326D01*
X214132275Y-99477261D01*
X214127508Y-99479846D01*
X214122577Y-99482519D01*
X214117983Y-99484995D01*
X214092773Y-99498522D01*
X214091202Y-99468896D01*
X214090895Y-99460654D01*
X214090652Y-99449077D01*
X214090471Y-99434649D01*
X214090348Y-99417853D01*
X214090303Y-99405299D01*
X214126243Y-99405299D01*
X214126325Y-99416898D01*
X214126551Y-99426700D01*
X214126889Y-99433909D01*
X214127310Y-99437734D01*
X214127508Y-99438140D01*
X214129726Y-99437083D01*
X214135397Y-99434091D01*
X214144030Y-99429432D01*
X214155131Y-99423374D01*
X214168209Y-99416185D01*
X214182769Y-99408133D01*
X214188766Y-99404805D01*
X214248760Y-99371470D01*
X214190364Y-99370866D01*
X214174462Y-99370743D01*
X214159987Y-99370712D01*
X214147573Y-99370767D01*
X214137854Y-99370904D01*
X214131465Y-99371116D01*
X214129106Y-99371360D01*
X214127902Y-99373112D01*
X214127057Y-99377624D01*
X214126530Y-99385389D01*
X214126279Y-99396896D01*
X214126243Y-99405299D01*
X214090303Y-99405299D01*
X214090281Y-99399173D01*
X214090267Y-99379095D01*
X214090302Y-99358101D01*
X214090383Y-99336676D01*
X214090424Y-99329660D01*
X214126243Y-99329660D01*
X214186698Y-99329638D01*
X214247153Y-99329616D01*
X214187475Y-99295738D01*
X214172571Y-99287292D01*
X214158977Y-99279614D01*
X214147178Y-99272978D01*
X214137658Y-99267654D01*
X214130905Y-99263915D01*
X214127401Y-99262033D01*
X214127020Y-99261861D01*
X214126750Y-99263990D01*
X214126520Y-99269859D01*
X214126350Y-99278685D01*
X214126256Y-99289687D01*
X214126243Y-99295760D01*
X214126243Y-99329660D01*
X214090424Y-99329660D01*
X214090508Y-99315305D01*
X214090674Y-99294470D01*
X214090878Y-99274657D01*
X214091117Y-99256350D01*
X214091387Y-99240032D01*
X214091687Y-99226187D01*
X214092012Y-99215300D01*
X214092361Y-99207855D01*
X214092729Y-99204336D01*
X214092815Y-99204134D01*
X214095029Y-99204905D01*
X214100845Y-99207684D01*
X214109915Y-99212286D01*
X214121890Y-99218527D01*
X214136420Y-99226221D01*
X214153156Y-99235184D01*
X214171749Y-99245231D01*
X214191849Y-99256177D01*
X214212001Y-99267227D01*
X214329584Y-99331920D01*
X214482000Y-99331920D01*
X214634415Y-99331920D01*
X214635618Y-99343785D01*
X214636319Y-99351611D01*
X214637132Y-99362069D01*
X214637915Y-99373276D01*
X214638140Y-99376793D01*
X214639191Y-99388879D01*
X214640786Y-99401823D01*
X214642618Y-99413199D01*
X214643014Y-99415212D01*
X214647140Y-99431284D01*
X214652165Y-99443246D01*
X214658318Y-99451460D01*
X214665831Y-99456286D01*
X214670074Y-99457523D01*
X214674761Y-99457843D01*
X214678692Y-99456054D01*
X214683433Y-99451389D01*
X214684076Y-99450661D01*
X214689049Y-99444046D01*
X214694378Y-99435451D01*
X214699449Y-99426074D01*
X214703646Y-99417112D01*
X214706353Y-99409761D01*
X214707036Y-99405991D01*
X214706433Y-99401900D01*
X214704805Y-99394502D01*
X214702396Y-99384829D01*
X214699453Y-99373912D01*
X214699294Y-99373345D01*
X214692599Y-99346458D01*
X214687877Y-99320815D01*
X214685156Y-99296915D01*
X214684499Y-99276430D01*
X214720902Y-99276430D01*
X214721221Y-99289473D01*
X214721944Y-99302842D01*
X214723020Y-99315521D01*
X214724397Y-99326495D01*
X214726024Y-99334748D01*
X214727412Y-99338603D01*
X214728992Y-99338892D01*
X214730898Y-99335155D01*
X214732959Y-99327858D01*
X214734852Y-99318360D01*
X214735444Y-99312222D01*
X214735814Y-99302874D01*
X214735966Y-99291619D01*
X214735906Y-99279761D01*
X214735640Y-99268605D01*
X214735173Y-99259453D01*
X214734580Y-99253975D01*
X214732375Y-99247282D01*
X214729204Y-99244156D01*
X214725770Y-99244873D01*
X214722887Y-99249413D01*
X214721683Y-99255384D01*
X214721039Y-99264728D01*
X214720902Y-99276430D01*
X214684499Y-99276430D01*
X214684462Y-99275262D01*
X214685824Y-99256355D01*
X214689270Y-99240696D01*
X214691664Y-99234499D01*
X214697871Y-99223941D01*
X214705311Y-99215875D01*
X214706054Y-99215289D01*
X214711786Y-99211472D01*
X214717343Y-99209504D01*
X214724666Y-99208825D01*
X214728588Y-99208789D01*
X214737280Y-99209172D01*
X214743402Y-99210629D01*
X214748872Y-99213708D01*
X214750812Y-99215135D01*
X214759262Y-99223625D01*
X214765532Y-99234733D01*
X214769718Y-99248817D01*
X214771915Y-99266238D01*
X214772221Y-99287356D01*
X214771970Y-99294210D01*
X214770636Y-99313265D01*
X214768320Y-99330812D01*
X214764726Y-99348467D01*
X214759558Y-99367846D01*
X214756697Y-99377370D01*
X214753801Y-99387487D01*
X214751536Y-99396783D01*
X214750213Y-99403901D01*
X214750000Y-99406420D01*
X214751177Y-99412949D01*
X214754329Y-99421318D01*
X214758891Y-99430593D01*
X214764297Y-99439839D01*
X214769979Y-99448121D01*
X214775371Y-99454504D01*
X214779908Y-99458055D01*
X214781544Y-99458479D01*
X214785483Y-99456570D01*
X214790689Y-99451428D01*
X214796551Y-99443934D01*
X214802459Y-99434968D01*
X214807806Y-99425410D01*
X214811980Y-99416141D01*
X214813151Y-99412821D01*
X214814259Y-99408390D01*
X214814416Y-99403919D01*
X214813463Y-99398246D01*
X214811241Y-99390209D01*
X214809128Y-99383441D01*
X214803566Y-99363794D01*
X214798856Y-99342838D01*
X214795151Y-99321631D01*
X214792605Y-99301229D01*
X214791370Y-99282688D01*
X214791539Y-99271102D01*
X214829261Y-99271102D01*
X214829270Y-99283016D01*
X214829569Y-99295490D01*
X214830131Y-99307538D01*
X214830932Y-99318173D01*
X214831947Y-99326410D01*
X214833153Y-99331263D01*
X214833296Y-99331549D01*
X214835537Y-99334837D01*
X214837299Y-99335161D01*
X214838896Y-99332090D01*
X214840642Y-99325194D01*
X214841695Y-99320044D01*
X214843322Y-99308984D01*
X214844319Y-99296291D01*
X214844688Y-99283139D01*
X214844429Y-99270701D01*
X214843543Y-99260153D01*
X214842031Y-99252666D01*
X214841645Y-99251618D01*
X214838384Y-99245652D01*
X214835301Y-99244119D01*
X214832163Y-99246952D01*
X214831212Y-99248575D01*
X214830207Y-99252895D01*
X214829565Y-99260733D01*
X214829261Y-99271102D01*
X214791539Y-99271102D01*
X214791598Y-99267067D01*
X214791860Y-99264131D01*
X214795118Y-99246607D01*
X214800723Y-99231904D01*
X214808412Y-99220365D01*
X214817922Y-99212336D01*
X214828990Y-99208158D01*
X214835017Y-99207621D01*
X214847611Y-99209781D01*
X214858825Y-99215939D01*
X214867856Y-99225607D01*
X214869741Y-99228626D01*
X214876369Y-99244534D01*
X214880027Y-99263847D01*
X214880715Y-99286562D01*
X214878434Y-99312675D01*
X214873182Y-99342184D01*
X214865072Y-99374687D01*
X214862305Y-99385385D01*
X214860109Y-99395412D01*
X214858765Y-99403403D01*
X214858479Y-99406956D01*
X214859650Y-99414237D01*
X214862786Y-99423118D01*
X214867327Y-99432652D01*
X214872712Y-99441894D01*
X214878378Y-99449897D01*
X214883766Y-99455714D01*
X214888313Y-99458401D01*
X214889047Y-99458479D01*
X214892631Y-99456649D01*
X214897640Y-99451764D01*
X214903330Y-99444738D01*
X214908956Y-99436482D01*
X214913449Y-99428563D01*
X214917191Y-99419661D01*
X214919019Y-99410831D01*
X214918917Y-99401047D01*
X214916872Y-99389283D01*
X214912869Y-99374512D01*
X214912707Y-99373972D01*
X214905367Y-99346126D01*
X214900758Y-99319711D01*
X214898583Y-99292803D01*
X214898324Y-99281070D01*
X214898325Y-99280291D01*
X214932454Y-99280291D01*
X214932943Y-99292332D01*
X214933267Y-99295760D01*
X214934920Y-99309024D01*
X214936792Y-99320393D01*
X214938736Y-99329195D01*
X214940607Y-99334758D01*
X214942083Y-99336440D01*
X214944822Y-99334276D01*
X214947081Y-99328128D01*
X214948786Y-99318517D01*
X214949860Y-99305960D01*
X214950230Y-99290977D01*
X214950083Y-99281070D01*
X214949570Y-99270258D01*
X214948742Y-99260555D01*
X214947726Y-99253204D01*
X214946921Y-99249996D01*
X214944019Y-99244913D01*
X214941138Y-99243830D01*
X214938433Y-99246229D01*
X214936057Y-99251593D01*
X214934165Y-99259403D01*
X214932913Y-99269141D01*
X214932454Y-99280291D01*
X214898325Y-99280291D01*
X214898333Y-99268322D01*
X214898652Y-99258984D01*
X214899411Y-99251949D01*
X214900740Y-99246111D01*
X214902766Y-99240363D01*
X214903212Y-99239261D01*
X214908280Y-99228448D01*
X214913693Y-99220735D01*
X214920514Y-99214758D01*
X214924238Y-99212327D01*
X214934996Y-99208324D01*
X214947016Y-99208323D01*
X214959474Y-99212315D01*
X214960265Y-99212706D01*
X214969671Y-99219932D01*
X214976989Y-99230878D01*
X214982200Y-99245246D01*
X214985286Y-99262738D01*
X214986228Y-99283055D01*
X214985010Y-99305901D01*
X214981611Y-99330976D01*
X214976015Y-99357983D01*
X214970444Y-99379050D01*
X214967193Y-99390472D01*
X214965100Y-99398511D01*
X214964056Y-99404121D01*
X214963952Y-99408257D01*
X214964680Y-99411875D01*
X214966131Y-99415930D01*
X214966218Y-99416154D01*
X214969504Y-99423260D01*
X214974151Y-99431616D01*
X214979486Y-99440193D01*
X214984833Y-99447965D01*
X214989516Y-99453904D01*
X214992860Y-99456982D01*
X214993130Y-99457106D01*
X214997963Y-99457247D01*
X215000741Y-99456282D01*
X215004846Y-99452572D01*
X215010104Y-99445616D01*
X215015915Y-99436338D01*
X215021679Y-99425657D01*
X215024451Y-99419871D01*
X215030225Y-99407252D01*
X215024432Y-99388231D01*
X215017382Y-99363456D01*
X215012234Y-99341338D01*
X215008742Y-99320557D01*
X215006661Y-99299792D01*
X215006119Y-99290104D01*
X215005629Y-99276088D01*
X215005624Y-99274174D01*
X215041871Y-99274174D01*
X215041881Y-99286781D01*
X215042337Y-99299840D01*
X215043186Y-99312439D01*
X215044374Y-99323662D01*
X215045848Y-99332595D01*
X215047556Y-99338326D01*
X215048363Y-99339592D01*
X215050172Y-99339346D01*
X215051883Y-99335311D01*
X215053443Y-99328220D01*
X215054796Y-99318805D01*
X215055887Y-99307796D01*
X215056661Y-99295925D01*
X215057063Y-99283924D01*
X215057039Y-99272525D01*
X215056532Y-99262459D01*
X215055488Y-99254458D01*
X215054941Y-99252118D01*
X215052197Y-99245908D01*
X215049012Y-99244010D01*
X215045964Y-99246330D01*
X215043630Y-99252774D01*
X215043398Y-99253975D01*
X215042359Y-99262934D01*
X215041871Y-99274174D01*
X215005624Y-99274174D01*
X215005604Y-99265539D01*
X215006098Y-99257421D01*
X215007162Y-99250701D01*
X215008386Y-99245892D01*
X215014435Y-99230701D01*
X215022574Y-99219299D01*
X215032658Y-99211812D01*
X215044541Y-99208366D01*
X215051915Y-99208247D01*
X215063035Y-99210380D01*
X215071946Y-99215392D01*
X215079380Y-99223858D01*
X215085123Y-99234280D01*
X215090281Y-99249581D01*
X215092937Y-99268161D01*
X215093085Y-99290115D01*
X215090723Y-99315536D01*
X215085845Y-99344520D01*
X215078612Y-99376506D01*
X215075502Y-99389063D01*
X215073412Y-99398154D01*
X215072247Y-99404693D01*
X215071910Y-99409595D01*
X215072309Y-99413775D01*
X215073347Y-99418147D01*
X215074043Y-99420576D01*
X215077676Y-99430362D01*
X215082599Y-99440098D01*
X215088065Y-99448554D01*
X215093332Y-99454504D01*
X215095580Y-99456113D01*
X215103131Y-99457772D01*
X215111372Y-99455634D01*
X215119511Y-99450172D01*
X215126754Y-99441858D01*
X215130553Y-99435260D01*
X215133934Y-99427161D01*
X215136593Y-99418102D01*
X215138658Y-99407313D01*
X215140257Y-99394024D01*
X215141518Y-99377464D01*
X215142184Y-99365255D01*
X215143701Y-99334180D01*
X215297149Y-99334180D01*
X215450596Y-99334180D01*
X215450596Y-99267510D01*
X215450596Y-99200841D01*
X215467546Y-99200841D01*
X215484496Y-99200841D01*
X215484496Y-99350000D01*
G37*
%TO.C,G\u002A\u002A\u002A*%
G36*
X94049833Y-85000916D02*
G01*
X94097189Y-85003303D01*
X94144782Y-85007224D01*
X94187428Y-85012005D01*
X94192788Y-85012675D01*
X94197628Y-85013273D01*
X94201719Y-85013772D01*
X94204833Y-85014142D01*
X94206740Y-85014356D01*
X94207228Y-85014399D01*
X94207274Y-85015198D01*
X94207319Y-85017585D01*
X94207363Y-85021551D01*
X94207405Y-85027085D01*
X94207446Y-85034176D01*
X94207486Y-85042814D01*
X94207524Y-85052987D01*
X94207561Y-85064686D01*
X94207596Y-85077899D01*
X94207630Y-85092615D01*
X94207663Y-85108824D01*
X94207694Y-85126516D01*
X94207724Y-85145679D01*
X94207752Y-85166303D01*
X94207779Y-85188377D01*
X94207804Y-85211890D01*
X94207828Y-85236832D01*
X94207850Y-85263192D01*
X94207871Y-85290959D01*
X94207890Y-85320123D01*
X94207908Y-85350673D01*
X94207924Y-85382597D01*
X94207939Y-85415887D01*
X94207952Y-85450530D01*
X94207964Y-85486516D01*
X94207974Y-85523834D01*
X94207982Y-85562474D01*
X94207989Y-85602425D01*
X94207994Y-85643676D01*
X94207997Y-85686216D01*
X94207999Y-85730036D01*
X94208000Y-85757200D01*
X94208000Y-86500000D01*
X94000000Y-86500000D01*
X93792000Y-86500000D01*
X93792000Y-85757200D01*
X93792000Y-85712611D01*
X93792003Y-85669294D01*
X93792007Y-85627261D01*
X93792013Y-85586521D01*
X93792020Y-85547086D01*
X93792029Y-85508965D01*
X93792040Y-85472171D01*
X93792052Y-85436713D01*
X93792065Y-85402602D01*
X93792081Y-85369850D01*
X93792098Y-85338466D01*
X93792116Y-85308461D01*
X93792136Y-85279846D01*
X93792157Y-85252633D01*
X93792180Y-85226830D01*
X93792205Y-85202450D01*
X93792231Y-85179503D01*
X93792258Y-85157999D01*
X93792287Y-85137950D01*
X93792317Y-85119366D01*
X93792349Y-85102257D01*
X93792382Y-85086635D01*
X93792417Y-85072510D01*
X93792453Y-85059893D01*
X93792490Y-85048795D01*
X93792529Y-85039225D01*
X93792569Y-85031196D01*
X93792610Y-85024717D01*
X93792653Y-85019800D01*
X93792697Y-85016455D01*
X93792743Y-85014693D01*
X93792771Y-85014399D01*
X93793751Y-85014303D01*
X93796090Y-85014033D01*
X93799558Y-85013617D01*
X93803927Y-85013082D01*
X93808967Y-85012456D01*
X93812571Y-85012005D01*
X93860469Y-85006717D01*
X93908030Y-85002965D01*
X93955368Y-85000747D01*
X94002597Y-85000064D01*
X94049833Y-85000916D01*
G37*
G36*
X94418198Y-85059515D02*
G01*
X94419402Y-85059878D01*
X94421855Y-85060616D01*
X94425274Y-85061644D01*
X94429375Y-85062877D01*
X94432800Y-85063906D01*
X94479081Y-85078647D01*
X94524778Y-85094866D01*
X94569858Y-85112543D01*
X94614289Y-85131655D01*
X94658038Y-85152179D01*
X94701074Y-85174093D01*
X94743363Y-85197374D01*
X94784873Y-85222001D01*
X94825573Y-85247951D01*
X94865430Y-85275202D01*
X94904411Y-85303732D01*
X94942485Y-85333517D01*
X94979619Y-85364536D01*
X95015780Y-85396767D01*
X95050937Y-85430187D01*
X95085057Y-85464773D01*
X95118107Y-85500505D01*
X95150057Y-85537358D01*
X95180872Y-85575311D01*
X95190115Y-85587200D01*
X95219195Y-85626294D01*
X95246927Y-85666233D01*
X95273298Y-85706980D01*
X95298292Y-85748499D01*
X95321898Y-85790753D01*
X95344099Y-85833706D01*
X95364884Y-85877321D01*
X95384237Y-85921561D01*
X95402146Y-85966391D01*
X95418596Y-86011773D01*
X95433573Y-86057671D01*
X95447063Y-86104049D01*
X95459054Y-86150869D01*
X95469530Y-86198096D01*
X95478478Y-86245692D01*
X95485884Y-86293622D01*
X95491735Y-86341849D01*
X95496016Y-86390335D01*
X95496357Y-86395200D01*
X95497042Y-86405454D01*
X95497626Y-86414840D01*
X95498115Y-86423605D01*
X95498518Y-86432000D01*
X95498842Y-86440273D01*
X95499095Y-86448674D01*
X95499285Y-86457453D01*
X95499418Y-86466859D01*
X95499503Y-86477141D01*
X95499548Y-86488549D01*
X95499559Y-86500000D01*
X95499545Y-86512635D01*
X95499497Y-86523921D01*
X95499407Y-86534105D01*
X95499268Y-86543438D01*
X95499073Y-86552168D01*
X95498813Y-86560546D01*
X95498482Y-86568820D01*
X95498071Y-86577240D01*
X95497572Y-86586056D01*
X95496979Y-86595516D01*
X95496357Y-86604800D01*
X95492229Y-86653382D01*
X95486527Y-86701713D01*
X95479265Y-86749754D01*
X95470454Y-86797472D01*
X95460107Y-86844830D01*
X95448235Y-86891792D01*
X95434852Y-86938323D01*
X95419969Y-86984386D01*
X95403598Y-87029948D01*
X95385752Y-87074970D01*
X95366443Y-87119419D01*
X95345683Y-87163258D01*
X95323484Y-87206452D01*
X95299859Y-87248964D01*
X95274819Y-87290759D01*
X95248377Y-87331802D01*
X95247175Y-87333600D01*
X95219310Y-87373778D01*
X95190167Y-87413005D01*
X95159779Y-87451249D01*
X95128178Y-87488477D01*
X95095397Y-87524656D01*
X95061469Y-87559754D01*
X95026426Y-87593738D01*
X94990300Y-87626577D01*
X94953123Y-87658237D01*
X94914929Y-87688686D01*
X94875750Y-87717892D01*
X94835618Y-87745821D01*
X94833600Y-87747175D01*
X94792626Y-87773656D01*
X94750864Y-87798757D01*
X94708353Y-87822462D01*
X94665132Y-87844755D01*
X94621240Y-87865618D01*
X94576717Y-87885035D01*
X94531603Y-87902988D01*
X94485936Y-87919462D01*
X94439756Y-87934439D01*
X94393102Y-87947903D01*
X94346013Y-87959837D01*
X94322620Y-87965158D01*
X94287402Y-87972447D01*
X94252377Y-87978832D01*
X94217271Y-87984348D01*
X94181811Y-87989033D01*
X94145723Y-87992923D01*
X94108733Y-87996053D01*
X94071200Y-87998427D01*
X94067606Y-87998578D01*
X94062633Y-87998727D01*
X94056479Y-87998871D01*
X94049339Y-87999011D01*
X94041410Y-87999142D01*
X94032889Y-87999264D01*
X94023973Y-87999374D01*
X94014859Y-87999471D01*
X94005742Y-87999552D01*
X93996820Y-87999616D01*
X93988290Y-87999661D01*
X93980347Y-87999685D01*
X93973190Y-87999686D01*
X93967014Y-87999663D01*
X93962016Y-87999612D01*
X93958393Y-87999533D01*
X93958000Y-87999519D01*
X93924083Y-87997993D01*
X93891459Y-87995973D01*
X93859888Y-87993430D01*
X93829130Y-87990335D01*
X93798945Y-87986658D01*
X93769096Y-87982370D01*
X93739343Y-87977442D01*
X93709445Y-87971845D01*
X93679165Y-87965549D01*
X93677379Y-87965158D01*
X93630147Y-87954001D01*
X93583394Y-87941328D01*
X93537154Y-87927160D01*
X93491461Y-87911517D01*
X93446349Y-87894421D01*
X93401852Y-87875892D01*
X93358003Y-87855951D01*
X93314837Y-87834620D01*
X93272388Y-87811918D01*
X93230688Y-87787866D01*
X93189773Y-87762486D01*
X93149676Y-87735798D01*
X93110431Y-87707824D01*
X93072072Y-87678583D01*
X93034632Y-87648096D01*
X92998146Y-87616386D01*
X92962648Y-87583471D01*
X92928171Y-87549374D01*
X92894749Y-87514115D01*
X92862416Y-87477714D01*
X92839493Y-87450400D01*
X92808989Y-87411911D01*
X92779842Y-87372590D01*
X92752065Y-87332466D01*
X92725671Y-87291570D01*
X92700670Y-87249931D01*
X92677075Y-87207579D01*
X92654898Y-87164545D01*
X92634150Y-87120858D01*
X92614844Y-87076549D01*
X92596992Y-87031648D01*
X92580606Y-86986185D01*
X92565697Y-86940190D01*
X92552277Y-86893693D01*
X92540359Y-86846724D01*
X92529954Y-86799313D01*
X92521074Y-86751491D01*
X92513732Y-86703287D01*
X92507939Y-86654732D01*
X92503707Y-86605855D01*
X92503633Y-86604800D01*
X92502947Y-86594656D01*
X92502363Y-86585303D01*
X92501873Y-86576494D01*
X92501469Y-86567983D01*
X92501145Y-86559524D01*
X92500892Y-86550872D01*
X92500703Y-86541780D01*
X92500571Y-86532003D01*
X92500489Y-86521295D01*
X92500448Y-86509410D01*
X92500440Y-86500000D01*
X92500454Y-86487364D01*
X92500502Y-86476078D01*
X92500592Y-86465894D01*
X92500731Y-86456561D01*
X92500926Y-86447831D01*
X92501186Y-86439453D01*
X92501517Y-86431179D01*
X92501928Y-86422759D01*
X92502427Y-86413943D01*
X92503020Y-86404483D01*
X92503642Y-86395200D01*
X92507770Y-86346620D01*
X92513474Y-86298286D01*
X92520742Y-86250234D01*
X92529563Y-86202497D01*
X92539925Y-86155110D01*
X92551819Y-86108109D01*
X92565233Y-86061527D01*
X92580156Y-86015401D01*
X92596577Y-85969764D01*
X92614485Y-85924652D01*
X92633870Y-85880100D01*
X92654719Y-85836141D01*
X92677023Y-85792812D01*
X92700770Y-85750146D01*
X92714548Y-85726800D01*
X92740281Y-85685626D01*
X92767360Y-85645300D01*
X92795750Y-85605858D01*
X92825417Y-85567338D01*
X92856326Y-85529778D01*
X92888443Y-85493215D01*
X92921733Y-85457688D01*
X92956162Y-85423233D01*
X92991696Y-85389889D01*
X93028299Y-85357692D01*
X93065937Y-85326682D01*
X93104576Y-85296895D01*
X93116800Y-85287880D01*
X93156463Y-85259926D01*
X93197074Y-85233246D01*
X93238572Y-85207873D01*
X93280896Y-85183840D01*
X93323986Y-85161177D01*
X93367780Y-85139919D01*
X93412218Y-85120096D01*
X93457240Y-85101742D01*
X93489600Y-85089593D01*
X93500168Y-85085807D01*
X93510520Y-85082188D01*
X93520910Y-85078655D01*
X93531589Y-85075124D01*
X93542812Y-85071512D01*
X93554831Y-85067738D01*
X93567898Y-85063719D01*
X93581800Y-85059512D01*
X93581941Y-85059523D01*
X93582072Y-85059679D01*
X93582194Y-85060037D01*
X93582307Y-85060651D01*
X93582411Y-85061577D01*
X93582507Y-85062869D01*
X93582594Y-85064584D01*
X93582674Y-85066777D01*
X93582747Y-85069502D01*
X93582813Y-85072816D01*
X93582872Y-85076773D01*
X93582924Y-85081429D01*
X93582971Y-85086838D01*
X93583012Y-85093058D01*
X93583048Y-85100141D01*
X93583079Y-85108145D01*
X93583106Y-85117123D01*
X93583128Y-85127132D01*
X93583147Y-85138227D01*
X93583162Y-85150463D01*
X93583174Y-85163895D01*
X93583183Y-85178579D01*
X93583190Y-85194570D01*
X93583194Y-85211922D01*
X93583197Y-85230693D01*
X93583199Y-85250936D01*
X93583199Y-85272706D01*
X93583200Y-85279590D01*
X93583200Y-85500088D01*
X93578600Y-85502092D01*
X93551581Y-85514180D01*
X93525904Y-85526334D01*
X93501311Y-85538692D01*
X93477544Y-85551394D01*
X93454347Y-85564579D01*
X93431462Y-85578385D01*
X93408631Y-85592951D01*
X93401200Y-85597858D01*
X93367120Y-85621495D01*
X93334056Y-85646340D01*
X93302034Y-85672355D01*
X93271082Y-85699502D01*
X93241230Y-85727743D01*
X93212504Y-85757040D01*
X93184933Y-85787355D01*
X93158545Y-85818649D01*
X93133367Y-85850884D01*
X93109428Y-85884023D01*
X93086757Y-85918028D01*
X93065380Y-85952860D01*
X93045326Y-85988481D01*
X93026623Y-86024853D01*
X93009299Y-86061938D01*
X92993382Y-86099698D01*
X92978900Y-86138095D01*
X92965882Y-86177091D01*
X92959614Y-86197888D01*
X92948764Y-86238091D01*
X92939499Y-86278488D01*
X92931820Y-86319068D01*
X92925730Y-86359818D01*
X92921669Y-86396000D01*
X92920752Y-86405871D01*
X92919968Y-86414816D01*
X92919308Y-86423073D01*
X92918762Y-86430882D01*
X92918319Y-86438483D01*
X92917970Y-86446115D01*
X92917704Y-86454018D01*
X92917511Y-86462431D01*
X92917381Y-86471593D01*
X92917304Y-86481744D01*
X92917270Y-86493123D01*
X92917266Y-86500000D01*
X92917281Y-86512158D01*
X92917333Y-86522955D01*
X92917433Y-86532632D01*
X92917590Y-86541428D01*
X92917814Y-86549582D01*
X92918116Y-86557333D01*
X92918506Y-86564922D01*
X92918994Y-86572587D01*
X92919590Y-86580568D01*
X92920304Y-86589104D01*
X92921147Y-86598436D01*
X92921669Y-86604000D01*
X92926356Y-86644960D01*
X92932615Y-86685671D01*
X92940432Y-86726086D01*
X92949790Y-86766158D01*
X92960676Y-86805839D01*
X92973074Y-86845081D01*
X92986969Y-86883838D01*
X93002346Y-86922062D01*
X93019191Y-86959706D01*
X93037487Y-86996723D01*
X93057220Y-87033065D01*
X93058665Y-87035600D01*
X93080061Y-87071418D01*
X93102769Y-87106333D01*
X93126759Y-87140312D01*
X93152001Y-87173320D01*
X93178466Y-87205323D01*
X93206123Y-87236289D01*
X93234942Y-87266182D01*
X93264895Y-87294969D01*
X93295950Y-87322617D01*
X93328079Y-87349092D01*
X93349600Y-87365711D01*
X93383330Y-87390107D01*
X93417846Y-87413128D01*
X93453106Y-87434758D01*
X93489074Y-87454982D01*
X93525709Y-87473785D01*
X93562974Y-87491153D01*
X93600829Y-87507070D01*
X93639234Y-87521520D01*
X93678153Y-87534489D01*
X93717545Y-87545962D01*
X93757371Y-87555924D01*
X93797594Y-87564359D01*
X93838173Y-87571252D01*
X93879071Y-87576588D01*
X93896000Y-87578330D01*
X93905871Y-87579247D01*
X93914816Y-87580031D01*
X93923073Y-87580691D01*
X93930882Y-87581237D01*
X93938483Y-87581680D01*
X93946115Y-87582029D01*
X93954018Y-87582295D01*
X93962431Y-87582488D01*
X93971593Y-87582618D01*
X93981744Y-87582695D01*
X93993123Y-87582729D01*
X94000000Y-87582733D01*
X94012158Y-87582718D01*
X94022955Y-87582666D01*
X94032632Y-87582566D01*
X94041428Y-87582409D01*
X94049582Y-87582185D01*
X94057333Y-87581883D01*
X94064922Y-87581493D01*
X94072587Y-87581005D01*
X94080568Y-87580409D01*
X94089104Y-87579695D01*
X94098436Y-87578852D01*
X94104000Y-87578330D01*
X94144958Y-87573643D01*
X94185668Y-87567384D01*
X94226082Y-87559568D01*
X94266153Y-87550209D01*
X94305833Y-87539324D01*
X94345075Y-87526926D01*
X94383832Y-87513031D01*
X94422056Y-87497655D01*
X94459699Y-87480811D01*
X94496715Y-87462516D01*
X94533055Y-87442784D01*
X94535600Y-87441334D01*
X94571450Y-87419919D01*
X94606381Y-87397202D01*
X94640363Y-87373209D01*
X94673367Y-87347967D01*
X94705362Y-87321503D01*
X94736320Y-87293845D01*
X94766210Y-87265019D01*
X94795004Y-87235053D01*
X94822672Y-87203973D01*
X94849185Y-87171806D01*
X94874512Y-87138579D01*
X94889226Y-87118003D01*
X94912242Y-87083638D01*
X94933884Y-87048484D01*
X94954134Y-87012586D01*
X94972975Y-86975990D01*
X94990391Y-86938743D01*
X95006365Y-86900890D01*
X95020879Y-86862477D01*
X95033918Y-86823549D01*
X95045463Y-86784154D01*
X95055498Y-86744336D01*
X95064007Y-86704141D01*
X95070972Y-86663616D01*
X95076377Y-86622807D01*
X95078330Y-86604000D01*
X95079247Y-86594128D01*
X95080031Y-86585183D01*
X95080691Y-86576926D01*
X95081237Y-86569117D01*
X95081680Y-86561516D01*
X95082029Y-86553884D01*
X95082295Y-86545981D01*
X95082488Y-86537568D01*
X95082618Y-86528406D01*
X95082695Y-86518255D01*
X95082729Y-86506876D01*
X95082733Y-86500000D01*
X95082718Y-86487841D01*
X95082666Y-86477044D01*
X95082566Y-86467367D01*
X95082409Y-86458571D01*
X95082185Y-86450417D01*
X95081883Y-86442666D01*
X95081493Y-86435077D01*
X95081005Y-86427412D01*
X95080409Y-86419431D01*
X95079695Y-86410895D01*
X95078852Y-86401563D01*
X95078330Y-86396000D01*
X95073655Y-86355131D01*
X95067424Y-86314578D01*
X95059657Y-86274380D01*
X95050376Y-86234578D01*
X95039601Y-86195213D01*
X95027353Y-86156326D01*
X95013652Y-86117957D01*
X94998519Y-86080149D01*
X94981974Y-86042941D01*
X94964038Y-86006374D01*
X94944731Y-85970490D01*
X94924075Y-85935329D01*
X94902090Y-85900932D01*
X94878796Y-85867340D01*
X94854214Y-85834594D01*
X94828365Y-85802735D01*
X94801269Y-85771803D01*
X94772947Y-85741839D01*
X94743419Y-85712885D01*
X94725737Y-85696559D01*
X94695108Y-85669932D01*
X94663440Y-85644411D01*
X94630825Y-85620058D01*
X94597358Y-85596932D01*
X94563130Y-85575094D01*
X94528236Y-85554604D01*
X94492766Y-85535523D01*
X94456816Y-85517910D01*
X94435200Y-85508136D01*
X94417200Y-85500250D01*
X94416998Y-85279670D01*
X94416978Y-85257424D01*
X94416960Y-85236722D01*
X94416945Y-85217509D01*
X94416933Y-85199731D01*
X94416924Y-85183331D01*
X94416919Y-85168255D01*
X94416917Y-85154448D01*
X94416920Y-85141853D01*
X94416927Y-85130416D01*
X94416938Y-85120082D01*
X94416955Y-85110795D01*
X94416977Y-85102499D01*
X94417005Y-85095141D01*
X94417038Y-85088663D01*
X94417078Y-85083012D01*
X94417124Y-85078132D01*
X94417177Y-85073966D01*
X94417238Y-85070462D01*
X94417305Y-85067562D01*
X94417381Y-85065211D01*
X94417464Y-85063355D01*
X94417556Y-85061939D01*
X94417657Y-85060905D01*
X94417766Y-85060201D01*
X94417885Y-85059770D01*
X94418013Y-85059556D01*
X94418151Y-85059506D01*
X94418198Y-85059515D01*
G37*
%TD*%
M02*
