%TF.GenerationSoftware,KiCad,Pcbnew,8.0.5*%
%TF.CreationDate,2025-08-28T07:35:48+02:00*%
%TF.ProjectId,SVX_Node_Case_front,5356585f-4e6f-4646-955f-436173655f66,rev?*%
%TF.SameCoordinates,Original*%
%TF.FileFunction,Copper,L2,Bot*%
%TF.FilePolarity,Positive*%
%FSLAX46Y46*%
G04 Gerber Fmt 4.6, Leading zero omitted, Abs format (unit mm)*
G04 Created by KiCad (PCBNEW 8.0.5) date 2025-08-28 07:35:48*
%MOMM*%
%LPD*%
G01*
G04 APERTURE LIST*
G04 Aperture macros list*
%AMRoundRect*
0 Rectangle with rounded corners*
0 $1 Rounding radius*
0 $2 $3 $4 $5 $6 $7 $8 $9 X,Y pos of 4 corners*
0 Add a 4 corners polygon primitive as box body*
4,1,4,$2,$3,$4,$5,$6,$7,$8,$9,$2,$3,0*
0 Add four circle primitives for the rounded corners*
1,1,$1+$1,$2,$3*
1,1,$1+$1,$4,$5*
1,1,$1+$1,$6,$7*
1,1,$1+$1,$8,$9*
0 Add four rect primitives between the rounded corners*
20,1,$1+$1,$2,$3,$4,$5,0*
20,1,$1+$1,$4,$5,$6,$7,0*
20,1,$1+$1,$6,$7,$8,$9,0*
20,1,$1+$1,$8,$9,$2,$3,0*%
G04 Aperture macros list end*
%TA.AperFunction,SMDPad,CuDef*%
%ADD10RoundRect,0.243750X-0.243750X-0.456250X0.243750X-0.456250X0.243750X0.456250X-0.243750X0.456250X0*%
%TD*%
%TA.AperFunction,SMDPad,CuDef*%
%ADD11R,1.295400X4.495800*%
%TD*%
%TA.AperFunction,SMDPad,CuDef*%
%ADD12R,1.803400X3.911600*%
%TD*%
%TA.AperFunction,SMDPad,CuDef*%
%ADD13RoundRect,0.250000X0.350000X0.450000X-0.350000X0.450000X-0.350000X-0.450000X0.350000X-0.450000X0*%
%TD*%
%TA.AperFunction,SMDPad,CuDef*%
%ADD14R,1.600000X1.400000*%
%TD*%
%TA.AperFunction,Conductor*%
%ADD15C,0.200000*%
%TD*%
G04 APERTURE END LIST*
D10*
%TO.P,D1,1*%
%TO.N,GND*%
X111920923Y-89350000D03*
%TO.P,D1,2*%
%TO.N,N/C*%
X113795923Y-89350000D03*
%TD*%
D11*
%TO.P,J1,1*%
%TO.N,N/C*%
X129400000Y-99050000D03*
%TO.P,J1,2*%
X131900000Y-99050000D03*
%TO.P,J1,3*%
X134400000Y-99050000D03*
%TO.P,J1,4*%
X136900000Y-99050000D03*
%TO.P,J1,5*%
X139400000Y-99050000D03*
%TO.P,J1,6*%
%TO.N,GND*%
X141900000Y-99050000D03*
D12*
%TO.P,J1,7*%
X126200001Y-92250000D03*
%TO.P,J1,8*%
X145099999Y-92250000D03*
%TD*%
D13*
%TO.P,R1,1*%
%TO.N,N/C*%
X117760000Y-89350000D03*
%TO.P,R1,2*%
X115760000Y-89350000D03*
%TD*%
%TO.P,R2,1*%
%TO.N,N/C*%
X108850000Y-89350000D03*
%TO.P,R2,2*%
X106850000Y-89350000D03*
%TD*%
D14*
%TO.P,S1,1*%
%TO.N,GND*%
X98000000Y-89500000D03*
X90000000Y-89500000D03*
%TO.P,S1,2*%
%TO.N,N/C*%
X98000000Y-94000000D03*
X90000000Y-94000000D03*
%TD*%
D10*
%TO.P,D4,1*%
%TO.N,GND*%
X103020923Y-94260000D03*
%TO.P,D4,2*%
%TO.N,N/C*%
X104895923Y-94260000D03*
%TD*%
D13*
%TO.P,R3,1*%
%TO.N,N/C*%
X117770000Y-94260000D03*
%TO.P,R3,2*%
X115770000Y-94260000D03*
%TD*%
D10*
%TO.P,D3,1*%
%TO.N,GND*%
X111930923Y-94260000D03*
%TO.P,D3,2*%
%TO.N,N/C*%
X113805923Y-94260000D03*
%TD*%
%TO.P,D2,1*%
%TO.N,GND*%
X103010923Y-89350000D03*
%TO.P,D2,2*%
%TO.N,N/C*%
X104885923Y-89350000D03*
%TD*%
D13*
%TO.P,R4,1*%
%TO.N,N/C*%
X108860000Y-94260000D03*
%TO.P,R4,2*%
X106860000Y-94260000D03*
%TD*%
D15*
%TO.N,*%
X109000000Y-91000000D02*
X108850000Y-90850000D01*
X98000000Y-104850000D02*
X98000000Y-94150000D01*
X108860000Y-95860000D02*
X108860000Y-94260000D01*
X108850000Y-90850000D02*
X108850000Y-89350000D01*
X117770000Y-94260000D02*
X118760000Y-94260000D01*
X106760000Y-89360000D02*
X106750000Y-89350000D01*
X131900000Y-103475000D02*
X131625000Y-103750000D01*
X139400000Y-99050000D02*
X139400000Y-105000000D01*
X134100000Y-104250000D02*
X134400000Y-103950000D01*
X119850000Y-89350000D02*
X120000000Y-89500000D01*
X113805923Y-94260000D02*
X115770000Y-94260000D01*
X90000000Y-94000000D02*
X98000000Y-94000000D01*
X120000000Y-103000000D02*
X120250000Y-103250000D01*
X107060000Y-94260000D02*
X107070000Y-94270000D01*
X115670000Y-89360000D02*
X115660000Y-89350000D01*
X134400000Y-103950000D02*
X134400000Y-99050000D01*
X119000000Y-94500000D02*
X119000000Y-104000000D01*
X113795923Y-89350000D02*
X115760000Y-89350000D01*
X115680000Y-94270000D02*
X115670000Y-94260000D01*
X139150000Y-105250000D02*
X98400000Y-105250000D01*
X118250000Y-96000000D02*
X109000000Y-96000000D01*
X118750000Y-104750000D02*
X118500000Y-104500000D01*
X118500000Y-104500000D02*
X118500000Y-96250000D01*
X136900000Y-104350000D02*
X136500000Y-104750000D01*
X115960000Y-89350000D02*
X115970000Y-89360000D01*
X131625000Y-103750000D02*
X119750000Y-103750000D01*
X129400000Y-103000000D02*
X129400000Y-99050000D01*
X109000000Y-96000000D02*
X108860000Y-95860000D01*
X118500000Y-96250000D02*
X118250000Y-96000000D01*
X139400000Y-105000000D02*
X139150000Y-105250000D01*
X117760000Y-89350000D02*
X119850000Y-89350000D01*
X118760000Y-94260000D02*
X119000000Y-94500000D01*
X115970000Y-94260000D02*
X115980000Y-94270000D01*
X129150000Y-103250000D02*
X129400000Y-103000000D01*
X104885923Y-89350000D02*
X106850000Y-89350000D01*
X119500000Y-91250000D02*
X119250000Y-91000000D01*
X119750000Y-103750000D02*
X119500000Y-103500000D01*
X98400000Y-105250000D02*
X98000000Y-104850000D01*
X107050000Y-89350000D02*
X107060000Y-89360000D01*
X119000000Y-104000000D02*
X119250000Y-104250000D01*
X120250000Y-103250000D02*
X129150000Y-103250000D01*
X119500000Y-103500000D02*
X119500000Y-91250000D01*
X119250000Y-91000000D02*
X109000000Y-91000000D01*
X120000000Y-89500000D02*
X120000000Y-103000000D01*
X131900000Y-99050000D02*
X131900000Y-103475000D01*
X119250000Y-104250000D02*
X134100000Y-104250000D01*
X136900000Y-99050000D02*
X136900000Y-104350000D01*
X136500000Y-104750000D02*
X118750000Y-104750000D01*
X106770000Y-94270000D02*
X106760000Y-94260000D01*
X104895923Y-94260000D02*
X106860000Y-94260000D01*
%TD*%
%TA.AperFunction,Conductor*%
%TO.N,GND*%
G36*
X218942539Y-64520185D02*
G01*
X218988294Y-64572989D01*
X218999500Y-64624500D01*
X218999500Y-117375500D01*
X218979815Y-117442539D01*
X218927011Y-117488294D01*
X218875500Y-117499500D01*
X75124500Y-117499500D01*
X75057461Y-117479815D01*
X75011706Y-117427011D01*
X75000500Y-117375500D01*
X75000500Y-113315186D01*
X76649500Y-113315186D01*
X76649500Y-113584813D01*
X76679686Y-113852719D01*
X76679688Y-113852731D01*
X76739684Y-114115594D01*
X76739687Y-114115602D01*
X76828734Y-114370082D01*
X76945714Y-114612994D01*
X76945716Y-114612997D01*
X77089162Y-114841289D01*
X77257266Y-115052085D01*
X77447915Y-115242734D01*
X77658711Y-115410838D01*
X77887003Y-115554284D01*
X78129921Y-115671267D01*
X78321049Y-115738145D01*
X78384397Y-115760312D01*
X78384405Y-115760315D01*
X78384408Y-115760315D01*
X78384409Y-115760316D01*
X78647268Y-115820312D01*
X78915187Y-115850499D01*
X78915188Y-115850500D01*
X78915191Y-115850500D01*
X79184812Y-115850500D01*
X79184812Y-115850499D01*
X79452732Y-115820312D01*
X79715591Y-115760316D01*
X79970079Y-115671267D01*
X80212997Y-115554284D01*
X80441289Y-115410838D01*
X80652085Y-115242734D01*
X80842734Y-115052085D01*
X81010838Y-114841289D01*
X81154284Y-114612997D01*
X81271267Y-114370079D01*
X81360316Y-114115591D01*
X81420312Y-113852732D01*
X81450500Y-113584809D01*
X81450500Y-113315191D01*
X81450499Y-113315186D01*
X212529500Y-113315186D01*
X212529500Y-113584813D01*
X212559686Y-113852719D01*
X212559688Y-113852731D01*
X212619684Y-114115594D01*
X212619687Y-114115602D01*
X212708734Y-114370082D01*
X212825714Y-114612994D01*
X212825716Y-114612997D01*
X212969162Y-114841289D01*
X213137266Y-115052085D01*
X213327915Y-115242734D01*
X213538711Y-115410838D01*
X213767003Y-115554284D01*
X214009921Y-115671267D01*
X214201049Y-115738145D01*
X214264397Y-115760312D01*
X214264405Y-115760315D01*
X214264408Y-115760315D01*
X214264409Y-115760316D01*
X214527268Y-115820312D01*
X214795187Y-115850499D01*
X214795188Y-115850500D01*
X214795191Y-115850500D01*
X215064812Y-115850500D01*
X215064812Y-115850499D01*
X215332732Y-115820312D01*
X215595591Y-115760316D01*
X215850079Y-115671267D01*
X216092997Y-115554284D01*
X216321289Y-115410838D01*
X216532085Y-115242734D01*
X216722734Y-115052085D01*
X216890838Y-114841289D01*
X217034284Y-114612997D01*
X217151267Y-114370079D01*
X217240316Y-114115591D01*
X217300312Y-113852732D01*
X217330500Y-113584809D01*
X217330500Y-113315191D01*
X217300312Y-113047268D01*
X217240316Y-112784409D01*
X217151267Y-112529921D01*
X217034284Y-112287003D01*
X216890838Y-112058711D01*
X216722734Y-111847915D01*
X216532085Y-111657266D01*
X216321289Y-111489162D01*
X216092997Y-111345716D01*
X216092994Y-111345714D01*
X215850082Y-111228734D01*
X215595602Y-111139687D01*
X215595594Y-111139684D01*
X215398446Y-111094687D01*
X215332732Y-111079688D01*
X215332728Y-111079687D01*
X215332719Y-111079686D01*
X215064813Y-111049500D01*
X215064809Y-111049500D01*
X214795191Y-111049500D01*
X214795186Y-111049500D01*
X214527280Y-111079686D01*
X214527268Y-111079688D01*
X214264405Y-111139684D01*
X214264397Y-111139687D01*
X214009917Y-111228734D01*
X213767005Y-111345714D01*
X213538712Y-111489161D01*
X213327915Y-111657265D01*
X213137265Y-111847915D01*
X212969161Y-112058712D01*
X212825714Y-112287005D01*
X212708734Y-112529917D01*
X212619687Y-112784397D01*
X212619684Y-112784405D01*
X212559688Y-113047268D01*
X212559686Y-113047280D01*
X212529500Y-113315186D01*
X81450499Y-113315186D01*
X81420312Y-113047268D01*
X81360316Y-112784409D01*
X81271267Y-112529921D01*
X81154284Y-112287003D01*
X81010838Y-112058711D01*
X80842734Y-111847915D01*
X80652085Y-111657266D01*
X80441289Y-111489162D01*
X80212997Y-111345716D01*
X80212994Y-111345714D01*
X79970082Y-111228734D01*
X79715602Y-111139687D01*
X79715594Y-111139684D01*
X79518446Y-111094687D01*
X79452732Y-111079688D01*
X79452728Y-111079687D01*
X79452719Y-111079686D01*
X79184813Y-111049500D01*
X79184809Y-111049500D01*
X78915191Y-111049500D01*
X78915186Y-111049500D01*
X78647280Y-111079686D01*
X78647268Y-111079688D01*
X78384405Y-111139684D01*
X78384397Y-111139687D01*
X78129917Y-111228734D01*
X77887005Y-111345714D01*
X77658712Y-111489161D01*
X77447915Y-111657265D01*
X77257265Y-111847915D01*
X77089161Y-112058712D01*
X76945714Y-112287005D01*
X76828734Y-112529917D01*
X76739687Y-112784397D01*
X76739684Y-112784405D01*
X76679688Y-113047268D01*
X76679686Y-113047280D01*
X76649500Y-113315186D01*
X75000500Y-113315186D01*
X75000500Y-93252135D01*
X88699500Y-93252135D01*
X88699500Y-94747870D01*
X88699501Y-94747876D01*
X88705908Y-94807483D01*
X88756202Y-94942328D01*
X88756206Y-94942335D01*
X88842452Y-95057544D01*
X88842455Y-95057547D01*
X88957664Y-95143793D01*
X88957671Y-95143797D01*
X89092517Y-95194091D01*
X89092516Y-95194091D01*
X89099444Y-95194835D01*
X89152127Y-95200500D01*
X90847872Y-95200499D01*
X90907483Y-95194091D01*
X91042331Y-95143796D01*
X91157546Y-95057546D01*
X91243796Y-94942331D01*
X91294091Y-94807483D01*
X91300500Y-94747873D01*
X91300500Y-94724500D01*
X91320185Y-94657461D01*
X91372989Y-94611706D01*
X91424500Y-94600500D01*
X96575501Y-94600500D01*
X96642540Y-94620185D01*
X96688295Y-94672989D01*
X96699501Y-94724500D01*
X96699501Y-94747876D01*
X96705908Y-94807483D01*
X96756202Y-94942328D01*
X96756206Y-94942335D01*
X96842452Y-95057544D01*
X96842455Y-95057547D01*
X96957664Y-95143793D01*
X96957671Y-95143797D01*
X97002618Y-95160561D01*
X97092517Y-95194091D01*
X97152127Y-95200500D01*
X97275500Y-95200499D01*
X97342539Y-95220183D01*
X97388294Y-95272987D01*
X97399500Y-95324499D01*
X97399500Y-104763330D01*
X97399499Y-104763348D01*
X97399499Y-104929054D01*
X97399498Y-104929054D01*
X97440423Y-105081785D01*
X97469358Y-105131900D01*
X97469359Y-105131904D01*
X97469360Y-105131904D01*
X97519479Y-105218714D01*
X97519481Y-105218717D01*
X97638349Y-105337585D01*
X97638355Y-105337590D01*
X97915139Y-105614374D01*
X97915149Y-105614385D01*
X97919479Y-105618715D01*
X97919480Y-105618716D01*
X98031284Y-105730520D01*
X98031286Y-105730521D01*
X98031290Y-105730524D01*
X98168209Y-105809573D01*
X98168216Y-105809577D01*
X98280019Y-105839534D01*
X98320942Y-105850500D01*
X98320943Y-105850500D01*
X139063331Y-105850500D01*
X139063347Y-105850501D01*
X139070943Y-105850501D01*
X139229054Y-105850501D01*
X139229057Y-105850501D01*
X139381785Y-105809577D01*
X139431904Y-105780639D01*
X139518716Y-105730520D01*
X139630520Y-105618716D01*
X139630520Y-105618714D01*
X139640728Y-105608507D01*
X139640730Y-105608504D01*
X139758506Y-105490728D01*
X139758511Y-105490724D01*
X139768714Y-105480520D01*
X139768716Y-105480520D01*
X139880520Y-105368716D01*
X139959577Y-105231784D01*
X139989873Y-105118716D01*
X140000500Y-105079058D01*
X140000500Y-104920943D01*
X140000500Y-101920004D01*
X140020185Y-101852965D01*
X140072989Y-101807210D01*
X140111247Y-101796714D01*
X140155183Y-101791991D01*
X140290028Y-101741697D01*
X140290027Y-101741697D01*
X140290031Y-101741696D01*
X140405246Y-101655446D01*
X140491496Y-101540231D01*
X140491588Y-101539986D01*
X140534084Y-101426046D01*
X140575954Y-101370112D01*
X140641418Y-101345694D01*
X140709692Y-101360545D01*
X140759097Y-101409950D01*
X140766448Y-101426045D01*
X140808945Y-101539986D01*
X140808949Y-101539993D01*
X140895109Y-101655087D01*
X140895112Y-101655090D01*
X141010206Y-101741250D01*
X141010213Y-101741254D01*
X141144920Y-101791496D01*
X141144927Y-101791498D01*
X141204455Y-101797899D01*
X141204472Y-101797900D01*
X141650000Y-101797900D01*
X142150000Y-101797900D01*
X142595528Y-101797900D01*
X142595544Y-101797899D01*
X142655072Y-101791498D01*
X142655079Y-101791496D01*
X142789786Y-101741254D01*
X142789793Y-101741250D01*
X142904887Y-101655090D01*
X142904890Y-101655087D01*
X142991050Y-101539993D01*
X142991054Y-101539986D01*
X143041296Y-101405279D01*
X143041298Y-101405272D01*
X143047699Y-101345744D01*
X143047700Y-101345727D01*
X143047700Y-99300000D01*
X142150000Y-99300000D01*
X142150000Y-101797900D01*
X141650000Y-101797900D01*
X141650000Y-98800000D01*
X142150000Y-98800000D01*
X143047700Y-98800000D01*
X143047700Y-96754272D01*
X143047699Y-96754255D01*
X143041298Y-96694727D01*
X143041296Y-96694720D01*
X142991054Y-96560013D01*
X142991050Y-96560006D01*
X142904890Y-96444912D01*
X142904887Y-96444909D01*
X142789793Y-96358749D01*
X142789786Y-96358745D01*
X142655079Y-96308503D01*
X142655072Y-96308501D01*
X142595544Y-96302100D01*
X142150000Y-96302100D01*
X142150000Y-98800000D01*
X141650000Y-98800000D01*
X141650000Y-96302100D01*
X141204455Y-96302100D01*
X141144927Y-96308501D01*
X141144920Y-96308503D01*
X141010213Y-96358745D01*
X141010206Y-96358749D01*
X140895112Y-96444909D01*
X140895109Y-96444912D01*
X140808949Y-96560006D01*
X140808946Y-96560011D01*
X140766448Y-96673955D01*
X140724576Y-96729888D01*
X140659112Y-96754305D01*
X140590839Y-96739453D01*
X140541434Y-96690048D01*
X140534084Y-96673953D01*
X140491498Y-96559773D01*
X140491493Y-96559764D01*
X140405247Y-96444555D01*
X140405244Y-96444552D01*
X140290035Y-96358306D01*
X140290028Y-96358302D01*
X140155182Y-96308008D01*
X140155183Y-96308008D01*
X140095583Y-96301601D01*
X140095581Y-96301600D01*
X140095573Y-96301600D01*
X140095564Y-96301600D01*
X138704429Y-96301600D01*
X138704423Y-96301601D01*
X138644816Y-96308008D01*
X138509971Y-96358302D01*
X138509964Y-96358306D01*
X138394755Y-96444552D01*
X138394752Y-96444555D01*
X138308506Y-96559764D01*
X138308502Y-96559771D01*
X138266182Y-96673239D01*
X138224311Y-96729173D01*
X138158847Y-96753590D01*
X138090574Y-96738738D01*
X138041168Y-96689333D01*
X138033818Y-96673239D01*
X137991497Y-96559771D01*
X137991493Y-96559764D01*
X137905247Y-96444555D01*
X137905244Y-96444552D01*
X137790035Y-96358306D01*
X137790028Y-96358302D01*
X137655182Y-96308008D01*
X137655183Y-96308008D01*
X137595583Y-96301601D01*
X137595581Y-96301600D01*
X137595573Y-96301600D01*
X137595564Y-96301600D01*
X136204429Y-96301600D01*
X136204423Y-96301601D01*
X136144816Y-96308008D01*
X136009971Y-96358302D01*
X136009964Y-96358306D01*
X135894755Y-96444552D01*
X135894752Y-96444555D01*
X135808506Y-96559764D01*
X135808502Y-96559771D01*
X135766182Y-96673239D01*
X135724311Y-96729173D01*
X135658847Y-96753590D01*
X135590574Y-96738738D01*
X135541168Y-96689333D01*
X135533818Y-96673239D01*
X135491497Y-96559771D01*
X135491493Y-96559764D01*
X135405247Y-96444555D01*
X135405244Y-96444552D01*
X135290035Y-96358306D01*
X135290028Y-96358302D01*
X135155182Y-96308008D01*
X135155183Y-96308008D01*
X135095583Y-96301601D01*
X135095581Y-96301600D01*
X135095573Y-96301600D01*
X135095564Y-96301600D01*
X133704429Y-96301600D01*
X133704423Y-96301601D01*
X133644816Y-96308008D01*
X133509971Y-96358302D01*
X133509964Y-96358306D01*
X133394755Y-96444552D01*
X133394752Y-96444555D01*
X133308506Y-96559764D01*
X133308502Y-96559771D01*
X133266182Y-96673239D01*
X133224311Y-96729173D01*
X133158847Y-96753590D01*
X133090574Y-96738738D01*
X133041168Y-96689333D01*
X133033818Y-96673239D01*
X132991497Y-96559771D01*
X132991493Y-96559764D01*
X132905247Y-96444555D01*
X132905244Y-96444552D01*
X132790035Y-96358306D01*
X132790028Y-96358302D01*
X132655182Y-96308008D01*
X132655183Y-96308008D01*
X132595583Y-96301601D01*
X132595581Y-96301600D01*
X132595573Y-96301600D01*
X132595564Y-96301600D01*
X131204429Y-96301600D01*
X131204423Y-96301601D01*
X131144816Y-96308008D01*
X131009971Y-96358302D01*
X131009964Y-96358306D01*
X130894755Y-96444552D01*
X130894752Y-96444555D01*
X130808506Y-96559764D01*
X130808502Y-96559771D01*
X130766182Y-96673239D01*
X130724311Y-96729173D01*
X130658847Y-96753590D01*
X130590574Y-96738738D01*
X130541168Y-96689333D01*
X130533818Y-96673239D01*
X130491497Y-96559771D01*
X130491493Y-96559764D01*
X130405247Y-96444555D01*
X130405244Y-96444552D01*
X130290035Y-96358306D01*
X130290028Y-96358302D01*
X130155182Y-96308008D01*
X130155183Y-96308008D01*
X130095583Y-96301601D01*
X130095581Y-96301600D01*
X130095573Y-96301600D01*
X130095564Y-96301600D01*
X128704429Y-96301600D01*
X128704423Y-96301601D01*
X128644816Y-96308008D01*
X128509971Y-96358302D01*
X128509964Y-96358306D01*
X128394755Y-96444552D01*
X128394752Y-96444555D01*
X128308506Y-96559764D01*
X128308502Y-96559771D01*
X128258208Y-96694617D01*
X128251801Y-96754216D01*
X128251800Y-96754235D01*
X128251800Y-101345770D01*
X128251801Y-101345776D01*
X128258208Y-101405383D01*
X128308502Y-101540228D01*
X128308506Y-101540235D01*
X128394752Y-101655444D01*
X128394755Y-101655447D01*
X128509964Y-101741693D01*
X128509971Y-101741697D01*
X128554918Y-101758461D01*
X128644817Y-101791991D01*
X128688758Y-101796715D01*
X128753306Y-101823452D01*
X128793154Y-101880845D01*
X128799500Y-101920004D01*
X128799500Y-102525500D01*
X128779815Y-102592539D01*
X128727011Y-102638294D01*
X128675500Y-102649500D01*
X120724500Y-102649500D01*
X120657461Y-102629815D01*
X120611706Y-102577011D01*
X120600500Y-102525500D01*
X120600500Y-94253644D01*
X124798301Y-94253644D01*
X124804702Y-94313172D01*
X124804704Y-94313179D01*
X124854946Y-94447886D01*
X124854950Y-94447893D01*
X124941110Y-94562987D01*
X124941113Y-94562990D01*
X125056207Y-94649150D01*
X125056214Y-94649154D01*
X125190921Y-94699396D01*
X125190928Y-94699398D01*
X125250456Y-94705799D01*
X125250473Y-94705800D01*
X125950001Y-94705800D01*
X126450001Y-94705800D01*
X127149529Y-94705800D01*
X127149545Y-94705799D01*
X127209073Y-94699398D01*
X127209080Y-94699396D01*
X127343787Y-94649154D01*
X127343794Y-94649150D01*
X127458888Y-94562990D01*
X127458891Y-94562987D01*
X127545051Y-94447893D01*
X127545055Y-94447886D01*
X127595297Y-94313179D01*
X127595299Y-94313172D01*
X127601700Y-94253644D01*
X143698299Y-94253644D01*
X143704700Y-94313172D01*
X143704702Y-94313179D01*
X143754944Y-94447886D01*
X143754948Y-94447893D01*
X143841108Y-94562987D01*
X143841111Y-94562990D01*
X143956205Y-94649150D01*
X143956212Y-94649154D01*
X144090919Y-94699396D01*
X144090926Y-94699398D01*
X144150454Y-94705799D01*
X144150471Y-94705800D01*
X144849999Y-94705800D01*
X145349999Y-94705800D01*
X146049527Y-94705800D01*
X146049543Y-94705799D01*
X146109071Y-94699398D01*
X146109078Y-94699396D01*
X146243785Y-94649154D01*
X146243792Y-94649150D01*
X146358886Y-94562990D01*
X146358889Y-94562987D01*
X146445049Y-94447893D01*
X146445053Y-94447886D01*
X146495295Y-94313179D01*
X146495297Y-94313172D01*
X146501698Y-94253644D01*
X146501699Y-94253627D01*
X146501699Y-92500000D01*
X145349999Y-92500000D01*
X145349999Y-94705800D01*
X144849999Y-94705800D01*
X144849999Y-92500000D01*
X143698299Y-92500000D01*
X143698299Y-94253644D01*
X127601700Y-94253644D01*
X127601701Y-94253627D01*
X127601701Y-92500000D01*
X126450001Y-92500000D01*
X126450001Y-94705800D01*
X125950001Y-94705800D01*
X125950001Y-92500000D01*
X124798301Y-92500000D01*
X124798301Y-94253644D01*
X120600500Y-94253644D01*
X120600500Y-90246355D01*
X124798301Y-90246355D01*
X124798301Y-92000000D01*
X125950001Y-92000000D01*
X126450001Y-92000000D01*
X127601701Y-92000000D01*
X127601701Y-90246372D01*
X127601700Y-90246355D01*
X143698299Y-90246355D01*
X143698299Y-92000000D01*
X144849999Y-92000000D01*
X145349999Y-92000000D01*
X146501699Y-92000000D01*
X146501699Y-91624997D01*
X173869909Y-91624997D01*
X173869909Y-91625002D01*
X173888258Y-91963422D01*
X173888259Y-91963439D01*
X173943087Y-92297868D01*
X173943093Y-92297894D01*
X174033757Y-92624438D01*
X174033759Y-92624444D01*
X174159205Y-92939288D01*
X174159214Y-92939307D01*
X174317960Y-93238732D01*
X174317963Y-93238737D01*
X174317965Y-93238740D01*
X174377360Y-93326340D01*
X174508154Y-93519247D01*
X174508157Y-93519251D01*
X174508164Y-93519261D01*
X174688293Y-93731322D01*
X174727578Y-93777572D01*
X174973626Y-94010639D01*
X174973635Y-94010647D01*
X175243445Y-94215750D01*
X175243450Y-94215753D01*
X175533859Y-94390483D01*
X175841457Y-94532791D01*
X175841458Y-94532791D01*
X175841464Y-94532794D01*
X175841471Y-94532796D01*
X176162631Y-94641004D01*
X176162637Y-94641006D01*
X176427918Y-94699396D01*
X176493636Y-94713861D01*
X176830571Y-94750502D01*
X177000032Y-94750500D01*
X177065924Y-94750500D01*
X191934136Y-94750500D01*
X191934140Y-94750501D01*
X192000032Y-94750500D01*
X192065919Y-94750500D01*
X192090582Y-94750500D01*
X192090586Y-94750499D01*
X192169486Y-94750499D01*
X192169491Y-94750499D01*
X192506421Y-94713852D01*
X192837414Y-94640992D01*
X193158589Y-94532773D01*
X193466181Y-94390463D01*
X193756583Y-94215731D01*
X194026392Y-94010625D01*
X194272443Y-93777551D01*
X194491852Y-93519240D01*
X194682047Y-93238721D01*
X194840797Y-92939283D01*
X194966243Y-92624437D01*
X195056912Y-92297873D01*
X195077079Y-92174858D01*
X195111741Y-91963434D01*
X195111742Y-91963425D01*
X195111743Y-91963420D01*
X195130091Y-91625000D01*
X195111743Y-91286580D01*
X195100617Y-91218717D01*
X195056914Y-90952139D01*
X195056913Y-90952138D01*
X195056912Y-90952127D01*
X194971183Y-90643354D01*
X194966246Y-90625573D01*
X194966244Y-90625566D01*
X194954973Y-90597279D01*
X194840797Y-90310717D01*
X194682047Y-90011279D01*
X194491852Y-89730760D01*
X194272443Y-89472449D01*
X194263827Y-89464287D01*
X194026402Y-89239384D01*
X194026397Y-89239380D01*
X194026392Y-89239375D01*
X193756583Y-89034269D01*
X193756584Y-89034269D01*
X193756582Y-89034268D01*
X193466178Y-88859535D01*
X193349398Y-88805506D01*
X193158589Y-88717227D01*
X192837414Y-88609008D01*
X192837410Y-88609007D01*
X192837407Y-88609006D01*
X192506419Y-88536147D01*
X192169491Y-88499501D01*
X192169486Y-88499500D01*
X192065920Y-88499500D01*
X192065919Y-88499500D01*
X192000032Y-88499500D01*
X191934140Y-88499499D01*
X191934139Y-88499499D01*
X191926546Y-88499499D01*
X191926530Y-88499500D01*
X177000032Y-88499500D01*
X176830577Y-88499498D01*
X176830567Y-88499498D01*
X176493636Y-88536138D01*
X176162637Y-88608993D01*
X176162631Y-88608995D01*
X175841471Y-88717203D01*
X175841464Y-88717205D01*
X175683205Y-88790423D01*
X175533859Y-88859517D01*
X175533856Y-88859518D01*
X175533849Y-88859522D01*
X175243445Y-89034249D01*
X174973635Y-89239352D01*
X174973626Y-89239360D01*
X174727578Y-89472427D01*
X174508165Y-89730738D01*
X174508154Y-89730752D01*
X174317966Y-90011258D01*
X174317960Y-90011267D01*
X174159214Y-90310692D01*
X174159205Y-90310711D01*
X174033759Y-90625555D01*
X174033757Y-90625561D01*
X173943093Y-90952105D01*
X173943087Y-90952131D01*
X173888259Y-91286560D01*
X173888258Y-91286573D01*
X173888258Y-91286575D01*
X173885875Y-91330520D01*
X173869909Y-91624997D01*
X146501699Y-91624997D01*
X146501699Y-90246372D01*
X146501698Y-90246355D01*
X146495297Y-90186827D01*
X146495295Y-90186820D01*
X146445053Y-90052113D01*
X146445049Y-90052106D01*
X146358889Y-89937012D01*
X146358886Y-89937009D01*
X146243792Y-89850849D01*
X146243785Y-89850845D01*
X146109078Y-89800603D01*
X146109071Y-89800601D01*
X146049543Y-89794200D01*
X145349999Y-89794200D01*
X145349999Y-92000000D01*
X144849999Y-92000000D01*
X144849999Y-89794200D01*
X144150454Y-89794200D01*
X144090926Y-89800601D01*
X144090919Y-89800603D01*
X143956212Y-89850845D01*
X143956205Y-89850849D01*
X143841111Y-89937009D01*
X143841108Y-89937012D01*
X143754948Y-90052106D01*
X143754944Y-90052113D01*
X143704702Y-90186820D01*
X143704700Y-90186827D01*
X143698299Y-90246355D01*
X127601700Y-90246355D01*
X127595299Y-90186827D01*
X127595297Y-90186820D01*
X127545055Y-90052113D01*
X127545051Y-90052106D01*
X127458891Y-89937012D01*
X127458888Y-89937009D01*
X127343794Y-89850849D01*
X127343787Y-89850845D01*
X127209080Y-89800603D01*
X127209073Y-89800601D01*
X127149545Y-89794200D01*
X126450001Y-89794200D01*
X126450001Y-92000000D01*
X125950001Y-92000000D01*
X125950001Y-89794200D01*
X125250456Y-89794200D01*
X125190928Y-89800601D01*
X125190921Y-89800603D01*
X125056214Y-89850845D01*
X125056207Y-89850849D01*
X124941113Y-89937009D01*
X124941110Y-89937012D01*
X124854950Y-90052106D01*
X124854946Y-90052113D01*
X124804704Y-90186820D01*
X124804702Y-90186827D01*
X124798301Y-90246355D01*
X120600500Y-90246355D01*
X120600500Y-89589059D01*
X120600501Y-89589046D01*
X120600501Y-89420945D01*
X120600501Y-89420943D01*
X120559577Y-89268215D01*
X120530639Y-89218095D01*
X120480520Y-89131284D01*
X120368716Y-89019480D01*
X120368715Y-89019479D01*
X120364385Y-89015149D01*
X120364374Y-89015139D01*
X120337590Y-88988355D01*
X120337588Y-88988352D01*
X120218717Y-88869481D01*
X120218716Y-88869480D01*
X120110184Y-88806819D01*
X120110184Y-88806818D01*
X120110181Y-88806818D01*
X120081785Y-88790423D01*
X119929057Y-88749499D01*
X119770943Y-88749499D01*
X119763347Y-88749499D01*
X119763331Y-88749500D01*
X118940301Y-88749500D01*
X118873262Y-88729815D01*
X118827507Y-88677011D01*
X118822595Y-88664504D01*
X118794814Y-88580666D01*
X118702712Y-88431344D01*
X118578656Y-88307288D01*
X118459770Y-88233959D01*
X118429336Y-88215187D01*
X118429331Y-88215185D01*
X118427677Y-88214637D01*
X118262797Y-88160001D01*
X118262795Y-88160000D01*
X118160010Y-88149500D01*
X117359998Y-88149500D01*
X117359980Y-88149501D01*
X117257203Y-88160000D01*
X117257200Y-88160001D01*
X117090668Y-88215185D01*
X117090663Y-88215187D01*
X116941342Y-88307289D01*
X116847681Y-88400951D01*
X116786358Y-88434436D01*
X116716666Y-88429452D01*
X116672319Y-88400951D01*
X116578657Y-88307289D01*
X116578656Y-88307288D01*
X116459770Y-88233959D01*
X116429336Y-88215187D01*
X116429331Y-88215185D01*
X116427677Y-88214637D01*
X116262797Y-88160001D01*
X116262795Y-88160000D01*
X116160010Y-88149500D01*
X115359998Y-88149500D01*
X115359980Y-88149501D01*
X115257203Y-88160000D01*
X115257200Y-88160001D01*
X115090668Y-88215185D01*
X115090663Y-88215187D01*
X114941342Y-88307289D01*
X114812181Y-88436451D01*
X114810244Y-88434514D01*
X114763516Y-88467588D01*
X114693716Y-88470712D01*
X114633308Y-88435604D01*
X114628461Y-88430009D01*
X114504426Y-88305974D01*
X114504422Y-88305971D01*
X114356356Y-88214642D01*
X114356350Y-88214639D01*
X114356348Y-88214638D01*
X114356345Y-88214637D01*
X114191199Y-88159913D01*
X114089278Y-88149500D01*
X114089271Y-88149500D01*
X113502575Y-88149500D01*
X113502567Y-88149500D01*
X113419746Y-88157961D01*
X113410974Y-88158858D01*
X113398373Y-88159500D01*
X112313537Y-88159500D01*
X112300934Y-88158858D01*
X112214238Y-88150000D01*
X112148627Y-88150000D01*
X112136419Y-88156666D01*
X112110061Y-88159500D01*
X112054108Y-88159500D01*
X111926814Y-88193608D01*
X111926813Y-88193608D01*
X111926811Y-88193609D01*
X111926810Y-88193609D01*
X111856923Y-88233959D01*
X111789023Y-88250432D01*
X111722996Y-88227579D01*
X111679805Y-88172658D01*
X111676516Y-88155593D01*
X111670923Y-88150000D01*
X111627607Y-88150000D01*
X111525749Y-88160407D01*
X111360713Y-88215094D01*
X111360708Y-88215096D01*
X111212731Y-88306370D01*
X111089793Y-88429308D01*
X110998519Y-88577285D01*
X110998517Y-88577290D01*
X110943830Y-88742326D01*
X110933423Y-88844184D01*
X110933423Y-89100000D01*
X111495500Y-89100000D01*
X111562539Y-89119685D01*
X111608294Y-89172489D01*
X111619500Y-89224000D01*
X111619500Y-89476000D01*
X111599815Y-89543039D01*
X111547011Y-89588794D01*
X111495500Y-89600000D01*
X110933423Y-89600000D01*
X110933423Y-89855815D01*
X110943830Y-89957673D01*
X110998517Y-90122709D01*
X110998519Y-90122714D01*
X111052607Y-90210403D01*
X111071047Y-90277795D01*
X111050125Y-90344459D01*
X110996483Y-90389229D01*
X110947068Y-90399500D01*
X109934181Y-90399500D01*
X109867142Y-90379815D01*
X109821387Y-90327011D01*
X109811443Y-90257853D01*
X109828641Y-90210405D01*
X109884814Y-90119334D01*
X109939999Y-89952797D01*
X109950500Y-89850009D01*
X109950499Y-88849992D01*
X109939999Y-88747203D01*
X109884814Y-88580666D01*
X109792712Y-88431344D01*
X109668656Y-88307288D01*
X109549770Y-88233959D01*
X109519336Y-88215187D01*
X109519331Y-88215185D01*
X109517677Y-88214637D01*
X109352797Y-88160001D01*
X109352795Y-88160000D01*
X109250010Y-88149500D01*
X108449998Y-88149500D01*
X108449980Y-88149501D01*
X108347203Y-88160000D01*
X108347200Y-88160001D01*
X108180668Y-88215185D01*
X108180663Y-88215187D01*
X108031342Y-88307289D01*
X107937681Y-88400951D01*
X107876358Y-88434436D01*
X107806666Y-88429452D01*
X107762319Y-88400951D01*
X107668657Y-88307289D01*
X107668656Y-88307288D01*
X107549770Y-88233959D01*
X107519336Y-88215187D01*
X107519331Y-88215185D01*
X107517677Y-88214637D01*
X107352797Y-88160001D01*
X107352795Y-88160000D01*
X107250010Y-88149500D01*
X106449998Y-88149500D01*
X106449980Y-88149501D01*
X106347203Y-88160000D01*
X106347200Y-88160001D01*
X106180668Y-88215185D01*
X106180663Y-88215187D01*
X106031342Y-88307289D01*
X105902181Y-88436451D01*
X105900244Y-88434514D01*
X105853516Y-88467588D01*
X105783716Y-88470712D01*
X105723308Y-88435604D01*
X105718461Y-88430009D01*
X105594426Y-88305974D01*
X105594422Y-88305971D01*
X105446356Y-88214642D01*
X105446350Y-88214639D01*
X105446348Y-88214638D01*
X105446345Y-88214637D01*
X105281199Y-88159913D01*
X105179278Y-88149500D01*
X105179271Y-88149500D01*
X104592575Y-88149500D01*
X104592567Y-88149500D01*
X104509746Y-88157961D01*
X104500974Y-88158858D01*
X104488373Y-88159500D01*
X103403537Y-88159500D01*
X103390934Y-88158858D01*
X103304238Y-88150000D01*
X103238627Y-88150000D01*
X103226419Y-88156666D01*
X103200061Y-88159500D01*
X103144108Y-88159500D01*
X103016814Y-88193608D01*
X103016813Y-88193608D01*
X103016811Y-88193609D01*
X103016810Y-88193609D01*
X102946923Y-88233959D01*
X102879023Y-88250432D01*
X102812996Y-88227579D01*
X102769805Y-88172658D01*
X102766516Y-88155593D01*
X102760923Y-88150000D01*
X102717607Y-88150000D01*
X102615749Y-88160407D01*
X102450713Y-88215094D01*
X102450708Y-88215096D01*
X102302731Y-88306370D01*
X102179793Y-88429308D01*
X102088519Y-88577285D01*
X102088517Y-88577290D01*
X102033830Y-88742326D01*
X102023423Y-88844184D01*
X102023423Y-89100000D01*
X102585500Y-89100000D01*
X102652539Y-89119685D01*
X102698294Y-89172489D01*
X102709500Y-89224000D01*
X102709500Y-89476000D01*
X102689815Y-89543039D01*
X102637011Y-89588794D01*
X102585500Y-89600000D01*
X102023423Y-89600000D01*
X102023423Y-89855815D01*
X102033830Y-89957673D01*
X102088517Y-90122709D01*
X102088519Y-90122714D01*
X102179793Y-90270691D01*
X102302731Y-90393629D01*
X102450708Y-90484903D01*
X102450713Y-90484905D01*
X102615749Y-90539592D01*
X102717607Y-90549999D01*
X102717620Y-90550000D01*
X102760923Y-90550000D01*
X102778975Y-90531947D01*
X102780608Y-90526388D01*
X102833412Y-90480633D01*
X102902570Y-90470689D01*
X102946920Y-90486038D01*
X103016814Y-90526392D01*
X103144108Y-90560500D01*
X103144110Y-90560500D01*
X104775890Y-90560500D01*
X104775892Y-90560500D01*
X104797445Y-90554724D01*
X104829537Y-90550500D01*
X105179266Y-90550500D01*
X105179271Y-90550500D01*
X105281198Y-90540087D01*
X105446348Y-90485362D01*
X105594426Y-90394026D01*
X105717449Y-90271003D01*
X105717449Y-90271002D01*
X105722556Y-90265896D01*
X105723893Y-90267233D01*
X105773031Y-90232426D01*
X105842830Y-90229275D01*
X105902060Y-90263669D01*
X105902181Y-90263549D01*
X105902635Y-90264003D01*
X105903251Y-90264361D01*
X105904928Y-90266296D01*
X105907288Y-90268656D01*
X106031344Y-90392712D01*
X106180666Y-90484814D01*
X106347203Y-90539999D01*
X106449991Y-90550500D01*
X107250008Y-90550499D01*
X107250016Y-90550498D01*
X107250019Y-90550498D01*
X107306302Y-90544748D01*
X107352797Y-90539999D01*
X107519334Y-90484814D01*
X107668656Y-90392712D01*
X107762319Y-90299049D01*
X107823642Y-90265564D01*
X107893334Y-90270548D01*
X107937681Y-90299049D01*
X108031344Y-90392712D01*
X108180666Y-90484814D01*
X108180667Y-90484814D01*
X108186813Y-90488605D01*
X108185706Y-90490399D01*
X108230337Y-90529687D01*
X108249500Y-90595908D01*
X108249500Y-90763330D01*
X108249499Y-90763348D01*
X108249499Y-90929054D01*
X108249498Y-90929054D01*
X108255681Y-90952127D01*
X108290423Y-91081785D01*
X108301084Y-91100250D01*
X108369477Y-91218712D01*
X108369481Y-91218717D01*
X108488349Y-91337585D01*
X108488355Y-91337590D01*
X108515139Y-91364374D01*
X108515149Y-91364385D01*
X108519479Y-91368715D01*
X108519480Y-91368716D01*
X108631284Y-91480520D01*
X108707190Y-91524344D01*
X108768215Y-91559577D01*
X108920943Y-91600501D01*
X108920946Y-91600501D01*
X109086653Y-91600501D01*
X109086669Y-91600500D01*
X118775500Y-91600500D01*
X118842539Y-91620185D01*
X118888294Y-91672989D01*
X118899500Y-91724500D01*
X118899500Y-93228770D01*
X118879815Y-93295809D01*
X118827011Y-93341564D01*
X118757853Y-93351508D01*
X118694297Y-93322483D01*
X118687819Y-93316451D01*
X118588657Y-93217289D01*
X118588656Y-93217288D01*
X118469770Y-93143959D01*
X118439336Y-93125187D01*
X118439331Y-93125185D01*
X118437677Y-93124637D01*
X118272797Y-93070001D01*
X118272795Y-93070000D01*
X118170010Y-93059500D01*
X117369998Y-93059500D01*
X117369980Y-93059501D01*
X117267203Y-93070000D01*
X117267200Y-93070001D01*
X117100668Y-93125185D01*
X117100663Y-93125187D01*
X116951342Y-93217289D01*
X116857681Y-93310951D01*
X116796358Y-93344436D01*
X116726666Y-93339452D01*
X116682319Y-93310951D01*
X116588657Y-93217289D01*
X116588656Y-93217288D01*
X116469770Y-93143959D01*
X116439336Y-93125187D01*
X116439331Y-93125185D01*
X116437677Y-93124637D01*
X116272797Y-93070001D01*
X116272795Y-93070000D01*
X116170010Y-93059500D01*
X115369998Y-93059500D01*
X115369980Y-93059501D01*
X115267203Y-93070000D01*
X115267200Y-93070001D01*
X115100668Y-93125185D01*
X115100663Y-93125187D01*
X114951342Y-93217289D01*
X114822181Y-93346451D01*
X114820244Y-93344514D01*
X114773516Y-93377588D01*
X114703716Y-93380712D01*
X114643308Y-93345604D01*
X114638461Y-93340009D01*
X114514426Y-93215974D01*
X114514422Y-93215971D01*
X114366356Y-93124642D01*
X114366350Y-93124639D01*
X114366348Y-93124638D01*
X114366345Y-93124637D01*
X114201199Y-93069913D01*
X114099278Y-93059500D01*
X114099271Y-93059500D01*
X113512575Y-93059500D01*
X113512567Y-93059500D01*
X113429746Y-93067961D01*
X113420974Y-93068858D01*
X113408373Y-93069500D01*
X112323537Y-93069500D01*
X112310934Y-93068858D01*
X112224238Y-93060000D01*
X112158627Y-93060000D01*
X112146419Y-93066666D01*
X112120061Y-93069500D01*
X112064108Y-93069500D01*
X111936814Y-93103608D01*
X111936813Y-93103608D01*
X111936811Y-93103609D01*
X111936810Y-93103609D01*
X111866923Y-93143959D01*
X111799023Y-93160432D01*
X111732996Y-93137579D01*
X111689805Y-93082658D01*
X111686516Y-93065593D01*
X111680923Y-93060000D01*
X111637607Y-93060000D01*
X111535749Y-93070407D01*
X111370713Y-93125094D01*
X111370708Y-93125096D01*
X111222731Y-93216370D01*
X111099793Y-93339308D01*
X111008519Y-93487285D01*
X111008517Y-93487290D01*
X110953830Y-93652326D01*
X110943423Y-93754184D01*
X110943423Y-94010000D01*
X111505500Y-94010000D01*
X111572539Y-94029685D01*
X111618294Y-94082489D01*
X111629500Y-94134000D01*
X111629500Y-94386000D01*
X111609815Y-94453039D01*
X111557011Y-94498794D01*
X111505500Y-94510000D01*
X110943423Y-94510000D01*
X110943423Y-94765815D01*
X110953830Y-94867673D01*
X111008517Y-95032709D01*
X111008519Y-95032714D01*
X111099793Y-95180691D01*
X111106921Y-95187819D01*
X111140406Y-95249142D01*
X111135422Y-95318834D01*
X111093550Y-95374767D01*
X111028086Y-95399184D01*
X111019240Y-95399500D01*
X109881230Y-95399500D01*
X109814191Y-95379815D01*
X109768436Y-95327011D01*
X109758492Y-95257853D01*
X109787517Y-95194297D01*
X109793549Y-95187819D01*
X109802712Y-95178656D01*
X109894814Y-95029334D01*
X109949999Y-94862797D01*
X109960500Y-94760009D01*
X109960499Y-93759992D01*
X109950829Y-93665333D01*
X109949999Y-93657203D01*
X109949998Y-93657200D01*
X109904289Y-93519261D01*
X109894814Y-93490666D01*
X109802712Y-93341344D01*
X109678656Y-93217288D01*
X109559770Y-93143959D01*
X109529336Y-93125187D01*
X109529331Y-93125185D01*
X109527677Y-93124637D01*
X109362797Y-93070001D01*
X109362795Y-93070000D01*
X109260010Y-93059500D01*
X108459998Y-93059500D01*
X108459980Y-93059501D01*
X108357203Y-93070000D01*
X108357200Y-93070001D01*
X108190668Y-93125185D01*
X108190663Y-93125187D01*
X108041342Y-93217289D01*
X107947681Y-93310951D01*
X107886358Y-93344436D01*
X107816666Y-93339452D01*
X107772319Y-93310951D01*
X107678657Y-93217289D01*
X107678656Y-93217288D01*
X107559770Y-93143959D01*
X107529336Y-93125187D01*
X107529331Y-93125185D01*
X107527677Y-93124637D01*
X107362797Y-93070001D01*
X107362795Y-93070000D01*
X107260010Y-93059500D01*
X106459998Y-93059500D01*
X106459980Y-93059501D01*
X106357203Y-93070000D01*
X106357200Y-93070001D01*
X106190668Y-93125185D01*
X106190663Y-93125187D01*
X106041342Y-93217289D01*
X105912181Y-93346451D01*
X105910244Y-93344514D01*
X105863516Y-93377588D01*
X105793716Y-93380712D01*
X105733308Y-93345604D01*
X105728461Y-93340009D01*
X105604426Y-93215974D01*
X105604422Y-93215971D01*
X105456356Y-93124642D01*
X105456350Y-93124639D01*
X105456348Y-93124638D01*
X105456345Y-93124637D01*
X105291199Y-93069913D01*
X105189278Y-93059500D01*
X105189271Y-93059500D01*
X104602575Y-93059500D01*
X104602567Y-93059500D01*
X104519746Y-93067961D01*
X104510974Y-93068858D01*
X104498373Y-93069500D01*
X103413537Y-93069500D01*
X103400934Y-93068858D01*
X103314238Y-93060000D01*
X103248627Y-93060000D01*
X103236419Y-93066666D01*
X103210061Y-93069500D01*
X103154108Y-93069500D01*
X103026814Y-93103608D01*
X103026813Y-93103608D01*
X103026811Y-93103609D01*
X103026810Y-93103609D01*
X102956923Y-93143959D01*
X102889023Y-93160432D01*
X102822996Y-93137579D01*
X102779805Y-93082658D01*
X102776516Y-93065593D01*
X102770923Y-93060000D01*
X102727607Y-93060000D01*
X102625749Y-93070407D01*
X102460713Y-93125094D01*
X102460708Y-93125096D01*
X102312731Y-93216370D01*
X102189793Y-93339308D01*
X102098519Y-93487285D01*
X102098517Y-93487290D01*
X102043830Y-93652326D01*
X102033423Y-93754184D01*
X102033423Y-94010000D01*
X102595500Y-94010000D01*
X102662539Y-94029685D01*
X102708294Y-94082489D01*
X102719500Y-94134000D01*
X102719500Y-94386000D01*
X102699815Y-94453039D01*
X102647011Y-94498794D01*
X102595500Y-94510000D01*
X102033423Y-94510000D01*
X102033423Y-94765815D01*
X102043830Y-94867673D01*
X102098517Y-95032709D01*
X102098519Y-95032714D01*
X102189793Y-95180691D01*
X102312731Y-95303629D01*
X102460708Y-95394903D01*
X102460713Y-95394905D01*
X102625749Y-95449592D01*
X102727607Y-95459999D01*
X102727620Y-95460000D01*
X102770923Y-95460000D01*
X102788975Y-95441947D01*
X102790608Y-95436388D01*
X102843412Y-95390633D01*
X102912570Y-95380689D01*
X102956920Y-95396038D01*
X103026814Y-95436392D01*
X103154108Y-95470500D01*
X103154110Y-95470500D01*
X104785890Y-95470500D01*
X104785892Y-95470500D01*
X104807445Y-95464724D01*
X104839537Y-95460500D01*
X105189266Y-95460500D01*
X105189271Y-95460500D01*
X105291198Y-95450087D01*
X105456348Y-95395362D01*
X105604426Y-95304026D01*
X105727449Y-95181003D01*
X105727449Y-95181002D01*
X105732556Y-95175896D01*
X105733893Y-95177233D01*
X105783031Y-95142426D01*
X105852830Y-95139275D01*
X105912060Y-95173669D01*
X105912181Y-95173549D01*
X105912635Y-95174003D01*
X105913251Y-95174361D01*
X105914928Y-95176296D01*
X105917288Y-95178656D01*
X106041344Y-95302712D01*
X106190666Y-95394814D01*
X106357203Y-95449999D01*
X106459991Y-95460500D01*
X107260008Y-95460499D01*
X107260016Y-95460498D01*
X107260019Y-95460498D01*
X107316302Y-95454748D01*
X107362797Y-95449999D01*
X107529334Y-95394814D01*
X107678656Y-95302712D01*
X107772319Y-95209049D01*
X107833642Y-95175564D01*
X107903334Y-95180548D01*
X107947681Y-95209049D01*
X108041344Y-95302712D01*
X108190666Y-95394814D01*
X108190667Y-95394814D01*
X108196813Y-95398605D01*
X108195706Y-95400399D01*
X108240337Y-95439687D01*
X108259500Y-95505908D01*
X108259500Y-95773330D01*
X108259499Y-95773348D01*
X108259499Y-95939054D01*
X108259498Y-95939054D01*
X108300423Y-96091785D01*
X108329358Y-96141900D01*
X108329359Y-96141904D01*
X108329360Y-96141904D01*
X108379479Y-96228714D01*
X108379481Y-96228717D01*
X108498349Y-96347585D01*
X108498355Y-96347590D01*
X108515139Y-96364374D01*
X108515149Y-96364385D01*
X108519479Y-96368715D01*
X108519480Y-96368716D01*
X108631284Y-96480520D01*
X108718095Y-96530639D01*
X108718097Y-96530641D01*
X108756151Y-96552611D01*
X108768215Y-96559577D01*
X108920943Y-96600501D01*
X108920946Y-96600501D01*
X109086653Y-96600501D01*
X109086669Y-96600500D01*
X117775500Y-96600500D01*
X117842539Y-96620185D01*
X117888294Y-96672989D01*
X117899500Y-96724500D01*
X117899500Y-104413330D01*
X117899499Y-104413348D01*
X117899499Y-104525500D01*
X117879814Y-104592539D01*
X117827010Y-104638294D01*
X117775499Y-104649500D01*
X98724500Y-104649500D01*
X98657461Y-104629815D01*
X98611706Y-104577011D01*
X98600500Y-104525500D01*
X98600500Y-95324499D01*
X98620185Y-95257460D01*
X98672989Y-95211705D01*
X98724500Y-95200499D01*
X98847871Y-95200499D01*
X98847872Y-95200499D01*
X98907483Y-95194091D01*
X99042331Y-95143796D01*
X99157546Y-95057546D01*
X99243796Y-94942331D01*
X99294091Y-94807483D01*
X99300500Y-94747873D01*
X99300499Y-93252128D01*
X99294091Y-93192517D01*
X99285506Y-93169500D01*
X99243797Y-93057671D01*
X99243793Y-93057664D01*
X99157547Y-92942455D01*
X99157544Y-92942452D01*
X99042335Y-92856206D01*
X99042328Y-92856202D01*
X98907482Y-92805908D01*
X98907483Y-92805908D01*
X98847883Y-92799501D01*
X98847881Y-92799500D01*
X98847873Y-92799500D01*
X98847864Y-92799500D01*
X97152129Y-92799500D01*
X97152123Y-92799501D01*
X97092516Y-92805908D01*
X96957671Y-92856202D01*
X96957664Y-92856206D01*
X96842455Y-92942452D01*
X96842452Y-92942455D01*
X96756206Y-93057664D01*
X96756202Y-93057671D01*
X96705908Y-93192517D01*
X96702011Y-93228770D01*
X96699501Y-93252123D01*
X96699500Y-93252135D01*
X96699500Y-93275500D01*
X96679815Y-93342539D01*
X96627011Y-93388294D01*
X96575500Y-93399500D01*
X95886929Y-93399500D01*
X95819890Y-93379815D01*
X95774135Y-93327011D01*
X95764191Y-93257853D01*
X95793216Y-93194297D01*
X95793701Y-93193741D01*
X95814959Y-93169500D01*
X95829025Y-93153461D01*
X95996566Y-92902718D01*
X96129945Y-92632252D01*
X96226880Y-92346691D01*
X96285713Y-92050920D01*
X96305436Y-91750000D01*
X96285713Y-91449080D01*
X96269727Y-91368716D01*
X96253385Y-91286560D01*
X96226880Y-91153309D01*
X96129945Y-90867748D01*
X96102445Y-90811984D01*
X95996568Y-90597286D01*
X95996564Y-90597279D01*
X95829026Y-90346540D01*
X95742472Y-90247844D01*
X96700000Y-90247844D01*
X96706401Y-90307372D01*
X96706403Y-90307379D01*
X96756645Y-90442086D01*
X96756649Y-90442093D01*
X96842809Y-90557187D01*
X96842812Y-90557190D01*
X96957906Y-90643350D01*
X96957913Y-90643354D01*
X97092620Y-90693596D01*
X97092627Y-90693598D01*
X97152155Y-90699999D01*
X97152172Y-90700000D01*
X97750000Y-90700000D01*
X98250000Y-90700000D01*
X98847828Y-90700000D01*
X98847844Y-90699999D01*
X98907372Y-90693598D01*
X98907379Y-90693596D01*
X99042086Y-90643354D01*
X99042093Y-90643350D01*
X99157187Y-90557190D01*
X99157190Y-90557187D01*
X99243350Y-90442093D01*
X99243354Y-90442086D01*
X99293596Y-90307379D01*
X99293598Y-90307372D01*
X99299999Y-90247844D01*
X99300000Y-90247827D01*
X99300000Y-89750000D01*
X98250000Y-89750000D01*
X98250000Y-90700000D01*
X97750000Y-90700000D01*
X97750000Y-89750000D01*
X96700000Y-89750000D01*
X96700000Y-90247844D01*
X95742472Y-90247844D01*
X95630189Y-90119810D01*
X95403459Y-89920973D01*
X95152720Y-89753435D01*
X95152713Y-89753431D01*
X94882268Y-89620062D01*
X94882247Y-89620053D01*
X94596698Y-89523122D01*
X94596692Y-89523120D01*
X94596691Y-89523120D01*
X94596689Y-89523119D01*
X94596683Y-89523118D01*
X94300930Y-89464288D01*
X94300921Y-89464287D01*
X94300920Y-89464287D01*
X94000000Y-89444564D01*
X93699080Y-89464287D01*
X93699079Y-89464287D01*
X93699069Y-89464288D01*
X93403316Y-89523118D01*
X93403301Y-89523122D01*
X93117752Y-89620053D01*
X93117731Y-89620062D01*
X92847286Y-89753431D01*
X92847279Y-89753435D01*
X92596540Y-89920973D01*
X92369810Y-90119810D01*
X92170973Y-90346540D01*
X92003435Y-90597279D01*
X92003431Y-90597286D01*
X91870062Y-90867731D01*
X91870053Y-90867752D01*
X91773122Y-91153301D01*
X91773118Y-91153316D01*
X91714288Y-91449069D01*
X91714287Y-91449081D01*
X91694564Y-91750000D01*
X91714287Y-92050918D01*
X91714288Y-92050930D01*
X91773118Y-92346683D01*
X91773122Y-92346698D01*
X91870053Y-92632247D01*
X91870062Y-92632268D01*
X92003431Y-92902713D01*
X92003435Y-92902720D01*
X92170973Y-93153459D01*
X92206299Y-93193741D01*
X92235702Y-93257123D01*
X92226170Y-93326340D01*
X92180730Y-93379415D01*
X92113809Y-93399498D01*
X92113071Y-93399500D01*
X91424499Y-93399500D01*
X91357460Y-93379815D01*
X91311705Y-93327011D01*
X91300499Y-93275500D01*
X91300499Y-93252129D01*
X91300498Y-93252123D01*
X91300497Y-93252116D01*
X91294091Y-93192517D01*
X91285506Y-93169500D01*
X91243797Y-93057671D01*
X91243793Y-93057664D01*
X91157547Y-92942455D01*
X91157544Y-92942452D01*
X91042335Y-92856206D01*
X91042328Y-92856202D01*
X90907482Y-92805908D01*
X90907483Y-92805908D01*
X90847883Y-92799501D01*
X90847881Y-92799500D01*
X90847873Y-92799500D01*
X90847864Y-92799500D01*
X89152129Y-92799500D01*
X89152123Y-92799501D01*
X89092516Y-92805908D01*
X88957671Y-92856202D01*
X88957664Y-92856206D01*
X88842455Y-92942452D01*
X88842452Y-92942455D01*
X88756206Y-93057664D01*
X88756202Y-93057671D01*
X88705908Y-93192517D01*
X88702011Y-93228770D01*
X88699501Y-93252123D01*
X88699500Y-93252135D01*
X75000500Y-93252135D01*
X75000500Y-90247844D01*
X88700000Y-90247844D01*
X88706401Y-90307372D01*
X88706403Y-90307379D01*
X88756645Y-90442086D01*
X88756649Y-90442093D01*
X88842809Y-90557187D01*
X88842812Y-90557190D01*
X88957906Y-90643350D01*
X88957913Y-90643354D01*
X89092620Y-90693596D01*
X89092627Y-90693598D01*
X89152155Y-90699999D01*
X89152172Y-90700000D01*
X89750000Y-90700000D01*
X90250000Y-90700000D01*
X90847828Y-90700000D01*
X90847844Y-90699999D01*
X90907372Y-90693598D01*
X90907379Y-90693596D01*
X91042086Y-90643354D01*
X91042093Y-90643350D01*
X91157187Y-90557190D01*
X91157190Y-90557187D01*
X91243350Y-90442093D01*
X91243354Y-90442086D01*
X91293596Y-90307379D01*
X91293598Y-90307372D01*
X91299999Y-90247844D01*
X91300000Y-90247827D01*
X91300000Y-89750000D01*
X90250000Y-89750000D01*
X90250000Y-90700000D01*
X89750000Y-90700000D01*
X89750000Y-89750000D01*
X88700000Y-89750000D01*
X88700000Y-90247844D01*
X75000500Y-90247844D01*
X75000500Y-88752155D01*
X88700000Y-88752155D01*
X88700000Y-89250000D01*
X89750000Y-89250000D01*
X90250000Y-89250000D01*
X91300000Y-89250000D01*
X91300000Y-88752172D01*
X91299999Y-88752155D01*
X96700000Y-88752155D01*
X96700000Y-89250000D01*
X97750000Y-89250000D01*
X98250000Y-89250000D01*
X99300000Y-89250000D01*
X99300000Y-88752172D01*
X99299999Y-88752155D01*
X99293598Y-88692627D01*
X99293596Y-88692620D01*
X99243354Y-88557913D01*
X99243350Y-88557906D01*
X99157190Y-88442812D01*
X99157187Y-88442809D01*
X99042093Y-88356649D01*
X99042086Y-88356645D01*
X98907379Y-88306403D01*
X98907372Y-88306401D01*
X98847844Y-88300000D01*
X98250000Y-88300000D01*
X98250000Y-89250000D01*
X97750000Y-89250000D01*
X97750000Y-88300000D01*
X97152155Y-88300000D01*
X97092627Y-88306401D01*
X97092620Y-88306403D01*
X96957913Y-88356645D01*
X96957906Y-88356649D01*
X96842812Y-88442809D01*
X96842809Y-88442812D01*
X96756649Y-88557906D01*
X96756645Y-88557913D01*
X96706403Y-88692620D01*
X96706401Y-88692627D01*
X96700000Y-88752155D01*
X91299999Y-88752155D01*
X91293598Y-88692627D01*
X91293596Y-88692620D01*
X91243354Y-88557913D01*
X91243350Y-88557906D01*
X91157190Y-88442812D01*
X91157187Y-88442809D01*
X91042093Y-88356649D01*
X91042086Y-88356645D01*
X90907379Y-88306403D01*
X90907372Y-88306401D01*
X90847844Y-88300000D01*
X90250000Y-88300000D01*
X90250000Y-89250000D01*
X89750000Y-89250000D01*
X89750000Y-88300000D01*
X89152155Y-88300000D01*
X89092627Y-88306401D01*
X89092620Y-88306403D01*
X88957913Y-88356645D01*
X88957906Y-88356649D01*
X88842812Y-88442809D01*
X88842809Y-88442812D01*
X88756649Y-88557906D01*
X88756645Y-88557913D01*
X88706403Y-88692620D01*
X88706401Y-88692627D01*
X88700000Y-88752155D01*
X75000500Y-88752155D01*
X75000500Y-68415186D01*
X76649500Y-68415186D01*
X76649500Y-68684813D01*
X76679686Y-68952719D01*
X76679688Y-68952731D01*
X76739684Y-69215594D01*
X76739687Y-69215602D01*
X76828734Y-69470082D01*
X76945714Y-69712994D01*
X76945716Y-69712997D01*
X77089162Y-69941289D01*
X77257266Y-70152085D01*
X77447915Y-70342734D01*
X77658711Y-70510838D01*
X77887003Y-70654284D01*
X78129921Y-70771267D01*
X78321049Y-70838145D01*
X78384397Y-70860312D01*
X78384405Y-70860315D01*
X78384408Y-70860315D01*
X78384409Y-70860316D01*
X78647268Y-70920312D01*
X78915187Y-70950499D01*
X78915188Y-70950500D01*
X78915191Y-70950500D01*
X79184812Y-70950500D01*
X79184812Y-70950499D01*
X79452732Y-70920312D01*
X79715591Y-70860316D01*
X79970079Y-70771267D01*
X80212997Y-70654284D01*
X80441289Y-70510838D01*
X80652085Y-70342734D01*
X80842734Y-70152085D01*
X81010838Y-69941289D01*
X81154284Y-69712997D01*
X81271267Y-69470079D01*
X81360316Y-69215591D01*
X81420312Y-68952732D01*
X81450500Y-68684809D01*
X81450500Y-68440186D01*
X212549500Y-68440186D01*
X212549500Y-68709813D01*
X212579686Y-68977719D01*
X212579688Y-68977731D01*
X212639684Y-69240594D01*
X212639687Y-69240602D01*
X212728734Y-69495082D01*
X212845714Y-69737994D01*
X212845716Y-69737997D01*
X212989162Y-69966289D01*
X213157266Y-70177085D01*
X213347915Y-70367734D01*
X213558711Y-70535838D01*
X213787003Y-70679284D01*
X214029921Y-70796267D01*
X214212952Y-70860312D01*
X214284397Y-70885312D01*
X214284405Y-70885315D01*
X214284408Y-70885315D01*
X214284409Y-70885316D01*
X214547268Y-70945312D01*
X214815187Y-70975499D01*
X214815188Y-70975500D01*
X214815191Y-70975500D01*
X215084812Y-70975500D01*
X215084812Y-70975499D01*
X215352732Y-70945312D01*
X215615591Y-70885316D01*
X215870079Y-70796267D01*
X216112997Y-70679284D01*
X216341289Y-70535838D01*
X216552085Y-70367734D01*
X216742734Y-70177085D01*
X216910838Y-69966289D01*
X217054284Y-69737997D01*
X217171267Y-69495079D01*
X217260316Y-69240591D01*
X217320312Y-68977732D01*
X217350500Y-68709809D01*
X217350500Y-68440191D01*
X217320312Y-68172268D01*
X217260316Y-67909409D01*
X217171267Y-67654921D01*
X217054284Y-67412003D01*
X216910838Y-67183711D01*
X216742734Y-66972915D01*
X216552085Y-66782266D01*
X216341289Y-66614162D01*
X216112997Y-66470716D01*
X216112994Y-66470714D01*
X215870082Y-66353734D01*
X215615602Y-66264687D01*
X215615594Y-66264684D01*
X215418446Y-66219687D01*
X215352732Y-66204688D01*
X215352728Y-66204687D01*
X215352719Y-66204686D01*
X215084813Y-66174500D01*
X215084809Y-66174500D01*
X214815191Y-66174500D01*
X214815186Y-66174500D01*
X214547280Y-66204686D01*
X214547268Y-66204688D01*
X214284405Y-66264684D01*
X214284397Y-66264687D01*
X214029917Y-66353734D01*
X213787005Y-66470714D01*
X213558712Y-66614161D01*
X213347915Y-66782265D01*
X213157265Y-66972915D01*
X212989161Y-67183712D01*
X212845714Y-67412005D01*
X212728734Y-67654917D01*
X212639687Y-67909397D01*
X212639684Y-67909405D01*
X212579688Y-68172268D01*
X212579686Y-68172280D01*
X212549500Y-68440186D01*
X81450500Y-68440186D01*
X81450500Y-68415191D01*
X81420312Y-68147268D01*
X81360316Y-67884409D01*
X81271267Y-67629921D01*
X81154284Y-67387003D01*
X81010838Y-67158711D01*
X80842734Y-66947915D01*
X80652085Y-66757266D01*
X80441289Y-66589162D01*
X80212997Y-66445716D01*
X80212994Y-66445714D01*
X79970082Y-66328734D01*
X79715602Y-66239687D01*
X79715594Y-66239684D01*
X79518446Y-66194687D01*
X79452732Y-66179688D01*
X79452728Y-66179687D01*
X79452719Y-66179686D01*
X79184813Y-66149500D01*
X79184809Y-66149500D01*
X78915191Y-66149500D01*
X78915186Y-66149500D01*
X78647280Y-66179686D01*
X78647268Y-66179688D01*
X78384405Y-66239684D01*
X78384397Y-66239687D01*
X78129917Y-66328734D01*
X77887005Y-66445714D01*
X77658712Y-66589161D01*
X77447915Y-66757265D01*
X77257265Y-66947915D01*
X77089161Y-67158712D01*
X76945714Y-67387005D01*
X76828734Y-67629917D01*
X76739687Y-67884397D01*
X76739684Y-67884405D01*
X76679688Y-68147268D01*
X76679686Y-68147280D01*
X76649500Y-68415186D01*
X75000500Y-68415186D01*
X75000500Y-64624500D01*
X75020185Y-64557461D01*
X75072989Y-64511706D01*
X75124500Y-64500500D01*
X218875500Y-64500500D01*
X218942539Y-64520185D01*
G37*
%TD.AperFunction*%
%TD*%
M02*
