%TF.GenerationSoftware,KiCad,Pcbnew,8.0.5*%
%TF.CreationDate,2025-08-28T07:35:48+02:00*%
%TF.ProjectId,SVX_Node_Case_front,5356585f-4e6f-4646-955f-436173655f66,rev?*%
%TF.SameCoordinates,Original*%
%TF.FileFunction,Legend,Top*%
%TF.FilePolarity,Positive*%
%FSLAX46Y46*%
G04 Gerber Fmt 4.6, Leading zero omitted, Abs format (unit mm)*
G04 Created by KiCad (PCBNEW 8.0.5) date 2025-08-28 07:35:48*
%MOMM*%
%LPD*%
G01*
G04 APERTURE LIST*
%ADD10C,0.500000*%
%ADD11C,1.500000*%
%ADD12C,0.200000*%
%ADD13C,0.000000*%
G04 APERTURE END LIST*
D10*
X192348340Y-88750000D02*
G75*
G02*
X192336483Y-94499980I-437640J-2874100D01*
G01*
D11*
X85403806Y-66000000D02*
G75*
G02*
X77000000Y-74403806I-6500006J-1903800D01*
G01*
X208526121Y-116088273D02*
G75*
G02*
X217000000Y-107500001I6570079J1992073D01*
G01*
D10*
X111800000Y-88400000D02*
X113800000Y-88400000D01*
X113800000Y-90300000D01*
X111800000Y-90300000D01*
X111800000Y-88400000D01*
D11*
X217000000Y-74773070D02*
G75*
G02*
X208222540Y-66014928I-2000000J6773070D01*
G01*
D10*
X176745513Y-94500000D02*
X192336486Y-94500000D01*
X103000000Y-93350000D02*
X105000000Y-93350000D01*
X105000000Y-95250000D01*
X103000000Y-95250000D01*
X103000000Y-93350000D01*
D11*
X217000000Y-74773070D02*
X217000000Y-107500001D01*
X208222540Y-66014928D02*
X85403806Y-66000000D01*
D10*
X95900000Y-91750000D02*
G75*
G02*
X92100000Y-91750000I-1900000J0D01*
G01*
X92100000Y-91750000D02*
G75*
G02*
X95900000Y-91750000I1900000J0D01*
G01*
D11*
X77000000Y-107096195D02*
G75*
G02*
X85256389Y-115945484I1903800J-6500005D01*
G01*
D10*
X111750000Y-93350000D02*
X113750000Y-93350000D01*
X113750000Y-95250000D01*
X111750000Y-95250000D01*
X111750000Y-93350000D01*
X102950000Y-88400000D02*
X104950000Y-88400000D01*
X104950000Y-90300000D01*
X102950000Y-90300000D01*
X102950000Y-88400000D01*
D11*
X208500000Y-116096194D02*
X85403806Y-116000000D01*
D10*
X176659054Y-88750000D02*
X192340999Y-88750000D01*
D11*
X77000000Y-74403806D02*
X77000000Y-107096194D01*
D10*
X176692886Y-94500000D02*
G75*
G02*
X176659053Y-88749994I397264J2877440D01*
G01*
D12*
G36*
X182546545Y-70669309D02*
G01*
X183434612Y-70611423D01*
X183464494Y-70764643D01*
X183520714Y-70905634D01*
X183551849Y-70953607D01*
X183665720Y-71061654D01*
X183808856Y-71124851D01*
X183964375Y-71143384D01*
X184111666Y-71128147D01*
X184251114Y-71067559D01*
X184272121Y-71051060D01*
X184362667Y-70930835D01*
X184380565Y-70836371D01*
X184336071Y-70695150D01*
X184277250Y-70629741D01*
X184148917Y-70557017D01*
X184007365Y-70508652D01*
X183845341Y-70467024D01*
X183799511Y-70456817D01*
X183651500Y-70421509D01*
X183481942Y-70373381D01*
X183329557Y-70320816D01*
X183194346Y-70263815D01*
X183054761Y-70189557D01*
X182923168Y-70094849D01*
X182820385Y-69989833D01*
X182733832Y-69855217D01*
X182680251Y-69705031D01*
X182659643Y-69539274D01*
X182659385Y-69517459D01*
X182675317Y-69361808D01*
X182723110Y-69212218D01*
X182794207Y-69081486D01*
X182891781Y-68961845D01*
X183015972Y-68859378D01*
X183150504Y-68781840D01*
X183200139Y-68759085D01*
X183348242Y-68707794D01*
X183498418Y-68674936D01*
X183667809Y-68653298D01*
X183828294Y-68643681D01*
X183943126Y-68641849D01*
X184117503Y-68647037D01*
X184278392Y-68662600D01*
X184425793Y-68688539D01*
X184584869Y-68733361D01*
X184724523Y-68793124D01*
X184826064Y-68854340D01*
X184947319Y-68959296D01*
X185045012Y-69088235D01*
X185119144Y-69241156D01*
X185163932Y-69391320D01*
X185188032Y-69529916D01*
X184308025Y-69579741D01*
X184266751Y-69437845D01*
X184181090Y-69311679D01*
X184160746Y-69293977D01*
X184027206Y-69226933D01*
X183875197Y-69204933D01*
X183850802Y-69204584D01*
X183700510Y-69223816D01*
X183605338Y-69272728D01*
X183527199Y-69397092D01*
X183523272Y-69438325D01*
X183591416Y-69566552D01*
X183733530Y-69633320D01*
X183889035Y-69672561D01*
X183904291Y-69675729D01*
X184051822Y-69708221D01*
X184220972Y-69749029D01*
X184373163Y-69790052D01*
X184533407Y-69839562D01*
X184689494Y-69897715D01*
X184780635Y-69939511D01*
X184918360Y-70019625D01*
X185044470Y-70120604D01*
X185142243Y-70234177D01*
X185166050Y-70270704D01*
X185234883Y-70412258D01*
X185275143Y-70564895D01*
X185286950Y-70713272D01*
X185274199Y-70871361D01*
X185235945Y-71022495D01*
X185172189Y-71166674D01*
X185125750Y-71243768D01*
X185025344Y-71370919D01*
X184904652Y-71479523D01*
X184780340Y-71560490D01*
X184676587Y-71611598D01*
X184523172Y-71666415D01*
X184373456Y-71701532D01*
X184209295Y-71724658D01*
X184057088Y-71734936D01*
X183949720Y-71736894D01*
X183764420Y-71732189D01*
X183593935Y-71718072D01*
X183438264Y-71694545D01*
X183264510Y-71651901D01*
X183113903Y-71594553D01*
X182963731Y-71506325D01*
X182882135Y-71435743D01*
X182779919Y-71316817D01*
X182695839Y-71186455D01*
X182629893Y-71044655D01*
X182582083Y-70891417D01*
X182552407Y-70726742D01*
X182546545Y-70669309D01*
G37*
G36*
X188723447Y-71690000D02*
G01*
X187746720Y-71690000D01*
X187598709Y-71174159D01*
X186535519Y-71174159D01*
X186388974Y-71690000D01*
X185434961Y-71690000D01*
X185878319Y-70517634D01*
X186737020Y-70517634D01*
X187403070Y-70517634D01*
X187068946Y-69455177D01*
X186737020Y-70517634D01*
X185878319Y-70517634D01*
X186569958Y-68688743D01*
X187588450Y-68688743D01*
X188723447Y-71690000D01*
G37*
G36*
X190827110Y-68688743D02*
G01*
X191758408Y-68688743D01*
X191758408Y-70474403D01*
X191751801Y-70621286D01*
X191728960Y-70779052D01*
X191689805Y-70931093D01*
X191674877Y-70975589D01*
X191613440Y-71117326D01*
X191533541Y-71247615D01*
X191435181Y-71366454D01*
X191413293Y-71388848D01*
X191300293Y-71488911D01*
X191172025Y-71575179D01*
X191039602Y-71636510D01*
X190896536Y-71680428D01*
X190739916Y-71711798D01*
X190591753Y-71728954D01*
X190433212Y-71736502D01*
X190386008Y-71736894D01*
X190229617Y-71733258D01*
X190079179Y-71723641D01*
X189920869Y-71708013D01*
X189904605Y-71706120D01*
X189750332Y-71681018D01*
X189599804Y-71639852D01*
X189469364Y-71584487D01*
X189342144Y-71505627D01*
X189223168Y-71405334D01*
X189148429Y-71326566D01*
X189059509Y-71209995D01*
X188987193Y-71080062D01*
X188949860Y-70980718D01*
X188908064Y-70825134D01*
X188879947Y-70679867D01*
X188864749Y-70530560D01*
X188863398Y-70474403D01*
X188863398Y-68688743D01*
X189794696Y-68688743D01*
X189794696Y-70513237D01*
X189810887Y-70668849D01*
X189865481Y-70809774D01*
X189931716Y-70895722D01*
X190060580Y-70984911D01*
X190210657Y-71026883D01*
X190312002Y-71033475D01*
X190465442Y-71017457D01*
X190604786Y-70963447D01*
X190690090Y-70897920D01*
X190778805Y-70769038D01*
X190820554Y-70616796D01*
X190827110Y-70513237D01*
X190827110Y-68688743D01*
G37*
G36*
X192357780Y-68688743D02*
G01*
X193291277Y-68688743D01*
X193291277Y-70939685D01*
X194747941Y-70939685D01*
X194747941Y-71690000D01*
X192357780Y-71690000D01*
X192357780Y-68688743D01*
G37*
G36*
X195131891Y-68688743D02*
G01*
X195970865Y-68688743D01*
X195970865Y-69251479D01*
X195131891Y-69251479D01*
X195131891Y-68688743D01*
G37*
G36*
X195131891Y-69485952D02*
G01*
X195970865Y-69485952D01*
X195970865Y-71690000D01*
X195131891Y-71690000D01*
X195131891Y-69485952D01*
G37*
G36*
X196499162Y-69485952D02*
G01*
X197280251Y-69485952D01*
X197280251Y-69843524D01*
X197379047Y-69730965D01*
X197489500Y-69629013D01*
X197611825Y-69544965D01*
X197634159Y-69532847D01*
X197779823Y-69475694D01*
X197932719Y-69446476D01*
X198071598Y-69439057D01*
X198236141Y-69452109D01*
X198381725Y-69491264D01*
X198522845Y-69566516D01*
X198616015Y-69647885D01*
X198711295Y-69782906D01*
X198769810Y-69933092D01*
X198800800Y-70087797D01*
X198812349Y-70237703D01*
X198813119Y-70291221D01*
X198813119Y-71690000D01*
X197970481Y-71690000D01*
X197970481Y-70475868D01*
X197957904Y-70326986D01*
X197898966Y-70187522D01*
X197894277Y-70182044D01*
X197767753Y-70105799D01*
X197680321Y-70095582D01*
X197534518Y-70128463D01*
X197432658Y-70212086D01*
X197368044Y-70349370D01*
X197342659Y-70506823D01*
X197338136Y-70629741D01*
X197338136Y-71690000D01*
X196499162Y-71690000D01*
X196499162Y-69485952D01*
G37*
G36*
X199298185Y-68688743D02*
G01*
X200155478Y-68688743D01*
X200155478Y-70167390D01*
X200781960Y-69485952D01*
X201814375Y-69485952D01*
X201028890Y-70258248D01*
X201859804Y-71690000D01*
X200913852Y-71690000D01*
X200470551Y-70808527D01*
X200155478Y-71117006D01*
X200155478Y-71690000D01*
X199298185Y-71690000D01*
X199298185Y-68688743D01*
G37*
G36*
X203313912Y-68647284D02*
G01*
X203465064Y-68663590D01*
X203625453Y-68696353D01*
X203768662Y-68743913D01*
X203877739Y-68796454D01*
X204007844Y-68884748D01*
X204124118Y-68995757D01*
X204214514Y-69111522D01*
X204294320Y-69244678D01*
X204315177Y-69285917D01*
X204379131Y-69443081D01*
X204421446Y-69594258D01*
X204452221Y-69760633D01*
X204469050Y-69910889D01*
X204477866Y-70071699D01*
X204479309Y-70173251D01*
X204476282Y-70321389D01*
X204462829Y-70507044D01*
X204438615Y-70679143D01*
X204403639Y-70837687D01*
X204357900Y-70982676D01*
X204285594Y-71144849D01*
X204196471Y-71285842D01*
X204134926Y-71360272D01*
X204021024Y-71468771D01*
X203894099Y-71558881D01*
X203754151Y-71630601D01*
X203601179Y-71683932D01*
X203435185Y-71718872D01*
X203256167Y-71735423D01*
X203180914Y-71736894D01*
X203030487Y-71732792D01*
X202876431Y-71718057D01*
X202725889Y-71688671D01*
X202612316Y-71651165D01*
X202477476Y-71582371D01*
X202359087Y-71494876D01*
X202265736Y-71399106D01*
X202178563Y-71275475D01*
X202106456Y-71132276D01*
X202053977Y-70985115D01*
X202888555Y-70892791D01*
X202936410Y-71031417D01*
X202999930Y-71111144D01*
X203136904Y-71170220D01*
X203191172Y-71174159D01*
X203340733Y-71140540D01*
X203460787Y-71039686D01*
X203506245Y-70970460D01*
X203558234Y-70827537D01*
X203589844Y-70673778D01*
X203613221Y-70504828D01*
X203630076Y-70334452D01*
X203525768Y-70439248D01*
X203409608Y-70529476D01*
X203320865Y-70580648D01*
X203172842Y-70633743D01*
X203018314Y-70656421D01*
X202954501Y-70658318D01*
X202806733Y-70648426D01*
X202645602Y-70611881D01*
X202496602Y-70548408D01*
X202359735Y-70458008D01*
X202269399Y-70376950D01*
X202160621Y-70246734D01*
X202078561Y-70102283D01*
X202023218Y-69943596D01*
X201997045Y-69796249D01*
X201990230Y-69665471D01*
X201991867Y-69642023D01*
X202787438Y-69642023D01*
X202803513Y-69792805D01*
X202862898Y-69931731D01*
X202901744Y-69979078D01*
X203030338Y-70066456D01*
X203176848Y-70095468D01*
X203187508Y-70095582D01*
X203340018Y-70070788D01*
X203466446Y-69996406D01*
X203481332Y-69982742D01*
X203566008Y-69855541D01*
X203597458Y-69710659D01*
X203599302Y-69659609D01*
X203581888Y-69512674D01*
X203517554Y-69374068D01*
X203475471Y-69325484D01*
X203348152Y-69238706D01*
X203197005Y-69205057D01*
X203175052Y-69204584D01*
X203022095Y-69231878D01*
X202897348Y-69313761D01*
X202818458Y-69440264D01*
X202789156Y-69588969D01*
X202787438Y-69642023D01*
X201991867Y-69642023D01*
X202001474Y-69504368D01*
X202035207Y-69351611D01*
X202091428Y-69207200D01*
X202132379Y-69130579D01*
X202220800Y-69003955D01*
X202326146Y-68896111D01*
X202448416Y-68807046D01*
X202523656Y-68765680D01*
X202674230Y-68705820D01*
X202824908Y-68669058D01*
X202991432Y-68647774D01*
X203150139Y-68641849D01*
X203313912Y-68647284D01*
G37*
G36*
X179773299Y-96934654D02*
G01*
X180217333Y-96905711D01*
X180232274Y-96982321D01*
X180260384Y-97052817D01*
X180275951Y-97076803D01*
X180332887Y-97130827D01*
X180404455Y-97162425D01*
X180482214Y-97171692D01*
X180555860Y-97164073D01*
X180625584Y-97133779D01*
X180636087Y-97125530D01*
X180681360Y-97065417D01*
X180690309Y-97018185D01*
X180668062Y-96947575D01*
X180638652Y-96914870D01*
X180574485Y-96878508D01*
X180503709Y-96854326D01*
X180422697Y-96833512D01*
X180399782Y-96828408D01*
X180325777Y-96810754D01*
X180240998Y-96786690D01*
X180164805Y-96760408D01*
X180097200Y-96731907D01*
X180027407Y-96694778D01*
X179961611Y-96647424D01*
X179910219Y-96594916D01*
X179866943Y-96527608D01*
X179840152Y-96452515D01*
X179829848Y-96369637D01*
X179829719Y-96358729D01*
X179837685Y-96280904D01*
X179861582Y-96206109D01*
X179897130Y-96140743D01*
X179945917Y-96080922D01*
X180008013Y-96029689D01*
X180075279Y-95990920D01*
X180100096Y-95979542D01*
X180174148Y-95953897D01*
X180249236Y-95937468D01*
X180333931Y-95926649D01*
X180414174Y-95921840D01*
X180471590Y-95920924D01*
X180558778Y-95923518D01*
X180639223Y-95931300D01*
X180712923Y-95944269D01*
X180792461Y-95966680D01*
X180862288Y-95996562D01*
X180913059Y-96027170D01*
X180973686Y-96079648D01*
X181022533Y-96144117D01*
X181059599Y-96220578D01*
X181081993Y-96295660D01*
X181094043Y-96364958D01*
X180654039Y-96389870D01*
X180633402Y-96318922D01*
X180590572Y-96255839D01*
X180580400Y-96246988D01*
X180513630Y-96213466D01*
X180437625Y-96202466D01*
X180425428Y-96202292D01*
X180350282Y-96211908D01*
X180302696Y-96236364D01*
X180263626Y-96298546D01*
X180261663Y-96319162D01*
X180295735Y-96383276D01*
X180366792Y-96416660D01*
X180444544Y-96436280D01*
X180452172Y-96437864D01*
X180525938Y-96454110D01*
X180610513Y-96474514D01*
X180686608Y-96495026D01*
X180766730Y-96519781D01*
X180844774Y-96548857D01*
X180890344Y-96569755D01*
X180959207Y-96609812D01*
X181022262Y-96660302D01*
X181071148Y-96717088D01*
X181083052Y-96735352D01*
X181117468Y-96806129D01*
X181137598Y-96882447D01*
X181143502Y-96956636D01*
X181137126Y-97035680D01*
X181117999Y-97111247D01*
X181086121Y-97183337D01*
X181062902Y-97221884D01*
X181012699Y-97285459D01*
X180952353Y-97339761D01*
X180890197Y-97380245D01*
X180838320Y-97405799D01*
X180761613Y-97433207D01*
X180686755Y-97450766D01*
X180604674Y-97462329D01*
X180528571Y-97467468D01*
X180474887Y-97468447D01*
X180382237Y-97466094D01*
X180296994Y-97459036D01*
X180219159Y-97447272D01*
X180132282Y-97425950D01*
X180056978Y-97397276D01*
X179981892Y-97353162D01*
X179941094Y-97317871D01*
X179889986Y-97258408D01*
X179847946Y-97193227D01*
X179814973Y-97122327D01*
X179791068Y-97045708D01*
X179776230Y-96963371D01*
X179773299Y-96934654D01*
G37*
G36*
X182143713Y-95946316D02*
G01*
X182223129Y-95953502D01*
X182304703Y-95968196D01*
X182376476Y-95989806D01*
X182400864Y-95999692D01*
X182468484Y-96034607D01*
X182529149Y-96077114D01*
X182582858Y-96127214D01*
X182609692Y-96158328D01*
X182652466Y-96219138D01*
X182688053Y-96285338D01*
X182716454Y-96356928D01*
X182729126Y-96399030D01*
X182747013Y-96477407D01*
X182759047Y-96558394D01*
X182764828Y-96632571D01*
X182766129Y-96689556D01*
X182764184Y-96776020D01*
X182758350Y-96854884D01*
X182746626Y-96937288D01*
X182729609Y-97009348D01*
X182710808Y-97062882D01*
X182676505Y-97133915D01*
X182635421Y-97198225D01*
X182587556Y-97255811D01*
X182558034Y-97284898D01*
X182495466Y-97334937D01*
X182430036Y-97373312D01*
X182361743Y-97400024D01*
X182347741Y-97403967D01*
X182272797Y-97421919D01*
X182192809Y-97435984D01*
X182117400Y-97443557D01*
X182069671Y-97445000D01*
X181376143Y-97445000D01*
X181376143Y-97093290D01*
X181842891Y-97093290D01*
X181957197Y-97093290D01*
X182032757Y-97090827D01*
X182107005Y-97081125D01*
X182165292Y-97062149D01*
X182223426Y-97015541D01*
X182262012Y-96952606D01*
X182283444Y-96880203D01*
X182293748Y-96799088D01*
X182297045Y-96720594D01*
X182297183Y-96699082D01*
X182294426Y-96617268D01*
X182284243Y-96534842D01*
X182263418Y-96457814D01*
X182228275Y-96393053D01*
X182218781Y-96381810D01*
X182159919Y-96336602D01*
X182089691Y-96310230D01*
X182013545Y-96298174D01*
X181959395Y-96296081D01*
X181842891Y-96296081D01*
X181842891Y-97093290D01*
X181376143Y-97093290D01*
X181376143Y-95944371D01*
X182069671Y-95944371D01*
X182143713Y-95946316D01*
G37*
G36*
X182894357Y-96718133D02*
G01*
X183504353Y-96718133D01*
X183504353Y-97046395D01*
X182894357Y-97046395D01*
X182894357Y-96718133D01*
G37*
G36*
X184707127Y-96835369D02*
G01*
X185115990Y-96953705D01*
X185095759Y-97025555D01*
X185067056Y-97101100D01*
X185032401Y-97169639D01*
X184991791Y-97231171D01*
X184986297Y-97238370D01*
X184933035Y-97298056D01*
X184872991Y-97348932D01*
X184806167Y-97390998D01*
X184766112Y-97410561D01*
X184696044Y-97435886D01*
X184617001Y-97453975D01*
X184540476Y-97463868D01*
X184457078Y-97468221D01*
X184431987Y-97468447D01*
X184357251Y-97466721D01*
X184273377Y-97460092D01*
X184195839Y-97448491D01*
X184113388Y-97428673D01*
X184039562Y-97402089D01*
X184029719Y-97397739D01*
X183963472Y-97361507D01*
X183901292Y-97315002D01*
X183843179Y-97258223D01*
X183796604Y-97201380D01*
X183760075Y-97148244D01*
X183721603Y-97077696D01*
X183691090Y-97000142D01*
X183668537Y-96915580D01*
X183655824Y-96839760D01*
X183648638Y-96759074D01*
X183646869Y-96691022D01*
X183649983Y-96600925D01*
X183659325Y-96516197D01*
X183674896Y-96436839D01*
X183696694Y-96362851D01*
X183724721Y-96294232D01*
X183768513Y-96216009D01*
X183822037Y-96146177D01*
X183846171Y-96120593D01*
X183912496Y-96063071D01*
X183986906Y-96015299D01*
X184069403Y-95977276D01*
X184141222Y-95953877D01*
X184218215Y-95936718D01*
X184300384Y-95925799D01*
X184387727Y-95921119D01*
X184410372Y-95920924D01*
X184496571Y-95923751D01*
X184576796Y-95932230D01*
X184651045Y-95946362D01*
X184732258Y-95970783D01*
X184804867Y-96003343D01*
X184858802Y-96036695D01*
X184917127Y-96084476D01*
X184969553Y-96140989D01*
X185016079Y-96206235D01*
X185056707Y-96280213D01*
X185086057Y-96348532D01*
X185101701Y-96392435D01*
X184689542Y-96483660D01*
X184663098Y-96415220D01*
X184644112Y-96383276D01*
X184591362Y-96328846D01*
X184548125Y-96301577D01*
X184476347Y-96277411D01*
X184421729Y-96272634D01*
X184347037Y-96280442D01*
X184274065Y-96307892D01*
X184212801Y-96355107D01*
X184178463Y-96397564D01*
X184144847Y-96465835D01*
X184125237Y-96544960D01*
X184116957Y-96618082D01*
X184114716Y-96688824D01*
X184117395Y-96775450D01*
X184125432Y-96851232D01*
X184141581Y-96925937D01*
X184173059Y-97000296D01*
X184190920Y-97025512D01*
X184250626Y-97077450D01*
X184324965Y-97107828D01*
X184405243Y-97116737D01*
X184482644Y-97109725D01*
X184552992Y-97085812D01*
X184607842Y-97044930D01*
X184653918Y-96981629D01*
X184684208Y-96914868D01*
X184705167Y-96843892D01*
X184707127Y-96835369D01*
G37*
G36*
X185932102Y-96320545D02*
G01*
X186013658Y-96324197D01*
X186094297Y-96331481D01*
X186156098Y-96340778D01*
X186230389Y-96360841D01*
X186301066Y-96395171D01*
X186346973Y-96429438D01*
X186394784Y-96485766D01*
X186429292Y-96556375D01*
X186431237Y-96561695D01*
X186452525Y-96634915D01*
X186462105Y-96710097D01*
X186462378Y-96724727D01*
X186462378Y-97210893D01*
X186465392Y-97287606D01*
X186471904Y-97332526D01*
X186496414Y-97404578D01*
X186514768Y-97445000D01*
X186121293Y-97445000D01*
X186090152Y-97379787D01*
X186075864Y-97309078D01*
X186019322Y-97358411D01*
X185957936Y-97400082D01*
X185912099Y-97423018D01*
X185838984Y-97446974D01*
X185758856Y-97462058D01*
X185680745Y-97468048D01*
X185653446Y-97468447D01*
X185572217Y-97464274D01*
X185490460Y-97449288D01*
X185420519Y-97423402D01*
X185355958Y-97381252D01*
X185302442Y-97322748D01*
X185268746Y-97256230D01*
X185254872Y-97181698D01*
X185254475Y-97165830D01*
X185258207Y-97132491D01*
X185675061Y-97132491D01*
X185703345Y-97200264D01*
X185709500Y-97205764D01*
X185779498Y-97232211D01*
X185810983Y-97233974D01*
X185886575Y-97224236D01*
X185941042Y-97203199D01*
X186002866Y-97159579D01*
X186026771Y-97128461D01*
X186049582Y-97054866D01*
X186052050Y-97013056D01*
X186052050Y-96952606D01*
X185980591Y-96974201D01*
X185906712Y-96993740D01*
X185871799Y-97002065D01*
X185795020Y-97023093D01*
X185726182Y-97051348D01*
X185710232Y-97062515D01*
X185675199Y-97127624D01*
X185675061Y-97132491D01*
X185258207Y-97132491D01*
X185263133Y-97088488D01*
X185292328Y-97015570D01*
X185327748Y-96968726D01*
X185392547Y-96920256D01*
X185467396Y-96887553D01*
X185539196Y-96866446D01*
X185597759Y-96853688D01*
X185680401Y-96837480D01*
X185762068Y-96821014D01*
X185835954Y-96805414D01*
X185903673Y-96789574D01*
X185975755Y-96768416D01*
X186047158Y-96743424D01*
X186052050Y-96741580D01*
X186041965Y-96668628D01*
X186020177Y-96632404D01*
X185949186Y-96603388D01*
X185907703Y-96600896D01*
X185832522Y-96606822D01*
X185759755Y-96632452D01*
X185753097Y-96636800D01*
X185707153Y-96694487D01*
X185688251Y-96741580D01*
X185287448Y-96694685D01*
X185305402Y-96620225D01*
X185332648Y-96547407D01*
X185352661Y-96510771D01*
X185401138Y-96451598D01*
X185461345Y-96403633D01*
X185476126Y-96394267D01*
X185544544Y-96362485D01*
X185616185Y-96342731D01*
X185634761Y-96338946D01*
X185712866Y-96327113D01*
X185788444Y-96321064D01*
X185853114Y-96319528D01*
X185932102Y-96320545D01*
G37*
G36*
X186709674Y-96342976D02*
G01*
X187102417Y-96342976D01*
X187102417Y-96524692D01*
X187138230Y-96458575D01*
X187182056Y-96398125D01*
X187219287Y-96363492D01*
X187286515Y-96330519D01*
X187362517Y-96319571D01*
X187368031Y-96319528D01*
X187446244Y-96328900D01*
X187516958Y-96351471D01*
X187570996Y-96376315D01*
X187441304Y-96678932D01*
X187371358Y-96654633D01*
X187324067Y-96647791D01*
X187250886Y-96664918D01*
X187196206Y-96716301D01*
X187164859Y-96783596D01*
X187145608Y-96865747D01*
X187136489Y-96941155D01*
X187131929Y-97028387D01*
X187131359Y-97076437D01*
X187131359Y-97445000D01*
X186709674Y-97445000D01*
X186709674Y-96342976D01*
G37*
G36*
X188840815Y-97445000D02*
G01*
X188448439Y-97445000D01*
X188448439Y-97297355D01*
X188393455Y-97355066D01*
X188332828Y-97404516D01*
X188297863Y-97424849D01*
X188227058Y-97451417D01*
X188150379Y-97465722D01*
X188095996Y-97468447D01*
X188015900Y-97462445D01*
X187943223Y-97444439D01*
X187867809Y-97408259D01*
X187802493Y-97355741D01*
X187754545Y-97297721D01*
X187714454Y-97231110D01*
X187682657Y-97159321D01*
X187659156Y-97082355D01*
X187643949Y-97000210D01*
X187637037Y-96912888D01*
X187636799Y-96897285D01*
X188055696Y-96897285D01*
X188059725Y-96975431D01*
X188073649Y-97047373D01*
X188106621Y-97117470D01*
X188163865Y-97169677D01*
X188233017Y-97187079D01*
X188306564Y-97169494D01*
X188363370Y-97121065D01*
X188366740Y-97116737D01*
X188401609Y-97044891D01*
X188416335Y-96969629D01*
X188420595Y-96887027D01*
X188416277Y-96811656D01*
X188399272Y-96735358D01*
X188366007Y-96671971D01*
X188308471Y-96620955D01*
X188233080Y-96600966D01*
X188227888Y-96600896D01*
X188156756Y-96620128D01*
X188105156Y-96669040D01*
X188073133Y-96739583D01*
X188059609Y-96814502D01*
X188055696Y-96897285D01*
X187636799Y-96897285D01*
X187636576Y-96882630D01*
X187639751Y-96800361D01*
X187649277Y-96724371D01*
X187669091Y-96641471D01*
X187698049Y-96567613D01*
X187736152Y-96502796D01*
X187766635Y-96464609D01*
X187827062Y-96408078D01*
X187894221Y-96365433D01*
X187968112Y-96336672D01*
X188048736Y-96321795D01*
X188097828Y-96319528D01*
X188174520Y-96324426D01*
X188250215Y-96340655D01*
X188275515Y-96349204D01*
X188341963Y-96380600D01*
X188401539Y-96423496D01*
X188417298Y-96437864D01*
X188417298Y-95944371D01*
X188840815Y-95944371D01*
X188840815Y-97445000D01*
G37*
G36*
X186501758Y-73214381D02*
G01*
X186851123Y-73214381D01*
X187021116Y-73773013D01*
X187196678Y-73214381D01*
X187535491Y-73214381D01*
X187163558Y-74096000D01*
X186866071Y-74096000D01*
X186501758Y-73214381D01*
G37*
G36*
X188355854Y-72876739D02*
G01*
X188355854Y-74096000D01*
X188016161Y-74096000D01*
X188016161Y-73297618D01*
X187965202Y-73335177D01*
X187915274Y-73367983D01*
X187861543Y-73398583D01*
X187856720Y-73401080D01*
X187799119Y-73427901D01*
X187738760Y-73451623D01*
X187677928Y-73472435D01*
X187663572Y-73476990D01*
X187663572Y-73195623D01*
X187725170Y-73174517D01*
X187781368Y-73151865D01*
X187840108Y-73123485D01*
X187891499Y-73093001D01*
X187929699Y-73065197D01*
X187974469Y-73024732D01*
X188014110Y-72979834D01*
X188048621Y-72930503D01*
X188078004Y-72876739D01*
X188355854Y-72876739D01*
G37*
G36*
X189979837Y-72879249D02*
G01*
X190048750Y-72886778D01*
X190113340Y-72899326D01*
X190173607Y-72916893D01*
X190229551Y-72939479D01*
X190293402Y-72974770D01*
X190350497Y-73017904D01*
X190371444Y-73037353D01*
X190418475Y-73090595D01*
X190457534Y-73150119D01*
X190488622Y-73215926D01*
X190507753Y-73273095D01*
X190521782Y-73334284D01*
X190530710Y-73399495D01*
X190534537Y-73468726D01*
X190534696Y-73486662D01*
X190532950Y-73550403D01*
X190527712Y-73610465D01*
X190516817Y-73677685D01*
X190500894Y-73739608D01*
X190479943Y-73796236D01*
X190463182Y-73831045D01*
X190428979Y-73886926D01*
X190388689Y-73937113D01*
X190342313Y-73981606D01*
X190289850Y-74020405D01*
X190257138Y-74040019D01*
X190195098Y-74069141D01*
X190136853Y-74088409D01*
X190073930Y-74102423D01*
X190006329Y-74111181D01*
X189946421Y-74114465D01*
X189921549Y-74114757D01*
X189859343Y-74113183D01*
X189800586Y-74108460D01*
X189734630Y-74098637D01*
X189673640Y-74084280D01*
X189617617Y-74065390D01*
X189583028Y-74050277D01*
X189526854Y-74018477D01*
X189475533Y-73979496D01*
X189429065Y-73933334D01*
X189387449Y-73879991D01*
X189365847Y-73846286D01*
X189337559Y-73791396D01*
X189315124Y-73731582D01*
X189298542Y-73666842D01*
X189287812Y-73597176D01*
X189283341Y-73535359D01*
X189282609Y-73496628D01*
X189656008Y-73496628D01*
X189658398Y-73560447D01*
X189667230Y-73625917D01*
X189685292Y-73688891D01*
X189715771Y-73744628D01*
X189724005Y-73754841D01*
X189771283Y-73796263D01*
X189828121Y-73822344D01*
X189887449Y-73832699D01*
X189908946Y-73833390D01*
X189972393Y-73827315D01*
X190032774Y-73806318D01*
X190082508Y-73770323D01*
X190095352Y-73756600D01*
X190127230Y-73703596D01*
X190146807Y-73640288D01*
X190157176Y-73572392D01*
X190161040Y-73504907D01*
X190161297Y-73480508D01*
X190158876Y-73420813D01*
X190149930Y-73359192D01*
X190131635Y-73299346D01*
X190100762Y-73245508D01*
X190092421Y-73235483D01*
X190044593Y-73194679D01*
X189987206Y-73168988D01*
X189927383Y-73158787D01*
X189905722Y-73158107D01*
X189845750Y-73164320D01*
X189787326Y-73185798D01*
X189737547Y-73222618D01*
X189724298Y-73236655D01*
X189691287Y-73288977D01*
X189671013Y-73349147D01*
X189660276Y-73412345D01*
X189656275Y-73474351D01*
X189656008Y-73496628D01*
X189282609Y-73496628D01*
X189285183Y-73425383D01*
X189292904Y-73358197D01*
X189305773Y-73295068D01*
X189323789Y-73235996D01*
X189346952Y-73180982D01*
X189383145Y-73117920D01*
X189427381Y-73061198D01*
X189447327Y-73040284D01*
X189502048Y-72993169D01*
X189563081Y-72954040D01*
X189616451Y-72928486D01*
X189673860Y-72908043D01*
X189735309Y-72892710D01*
X189800796Y-72882489D01*
X189870323Y-72877378D01*
X189906601Y-72876739D01*
X189979837Y-72879249D01*
G37*
G36*
X190727257Y-72895497D02*
G01*
X191727871Y-72895497D01*
X191727871Y-73176865D01*
X191101535Y-73176865D01*
X191101535Y-73345685D01*
X191682735Y-73345685D01*
X191682735Y-73589538D01*
X191101535Y-73589538D01*
X191101535Y-73814632D01*
X191746043Y-73814632D01*
X191746043Y-74096000D01*
X190727257Y-74096000D01*
X190727257Y-72895497D01*
G37*
G36*
X192404769Y-72878913D02*
G01*
X192465230Y-72885436D01*
X192529385Y-72898541D01*
X192586669Y-72917565D01*
X192630300Y-72938581D01*
X192682342Y-72973899D01*
X192728852Y-73018302D01*
X192765010Y-73064609D01*
X192796932Y-73117871D01*
X192805275Y-73134367D01*
X192830857Y-73197232D01*
X192847783Y-73257703D01*
X192860092Y-73324253D01*
X192866824Y-73384355D01*
X192870351Y-73448679D01*
X192870928Y-73489300D01*
X192869717Y-73548555D01*
X192864336Y-73622817D01*
X192854650Y-73691657D01*
X192840660Y-73755075D01*
X192822364Y-73813070D01*
X192793442Y-73877939D01*
X192757793Y-73934337D01*
X192733175Y-73964108D01*
X192687614Y-74007508D01*
X192636844Y-74043552D01*
X192580864Y-74072240D01*
X192519676Y-74093572D01*
X192453278Y-74107549D01*
X192381671Y-74114169D01*
X192351570Y-74114757D01*
X192291399Y-74113116D01*
X192229776Y-74107223D01*
X192169560Y-74095468D01*
X192124131Y-74080466D01*
X192070195Y-74052948D01*
X192022839Y-74017950D01*
X191985498Y-73979642D01*
X191950629Y-73930190D01*
X191921787Y-73872910D01*
X191900795Y-73814046D01*
X192234626Y-73777116D01*
X192253768Y-73832566D01*
X192279176Y-73864457D01*
X192333966Y-73888088D01*
X192355673Y-73889663D01*
X192415497Y-73876216D01*
X192463519Y-73835874D01*
X192481702Y-73808184D01*
X192502498Y-73751014D01*
X192515142Y-73689511D01*
X192524492Y-73621931D01*
X192531235Y-73553780D01*
X192489512Y-73595699D01*
X192443047Y-73631790D01*
X192407550Y-73652259D01*
X192348341Y-73673497D01*
X192286530Y-73682568D01*
X192261004Y-73683327D01*
X192201897Y-73679370D01*
X192137445Y-73664752D01*
X192077845Y-73639363D01*
X192023098Y-73603203D01*
X191986964Y-73570780D01*
X191943453Y-73518693D01*
X191910628Y-73460913D01*
X191888491Y-73397438D01*
X191878022Y-73338499D01*
X191875296Y-73286188D01*
X191875951Y-73276809D01*
X192194180Y-73276809D01*
X192200609Y-73337122D01*
X192224363Y-73392692D01*
X192239902Y-73411631D01*
X192291339Y-73446582D01*
X192349943Y-73458187D01*
X192354207Y-73458233D01*
X192415211Y-73448315D01*
X192465783Y-73418562D01*
X192471737Y-73413096D01*
X192505607Y-73362216D01*
X192518188Y-73304263D01*
X192518925Y-73283843D01*
X192511959Y-73225069D01*
X192486226Y-73169627D01*
X192469392Y-73150193D01*
X192418465Y-73115482D01*
X192358006Y-73102022D01*
X192349225Y-73101833D01*
X192288042Y-73112751D01*
X192238143Y-73145504D01*
X192206587Y-73196105D01*
X192194866Y-73255587D01*
X192194180Y-73276809D01*
X191875951Y-73276809D01*
X191879794Y-73221747D01*
X191893287Y-73160644D01*
X191915775Y-73102880D01*
X191932156Y-73072231D01*
X191967524Y-73021582D01*
X192009662Y-72978444D01*
X192058570Y-72942818D01*
X192088667Y-72926272D01*
X192148896Y-72902328D01*
X192209168Y-72887623D01*
X192275777Y-72879109D01*
X192339260Y-72876739D01*
X192404769Y-72878913D01*
G37*
G36*
X192994905Y-73687723D02*
G01*
X193350132Y-73664569D01*
X193362085Y-73725857D01*
X193384573Y-73782253D01*
X193397027Y-73801443D01*
X193442575Y-73844661D01*
X193499830Y-73869940D01*
X193562037Y-73877353D01*
X193620954Y-73871258D01*
X193676733Y-73847023D01*
X193685136Y-73840424D01*
X193721354Y-73792334D01*
X193728513Y-73754548D01*
X193710716Y-73698060D01*
X193687187Y-73671896D01*
X193635854Y-73642806D01*
X193579233Y-73623461D01*
X193514424Y-73606809D01*
X193496092Y-73602727D01*
X193436887Y-73588603D01*
X193369064Y-73569352D01*
X193308110Y-73548326D01*
X193254026Y-73525526D01*
X193198192Y-73495823D01*
X193145554Y-73457939D01*
X193104441Y-73415933D01*
X193069820Y-73362087D01*
X193048388Y-73302012D01*
X193040144Y-73235709D01*
X193040041Y-73226983D01*
X193046414Y-73164723D01*
X193065531Y-73104887D01*
X193093970Y-73052594D01*
X193132999Y-73004738D01*
X193182676Y-72963751D01*
X193236489Y-72932736D01*
X193256343Y-72923634D01*
X193315584Y-72903117D01*
X193375655Y-72889974D01*
X193443411Y-72881319D01*
X193507605Y-72877472D01*
X193553538Y-72876739D01*
X193623288Y-72878814D01*
X193687644Y-72885040D01*
X193746604Y-72895415D01*
X193810235Y-72913344D01*
X193866096Y-72937249D01*
X193906713Y-72961736D01*
X193955215Y-73003718D01*
X193994292Y-73055294D01*
X194023945Y-73116462D01*
X194041860Y-73176528D01*
X194051500Y-73231966D01*
X193699497Y-73251896D01*
X193682987Y-73195138D01*
X193648723Y-73144671D01*
X193640586Y-73137591D01*
X193587170Y-73110773D01*
X193526366Y-73101973D01*
X193516608Y-73101833D01*
X193456491Y-73109526D01*
X193418422Y-73129091D01*
X193387167Y-73178836D01*
X193385596Y-73195330D01*
X193412854Y-73246621D01*
X193469699Y-73273328D01*
X193531901Y-73289024D01*
X193538004Y-73290291D01*
X193597016Y-73303288D01*
X193664676Y-73319611D01*
X193725552Y-73336020D01*
X193789650Y-73355825D01*
X193852085Y-73379086D01*
X193888541Y-73395804D01*
X193943631Y-73427850D01*
X193994075Y-73468241D01*
X194033184Y-73513670D01*
X194042707Y-73528281D01*
X194070240Y-73584903D01*
X194086345Y-73645958D01*
X194091067Y-73705309D01*
X194085967Y-73768544D01*
X194070665Y-73828998D01*
X194045163Y-73886669D01*
X194026587Y-73917507D01*
X193986425Y-73968367D01*
X193938148Y-74011809D01*
X193888423Y-74044196D01*
X193846922Y-74064639D01*
X193785556Y-74086566D01*
X193725670Y-74100613D01*
X193660005Y-74109863D01*
X193599122Y-74113974D01*
X193556175Y-74114757D01*
X193482055Y-74112875D01*
X193413861Y-74107229D01*
X193351593Y-74097818D01*
X193282091Y-74080760D01*
X193221848Y-74057821D01*
X193161780Y-74022530D01*
X193129141Y-73994297D01*
X193088255Y-73946727D01*
X193054623Y-73894582D01*
X193028244Y-73837862D01*
X193009120Y-73776566D01*
X192997250Y-73710696D01*
X192994905Y-73687723D01*
G37*
G36*
X195465666Y-74096000D02*
G01*
X195074975Y-74096000D01*
X195015771Y-73889663D01*
X194590495Y-73889663D01*
X194531877Y-74096000D01*
X194150272Y-74096000D01*
X194327615Y-73627053D01*
X194671095Y-73627053D01*
X194937515Y-73627053D01*
X194803866Y-73202071D01*
X194671095Y-73627053D01*
X194327615Y-73627053D01*
X194604270Y-72895497D01*
X195011667Y-72895497D01*
X195465666Y-74096000D01*
G37*
G36*
X196307131Y-72895497D02*
G01*
X196679651Y-72895497D01*
X196679651Y-73609761D01*
X196677008Y-73668514D01*
X196667871Y-73731620D01*
X196652209Y-73792437D01*
X196646238Y-73810235D01*
X196621663Y-73866930D01*
X196589704Y-73919046D01*
X196550359Y-73966581D01*
X196541605Y-73975539D01*
X196496404Y-74015564D01*
X196445097Y-74050071D01*
X196392128Y-74074604D01*
X196334902Y-74092171D01*
X196272254Y-74104719D01*
X196212988Y-74111581D01*
X196149572Y-74114601D01*
X196130690Y-74114757D01*
X196068134Y-74113303D01*
X196007959Y-74109456D01*
X195944635Y-74103205D01*
X195938129Y-74102448D01*
X195876420Y-74092407D01*
X195816209Y-74075940D01*
X195764033Y-74053794D01*
X195713145Y-74022250D01*
X195665554Y-73982133D01*
X195635659Y-73950626D01*
X195600091Y-73903998D01*
X195571164Y-73852024D01*
X195556231Y-73812287D01*
X195539513Y-73750053D01*
X195528266Y-73691947D01*
X195522187Y-73632224D01*
X195521646Y-73609761D01*
X195521646Y-72895497D01*
X195894166Y-72895497D01*
X195894166Y-73625295D01*
X195900642Y-73687539D01*
X195922480Y-73743909D01*
X195948974Y-73778288D01*
X196000519Y-73813964D01*
X196060550Y-73830753D01*
X196101088Y-73833390D01*
X196162464Y-73826983D01*
X196218202Y-73805378D01*
X196252323Y-73779168D01*
X196287809Y-73727615D01*
X196304509Y-73666718D01*
X196307131Y-73625295D01*
X196307131Y-72895497D01*
G37*
G36*
X197992470Y-72879104D02*
G01*
X198050690Y-72886198D01*
X198112465Y-72901292D01*
X198127522Y-72906635D01*
X198182312Y-72931392D01*
X198232365Y-72963979D01*
X198255310Y-72984011D01*
X198297110Y-73029893D01*
X198331475Y-73081249D01*
X198333272Y-73084541D01*
X198359138Y-73141621D01*
X198377082Y-73198658D01*
X198379288Y-73207346D01*
X198392421Y-73266493D01*
X198402329Y-73326734D01*
X198409010Y-73388069D01*
X198412467Y-73450498D01*
X198412993Y-73486662D01*
X198412014Y-73546237D01*
X198407664Y-73620893D01*
X198399833Y-73690090D01*
X198388521Y-73753828D01*
X198373729Y-73812107D01*
X198350345Y-73877280D01*
X198321522Y-73933923D01*
X198301618Y-73963815D01*
X198254206Y-74015112D01*
X198206070Y-74049752D01*
X198150090Y-74077022D01*
X198086268Y-74096921D01*
X198014604Y-74109451D01*
X197951626Y-74114168D01*
X197918255Y-74114757D01*
X197854368Y-74112457D01*
X197796062Y-74105557D01*
X197736262Y-74092038D01*
X197677702Y-74069648D01*
X197671765Y-74066690D01*
X197621533Y-74035964D01*
X197576680Y-73998189D01*
X197537205Y-73953367D01*
X197517599Y-73925420D01*
X197487566Y-73868941D01*
X197466695Y-73811484D01*
X197451141Y-73751698D01*
X197449602Y-73744583D01*
X197438959Y-73685635D01*
X197431357Y-73623683D01*
X197426796Y-73558726D01*
X197425299Y-73499425D01*
X197425286Y-73494576D01*
X197758520Y-73494576D01*
X197759515Y-73562306D01*
X197762499Y-73622981D01*
X197768705Y-73686478D01*
X197779566Y-73747716D01*
X197799260Y-73806132D01*
X197835008Y-73857034D01*
X197889841Y-73886727D01*
X197917669Y-73889663D01*
X197976150Y-73875810D01*
X198006182Y-73854199D01*
X198040418Y-73804938D01*
X198060165Y-73746979D01*
X198061284Y-73742238D01*
X198071462Y-73679499D01*
X198076648Y-73613072D01*
X198078726Y-73552014D01*
X198079162Y-73503369D01*
X198078167Y-73432895D01*
X198075184Y-73370035D01*
X198068977Y-73304653D01*
X198058116Y-73242230D01*
X198038422Y-73183899D01*
X198002097Y-73133890D01*
X197949722Y-73105760D01*
X197915910Y-73101833D01*
X197855874Y-73115619D01*
X197811026Y-73156977D01*
X197795450Y-73185364D01*
X197777598Y-73243595D01*
X197767752Y-73304433D01*
X197762126Y-73367407D01*
X197759422Y-73427521D01*
X197758520Y-73494576D01*
X197425286Y-73494576D01*
X197425275Y-73490766D01*
X197426365Y-73428599D01*
X197429634Y-73370034D01*
X197437382Y-73297549D01*
X197449005Y-73231466D01*
X197464502Y-73171785D01*
X197489322Y-73106187D01*
X197520196Y-73050593D01*
X197549253Y-73013320D01*
X197600409Y-72966904D01*
X197649997Y-72935560D01*
X197705910Y-72910884D01*
X197768149Y-72892878D01*
X197836714Y-72881541D01*
X197896120Y-72877273D01*
X197927341Y-72876739D01*
X197992470Y-72879104D01*
G37*
G36*
X198550746Y-72895497D02*
G01*
X199530844Y-72895497D01*
X199530844Y-73120298D01*
X199484407Y-73163942D01*
X199440938Y-73208926D01*
X199400437Y-73255250D01*
X199362903Y-73302912D01*
X199328336Y-73351915D01*
X199317473Y-73368547D01*
X199286109Y-73420105D01*
X199256863Y-73473481D01*
X199229735Y-73528675D01*
X199204725Y-73585686D01*
X199181833Y-73644515D01*
X199161059Y-73705161D01*
X199153342Y-73729928D01*
X199136529Y-73789949D01*
X199121922Y-73853947D01*
X199109519Y-73921923D01*
X199100868Y-73981607D01*
X199093748Y-74044054D01*
X199089155Y-74096000D01*
X198754445Y-74096000D01*
X198765042Y-74023991D01*
X198777049Y-73954949D01*
X198790467Y-73888875D01*
X198805296Y-73825769D01*
X198821535Y-73765631D01*
X198839185Y-73708459D01*
X198863230Y-73641169D01*
X198878715Y-73603020D01*
X198907688Y-73540065D01*
X198941484Y-73475765D01*
X198971993Y-73423357D01*
X199005589Y-73370088D01*
X199042271Y-73315957D01*
X199082040Y-73260966D01*
X199124895Y-73205114D01*
X199147480Y-73176865D01*
X198550746Y-73176865D01*
X198550746Y-72895497D01*
G37*
G36*
X199897794Y-72876739D02*
G01*
X200069253Y-72876739D01*
X199765903Y-74114757D01*
X199596203Y-74114757D01*
X199897794Y-72876739D01*
G37*
G36*
X201113831Y-74096000D02*
G01*
X200106475Y-74096000D01*
X200117407Y-74030818D01*
X200135070Y-73967347D01*
X200159465Y-73905588D01*
X200190593Y-73845539D01*
X200211402Y-73811994D01*
X200249774Y-73760491D01*
X200290000Y-73715289D01*
X200337725Y-73668013D01*
X200381304Y-73628697D01*
X200429682Y-73588054D01*
X200482860Y-73546082D01*
X200540837Y-73502782D01*
X200592481Y-73464170D01*
X200643251Y-73423758D01*
X200688771Y-73383687D01*
X200729588Y-73339237D01*
X200759250Y-73288044D01*
X200770914Y-73233138D01*
X200756551Y-73174085D01*
X200730174Y-73140228D01*
X200677665Y-73109182D01*
X200627592Y-73101833D01*
X200569047Y-73112238D01*
X200522372Y-73143452D01*
X200490039Y-73196106D01*
X200472612Y-73258260D01*
X200467564Y-73289412D01*
X200131095Y-73261568D01*
X200141385Y-73202622D01*
X200156992Y-73142570D01*
X200179455Y-73084340D01*
X200203782Y-73040870D01*
X200240962Y-72994863D01*
X200286557Y-72956126D01*
X200340567Y-72924659D01*
X200352379Y-72919237D01*
X200412297Y-72898694D01*
X200475366Y-72886077D01*
X200538126Y-72879395D01*
X200597546Y-72876905D01*
X200618506Y-72876739D01*
X200682130Y-72878141D01*
X200749377Y-72883318D01*
X200809107Y-72892310D01*
X200868165Y-72907257D01*
X200894012Y-72916600D01*
X200951594Y-72945479D01*
X201000876Y-72982660D01*
X201041857Y-73028140D01*
X201049057Y-73038233D01*
X201078887Y-73091470D01*
X201097669Y-73148600D01*
X201105403Y-73209622D01*
X201105624Y-73222294D01*
X201100500Y-73282387D01*
X201085129Y-73340996D01*
X201059511Y-73398121D01*
X201040851Y-73429217D01*
X201001851Y-73479811D01*
X200956878Y-73526065D01*
X200910269Y-73567185D01*
X200856221Y-73609665D01*
X200805498Y-73646104D01*
X200753765Y-73681578D01*
X200704954Y-73716057D01*
X200669797Y-73742531D01*
X200625084Y-73781240D01*
X200589490Y-73814632D01*
X201113831Y-73814632D01*
X201113831Y-74096000D01*
G37*
G36*
X201386699Y-72895497D02*
G01*
X202183907Y-72895497D01*
X202183907Y-73176865D01*
X201644033Y-73176865D01*
X201615017Y-73346565D01*
X201670704Y-73321505D01*
X201725806Y-73303773D01*
X201783708Y-73292568D01*
X201834249Y-73289412D01*
X201899872Y-73293235D01*
X201960672Y-73304703D01*
X202016651Y-73323817D01*
X202075864Y-73355780D01*
X202128513Y-73398149D01*
X202172595Y-73448414D01*
X202205850Y-73504065D01*
X202228278Y-73565101D01*
X202239879Y-73631523D01*
X202241646Y-73671896D01*
X202237033Y-73736464D01*
X202223192Y-73799594D01*
X202200124Y-73861286D01*
X202183321Y-73894939D01*
X202151264Y-73945277D01*
X202107931Y-73994376D01*
X202056900Y-74035499D01*
X202018604Y-74058484D01*
X201961524Y-74083103D01*
X201896971Y-74100689D01*
X201834356Y-74110306D01*
X201766019Y-74114538D01*
X201745443Y-74114757D01*
X201680867Y-74112926D01*
X201621671Y-74107431D01*
X201562206Y-74097030D01*
X201540279Y-74091603D01*
X201484655Y-74072983D01*
X201430848Y-74046509D01*
X201395198Y-74022434D01*
X201350533Y-73983063D01*
X201310654Y-73936228D01*
X201298478Y-73918386D01*
X201270315Y-73866256D01*
X201248010Y-73809722D01*
X201236636Y-73773013D01*
X201576329Y-73739600D01*
X201593439Y-73797239D01*
X201628519Y-73846625D01*
X201634068Y-73851561D01*
X201687217Y-73881291D01*
X201742219Y-73889663D01*
X201802544Y-73879230D01*
X201852179Y-73847932D01*
X201857990Y-73842182D01*
X201889245Y-73791717D01*
X201902105Y-73734262D01*
X201903712Y-73700619D01*
X201898240Y-73640421D01*
X201877663Y-73584995D01*
X201857404Y-73559349D01*
X201807502Y-73527162D01*
X201748726Y-73514900D01*
X201734598Y-73514506D01*
X201675041Y-73522864D01*
X201640516Y-73535902D01*
X201590985Y-73569036D01*
X201566364Y-73591882D01*
X201280600Y-73554953D01*
X201386699Y-72895497D01*
G37*
G36*
X102414480Y-85757278D02*
G01*
X102497599Y-85768441D01*
X102571753Y-85787976D01*
X102646937Y-85821347D01*
X102709919Y-85866114D01*
X102717920Y-85873440D01*
X102767170Y-85930336D01*
X102804323Y-85996839D01*
X102829380Y-86072949D01*
X102841230Y-86145832D01*
X102844316Y-86211960D01*
X102839473Y-86293250D01*
X102824944Y-86367585D01*
X102795752Y-86445518D01*
X102753377Y-86513985D01*
X102706563Y-86565136D01*
X102639514Y-86614671D01*
X102570992Y-86647446D01*
X102492270Y-86671283D01*
X102418875Y-86684318D01*
X102338397Y-86691147D01*
X102286709Y-86692264D01*
X102031353Y-86692264D01*
X102031353Y-87255000D01*
X101562407Y-87255000D01*
X101562407Y-86387449D01*
X102031353Y-86387449D01*
X102145659Y-86387449D01*
X102222281Y-86383012D01*
X102298354Y-86363980D01*
X102335436Y-86342020D01*
X102379575Y-86282385D01*
X102390024Y-86224783D01*
X102373233Y-86150048D01*
X102342397Y-86107547D01*
X102274253Y-86071277D01*
X102195736Y-86059942D01*
X102164344Y-86059187D01*
X102031353Y-86059187D01*
X102031353Y-86387449D01*
X101562407Y-86387449D01*
X101562407Y-85754371D01*
X102338367Y-85754371D01*
X102414480Y-85757278D01*
G37*
G36*
X102924183Y-85754371D02*
G01*
X103367484Y-85754371D01*
X103527219Y-86592613D01*
X103759860Y-85754371D01*
X104202062Y-85754371D01*
X104435802Y-86592613D01*
X104595537Y-85754371D01*
X105036639Y-85754371D01*
X104703614Y-87255000D01*
X104246392Y-87255000D01*
X103981510Y-86310146D01*
X103717728Y-87255000D01*
X103260139Y-87255000D01*
X102924183Y-85754371D01*
G37*
G36*
X106041509Y-85755672D02*
G01*
X106122961Y-85760478D01*
X106204071Y-85770307D01*
X106280047Y-85786893D01*
X106294734Y-85791374D01*
X106368081Y-85824051D01*
X106430952Y-85871707D01*
X106479016Y-85928028D01*
X106516110Y-85994568D01*
X106539466Y-86069622D01*
X106548739Y-86144452D01*
X106549357Y-86170928D01*
X106544098Y-86245646D01*
X106526164Y-86320067D01*
X106495502Y-86386350D01*
X106449718Y-86449427D01*
X106392599Y-86502922D01*
X106348224Y-86533262D01*
X106277424Y-86566051D01*
X106203578Y-86588107D01*
X106184459Y-86592613D01*
X106256632Y-86620731D01*
X106306092Y-86648667D01*
X106357543Y-86701148D01*
X106380464Y-86729267D01*
X106425376Y-86789288D01*
X106446043Y-86823789D01*
X106671723Y-87255000D01*
X106144159Y-87255000D01*
X105895031Y-86795945D01*
X105855391Y-86729968D01*
X105810401Y-86680174D01*
X105742051Y-86650264D01*
X105696095Y-86645369D01*
X105654696Y-86645369D01*
X105654696Y-87255000D01*
X105186116Y-87255000D01*
X105186116Y-86364002D01*
X105654696Y-86364002D01*
X105851434Y-86364002D01*
X105928439Y-86353403D01*
X105975265Y-86343485D01*
X106041523Y-86307685D01*
X106051102Y-86296591D01*
X106079381Y-86227419D01*
X106080411Y-86209396D01*
X106064008Y-86135137D01*
X106033883Y-86098021D01*
X105961778Y-86067720D01*
X105883116Y-86059528D01*
X105859860Y-86059187D01*
X105654696Y-86059187D01*
X105654696Y-86364002D01*
X105186116Y-86364002D01*
X105186116Y-85754371D01*
X105963907Y-85754371D01*
X106041509Y-85755672D01*
G37*
G36*
X100273272Y-97434654D02*
G01*
X100717306Y-97405711D01*
X100732247Y-97482321D01*
X100760357Y-97552817D01*
X100775924Y-97576803D01*
X100832860Y-97630827D01*
X100904428Y-97662425D01*
X100982187Y-97671692D01*
X101055833Y-97664073D01*
X101125557Y-97633779D01*
X101136060Y-97625530D01*
X101181333Y-97565417D01*
X101190282Y-97518185D01*
X101168035Y-97447575D01*
X101138625Y-97414870D01*
X101074458Y-97378508D01*
X101003682Y-97354326D01*
X100922670Y-97333512D01*
X100899755Y-97328408D01*
X100825750Y-97310754D01*
X100740971Y-97286690D01*
X100664778Y-97260408D01*
X100597173Y-97231907D01*
X100527380Y-97194778D01*
X100461584Y-97147424D01*
X100410192Y-97094916D01*
X100366916Y-97027608D01*
X100340125Y-96952515D01*
X100329821Y-96869637D01*
X100329692Y-96858729D01*
X100337658Y-96780904D01*
X100361555Y-96706109D01*
X100397103Y-96640743D01*
X100445890Y-96580922D01*
X100507986Y-96529689D01*
X100575252Y-96490920D01*
X100600069Y-96479542D01*
X100674121Y-96453897D01*
X100749209Y-96437468D01*
X100833904Y-96426649D01*
X100914147Y-96421840D01*
X100971563Y-96420924D01*
X101058751Y-96423518D01*
X101139196Y-96431300D01*
X101212896Y-96444269D01*
X101292434Y-96466680D01*
X101362261Y-96496562D01*
X101413032Y-96527170D01*
X101473659Y-96579648D01*
X101522506Y-96644117D01*
X101559572Y-96720578D01*
X101581966Y-96795660D01*
X101594016Y-96864958D01*
X101154012Y-96889870D01*
X101133375Y-96818922D01*
X101090545Y-96755839D01*
X101080373Y-96746988D01*
X101013603Y-96713466D01*
X100937598Y-96702466D01*
X100925401Y-96702292D01*
X100850255Y-96711908D01*
X100802669Y-96736364D01*
X100763599Y-96798546D01*
X100761636Y-96819162D01*
X100795708Y-96883276D01*
X100866765Y-96916660D01*
X100944517Y-96936280D01*
X100952145Y-96937864D01*
X101025911Y-96954110D01*
X101110486Y-96974514D01*
X101186581Y-96995026D01*
X101266703Y-97019781D01*
X101344747Y-97048857D01*
X101390317Y-97069755D01*
X101459180Y-97109812D01*
X101522235Y-97160302D01*
X101571121Y-97217088D01*
X101583025Y-97235352D01*
X101617441Y-97306129D01*
X101637571Y-97382447D01*
X101643475Y-97456636D01*
X101637099Y-97535680D01*
X101617972Y-97611247D01*
X101586094Y-97683337D01*
X101562875Y-97721884D01*
X101512672Y-97785459D01*
X101452326Y-97839761D01*
X101390170Y-97880245D01*
X101338293Y-97905799D01*
X101261586Y-97933207D01*
X101186728Y-97950766D01*
X101104647Y-97962329D01*
X101028544Y-97967468D01*
X100974860Y-97968447D01*
X100882210Y-97966094D01*
X100796967Y-97959036D01*
X100719132Y-97947272D01*
X100632255Y-97925950D01*
X100556951Y-97897276D01*
X100481865Y-97853162D01*
X100441067Y-97817871D01*
X100389959Y-97758408D01*
X100347919Y-97693227D01*
X100314946Y-97622327D01*
X100291041Y-97545708D01*
X100276203Y-97463371D01*
X100273272Y-97434654D01*
G37*
G36*
X101763642Y-96444371D02*
G01*
X103182571Y-96444371D01*
X103182571Y-96796081D01*
X102706664Y-96796081D01*
X102706664Y-97945000D01*
X102239916Y-97945000D01*
X102239916Y-96796081D01*
X101763642Y-96796081D01*
X101763642Y-96444371D01*
G37*
G36*
X104734856Y-97945000D02*
G01*
X104246493Y-97945000D01*
X104172487Y-97687079D01*
X103640893Y-97687079D01*
X103567620Y-97945000D01*
X103090614Y-97945000D01*
X103312293Y-97358817D01*
X103741643Y-97358817D01*
X104074668Y-97358817D01*
X103907606Y-96827588D01*
X103741643Y-97358817D01*
X103312293Y-97358817D01*
X103658112Y-96444371D01*
X104167358Y-96444371D01*
X104734856Y-97945000D01*
G37*
G36*
X104625680Y-96444371D02*
G01*
X106044609Y-96444371D01*
X106044609Y-96796081D01*
X105568702Y-96796081D01*
X105568702Y-97945000D01*
X105101953Y-97945000D01*
X105101953Y-96796081D01*
X104625680Y-96796081D01*
X104625680Y-96444371D01*
G37*
G36*
X107130146Y-96420924D02*
G01*
X107130146Y-97945000D01*
X106705530Y-97945000D01*
X106705530Y-96947023D01*
X106641831Y-96993971D01*
X106579420Y-97034979D01*
X106512256Y-97073229D01*
X106506228Y-97076350D01*
X106434227Y-97109877D01*
X106358779Y-97139529D01*
X106282738Y-97165544D01*
X106264794Y-97171238D01*
X106264794Y-96819528D01*
X106341790Y-96793146D01*
X106412038Y-96764831D01*
X106485463Y-96729356D01*
X106549702Y-96691251D01*
X106597452Y-96656496D01*
X106653415Y-96605915D01*
X106702965Y-96549793D01*
X106746105Y-96488129D01*
X106782833Y-96420924D01*
X107130146Y-96420924D01*
G37*
G36*
X109223272Y-97434654D02*
G01*
X109667306Y-97405711D01*
X109682247Y-97482321D01*
X109710357Y-97552817D01*
X109725924Y-97576803D01*
X109782860Y-97630827D01*
X109854428Y-97662425D01*
X109932187Y-97671692D01*
X110005833Y-97664073D01*
X110075557Y-97633779D01*
X110086060Y-97625530D01*
X110131333Y-97565417D01*
X110140282Y-97518185D01*
X110118035Y-97447575D01*
X110088625Y-97414870D01*
X110024458Y-97378508D01*
X109953682Y-97354326D01*
X109872670Y-97333512D01*
X109849755Y-97328408D01*
X109775750Y-97310754D01*
X109690971Y-97286690D01*
X109614778Y-97260408D01*
X109547173Y-97231907D01*
X109477380Y-97194778D01*
X109411584Y-97147424D01*
X109360192Y-97094916D01*
X109316916Y-97027608D01*
X109290125Y-96952515D01*
X109279821Y-96869637D01*
X109279692Y-96858729D01*
X109287658Y-96780904D01*
X109311555Y-96706109D01*
X109347103Y-96640743D01*
X109395890Y-96580922D01*
X109457986Y-96529689D01*
X109525252Y-96490920D01*
X109550069Y-96479542D01*
X109624121Y-96453897D01*
X109699209Y-96437468D01*
X109783904Y-96426649D01*
X109864147Y-96421840D01*
X109921563Y-96420924D01*
X110008751Y-96423518D01*
X110089196Y-96431300D01*
X110162896Y-96444269D01*
X110242434Y-96466680D01*
X110312261Y-96496562D01*
X110363032Y-96527170D01*
X110423659Y-96579648D01*
X110472506Y-96644117D01*
X110509572Y-96720578D01*
X110531966Y-96795660D01*
X110544016Y-96864958D01*
X110104012Y-96889870D01*
X110083375Y-96818922D01*
X110040545Y-96755839D01*
X110030373Y-96746988D01*
X109963603Y-96713466D01*
X109887598Y-96702466D01*
X109875401Y-96702292D01*
X109800255Y-96711908D01*
X109752669Y-96736364D01*
X109713599Y-96798546D01*
X109711636Y-96819162D01*
X109745708Y-96883276D01*
X109816765Y-96916660D01*
X109894517Y-96936280D01*
X109902145Y-96937864D01*
X109975911Y-96954110D01*
X110060486Y-96974514D01*
X110136581Y-96995026D01*
X110216703Y-97019781D01*
X110294747Y-97048857D01*
X110340317Y-97069755D01*
X110409180Y-97109812D01*
X110472235Y-97160302D01*
X110521121Y-97217088D01*
X110533025Y-97235352D01*
X110567441Y-97306129D01*
X110587571Y-97382447D01*
X110593475Y-97456636D01*
X110587099Y-97535680D01*
X110567972Y-97611247D01*
X110536094Y-97683337D01*
X110512875Y-97721884D01*
X110462672Y-97785459D01*
X110402326Y-97839761D01*
X110340170Y-97880245D01*
X110288293Y-97905799D01*
X110211586Y-97933207D01*
X110136728Y-97950766D01*
X110054647Y-97962329D01*
X109978544Y-97967468D01*
X109924860Y-97968447D01*
X109832210Y-97966094D01*
X109746967Y-97959036D01*
X109669132Y-97947272D01*
X109582255Y-97925950D01*
X109506951Y-97897276D01*
X109431865Y-97853162D01*
X109391067Y-97817871D01*
X109339959Y-97758408D01*
X109297919Y-97693227D01*
X109264946Y-97622327D01*
X109241041Y-97545708D01*
X109226203Y-97463371D01*
X109223272Y-97434654D01*
G37*
G36*
X110713642Y-96444371D02*
G01*
X112132571Y-96444371D01*
X112132571Y-96796081D01*
X111656664Y-96796081D01*
X111656664Y-97945000D01*
X111189916Y-97945000D01*
X111189916Y-96796081D01*
X110713642Y-96796081D01*
X110713642Y-96444371D01*
G37*
G36*
X113684856Y-97945000D02*
G01*
X113196493Y-97945000D01*
X113122487Y-97687079D01*
X112590893Y-97687079D01*
X112517620Y-97945000D01*
X112040614Y-97945000D01*
X112262293Y-97358817D01*
X112691643Y-97358817D01*
X113024668Y-97358817D01*
X112857606Y-96827588D01*
X112691643Y-97358817D01*
X112262293Y-97358817D01*
X112608112Y-96444371D01*
X113117358Y-96444371D01*
X113684856Y-97945000D01*
G37*
G36*
X113575680Y-96444371D02*
G01*
X114994609Y-96444371D01*
X114994609Y-96796081D01*
X114518702Y-96796081D01*
X114518702Y-97945000D01*
X114051953Y-97945000D01*
X114051953Y-96796081D01*
X113575680Y-96796081D01*
X113575680Y-96444371D01*
G37*
G36*
X116357484Y-97945000D02*
G01*
X115098290Y-97945000D01*
X115111954Y-97863522D01*
X115134033Y-97784184D01*
X115164527Y-97706985D01*
X115203436Y-97631924D01*
X115229448Y-97589993D01*
X115277413Y-97525614D01*
X115327695Y-97469112D01*
X115387351Y-97410016D01*
X115441825Y-97360872D01*
X115502298Y-97310067D01*
X115568770Y-97257603D01*
X115641242Y-97203478D01*
X115705796Y-97155213D01*
X115769259Y-97104698D01*
X115826160Y-97054609D01*
X115877180Y-96999047D01*
X115914259Y-96935055D01*
X115928838Y-96866423D01*
X115910885Y-96792606D01*
X115877913Y-96750286D01*
X115812277Y-96711478D01*
X115749685Y-96702292D01*
X115676504Y-96715298D01*
X115618161Y-96754316D01*
X115577744Y-96820132D01*
X115555960Y-96897825D01*
X115549651Y-96936765D01*
X115129064Y-96901960D01*
X115141927Y-96828277D01*
X115161436Y-96753213D01*
X115189515Y-96680425D01*
X115219923Y-96626088D01*
X115266398Y-96568579D01*
X115323392Y-96520157D01*
X115390905Y-96480823D01*
X115405669Y-96474047D01*
X115480567Y-96448367D01*
X115559404Y-96432597D01*
X115637853Y-96424244D01*
X115712127Y-96421132D01*
X115738328Y-96420924D01*
X115817858Y-96422676D01*
X115901917Y-96429147D01*
X115976579Y-96440387D01*
X116050402Y-96459072D01*
X116082711Y-96470750D01*
X116154688Y-96506849D01*
X116216290Y-96553325D01*
X116267517Y-96610176D01*
X116276517Y-96622791D01*
X116313805Y-96689337D01*
X116337282Y-96760750D01*
X116346949Y-96837028D01*
X116347226Y-96852868D01*
X116340821Y-96927984D01*
X116321607Y-97001245D01*
X116289584Y-97072652D01*
X116266259Y-97111521D01*
X116217510Y-97174764D01*
X116161293Y-97232582D01*
X116103032Y-97283982D01*
X116035472Y-97337082D01*
X115972069Y-97382630D01*
X115907401Y-97426973D01*
X115846388Y-97470071D01*
X115802442Y-97503164D01*
X115746551Y-97551551D01*
X115702058Y-97593290D01*
X116357484Y-97593290D01*
X116357484Y-97945000D01*
G37*
G36*
X112056441Y-87245000D02*
G01*
X111568077Y-87245000D01*
X111494071Y-86987079D01*
X110962477Y-86987079D01*
X110889204Y-87245000D01*
X110412198Y-87245000D01*
X110633877Y-86658817D01*
X111063227Y-86658817D01*
X111396252Y-86658817D01*
X111229190Y-86127588D01*
X111063227Y-86658817D01*
X110633877Y-86658817D01*
X110979696Y-85744371D01*
X111488942Y-85744371D01*
X112056441Y-87245000D01*
G37*
G36*
X113164692Y-86635369D02*
G01*
X113573555Y-86753705D01*
X113553324Y-86825555D01*
X113524622Y-86901100D01*
X113489966Y-86969639D01*
X113449357Y-87031171D01*
X113443862Y-87038370D01*
X113390600Y-87098056D01*
X113330557Y-87148932D01*
X113263732Y-87190998D01*
X113223677Y-87210561D01*
X113153610Y-87235886D01*
X113074567Y-87253975D01*
X112998041Y-87263868D01*
X112914643Y-87268221D01*
X112889553Y-87268447D01*
X112814817Y-87266721D01*
X112730942Y-87260092D01*
X112653405Y-87248491D01*
X112570953Y-87228673D01*
X112497127Y-87202089D01*
X112487285Y-87197739D01*
X112421037Y-87161507D01*
X112358857Y-87115002D01*
X112300744Y-87058223D01*
X112254170Y-87001380D01*
X112217641Y-86948244D01*
X112179168Y-86877696D01*
X112148656Y-86800142D01*
X112126103Y-86715580D01*
X112113389Y-86639760D01*
X112106203Y-86559074D01*
X112104434Y-86491022D01*
X112107548Y-86400925D01*
X112116891Y-86316197D01*
X112132461Y-86236839D01*
X112154260Y-86162851D01*
X112182287Y-86094232D01*
X112226079Y-86016009D01*
X112279602Y-85946177D01*
X112303736Y-85920593D01*
X112370061Y-85863071D01*
X112444472Y-85815299D01*
X112526968Y-85777276D01*
X112598787Y-85753877D01*
X112675781Y-85736718D01*
X112757949Y-85725799D01*
X112845293Y-85721119D01*
X112867937Y-85720924D01*
X112954137Y-85723751D01*
X113034361Y-85732230D01*
X113108611Y-85746362D01*
X113189823Y-85770783D01*
X113262432Y-85803343D01*
X113316367Y-85836695D01*
X113374692Y-85884476D01*
X113427118Y-85940989D01*
X113473645Y-86006235D01*
X113514273Y-86080213D01*
X113543623Y-86148532D01*
X113559267Y-86192435D01*
X113147107Y-86283660D01*
X113120664Y-86215220D01*
X113101678Y-86183276D01*
X113048927Y-86128846D01*
X113005690Y-86101577D01*
X112933913Y-86077411D01*
X112879295Y-86072634D01*
X112804602Y-86080442D01*
X112731631Y-86107892D01*
X112670367Y-86155107D01*
X112636029Y-86197564D01*
X112602412Y-86265835D01*
X112582802Y-86344960D01*
X112574523Y-86418082D01*
X112572281Y-86488824D01*
X112574960Y-86575450D01*
X112582998Y-86651232D01*
X112599146Y-86725937D01*
X112630625Y-86800296D01*
X112648485Y-86825512D01*
X112708191Y-86877450D01*
X112782530Y-86907828D01*
X112862808Y-86916737D01*
X112940210Y-86909725D01*
X113010558Y-86885812D01*
X113065408Y-86844930D01*
X113111484Y-86781629D01*
X113141773Y-86714868D01*
X113162732Y-86643892D01*
X113164692Y-86635369D01*
G37*
G36*
X113685296Y-85744371D02*
G01*
X115104225Y-85744371D01*
X115104225Y-86096081D01*
X114628318Y-86096081D01*
X114628318Y-87245000D01*
X114161570Y-87245000D01*
X114161570Y-86096081D01*
X113685296Y-86096081D01*
X113685296Y-85744371D01*
G37*
D13*
%TO.C,G2*%
G36*
X184749435Y-74384474D02*
G01*
X184837009Y-74385065D01*
X184837009Y-74402015D01*
X184837009Y-74418965D01*
X184749435Y-74419557D01*
X184661860Y-74420148D01*
X184661860Y-74402015D01*
X184661860Y-74383882D01*
X184749435Y-74384474D01*
G37*
G36*
X184779380Y-74535355D02*
G01*
X184779380Y-74551174D01*
X184748870Y-74551174D01*
X184718360Y-74551174D01*
X184718360Y-74535355D01*
X184718360Y-74519535D01*
X184748870Y-74519535D01*
X184779380Y-74519535D01*
X184779380Y-74535355D01*
G37*
G36*
X184749435Y-74452261D02*
G01*
X184805370Y-74452865D01*
X184806034Y-74469250D01*
X184806698Y-74485635D01*
X184748654Y-74485635D01*
X184690611Y-74485635D01*
X184692036Y-74473770D01*
X184692868Y-74465912D01*
X184693391Y-74459185D01*
X184693481Y-74456781D01*
X184693500Y-74451656D01*
X184749435Y-74452261D01*
G37*
G36*
X184866389Y-74335346D02*
G01*
X184866389Y-74351166D01*
X184749372Y-74351751D01*
X184722786Y-74351867D01*
X184700382Y-74351924D01*
X184681823Y-74351913D01*
X184666772Y-74351828D01*
X184654890Y-74351661D01*
X184645842Y-74351406D01*
X184639288Y-74351054D01*
X184634892Y-74350600D01*
X184632316Y-74350035D01*
X184631223Y-74349353D01*
X184631165Y-74349238D01*
X184630630Y-74345401D01*
X184630486Y-74338715D01*
X184630664Y-74332833D01*
X184631351Y-74319526D01*
X184748870Y-74319526D01*
X184866389Y-74319526D01*
X184866389Y-74335346D01*
G37*
G36*
X184227822Y-73251731D02*
G01*
X184244380Y-73251792D01*
X184257089Y-73251967D01*
X184266619Y-73252307D01*
X184273640Y-73252858D01*
X184278824Y-73253669D01*
X184282840Y-73254789D01*
X184285573Y-73255898D01*
X184294833Y-73261774D01*
X184303523Y-73270142D01*
X184310348Y-73279560D01*
X184313659Y-73287116D01*
X184313901Y-73290225D01*
X184314130Y-73297583D01*
X184314346Y-73308922D01*
X184314549Y-73323971D01*
X184314739Y-73342461D01*
X184314915Y-73364122D01*
X184315078Y-73388684D01*
X184315227Y-73415877D01*
X184315362Y-73445432D01*
X184315483Y-73477078D01*
X184315590Y-73510546D01*
X184315683Y-73545566D01*
X184315762Y-73581868D01*
X184315825Y-73619183D01*
X184315875Y-73657240D01*
X184315909Y-73695770D01*
X184315928Y-73734502D01*
X184315932Y-73773168D01*
X184315921Y-73811497D01*
X184315894Y-73849220D01*
X184315851Y-73886066D01*
X184315793Y-73921766D01*
X184315719Y-73956050D01*
X184315628Y-73988648D01*
X184315522Y-74019291D01*
X184315399Y-74047708D01*
X184315259Y-74073630D01*
X184315103Y-74096787D01*
X184314930Y-74116909D01*
X184314740Y-74133726D01*
X184314533Y-74146969D01*
X184314309Y-74156368D01*
X184314146Y-74160432D01*
X184313432Y-74172426D01*
X184312680Y-74180877D01*
X184311680Y-74186759D01*
X184310224Y-74191046D01*
X184308102Y-74194711D01*
X184306249Y-74197246D01*
X184300170Y-74203868D01*
X184292783Y-74210189D01*
X184290647Y-74211700D01*
X184281397Y-74217826D01*
X184230375Y-74218223D01*
X184215082Y-74218246D01*
X184200821Y-74218090D01*
X184188381Y-74217778D01*
X184178553Y-74217331D01*
X184172126Y-74216773D01*
X184170643Y-74216514D01*
X184158261Y-74211467D01*
X184148820Y-74203163D01*
X184144110Y-74195450D01*
X184143610Y-74194233D01*
X184143152Y-74192747D01*
X184142733Y-74190801D01*
X184142352Y-74188207D01*
X184142007Y-74184774D01*
X184141695Y-74180313D01*
X184141416Y-74174633D01*
X184141168Y-74167544D01*
X184140948Y-74158858D01*
X184140755Y-74148383D01*
X184140588Y-74135930D01*
X184140444Y-74121310D01*
X184140321Y-74104332D01*
X184140219Y-74084806D01*
X184140135Y-74062543D01*
X184140067Y-74037353D01*
X184140014Y-74009045D01*
X184139974Y-73977431D01*
X184139946Y-73942320D01*
X184139926Y-73903522D01*
X184139914Y-73860847D01*
X184139909Y-73814106D01*
X184139907Y-73763109D01*
X184139907Y-73742099D01*
X184139917Y-73695941D01*
X184139948Y-73651200D01*
X184139996Y-73608084D01*
X184140063Y-73566798D01*
X184140146Y-73527551D01*
X184140245Y-73490547D01*
X184140359Y-73455995D01*
X184140488Y-73424099D01*
X184140629Y-73395068D01*
X184140782Y-73369108D01*
X184140947Y-73346425D01*
X184141123Y-73327226D01*
X184141308Y-73311717D01*
X184141501Y-73300106D01*
X184141702Y-73292599D01*
X184141910Y-73289401D01*
X184141913Y-73289388D01*
X184147130Y-73276503D01*
X184155992Y-73265503D01*
X184167622Y-73257406D01*
X184171554Y-73255520D01*
X184175217Y-73254103D01*
X184179312Y-73253087D01*
X184184538Y-73252408D01*
X184191595Y-73251999D01*
X184201184Y-73251794D01*
X184214003Y-73251728D01*
X184227822Y-73251731D01*
G37*
G36*
X185313337Y-73254138D02*
G01*
X185322158Y-73254290D01*
X185328599Y-73254617D01*
X185333194Y-73255152D01*
X185336478Y-73255928D01*
X185338987Y-73256977D01*
X185341254Y-73258331D01*
X185342209Y-73258963D01*
X185344004Y-73260019D01*
X185345654Y-73260818D01*
X185347166Y-73261545D01*
X185348546Y-73262384D01*
X185349801Y-73263519D01*
X185350936Y-73265135D01*
X185351959Y-73267414D01*
X185352874Y-73270541D01*
X185353689Y-73274701D01*
X185354410Y-73280076D01*
X185355042Y-73286852D01*
X185355592Y-73295212D01*
X185356067Y-73305341D01*
X185356472Y-73317421D01*
X185356814Y-73331638D01*
X185357099Y-73348175D01*
X185357333Y-73367217D01*
X185357522Y-73388947D01*
X185357673Y-73413549D01*
X185357791Y-73441208D01*
X185357884Y-73472107D01*
X185357957Y-73506431D01*
X185358016Y-73544363D01*
X185358068Y-73586088D01*
X185358119Y-73631790D01*
X185358175Y-73681652D01*
X185358239Y-73733183D01*
X185358308Y-73786391D01*
X185358371Y-73835266D01*
X185358423Y-73879997D01*
X185358465Y-73920772D01*
X185358495Y-73957779D01*
X185358510Y-73991205D01*
X185358509Y-74021239D01*
X185358491Y-74048068D01*
X185358454Y-74071880D01*
X185358396Y-74092864D01*
X185358315Y-74111206D01*
X185358211Y-74127096D01*
X185358081Y-74140720D01*
X185357924Y-74152267D01*
X185357737Y-74161925D01*
X185357521Y-74169882D01*
X185357272Y-74176325D01*
X185356989Y-74181442D01*
X185356671Y-74185422D01*
X185356316Y-74188452D01*
X185355922Y-74190721D01*
X185355488Y-74192415D01*
X185355012Y-74193723D01*
X185354493Y-74194833D01*
X185354227Y-74195351D01*
X185347981Y-74203648D01*
X185338827Y-74210972D01*
X185338707Y-74211046D01*
X185327796Y-74217826D01*
X185273372Y-74218418D01*
X185256027Y-74218579D01*
X185242574Y-74218611D01*
X185232388Y-74218479D01*
X185224843Y-74218148D01*
X185219311Y-74217580D01*
X185215167Y-74216740D01*
X185211784Y-74215591D01*
X185209907Y-74214762D01*
X185198849Y-74207715D01*
X185190761Y-74197991D01*
X185187030Y-74190676D01*
X185186569Y-74189405D01*
X185186147Y-74187694D01*
X185185760Y-74185355D01*
X185185408Y-74182199D01*
X185185089Y-74178039D01*
X185184801Y-74172686D01*
X185184544Y-74165951D01*
X185184314Y-74157647D01*
X185184111Y-74147585D01*
X185183934Y-74135576D01*
X185183780Y-74121433D01*
X185183647Y-74104967D01*
X185183535Y-74085990D01*
X185183442Y-74064313D01*
X185183366Y-74039749D01*
X185183305Y-74012108D01*
X185183258Y-73981203D01*
X185183224Y-73946845D01*
X185183200Y-73908846D01*
X185183186Y-73867018D01*
X185183179Y-73821171D01*
X185183178Y-73771119D01*
X185183179Y-73735285D01*
X185183189Y-73679692D01*
X185183212Y-73628465D01*
X185183248Y-73581450D01*
X185183298Y-73538494D01*
X185183363Y-73499444D01*
X185183444Y-73464144D01*
X185183542Y-73432443D01*
X185183659Y-73404185D01*
X185183794Y-73379217D01*
X185183949Y-73357386D01*
X185184125Y-73338537D01*
X185184323Y-73322518D01*
X185184543Y-73309173D01*
X185184788Y-73298351D01*
X185185057Y-73289896D01*
X185185351Y-73283655D01*
X185185672Y-73279475D01*
X185185994Y-73277308D01*
X185189011Y-73268680D01*
X185193136Y-73261801D01*
X185194435Y-73260392D01*
X185196135Y-73258873D01*
X185197985Y-73257670D01*
X185200503Y-73256739D01*
X185204208Y-73256039D01*
X185209621Y-73255526D01*
X185217260Y-73255158D01*
X185227644Y-73254893D01*
X185241293Y-73254687D01*
X185258726Y-73254498D01*
X185267244Y-73254414D01*
X185286415Y-73254233D01*
X185301601Y-73254130D01*
X185313337Y-73254138D01*
G37*
G36*
X184788956Y-72551536D02*
G01*
X184808260Y-72552222D01*
X184821668Y-72553151D01*
X184878140Y-72559835D01*
X184933475Y-72569485D01*
X184988306Y-72582276D01*
X185043263Y-72598382D01*
X185098980Y-72617976D01*
X185156088Y-72641233D01*
X185179398Y-72651570D01*
X185216148Y-72668913D01*
X185249001Y-72685933D01*
X185278525Y-72703005D01*
X185305289Y-72720505D01*
X185329862Y-72738809D01*
X185352811Y-72758292D01*
X185374705Y-72779330D01*
X185378277Y-72782999D01*
X185408110Y-72816617D01*
X185434118Y-72851593D01*
X185456175Y-72887684D01*
X185474152Y-72924642D01*
X185487922Y-72962223D01*
X185497358Y-73000181D01*
X185500163Y-73017371D01*
X185500691Y-73023656D01*
X185501163Y-73034204D01*
X185501573Y-73048758D01*
X185501918Y-73067062D01*
X185502196Y-73088859D01*
X185502400Y-73113893D01*
X185502528Y-73141907D01*
X185502576Y-73172644D01*
X185502576Y-73174960D01*
X185502576Y-73314869D01*
X185512181Y-73319753D01*
X185525840Y-73327547D01*
X185541651Y-73337983D01*
X185558705Y-73350381D01*
X185576091Y-73364058D01*
X185592901Y-73378333D01*
X185604604Y-73389041D01*
X185636369Y-73422242D01*
X185664512Y-73457964D01*
X185688950Y-73495912D01*
X185709598Y-73535793D01*
X185726369Y-73577310D01*
X185739178Y-73620169D01*
X185747942Y-73664075D01*
X185752573Y-73708733D01*
X185752988Y-73753849D01*
X185749101Y-73799127D01*
X185740826Y-73844273D01*
X185738671Y-73853129D01*
X185731149Y-73879734D01*
X185722273Y-73904966D01*
X185711351Y-73930694D01*
X185704888Y-73944368D01*
X185682687Y-73984876D01*
X185656781Y-74022841D01*
X185627291Y-74058125D01*
X185594340Y-74090590D01*
X185558050Y-74120100D01*
X185535663Y-74135711D01*
X185515641Y-74148897D01*
X185443684Y-74148897D01*
X185371728Y-74148897D01*
X185370949Y-73590115D01*
X185370170Y-73031333D01*
X185365327Y-73015513D01*
X185355357Y-72987622D01*
X185342789Y-72961051D01*
X185327237Y-72935183D01*
X185308315Y-72909401D01*
X185285634Y-72883088D01*
X185275447Y-72872301D01*
X185246301Y-72844301D01*
X185216055Y-72819367D01*
X185185322Y-72797970D01*
X185155577Y-72781008D01*
X185142750Y-72774992D01*
X185126319Y-72768024D01*
X185107034Y-72760369D01*
X185085643Y-72752292D01*
X185062895Y-72744057D01*
X185039541Y-72735928D01*
X185016328Y-72728170D01*
X184994008Y-72721047D01*
X184973328Y-72714823D01*
X184955038Y-72709762D01*
X184950009Y-72708481D01*
X184914375Y-72700097D01*
X184881794Y-72693499D01*
X184851231Y-72688549D01*
X184821649Y-72685108D01*
X184792011Y-72683037D01*
X184761282Y-72682198D01*
X184753303Y-72682165D01*
X184712031Y-72683146D01*
X184671498Y-72686175D01*
X184631077Y-72691377D01*
X184590143Y-72698881D01*
X184548070Y-72708812D01*
X184504232Y-72721298D01*
X184458003Y-72736465D01*
X184422879Y-72749120D01*
X184393304Y-72760453D01*
X184367462Y-72771145D01*
X184344689Y-72781601D01*
X184324321Y-72792226D01*
X184305693Y-72803426D01*
X184288141Y-72815607D01*
X184271002Y-72829174D01*
X184253611Y-72844532D01*
X184235304Y-72862088D01*
X184231190Y-72866183D01*
X184207750Y-72890778D01*
X184187977Y-72914127D01*
X184171440Y-72936897D01*
X184157710Y-72959752D01*
X184146356Y-72983358D01*
X184136949Y-73008380D01*
X184134672Y-73015513D01*
X184129796Y-73031333D01*
X184129049Y-73590115D01*
X184128303Y-74148897D01*
X184055518Y-74148798D01*
X183982734Y-74148699D01*
X183960776Y-74133543D01*
X183926249Y-74107939D01*
X183895555Y-74081325D01*
X183868024Y-74053069D01*
X183842987Y-74022539D01*
X183842979Y-74022528D01*
X183817002Y-73984412D01*
X183795102Y-73944637D01*
X183777273Y-73903484D01*
X183763509Y-73861235D01*
X183753806Y-73818175D01*
X183748158Y-73774584D01*
X183746561Y-73730745D01*
X183749006Y-73686941D01*
X183755492Y-73643454D01*
X183766012Y-73600567D01*
X183780561Y-73558561D01*
X183799133Y-73517720D01*
X183821724Y-73478325D01*
X183848328Y-73440660D01*
X183853928Y-73433609D01*
X183881673Y-73402481D01*
X183912838Y-73373217D01*
X183946431Y-73346691D01*
X183972292Y-73329324D01*
X183997182Y-73313831D01*
X183998038Y-73162412D01*
X183998204Y-73132210D01*
X183998356Y-73106134D01*
X183998520Y-73083791D01*
X183998723Y-73064788D01*
X183998992Y-73048731D01*
X183999355Y-73035227D01*
X183999838Y-73023882D01*
X184000469Y-73014303D01*
X184001275Y-73006096D01*
X184002283Y-72998868D01*
X184003519Y-72992226D01*
X184005012Y-72985777D01*
X184006788Y-72979126D01*
X184008875Y-72971881D01*
X184011298Y-72963647D01*
X184011872Y-72961692D01*
X184019229Y-72940421D01*
X184029290Y-72917095D01*
X184041487Y-72892782D01*
X184055254Y-72868547D01*
X184070025Y-72845457D01*
X184083503Y-72826804D01*
X184103606Y-72802576D01*
X184126214Y-72778562D01*
X184150381Y-72755633D01*
X184175165Y-72734659D01*
X184199618Y-72716510D01*
X184212123Y-72708333D01*
X184236252Y-72694159D01*
X184263942Y-72679282D01*
X184294371Y-72664103D01*
X184326716Y-72649023D01*
X184360155Y-72634444D01*
X184381844Y-72625524D01*
X184446675Y-72601726D01*
X184511573Y-72582374D01*
X184576802Y-72567394D01*
X184635871Y-72557612D01*
X184652637Y-72555748D01*
X184672777Y-72554175D01*
X184695288Y-72552918D01*
X184719165Y-72552002D01*
X184743404Y-72551450D01*
X184767003Y-72551287D01*
X184788956Y-72551536D01*
G37*
G36*
X184741899Y-72890302D02*
G01*
X184763324Y-72890383D01*
X184784695Y-72890508D01*
X184805530Y-72890674D01*
X184825343Y-72890878D01*
X184843650Y-72891117D01*
X184859968Y-72891387D01*
X184873813Y-72891687D01*
X184884700Y-72892012D01*
X184892145Y-72892361D01*
X184895664Y-72892729D01*
X184895866Y-72892815D01*
X184895095Y-72895029D01*
X184892316Y-72900845D01*
X184887714Y-72909915D01*
X184881473Y-72921890D01*
X184873779Y-72936420D01*
X184864816Y-72953156D01*
X184854769Y-72971749D01*
X184843823Y-72991849D01*
X184832773Y-73012001D01*
X184768080Y-73129584D01*
X184768080Y-73282000D01*
X184768080Y-73434415D01*
X184756215Y-73435618D01*
X184748389Y-73436319D01*
X184737931Y-73437132D01*
X184726724Y-73437915D01*
X184723207Y-73438140D01*
X184711121Y-73439191D01*
X184698177Y-73440786D01*
X184686801Y-73442618D01*
X184684788Y-73443014D01*
X184668716Y-73447140D01*
X184656754Y-73452165D01*
X184648540Y-73458318D01*
X184643714Y-73465831D01*
X184642477Y-73470074D01*
X184642157Y-73474761D01*
X184643946Y-73478692D01*
X184648611Y-73483433D01*
X184649339Y-73484076D01*
X184655954Y-73489049D01*
X184664549Y-73494378D01*
X184673926Y-73499449D01*
X184682888Y-73503646D01*
X184690239Y-73506353D01*
X184694009Y-73507036D01*
X184698100Y-73506433D01*
X184705498Y-73504805D01*
X184715171Y-73502396D01*
X184726088Y-73499453D01*
X184726655Y-73499294D01*
X184753542Y-73492599D01*
X184779185Y-73487877D01*
X184803085Y-73485156D01*
X184824738Y-73484462D01*
X184843645Y-73485824D01*
X184859304Y-73489270D01*
X184865501Y-73491664D01*
X184876059Y-73497871D01*
X184884125Y-73505311D01*
X184884711Y-73506054D01*
X184888528Y-73511786D01*
X184890496Y-73517343D01*
X184891175Y-73524666D01*
X184891211Y-73528588D01*
X184890828Y-73537280D01*
X184889371Y-73543402D01*
X184886292Y-73548872D01*
X184884865Y-73550812D01*
X184876375Y-73559262D01*
X184865267Y-73565532D01*
X184851183Y-73569718D01*
X184833762Y-73571915D01*
X184812644Y-73572221D01*
X184805790Y-73571970D01*
X184786735Y-73570636D01*
X184769188Y-73568320D01*
X184751533Y-73564726D01*
X184732154Y-73559558D01*
X184722630Y-73556697D01*
X184712513Y-73553801D01*
X184703217Y-73551536D01*
X184696099Y-73550213D01*
X184693580Y-73550000D01*
X184687051Y-73551177D01*
X184678682Y-73554329D01*
X184669407Y-73558891D01*
X184660161Y-73564297D01*
X184651879Y-73569979D01*
X184645496Y-73575371D01*
X184641945Y-73579908D01*
X184641521Y-73581544D01*
X184643430Y-73585483D01*
X184648572Y-73590689D01*
X184656066Y-73596551D01*
X184665032Y-73602459D01*
X184674590Y-73607806D01*
X184683859Y-73611980D01*
X184687179Y-73613151D01*
X184691610Y-73614259D01*
X184696081Y-73614416D01*
X184701754Y-73613463D01*
X184709791Y-73611241D01*
X184716559Y-73609128D01*
X184736206Y-73603566D01*
X184757162Y-73598856D01*
X184778369Y-73595151D01*
X184798771Y-73592605D01*
X184817312Y-73591370D01*
X184832933Y-73591598D01*
X184835869Y-73591860D01*
X184853393Y-73595118D01*
X184868096Y-73600723D01*
X184879635Y-73608412D01*
X184887664Y-73617922D01*
X184891842Y-73628990D01*
X184892379Y-73635017D01*
X184890219Y-73647611D01*
X184884061Y-73658825D01*
X184874393Y-73667856D01*
X184871374Y-73669741D01*
X184855466Y-73676369D01*
X184836153Y-73680027D01*
X184813438Y-73680715D01*
X184787325Y-73678434D01*
X184757816Y-73673182D01*
X184725313Y-73665072D01*
X184714615Y-73662305D01*
X184704588Y-73660109D01*
X184696597Y-73658765D01*
X184693044Y-73658479D01*
X184685763Y-73659650D01*
X184676882Y-73662786D01*
X184667348Y-73667327D01*
X184658106Y-73672712D01*
X184650103Y-73678378D01*
X184644286Y-73683766D01*
X184641599Y-73688313D01*
X184641521Y-73689047D01*
X184643351Y-73692631D01*
X184648236Y-73697640D01*
X184655262Y-73703330D01*
X184663518Y-73708956D01*
X184671437Y-73713449D01*
X184680339Y-73717191D01*
X184689169Y-73719019D01*
X184698953Y-73718917D01*
X184710717Y-73716872D01*
X184725488Y-73712869D01*
X184726028Y-73712707D01*
X184753874Y-73705367D01*
X184780289Y-73700758D01*
X184807197Y-73698583D01*
X184818930Y-73698324D01*
X184831678Y-73698333D01*
X184841016Y-73698652D01*
X184848051Y-73699411D01*
X184853889Y-73700740D01*
X184859637Y-73702766D01*
X184860739Y-73703212D01*
X184871552Y-73708280D01*
X184879265Y-73713693D01*
X184885242Y-73720514D01*
X184887673Y-73724238D01*
X184891676Y-73734996D01*
X184891677Y-73747016D01*
X184887685Y-73759474D01*
X184887294Y-73760265D01*
X184880068Y-73769671D01*
X184869122Y-73776989D01*
X184854754Y-73782200D01*
X184837262Y-73785286D01*
X184816945Y-73786228D01*
X184794099Y-73785010D01*
X184769024Y-73781611D01*
X184742017Y-73776015D01*
X184720950Y-73770444D01*
X184709528Y-73767193D01*
X184701489Y-73765100D01*
X184695879Y-73764056D01*
X184691743Y-73763952D01*
X184688125Y-73764680D01*
X184684070Y-73766131D01*
X184683846Y-73766218D01*
X184676740Y-73769504D01*
X184668384Y-73774151D01*
X184659807Y-73779486D01*
X184652035Y-73784833D01*
X184646096Y-73789516D01*
X184643018Y-73792860D01*
X184642894Y-73793130D01*
X184642753Y-73797963D01*
X184643718Y-73800741D01*
X184647428Y-73804846D01*
X184654384Y-73810104D01*
X184663662Y-73815915D01*
X184674343Y-73821679D01*
X184680129Y-73824451D01*
X184692748Y-73830225D01*
X184711769Y-73824432D01*
X184736544Y-73817382D01*
X184758662Y-73812234D01*
X184779443Y-73808742D01*
X184800208Y-73806661D01*
X184809896Y-73806119D01*
X184823912Y-73805629D01*
X184834461Y-73805604D01*
X184842579Y-73806098D01*
X184849299Y-73807162D01*
X184854108Y-73808386D01*
X184869299Y-73814435D01*
X184880701Y-73822574D01*
X184888188Y-73832658D01*
X184891634Y-73844541D01*
X184891753Y-73851915D01*
X184889620Y-73863035D01*
X184884608Y-73871946D01*
X184876142Y-73879380D01*
X184865720Y-73885123D01*
X184850419Y-73890281D01*
X184831839Y-73892937D01*
X184809885Y-73893085D01*
X184784464Y-73890723D01*
X184755480Y-73885845D01*
X184723494Y-73878612D01*
X184710937Y-73875502D01*
X184701846Y-73873412D01*
X184695307Y-73872247D01*
X184690405Y-73871910D01*
X184686225Y-73872309D01*
X184681853Y-73873347D01*
X184679424Y-73874043D01*
X184669638Y-73877676D01*
X184659902Y-73882599D01*
X184651446Y-73888065D01*
X184645496Y-73893332D01*
X184643887Y-73895580D01*
X184642228Y-73903131D01*
X184644366Y-73911372D01*
X184649828Y-73919511D01*
X184658142Y-73926754D01*
X184664740Y-73930553D01*
X184672839Y-73933934D01*
X184681898Y-73936593D01*
X184692687Y-73938658D01*
X184705976Y-73940257D01*
X184722536Y-73941518D01*
X184734745Y-73942184D01*
X184765820Y-73943701D01*
X184765820Y-74097149D01*
X184765820Y-74250596D01*
X184832490Y-74250596D01*
X184899159Y-74250596D01*
X184899159Y-74267546D01*
X184899159Y-74284496D01*
X184750000Y-74284496D01*
X184600841Y-74284496D01*
X184600841Y-74267546D01*
X184600841Y-74250596D01*
X184665250Y-74250596D01*
X184729660Y-74250596D01*
X184729660Y-74114210D01*
X184729660Y-73977825D01*
X184706495Y-73976386D01*
X184680937Y-73973472D01*
X184659038Y-73968146D01*
X184640848Y-73960432D01*
X184626419Y-73950356D01*
X184615802Y-73937942D01*
X184611613Y-73930142D01*
X184608288Y-73918799D01*
X184607160Y-73906004D01*
X184608283Y-73893732D01*
X184610412Y-73886574D01*
X184616609Y-73875997D01*
X184625741Y-73865464D01*
X184636463Y-73856474D01*
X184638790Y-73854923D01*
X184648489Y-73848760D01*
X184647909Y-73848363D01*
X184760408Y-73848363D01*
X184760654Y-73850172D01*
X184764689Y-73851883D01*
X184771780Y-73853443D01*
X184781195Y-73854796D01*
X184792204Y-73855887D01*
X184804075Y-73856661D01*
X184816076Y-73857063D01*
X184827475Y-73857039D01*
X184837541Y-73856532D01*
X184845542Y-73855488D01*
X184847882Y-73854941D01*
X184854092Y-73852197D01*
X184855990Y-73849012D01*
X184853670Y-73845964D01*
X184847226Y-73843630D01*
X184846025Y-73843398D01*
X184837066Y-73842359D01*
X184825826Y-73841871D01*
X184813219Y-73841881D01*
X184800160Y-73842337D01*
X184787561Y-73843186D01*
X184776338Y-73844374D01*
X184767405Y-73845848D01*
X184761674Y-73847556D01*
X184760408Y-73848363D01*
X184647909Y-73848363D01*
X184641050Y-73843668D01*
X184632531Y-73837125D01*
X184623966Y-73829364D01*
X184616518Y-73821540D01*
X184611351Y-73814807D01*
X184610544Y-73813414D01*
X184608054Y-73805168D01*
X184607443Y-73794937D01*
X184608689Y-73784835D01*
X184610934Y-73778407D01*
X184614116Y-73773974D01*
X184619747Y-73767686D01*
X184626835Y-73760618D01*
X184630162Y-73757538D01*
X184637013Y-73751235D01*
X184642376Y-73746087D01*
X184645512Y-73742815D01*
X184646014Y-73742083D01*
X184763560Y-73742083D01*
X184765724Y-73744822D01*
X184771872Y-73747081D01*
X184781483Y-73748786D01*
X184794040Y-73749860D01*
X184809023Y-73750230D01*
X184818930Y-73750083D01*
X184829742Y-73749570D01*
X184839445Y-73748742D01*
X184846796Y-73747726D01*
X184850004Y-73746921D01*
X184855087Y-73744019D01*
X184856170Y-73741138D01*
X184853771Y-73738433D01*
X184848407Y-73736057D01*
X184840597Y-73734165D01*
X184830859Y-73732913D01*
X184819709Y-73732454D01*
X184807668Y-73732943D01*
X184804240Y-73733267D01*
X184790976Y-73734920D01*
X184779607Y-73736792D01*
X184770805Y-73738736D01*
X184765242Y-73740607D01*
X184763560Y-73742083D01*
X184646014Y-73742083D01*
X184646019Y-73742075D01*
X184644396Y-73740202D01*
X184640107Y-73736361D01*
X184634053Y-73731356D01*
X184633588Y-73730984D01*
X184621142Y-73719580D01*
X184612878Y-73708409D01*
X184608511Y-73697005D01*
X184607621Y-73688444D01*
X184608883Y-73678175D01*
X184612964Y-73668628D01*
X184620308Y-73659117D01*
X184631356Y-73648951D01*
X184634770Y-73646210D01*
X184646112Y-73637299D01*
X184764839Y-73637299D01*
X184767910Y-73638896D01*
X184774806Y-73640642D01*
X184779956Y-73641695D01*
X184791016Y-73643322D01*
X184803709Y-73644319D01*
X184816861Y-73644688D01*
X184829299Y-73644429D01*
X184839847Y-73643543D01*
X184847334Y-73642031D01*
X184848382Y-73641645D01*
X184854348Y-73638384D01*
X184855881Y-73635301D01*
X184853048Y-73632163D01*
X184851425Y-73631212D01*
X184847105Y-73630207D01*
X184839267Y-73629565D01*
X184828898Y-73629261D01*
X184816984Y-73629270D01*
X184804510Y-73629569D01*
X184792462Y-73630131D01*
X184781827Y-73630932D01*
X184773590Y-73631947D01*
X184768737Y-73633153D01*
X184768451Y-73633296D01*
X184765163Y-73635537D01*
X184764839Y-73637299D01*
X184646112Y-73637299D01*
X184648885Y-73635120D01*
X184642378Y-73630453D01*
X184634519Y-73624261D01*
X184626335Y-73616914D01*
X184618881Y-73609452D01*
X184613212Y-73602916D01*
X184610813Y-73599338D01*
X184608521Y-73591690D01*
X184607733Y-73581915D01*
X184608449Y-73572105D01*
X184610666Y-73564349D01*
X184610837Y-73564013D01*
X184614278Y-73559189D01*
X184620121Y-73552577D01*
X184627281Y-73545265D01*
X184634674Y-73538343D01*
X184641215Y-73532899D01*
X184643300Y-73531412D01*
X184645699Y-73529647D01*
X184645974Y-73528992D01*
X184761108Y-73528992D01*
X184764845Y-73530898D01*
X184772142Y-73532959D01*
X184781640Y-73534852D01*
X184787778Y-73535444D01*
X184797126Y-73535814D01*
X184808381Y-73535966D01*
X184820239Y-73535906D01*
X184831395Y-73535640D01*
X184840547Y-73535173D01*
X184846025Y-73534580D01*
X184852718Y-73532375D01*
X184855844Y-73529204D01*
X184855127Y-73525770D01*
X184850587Y-73522887D01*
X184844616Y-73521683D01*
X184835272Y-73521039D01*
X184823570Y-73520902D01*
X184810527Y-73521221D01*
X184797158Y-73521944D01*
X184784479Y-73523020D01*
X184773505Y-73524397D01*
X184765252Y-73526024D01*
X184761397Y-73527412D01*
X184761108Y-73528992D01*
X184645974Y-73528992D01*
X184646405Y-73527964D01*
X184644964Y-73525634D01*
X184640922Y-73521924D01*
X184633825Y-73516104D01*
X184633773Y-73516061D01*
X184622991Y-73506798D01*
X184615547Y-73498889D01*
X184610879Y-73491400D01*
X184608427Y-73483394D01*
X184607632Y-73473937D01*
X184607621Y-73472384D01*
X184609178Y-73457599D01*
X184614058Y-73445051D01*
X184622569Y-73434313D01*
X184635023Y-73424957D01*
X184646466Y-73418903D01*
X184657393Y-73414613D01*
X184670850Y-73410526D01*
X184685266Y-73407012D01*
X184699069Y-73404444D01*
X184710688Y-73403194D01*
X184713090Y-73403130D01*
X184716500Y-73403245D01*
X184719410Y-73403392D01*
X184721860Y-73403243D01*
X184723890Y-73402467D01*
X184725537Y-73400735D01*
X184726843Y-73397719D01*
X184727845Y-73393088D01*
X184728584Y-73386514D01*
X184729098Y-73377667D01*
X184729426Y-73366217D01*
X184729609Y-73351835D01*
X184729684Y-73334192D01*
X184729692Y-73312958D01*
X184729671Y-73287804D01*
X184729660Y-73264000D01*
X184729660Y-73127644D01*
X184679096Y-73035418D01*
X184668234Y-73015595D01*
X184657564Y-72996100D01*
X184647383Y-72977477D01*
X184637987Y-72960269D01*
X184629674Y-72945020D01*
X184622739Y-72932275D01*
X184620154Y-72927508D01*
X184661860Y-72927508D01*
X184662917Y-72929726D01*
X184665909Y-72935397D01*
X184670568Y-72944030D01*
X184676626Y-72955131D01*
X184683815Y-72968209D01*
X184691867Y-72982769D01*
X184695195Y-72988766D01*
X184728530Y-73048760D01*
X184729134Y-72990364D01*
X184729257Y-72974462D01*
X184729288Y-72959987D01*
X184729233Y-72947573D01*
X184729096Y-72937854D01*
X184728884Y-72931465D01*
X184728640Y-72929106D01*
X184726888Y-72927902D01*
X184722376Y-72927057D01*
X184714611Y-72926530D01*
X184703104Y-72926279D01*
X184694701Y-72926243D01*
X184770340Y-72926243D01*
X184770362Y-72986698D01*
X184770384Y-73047153D01*
X184804262Y-72987475D01*
X184812708Y-72972571D01*
X184820386Y-72958977D01*
X184827022Y-72947178D01*
X184832346Y-72937658D01*
X184836085Y-72930905D01*
X184837967Y-72927401D01*
X184838139Y-72927020D01*
X184836010Y-72926750D01*
X184830141Y-72926520D01*
X184821315Y-72926350D01*
X184810313Y-72926256D01*
X184804240Y-72926243D01*
X184770340Y-72926243D01*
X184694701Y-72926243D01*
X184683102Y-72926325D01*
X184673300Y-72926551D01*
X184666091Y-72926889D01*
X184662266Y-72927310D01*
X184661860Y-72927508D01*
X184620154Y-72927508D01*
X184617481Y-72922577D01*
X184615005Y-72917983D01*
X184601478Y-72892773D01*
X184631104Y-72891202D01*
X184639346Y-72890895D01*
X184650923Y-72890652D01*
X184665351Y-72890471D01*
X184682147Y-72890348D01*
X184700827Y-72890281D01*
X184720905Y-72890267D01*
X184741899Y-72890302D01*
G37*
%TO.C,G0*%
G36*
X94032264Y-95253558D02*
G01*
X94055744Y-95255542D01*
X94075319Y-95260023D01*
X94095867Y-95267958D01*
X94111040Y-95274941D01*
X94164033Y-95307237D01*
X94207475Y-95348914D01*
X94240488Y-95398834D01*
X94262195Y-95455861D01*
X94266912Y-95477027D01*
X94268180Y-95491137D01*
X94269283Y-95518741D01*
X94270221Y-95559662D01*
X94270992Y-95613721D01*
X94271595Y-95680739D01*
X94272029Y-95760538D01*
X94272292Y-95852938D01*
X94272383Y-95957763D01*
X94272301Y-96074832D01*
X94272045Y-96203968D01*
X94271990Y-96224971D01*
X94271678Y-96338963D01*
X94271384Y-96440095D01*
X94271091Y-96529180D01*
X94270779Y-96607032D01*
X94270431Y-96674465D01*
X94270029Y-96732293D01*
X94269555Y-96781330D01*
X94268990Y-96822388D01*
X94268317Y-96856283D01*
X94267518Y-96883828D01*
X94266573Y-96905836D01*
X94265466Y-96923122D01*
X94264178Y-96936499D01*
X94262692Y-96946781D01*
X94260988Y-96954782D01*
X94259049Y-96961316D01*
X94256858Y-96967196D01*
X94255421Y-96970732D01*
X94228094Y-97021896D01*
X94191574Y-97066926D01*
X94148231Y-97103475D01*
X94100439Y-97129195D01*
X94092147Y-97132285D01*
X94054879Y-97141390D01*
X94011582Y-97146090D01*
X93969347Y-97145830D01*
X93949750Y-97143477D01*
X93896883Y-97127560D01*
X93848172Y-97100071D01*
X93805474Y-97062917D01*
X93770646Y-97018007D01*
X93745542Y-96967247D01*
X93733249Y-96920994D01*
X93732181Y-96907545D01*
X93731206Y-96881577D01*
X93730324Y-96844244D01*
X93729535Y-96796699D01*
X93728838Y-96740097D01*
X93728236Y-96675592D01*
X93727726Y-96604337D01*
X93727310Y-96527486D01*
X93726987Y-96446195D01*
X93726758Y-96361615D01*
X93726623Y-96274902D01*
X93726582Y-96187210D01*
X93726635Y-96099692D01*
X93726782Y-96013502D01*
X93727023Y-95929795D01*
X93727358Y-95849724D01*
X93727788Y-95774443D01*
X93728313Y-95705106D01*
X93728932Y-95642868D01*
X93729646Y-95588882D01*
X93730455Y-95544302D01*
X93731358Y-95510282D01*
X93732357Y-95487976D01*
X93733111Y-95479960D01*
X93749373Y-95421268D01*
X93777423Y-95368816D01*
X93816320Y-95323837D01*
X93865127Y-95287567D01*
X93888960Y-95274941D01*
X93912515Y-95264415D01*
X93932108Y-95257931D01*
X93952616Y-95254530D01*
X93978918Y-95253254D01*
X94000000Y-95253109D01*
X94032264Y-95253558D01*
G37*
G36*
X94984716Y-95607767D02*
G01*
X95014826Y-95615894D01*
X95046089Y-95630870D01*
X95080974Y-95653894D01*
X95121951Y-95686166D01*
X95124982Y-95688694D01*
X95233243Y-95788046D01*
X95332825Y-95897318D01*
X95423022Y-96015323D01*
X95503128Y-96140872D01*
X95572440Y-96272777D01*
X95630249Y-96409850D01*
X95675853Y-96550903D01*
X95702013Y-96660525D01*
X95711675Y-96710184D01*
X95719152Y-96753945D01*
X95724704Y-96794848D01*
X95728592Y-96835930D01*
X95731076Y-96880231D01*
X95732417Y-96930790D01*
X95732875Y-96990647D01*
X95732865Y-97020511D01*
X95732579Y-97078526D01*
X95731878Y-97125496D01*
X95730608Y-97164050D01*
X95728612Y-97196816D01*
X95725734Y-97226421D01*
X95721821Y-97255494D01*
X95717335Y-97283078D01*
X95693135Y-97403886D01*
X95663179Y-97515987D01*
X95626105Y-97623622D01*
X95580551Y-97731034D01*
X95559096Y-97776016D01*
X95484988Y-97911632D01*
X95400112Y-98039139D01*
X95305028Y-98158012D01*
X95200297Y-98267729D01*
X95086480Y-98367765D01*
X94964135Y-98457596D01*
X94833825Y-98536700D01*
X94696110Y-98604552D01*
X94652948Y-98622834D01*
X94554450Y-98659675D01*
X94454611Y-98690007D01*
X94349353Y-98714940D01*
X94243410Y-98734192D01*
X94218440Y-98737116D01*
X94182775Y-98739875D01*
X94139256Y-98742382D01*
X94090723Y-98744546D01*
X94040016Y-98746278D01*
X93989977Y-98747491D01*
X93943446Y-98748093D01*
X93903263Y-98747997D01*
X93872269Y-98747113D01*
X93859839Y-98746226D01*
X93708959Y-98725742D01*
X93566019Y-98695101D01*
X93429261Y-98653791D01*
X93296930Y-98601297D01*
X93194753Y-98551787D01*
X93063049Y-98475230D01*
X92939494Y-98388041D01*
X92824587Y-98290918D01*
X92718827Y-98184564D01*
X92622712Y-98069678D01*
X92536739Y-97946959D01*
X92461408Y-97817109D01*
X92397217Y-97680828D01*
X92344663Y-97538815D01*
X92304245Y-97391772D01*
X92280309Y-97266649D01*
X92270837Y-97185602D01*
X92265589Y-97095553D01*
X92264512Y-97000489D01*
X92267554Y-96904398D01*
X92274664Y-96811266D01*
X92285790Y-96725080D01*
X92287482Y-96714870D01*
X92318686Y-96571296D01*
X92362642Y-96430264D01*
X92418653Y-96292989D01*
X92486025Y-96160686D01*
X92564062Y-96034571D01*
X92652070Y-95915859D01*
X92749354Y-95805765D01*
X92855218Y-95705504D01*
X92873819Y-95689692D01*
X92912002Y-95658959D01*
X92943529Y-95636790D01*
X92971104Y-95621780D01*
X92997431Y-95612524D01*
X93025215Y-95607617D01*
X93033293Y-95606857D01*
X93084639Y-95608945D01*
X93131489Y-95622683D01*
X93172564Y-95646477D01*
X93206585Y-95678733D01*
X93232274Y-95717859D01*
X93248350Y-95762259D01*
X93253535Y-95810341D01*
X93246549Y-95860511D01*
X93243990Y-95869356D01*
X93240217Y-95881132D01*
X93236249Y-95891454D01*
X93231012Y-95901541D01*
X93223426Y-95912608D01*
X93212417Y-95925875D01*
X93196907Y-95942557D01*
X93175821Y-95963873D01*
X93148080Y-95991041D01*
X93112609Y-96025276D01*
X93069444Y-96066730D01*
X92982541Y-96158350D01*
X92906575Y-96256250D01*
X92840566Y-96361910D01*
X92783533Y-96476808D01*
X92759677Y-96534099D01*
X92720184Y-96652724D01*
X92692605Y-96776436D01*
X92676952Y-96903586D01*
X92673241Y-97032524D01*
X92681485Y-97161599D01*
X92701698Y-97289162D01*
X92733894Y-97413563D01*
X92751745Y-97466555D01*
X92802426Y-97586702D01*
X92865248Y-97701551D01*
X92939360Y-97810055D01*
X93023906Y-97911168D01*
X93118032Y-98003841D01*
X93220886Y-98087028D01*
X93303108Y-98142483D01*
X93419212Y-98206718D01*
X93539802Y-98258402D01*
X93663934Y-98297537D01*
X93790661Y-98324121D01*
X93919040Y-98338154D01*
X94048126Y-98339635D01*
X94176972Y-98328565D01*
X94304635Y-98304942D01*
X94430170Y-98268767D01*
X94552631Y-98220039D01*
X94671074Y-98158758D01*
X94697389Y-98143047D01*
X94784690Y-98083635D01*
X94870418Y-98013966D01*
X94951979Y-97936620D01*
X95026780Y-97854173D01*
X95092224Y-97769204D01*
X95127234Y-97715944D01*
X95192050Y-97598024D01*
X95244260Y-97476292D01*
X95284342Y-97349426D01*
X95312775Y-97216105D01*
X95316448Y-97192950D01*
X95322783Y-97134232D01*
X95325935Y-97066248D01*
X95326025Y-96993002D01*
X95323176Y-96918496D01*
X95317511Y-96846734D01*
X95309153Y-96781717D01*
X95302773Y-96747026D01*
X95268274Y-96615285D01*
X95221929Y-96489549D01*
X95164087Y-96370477D01*
X95095100Y-96258729D01*
X95015315Y-96154962D01*
X94952514Y-96086707D01*
X94924934Y-96059259D01*
X94891887Y-96026977D01*
X94857951Y-95994306D01*
X94833380Y-95971009D01*
X94805833Y-95944709D01*
X94786550Y-95924846D01*
X94773541Y-95908818D01*
X94764814Y-95894018D01*
X94758377Y-95877841D01*
X94755688Y-95869389D01*
X94746702Y-95817584D01*
X94750797Y-95766746D01*
X94767416Y-95718826D01*
X94796001Y-95675775D01*
X94817095Y-95654462D01*
X94858104Y-95626238D01*
X94904015Y-95610072D01*
X94953291Y-95605289D01*
X94984716Y-95607767D01*
G37*
%TD*%
M02*
