%TF.GenerationSoftware,KiCad,Pcbnew,8.0.5*%
%TF.CreationDate,2025-08-28T07:35:49+02:00*%
%TF.ProjectId,SVX_Node_Case_front,5356585f-4e6f-4646-955f-436173655f66,rev?*%
%TF.SameCoordinates,Original*%
%TF.FileFunction,Legend,Bot*%
%TF.FilePolarity,Positive*%
%FSLAX46Y46*%
G04 Gerber Fmt 4.6, Leading zero omitted, Abs format (unit mm)*
G04 Created by KiCad (PCBNEW 8.0.5) date 2025-08-28 07:35:49*
%MOMM*%
%LPD*%
G01*
G04 APERTURE LIST*
%ADD10C,0.150000*%
%ADD11C,0.120000*%
%ADD12C,0.152400*%
G04 APERTURE END LIST*
D10*
X113596517Y-88164819D02*
X113596517Y-87164819D01*
X113596517Y-87164819D02*
X113358422Y-87164819D01*
X113358422Y-87164819D02*
X113215565Y-87212438D01*
X113215565Y-87212438D02*
X113120327Y-87307676D01*
X113120327Y-87307676D02*
X113072708Y-87402914D01*
X113072708Y-87402914D02*
X113025089Y-87593390D01*
X113025089Y-87593390D02*
X113025089Y-87736247D01*
X113025089Y-87736247D02*
X113072708Y-87926723D01*
X113072708Y-87926723D02*
X113120327Y-88021961D01*
X113120327Y-88021961D02*
X113215565Y-88117200D01*
X113215565Y-88117200D02*
X113358422Y-88164819D01*
X113358422Y-88164819D02*
X113596517Y-88164819D01*
X112072708Y-88164819D02*
X112644136Y-88164819D01*
X112358422Y-88164819D02*
X112358422Y-87164819D01*
X112358422Y-87164819D02*
X112453660Y-87307676D01*
X112453660Y-87307676D02*
X112548898Y-87402914D01*
X112548898Y-87402914D02*
X112644136Y-87450533D01*
X124336133Y-90132819D02*
X124336133Y-90847104D01*
X124336133Y-90847104D02*
X124383752Y-90989961D01*
X124383752Y-90989961D02*
X124478990Y-91085200D01*
X124478990Y-91085200D02*
X124621847Y-91132819D01*
X124621847Y-91132819D02*
X124717085Y-91132819D01*
X123336133Y-91132819D02*
X123907561Y-91132819D01*
X123621847Y-91132819D02*
X123621847Y-90132819D01*
X123621847Y-90132819D02*
X123717085Y-90275676D01*
X123717085Y-90275676D02*
X123812323Y-90370914D01*
X123812323Y-90370914D02*
X123907561Y-90418533D01*
X116926666Y-88154819D02*
X117259999Y-87678628D01*
X117498094Y-88154819D02*
X117498094Y-87154819D01*
X117498094Y-87154819D02*
X117117142Y-87154819D01*
X117117142Y-87154819D02*
X117021904Y-87202438D01*
X117021904Y-87202438D02*
X116974285Y-87250057D01*
X116974285Y-87250057D02*
X116926666Y-87345295D01*
X116926666Y-87345295D02*
X116926666Y-87488152D01*
X116926666Y-87488152D02*
X116974285Y-87583390D01*
X116974285Y-87583390D02*
X117021904Y-87631009D01*
X117021904Y-87631009D02*
X117117142Y-87678628D01*
X117117142Y-87678628D02*
X117498094Y-87678628D01*
X115974285Y-88154819D02*
X116545713Y-88154819D01*
X116259999Y-88154819D02*
X116259999Y-87154819D01*
X116259999Y-87154819D02*
X116355237Y-87297676D01*
X116355237Y-87297676D02*
X116450475Y-87392914D01*
X116450475Y-87392914D02*
X116545713Y-87440533D01*
X108016666Y-88154819D02*
X108349999Y-87678628D01*
X108588094Y-88154819D02*
X108588094Y-87154819D01*
X108588094Y-87154819D02*
X108207142Y-87154819D01*
X108207142Y-87154819D02*
X108111904Y-87202438D01*
X108111904Y-87202438D02*
X108064285Y-87250057D01*
X108064285Y-87250057D02*
X108016666Y-87345295D01*
X108016666Y-87345295D02*
X108016666Y-87488152D01*
X108016666Y-87488152D02*
X108064285Y-87583390D01*
X108064285Y-87583390D02*
X108111904Y-87631009D01*
X108111904Y-87631009D02*
X108207142Y-87678628D01*
X108207142Y-87678628D02*
X108588094Y-87678628D01*
X107635713Y-87250057D02*
X107588094Y-87202438D01*
X107588094Y-87202438D02*
X107492856Y-87154819D01*
X107492856Y-87154819D02*
X107254761Y-87154819D01*
X107254761Y-87154819D02*
X107159523Y-87202438D01*
X107159523Y-87202438D02*
X107111904Y-87250057D01*
X107111904Y-87250057D02*
X107064285Y-87345295D01*
X107064285Y-87345295D02*
X107064285Y-87440533D01*
X107064285Y-87440533D02*
X107111904Y-87583390D01*
X107111904Y-87583390D02*
X107683332Y-88154819D01*
X107683332Y-88154819D02*
X107064285Y-88154819D01*
X94761904Y-87857200D02*
X94619047Y-87904819D01*
X94619047Y-87904819D02*
X94380952Y-87904819D01*
X94380952Y-87904819D02*
X94285714Y-87857200D01*
X94285714Y-87857200D02*
X94238095Y-87809580D01*
X94238095Y-87809580D02*
X94190476Y-87714342D01*
X94190476Y-87714342D02*
X94190476Y-87619104D01*
X94190476Y-87619104D02*
X94238095Y-87523866D01*
X94238095Y-87523866D02*
X94285714Y-87476247D01*
X94285714Y-87476247D02*
X94380952Y-87428628D01*
X94380952Y-87428628D02*
X94571428Y-87381009D01*
X94571428Y-87381009D02*
X94666666Y-87333390D01*
X94666666Y-87333390D02*
X94714285Y-87285771D01*
X94714285Y-87285771D02*
X94761904Y-87190533D01*
X94761904Y-87190533D02*
X94761904Y-87095295D01*
X94761904Y-87095295D02*
X94714285Y-87000057D01*
X94714285Y-87000057D02*
X94666666Y-86952438D01*
X94666666Y-86952438D02*
X94571428Y-86904819D01*
X94571428Y-86904819D02*
X94333333Y-86904819D01*
X94333333Y-86904819D02*
X94190476Y-86952438D01*
X93238095Y-87904819D02*
X93809523Y-87904819D01*
X93523809Y-87904819D02*
X93523809Y-86904819D01*
X93523809Y-86904819D02*
X93619047Y-87047676D01*
X93619047Y-87047676D02*
X93714285Y-87142914D01*
X93714285Y-87142914D02*
X93809523Y-87190533D01*
X104696517Y-93074819D02*
X104696517Y-92074819D01*
X104696517Y-92074819D02*
X104458422Y-92074819D01*
X104458422Y-92074819D02*
X104315565Y-92122438D01*
X104315565Y-92122438D02*
X104220327Y-92217676D01*
X104220327Y-92217676D02*
X104172708Y-92312914D01*
X104172708Y-92312914D02*
X104125089Y-92503390D01*
X104125089Y-92503390D02*
X104125089Y-92646247D01*
X104125089Y-92646247D02*
X104172708Y-92836723D01*
X104172708Y-92836723D02*
X104220327Y-92931961D01*
X104220327Y-92931961D02*
X104315565Y-93027200D01*
X104315565Y-93027200D02*
X104458422Y-93074819D01*
X104458422Y-93074819D02*
X104696517Y-93074819D01*
X103267946Y-92408152D02*
X103267946Y-93074819D01*
X103506041Y-92027200D02*
X103744136Y-92741485D01*
X103744136Y-92741485D02*
X103125089Y-92741485D01*
X116936666Y-93064819D02*
X117269999Y-92588628D01*
X117508094Y-93064819D02*
X117508094Y-92064819D01*
X117508094Y-92064819D02*
X117127142Y-92064819D01*
X117127142Y-92064819D02*
X117031904Y-92112438D01*
X117031904Y-92112438D02*
X116984285Y-92160057D01*
X116984285Y-92160057D02*
X116936666Y-92255295D01*
X116936666Y-92255295D02*
X116936666Y-92398152D01*
X116936666Y-92398152D02*
X116984285Y-92493390D01*
X116984285Y-92493390D02*
X117031904Y-92541009D01*
X117031904Y-92541009D02*
X117127142Y-92588628D01*
X117127142Y-92588628D02*
X117508094Y-92588628D01*
X116603332Y-92064819D02*
X115984285Y-92064819D01*
X115984285Y-92064819D02*
X116317618Y-92445771D01*
X116317618Y-92445771D02*
X116174761Y-92445771D01*
X116174761Y-92445771D02*
X116079523Y-92493390D01*
X116079523Y-92493390D02*
X116031904Y-92541009D01*
X116031904Y-92541009D02*
X115984285Y-92636247D01*
X115984285Y-92636247D02*
X115984285Y-92874342D01*
X115984285Y-92874342D02*
X116031904Y-92969580D01*
X116031904Y-92969580D02*
X116079523Y-93017200D01*
X116079523Y-93017200D02*
X116174761Y-93064819D01*
X116174761Y-93064819D02*
X116460475Y-93064819D01*
X116460475Y-93064819D02*
X116555713Y-93017200D01*
X116555713Y-93017200D02*
X116603332Y-92969580D01*
X113606517Y-93074819D02*
X113606517Y-92074819D01*
X113606517Y-92074819D02*
X113368422Y-92074819D01*
X113368422Y-92074819D02*
X113225565Y-92122438D01*
X113225565Y-92122438D02*
X113130327Y-92217676D01*
X113130327Y-92217676D02*
X113082708Y-92312914D01*
X113082708Y-92312914D02*
X113035089Y-92503390D01*
X113035089Y-92503390D02*
X113035089Y-92646247D01*
X113035089Y-92646247D02*
X113082708Y-92836723D01*
X113082708Y-92836723D02*
X113130327Y-92931961D01*
X113130327Y-92931961D02*
X113225565Y-93027200D01*
X113225565Y-93027200D02*
X113368422Y-93074819D01*
X113368422Y-93074819D02*
X113606517Y-93074819D01*
X112701755Y-92074819D02*
X112082708Y-92074819D01*
X112082708Y-92074819D02*
X112416041Y-92455771D01*
X112416041Y-92455771D02*
X112273184Y-92455771D01*
X112273184Y-92455771D02*
X112177946Y-92503390D01*
X112177946Y-92503390D02*
X112130327Y-92551009D01*
X112130327Y-92551009D02*
X112082708Y-92646247D01*
X112082708Y-92646247D02*
X112082708Y-92884342D01*
X112082708Y-92884342D02*
X112130327Y-92979580D01*
X112130327Y-92979580D02*
X112177946Y-93027200D01*
X112177946Y-93027200D02*
X112273184Y-93074819D01*
X112273184Y-93074819D02*
X112558898Y-93074819D01*
X112558898Y-93074819D02*
X112654136Y-93027200D01*
X112654136Y-93027200D02*
X112701755Y-92979580D01*
X104686517Y-88164819D02*
X104686517Y-87164819D01*
X104686517Y-87164819D02*
X104448422Y-87164819D01*
X104448422Y-87164819D02*
X104305565Y-87212438D01*
X104305565Y-87212438D02*
X104210327Y-87307676D01*
X104210327Y-87307676D02*
X104162708Y-87402914D01*
X104162708Y-87402914D02*
X104115089Y-87593390D01*
X104115089Y-87593390D02*
X104115089Y-87736247D01*
X104115089Y-87736247D02*
X104162708Y-87926723D01*
X104162708Y-87926723D02*
X104210327Y-88021961D01*
X104210327Y-88021961D02*
X104305565Y-88117200D01*
X104305565Y-88117200D02*
X104448422Y-88164819D01*
X104448422Y-88164819D02*
X104686517Y-88164819D01*
X103734136Y-87260057D02*
X103686517Y-87212438D01*
X103686517Y-87212438D02*
X103591279Y-87164819D01*
X103591279Y-87164819D02*
X103353184Y-87164819D01*
X103353184Y-87164819D02*
X103257946Y-87212438D01*
X103257946Y-87212438D02*
X103210327Y-87260057D01*
X103210327Y-87260057D02*
X103162708Y-87355295D01*
X103162708Y-87355295D02*
X103162708Y-87450533D01*
X103162708Y-87450533D02*
X103210327Y-87593390D01*
X103210327Y-87593390D02*
X103781755Y-88164819D01*
X103781755Y-88164819D02*
X103162708Y-88164819D01*
X108026666Y-93064819D02*
X108359999Y-92588628D01*
X108598094Y-93064819D02*
X108598094Y-92064819D01*
X108598094Y-92064819D02*
X108217142Y-92064819D01*
X108217142Y-92064819D02*
X108121904Y-92112438D01*
X108121904Y-92112438D02*
X108074285Y-92160057D01*
X108074285Y-92160057D02*
X108026666Y-92255295D01*
X108026666Y-92255295D02*
X108026666Y-92398152D01*
X108026666Y-92398152D02*
X108074285Y-92493390D01*
X108074285Y-92493390D02*
X108121904Y-92541009D01*
X108121904Y-92541009D02*
X108217142Y-92588628D01*
X108217142Y-92588628D02*
X108598094Y-92588628D01*
X107169523Y-92398152D02*
X107169523Y-93064819D01*
X107407618Y-92017200D02*
X107645713Y-92731485D01*
X107645713Y-92731485D02*
X107026666Y-92731485D01*
D11*
%TO.C,D1*%
X111173423Y-88390000D02*
X111173423Y-90310000D01*
X111173423Y-90310000D02*
X113858423Y-90310000D01*
X113858423Y-88390000D02*
X111173423Y-88390000D01*
D12*
%TO.C,J1*%
X125528100Y-94538540D02*
X125528100Y-100626999D01*
X125528100Y-100626999D02*
X128419560Y-100626999D01*
X130380440Y-100626999D02*
X130919560Y-100626999D01*
X132880440Y-100626999D02*
X133419560Y-100626999D01*
X135380440Y-100626999D02*
X135919560Y-100626999D01*
X137880440Y-100626999D02*
X138419560Y-100626999D01*
X140380440Y-100626999D02*
X140919560Y-100626999D01*
X142880440Y-100626999D02*
X145771900Y-100626999D01*
X143865559Y-90365399D02*
X127434441Y-90365399D01*
X145771900Y-100626999D02*
X145771900Y-94538540D01*
D11*
%TO.C,R1*%
X116532936Y-88615000D02*
X116987064Y-88615000D01*
X116532936Y-90085000D02*
X116987064Y-90085000D01*
%TO.C,R2*%
X107622936Y-88615000D02*
X108077064Y-88615000D01*
X107622936Y-90085000D02*
X108077064Y-90085000D01*
%TO.C,S1*%
X90900000Y-93050000D02*
X90900000Y-90450000D01*
X96900000Y-88500000D02*
X91100000Y-88500000D01*
X97000000Y-95000000D02*
X91000000Y-95000000D01*
X97100000Y-93050000D02*
X97100000Y-90450000D01*
X98100000Y-88450000D02*
X99100000Y-88450000D01*
X99100000Y-88450000D02*
X99100000Y-89450000D01*
%TO.C,D4*%
X102273423Y-93300000D02*
X102273423Y-95220000D01*
X102273423Y-95220000D02*
X104958423Y-95220000D01*
X104958423Y-93300000D02*
X102273423Y-93300000D01*
%TO.C,R3*%
X116542936Y-93525000D02*
X116997064Y-93525000D01*
X116542936Y-94995000D02*
X116997064Y-94995000D01*
%TO.C,D3*%
X111183423Y-93300000D02*
X111183423Y-95220000D01*
X111183423Y-95220000D02*
X113868423Y-95220000D01*
X113868423Y-93300000D02*
X111183423Y-93300000D01*
%TO.C,D2*%
X102263423Y-88390000D02*
X102263423Y-90310000D01*
X102263423Y-90310000D02*
X104948423Y-90310000D01*
X104948423Y-88390000D02*
X102263423Y-88390000D01*
%TO.C,R4*%
X107632936Y-93525000D02*
X108087064Y-93525000D01*
X107632936Y-94995000D02*
X108087064Y-94995000D01*
%TD*%
M02*
