%TF.GenerationSoftware,KiCad,Pcbnew,8.0.5*%
%TF.CreationDate,2025-08-28T07:35:46+02:00*%
%TF.ProjectId,SVX_Node_Case_front,5356585f-4e6f-4646-955f-436173655f66,rev?*%
%TF.SameCoordinates,Original*%
%TF.FileFunction,Drillmap*%
%TF.FilePolarity,Positive*%
%FSLAX45Y45*%
G04 Gerber Fmt 4.5, Leading zero omitted, Abs format (unit mm)*
G04 Created by KiCad (PCBNEW 8.0.5) date 2025-08-28 07:35:46*
%MOMM*%
%LPD*%
G01*
G04 APERTURE LIST*
%ADD10C,0.050000*%
%ADD11C,0.200000*%
%ADD12C,0.430000*%
G04 APERTURE END LIST*
D10*
X10322000Y-9357000D02*
X10472000Y-9357000D01*
X10472000Y-9497000D01*
X10322000Y-9497000D01*
X10322000Y-9357000D01*
X11212000Y-8866000D02*
X11362000Y-8866000D01*
X11362000Y-9006000D01*
X11212000Y-9006000D01*
X11212000Y-8866000D01*
X11213000Y-9357000D02*
X11363000Y-9357000D01*
X11363000Y-9497000D01*
X11213000Y-9497000D01*
X11213000Y-9357000D01*
X17700003Y-8900000D02*
X19200003Y-8900000D01*
D11*
X9580000Y-9175000D02*
G75*
G02*
X9220000Y-9175000I-180000J0D01*
G01*
X9220000Y-9175000D02*
G75*
G02*
X9580000Y-9175000I180000J0D01*
G01*
D10*
X19200003Y-8900000D02*
G75*
G02*
X19200003Y-9425000I-3J-262500D01*
G01*
X7450000Y-6400000D02*
X21950000Y-6400000D01*
X21950000Y-11800000D01*
X7450000Y-11800000D01*
X7450000Y-6400000D01*
X10321000Y-8866000D02*
X10471000Y-8866000D01*
X10471000Y-9006000D01*
X10321000Y-9006000D01*
X10321000Y-8866000D01*
X17700003Y-9425000D02*
G75*
G02*
X17700003Y-8900000I-3J262500D01*
G01*
X17700003Y-9425000D02*
X19200003Y-9425000D01*
D11*
D12*
X7690000Y-6640000D02*
X8120000Y-7070000D01*
X8120000Y-6640000D02*
X7690000Y-7070000D01*
X7690000Y-11130000D02*
X8120000Y-11560000D01*
X8120000Y-11130000D02*
X7690000Y-11560000D01*
X21278000Y-11130000D02*
X21708000Y-11560000D01*
X21708000Y-11130000D02*
X21278000Y-11560000D01*
X21280000Y-6642500D02*
X21710000Y-7072500D01*
X21710000Y-6642500D02*
X21280000Y-7072500D01*
D11*
X7708277Y-12113984D02*
X7708277Y-11913984D01*
X7708277Y-11913984D02*
X7755896Y-11913984D01*
X7755896Y-11913984D02*
X7784467Y-11923508D01*
X7784467Y-11923508D02*
X7803515Y-11942555D01*
X7803515Y-11942555D02*
X7813039Y-11961603D01*
X7813039Y-11961603D02*
X7822562Y-11999698D01*
X7822562Y-11999698D02*
X7822562Y-12028269D01*
X7822562Y-12028269D02*
X7813039Y-12066365D01*
X7813039Y-12066365D02*
X7803515Y-12085412D01*
X7803515Y-12085412D02*
X7784467Y-12104460D01*
X7784467Y-12104460D02*
X7755896Y-12113984D01*
X7755896Y-12113984D02*
X7708277Y-12113984D01*
X7908277Y-12113984D02*
X7908277Y-11980650D01*
X7908277Y-12018746D02*
X7917801Y-11999698D01*
X7917801Y-11999698D02*
X7927324Y-11990174D01*
X7927324Y-11990174D02*
X7946372Y-11980650D01*
X7946372Y-11980650D02*
X7965420Y-11980650D01*
X8032086Y-12113984D02*
X8032086Y-11980650D01*
X8032086Y-11913984D02*
X8022562Y-11923508D01*
X8022562Y-11923508D02*
X8032086Y-11933031D01*
X8032086Y-11933031D02*
X8041610Y-11923508D01*
X8041610Y-11923508D02*
X8032086Y-11913984D01*
X8032086Y-11913984D02*
X8032086Y-11933031D01*
X8155896Y-12113984D02*
X8136848Y-12104460D01*
X8136848Y-12104460D02*
X8127324Y-12085412D01*
X8127324Y-12085412D02*
X8127324Y-11913984D01*
X8260658Y-12113984D02*
X8241610Y-12104460D01*
X8241610Y-12104460D02*
X8232086Y-12085412D01*
X8232086Y-12085412D02*
X8232086Y-11913984D01*
X8489229Y-12113984D02*
X8489229Y-11913984D01*
X8489229Y-11913984D02*
X8555896Y-12056841D01*
X8555896Y-12056841D02*
X8622563Y-11913984D01*
X8622563Y-11913984D02*
X8622563Y-12113984D01*
X8803515Y-12113984D02*
X8803515Y-12009222D01*
X8803515Y-12009222D02*
X8793991Y-11990174D01*
X8793991Y-11990174D02*
X8774944Y-11980650D01*
X8774944Y-11980650D02*
X8736848Y-11980650D01*
X8736848Y-11980650D02*
X8717801Y-11990174D01*
X8803515Y-12104460D02*
X8784467Y-12113984D01*
X8784467Y-12113984D02*
X8736848Y-12113984D01*
X8736848Y-12113984D02*
X8717801Y-12104460D01*
X8717801Y-12104460D02*
X8708277Y-12085412D01*
X8708277Y-12085412D02*
X8708277Y-12066365D01*
X8708277Y-12066365D02*
X8717801Y-12047317D01*
X8717801Y-12047317D02*
X8736848Y-12037793D01*
X8736848Y-12037793D02*
X8784467Y-12037793D01*
X8784467Y-12037793D02*
X8803515Y-12028269D01*
X8898753Y-11980650D02*
X8898753Y-12180650D01*
X8898753Y-11990174D02*
X8917801Y-11980650D01*
X8917801Y-11980650D02*
X8955896Y-11980650D01*
X8955896Y-11980650D02*
X8974944Y-11990174D01*
X8974944Y-11990174D02*
X8984467Y-11999698D01*
X8984467Y-11999698D02*
X8993991Y-12018746D01*
X8993991Y-12018746D02*
X8993991Y-12075888D01*
X8993991Y-12075888D02*
X8984467Y-12094936D01*
X8984467Y-12094936D02*
X8974944Y-12104460D01*
X8974944Y-12104460D02*
X8955896Y-12113984D01*
X8955896Y-12113984D02*
X8917801Y-12113984D01*
X8917801Y-12113984D02*
X8898753Y-12104460D01*
X9079705Y-12094936D02*
X9089229Y-12104460D01*
X9089229Y-12104460D02*
X9079705Y-12113984D01*
X9079705Y-12113984D02*
X9070182Y-12104460D01*
X9070182Y-12104460D02*
X9079705Y-12094936D01*
X9079705Y-12094936D02*
X9079705Y-12113984D01*
X9079705Y-11990174D02*
X9089229Y-11999698D01*
X9089229Y-11999698D02*
X9079705Y-12009222D01*
X9079705Y-12009222D02*
X9070182Y-11999698D01*
X9070182Y-11999698D02*
X9079705Y-11990174D01*
X9079705Y-11990174D02*
X9079705Y-12009222D01*
X7247500Y-12342500D02*
X7447500Y-12542500D01*
X7447500Y-12342500D02*
X7247500Y-12542500D01*
X7793991Y-12400650D02*
X7793991Y-12533984D01*
X7746372Y-12324460D02*
X7698753Y-12467317D01*
X7698753Y-12467317D02*
X7822562Y-12467317D01*
X7898753Y-12514936D02*
X7908277Y-12524460D01*
X7908277Y-12524460D02*
X7898753Y-12533984D01*
X7898753Y-12533984D02*
X7889229Y-12524460D01*
X7889229Y-12524460D02*
X7898753Y-12514936D01*
X7898753Y-12514936D02*
X7898753Y-12533984D01*
X7974943Y-12333984D02*
X8098753Y-12333984D01*
X8098753Y-12333984D02*
X8032086Y-12410174D01*
X8032086Y-12410174D02*
X8060658Y-12410174D01*
X8060658Y-12410174D02*
X8079705Y-12419698D01*
X8079705Y-12419698D02*
X8089229Y-12429222D01*
X8089229Y-12429222D02*
X8098753Y-12448269D01*
X8098753Y-12448269D02*
X8098753Y-12495888D01*
X8098753Y-12495888D02*
X8089229Y-12514936D01*
X8089229Y-12514936D02*
X8079705Y-12524460D01*
X8079705Y-12524460D02*
X8060658Y-12533984D01*
X8060658Y-12533984D02*
X8003515Y-12533984D01*
X8003515Y-12533984D02*
X7984467Y-12524460D01*
X7984467Y-12524460D02*
X7974943Y-12514936D01*
X8222562Y-12333984D02*
X8241610Y-12333984D01*
X8241610Y-12333984D02*
X8260658Y-12343508D01*
X8260658Y-12343508D02*
X8270182Y-12353031D01*
X8270182Y-12353031D02*
X8279705Y-12372079D01*
X8279705Y-12372079D02*
X8289229Y-12410174D01*
X8289229Y-12410174D02*
X8289229Y-12457793D01*
X8289229Y-12457793D02*
X8279705Y-12495888D01*
X8279705Y-12495888D02*
X8270182Y-12514936D01*
X8270182Y-12514936D02*
X8260658Y-12524460D01*
X8260658Y-12524460D02*
X8241610Y-12533984D01*
X8241610Y-12533984D02*
X8222562Y-12533984D01*
X8222562Y-12533984D02*
X8203515Y-12524460D01*
X8203515Y-12524460D02*
X8193991Y-12514936D01*
X8193991Y-12514936D02*
X8184467Y-12495888D01*
X8184467Y-12495888D02*
X8174943Y-12457793D01*
X8174943Y-12457793D02*
X8174943Y-12410174D01*
X8174943Y-12410174D02*
X8184467Y-12372079D01*
X8184467Y-12372079D02*
X8193991Y-12353031D01*
X8193991Y-12353031D02*
X8203515Y-12343508D01*
X8203515Y-12343508D02*
X8222562Y-12333984D01*
X8413039Y-12333984D02*
X8432086Y-12333984D01*
X8432086Y-12333984D02*
X8451134Y-12343508D01*
X8451134Y-12343508D02*
X8460658Y-12353031D01*
X8460658Y-12353031D02*
X8470182Y-12372079D01*
X8470182Y-12372079D02*
X8479705Y-12410174D01*
X8479705Y-12410174D02*
X8479705Y-12457793D01*
X8479705Y-12457793D02*
X8470182Y-12495888D01*
X8470182Y-12495888D02*
X8460658Y-12514936D01*
X8460658Y-12514936D02*
X8451134Y-12524460D01*
X8451134Y-12524460D02*
X8432086Y-12533984D01*
X8432086Y-12533984D02*
X8413039Y-12533984D01*
X8413039Y-12533984D02*
X8393991Y-12524460D01*
X8393991Y-12524460D02*
X8384467Y-12514936D01*
X8384467Y-12514936D02*
X8374943Y-12495888D01*
X8374943Y-12495888D02*
X8365420Y-12457793D01*
X8365420Y-12457793D02*
X8365420Y-12410174D01*
X8365420Y-12410174D02*
X8374943Y-12372079D01*
X8374943Y-12372079D02*
X8384467Y-12353031D01*
X8384467Y-12353031D02*
X8393991Y-12343508D01*
X8393991Y-12343508D02*
X8413039Y-12333984D01*
X8565420Y-12533984D02*
X8565420Y-12400650D01*
X8565420Y-12419698D02*
X8574944Y-12410174D01*
X8574944Y-12410174D02*
X8593991Y-12400650D01*
X8593991Y-12400650D02*
X8622563Y-12400650D01*
X8622563Y-12400650D02*
X8641610Y-12410174D01*
X8641610Y-12410174D02*
X8651134Y-12429222D01*
X8651134Y-12429222D02*
X8651134Y-12533984D01*
X8651134Y-12429222D02*
X8660658Y-12410174D01*
X8660658Y-12410174D02*
X8679705Y-12400650D01*
X8679705Y-12400650D02*
X8708277Y-12400650D01*
X8708277Y-12400650D02*
X8727325Y-12410174D01*
X8727325Y-12410174D02*
X8736848Y-12429222D01*
X8736848Y-12429222D02*
X8736848Y-12533984D01*
X8832086Y-12533984D02*
X8832086Y-12400650D01*
X8832086Y-12419698D02*
X8841610Y-12410174D01*
X8841610Y-12410174D02*
X8860658Y-12400650D01*
X8860658Y-12400650D02*
X8889229Y-12400650D01*
X8889229Y-12400650D02*
X8908277Y-12410174D01*
X8908277Y-12410174D02*
X8917801Y-12429222D01*
X8917801Y-12429222D02*
X8917801Y-12533984D01*
X8917801Y-12429222D02*
X8927325Y-12410174D01*
X8927325Y-12410174D02*
X8946372Y-12400650D01*
X8946372Y-12400650D02*
X8974944Y-12400650D01*
X8974944Y-12400650D02*
X8993991Y-12410174D01*
X8993991Y-12410174D02*
X9003515Y-12429222D01*
X9003515Y-12429222D02*
X9003515Y-12533984D01*
X9393991Y-12324460D02*
X9222563Y-12581603D01*
X9651134Y-12333984D02*
X9670182Y-12333984D01*
X9670182Y-12333984D02*
X9689229Y-12343508D01*
X9689229Y-12343508D02*
X9698753Y-12353031D01*
X9698753Y-12353031D02*
X9708277Y-12372079D01*
X9708277Y-12372079D02*
X9717801Y-12410174D01*
X9717801Y-12410174D02*
X9717801Y-12457793D01*
X9717801Y-12457793D02*
X9708277Y-12495888D01*
X9708277Y-12495888D02*
X9698753Y-12514936D01*
X9698753Y-12514936D02*
X9689229Y-12524460D01*
X9689229Y-12524460D02*
X9670182Y-12533984D01*
X9670182Y-12533984D02*
X9651134Y-12533984D01*
X9651134Y-12533984D02*
X9632087Y-12524460D01*
X9632087Y-12524460D02*
X9622563Y-12514936D01*
X9622563Y-12514936D02*
X9613039Y-12495888D01*
X9613039Y-12495888D02*
X9603515Y-12457793D01*
X9603515Y-12457793D02*
X9603515Y-12410174D01*
X9603515Y-12410174D02*
X9613039Y-12372079D01*
X9613039Y-12372079D02*
X9622563Y-12353031D01*
X9622563Y-12353031D02*
X9632087Y-12343508D01*
X9632087Y-12343508D02*
X9651134Y-12333984D01*
X9803515Y-12514936D02*
X9813039Y-12524460D01*
X9813039Y-12524460D02*
X9803515Y-12533984D01*
X9803515Y-12533984D02*
X9793991Y-12524460D01*
X9793991Y-12524460D02*
X9803515Y-12514936D01*
X9803515Y-12514936D02*
X9803515Y-12533984D01*
X10003515Y-12533984D02*
X9889229Y-12533984D01*
X9946372Y-12533984D02*
X9946372Y-12333984D01*
X9946372Y-12333984D02*
X9927325Y-12362555D01*
X9927325Y-12362555D02*
X9908277Y-12381603D01*
X9908277Y-12381603D02*
X9889229Y-12391127D01*
X10174944Y-12333984D02*
X10136848Y-12333984D01*
X10136848Y-12333984D02*
X10117801Y-12343508D01*
X10117801Y-12343508D02*
X10108277Y-12353031D01*
X10108277Y-12353031D02*
X10089229Y-12381603D01*
X10089229Y-12381603D02*
X10079706Y-12419698D01*
X10079706Y-12419698D02*
X10079706Y-12495888D01*
X10079706Y-12495888D02*
X10089229Y-12514936D01*
X10089229Y-12514936D02*
X10098753Y-12524460D01*
X10098753Y-12524460D02*
X10117801Y-12533984D01*
X10117801Y-12533984D02*
X10155896Y-12533984D01*
X10155896Y-12533984D02*
X10174944Y-12524460D01*
X10174944Y-12524460D02*
X10184468Y-12514936D01*
X10184468Y-12514936D02*
X10193991Y-12495888D01*
X10193991Y-12495888D02*
X10193991Y-12448269D01*
X10193991Y-12448269D02*
X10184468Y-12429222D01*
X10184468Y-12429222D02*
X10174944Y-12419698D01*
X10174944Y-12419698D02*
X10155896Y-12410174D01*
X10155896Y-12410174D02*
X10117801Y-12410174D01*
X10117801Y-12410174D02*
X10098753Y-12419698D01*
X10098753Y-12419698D02*
X10089229Y-12429222D01*
X10089229Y-12429222D02*
X10079706Y-12448269D01*
X10289229Y-12533984D02*
X10327325Y-12533984D01*
X10327325Y-12533984D02*
X10346372Y-12524460D01*
X10346372Y-12524460D02*
X10355896Y-12514936D01*
X10355896Y-12514936D02*
X10374944Y-12486365D01*
X10374944Y-12486365D02*
X10384468Y-12448269D01*
X10384468Y-12448269D02*
X10384468Y-12372079D01*
X10384468Y-12372079D02*
X10374944Y-12353031D01*
X10374944Y-12353031D02*
X10365420Y-12343508D01*
X10365420Y-12343508D02*
X10346372Y-12333984D01*
X10346372Y-12333984D02*
X10308277Y-12333984D01*
X10308277Y-12333984D02*
X10289229Y-12343508D01*
X10289229Y-12343508D02*
X10279706Y-12353031D01*
X10279706Y-12353031D02*
X10270182Y-12372079D01*
X10270182Y-12372079D02*
X10270182Y-12419698D01*
X10270182Y-12419698D02*
X10279706Y-12438746D01*
X10279706Y-12438746D02*
X10289229Y-12448269D01*
X10289229Y-12448269D02*
X10308277Y-12457793D01*
X10308277Y-12457793D02*
X10346372Y-12457793D01*
X10346372Y-12457793D02*
X10365420Y-12448269D01*
X10365420Y-12448269D02*
X10374944Y-12438746D01*
X10374944Y-12438746D02*
X10384468Y-12419698D01*
X10451134Y-12333984D02*
X10574944Y-12333984D01*
X10574944Y-12333984D02*
X10508277Y-12410174D01*
X10508277Y-12410174D02*
X10536849Y-12410174D01*
X10536849Y-12410174D02*
X10555896Y-12419698D01*
X10555896Y-12419698D02*
X10565420Y-12429222D01*
X10565420Y-12429222D02*
X10574944Y-12448269D01*
X10574944Y-12448269D02*
X10574944Y-12495888D01*
X10574944Y-12495888D02*
X10565420Y-12514936D01*
X10565420Y-12514936D02*
X10555896Y-12524460D01*
X10555896Y-12524460D02*
X10536849Y-12533984D01*
X10536849Y-12533984D02*
X10479706Y-12533984D01*
X10479706Y-12533984D02*
X10460658Y-12524460D01*
X10460658Y-12524460D02*
X10451134Y-12514936D01*
X10651134Y-12333984D02*
X10651134Y-12372079D01*
X10727325Y-12333984D02*
X10727325Y-12372079D01*
X11022563Y-12610174D02*
X11013039Y-12600650D01*
X11013039Y-12600650D02*
X10993991Y-12572079D01*
X10993991Y-12572079D02*
X10984468Y-12553031D01*
X10984468Y-12553031D02*
X10974944Y-12524460D01*
X10974944Y-12524460D02*
X10965420Y-12476841D01*
X10965420Y-12476841D02*
X10965420Y-12438746D01*
X10965420Y-12438746D02*
X10974944Y-12391127D01*
X10974944Y-12391127D02*
X10984468Y-12362555D01*
X10984468Y-12362555D02*
X10993991Y-12343508D01*
X10993991Y-12343508D02*
X11013039Y-12314936D01*
X11013039Y-12314936D02*
X11022563Y-12305412D01*
X11184468Y-12400650D02*
X11184468Y-12533984D01*
X11136849Y-12324460D02*
X11089230Y-12467317D01*
X11089230Y-12467317D02*
X11213039Y-12467317D01*
X11441610Y-12533984D02*
X11441610Y-12333984D01*
X11527325Y-12533984D02*
X11527325Y-12429222D01*
X11527325Y-12429222D02*
X11517801Y-12410174D01*
X11517801Y-12410174D02*
X11498753Y-12400650D01*
X11498753Y-12400650D02*
X11470182Y-12400650D01*
X11470182Y-12400650D02*
X11451134Y-12410174D01*
X11451134Y-12410174D02*
X11441610Y-12419698D01*
X11651134Y-12533984D02*
X11632087Y-12524460D01*
X11632087Y-12524460D02*
X11622563Y-12514936D01*
X11622563Y-12514936D02*
X11613039Y-12495888D01*
X11613039Y-12495888D02*
X11613039Y-12438746D01*
X11613039Y-12438746D02*
X11622563Y-12419698D01*
X11622563Y-12419698D02*
X11632087Y-12410174D01*
X11632087Y-12410174D02*
X11651134Y-12400650D01*
X11651134Y-12400650D02*
X11679706Y-12400650D01*
X11679706Y-12400650D02*
X11698753Y-12410174D01*
X11698753Y-12410174D02*
X11708277Y-12419698D01*
X11708277Y-12419698D02*
X11717801Y-12438746D01*
X11717801Y-12438746D02*
X11717801Y-12495888D01*
X11717801Y-12495888D02*
X11708277Y-12514936D01*
X11708277Y-12514936D02*
X11698753Y-12524460D01*
X11698753Y-12524460D02*
X11679706Y-12533984D01*
X11679706Y-12533984D02*
X11651134Y-12533984D01*
X11832087Y-12533984D02*
X11813039Y-12524460D01*
X11813039Y-12524460D02*
X11803515Y-12505412D01*
X11803515Y-12505412D02*
X11803515Y-12333984D01*
X11984468Y-12524460D02*
X11965420Y-12533984D01*
X11965420Y-12533984D02*
X11927325Y-12533984D01*
X11927325Y-12533984D02*
X11908277Y-12524460D01*
X11908277Y-12524460D02*
X11898753Y-12505412D01*
X11898753Y-12505412D02*
X11898753Y-12429222D01*
X11898753Y-12429222D02*
X11908277Y-12410174D01*
X11908277Y-12410174D02*
X11927325Y-12400650D01*
X11927325Y-12400650D02*
X11965420Y-12400650D01*
X11965420Y-12400650D02*
X11984468Y-12410174D01*
X11984468Y-12410174D02*
X11993991Y-12429222D01*
X11993991Y-12429222D02*
X11993991Y-12448269D01*
X11993991Y-12448269D02*
X11898753Y-12467317D01*
X12070182Y-12524460D02*
X12089230Y-12533984D01*
X12089230Y-12533984D02*
X12127325Y-12533984D01*
X12127325Y-12533984D02*
X12146372Y-12524460D01*
X12146372Y-12524460D02*
X12155896Y-12505412D01*
X12155896Y-12505412D02*
X12155896Y-12495888D01*
X12155896Y-12495888D02*
X12146372Y-12476841D01*
X12146372Y-12476841D02*
X12127325Y-12467317D01*
X12127325Y-12467317D02*
X12098753Y-12467317D01*
X12098753Y-12467317D02*
X12079706Y-12457793D01*
X12079706Y-12457793D02*
X12070182Y-12438746D01*
X12070182Y-12438746D02*
X12070182Y-12429222D01*
X12070182Y-12429222D02*
X12079706Y-12410174D01*
X12079706Y-12410174D02*
X12098753Y-12400650D01*
X12098753Y-12400650D02*
X12127325Y-12400650D01*
X12127325Y-12400650D02*
X12146372Y-12410174D01*
X12222563Y-12610174D02*
X12232087Y-12600650D01*
X12232087Y-12600650D02*
X12251134Y-12572079D01*
X12251134Y-12572079D02*
X12260658Y-12553031D01*
X12260658Y-12553031D02*
X12270182Y-12524460D01*
X12270182Y-12524460D02*
X12279706Y-12476841D01*
X12279706Y-12476841D02*
X12279706Y-12438746D01*
X12279706Y-12438746D02*
X12270182Y-12391127D01*
X12270182Y-12391127D02*
X12260658Y-12362555D01*
X12260658Y-12362555D02*
X12251134Y-12343508D01*
X12251134Y-12343508D02*
X12232087Y-12314936D01*
X12232087Y-12314936D02*
X12222563Y-12305412D01*
X12584468Y-12610174D02*
X12574944Y-12600650D01*
X12574944Y-12600650D02*
X12555896Y-12572079D01*
X12555896Y-12572079D02*
X12546372Y-12553031D01*
X12546372Y-12553031D02*
X12536849Y-12524460D01*
X12536849Y-12524460D02*
X12527325Y-12476841D01*
X12527325Y-12476841D02*
X12527325Y-12438746D01*
X12527325Y-12438746D02*
X12536849Y-12391127D01*
X12536849Y-12391127D02*
X12546372Y-12362555D01*
X12546372Y-12362555D02*
X12555896Y-12343508D01*
X12555896Y-12343508D02*
X12574944Y-12314936D01*
X12574944Y-12314936D02*
X12584468Y-12305412D01*
X12660658Y-12400650D02*
X12660658Y-12533984D01*
X12660658Y-12419698D02*
X12670182Y-12410174D01*
X12670182Y-12410174D02*
X12689230Y-12400650D01*
X12689230Y-12400650D02*
X12717801Y-12400650D01*
X12717801Y-12400650D02*
X12736849Y-12410174D01*
X12736849Y-12410174D02*
X12746372Y-12429222D01*
X12746372Y-12429222D02*
X12746372Y-12533984D01*
X12870182Y-12533984D02*
X12851134Y-12524460D01*
X12851134Y-12524460D02*
X12841611Y-12514936D01*
X12841611Y-12514936D02*
X12832087Y-12495888D01*
X12832087Y-12495888D02*
X12832087Y-12438746D01*
X12832087Y-12438746D02*
X12841611Y-12419698D01*
X12841611Y-12419698D02*
X12851134Y-12410174D01*
X12851134Y-12410174D02*
X12870182Y-12400650D01*
X12870182Y-12400650D02*
X12898753Y-12400650D01*
X12898753Y-12400650D02*
X12917801Y-12410174D01*
X12917801Y-12410174D02*
X12927325Y-12419698D01*
X12927325Y-12419698D02*
X12936849Y-12438746D01*
X12936849Y-12438746D02*
X12936849Y-12495888D01*
X12936849Y-12495888D02*
X12927325Y-12514936D01*
X12927325Y-12514936D02*
X12917801Y-12524460D01*
X12917801Y-12524460D02*
X12898753Y-12533984D01*
X12898753Y-12533984D02*
X12870182Y-12533984D01*
X12993992Y-12400650D02*
X13070182Y-12400650D01*
X13022563Y-12333984D02*
X13022563Y-12505412D01*
X13022563Y-12505412D02*
X13032087Y-12524460D01*
X13032087Y-12524460D02*
X13051134Y-12533984D01*
X13051134Y-12533984D02*
X13070182Y-12533984D01*
X13289230Y-12400650D02*
X13289230Y-12600650D01*
X13289230Y-12410174D02*
X13308277Y-12400650D01*
X13308277Y-12400650D02*
X13346373Y-12400650D01*
X13346373Y-12400650D02*
X13365420Y-12410174D01*
X13365420Y-12410174D02*
X13374944Y-12419698D01*
X13374944Y-12419698D02*
X13384468Y-12438746D01*
X13384468Y-12438746D02*
X13384468Y-12495888D01*
X13384468Y-12495888D02*
X13374944Y-12514936D01*
X13374944Y-12514936D02*
X13365420Y-12524460D01*
X13365420Y-12524460D02*
X13346373Y-12533984D01*
X13346373Y-12533984D02*
X13308277Y-12533984D01*
X13308277Y-12533984D02*
X13289230Y-12524460D01*
X13498753Y-12533984D02*
X13479706Y-12524460D01*
X13479706Y-12524460D02*
X13470182Y-12505412D01*
X13470182Y-12505412D02*
X13470182Y-12333984D01*
X13660658Y-12533984D02*
X13660658Y-12429222D01*
X13660658Y-12429222D02*
X13651134Y-12410174D01*
X13651134Y-12410174D02*
X13632087Y-12400650D01*
X13632087Y-12400650D02*
X13593992Y-12400650D01*
X13593992Y-12400650D02*
X13574944Y-12410174D01*
X13660658Y-12524460D02*
X13641611Y-12533984D01*
X13641611Y-12533984D02*
X13593992Y-12533984D01*
X13593992Y-12533984D02*
X13574944Y-12524460D01*
X13574944Y-12524460D02*
X13565420Y-12505412D01*
X13565420Y-12505412D02*
X13565420Y-12486365D01*
X13565420Y-12486365D02*
X13574944Y-12467317D01*
X13574944Y-12467317D02*
X13593992Y-12457793D01*
X13593992Y-12457793D02*
X13641611Y-12457793D01*
X13641611Y-12457793D02*
X13660658Y-12448269D01*
X13727325Y-12400650D02*
X13803515Y-12400650D01*
X13755896Y-12333984D02*
X13755896Y-12505412D01*
X13755896Y-12505412D02*
X13765420Y-12524460D01*
X13765420Y-12524460D02*
X13784468Y-12533984D01*
X13784468Y-12533984D02*
X13803515Y-12533984D01*
X13946373Y-12524460D02*
X13927325Y-12533984D01*
X13927325Y-12533984D02*
X13889230Y-12533984D01*
X13889230Y-12533984D02*
X13870182Y-12524460D01*
X13870182Y-12524460D02*
X13860658Y-12505412D01*
X13860658Y-12505412D02*
X13860658Y-12429222D01*
X13860658Y-12429222D02*
X13870182Y-12410174D01*
X13870182Y-12410174D02*
X13889230Y-12400650D01*
X13889230Y-12400650D02*
X13927325Y-12400650D01*
X13927325Y-12400650D02*
X13946373Y-12410174D01*
X13946373Y-12410174D02*
X13955896Y-12429222D01*
X13955896Y-12429222D02*
X13955896Y-12448269D01*
X13955896Y-12448269D02*
X13860658Y-12467317D01*
X14127325Y-12533984D02*
X14127325Y-12333984D01*
X14127325Y-12524460D02*
X14108277Y-12533984D01*
X14108277Y-12533984D02*
X14070182Y-12533984D01*
X14070182Y-12533984D02*
X14051134Y-12524460D01*
X14051134Y-12524460D02*
X14041611Y-12514936D01*
X14041611Y-12514936D02*
X14032087Y-12495888D01*
X14032087Y-12495888D02*
X14032087Y-12438746D01*
X14032087Y-12438746D02*
X14041611Y-12419698D01*
X14041611Y-12419698D02*
X14051134Y-12410174D01*
X14051134Y-12410174D02*
X14070182Y-12400650D01*
X14070182Y-12400650D02*
X14108277Y-12400650D01*
X14108277Y-12400650D02*
X14127325Y-12410174D01*
X14203515Y-12610174D02*
X14213039Y-12600650D01*
X14213039Y-12600650D02*
X14232087Y-12572079D01*
X14232087Y-12572079D02*
X14241611Y-12553031D01*
X14241611Y-12553031D02*
X14251134Y-12524460D01*
X14251134Y-12524460D02*
X14260658Y-12476841D01*
X14260658Y-12476841D02*
X14260658Y-12438746D01*
X14260658Y-12438746D02*
X14251134Y-12391127D01*
X14251134Y-12391127D02*
X14241611Y-12362555D01*
X14241611Y-12362555D02*
X14232087Y-12343508D01*
X14232087Y-12343508D02*
X14213039Y-12314936D01*
X14213039Y-12314936D02*
X14203515Y-12305412D01*
M02*
